<svg width="90" height="90" viewBox="0 0 90 90" fill="none" xmlns="http://www.w3.org/2000/svg">
<path d="M46.8685 68.8485C46.1415 68.5861 43.7529 68.1663 42.7663 68.6386C41.8836 69.0584 41.2605 70.2129 41.6759 71C41.7797 70.6852 42.0393 70.2129 42.4028 70.0554C42.974 69.793 42.6625 70.5802 43.1298 70.5277C43.4413 70.5277 43.2856 69.898 43.701 69.898C44.3241 69.8455 43.9087 70.8426 44.4279 70.8426C44.8953 70.8426 44.7395 69.8455 45.3626 69.7406C46.1415 69.6356 46.0376 70.8426 46.2973 70.7376C46.6608 70.6327 46.5569 69.9505 47.0762 70.003C47.907 70.0554 48.3224 70.6851 48.3224 70.6851C48.3224 70.6851 48.582 69.5307 46.8685 68.8485Z" fill="#D81E0B"/>
<path d="M37.5738 25.6082C40.4297 26.7627 43.3895 26.028 44.6357 25.6082C44.3241 25.4508 43.9606 25.2933 43.5972 25.1359C42.6625 24.7161 41.6759 24.1913 40.7412 23.6666C39.8066 23.1418 38.82 22.6171 37.9372 22.1448C37.4699 21.9349 37.0545 21.6725 36.6391 21.4626C36.2237 21.2527 35.8602 21.0953 35.4967 20.9378C35.1332 20.7804 34.8217 20.6754 34.5101 20.5705C34.1986 20.4655 33.9389 20.4655 33.7312 20.4655C33.5235 20.4655 33.3158 20.4655 33.212 20.4655C33.1081 20.4655 33.0562 20.518 33.0562 20.518C33.0043 20.518 33.0043 20.518 32.9524 20.4655C32.9524 20.4131 32.9524 20.4131 33.0043 20.4131C33.0043 20.4131 33.0562 20.3606 33.1601 20.3081C33.2639 20.2556 33.4716 20.2032 33.6793 20.1507C33.9389 20.0982 34.1986 20.0982 34.5621 20.0982C34.8736 20.0982 35.289 20.2032 35.6525 20.3081C36.4314 20.518 37.3661 20.8853 38.2488 21.3051C39.1835 21.725 40.1181 22.3022 41.1047 22.7745C42.0394 23.2992 43.026 23.824 43.9087 24.2963C44.2722 24.4537 44.5837 24.6111 44.8953 24.7686C44.1683 23.5616 42.2471 20.7804 39.3912 19.6259C35.6525 18.1041 31.7581 19.8358 31.7581 19.8358C31.7581 19.8358 33.887 24.1389 37.5738 25.6082Z" fill="#D81E0B"/>
<path d="M65.0425 47.1759C64.5232 34.9489 54.9689 29.6489 50.8667 30.1211C48.1666 30.436 47.9589 31.8528 45.8818 32.3251C45.5703 30.436 45.3106 27.4973 46.5569 25.7131C46.8165 25.923 47.0242 26.0805 47.0761 25.6082C47.0761 25.4508 46.9723 25.4508 47.0761 25.2933C47.0761 25.2933 47.2838 25.2933 47.3358 25.2409C47.3877 25.1884 47.4396 24.9785 47.4915 24.926C47.5954 24.821 47.7512 24.8735 47.855 24.8211C48.0627 24.6112 47.9069 24.5062 47.9069 24.2438C48.0108 24.2438 48.1146 24.2963 48.2185 24.2963C48.2704 23.6666 47.4396 23.5091 47.0242 23.1418C46.9203 23.0369 46.5569 22.5646 46.4011 22.6695C46.2972 22.722 46.2972 23.3517 46.2972 23.4567C46.1415 23.4567 45.9338 23.3517 45.778 23.4567C45.6222 23.5092 45.6222 23.7191 45.5183 23.824C45.3626 23.9814 45.1549 23.824 45.1029 24.0864C45.1029 24.1913 45.2068 24.3488 45.3106 24.4012C45.2068 24.4537 45.1029 24.5062 45.051 24.5587C45.051 24.5587 45.2587 24.7161 45.4664 24.8735C44.0125 27.3924 44.2721 30.436 44.5837 32.3776C44.5318 32.3776 44.5318 32.3776 44.4798 32.3776C41.0527 32.3776 41.7797 30.4885 38.6122 30.1211C34.6658 29.6489 23.4499 35.3687 24.021 47.1234C24.3845 54.8898 31.031 71.105 38.4045 70.2653C41.6758 69.898 40.8969 68.0089 44.4798 68.0089C48.0108 68.0089 47.6992 69.9505 51.0225 70.3178C58.4479 71.1574 65.354 54.8899 65.0425 47.1759ZM61.9269 45.2867C61.875 45.2867 61.8231 45.2867 61.7711 45.2867C61.4077 45.2867 61.0442 45.0243 60.9923 44.657C59.8499 38.3599 54.19 34.3717 51.4379 33.637C51.0225 33.5321 50.7629 33.1123 50.8667 32.6925C50.9706 32.2727 51.386 32.0103 51.8014 32.1152C55.3843 33.0598 61.3038 37.6252 62.4981 44.3421C62.6539 44.762 62.3423 45.1818 61.9269 45.2867Z" fill="#D81E0B"/>
</svg>
