<svg width="90" height="90" viewBox="0 0 90 90" fill="none" xmlns="http://www.w3.org/2000/svg">
<path d="M63.9505 62.981C65.231 64.6856 65.1484 67.0486 63.7026 68.6757L63.1657 69.2955C62.2569 70.3414 60.8526 70.9613 59.4068 70.9613H30.4102C29.0471 70.9613 27.7666 70.3802 26.8578 69.373L26.2383 68.6757C25.4948 67.8234 25.123 66.7387 25.123 65.6928C25.123 64.763 25.4121 63.7946 25.9904 63.0198C26.5687 62.245 26.8992 61.3927 26.8992 60.463V36.2124C26.8992 35.825 26.8579 35.4764 26.7339 35.1277C26.5687 34.6628 26.3622 34.198 26.0317 33.8493L25.8665 33.6556C25.7013 33.4619 25.5774 33.2682 25.4535 33.0358C24.7099 31.6412 24.8752 29.9367 25.9904 28.7358L27.0231 27.6511C27.5187 27.1475 27.8079 26.4889 27.9731 25.8303C28.0144 25.5979 28.0557 25.3655 28.0557 25.133V24.397H61.9265V25.0556C61.9265 25.288 61.9678 25.5204 62.0091 25.7529C62.133 26.4502 62.4635 27.07 62.9591 27.5736L63.9918 28.6583C65.107 29.8592 65.3136 31.6412 64.5288 33.0358C64.4049 33.2295 64.2809 33.3844 64.157 33.5781L63.9918 33.7718C63.6613 34.1592 63.4548 34.5854 63.2896 35.0502C63.1657 35.3989 63.1244 35.7863 63.1244 36.1737V60.2693C63.0831 61.2378 63.3722 62.2063 63.9505 62.981Z" fill="url(#paint0_linear)"/>
<path d="M63.042 63.4846C63.8681 64.5693 64.0333 65.9639 63.5377 67.1648C63.3724 67.5909 63.1246 68.0171 62.7942 68.4045L61.8854 69.4117C61.2659 70.109 60.3571 70.4964 59.3658 70.4964H30.493C29.2538 70.4964 28.056 69.9928 27.2711 69.063L26.6929 68.4045C26.4037 68.0946 26.1559 67.7459 26.032 67.3585C25.495 66.1189 25.6189 64.6468 26.4863 63.4846C26.6929 63.2522 26.8581 62.981 26.982 62.7098C27.3538 62.0125 27.5603 61.199 27.5603 60.3855V36.3286C27.5603 36.2511 27.5603 36.1736 27.5603 36.0574C27.519 35.1277 27.1472 34.2754 26.5276 33.5394L26.3211 33.3069C25.2885 32.106 25.3298 30.4015 26.445 29.2393L27.1059 28.542L27.519 28.1159C28.3038 27.3024 28.6755 26.6051 28.6755 25.5204V24.3582L60.7702 24.2033L60.8115 25.133C60.8115 26.2177 61.2245 27.2637 62.0093 28.0772L62.4224 28.5033L63.4964 29.6267C64.3638 30.5177 64.4051 31.8736 63.579 32.8033L62.7942 33.6943C62.3398 34.1979 62.092 34.8178 62.0093 35.4376C61.968 35.67 61.968 35.9412 61.968 36.2124V60.308C61.968 61.0441 62.1333 61.7801 62.4637 62.4387C62.5876 62.826 62.7942 63.1747 63.042 63.4846Z" fill="url(#paint1_linear)"/>
<g opacity="0.2">
<path opacity="0.3" d="M63.4138 33.152L63.2485 33.3457C62.6289 34.043 62.2985 34.8565 62.2159 35.7475C50.6503 36.2898 39.0846 36.3286 27.519 35.8637C27.4777 34.934 27.1059 34.0817 26.4863 33.3457L26.3211 33.152C25.2472 31.9511 25.3298 30.2078 26.445 29.0456L27.0646 28.3871C38.9194 28.9294 50.8155 28.9294 62.6703 28.3871L63.3312 29.0456C64.4464 30.2078 64.4877 31.9511 63.4138 33.152Z" fill="url(#paint2_linear)"/>
</g>
<path opacity="0.2" d="M63.042 68.3657L62.4224 69.063C61.6376 69.954 60.4397 70.4576 59.2005 70.4576H30.5343C29.2951 70.4576 28.1385 69.954 27.3124 69.063L26.6515 68.3657C25.371 66.9711 25.2471 64.918 26.445 63.4459C26.6515 63.2135 26.8167 62.9423 26.9407 62.6711C38.8367 63.136 50.7741 63.0972 62.6702 62.4774C62.8354 62.8261 63.042 63.1747 63.2898 63.4846C64.4464 64.9954 64.3224 66.9711 63.042 68.3657Z" fill="url(#paint3_linear)" fill-opacity="0.7"/>
<path opacity="0.5" d="M39.3736 21.6465L39.3323 71H30.7407C30.0385 70.4189 29.4602 69.8766 28.9646 69.373C27.6841 68.0558 27.0232 66.8937 27.0232 65.1891C27.0232 62.5549 29.3776 62.5549 29.3776 61.1603C29.3776 59.7657 29.9146 36.8709 28.5102 33.9268C27.1058 31.0213 27.3123 29.3943 29.4602 27.6898C31.6081 25.9853 30.8646 21.4528 30.8646 21.4528L39.3736 21.6465Z" fill="url(#paint4_linear)" fill-opacity="0.25"/>
<path opacity="0.25" d="M62.67 65.1891C62.67 67.5522 61.2243 68.9081 58.4981 71H48.9565L48.7913 21.6465L58.3329 21.4528C58.3329 21.4528 57.5068 25.9853 59.9025 27.6898C62.2983 29.3943 62.5461 31.0213 60.9765 33.9268C59.6547 36.4061 59.8612 53.2963 59.9851 59.1846C59.9851 60.2305 60.0264 60.9278 60.0264 61.1603C59.9851 62.5549 62.67 62.5549 62.67 65.1891Z" fill="url(#paint5_linear)" fill-opacity="0.25"/>
<path d="M63.6202 21.8402V22.1889C63.6202 22.4988 63.5789 22.7699 63.4549 23.0411C63.1658 23.8546 62.4636 24.5132 61.5549 24.7844C61.2244 24.9006 60.894 24.9393 60.5222 24.9393H28.7994C28.4276 24.9393 28.0972 24.9006 27.7667 24.7844C26.858 24.5132 26.1971 23.8546 25.8666 23.0411C25.784 22.7699 25.7014 22.4988 25.7014 22.1889V21.8402C25.7014 20.988 26.1145 20.2519 26.8167 19.7483C27.3536 19.3609 28.0145 19.1285 28.758 19.1285H60.4809C61.2244 19.1285 61.8853 19.3609 62.4223 19.7483C63.2071 20.2519 63.6202 20.988 63.6202 21.8402Z" fill="url(#paint6_linear)"/>
<path opacity="0.8" d="M62.5876 19.6321H27.1472C27.6842 19.0897 28.3451 18.8573 29.0886 19.0897H60.6462C61.3897 18.8573 62.0506 19.0897 62.5876 19.6321Z" fill="#FFFFEE"/>
<path d="M63.8266 67.1648C63.6614 67.591 63.4136 68.0171 63.0831 68.3657L62.4635 69.063C61.6787 69.954 60.4808 70.4576 59.2417 70.4576H30.5754C29.3362 70.4576 28.1797 69.954 27.3536 69.063L26.6927 68.3657C26.4035 68.0558 26.1557 67.7072 25.9905 67.3198C38.5888 67.8621 51.2283 67.7846 63.8266 67.1648Z" fill="url(#paint7_linear)" fill-opacity="0.5"/>
<path d="M64.3223 33.1133C64.1983 33.307 64.0744 33.4619 63.9092 33.6556L63.744 33.8493C63.4135 34.2367 63.1657 34.6628 63.0005 35.089C50.8979 35.7088 38.7952 35.7088 26.6926 35.1277C26.5274 34.6628 26.2796 34.2367 25.9491 33.8493L25.7839 33.6556C25.6187 33.4619 25.4948 33.2682 25.3708 33.0358C38.3409 33.7718 51.3522 33.7718 64.3223 33.1133Z" fill="url(#paint8_linear)" fill-opacity="0.2"/>
<defs>
<linearGradient id="paint0_linear" x1="45.0009" y1="70.9878" x2="45.0009" y2="24.397" gradientUnits="userSpaceOnUse">
<stop stop-color="#B0BEEA"/>
<stop offset="0.9946" stop-color="#94A1D3"/>
</linearGradient>
<linearGradient id="paint1_linear" x1="44.8472" y1="70.4583" x2="44.8472" y2="24.2273" gradientUnits="userSpaceOnUse">
<stop stop-color="#B34322"/>
<stop offset="0.2541" stop-color="#B9332F"/>
<stop offset="1" stop-color="#922429"/>
</linearGradient>
<linearGradient id="paint2_linear" x1="44.8639" y1="36.1775" x2="44.8639" y2="28.3882" gradientUnits="userSpaceOnUse">
<stop offset="0.00540541" stop-color="#999999"/>
<stop offset="1" stop-color="white"/>
</linearGradient>
<linearGradient id="paint3_linear" x1="44.8622" y1="70.4583" x2="44.8622" y2="62.4842" gradientUnits="userSpaceOnUse">
<stop offset="0.00540541" stop-color="#999999"/>
<stop offset="1" stop-color="white"/>
</linearGradient>
<linearGradient id="paint4_linear" x1="33.1738" y1="70.9877" x2="33.1738" y2="21.4465" gradientUnits="userSpaceOnUse">
<stop offset="0.00540541" stop-color="#999999"/>
<stop offset="1" stop-color="white"/>
</linearGradient>
<linearGradient id="paint5_linear" x1="55.7226" y1="70.9877" x2="55.7226" y2="21.4465" gradientUnits="userSpaceOnUse">
<stop offset="0.00540541" stop-color="#E6E6E6"/>
<stop offset="1" stop-color="#999999"/>
</linearGradient>
<linearGradient id="paint6_linear" x1="25.8063" y1="22.0145" x2="63.6292" y2="22.0145" gradientUnits="userSpaceOnUse">
<stop stop-color="#C15427"/>
<stop offset="0.0390891" stop-color="#CF6C2C"/>
<stop offset="0.093531" stop-color="#DD8632"/>
<stop offset="0.1538" stop-color="#E99A36"/>
<stop offset="0.222" stop-color="#F1A83A"/>
<stop offset="0.3049" stop-color="#F6B03B"/>
<stop offset="0.4438" stop-color="#F7B33C"/>
<stop offset="0.5356" stop-color="#F4AD3B"/>
<stop offset="0.6529" stop-color="#EC9E38"/>
<stop offset="0.7839" stop-color="#DF8332"/>
<stop offset="0.924" stop-color="#CC5F2B"/>
<stop offset="0.9946" stop-color="#C14A27"/>
</linearGradient>
<linearGradient id="paint7_linear" x1="44.8976" y1="70.4583" x2="44.8976" y2="67.1561" gradientUnits="userSpaceOnUse">
<stop stop-color="#910D0D"/>
<stop offset="1" stop-color="#B41C1C"/>
</linearGradient>
<linearGradient id="paint8_linear" x1="44.8476" y1="35.5571" x2="44.8476" y2="33.0391" gradientUnits="userSpaceOnUse">
<stop stop-color="#CCCCCC"/>
<stop offset="1" stop-color="#999999"/>
</linearGradient>
</defs>
</svg>
