<svg width="90" height="90" viewBox="0 0 90 90" fill="none" xmlns="http://www.w3.org/2000/svg">
<path d="M16.008 28.8701C15.9555 29.4204 16.1132 30.0257 16.5339 30.3558C16.5864 30.4108 16.639 30.3558 16.5865 30.3008C16.271 29.8606 16.0606 29.4204 16.0606 28.8151C16.0606 28.8151 16.008 28.8151 16.008 28.8701Z" fill="#C3EDD4"/>
<path d="M16.4267 25.2295C16.0368 26.6233 15.9393 28.9041 17.0117 29.9178C17.1092 30.0445 17.2067 29.7911 17.2067 29.6644C17.1092 29.0308 16.8167 28.524 16.7192 27.8904C16.5242 27.0035 16.6217 26.2432 16.9142 25.3562C16.9142 24.9761 16.5242 24.8494 16.4267 25.2295Z" fill="#C3EDD4"/>
<path d="M17.8483 28.1548C17.6905 28.65 17.6905 29.2002 17.9009 29.6405C17.9009 29.6955 18.006 29.6405 18.006 29.5854C17.9535 29.0902 17.9534 28.65 18.1112 28.2098C18.1638 28.0447 17.9009 27.9897 17.8483 28.1548Z" fill="#C3EDD4"/>
<path d="M19.4257 26.8341C19.1102 27.4394 18.7947 28.2648 19.0577 28.9251C19.1102 29.0351 19.2154 29.0351 19.268 28.9251C19.3206 28.6499 19.3206 28.3748 19.3206 28.0447C19.3731 27.6595 19.4257 27.2743 19.5309 26.8891C19.5835 26.7791 19.4783 26.7791 19.4257 26.8341Z" fill="#C3EDD4"/>
<path d="M21.1605 26.7241C20.7924 27.2193 20.4243 27.8246 20.5295 28.4849C20.5295 28.54 20.6872 28.595 20.6872 28.4849C20.9501 27.9897 21.0553 27.4394 21.4234 26.9992C21.6337 26.8342 21.3182 26.504 21.1605 26.7241Z" fill="#C3EDD4"/>
<path d="M23.106 27.6045C22.7905 27.8796 22.3699 28.3198 22.3699 28.815C22.3699 28.9251 22.475 28.9251 22.5276 28.8701C22.6854 28.76 22.7905 28.5949 22.8957 28.4298C23.0534 28.2097 23.2112 28.0447 23.4215 27.8796C23.5792 27.7145 23.3163 27.4394 23.106 27.6045Z" fill="#C3EDD4"/>
<path d="M25.6307 27.9897C25.0523 28.4849 24.4213 28.9801 23.948 29.5854C23.8955 29.6404 23.9481 29.6955 24.0006 29.6404C24.6316 29.2553 25.21 28.65 25.7358 28.1547C25.8936 28.0447 25.7358 27.8796 25.6307 27.9897Z" fill="#C3EDD4"/>
<path d="M25.9455 29.4754C25.7352 29.5854 25.5248 29.6955 25.3145 29.8606C25.1042 29.9706 24.9464 30.0807 24.7887 30.2458C24.7361 30.3008 24.7361 30.4659 24.8413 30.4659C25.0516 30.4659 25.2093 30.3558 25.4197 30.3008C25.6826 30.1907 25.8929 30.0257 26.1558 29.9156C26.4187 29.7505 26.2084 29.3653 25.9455 29.4754Z" fill="#C3EDD4"/>
<path d="M29.0315 29.9747C27.7189 29.8486 25.4515 30.227 25.0935 31.8667C25.0935 31.9929 25.2129 32.2452 25.3322 32.119C25.8095 31.9929 26.2868 31.4883 26.7642 31.2361C27.4802 30.8577 28.1962 30.6054 29.0315 30.4793C29.3895 30.4793 29.3895 29.9747 29.0315 29.9747Z" fill="#C3EDD4"/>
<path d="M66.5908 62.7109C66.8012 61.8855 66.6434 60.84 66.5908 60.0147C66.5383 58.9692 65.0134 59.1893 65.2763 60.1797C65.4866 61.0051 65.5918 62.0506 66.0124 62.7659C66.1702 62.9861 66.4857 62.9861 66.5908 62.7109Z" fill="#C3EDD4"/>
<path d="M61.8063 60.8401C61.9114 60.3448 61.7011 59.8496 61.5959 59.2994C61.5434 59.0242 61.4908 58.7491 61.4382 58.474C61.333 58.0888 61.1753 57.9237 60.9124 57.6486C60.5443 57.3734 59.9659 57.6486 59.8607 58.0888C59.703 58.6941 60.0185 59.1343 60.2288 59.6845C60.4391 60.1247 60.5969 60.73 60.9649 61.0602C61.2279 61.3353 61.7537 61.2803 61.8063 60.8401Z" fill="#C3EDD4"/>
<path d="M56.0225 60.1797C55.9173 59.8495 55.8122 59.5744 55.6544 59.2992C55.5493 59.0241 55.4967 58.694 55.3915 58.3638C55.076 57.2633 53.446 57.7585 53.7615 58.804C53.9718 59.5744 54.4451 60.3998 55.1286 60.84C55.6019 61.1701 56.1803 60.7299 56.0225 60.1797Z" fill="#C3EDD4"/>
<path d="M51.1851 62.1606C51.5532 61.3903 51.0799 60.2347 50.7119 59.5744C50.4489 59.1342 49.9231 58.9692 49.4499 59.2443C48.9241 59.5744 48.8715 60.2898 49.2922 60.73C49.4499 60.9501 49.6076 61.1702 49.7128 61.4453C49.8705 61.7755 49.8706 62.0506 50.1335 62.3257C50.449 62.6009 50.9748 62.5458 51.1851 62.1606Z" fill="#C3EDD4"/>
<path d="M45.7686 63.2611C46.1367 62.7659 46.0841 62.2156 45.9264 61.6103C45.8212 61.0601 45.5583 60.4548 45.1377 60.0146C44.3489 59.1892 42.8767 60.2897 43.5076 61.3352C43.718 61.6653 43.9809 61.8855 44.1386 62.2156C44.1912 62.3257 44.2438 62.4907 44.2964 62.6558C44.4015 62.986 44.5067 63.1511 44.7696 63.3712C45.1377 63.5362 45.6109 63.4812 45.7686 63.2611Z" fill="#C3EDD4"/>
<path d="M40.5632 63.9214C40.8787 63.3162 40.8787 62.7659 40.6683 62.1056C40.458 61.4453 39.8796 60.6199 39.0909 60.84C38.3548 61.0601 38.4599 62.1056 38.8806 62.6008C39.0383 62.7659 39.1435 62.931 39.2486 63.1511C39.3538 63.4262 39.5115 63.6463 39.6167 63.9214C39.7745 64.3066 40.3528 64.3066 40.5632 63.9214Z" fill="#C3EDD4"/>
<path d="M37.5134 63.4263C37.6711 63.0961 37.7763 62.876 37.7237 62.4908C37.7237 62.1056 37.8289 61.7755 37.6711 61.3903C37.5134 60.8401 36.6195 60.5649 36.304 61.2252C36.0937 61.7205 36.1463 62.2157 36.304 62.7109C36.4092 63.2062 36.6721 63.4263 37.0927 63.5913C37.2505 63.6464 37.4608 63.5913 37.5134 63.4263Z" fill="#C3EDD4"/>
<path d="M31.6245 64.2516C31.7822 63.8664 32.0451 63.5363 32.1503 63.1511C32.308 62.6558 32.4658 62.1056 32.5184 61.6103C32.5709 60.84 31.4141 60.5098 31.0987 61.2252C30.8883 61.7204 30.8357 62.2707 30.7832 62.7659C30.7306 63.2611 31.0461 63.8114 31.2564 64.2516C31.309 64.3616 31.5719 64.4167 31.6245 64.2516Z" fill="#C3EDD4"/>
<path d="M28.4699 62.4358C28.7854 61.7755 29.1009 60.8401 28.8379 60.1247C28.6802 59.7946 28.5224 59.5194 28.1544 59.4094C27.7863 59.2993 27.2079 59.4644 27.0502 59.9046C26.6821 60.785 26.8924 61.6104 27.3131 62.4358C27.4708 62.931 28.2595 62.931 28.4699 62.4358Z" fill="#C3EDD4"/>
<path d="M67.0646 61.0051C69.3256 61.9406 71.8495 63.0411 74.1631 62.1607C75.9509 61.4453 77.1077 59.6295 77.6335 57.7036C78.7903 53.5767 77.1077 48.8995 74.0054 46.0932C70.9031 43.2868 66.4862 42.2964 62.4374 42.8466C58.8619 43.3419 55.5492 44.9926 52.0789 45.818C47.5043 46.9185 42.7719 46.1482 38.0922 45.5429C34.5692 45.0477 29.4688 43.1768 28.4697 38.9948C27.6284 35.5282 27.9439 32.7769 25.42 30.1357C24.1055 28.76 22.2651 27.8796 20.4248 28.0447C18.006 28.2098 15.9553 30.0807 14.8511 32.2817C12.1695 37.5091 12.5901 44.6075 14.9037 49.8899C16.7966 54.1819 20.6351 58.639 24.9994 60.2348C32.7288 63.0961 40.7738 62.821 48.7136 60.785C51.3427 60.1247 53.9718 59.1893 56.7061 58.9692C60.1764 58.6941 63.6994 59.6295 67.0646 61.0051Z" fill="#A2E0BB"/>
<path d="M20.8454 38.6647C20.7928 39.7102 19.2679 39.5451 19.4783 38.4996C19.5309 38.1145 18.9525 37.9494 18.8999 38.3346V38.3896C18.8473 38.3896 18.7421 39.9303 19.9515 40.0954C20.7402 40.2054 21.3186 39.4901 21.3712 38.6647C21.3712 38.3346 20.898 38.3346 20.8454 38.6647Z" fill="#579E8A"/>
<path d="M21.9497 34.2626C21.1609 35.4732 21.3187 36.9038 22.4755 37.7843C23.2642 38.3895 25.2623 38.1694 25.2623 36.8488C25.2623 36.7388 25.1046 36.6287 24.9994 36.6837C24.7365 36.9038 24.5262 37.179 24.2107 37.344C23.7374 37.6192 23.2116 37.5091 22.791 37.234C21.8445 36.6837 21.7393 35.3081 21.9497 34.2626C22.0022 34.2626 21.9497 34.2626 21.9497 34.2626Z" fill="#579E8A"/>
<path d="M15.4821 33.8224C14.6934 35.0329 14.8512 36.4636 16.0079 37.344C16.7967 37.9493 18.7948 37.7292 18.7948 36.4086C18.7948 36.2985 18.637 36.1885 18.5319 36.2435C18.269 36.4636 18.0586 36.7387 17.7431 36.9038C17.2699 37.1789 16.7441 37.0689 16.3234 36.7938C15.377 36.1885 15.2718 34.8128 15.4821 33.8224C15.5347 33.8224 15.5347 33.7673 15.4821 33.8224Z" fill="#579E8A"/>
<path d="M15.5872 38.9949C15.5872 39.4901 15.2191 39.8753 14.7458 39.8753C14.2726 39.8753 13.9045 39.4901 13.9045 38.9949C13.9045 38.4996 14.2726 38.1144 14.7458 38.1144C15.2191 38.1144 15.5872 38.4996 15.5872 38.9949Z" fill="#EC9368"/>
<path d="M25.9983 39.6001C26.4629 39.6001 26.8396 39.2059 26.8396 38.7196C26.8396 38.2334 26.4629 37.8392 25.9983 37.8392C25.5336 37.8392 25.157 38.2334 25.157 38.7196C25.157 39.2059 25.5336 39.6001 25.9983 39.6001Z" fill="#EC9368"/>
<path d="M25.9986 30.961C25.7883 30.6859 25.578 30.4658 25.3677 30.1907C24.0531 28.815 22.2128 27.9346 20.3724 28.0997C19.7414 28.1547 19.1105 28.3198 18.5321 28.5949C18.2692 29.2552 18.1114 29.9155 17.9537 30.5759C17.7959 31.2362 17.6908 32.0065 18.1114 32.5018C18.7424 33.1621 19.8466 32.6118 20.2673 31.8414C20.6879 31.0711 20.7405 30.0806 21.1611 29.2552C21.4241 28.76 21.9499 28.3198 22.4231 28.5399C22.8963 28.76 22.8963 29.5304 22.6334 30.0256C22.3705 30.5208 21.9499 30.906 21.7921 31.4563C21.424 32.5018 22.4757 33.7674 23.5273 33.6023C24.6841 33.2721 25.1573 31.8414 25.9986 30.961Z" fill="#C3EDD4"/>
<path d="M26.9451 35.6383C27.208 35.6383 27.5235 35.5832 27.7864 35.5832C27.6286 34.5928 27.4183 33.6573 27.0502 32.7769C26.6822 33.052 26.3141 33.2721 25.9986 33.6023C25.5254 34.0975 25.315 35.033 25.8409 35.4732C26.1563 35.6933 26.577 35.6933 26.9451 35.6383Z" fill="#C3EDD4"/>
<path d="M29.1532 60.785C28.9428 61.6104 29.1006 62.6559 29.1532 63.4812C29.2058 64.5267 30.7306 64.3066 30.4677 63.3162C30.2574 62.4908 30.1522 61.4453 29.7316 60.73C29.5738 60.4548 29.2058 60.5099 29.1532 60.785Z" fill="#C3EDD4"/>
<path d="M33.9911 61.5003C33.8859 61.9955 34.0962 62.4908 34.2014 63.041C34.254 63.3162 34.3066 63.5913 34.3591 63.8664C34.4643 64.2516 34.622 64.4167 34.885 64.6918C35.253 64.9669 35.8314 64.6918 35.9366 64.2516C36.0943 63.6463 35.7788 63.2061 35.5685 62.6558C35.3582 62.2156 35.2004 61.6104 34.8324 61.2802C34.5695 61.0051 34.0436 61.0601 33.9911 61.5003Z" fill="#C3EDD4"/>
<path d="M40.5641 61.8855C40.6693 62.2157 40.7744 62.4908 40.9322 62.7659C41.0373 63.0411 41.0899 63.3712 41.1951 63.7014C41.5106 64.8019 43.1406 64.3067 42.8251 63.2612C42.6148 62.4908 42.1415 61.6654 41.458 61.2252C40.9848 60.8951 40.4063 61.3903 40.5641 61.8855Z" fill="#C3EDD4"/>
<path d="M47.4518 60.3998C47.0837 61.1702 47.5569 62.3257 47.925 62.9861C48.1879 63.4263 48.7137 63.5913 49.1869 63.3162C49.7128 62.9861 49.7654 62.2707 49.3447 61.8305C49.187 61.6104 49.0292 61.3903 48.924 61.1152C48.7663 60.785 48.7663 60.5099 48.5034 60.2348C48.2405 59.9596 47.6621 60.0147 47.4518 60.3998Z" fill="#C3EDD4"/>
<path d="M51.448 59.0242C51.0799 59.5194 51.1325 60.0696 51.2902 60.6749C51.3954 61.2252 51.6583 61.8305 52.079 62.2707C52.8677 63.0961 54.34 61.9956 53.709 60.9501C53.4987 60.6199 53.2358 60.3998 53.078 60.0696C53.0254 59.9596 52.9729 59.7945 52.9203 59.6294C52.8151 59.2993 52.7099 59.1342 52.447 58.9141C52.1316 58.694 51.6583 58.749 51.448 59.0242Z" fill="#C3EDD4"/>
<path d="M57.8628 57.7036C57.5473 58.3088 57.5473 58.8591 57.7577 59.5194C57.968 60.1797 58.5464 61.0051 59.3351 60.785C60.0713 60.5649 59.9661 59.5194 59.5454 59.0242C59.3877 58.8591 59.2825 58.694 59.1774 58.4739C59.0722 58.1988 58.9145 57.9787 58.8093 57.7036C58.599 57.3734 58.0732 57.3184 57.8628 57.7036Z" fill="#C3EDD4"/>
<path d="M63.594 59.1343C63.4363 59.4645 63.3311 59.6846 63.3837 60.0697C63.3837 60.4549 63.2785 60.7851 63.4363 61.1703C63.594 61.7205 64.4879 61.9956 64.8034 61.3353C65.0137 60.8401 64.9612 60.3449 64.8034 59.8496C64.6983 59.3544 64.4353 59.1343 64.0147 58.9692C63.8569 58.9142 63.6992 59.0242 63.594 59.1343Z" fill="#C3EDD4"/>
<path d="M67.9056 60.1247C67.7479 60.5099 67.485 60.84 67.3798 61.2252C67.2221 61.7204 67.0643 62.2707 67.0117 62.7659C66.9592 63.5363 68.116 63.8664 68.4315 63.1511C68.6418 62.6559 68.6944 62.1056 68.7469 61.6104C68.7995 61.1151 68.484 60.5649 68.2737 60.1247C68.2211 60.0146 67.9582 60.0146 67.9056 60.1247Z" fill="#C3EDD4"/>
<path d="M71.0082 61.9405C70.6927 62.6008 70.3773 63.5363 70.6402 64.2516C70.7979 64.5818 70.9557 64.8569 71.3237 64.9669C71.6918 65.077 72.2702 64.9119 72.4279 64.4717C72.796 63.5913 72.5857 62.7659 72.165 61.9405C72.0599 61.4453 71.2711 61.4453 71.0082 61.9405Z" fill="#C3EDD4"/>
<path d="M57.442 45.5979C57.3895 45.2677 56.9162 45.4328 56.9688 45.763C57.6524 50.6052 57.074 54.8973 55.812 59.0792C56.0749 59.0242 56.3378 59.0242 56.6007 58.9692C56.6533 58.9692 56.7585 58.9692 56.8111 58.9692C56.9162 58.639 56.9688 58.3639 57.074 58.0337C58.2308 53.9068 58.3885 49.7799 57.442 45.5979Z" fill="#DEEDD4"/>
<path d="M69.3786 49.7799C69.8518 52.256 70.0622 54.347 69.589 56.8782C69.2735 58.4189 68.8002 59.9597 68.2744 61.5004C68.5373 61.6104 68.8528 61.7205 69.1157 61.8305C69.7467 60.0697 70.3251 58.2539 70.6406 56.383C71.0612 54.0719 70.5354 51.8709 70.0096 49.6698C69.8519 49.1746 69.2735 49.3947 69.3786 49.7799Z" fill="#DEEDD4"/>
<path d="M52.184 50.2751C52.184 50.2201 52.0789 50.2201 52.0789 50.2751C51.9211 51.4306 52.0789 52.5312 52.184 53.7417C52.3418 55.6676 51.816 57.7036 51.3953 59.5745C51.3427 59.7395 51.2901 59.9596 51.2375 60.1247L52.3418 59.7946C53.0253 56.493 53.0253 53.0814 52.184 50.2751Z" fill="#DEEDD4"/>
<path d="M65.908 46.4233C65.8555 46.3133 65.6977 46.3683 65.6451 46.4784C65.6451 48.4043 66.0658 50.3302 66.1184 52.3111C66.1709 54.6772 65.5925 56.8232 64.909 59.0242C64.8038 59.3544 64.6987 59.7396 64.5935 60.0697C64.909 60.1798 65.2245 60.2898 65.4874 60.3999C65.54 60.3449 65.54 60.2348 65.5926 60.1798C67.17 55.7227 67.801 50.9905 65.908 46.4233Z" fill="#DEEDD4"/>
<path d="M62.3318 52.9163C62.3318 52.5862 61.8586 52.5862 61.8586 52.9163C61.7008 55.1173 61.2276 57.1533 60.4915 59.1342C60.7544 59.1893 61.0699 59.2443 61.3328 59.2993C62.0163 57.2634 62.3318 55.1173 62.3318 52.9163Z" fill="#DEEDD4"/>
<path d="M26.2086 45.9831C26.2612 45.818 25.9983 45.6529 25.8932 45.873C23.8425 50.2201 19.0575 50.8253 14.7458 49.7799C14.7984 49.8349 14.7984 49.8899 14.7984 49.9449C14.9036 50.2201 15.0613 50.4952 15.2191 50.8253C16.1655 50.9354 17.0594 50.9904 17.8482 50.9904C21.266 50.8804 25.0518 49.6148 26.2086 45.9831Z" fill="#DEEDD4"/>
<path d="M42.4037 50.2751C42.4037 50.2201 42.2985 50.1651 42.2985 50.2751C41.8253 53.5217 41.2995 56.5481 40.0901 59.5745C39.6695 60.565 39.1962 61.4454 38.6704 62.3258C39.0385 62.3258 39.4066 62.2708 39.7746 62.2708C41.8253 58.529 42.8244 53.8518 42.4037 50.2751Z" fill="#DEEDD4"/>
<path d="M19.5835 55.0073C22.8436 54.4571 26.314 52.6963 27.8388 49.5048C27.8914 49.3397 27.7337 49.2296 27.6285 49.3947C25.9459 51.7608 23.1065 53.1365 20.4248 53.7968C19.3732 54.0719 18.3216 54.182 17.3225 54.1269C17.5854 54.4571 17.8483 54.8423 18.1112 55.1724C18.637 55.1174 19.1103 55.0624 19.5835 55.0073Z" fill="#DEEDD4"/>
<path d="M48.0299 49.4497C47.4515 52.5311 47.6619 55.6126 46.7154 58.639C46.3999 59.6295 45.9792 60.5649 45.5586 61.5003C45.9792 61.3903 46.3999 61.3353 46.8731 61.2252C48.4506 57.4284 48.9764 52.9713 48.2928 49.4497C48.2403 49.3396 48.0299 49.3396 48.0299 49.4497Z" fill="#DEEDD4"/>
<path d="M27.2605 57.3184C29.7844 55.0073 32.1506 51.2105 31.7299 47.5788C31.7299 47.3587 31.467 47.3587 31.4144 47.5788C31.1515 51.4306 28.6276 55.3375 25.5779 57.3734C24.5262 58.0888 23.3694 58.529 22.2126 58.8591C22.5807 59.1342 23.0014 59.3544 23.3694 59.5745C24.8417 59.0242 26.2088 58.3089 27.2605 57.3184Z" fill="#DEEDD4"/>
<path d="M38.092 49.0646C37.3033 52.2561 36.6197 55.0073 35.0423 57.9787C34.2536 59.5195 33.2545 60.8401 32.2029 62.1057C32.5184 62.1607 32.8339 62.1607 33.1493 62.2157C34.0958 61.0051 34.9371 59.6845 35.6733 58.3639C37.3559 55.2825 38.0394 52.6412 38.5127 49.1746C38.5127 48.8445 38.1446 48.7894 38.092 49.0646Z" fill="#DEEDD4"/>
<path d="M75.1626 47.3587C74.7945 46.9185 74.3739 46.4783 73.9532 46.0931C70.8509 43.2868 66.4341 42.2964 62.3853 42.8466C58.8097 43.3418 55.4971 44.9926 52.0267 45.818C47.4521 46.9185 42.7198 46.1482 38.04 45.5429C34.9377 45.1027 30.5734 43.617 28.9434 40.3705C27.4711 42.6265 26.2617 45.0476 25.3153 47.5788C24.9472 48.5693 24.6317 49.6148 24.8946 50.7153C24.9998 51.0455 25.1575 51.3756 25.3679 51.6507C26.3143 52.7513 27.6814 52.201 28.4176 51.3206C28.996 50.6603 29.3115 49.7799 29.7321 49.0095C29.9425 48.6243 30.1002 48.2942 30.3631 47.964C30.9941 46.9735 32.4664 47.7989 32.0983 48.8995C31.9931 49.2296 31.8354 49.6148 31.7302 49.9449C31.2044 51.5407 30.6786 53.1915 31.1518 54.8422C31.3622 55.6126 31.888 56.3279 32.5715 56.7131C34.0438 57.5385 35.3058 56.6031 36.0419 55.4475C36.5151 54.6221 36.7781 53.6867 37.0935 52.8063C37.5142 51.5957 38.0926 50.4952 38.7236 49.3947C39.5123 48.1291 41.3527 48.8994 41.1423 50.3851C41.0898 50.5502 41.0897 50.7153 41.0372 50.9354C40.6691 52.6962 39.9855 54.4571 40.4062 56.3279C40.5639 56.9882 40.8268 57.6486 41.3001 58.0888C43.0878 59.9046 45.6118 58.3639 46.5582 56.3279C47.347 54.5671 47.3995 52.5862 47.8202 50.6603C48.0305 49.8349 48.2934 49.0095 48.7667 48.2942C49.5554 47.0286 51.4483 47.7439 51.3432 49.2296C51.3432 49.5598 51.2906 49.8899 51.2906 50.165C51.1854 51.7058 51.1854 53.3015 52.0793 54.6221C52.4999 55.2274 53.1309 55.7226 53.8671 55.8327C55.7074 56.1078 56.8116 54.237 56.9168 52.4761C57.022 50.9904 56.6013 49.5047 56.6539 48.019C56.6539 47.4138 56.8116 46.7534 57.022 46.1482C57.4426 45.1577 58.8097 45.4328 58.9675 46.4783C59.0726 47.0836 59.1252 47.6889 59.2304 48.2942C59.4933 50.2751 59.8088 52.4211 61.6492 53.5766C62.543 54.1819 63.7524 54.1269 64.5411 53.3565C65.7505 52.201 65.1195 50.3851 65.067 48.7894C65.067 47.854 65.3299 46.8635 65.8031 46.0381C66.7496 44.3323 69.2735 45.3778 68.9054 47.3037C68.6425 48.5143 68.4848 49.6698 69.3261 50.6052C69.957 51.3206 70.9561 51.5407 71.85 51.2105C73.48 50.7153 74.3213 49.0095 75.1626 47.3587Z" fill="#A2E0BB"/>
<path d="M42.509 46.1482C42.3512 47.7439 42.2461 49.3947 42.0883 50.9904C42.0357 51.3756 42.0883 51.8158 42.2461 52.146C42.8245 53.5216 44.1916 53.0814 44.8226 52.256C45.2432 51.6507 45.401 50.8254 45.6113 50.055C45.9268 48.7894 46.4 47.5238 47.031 46.3683C45.4535 46.4233 43.9813 46.3132 42.509 46.1482Z" fill="#C3EDD4"/>
<path d="M52.0269 45.873C52.0269 46.0931 52.0269 46.3132 52.0269 46.5333C52.0269 48.1291 52.3424 49.6698 52.9207 51.1555C53.0259 51.4857 53.2888 51.7608 53.6043 51.9259C54.5508 52.3661 55.1818 51.2656 55.3395 50.3301C55.5498 49.0095 55.2869 47.6889 55.1818 46.3683C55.1292 45.9281 55.1292 45.4328 55.1292 44.9376C54.0776 45.2677 53.0785 45.5979 52.0269 45.873Z" fill="#C3EDD4"/>
<path d="M73.9532 46.1481C72.9016 45.2126 71.7448 44.4973 70.4828 43.9471C70.3251 44.6074 70.0622 45.2126 69.8519 45.873C69.3786 47.2486 69.5364 49.2846 70.9561 49.6147C71.4293 49.7248 71.9026 49.6147 72.3232 49.3396C73.1645 48.7893 73.5852 47.8539 73.9532 46.9735C74.0584 46.7534 74.111 46.5883 74.2161 46.3682C74.0584 46.2581 74.0058 46.2031 73.9532 46.1481Z" fill="#C3EDD4"/>
<path d="M27.3658 45.9831C27.3658 46.3132 27.5236 46.6434 27.7865 46.8635C28.4701 47.4138 29.3639 46.6434 29.9423 45.9281C30.6259 45.0476 31.4146 44.2773 32.2559 43.617C31.3095 43.0667 30.4682 42.4064 29.7846 41.581C28.3123 42.6265 27.2081 44.1672 27.3658 45.9831Z" fill="#C3EDD4"/>
<path d="M38.0396 45.5429C37.1457 45.4328 36.1466 45.2127 35.1476 44.8826C34.4115 46.2582 33.9382 47.7989 33.6753 49.3397C33.6227 49.7248 33.6753 50.165 33.9382 50.4952C34.6218 51.2656 35.726 50.5502 36.357 49.7799C37.4086 48.5143 38.3025 47.1386 39.1438 45.708C38.7757 45.6529 38.4077 45.5979 38.0396 45.5429Z" fill="#C3EDD4"/>
<path d="M60.2291 48.1291C60.5972 49.8899 63.016 49.7799 63.2789 48.019C63.4366 47.0286 63.5418 46.0381 63.7521 45.1027C63.9098 44.3323 64.1727 43.5069 64.4882 42.7916C63.8047 42.7916 63.0685 42.8466 62.385 42.9567C61.6488 43.0667 60.9127 43.2318 60.2291 43.3969C60.2817 43.727 60.3343 44.0572 60.2817 44.3873C60.2817 45.5979 59.9662 46.8635 60.2291 48.1291Z" fill="#C3EDD4"/>
<path d="M16.1136 33.2171C16.3239 33.3272 16.5868 33.2171 16.7971 33.1621C17.06 33.1071 17.2704 33.2171 17.4807 32.997C17.5859 32.8869 17.5859 32.6668 17.4807 32.5568C17.2704 32.2817 16.9023 32.3917 16.6394 32.4467C16.3765 32.5018 16.061 32.6118 16.0084 32.942C15.9032 33.052 16.0084 33.1621 16.1136 33.2171Z" fill="#579E8A"/>
<path d="M24.9467 33.4923C24.7364 33.2171 24.4209 32.997 24.1054 32.942C23.9477 32.942 23.7899 32.942 23.7373 33.1071C23.6322 33.2722 23.6848 33.4923 23.8425 33.6023C24.0528 33.7124 24.3157 33.7674 24.5261 33.9325C24.789 34.2076 25.2096 33.8224 24.9467 33.4923Z" fill="#579E8A"/>
</svg>
