<svg width="90" height="90" viewBox="0 0 90 90" fill="none" xmlns="http://www.w3.org/2000/svg">
<path d="M53.4712 38.0018C53.748 37.7798 53.9695 37.5021 54.2463 37.2801C55.0215 36.5583 55.7966 35.781 56.8485 35.4479C58.2881 36.2807 59.6169 37.2801 60.7796 38.446C60.7796 38.6681 60.7796 38.7791 60.6135 38.8902C60.4474 39.0012 60.2259 39.0567 60.0598 39.1122C59.2847 39.3898 58.9525 40.0561 58.3434 40.4447C57.679 40.8334 56.7378 40.3337 56.0734 40.0006C55.0768 39.5009 54.2463 38.7791 53.4712 38.0018Z" fill="#446878"/>
<path d="M47.5471 53.1588C47.4363 53.4364 47.5471 53.714 47.6578 53.9916C47.8793 54.3802 48.1007 54.7134 48.3776 54.991C48.599 55.213 48.8205 55.4351 49.042 55.6572C49.2634 55.8793 49.3742 56.1569 49.4295 56.49C49.4295 56.8231 49.3188 57.1562 49.042 57.2673C48.599 57.4894 48.2115 57.2118 47.7685 57.4338C47.4363 57.6004 47.2702 57.9335 47.1041 58.2666C46.7719 59.0994 46.5505 59.9878 46.5505 60.8761C46.5505 61.2647 46.5505 61.7089 46.4951 62.0975C46.3844 62.4862 46.1075 62.8748 45.72 62.9858C45.3878 63.0414 45.0556 62.9303 44.7787 62.7082C44.1144 62.2086 43.7822 61.4868 43.5053 60.7095C42.6748 58.3777 42.2319 55.8793 42.7856 53.4919C44.2805 53.1033 45.72 52.9367 47.2702 52.8812C47.381 52.8812 47.5471 52.8812 47.6024 52.9922C47.6024 53.1033 47.6024 53.2698 47.5471 53.1588Z" fill="#8AA0C7"/>
<g opacity="0.51">
<path opacity="0.51" d="M48.876 56.8786C48.4884 56.2679 48.2116 55.6572 47.824 55.0465C47.4918 54.4913 47.1596 53.9916 46.8828 53.3809C46.8274 53.2698 46.9381 53.2698 46.9935 53.2698C47.4364 53.714 47.7686 54.3802 48.1008 54.9354C48.433 55.5462 48.7099 56.1014 48.9313 56.7676C48.9867 56.9342 48.876 56.9342 48.876 56.8786Z" fill="#233E44"/>
</g>
<g opacity="0.51">
<path opacity="0.51" d="M47.8792 57.1562C47.547 56.49 47.1594 55.7682 46.8272 55.102C46.495 54.4913 46.1075 53.9361 45.886 53.2698C45.886 53.2143 45.9414 53.1588 45.9967 53.2143C46.495 53.714 46.8272 54.4358 47.1594 55.102C47.4916 55.7682 47.7684 56.4345 48.0453 57.1562C48.0453 57.1562 47.9345 57.2118 47.8792 57.1562Z" fill="#233E44"/>
</g>
<g opacity="0.51">
<path opacity="0.51" d="M46.9935 57.3783C46.5506 56.379 46.0523 55.4351 45.6094 54.4358C45.6094 54.3802 45.6647 54.3247 45.6647 54.3802C46.2738 55.2686 46.7167 56.3234 47.1043 57.3228C47.1043 57.3783 46.9935 57.4338 46.9935 57.3783Z" fill="#233E44"/>
</g>
<g opacity="0.51">
<path opacity="0.51" d="M46.495 58.5442C45.8306 57.1562 45.1108 55.7127 44.6125 54.2137C44.6125 54.1026 44.7233 54.0471 44.7786 54.1582C45.4984 55.5462 46.0521 57.0452 46.6057 58.4887C46.6611 58.5442 46.5504 58.5998 46.495 58.5442Z" fill="#233E44"/>
</g>
<g opacity="0.51">
<path opacity="0.51" d="M44.1696 54.4913C44.5018 56.7676 46.1628 58.8218 46.2182 61.1537C46.2182 61.2647 46.0521 61.3202 45.9967 61.2092C45.4984 60.1543 45.277 58.9329 44.9448 57.8225C44.5572 56.7121 44.1696 55.6572 44.0589 54.4913C44.0035 54.4357 44.1696 54.3802 44.1696 54.4913Z" fill="#233E44"/>
</g>
<g opacity="0.51">
<path opacity="0.51" d="M43.5607 54.7133C43.5607 56.1014 44.3359 57.3783 44.8342 58.7108C45.2217 59.8212 45.6647 61.0982 45.5539 62.2641C45.5539 62.3751 45.2771 62.4306 45.2217 62.3196C44.7788 61.0426 44.6681 59.7102 44.2251 58.4332C43.8376 57.2118 43.2285 56.0458 43.45 54.7689C43.5054 54.6578 43.5607 54.6578 43.5607 54.7133Z" fill="#233E44"/>
</g>
<g opacity="0.51">
<path opacity="0.51" d="M43.0625 54.6578C43.0071 55.8238 43.284 56.9897 43.6715 58.1001C43.9484 59.0439 44.3913 60.0988 44.2252 61.0426C44.2252 61.2092 43.893 61.2647 43.8376 61.0982C43.5054 59.9322 43.284 58.7663 42.9518 57.6004C42.6749 56.601 42.5642 55.6017 42.841 54.6023C42.8964 54.5468 43.0625 54.6023 43.0625 54.6578Z" fill="#233E44"/>
</g>
<path d="M58.0667 47.8844C59.1186 48.9393 60.1152 49.9942 61.1672 51.049C61.3887 51.2711 61.6101 51.6042 61.4994 51.8818C61.444 51.9929 61.3333 52.1039 61.1672 52.215C60.6135 52.6036 60.0599 52.9367 59.5062 53.3254C59.2848 53.4364 59.1187 53.603 58.9526 53.714C58.6204 53.8806 58.3435 54.1026 58.0113 54.2692C57.0701 54.9354 56.1842 55.6572 55.2984 56.4345C54.9662 56.49 54.634 56.4345 54.3571 56.2124C54.0803 55.9903 53.8588 55.7127 53.6927 55.4351C53.0283 54.4913 52.4193 53.4364 52.0317 52.326C52.2532 51.3266 53.0837 50.7714 53.9142 50.1607C55.1876 49.3279 56.4611 48.4951 57.7899 47.7734C57.8452 47.7178 57.9006 47.7178 57.956 47.7734C57.956 47.8289 58.1221 47.9399 58.0667 47.8844Z" fill="#8AA0C7"/>
<g opacity="0.51">
<path opacity="0.51" d="M60.8904 52.0484C60.0599 51.4377 59.3401 50.6604 58.6204 49.9941C57.956 49.3834 57.1808 48.8282 56.6272 48.0509C56.5718 47.9954 56.6825 47.8844 56.7379 47.9399C57.5684 48.4396 58.2328 49.2169 58.8972 49.8831C59.617 50.6049 60.3367 51.2711 60.8904 52.0484C60.8904 52.0484 60.8904 52.1039 60.8904 52.0484Z" fill="#233E44"/>
</g>
<g opacity="0.51">
<path opacity="0.51" d="M60.1153 52.3815C59.4509 51.6598 58.8419 50.938 58.1221 50.2718C57.4024 49.6055 56.5719 49.0503 55.9075 48.3841C55.8521 48.3286 55.9075 48.2175 56.0182 48.273C56.9041 48.6617 57.6238 49.439 58.2882 50.1052C59.008 50.7714 59.617 51.4932 60.1707 52.326C60.2814 52.3815 60.1707 52.437 60.1153 52.3815Z" fill="#233E44"/>
</g>
<g opacity="0.51">
<path opacity="0.51" d="M59.4508 52.8257C58.8418 52.0484 58.122 51.2711 57.4023 50.5493C56.7379 49.8831 55.9074 49.3834 55.2983 48.6617C55.243 48.6061 55.2983 48.4951 55.4091 48.5506C56.2949 48.9393 57.0701 49.7721 57.7345 50.4383C58.4542 51.1601 59.0632 51.9374 59.5615 52.7702C59.6169 52.8257 59.5062 52.8812 59.4508 52.8257Z" fill="#233E44"/>
</g>
<g opacity="0.51">
<path opacity="0.51" d="M58.6204 52.9367C57.5131 51.5487 56.1289 50.4938 54.9109 49.2169C54.8555 49.1613 54.9109 49.0503 55.0216 49.1058C56.6272 49.8831 57.8453 51.4377 58.8419 52.8257C58.8973 52.9367 58.7312 53.0478 58.6204 52.9367Z" fill="#233E44"/>
</g>
<g opacity="0.51">
<path opacity="0.51" d="M57.5685 53.0477C57.0702 52.2705 56.4612 51.6597 55.7968 51.049C55.1877 50.4938 54.468 50.0497 53.9143 49.4389C53.8589 49.3834 53.9143 49.2724 54.025 49.3279C55.5199 50.1607 56.7934 51.6597 57.7346 53.0477C57.7346 53.1033 57.6239 53.1588 57.5685 53.0477Z" fill="#233E44"/>
</g>
<g opacity="0.51">
<path opacity="0.51" d="M57.2363 53.8806C56.1843 52.4926 54.8556 51.3266 53.6929 49.9942C53.6375 49.9386 53.6929 49.8831 53.7482 49.8831C55.2431 50.827 56.4058 52.3815 57.4024 53.7695C57.5131 53.8806 57.347 53.9916 57.2363 53.8806Z" fill="#233E44"/>
</g>
<g opacity="0.51">
<path opacity="0.51" d="M56.5165 54.5468C55.9629 53.8805 55.52 53.1033 54.9109 52.437C54.3019 51.7708 53.6375 51.2156 53.0285 50.5493C52.9177 50.4383 53.0285 50.3273 53.1946 50.3828C54.6341 51.1045 56.1843 52.9922 56.5719 54.4913C56.5719 54.5468 56.5719 54.6023 56.5165 54.5468Z" fill="#233E44"/>
</g>
<g opacity="0.51">
<path opacity="0.51" d="M56.0181 54.7689C55.4645 54.0471 54.8555 53.3254 54.2464 52.6591C53.6374 51.9929 52.9176 51.3821 52.3086 50.6604C52.2532 50.6049 52.3086 50.4938 52.4193 50.5493C53.9142 51.5487 55.1876 53.2143 56.1289 54.7134C56.1842 54.7689 56.0735 54.8799 56.0181 54.7689Z" fill="#233E44"/>
</g>
<g opacity="0.51">
<path opacity="0.51" d="M55.5752 55.4351C54.5786 54.2137 53.5267 53.0477 52.6408 51.7153C52.5855 51.6597 52.6962 51.6042 52.7516 51.6597C53.9142 52.7146 54.8555 54.0471 55.7413 55.3241C55.7413 55.4351 55.6306 55.5462 55.5752 55.4351Z" fill="#233E44"/>
</g>
<g opacity="0.51">
<path opacity="0.51" d="M54.6894 55.4906C54.0251 54.8244 53.4714 54.0471 52.8624 53.3809C52.3087 52.7146 51.6997 52.1039 51.2014 51.4377C51.146 51.3821 51.2567 51.2711 51.3121 51.3266C52.6963 52.326 53.9143 53.9361 54.8002 55.4351C54.9109 55.4351 54.7448 55.5462 54.6894 55.4906Z" fill="#233E44"/>
</g>
<path d="M63.8803 42.9986C65.1537 39.7785 67.4791 36.9469 70.4689 35.2813C73.4587 33.5602 77.1682 33.1161 80.4348 34.1709C80.3241 34.9482 79.8258 35.4479 79.1614 35.8365C77.888 36.6693 76.836 37.8908 75.8948 39.1122C75.2304 39.945 74.5106 40.8334 74.2892 41.8882C74.1231 42.6655 74.2892 43.4983 74.3999 44.2756C74.9536 46.9961 75.7287 49.661 75.7287 52.4371C75.7287 52.9367 75.6733 53.4364 75.4519 53.8806C75.3411 54.0471 75.0089 53.8806 74.8982 53.8251C73.6801 53.3254 72.905 52.4371 71.7423 51.6043C71.244 51.2711 70.8011 50.9935 70.2474 50.6604C69.4723 50.2162 68.9186 49.9386 68.5864 49.7721C67.4237 49.1614 65.5413 48.2175 63.7695 46.663C62.6622 45.7191 62.5515 45.275 62.4961 44.9418C62.4961 44.0535 63.1605 43.4983 63.8803 42.9986Z" fill="#446878"/>
<path d="M80.158 34.504C78.6631 34.4485 77.0574 34.2264 75.5625 34.393C73.9015 34.5596 72.1298 35.2258 70.6903 36.0031C67.8666 37.5576 66.1502 40.4447 63.548 42.2769C63.4373 42.3324 63.3265 42.2213 63.3819 42.1103C64.3785 40.7223 65.818 39.5009 67.0915 38.2794C68.1988 37.169 69.4169 36.1696 70.801 35.5034C72.1852 34.8372 73.6801 34.282 75.175 34.0599C76.7806 33.8378 78.497 34.1709 80.158 34.3375C80.2687 34.393 80.2687 34.5596 80.158 34.504Z" fill="#233E44"/>
<path d="M79.8811 35.0592C76.8913 34.504 73.1818 35.3924 70.5795 37.0024C69.4168 37.7242 68.4756 38.7236 67.4237 39.5564C66.2056 40.5557 64.9875 41.6106 63.6587 42.3324C63.4926 42.4434 63.3265 42.1658 63.4926 42.0548C64.8768 40.9444 66.3717 39.945 67.7558 38.7791C68.9185 37.8352 69.9705 36.8359 71.2993 36.1696C73.8462 35.0037 77.2235 34.0599 79.8811 35.0592C79.9365 35.0037 79.9365 35.0592 79.8811 35.0592Z" fill="#233E44"/>
<path d="M78.4414 36.0586C75.3963 35.4479 72.628 36.1141 70.0257 38.1129C68.0325 39.6674 66.2054 41.7772 63.9354 42.721C63.8247 42.7766 63.7139 42.5545 63.8247 42.4434C65.0427 41.7217 66.1501 40.8889 67.3128 39.8895C68.4201 38.8901 69.5828 37.8908 70.8009 37.058C72.9048 35.67 76.2268 34.5041 78.4968 35.9476C78.5522 36.0031 78.4968 36.0586 78.4414 36.0586Z" fill="#233E44"/>
<path d="M77.6664 36.7804C76.3376 36.6138 74.8428 36.6693 73.514 37.058C72.1852 37.4466 71.0225 38.3349 69.9151 39.1122C68.088 40.3892 65.4858 42.9431 63.1604 42.2769C63.1051 42.2769 63.1051 42.1103 63.1604 42.1103C64.7107 41.7772 65.9841 41.333 67.3129 40.3892C68.5863 39.5009 69.8044 38.668 71.0778 37.8352C72.1298 37.169 73.1264 36.6693 74.3445 36.5028C75.3411 36.3362 76.7252 36.0586 77.6664 36.6693C77.7218 36.7248 77.7218 36.7804 77.6664 36.7804Z" fill="#233E44"/>
<path d="M76.5592 37.8352C75.3411 37.3356 73.7909 37.9463 72.5728 38.3904C71.2994 38.8901 70.1367 39.7229 68.974 40.5557C67.2022 41.7772 64.8768 43.3317 62.7176 42.9431C62.6622 42.9431 62.6622 42.7765 62.7176 42.7765C64.1017 42.4434 65.3751 42.2213 66.7039 41.4996C68.0327 40.8333 69.2508 39.945 70.5242 39.1122C71.6316 38.3904 72.6835 37.9463 73.9016 37.6132C74.7321 37.3911 75.8394 36.9469 76.6145 37.6687C76.6699 37.7797 76.6146 37.8908 76.5592 37.8352Z" fill="#233E44"/>
<path d="M75.6732 38.8346C75.0642 39.0012 74.4551 39.0012 73.8461 39.1677C73.1263 39.3898 72.4619 39.7229 71.7975 40.056C70.6902 40.6668 69.6936 41.4441 68.5863 42.0548C66.7592 42.9986 64.1016 43.8869 62.1084 43.2207C62.0531 43.2207 62.0531 43.0541 62.1084 43.0541C63.3265 42.721 64.5999 42.8321 65.818 42.5545C67.0914 42.2213 68.2541 41.6661 69.4168 40.9444C71.0778 39.945 73.6246 37.9463 75.6178 38.7791C75.7286 38.7791 75.7286 38.8346 75.6732 38.8346Z" fill="#233E44"/>
<path d="M74.566 40.2781C73.3479 40.2781 72.2959 41.1665 71.244 41.7772C70.3581 42.2769 69.4169 42.721 68.4757 43.0541C66.6486 43.6649 64.2678 43.998 62.4407 43.2762C62.33 43.2207 62.33 43.0541 62.4407 43.0541C63.548 42.9431 64.6554 43.1652 65.7627 43.0541C66.9254 42.9431 68.0881 42.6655 69.1954 42.1658C70.2474 41.7217 71.244 41.1665 72.2959 40.6113C73.0157 40.2226 73.7355 39.7785 74.566 40.1116C74.6213 40.1671 74.6213 40.2781 74.566 40.2781Z" fill="#233E44"/>
<path d="M74.0677 41.7772C72.905 41.7772 71.9084 42.3879 70.8565 42.9431C69.9152 43.3873 68.9186 43.7204 67.922 43.8869C66.9808 44.0535 66.0396 44.109 65.1537 44.0535C64.1571 44.0535 62.9944 44.0535 62.0532 43.6093C61.9425 43.5538 61.9978 43.4428 62.0532 43.3873C63.1052 43.2762 64.2125 43.5538 65.2644 43.5538C66.4271 43.5538 67.5898 43.4983 68.6972 43.2207C69.6938 42.9986 70.5796 42.5545 71.5209 42.1103C72.3514 41.7217 73.1819 41.3885 74.0677 41.5551C74.1231 41.6661 74.1231 41.7772 74.0677 41.7772Z" fill="#233E44"/>
<path d="M73.9569 42.832C72.5727 44.109 70.192 44.0535 68.4756 44.2756C66.5931 44.4977 64.2124 44.9418 62.4407 43.8869C62.3853 43.8314 62.4407 43.7204 62.496 43.7204C64.4892 44.1645 66.427 44.109 68.4756 43.8869C69.4722 43.7759 70.4688 43.6093 71.4654 43.4428C72.3513 43.3317 73.1264 42.8876 73.9569 42.832C73.9569 42.7765 74.0123 42.832 73.9569 42.832Z" fill="#233E44"/>
<path d="M74.123 44.3311C73.4033 44.7753 72.6281 44.8863 71.7976 44.8863C70.6349 44.9418 69.4722 44.9418 68.3095 44.9418C66.1503 44.8863 63.9356 44.8308 61.9424 43.8869C61.887 43.8869 61.887 43.7759 61.9424 43.7759C63.991 44.3311 66.0395 44.5532 68.1434 44.5532C70.0813 44.6087 72.2406 44.8863 74.123 44.3311C74.123 44.2756 74.123 44.3311 74.123 44.3311Z" fill="#233E44"/>
<path d="M74.0677 45.4415C73.1818 45.9967 71.9637 46.0522 71.0225 45.9967C69.7491 45.9967 68.531 45.8857 67.2576 45.7191C65.1537 45.4415 62.6068 44.8863 60.9458 43.2762C60.8904 43.2207 60.9458 43.0541 61.0565 43.1097C62.1085 43.3873 63.0497 44.109 64.1017 44.4977C65.2644 44.9418 66.4271 45.1639 67.6451 45.2749C68.6971 45.386 69.7491 45.497 70.801 45.5525C71.9637 45.6081 73.0157 45.386 74.123 45.2749C74.123 45.2749 74.123 45.386 74.0677 45.4415Z" fill="#233E44"/>
<path d="M74.3998 46.3853C73.7354 47.2181 72.6281 47.1071 71.7422 47.0516C70.5241 46.996 69.3614 46.885 68.1434 46.6629C66.8699 46.4408 65.6519 46.1632 64.4338 45.6636C63.3819 45.2749 62.2192 44.8308 61.3887 43.9424C61.3333 43.8869 61.3887 43.7204 61.4994 43.7759C62.5514 44.1645 63.548 44.7752 64.5999 45.1639C65.5965 45.5525 66.6485 45.8301 67.7005 46.0522C69.8044 46.4964 72.2959 46.9405 74.3998 46.2743C74.3998 46.2743 74.4552 46.3298 74.3998 46.3853Z" fill="#233E44"/>
<path d="M74.5659 48.4951C73.5693 48.7172 72.5727 48.4396 71.5761 48.2175C70.4134 47.9399 69.1954 47.7178 68.0327 47.4402C65.5966 46.885 63.4926 45.8301 61.4441 44.2756C61.3887 44.2201 61.4441 44.0535 61.4994 44.109C62.496 44.5532 63.3819 45.1084 64.3231 45.6636C65.4305 46.3298 66.5932 46.7185 67.8112 46.9405C70.0259 47.4402 72.2959 47.9954 74.5659 48.273C74.6213 48.3285 74.6767 48.4951 74.5659 48.4951Z" fill="#233E44"/>
<path d="M75.0088 50.1607C73.9015 50.2162 72.7388 49.7721 71.6868 49.55C70.5241 49.2724 69.3614 48.9393 68.2541 48.5506C67.2021 48.1065 66.2055 47.4957 65.2089 46.8295C64.1016 46.1077 62.9389 45.386 61.8869 44.5532C61.7762 44.4421 61.8869 44.2201 61.9977 44.2756C64.2123 45.497 66.2609 47.2737 68.6416 48.162C69.6936 48.5506 70.7456 48.8282 71.7975 49.1058C72.8495 49.3834 74.0676 49.4945 75.0642 50.0497C75.1195 50.0497 75.0642 50.1607 75.0088 50.1607Z" fill="#233E44"/>
<path d="M74.7873 51.3266C73.5693 51.4377 72.2405 50.7714 71.0778 50.3828C69.8597 49.9386 68.6416 49.4945 67.4789 48.8838C66.3716 48.3286 65.375 47.6068 64.4891 46.774C63.6033 45.9412 62.4959 44.9973 61.8869 43.8869C61.8315 43.8314 61.9423 43.7204 61.9977 43.7759C62.8835 44.4421 63.6033 45.4415 64.3784 46.2188C65.3196 47.1626 66.3716 47.9399 67.5343 48.5506C69.8597 49.7721 72.4066 50.5494 74.8427 51.3266C74.7873 51.2711 74.7873 51.3266 74.7873 51.3266Z" fill="#233E44"/>
<path d="M75.0089 52.326C72.2406 52.1039 69.7491 50.7714 67.3684 49.2724C66.261 48.5506 65.043 47.8844 64.0464 46.9961C63.2159 46.2743 62.1639 45.1084 61.9978 43.9425C61.9978 43.8314 62.0532 43.7759 62.1639 43.8314C62.5515 44.2756 62.7729 44.8308 63.1051 45.3305C63.4927 45.8857 63.9356 46.3853 64.4339 46.774C65.4305 47.6068 66.5932 48.3285 67.7559 48.9948C70.0813 50.4383 72.4621 51.4932 75.0643 52.2149C75.1197 52.2149 75.0643 52.326 75.0089 52.326Z" fill="#233E44"/>
<path d="M60.1708 38.5015C60.1708 38.557 58.6759 39.2233 58.5098 39.2788C57.9007 39.6119 57.4024 40.1116 56.9041 40.5557C56.8488 40.6113 56.738 40.5557 56.7934 40.5002C57.1256 39.6674 58.0115 39.1122 58.842 38.7791C59.0634 38.6681 60.2815 38.0018 60.3369 38.446C60.2815 38.5015 60.2261 38.557 60.1708 38.5015Z" fill="#233E44"/>
<path d="M59.617 37.7242C59.174 38.1684 58.6204 38.446 58.1221 38.7236C57.513 39.0567 57.0147 39.4453 56.4057 39.7785C56.3503 39.7785 56.295 39.7229 56.3503 39.7229C57.0701 38.7236 58.5096 38.1684 59.617 37.6687C59.617 37.6687 59.6723 37.6687 59.617 37.7242Z" fill="#233E44"/>
<path d="M58.8973 37.2801C58.3437 37.6687 57.79 37.9463 57.2363 38.3349C56.6827 38.7236 56.1844 39.1677 55.6307 39.5009C55.5753 39.5564 55.4646 39.4453 55.52 39.3898C56.2397 38.3905 57.7346 37.5577 58.8973 37.2245C58.8973 37.169 58.8973 37.2245 58.8973 37.2801Z" fill="#233E44"/>
<path d="M57.9007 36.6693C57.4024 37.1135 56.8487 37.5576 56.3504 37.9463C55.9075 38.2794 55.5199 38.7236 55.0216 38.9456C54.9663 39.0012 54.9109 38.8901 54.9109 38.8346C55.1877 38.3349 55.686 38.0018 56.129 37.6687C56.6826 37.2245 57.2363 36.8914 57.8453 36.6138C57.9007 36.6138 57.956 36.6138 57.9007 36.6693Z" fill="#233E44"/>
<path d="M57.1808 36.2807C56.295 37.058 55.4091 37.9463 54.4679 38.668C54.4125 38.7236 54.3018 38.6125 54.3571 38.557C54.9662 37.5576 56.0735 36.6693 57.1255 36.1696C57.1808 36.1141 57.2916 36.2252 57.1808 36.2807Z" fill="#233E44"/>
<path d="M36.972 35.5589C37.4149 33.3381 38.0793 31.1728 38.9652 29.1186C39.3528 28.2858 39.7957 27.3975 40.6262 27.0088C40.7369 26.9533 41.5121 27.1754 41.6228 27.2309C42.8409 27.7861 44.9448 30.118 47.3255 30.9508C48.7651 31.4504 49.817 32.2277 51.3119 32.5608C51.5888 32.6164 51.8656 32.7829 51.8102 33.005C51.8102 33.0605 51.7549 33.116 51.6995 33.1716C50.9797 34.282 50.2046 35.4479 49.4295 36.5583C49.1526 36.9469 48.599 36.8914 48.156 36.9469C44.668 37.1135 41.1799 36.8359 37.8025 36.1141C37.4703 36.0586 36.8613 36.0031 36.972 35.5589Z" fill="#446878"/>
<path d="M51.8656 33.0606C51.8656 33.3382 51.2012 33.5048 51.0351 33.5603C49.7063 33.949 47.4917 32.5054 46.9934 32.1723C43.1177 29.6739 39.3528 28.7301 39.5743 28.0083C39.6296 27.8973 39.7404 27.7307 39.9618 27.5642C40.1833 27.3421 40.4048 27.12 40.6816 27.0645C40.9584 27.009 41.1245 27.0645 41.2906 27.1755C41.955 27.4531 42.4533 27.8418 43.007 28.2859C43.007 28.2859 43.5053 28.6746 43.9482 29.0632C44.8894 29.785 45.7753 30.4512 46.938 30.9509C47.2702 31.0619 47.4363 31.1174 47.99 31.3395C48.4883 31.5616 48.4883 31.6171 49.3188 31.9502C50.0939 32.2834 50.3707 32.3944 50.6476 32.5054C50.869 32.561 51.0351 32.6165 51.2566 32.672C51.4227 32.7275 51.4781 32.7275 51.5888 32.783C51.6995 32.7275 51.8656 32.8941 51.8656 33.0606Z" fill="#3D585F"/>
<path d="M50.9245 32.7829C50.9799 32.7274 50.9799 32.7274 51.0353 32.6719C51.0906 32.6163 51.2014 32.7274 51.146 32.7829C50.6477 33.5602 50.1494 34.393 49.7618 35.2258C49.485 35.8365 49.2635 36.5583 48.7099 37.0024C48.6545 37.058 48.5991 36.9469 48.5991 36.8914C48.876 36.1696 49.2635 35.5034 49.6511 34.8372C49.8172 34.504 50.0387 34.1709 50.2048 33.8378C50.3155 33.7268 50.7031 32.894 50.9245 32.7829C50.9245 32.8384 50.9245 32.7829 50.9245 32.7829Z" fill="#233E44"/>
<path d="M50.1493 32.6164C50.1493 32.6164 49.9832 33.005 49.9279 33.116C49.8171 33.3381 49.6511 33.5047 49.5403 33.7268C49.2635 34.1709 49.042 34.5596 48.8206 35.0037C48.5437 35.6144 48.2669 36.4472 47.7132 36.8359C47.6579 36.8914 47.5471 36.7804 47.6025 36.7248C47.8793 36.0031 48.3223 35.2813 48.7098 34.6151C49.1528 33.8378 49.5957 33.0605 50.2601 32.3943C50.3154 32.3388 50.3708 32.3943 50.3154 32.4498C50.2601 32.5608 50.2601 32.5608 50.1493 32.6164Z" fill="#233E44"/>
<path d="M49.2635 32.2832C48.8205 32.9495 48.3776 33.6157 47.99 34.3375C47.6578 34.9482 47.4364 35.7255 46.8827 36.1697C46.8273 36.2252 46.772 36.1697 46.772 36.1141C46.9934 35.3924 47.4917 34.7261 47.8239 34.1154C48.2669 33.3937 48.7098 32.7829 49.2635 32.2832C49.2635 32.2277 49.3188 32.2277 49.2635 32.2832Z" fill="#233E44"/>
<path d="M48.3775 31.8946C47.547 33.0605 46.938 34.3375 46.1075 35.5034C46.0521 35.5589 45.9414 35.5034 45.9968 35.4479C46.4951 34.1154 47.4363 32.9495 48.2668 31.8391C48.3222 31.7281 48.4329 31.7836 48.3775 31.8946Z" fill="#233E44"/>
<path d="M47.0489 31.2284C46.5506 31.8946 46.163 32.6164 45.8308 33.3936C45.554 34.0044 45.3325 34.7261 44.8342 35.1703C44.7789 35.2258 44.6128 35.1703 44.6681 35.0592C44.8896 34.3375 45.3325 33.6157 45.6647 33.005C45.9969 32.3388 46.3845 31.6725 46.8828 31.1173C46.9935 31.0063 47.1042 31.1173 47.0489 31.2284Z" fill="#233E44"/>
<path d="M45.7755 31.1728C45.3879 31.7836 45.1111 32.3943 44.7789 33.005C44.502 33.5602 44.3359 34.2264 43.9484 34.6706C43.893 34.7261 43.8376 34.6706 43.8376 34.6151C43.893 33.9488 44.2806 33.3936 44.5574 32.8384C44.8896 32.2277 45.2772 31.617 45.6647 31.0618C45.7201 31.0063 45.8308 31.1173 45.7755 31.1728Z" fill="#233E44"/>
<path d="M45.1663 30.229C44.668 30.8952 44.2251 31.617 43.8929 32.3943C43.5607 33.0605 43.45 33.8378 43.1178 34.504C43.0624 34.5596 42.9517 34.5596 42.9517 34.4485C43.007 32.894 44.1144 31.2284 45.0002 30.1179C45.111 29.9514 45.2217 30.118 45.1663 30.229Z" fill="#233E44"/>
<path d="M44.0589 29.7293C43.6714 30.34 43.3392 31.0063 43.0623 31.728C42.7855 32.3943 42.6194 33.1716 42.2318 33.8378C42.2318 33.8933 42.1211 33.8933 42.1211 33.7823C42.2318 32.3388 43.2284 30.7842 43.9482 29.6738C44.0035 29.5628 44.1143 29.6183 44.0589 29.7293Z" fill="#233E44"/>
<path d="M43.45 28.952C42.9517 29.6738 42.5642 30.4511 42.1766 31.2284C41.8444 32.0057 41.6783 32.9495 41.18 33.6713C41.1246 33.7268 41.0139 33.7268 41.0139 33.6157C41.0139 32.7829 41.4568 31.8946 41.789 31.1728C42.1766 30.34 42.6749 29.5628 43.2286 28.841C43.3947 28.73 43.5054 28.841 43.45 28.952Z" fill="#233E44"/>
<path d="M42.6196 28.3968C42.1213 29.2296 41.5676 30.0624 41.1247 30.9508C40.6818 31.7836 40.4603 32.6719 40.0174 33.5047C39.962 33.6157 39.7959 33.5602 39.7959 33.4492C39.962 31.506 41.4569 29.8404 42.5089 28.3413C42.5642 28.1748 42.675 28.2858 42.6196 28.3968Z" fill="#233E44"/>
<path d="M41.8442 27.5085C41.2351 28.5634 40.4047 29.4517 39.851 30.5066C39.2973 31.506 39.0759 32.7829 38.4115 33.6713C38.3561 33.7268 38.2454 33.6713 38.2454 33.6157C38.3561 31.1729 40.3493 29.1741 41.7334 27.3975C41.7888 27.342 41.8995 27.453 41.8442 27.5085Z" fill="#233E44"/>
<path d="M10.3962 43.8314C12.1125 43.3873 13.7735 42.6655 15.4345 41.9437C17.317 41.1109 19.2548 40.2781 21.1373 39.5009C23.5734 38.446 26.0649 37.3911 28.501 36.2807C30.2174 35.5034 31.9337 34.6706 33.7055 34.1154C39.5189 32.3388 45.8861 33.5047 51.5335 35.7255C55.1877 37.169 58.3435 39.834 61.9977 41.2775C62.496 41.4996 63.0497 41.4996 63.6034 41.2775C64.0463 41.1109 64.5446 40.7778 64.9875 40.8889C65.0429 40.9999 64.3231 42.2769 63.9909 42.9431C63.6587 43.6093 63.3819 44.2756 63.4926 44.9974C63.548 45.4415 63.7141 45.8302 63.8802 46.2188C63.9909 46.4964 64.1017 46.774 64.2124 46.9961C63.1051 46.4964 61.6102 46.8295 60.5028 47.3847C59.3955 47.9399 58.4543 48.8282 57.513 49.6055C53.5267 52.9367 48.5437 55.1575 43.3392 55.4351C41.5675 55.5462 39.8511 55.3796 38.0794 55.1575C28.2242 53.9361 18.7011 50.3273 10.5069 44.7753C10.2854 44.6642 10.1193 44.4977 10.0086 44.2756C9.95324 44.0535 10.1747 43.8869 10.3962 43.8314Z" fill="#B4C2DC"/>
<path d="M25.8434 43.998C27.3383 44.2756 28.7225 45.1084 30.162 45.6081C32.2105 46.3298 34.4252 46.4964 36.5291 46.663C37.6918 46.774 38.9099 46.8295 40.0726 46.774C41.1245 46.7185 42.1765 46.5519 43.2285 46.3854C45.1663 46.1078 47.1595 45.7746 49.0973 45.386C53.6927 44.3866 58.2882 42.721 62.8836 43.5538C63.2711 44.0535 62.8836 44.4422 62.3299 44.6642C61.7762 44.8863 61.1672 44.7753 60.5582 44.7198C58.3435 44.5532 56.2396 45.5526 54.191 46.3854C51.4227 47.4402 48.599 48.273 45.7753 49.0503C44.1697 49.4945 42.5087 49.9386 40.8477 50.1607C35.4772 50.827 29.8851 48.8282 26.1202 44.9974C25.8988 44.7753 25.6773 44.2756 25.8434 43.998Z" fill="#BFD0E0"/>
<path d="M63.6593 45.6636C63.9915 46.4964 64.5452 47.0516 64.4898 47.1626C64.4345 47.2181 64.3237 47.0516 64.0469 46.9405C63.604 46.7185 63.2164 46.774 62.8842 46.774C61.7215 46.774 60.5588 47.4402 60.5588 47.4402C59.839 47.8289 59.7283 47.9954 58.1781 49.2724C58.1781 49.2724 57.9566 49.4389 56.7939 50.3273C54.1917 52.2705 51.4787 53.4919 51.4787 53.4919C50.0945 54.1026 47.8799 54.9909 45.0008 55.3241C43.5613 55.4906 41.5681 55.6572 37.6371 55.1575C36.9173 55.0465 29.9965 54.1582 22.7435 51.2711C19.8091 50.1052 17.2622 48.7727 16.321 48.3285C14.9368 47.6068 15.3798 47.7733 14.2724 47.1626C14.2724 47.1626 10.2307 45.0529 10.0646 44.3311C10.0092 44.1645 10.1199 44.0535 10.1199 44.0535C10.1199 44.0535 10.1753 43.9424 10.3968 43.8314C13.0544 43.1096 16.9854 45.7191 16.9854 45.7191C21.9684 49.0503 27.6711 50.8269 30.0519 51.4377C34.7027 52.7146 39.5195 53.0477 44.2811 52.5481C46.385 52.326 48.655 51.9929 50.5375 51.1045C52.6968 50.1052 54.247 48.162 56.1295 46.774C59.3407 44.3866 62.8842 43.5538 63.4932 44.3866C63.604 44.6642 63.3825 44.9418 63.6593 45.6636Z" fill="#97A9BF"/>
<path d="M13.8842 42.3879C15.656 41.7217 15.656 41.6661 17.2062 41.1109C19.3102 40.3336 20.9158 39.7784 22.7429 39.1677C25.4558 38.2794 27.6705 37.6132 28.2795 37.4466C36.4738 35.0592 45.277 32.5053 52.1425 36.1141C55.2984 37.7797 61.0565 42.2769 63.4926 41.222C63.6587 41.1665 64.8214 40.6112 64.9875 40.8888C65.1536 41.1109 64.7107 41.7217 64.5446 41.8327C64.5446 41.8327 63.8802 42.6655 62.9943 43.1097C60.3921 44.2756 34.2037 38.8901 28.8886 40.056C27.2829 40.3892 25.7327 40.8333 24.1824 41.333C23.3519 41.6106 22.5214 41.8882 21.6909 42.1658C21.1926 42.3324 20.7497 42.4434 20.3621 42.4434C20.1407 42.4434 18.9226 42.5545 18.8119 42.2213C18.535 41.5551 22.6321 38.7236 26.9507 36.7804C31.5462 34.7261 35.4218 34.1709 36.1969 34.0599C38.7438 33.7268 44.3912 32.894 50.4261 35.1703C53.3052 36.2807 54.9108 36.8914 56.8486 38.2239C58.8418 39.6119 60.3367 41.1665 62.7175 41.222C63.7141 41.222 64.4892 40.9999 65.0429 40.8333C64.3785 41.5551 63.7141 42.3324 63.0497 43.0541C61.444 42.2213 59.617 41.9437 57.8452 41.6661C55.9074 41.333 53.9142 41.0554 51.9764 40.8333C47.9346 40.3336 43.8375 40.056 39.7404 40.1671C35.8094 40.2781 31.9891 40.9444 28.2242 42.0548C26.231 42.61 24.2378 43.1097 22.1892 43.2762C19.587 43.4983 18.9226 42.9986 15.9328 43.1097C12.6108 43.2762 10.3408 43.9425 10.2854 43.7759C10.2301 43.6649 11.3374 43.3317 13.8842 42.3879Z" fill="#A2B5D3"/>
<path d="M28.6671 42.9431C30.4389 42.8876 32.1552 43.3873 33.9269 43.4428C35.6433 43.4983 37.3043 43.4428 39.0207 43.2762C42.6195 42.9431 46.1629 42.3324 49.7064 41.8882C49.7064 41.8882 52.8623 41.4441 60.669 41.1665C60.669 41.1665 64.6554 41.0554 64.7107 41.7217C64.7107 41.7772 64.6554 41.9437 64.4893 42.2213C64.4893 42.2213 64.3232 42.4989 64.1571 42.721C63.3819 43.8869 59.8938 43.0541 59.8938 43.0541C58.565 42.721 55.2431 42.9431 48.7652 43.7204C45.2217 44.1645 41.6783 44.7753 38.1348 44.9418C36.4184 44.9973 34.7574 44.9973 33.0965 44.7197C31.5462 44.4977 29.8298 44.1645 28.6118 43.1652C28.4457 43.1652 28.501 42.9431 28.6671 42.9431Z" fill="#9FB3CB"/>
<path d="M64.8215 41.3885C64.4893 41.8327 63.6588 42.4434 62.2193 42.5545C60.5583 42.6655 59.0634 42.1103 56.5719 40.6668C54.8002 39.6119 53.0838 38.3905 51.146 37.6132C49.2082 36.8359 47.1596 36.3917 45.1111 36.0031C42.9518 35.6144 40.7925 35.4479 38.6332 35.6144C36.4739 35.781 34.4253 36.5583 32.4321 37.3911C28.335 39.1122 24.2379 40.8333 20.0854 42.3324C19.1442 42.6655 16.4866 43.7759 12.8324 44.109C12.0019 44.1645 10.2302 44.3311 10.1194 43.998C10.0087 43.4983 13.9951 42.4434 18.8673 40.5557C28.4457 36.7804 30.2175 34.1154 36.7507 33.3936C39.6298 33.0605 41.8998 33.2826 43.1179 33.4492C43.9484 33.5602 51.2567 34.393 55.8522 37.7242C56.4058 38.1129 56.7934 38.3905 57.5685 38.8901C57.5685 38.8901 60.669 40.9444 62.4961 41.1665C62.6622 41.1665 62.8837 41.222 63.1052 41.222C63.4374 41.222 63.6588 41.1665 64.4893 40.9444C64.8215 40.8889 64.9876 40.8333 65.043 40.8889C65.0984 40.9999 64.8769 41.333 64.8215 41.3885Z" fill="#718CA7"/>
<path d="M20.7498 42.5545C21.3034 43.2762 21.2481 44.4421 20.5837 45.0529C20.1961 45.386 19.6425 45.497 19.0888 45.5525C18.7012 45.5525 18.3137 45.5525 17.9815 45.3305C17.6493 45.1084 17.3724 44.7753 17.2617 44.3866C16.9849 43.6649 17.0402 42.8321 17.5385 42.2769C18.2029 41.444 20.0854 41.6661 20.7498 42.5545Z" fill="#596983"/>
<path d="M19.6978 42.9431C19.9747 43.3317 19.9747 43.9425 19.5871 44.2201C19.3656 44.3866 19.0888 44.4421 18.812 44.4421C18.5905 44.4421 18.4244 44.4421 18.2583 44.3311C18.0922 44.2201 17.9815 44.0535 17.8707 43.8314C17.7046 43.4983 17.76 43.0541 17.9815 42.721C18.4244 42.3324 19.3656 42.4989 19.6978 42.9431Z" fill="#E8AC28"/>
<path d="M19.1994 43.2207C19.3102 43.3872 19.3102 43.6648 19.1441 43.7759C19.0887 43.8869 18.978 43.8869 18.8672 43.8869C18.7565 43.8869 18.7011 43.8869 18.5904 43.8314C18.535 43.7759 18.4797 43.7204 18.4243 43.6093C18.3689 43.4428 18.3689 43.2762 18.4797 43.1096C18.6458 42.9986 19.0887 43.0541 19.1994 43.2207Z" fill="#314C53"/>
<path d="M23.5735 40.5557C23.6289 40.4447 23.8503 40.5002 23.961 40.6113C25.0684 41.6106 25.7881 42.9986 25.7881 44.4977C25.7881 45.9967 25.013 47.4957 23.6842 48.162C23.7396 47.3847 24.404 46.6629 24.7362 45.9412C25.3452 44.6642 25.2345 43.0541 24.404 41.8327C24.1272 41.3885 23.7396 41.1109 23.5735 40.5557Z" fill="#314C53"/>
<path d="M26.4524 48.0509C27.1168 48.273 27.7812 48.4951 28.5009 48.7172C29.2761 48.9948 30.1066 49.2724 30.9371 49.3279C31.4354 49.3834 32.0444 49.3834 32.3766 49.7721C32.7088 50.2162 32.5427 50.8269 32.3766 51.3266C32.2105 51.7153 32.0444 52.0484 31.8783 52.3815C31.6568 52.7146 31.38 53.1033 30.9924 53.1588C30.6049 53.2143 30.328 52.9367 30.0512 52.7146C28.9992 51.8263 27.9473 50.9935 26.9507 50.1052C26.6738 49.8831 26.5077 49.6055 26.1755 49.4389C25.9541 49.2724 25.6772 49.1058 25.6772 48.8282C25.6772 48.5506 25.8987 48.3841 26.1202 48.2175C26.1755 48.162 26.2863 48.162 26.4524 48.0509Z" fill="#648A95"/>
<g opacity="0.34">
<path opacity="0.34" d="M51.478 42.9986C49.8171 43.2762 48.0453 42.832 46.4397 42.4989C44.8894 42.1658 43.3392 41.8882 41.7889 41.7772C38.8545 41.4996 35.9754 41.7772 33.2625 42.8876C31.8229 43.4983 29.3314 44.2756 28.7224 42.1658C28.1134 40.056 30.6602 38.7791 32.2105 38.1684C35.1449 37.0024 38.5223 36.6693 41.6228 37.0024C43.5606 37.169 45.3877 37.6132 47.2148 38.2794C49.0419 38.9456 50.9244 39.834 52.1424 41.3885C52.5854 41.8327 52.1424 42.8876 51.478 42.9986Z" fill="white"/>
</g>
<path d="M43.1178 37.1135C42.232 37.3911 41.2907 37.28 40.3495 37.28C39.2976 37.28 38.2456 37.3356 37.249 37.5021C36.4185 37.6132 35.588 37.8352 34.7575 38.1128C33.9824 38.3904 33.2626 38.8901 32.4875 38.9456C32.266 38.9456 32.1553 38.668 32.2106 38.5015C33.0411 37.058 35.4773 36.7248 36.9722 36.5583C38.8546 36.3362 41.3461 36.1696 43.1732 36.9469C43.1732 37.0024 43.1732 37.1135 43.1178 37.1135Z" fill="white"/>
<path d="M30.8818 40.1671C30.6604 40.4447 30.2174 40.5002 29.9406 40.3337C29.8299 40.2781 29.7191 40.1671 29.6638 40.0561C29.553 39.8895 29.553 39.6674 29.6084 39.5009C29.6084 39.5009 29.6084 39.5009 29.6084 39.4453C29.6638 39.2233 29.8852 38.9457 30.1621 38.8901C30.3835 38.8346 30.5496 38.8346 30.7157 38.9457C31.1587 39.2233 31.214 39.7785 30.8818 40.1671Z" fill="white"/>
<g opacity="0.67">
<path opacity="0.67" d="M32.9303 50.0497C31.6569 50.1607 30.2173 49.7166 28.9993 49.439C27.7259 49.1058 26.2863 48.7727 25.2344 47.9954C25.179 47.9399 25.179 47.8289 25.2897 47.8844C26.5632 48.273 27.7812 48.8282 29.11 49.1614C30.3834 49.4945 31.7122 49.7166 32.9857 49.9386C33.041 49.9386 32.9857 50.0497 32.9303 50.0497Z" fill="#233E44"/>
</g>
<g opacity="0.67">
<path opacity="0.67" d="M33.0963 50.6604C32.1551 51.1046 30.5495 50.4939 29.5529 50.2718C28.1133 49.9387 26.6184 49.55 25.4004 48.7172C25.345 48.6617 25.4004 48.6062 25.4557 48.6062C27.9472 49.4945 30.4941 50.2718 33.0963 50.5494C33.1517 50.6049 33.1517 50.6604 33.0963 50.6604Z" fill="#233E44"/>
</g>
<g opacity="0.67">
<path opacity="0.67" d="M32.7643 51.5487C31.6016 51.7708 30.3282 51.3822 29.2208 51.049C28.0028 50.6049 26.674 50.1607 25.5666 49.439C25.5113 49.3834 25.5113 49.2169 25.622 49.2724C26.8401 49.6055 27.9474 50.2162 29.1101 50.6049C30.2728 50.9935 31.5462 51.1046 32.7089 51.4377C32.8197 51.4377 32.8197 51.4932 32.7643 51.5487Z" fill="#233E44"/>
</g>
<g opacity="0.67">
<path opacity="0.67" d="M32.4874 52.5481C31.5462 52.6591 30.4942 52.2705 29.6083 51.9374C28.6671 51.6042 27.7812 51.2156 26.9507 50.6049C26.84 50.5494 26.8954 50.3828 27.0061 50.4383C27.9473 50.827 28.8886 51.2711 29.8852 51.6043C30.7157 51.8819 31.6569 52.0484 32.4874 52.5481Z" fill="#233E44"/>
</g>
<g opacity="0.67">
<path opacity="0.67" d="M32.2659 53.3809C31.0478 53.3809 29.6083 52.8257 28.7224 51.9929C28.667 51.9374 28.7224 51.8263 28.8331 51.8263C29.4422 52.0484 30.0512 52.326 30.6602 52.6036C31.2139 52.8257 31.7676 52.9922 32.3212 53.2698C32.3212 53.3254 32.2659 53.3809 32.2659 53.3809Z" fill="#233E44"/>
</g>
<path d="M19.587 47.1626C18.7565 47.1626 17.9814 46.885 17.317 46.4409C15.9328 45.386 15.4899 43.3317 16.3204 41.8327C16.708 41.0554 17.4277 40.4447 18.2029 40.1116C18.5904 39.945 19.0334 39.8895 19.4763 39.8895C20.7497 39.8895 22.0231 40.5557 22.6875 41.6106C23.5734 43.0541 23.2966 45.1639 22.0231 46.2743C21.4141 46.8295 20.5283 47.1626 19.587 47.1626Z" fill="white"/>
<path d="M19.5317 40.1116C20.6943 40.1116 21.857 40.7223 22.4661 41.7216C23.2966 43.0541 23.0197 44.9973 21.857 46.0522C21.248 46.6074 20.4175 46.885 19.587 46.885C18.8673 46.885 18.0921 46.6629 17.5385 46.2188C16.265 45.2194 15.8775 43.3317 16.5972 41.9437C16.9848 41.222 17.5938 40.6668 18.369 40.3336C18.7565 40.1671 19.1441 40.1116 19.5317 40.1116ZM19.5317 39.5564C19.0334 39.5564 18.5904 39.6674 18.1475 39.834C17.2616 40.1671 16.5419 40.8333 16.0989 41.6661C15.2131 43.3317 15.7114 45.497 17.1509 46.6629C17.8153 47.1626 18.6458 47.4402 19.587 47.4402C20.5836 47.4402 21.5248 47.1071 22.2446 46.4409C23.6288 45.2194 23.961 42.9986 22.9644 41.3885C22.2446 40.2781 20.9158 39.5564 19.5317 39.5564Z" fill="#718CA7"/>
<path d="M18.2583 40.3892C18.2029 40.3892 18.1476 40.3892 18.0922 40.3892C17.4278 40.7223 16.8741 41.222 16.5419 41.8327C15.9329 42.9986 16.099 44.5532 16.9295 45.6081C17.4832 45.9967 18.1476 46.1633 18.812 46.0522C20.2515 45.8301 21.3588 44.3311 21.1927 42.8876C21.1374 41.4996 19.6978 40.3337 18.2583 40.3892Z" fill="#314C53"/>
<path d="M21.5249 43.7204C21.5249 44.2756 21.082 44.7197 20.5283 44.7197C19.9747 44.7197 19.5317 44.2756 19.5317 43.7204C19.5317 43.1652 19.9747 42.721 20.5283 42.721C21.082 42.721 21.5249 43.1652 21.5249 43.7204Z" fill="white"/>
</svg>
