<svg width="90" height="90" viewBox="0 0 90 90" fill="none" xmlns="http://www.w3.org/2000/svg">
<path d="M28.1645 54.6358C28.1645 54.6358 27.0395 56.5241 26.2762 56.966C25.5128 57.408 23.1826 56.6446 22.5799 57.1267C21.9773 57.5687 20.4104 58.8543 20.9729 59.2159C21.5353 59.5373 22.4594 58.5329 22.4594 58.5329C22.4594 58.5329 21.8969 59.7784 22.3389 59.7784C22.7808 59.7784 23.3433 58.9748 23.3433 58.9748L24.2673 58.7338C24.2673 58.7338 23.7049 60.0998 24.3879 59.8587C25.0709 59.6177 25.5128 58.6133 26.1958 58.4526C26.8788 58.2918 27.8832 58.332 28.7671 57.9302C29.6108 57.5285 31.2581 55.6402 31.3786 55.3589C31.459 55.1179 28.1645 54.6358 28.1645 54.6358Z" fill="#FF8A80"/>
<path d="M72.8005 51.4216C73.4835 46.3594 77.1797 36.1947 63.6402 30.6503C61.9528 29.9673 60.3859 29.4852 58.9395 29.1638C59.7832 28.9227 60.4663 28.6817 60.4663 28.4406C60.4663 27.9585 56.3682 28.4808 54.6406 28.7219C54.4799 28.7219 54.3594 28.7219 54.1987 28.7219C55.0022 28.4406 57.0512 27.6773 56.5289 27.0746C55.9665 26.3916 51.306 28.7219 50.3016 29.2442C45.8018 30.2486 42.7082 32.2574 39.1325 30.3691C32.9051 27.0344 27.0393 27.0344 25.9546 26.9541C25.6733 26.9139 24.3073 27.3559 21.3744 27.3559C18.4415 27.3559 18.7228 28.4406 15.9104 29.3245C13.0981 30.2084 12.0133 29.8066 11.2098 30.8914C10.4464 31.9762 11.9731 32.7395 12.4954 33.8243C12.9775 34.9091 13.6605 35.8733 14.9462 36.2751C16.2318 36.6768 16.5934 38.0428 17.4773 38.0428C18.3612 38.0428 24.3877 38.8062 25.6733 40.0115C26.959 41.1766 30.8561 45.4755 30.0526 48.6093C29.2892 51.743 28.7669 52.7876 28.2045 53.7921C27.6018 54.7563 27.1599 55.0375 27.3607 56.0821C27.5616 57.1669 29.7713 56.6848 30.7356 56.1223C31.6998 55.5196 36.2799 50.5779 38.9316 50.5779C41.5833 50.5779 44.3153 50.6583 45.3599 53.0287C46.4446 55.3589 52.1899 57.1267 56.2879 58.8945C60.3859 60.6622 70.5104 60.3408 72.1978 58.6132C73.8852 56.6848 72.1175 56.4839 72.8005 51.4216Z" fill="#8D6E63"/>
<path d="M21.5354 27.7978C21.5354 27.7978 21.897 22.9766 24.1871 23.74C26.4771 24.5435 25.2316 28.0791 21.5354 27.7978Z" fill="#8D6E63"/>
<path d="M55.0824 57.0464C55.0824 57.0464 54.5602 59.1355 54.7209 60.1801C54.8816 61.2247 53.6763 61.5863 50.9041 60.8631C48.1319 60.1801 43.4714 59.4569 42.2259 59.9792C41.0206 60.5015 39.8153 61.1845 39.8153 60.6622C39.8153 60.14 41.3822 59.2561 41.3822 59.2561C41.3822 59.2561 38.4493 60.823 37.927 60.4614C37.4047 60.0998 39.6546 58.8945 39.6546 58.8945C39.6546 58.8945 41.3822 57.3276 43.3107 57.4883C45.199 57.649 49.2167 59.2159 50.2613 58.1713C51.3058 57.1267 51.3059 55.0375 52.1496 54.5152C52.9933 54.1135 55.0824 57.0464 55.0824 57.0464Z" fill="#FF8A80"/>
<path d="M25.6733 27.7576C25.6733 27.7576 29.2892 21.1687 33.2667 23.4989C37.2442 25.8291 32.865 31.8958 29.5303 30.8512C26.1956 29.8066 25.6733 27.7576 25.6733 27.7576Z" fill="#FF8A80"/>
<path d="M27.2002 27.6371C27.2002 27.6371 31.3786 24.3024 31.3786 26.1103C31.3786 27.9183 30.8964 29.3245 27.2002 27.6371Z" fill="#EF5350"/>
<path d="M11.2904 30.8512C11.21 30.6102 11.5716 29.9271 12.8573 29.8468C14.1027 29.7664 13.8617 30.9316 12.9778 31.253C12.0939 31.5744 11.652 32.6592 11.2904 32.2172C10.8886 31.7351 11.2904 30.8512 11.2904 30.8512Z" fill="#6D4C41"/>
<path d="M18.9639 30.57C18.9639 30.57 21.1334 32.3779 21.495 31.1726C21.8164 29.9673 19.9281 28.9629 18.9639 30.57Z" fill="#37474F"/>
<path d="M20.8122 30.8512C20.7319 30.7709 20.6113 30.7709 20.531 30.8512C20.4506 30.9316 20.4506 31.0521 20.531 31.1325C20.6113 31.2128 20.7319 31.2128 20.8122 31.1325C20.8926 31.0521 20.8926 30.8914 20.8122 30.8512Z" fill="#E0E0E0"/>
<path d="M65.408 33.8645C65.408 33.8645 69.948 35.1903 70.3497 38.9669C70.7113 42.7837 61.993 32.5386 65.408 33.8645Z" fill="#A1887F"/>
<path d="M66.9348 41.8596C66.9348 41.8596 68.0598 45.2746 68.8231 44.1497C69.5865 42.9845 67.0553 39.2079 66.9348 41.8596Z" fill="#A1887F"/>
<path d="M70.711 41.7391C70.711 41.7391 70.3494 43.2658 71.0726 43.7479C71.8761 44.23 71.3538 40.815 70.711 41.7391Z" fill="#A1887F"/>
<path d="M67.6176 55.6402C67.7381 55.5197 67.8988 55.4393 68.0595 55.4795C69.747 55.6804 78.8269 57.1267 78.7465 61.9479C78.6662 67.2512 68.0194 67.2513 60.7072 66.4879C55.5646 65.9254 49.2971 65.8049 45.641 66.97C45.0785 67.1307 44.6366 66.6084 45.1187 66.287C47.2079 64.921 50.9845 64.0371 57.8145 64.7201C71.9165 66.0861 74.4476 63.0327 73.6843 61.3855C72.9611 59.8588 68.5015 58.5731 67.6979 58.3722C67.6176 58.332 67.5372 58.2919 67.4569 58.2115C67.2158 57.8901 66.5328 56.9259 67.6176 55.6402Z" fill="#FF8A80"/>
</svg>
