<svg width="90" height="90" viewBox="0 0 90 90" fill="none" xmlns="http://www.w3.org/2000/svg">
<path d="M22.7546 22.281C22.7546 22.281 23.3964 19.282 25.2147 19.1269C27.033 19.0234 26.6586 23.2634 25.2147 23.6254C23.7707 24.039 22.7546 22.281 22.7546 22.281Z" fill="#E0E0E0"/>
<path d="M63.88 57.3901C64.0404 57.235 64.2544 57.1315 64.4683 57.1832C66.554 57.4418 77.7311 59.1481 77.6242 64.8876C77.5172 71.1959 64.4148 71.1959 55.4303 70.2651C49.1197 69.5929 41.4187 69.4895 36.873 70.8339C36.1777 71.0407 35.6429 70.4203 36.2312 70.0066C38.7982 68.4037 43.4509 67.3178 51.8472 68.1452C69.1745 69.7998 72.3297 66.1286 71.3671 64.1637C70.458 62.354 65.0031 60.8027 63.987 60.5442C63.88 60.4925 63.7731 60.4408 63.7196 60.3891C63.3452 60.0789 62.4895 58.9413 63.88 57.3901Z" fill="#FF8A80"/>
<path d="M30.7234 55.0633C31.2582 53.6672 28.8517 54.3911 28.2634 54.9081C28.2634 54.9081 29.1191 59.0447 28.5308 59.7686C28.3169 60.0271 28.103 60.2857 27.8356 60.5442C27.4612 60.6476 25.2151 61.3198 24.5733 61.4749C23.8781 61.5784 24.199 62.3023 25.1081 62.0437C25.4825 61.9403 26.0708 61.7852 26.659 61.5784C26.6056 61.6301 26.5521 61.6301 26.5521 61.6818C25.8568 62.0954 26.1242 62.354 26.9799 62.0954C27.8356 61.8369 28.4239 61.3715 28.5308 61.5784C28.6378 61.8369 28.4238 62.5091 29.2795 62.2505C30.1352 61.992 29.9747 61.4232 30.4561 61.0096C30.9908 60.5959 31.6326 60.751 31.5791 59.872C31.3652 58.9413 30.1887 56.4594 30.7234 55.0633Z" fill="#FF8A80"/>
<path d="M31.6858 26.159C31.6858 26.159 29.1188 26.2625 26.3378 23.5737C23.5569 20.8849 20.3481 21.1435 17.9416 20.2127C15.535 19.282 14.198 18.8684 13.3424 20.2127C12.4867 21.5571 13.3424 22.2293 12.7541 22.9532C12.1658 23.7288 12.1658 26.0556 13.4493 29.0546C14.7328 32.0536 17.7811 33.8117 19.4925 38.517C21.2038 43.2224 22.1664 46.7902 24.4126 49.3238C26.6587 51.8574 27.3539 54.0291 27.6748 55.4252C27.9957 56.8213 29.3862 56.0974 30.0814 55.9423C30.7766 55.7872 31.5253 55.6321 32.0066 55.0116C32.4345 54.4428 31.8997 53.8223 32.9693 54.0808C33.9854 54.3394 33.2901 55.0633 34.6271 55.8389C35.9106 56.6145 35.8572 55.9423 36.5524 56.6145C37.2476 57.2867 40.8842 61.7852 48.3178 61.7852C55.7514 61.7852 58.3719 61.113 60.6181 61.475C62.8642 61.7852 63.4525 60.5442 64.6825 60.5442C65.9125 60.5442 66.8217 59.872 67.196 58.5277C67.5704 57.1833 65.0568 54.4945 64.9499 52.2711C64.8429 49.996 65.8055 49.3238 65.4847 46.5833C65.1638 43.8429 65.0568 36.6556 54.3075 32.6224C43.6116 28.5893 42.3816 31.1229 38.9055 29.4683C35.3758 27.762 34.6271 26.159 31.6858 26.159Z" fill="#E0E0E0"/>
<path d="M26.7121 25.6937C26.7121 25.6937 34.3062 18.92 37.9962 21.2986C41.6863 23.6771 37.1941 32.6224 32.4344 31.0195C27.7817 29.4683 25.2682 27.0897 26.7121 25.6937Z" fill="#FF8A80"/>
<path d="M29.7605 27.4517C29.7605 27.4517 35.4828 22.7981 36.1245 25.1766C36.7128 27.5551 32.7553 29.2098 29.7605 27.4517Z" fill="#EF5350"/>
<path d="M15.5884 19.4372C15.5884 19.4372 13.6097 18.8684 13.0749 19.7474C12.5401 20.6781 12.9144 22.0742 13.6097 21.8157C14.3049 21.6606 16.8184 21.8674 15.5884 19.4372Z" fill="#FF8A80"/>
<path d="M20.1338 23.3151C20.1338 23.3151 22.3799 25.1766 22.7543 23.9356C23.1821 22.6946 21.2034 21.7122 20.1338 23.3151Z" fill="#37474F"/>
<path d="M22.1131 23.5736C22.0061 23.4702 21.8992 23.5219 21.7922 23.5736C21.6853 23.677 21.7387 23.7805 21.7922 23.8839C21.8992 23.9873 22.0061 23.9356 22.1131 23.8839C22.2201 23.7805 22.2201 23.677 22.1131 23.5736Z" fill="#E0E0E0"/>
<path d="M46.7131 57.1316C40.2956 57.2867 36.3381 50.4614 34.9477 45.0838C33.5572 39.758 31.3111 40.0683 25.2679 37.2244C19.2247 34.3805 16.8182 25.5386 14.572 24.5044C13.2885 23.9356 12.6468 24.5044 12.3794 25.1249C12.4864 26.1591 12.8072 27.5034 13.449 29.0029C14.7325 32.002 17.7808 33.76 19.4921 38.4653C21.2035 43.1707 22.1661 46.7385 24.4122 49.2721C26.6584 51.754 27.3536 53.9774 27.6745 55.3735C27.9954 56.7696 29.3858 56.0457 30.081 55.8906C30.7763 55.7355 31.525 55.5804 32.0063 54.9599C32.4341 54.3911 31.8993 53.7706 32.9689 54.0292C33.985 54.2877 33.2898 55.0116 34.6268 55.7872C35.9103 56.5628 35.8568 55.8906 36.552 56.5628C37.2473 57.235 40.8839 61.7335 48.3175 61.7335C52.5424 61.7335 55.2163 61.5267 57.1416 61.3716C57.6229 60.6994 57.8903 60.0789 57.8368 59.4584C57.6229 53.9775 53.1306 56.9765 46.7131 57.1316Z" fill="#D3D9D6"/>
<path d="M37.4615 55.7872C37.9963 54.3911 35.5897 55.115 35.0014 55.6321C35.0014 55.6321 35.8571 59.7686 35.2688 60.4925C35.0549 60.7511 34.841 61.0096 34.5736 61.2681C34.1993 61.3715 31.9531 62.0437 31.3114 62.1989C30.6161 62.3023 30.937 63.0262 31.8462 62.7676C32.2205 62.6642 32.8088 62.5091 33.3971 62.3023C33.3436 62.354 33.2901 62.354 33.2901 62.4057C32.5949 62.8193 32.8623 63.0779 33.7179 62.8193C34.5736 62.5608 35.1619 62.0954 35.2688 62.3023C35.3758 62.5608 35.1619 63.233 36.0176 62.9745C36.8732 62.7159 36.7128 62.1471 37.1941 61.7335C37.7289 61.3198 38.3706 61.475 38.3172 60.5959C38.1032 59.6652 36.9267 57.1833 37.4615 55.7872Z" fill="#FF8A80"/>
<path d="M54.3073 58.993C54.3073 58.993 54.1469 60.9062 52.6494 60.7511C51.2055 60.596 48.7454 61.0613 46.6063 61.0613C44.4671 61.0613 43.7719 61.1647 43.5045 61.7335C43.2371 62.3023 43.1836 62.9228 43.8253 62.5091C44.5206 62.0955 45.1089 61.6818 45.3763 61.7335C45.6437 61.8369 43.9323 62.6642 45.0554 62.716C46.1784 62.8194 46.7667 61.9403 47.4085 61.8886C47.9967 61.7852 46.1784 62.8711 47.0876 62.8194C47.9433 62.716 48.2107 61.8886 49.0128 62.1472C49.815 62.4057 49.6011 62.9228 52.1146 62.6642C54.6282 62.4057 56.9813 62.8194 57.623 62.354C58.3182 61.8369 56.9278 59.1999 57.0347 58.7345C57.0882 58.3209 55.2699 56.9765 54.3073 58.993Z" fill="#FF8A80"/>
</svg>
