<svg width="90" height="90" viewBox="0 0 90 90" fill="none" xmlns="http://www.w3.org/2000/svg">
<path d="M43.444 50.9961C43.2113 50.1122 43.0659 49.2283 43.0077 48.3444C42.9786 48.0593 42.9786 47.7172 43.1531 47.4891C43.2986 47.318 43.5022 47.2039 43.7348 47.1184C46.3525 46.0064 49.0574 45.0655 51.8204 44.2671C51.0642 42.8985 49.7263 41.8435 48.2139 41.3873C48.4757 40.6175 49.4355 40.3609 50.2498 40.2468C52.4894 39.8762 54.758 39.5055 56.9975 39.1633C56.8812 38.1939 56.125 37.3955 55.2524 36.8823C54.409 36.3691 53.4492 36.0554 52.5475 35.5992C52.2567 35.4567 51.9368 35.2571 51.8204 34.9434C51.6168 34.3732 52.1694 33.8029 52.722 33.5178C53.6237 33.0331 54.6416 32.7765 55.5433 32.2633C57.5501 31.1227 58.888 28.8132 61.1857 28.4996C60.7204 26.8743 59.5279 25.4487 58.0155 24.6789C58.6553 24.2797 59.3243 23.852 59.7896 23.2817C60.255 22.683 60.4877 21.8561 60.1968 21.1718C60.0805 20.9152 59.8769 20.6586 59.8187 20.3734C59.6733 19.7747 60.1387 19.2329 60.4295 18.7197C60.7494 18.2065 60.8658 17.4081 60.3423 17.0945C60.1387 16.9804 59.8478 16.9804 59.6151 17.0375C58.4227 17.2941 57.521 18.6057 56.3286 18.3776C55.9505 18.292 55.6014 18.0639 55.2233 18.0069C54.3508 17.8928 53.74 18.7482 53.3037 19.4896C52.7802 20.459 52.024 21.571 50.9188 21.4569C50.1626 21.3714 49.6391 20.6871 49.0574 20.2024C48.4757 19.6891 47.5159 19.3755 47.0214 19.9458C46.7887 20.2024 46.7597 20.6016 46.7015 20.9437C46.527 23.0822 46.3234 25.2491 46.1489 27.3876C46.0616 28.3 45.7126 29.4975 44.7528 29.469C43.7348 29.4405 43.3567 27.9578 42.3969 27.7012C41.6698 27.5016 40.9427 28.1289 40.7391 28.8417C40.5355 29.5545 40.7391 30.2959 40.9136 31.0372C41.2335 32.2062 41.5244 33.4038 41.8443 34.5728C41.9897 35.086 42.1061 35.5992 41.9607 36.1125C41.8152 36.5972 41.2626 37.0249 40.7682 36.8253C40.361 36.6827 40.1865 36.2265 39.9247 35.8559C39.663 35.5137 39.1104 35.2286 38.8195 35.5707C38.7323 35.6848 38.7032 35.8273 38.6741 35.9699C38.5577 36.8538 38.9358 37.7377 39.2558 38.5931C39.5757 39.4485 39.8666 40.3609 39.6048 41.2162C39.343 42.0716 38.296 42.7559 37.4816 42.3282C37.2198 42.1857 37.0162 41.9861 36.7254 42.0146C36.2891 42.0716 36.1728 42.6134 36.1728 43.0411C36.1728 43.9535 36.1728 44.8374 36.1728 45.7498C36.1728 46.5481 36.1728 47.3465 35.911 48.0878C35.7074 48.6581 35.3875 49.1428 35.0967 49.656C34.2241 51.2527 33.7878 53.0205 32.9444 54.6457C32.5081 55.5011 26.7784 63.6273 28.7853 63.9979C29.8323 64.1975 31.3738 61.0041 31.781 60.3483C33.0316 58.3524 34.6022 56.5561 36.4055 55.0164C38.5287 53.2201 40.9136 51.88 43.444 50.9961Z" fill="#4F8E26"/>
<path d="M33.6714 66.0508C33.4678 65.5091 33.1769 64.9958 33.0897 64.4256C32.9733 63.7128 33.0897 63 33.2351 62.2871C33.6423 60.2342 34.0495 58.1243 33.6423 56.0428C33.3223 54.3321 32.4789 52.7639 31.5191 51.3097C31.1991 50.8535 30.8792 50.3688 30.792 49.7986C30.7338 49.2568 31.0246 48.601 31.5772 48.4585C32.0135 48.3729 32.4498 48.601 32.857 48.544C33.5841 48.4585 33.9913 47.5746 33.8459 46.8903C33.7004 46.1774 33.2351 45.6072 32.7988 45.0084C31.4609 43.2121 30.5302 41.1592 30.0939 38.9922C30.0358 38.6786 29.9776 38.3364 30.123 38.0228C30.3266 37.5951 30.9083 37.424 31.3737 37.5096C31.8681 37.5951 32.2753 37.8802 32.6825 38.1654C33.3223 38.5931 33.9331 39.0493 34.573 39.477C35.1256 39.8761 35.94 40.2468 36.4344 39.7621C36.7253 39.477 36.7253 39.0493 36.6962 38.6786C36.3472 35.029 33.6423 31.8355 33.5259 28.1859C33.4968 27.7582 33.5841 27.2165 33.9913 27.0454C34.3694 26.8743 34.7766 27.1024 35.1547 27.2735C36.0272 27.6727 37.0452 27.8438 38.005 27.7012C38.2958 27.6727 38.6158 27.5871 38.8194 27.3876C39.1975 27.0169 39.1102 26.4181 39.023 25.9049C38.8194 24.9069 38.6158 23.909 38.4122 22.9111C38.354 22.6544 38.3249 22.3978 38.4413 22.1697C38.8194 21.4854 39.9246 22.1982 40.6808 21.9701C41.2625 21.7991 41.4952 21.1433 41.7569 20.6015C42.2805 19.404 43.1821 18.349 44.3164 17.6362C45.9742 20.1453 44.8108 23.966 47.0213 25.9904C47.254 26.19 47.5157 26.3896 47.5448 26.7032C47.603 27.0739 47.254 27.3876 46.9631 27.6442C45.9451 28.5566 45.3053 29.7541 44.6945 30.9516C44.4909 31.3508 44.2873 31.7785 44.2582 32.2632C44.2291 32.7194 44.4618 33.2327 44.8981 33.4037C45.5379 33.6318 46.1487 33.1186 46.7304 32.7479C47.3121 32.4058 48.3301 32.4058 48.3883 33.0616C48.4173 33.3182 48.2428 33.5748 48.0974 33.7744C46.8468 35.5707 45.5961 37.367 44.3164 39.1633C43.7638 39.9332 43.2112 40.7315 43.0367 41.6724C42.8621 42.5848 43.153 43.6683 43.9965 44.153C45.3634 44.8944 47.1376 43.6683 48.5628 44.2671C46.5268 46.4626 44.3455 48.487 41.9896 50.3403C43.1821 50.3118 44.3746 50.2548 45.567 50.2262C45.9451 50.2262 46.4105 50.2548 46.5559 50.5969C46.7013 50.9676 46.3814 51.3382 46.0615 51.5663C44.2582 52.9635 42.2223 54.047 40.5935 55.6437C38.9648 57.2119 37.7723 59.5214 38.3249 61.6884C38.6158 61.4032 38.9066 61.1181 39.3138 61.0326C39.721 60.947 40.1863 61.2037 40.2154 61.6028C40.2154 61.888 39.9827 62.1446 39.7792 62.3442C38.4703 63.5987 37.4524 65.1669 36.8416 66.8492C36.2308 68.5884 35.8818 70.6984 34.253 71.6393C34.1367 71.6963 34.3112 69.6149 34.3112 69.4153C34.3694 68.2178 34.0785 67.0488 33.6714 66.0508Z" fill="#4F8E26"/>
<path d="M33.6718 65.1384C32.0721 63.7983 30.0071 74.405 32.1303 71.4112C32.2175 69.1587 33.4682 67.3054 33.6718 65.1384Z" fill="#65AA39"/>
<path d="M30.7631 65.6516C29.5706 67.3624 28 69.5294 28 70.5273C29.0761 72.1811 31.6647 65.7087 30.7631 65.6516Z" fill="#65AA39"/>
<path d="M52.402 23.4528C52.6056 21.9131 52.6347 20.3449 52.5474 18.8052C52.5184 18.292 52.3438 17.6362 51.8203 17.5506C51.355 17.4651 50.9478 17.8928 50.7151 18.292C49.7262 19.8031 48.9409 21.4284 48.3592 23.1391C48.1265 23.8234 47.5158 24.7358 46.8468 24.3652C46.6432 24.2511 46.4978 24.0515 46.3815 23.852C45.8579 23.0251 45.2181 22.3123 44.4328 21.7135C44.2873 21.5994 44.0838 21.4854 43.9093 21.4854C43.7347 21.4854 43.5893 21.5994 43.473 21.7135C42.5713 22.6259 42.7749 24.1086 42.6004 25.3631C42.5713 25.6483 42.4841 25.9619 42.2805 26.1615C41.757 26.6462 40.9135 26.247 40.3027 25.8478C39.692 25.4487 38.7612 25.135 38.3541 25.7053C38.2086 25.9049 38.1795 26.19 38.1505 26.4466C38.0632 27.8437 37.9759 29.2694 37.8596 30.6665C37.0162 30.4384 36.1436 30.2103 35.3001 30.0107C34.4858 32.0351 35.2129 34.3161 35.2711 36.4831C35.3001 37.367 35.0384 38.4505 34.1658 38.6786C33.4969 38.8496 32.857 38.3934 32.2462 38.1083C31.6355 37.7947 30.7338 37.7091 30.4139 38.3079C30.1521 38.8211 30.5012 39.3914 30.8502 39.8476C32.9152 42.7274 34.2822 46.0634 34.8348 49.5419C34.4858 49.1713 34.1368 48.7721 33.6714 48.544C33.206 48.3444 32.5662 48.3729 32.2462 48.7721C31.8972 49.1998 32.0136 49.7985 32.1299 50.3118C32.508 51.8229 32.857 53.3056 33.2351 54.8168C32.7407 54.218 31.6936 54.5316 31.3155 55.1589C30.9083 55.8147 30.9956 56.6131 31.0538 57.3544C31.3737 60.9755 31.4319 64.6537 30.5884 68.1892C31.9263 66.3359 33.2933 64.4826 34.7185 62.6578C35.8528 61.2321 37.0452 59.8065 38.6158 58.8086C41.6988 56.8697 45.7707 56.9552 48.9409 55.1019C47.9811 54.0469 46.9922 53.0205 46.0324 51.9655C45.887 51.8229 45.7416 51.6519 45.7416 51.4523C45.7125 51.1101 46.0324 50.8535 46.3233 50.6539C48.7373 49.2853 51.9948 49.77 54.2925 48.1733C53.5072 46.7762 52.3438 45.6072 50.9187 44.7803C50.6278 44.6092 50.3079 44.4381 50.1043 44.1815C49.7553 43.7253 49.8425 43.1266 49.9589 42.5848C51.0932 38.0798 54.8161 35.3711 54.5543 30.3814C54.467 28.7276 54.7579 27.302 54.9324 25.6768C55.0196 24.8214 55.1069 23.7664 54.3216 23.1676C53.9726 23.0251 52.5184 22.6544 52.402 23.4528Z" fill="#579E2A"/>
<path d="M44.2582 57.9817C44.0255 57.0978 43.8801 56.2139 43.8219 55.33C43.7928 55.0449 43.7928 54.7027 43.9674 54.4746C44.1128 54.3036 44.3164 54.1895 44.549 54.104C47.1667 52.992 49.8716 52.0511 52.6346 51.2527C51.8784 49.8841 50.5405 48.8291 49.0281 48.3729C49.2899 47.6031 50.2497 47.3465 51.064 47.2324C53.3036 46.8617 55.5722 46.4911 57.8117 46.1489C57.6954 45.1795 56.9392 44.3811 56.0666 43.8679C55.2232 43.3547 54.2634 43.041 53.3617 42.5848C53.0709 42.4423 52.751 42.2427 52.6346 41.929C52.431 41.3588 52.9836 40.7885 53.5362 40.5034C54.4379 40.0187 55.4558 39.7621 56.3575 39.2488C58.3643 38.1083 59.7022 35.7988 61.9999 35.4852C61.5346 33.8599 60.3421 32.4343 58.8297 31.6645C59.4695 31.2653 60.1385 30.8376 60.6039 30.2673C61.0692 29.6686 61.3019 28.8417 61.011 28.1574C60.8947 27.9008 60.6911 27.6442 60.6329 27.359C60.4875 26.7603 60.9529 26.2185 61.2437 25.7053C61.5637 25.1921 61.68 24.3937 61.1565 24.0801C60.9529 23.966 60.662 23.966 60.4293 24.0231C59.2369 24.2797 58.3352 25.5913 57.1428 25.3632C56.7647 25.2776 56.4156 25.0495 56.0375 24.9925C55.165 24.8784 54.5542 25.7338 54.1179 26.4751C53.5944 27.4446 52.8382 28.5566 51.733 28.4425C50.9768 28.357 50.4533 27.6727 49.8716 27.188C49.2899 26.6747 48.3301 26.3611 47.8356 26.9314C47.6029 27.188 47.5739 27.5871 47.5157 27.9293C47.3412 30.0678 47.1376 32.2347 46.9631 34.3732C46.8758 35.2856 46.5268 36.4831 45.567 36.4546C44.549 36.4261 44.1709 34.9434 43.2111 34.6868C42.484 34.4872 41.7569 35.1145 41.5533 35.8273C41.3497 36.5401 41.5533 37.2815 41.7278 38.0228C42.0478 39.1918 42.3386 40.3894 42.6585 41.5584C42.804 42.0716 42.9203 42.5848 42.7749 43.0981C42.6294 43.5828 42.0768 44.0105 41.5824 43.8109C41.1752 43.6683 41.0007 43.2121 40.7389 42.8414C40.4772 42.4993 39.9246 42.2142 39.6337 42.5563C39.5465 42.6704 39.5174 42.8129 39.4883 42.9555C39.3719 43.8394 39.75 44.7233 40.07 45.5787C40.3899 46.4341 40.6808 47.3465 40.419 48.2018C40.1572 49.0572 39.1102 49.7415 38.2958 49.3138C38.034 49.1713 37.8305 48.9717 37.5396 49.0002C37.1033 49.0572 36.987 49.599 36.987 50.0267C36.987 50.9391 36.987 51.823 36.987 52.7354C36.987 53.5337 36.987 54.3321 36.7252 55.0734C36.5216 55.6437 36.2017 56.1284 35.9109 56.6416C35.0383 58.2383 34.602 60.0061 33.7586 61.6313C33.3223 62.4867 27.5926 70.6128 29.5995 70.9835C30.6465 71.1831 32.188 67.9897 32.5952 67.3339C33.8458 65.338 35.4164 63.5417 37.2197 62.002C39.3429 60.2057 41.6987 58.8656 44.2582 57.9817Z" fill="#60AD2D"/>
<path d="M51.4998 44.5237C50.0455 44.4097 48.5913 44.2671 47.1662 44.7233C46.9335 44.8088 46.6717 44.8944 46.4099 45.0084C47.3407 43.5258 48.2714 42.0716 49.2021 40.589C49.5511 40.0472 49.9001 39.5055 50.2491 38.9637C50.2782 38.9637 50.3073 38.9637 50.3364 38.9352C50.5691 38.7641 50.8017 38.5645 51.0344 38.365C51.4125 38.0513 51.8197 37.8232 52.256 37.5666C53.1576 37.0819 54.1465 36.7397 55.1063 36.3691C55.1936 36.3406 55.1645 36.2265 55.0772 36.2265C53.972 36.3691 52.8958 36.5972 51.8488 37.0249C51.7034 37.0819 51.5289 37.1674 51.3544 37.253C52.5178 35.4281 53.6811 33.5748 54.7282 31.693C54.7573 31.6645 54.6991 31.636 54.67 31.6645C53.2158 33.5178 51.907 35.4852 50.6272 37.4526C50.6272 37.253 50.6272 37.0534 50.6272 36.8538C50.6272 36.0554 50.5982 35.2571 50.5109 34.4587C50.3655 32.862 50.1328 31.1798 49.6384 29.6401C49.6384 29.6116 49.5511 29.6116 49.5511 29.6686C49.6965 31.2083 50.1328 32.7194 50.2782 34.2591C50.3655 35.0575 50.3946 35.8844 50.3364 36.6827C50.3073 37.0534 50.2782 37.424 50.2201 37.7947C50.191 37.8802 50.191 37.9943 50.1619 38.0798C50.0165 38.2224 49.9292 38.3935 49.8419 38.5931C49.6384 38.8782 49.4638 39.1633 49.2603 39.4484C48.2132 41.0166 47.1661 42.6134 46.09 44.1816C46.1191 43.4117 45.9446 42.6134 45.7992 41.9576C45.5374 40.8741 45.1011 39.8476 44.4903 38.9067C45.072 39.9046 45.4792 41.0166 45.5665 42.1572C45.6247 42.6989 45.5956 43.2121 45.5374 43.7539C45.4792 44.2386 45.3629 44.7518 45.3629 45.265C44.9266 45.8923 44.5194 46.5481 44.0832 47.1754C43.5596 47.9737 43.0361 48.7721 42.5417 49.5705C42.5126 49.3138 42.5126 49.0572 42.4544 48.8006C42.309 47.9452 42.0472 47.1754 41.4946 46.4911C41.4655 46.4626 41.4364 46.4911 41.4655 46.5196C41.9309 47.2894 42.1345 48.2018 42.1345 49.1143C42.1345 49.5134 42.1054 49.9126 42.1054 50.2833C41.4946 51.2242 40.9129 52.1366 40.3021 53.0775C40.0404 53.3626 39.8077 53.7048 39.6623 54.0755C37.7427 57.0693 35.8522 60.0631 33.9616 63.057C32.0421 66.0793 30.1515 69.1017 28.2029 72.0955C27.7666 72.7798 28.7555 73.4071 29.1627 72.6658C32.362 67.2198 35.7067 61.888 39.0806 56.5561C39.7495 55.5011 40.4185 54.4461 41.0874 53.3626C41.1456 53.3056 41.2328 53.2486 41.291 53.1916C41.8727 52.7069 42.5417 52.3077 43.2397 51.994C44.8394 51.3097 46.439 50.9106 48.155 50.6539C48.1841 50.6539 48.1841 50.6254 48.155 50.6254C46.3227 50.768 44.3449 50.7395 42.6289 51.4808C42.4544 51.5664 42.2799 51.6519 42.1054 51.7374C43.1234 50.1122 44.1413 48.487 45.1593 46.8617C45.392 46.6622 45.6247 46.4341 45.8573 46.2345C46.3227 45.8638 46.8462 45.6072 47.3988 45.3506C48.5913 44.8088 50.0455 44.6092 51.3544 44.6378C51.558 44.6378 51.558 44.5237 51.4998 44.5237Z" fill="#73BF41"/>
<path d="M33.061 67.7331C33.5264 67.3909 34.0208 67.0487 34.3989 66.6211C34.8643 66.0793 35.1261 65.3665 35.3587 64.6822C36.0568 62.6863 36.7839 60.6619 38.18 59.0652C39.3433 57.7251 40.8558 56.7842 42.4554 56.0143C42.9789 55.7577 43.5025 55.5011 43.8515 55.0734C44.2005 54.6172 44.2587 53.9329 43.8515 53.5337C43.5316 53.2486 43.0371 53.2201 42.6881 52.9635C42.1064 52.5358 42.1937 51.5949 42.6881 51.0246C43.1535 50.4829 43.8806 50.1977 44.5495 49.9126C46.6145 49.0287 48.476 47.6886 49.9593 46.0064C50.192 45.7497 50.3956 45.4931 50.4247 45.151C50.4828 44.6663 50.0756 44.2386 49.6103 44.0675C49.1449 43.8964 48.6505 43.9534 48.156 43.982C47.3708 44.039 46.6145 44.1245 45.8293 44.1815C45.1603 44.2386 44.2587 44.1815 44.0842 43.5257C43.9969 43.1551 44.2005 42.7559 44.4332 42.4423C46.5855 39.4484 50.5701 38.0228 52.5478 34.8864C52.7805 34.5157 52.9841 34.0025 52.7223 33.6603C52.4897 33.3467 52.0243 33.3182 51.6171 33.2897C50.6573 33.2041 49.6975 32.862 48.9122 32.2632C48.6796 32.0921 48.4469 31.864 48.3596 31.5789C48.2142 31.0657 48.5923 30.581 48.9413 30.2103C49.6103 29.4405 50.3083 28.6991 50.9773 27.9293C51.1518 27.7297 51.3263 27.5301 51.3263 27.2735C51.3554 26.4751 50.0175 26.5607 49.4649 25.9904C49.0577 25.5627 49.174 24.8784 49.2322 24.2797C49.4067 22.9681 49.1449 21.628 48.5341 20.459C45.8293 21.8276 44.8695 25.7053 41.9319 26.3896C41.641 26.4466 41.292 26.5037 41.1175 26.7318C40.8848 27.0454 41.0303 27.4731 41.1466 27.8152C41.5538 29.0983 41.4956 30.4669 41.4084 31.807C41.3793 32.2632 41.3502 32.7479 41.1175 33.1471C40.9139 33.5463 40.4486 33.8884 39.9832 33.8029C39.3143 33.6889 39.0525 32.919 38.7326 32.3488C38.4126 31.75 37.511 31.2653 37.1329 31.807C36.9875 32.0351 36.9875 32.3202 37.0166 32.5769C37.1911 34.7438 37.3656 36.9108 37.5401 39.0778C37.6273 40.0187 37.6855 40.9881 37.3656 41.872C37.0456 42.7559 36.2313 43.5543 35.2715 43.5257C33.73 43.4972 32.7993 41.5869 31.2578 41.3873C31.8976 44.2671 32.7702 47.1184 33.8463 49.8841C32.8283 49.2568 31.8395 48.658 30.8215 48.0308C30.5016 47.8312 30.0653 47.6316 29.7744 47.8597C29.4545 48.0878 29.5709 48.5725 29.7163 48.9432C30.5597 51.0246 31.7813 52.9635 32.3921 55.1304C33.0029 57.2974 32.8574 59.8635 31.2869 61.4888C31.1705 61.1181 31.0542 60.6904 30.7633 60.4338C30.4725 60.1772 29.9199 60.1487 29.6872 60.4908C29.5418 60.7474 29.629 61.0611 29.6872 61.3462C30.1816 63.0855 30.2689 64.9103 29.9199 66.6781C29.5709 68.5029 28.7856 70.4703 29.7163 72.0955C29.7744 72.2096 30.7052 70.2992 30.7924 70.1281C31.345 69.2727 32.1885 68.3889 33.061 67.7331Z" fill="#68BC31"/>
<path d="M31.6066 69.1017C32.1301 67.9327 32.6245 66.7352 33.0899 65.5661C34.2242 62.7149 35.2422 59.8351 36.2311 56.9268C36.7255 55.5012 37.2199 54.0755 37.7435 52.6499C37.9761 52.3933 38.2088 52.1081 38.4415 51.8515C38.9941 51.2813 39.6049 50.7395 40.2157 50.2548C41.4954 49.2284 43.0078 48.43 44.4621 47.6602C44.4911 47.6316 44.462 47.6031 44.433 47.6031C42.8624 48.3445 41.2918 49.1143 39.8085 50.0267C39.2559 50.3689 38.7323 50.7395 38.2379 51.1672C39.4595 47.7742 40.7101 44.3812 41.9898 40.9882C41.9898 40.9882 42.0189 40.9597 42.0189 40.9312C42.2807 40.532 42.5715 40.1328 42.8624 39.7621C43.4732 38.9923 44.2003 38.308 44.9274 37.6522C46.4107 36.3691 48.0977 35.2571 49.7846 34.2307C49.8718 34.1736 49.8137 34.0596 49.7264 34.1166C47.9231 35.1146 46.0908 36.027 44.433 37.2815C43.8513 37.7377 43.2987 38.2224 42.7751 38.7642C43.9094 35.6848 44.8402 32.5484 45.9454 29.469C45.9745 29.4405 45.8872 29.412 45.8872 29.4405C44.6656 32.3488 43.3277 35.2286 42.1062 38.1369C41.6699 39.1348 41.2627 40.1328 40.8846 41.1593C40.8265 40.9312 40.7392 40.703 40.681 40.532C40.2738 39.477 39.8376 38.4791 39.3431 37.4811C39.3431 37.4526 39.285 37.4811 39.314 37.5096C39.7212 38.4505 40.2157 39.4485 40.3902 40.4464C40.4774 40.9597 40.4774 41.5014 40.4774 42.0146C40.4774 42.0717 40.4774 42.1572 40.4774 42.2142C39.8957 43.6969 39.314 45.2081 38.7323 46.6907C38.1797 48.1164 37.6562 49.542 37.1327 50.9676C36.6673 49.0858 35.6494 47.2325 34.5732 45.7213C34.5441 45.6928 34.486 45.7213 34.515 45.7783C35.2131 46.8618 35.7948 48.0593 36.1438 49.2854C36.4346 50.2548 36.551 51.2242 36.6964 52.1937C36.1729 53.5908 35.6784 54.9879 35.1549 56.385C35.0967 56.0429 34.9804 55.7007 34.8641 55.3586C34.3987 54.047 33.6716 52.7639 32.77 51.6804C32.7409 51.6519 32.7409 51.6804 32.7409 51.709C33.6425 52.8495 34.2533 54.104 34.5441 55.5012C34.6605 56.0999 34.7768 56.6987 34.8059 57.326C33.9915 59.5215 33.1771 61.7169 32.3337 63.8839C31.7229 65.4521 31.083 67.0203 30.4141 68.56C30.0651 69.3583 29.687 70.1282 29.2798 70.9265C29.338 71.3542 29.4543 71.7819 29.687 72.2096C29.7451 72.3237 30.6759 70.4133 30.7631 70.2422C31.0249 69.8431 31.2866 69.4439 31.6066 69.1017Z" fill="#9ACC5E"/>
</svg>
