<svg width="90" height="90" viewBox="0 0 90 90" fill="none" xmlns="http://www.w3.org/2000/svg">
<path d="M20.4796 30.9936C20.9833 30.2016 21.9521 29.7491 22.4946 28.9571C23.1533 28.0142 23.1921 26.7319 23.9671 25.9022C24.3159 25.5251 24.7809 25.2611 25.2071 25.0725C28.3459 23.6017 32.1435 23.5262 35.2823 24.9217C35.631 25.0725 35.9798 25.2234 36.3285 25.148C36.716 25.0348 36.9485 24.6954 37.181 24.3937C38.8085 22.508 42.0636 22.8851 43.9236 21.188C44.3499 20.7731 44.6986 20.2828 45.1636 19.9434C45.7061 19.5663 46.3649 19.4531 47.0236 19.3777C48.8062 19.1514 50.5887 19.0383 52.41 19.076C55.4325 20.9994 58.4551 22.9605 61.4776 24.884C63.2214 26.0154 65.0814 27.2599 65.7789 29.1834C66.0114 29.8622 66.1277 30.5788 66.5539 31.1445C66.9414 31.6348 67.4839 31.8988 67.9877 32.2759C68.9952 33.0302 69.7314 34.1239 69.9639 35.3307C70.1964 36.4244 70.0802 37.5936 70.1964 38.725C70.3514 39.8564 70.8939 41.0256 71.9402 41.4781C72.1727 41.0256 72.6765 40.7238 73.1802 40.7238C73.4515 42.5341 73.684 44.3444 73.9552 46.1547C73.994 46.4564 74.0327 46.7581 73.9552 47.0221C73.7615 47.6632 72.9477 47.8895 72.4827 48.3798C71.9402 48.9078 71.824 49.6998 71.6302 50.4163C71.1652 52.4529 70.1189 54.3763 68.7239 55.9226C66.1276 52.5283 62.0588 50.5672 57.9125 49.2849C53.7662 48.0404 49.4649 47.3992 45.3574 46.0415C39.0411 43.9672 33.3447 40.2336 26.9121 38.6119C25.0521 38.1593 22.4171 37.933 21.1383 36.3867C20.2083 35.0667 19.5883 32.3513 20.4796 30.9936Z" fill="#77932A"/>
<path d="M49.0387 27.2217C49.155 27.2217 49.2712 27.1462 49.2325 27.0331C49.2325 26.92 49.1937 26.8445 49.1937 26.7314C49.1937 26.7314 49.2325 26.7314 49.2325 26.7691C50.2787 27.4857 50.8212 28.7302 51.9062 29.4091C51.9837 29.4468 52.0612 29.3714 52.0225 29.2959C51.4025 28.3908 50.705 27.4102 49.9687 26.6183C49.155 25.7885 48.0699 25.336 47.1787 24.6194C45.8224 23.5634 44.9311 22.2434 44.3499 20.7349C44.2336 20.8857 44.0786 21.0366 43.9624 21.1497C43.8849 21.2251 43.8461 21.2629 43.7686 21.3383C44.2336 22.696 45.0862 23.9406 46.1324 24.8457C46.1712 24.8834 46.2487 24.9211 46.2874 24.9965C46.1324 24.9211 45.9774 24.8834 45.8612 24.8457C45.1249 24.544 44.3499 24.1668 43.8849 23.5257C43.4974 22.9977 43.3424 22.3943 42.9936 21.8663C42.9549 21.904 42.8774 21.904 42.8386 21.9417C43.1874 22.6206 43.1486 23.4503 43.5749 24.1291C43.9236 24.6948 44.4661 25.1097 45.0861 25.4491C45.7837 25.8263 46.5587 26.0525 47.2562 26.392C47.7212 26.6182 48.3799 27.2217 49.0387 27.2217Z" fill="#89A035"/>
<path d="M59.9278 28.7679C60.7803 28.4662 61.5553 28.0514 62.2915 27.5234C62.7953 27.1839 63.2216 26.7691 63.6478 26.3542C63.5316 26.2788 63.4541 26.2034 63.3378 26.1279C62.9115 26.3919 62.4465 26.6182 62.0203 26.8822C61.284 27.2971 60.4703 27.7119 59.6565 27.9005C58.8815 28.0891 57.9902 28.0891 57.2152 27.9382C57.7965 27.7874 58.3777 27.6365 58.9202 27.3725C59.6565 27.0331 60.2765 26.5428 60.7415 25.9394C60.974 25.6754 61.284 25.2982 61.4003 24.9211C61.594 25.0342 61.749 25.1097 61.9428 25.1851C61.749 25.072 61.594 24.9588 61.4003 24.8457C61.2065 24.7325 61.0128 24.5817 60.819 24.4685C60.7803 24.544 60.7415 24.6194 60.664 24.7325C60.4703 25.1097 60.199 25.4868 59.889 25.8262C59.269 26.4674 58.5327 26.8822 57.6802 27.1462C57.1377 27.3348 56.5565 27.4857 56.014 27.6365C55.7815 27.5611 55.5877 27.5234 55.3552 27.4857C55.4327 27.2217 55.549 26.9199 55.5877 26.6937C55.9365 25.4114 55.9365 24.1668 55.9365 22.8468C55.9365 22.7714 55.7815 22.7337 55.7815 22.8091C55.5877 24.016 55.0452 25.2605 54.5414 26.3542C54.4252 26.6182 54.3089 26.8822 54.1539 27.1085C53.7664 26.2034 53.1077 25.4491 52.7589 24.544C52.3327 23.4503 52.6427 22.2434 52.4489 21.112C52.3327 20.3577 52.0614 19.6411 51.7126 19C51.6351 19 51.5577 19 51.4414 19C51.7127 19.792 51.9839 20.6217 52.0227 21.4514C52.0614 22.4697 51.8289 23.488 52.0614 24.5062C52.1389 24.808 52.2552 25.1474 52.3714 25.4114C51.9452 24.9211 51.5189 24.4308 51.0539 23.9405C49.6201 22.3943 48.1476 20.8857 46.7138 19.3017C46.6751 19.3017 46.6363 19.3017 46.5588 19.3394C47.7214 20.7348 48.8451 22.168 49.9689 23.6011C50.4726 24.28 51.0151 24.9211 51.5577 25.5622C51.9064 25.9394 52.2164 26.3542 52.5652 26.7314C52.7202 26.9199 53.0302 27.1839 53.2239 27.4102C53.3402 27.6742 53.4177 27.9759 53.4177 28.2776C53.4177 28.3154 53.4177 28.3154 53.4177 28.3531C53.1852 28.6925 52.9527 29.0696 52.7977 29.4468C52.6039 30.0502 53.3789 30.3896 53.8052 30.0125C54.2314 29.6354 54.5802 29.1074 54.8514 28.5416C56.634 29.0319 58.2615 29.3714 59.9278 28.7679Z" fill="#89A035"/>
<path d="M70.1193 36.0467C69.5381 36.009 68.9568 36.0467 68.3368 36.1222C67.7168 36.1976 67.0968 36.3862 66.4768 36.4993C66.128 36.5747 65.7405 36.6502 65.3918 36.5747C65.1593 36.537 64.9655 36.4239 64.6943 36.4239C64.578 36.4239 64.4618 36.537 64.5005 36.6502C64.8493 37.6307 66.3605 37.2159 67.0968 37.0273C68.0656 36.7633 69.1118 36.6502 70.1193 36.5747C70.1581 36.3862 70.1193 36.2353 70.1193 36.0467Z" fill="#89A035"/>
<path d="M58.9205 32.8411C58.7655 33.0296 58.9205 33.2936 59.1531 33.2559C60.0831 33.1051 61.0131 32.6902 61.8656 32.2754C62.2531 32.2754 62.6018 32.3131 62.9893 32.4262C63.8419 32.6525 64.6556 33.0674 65.5081 33.3314C66.3219 33.5576 67.1357 33.5576 67.9882 33.5199C68.4144 33.4822 68.8407 33.5199 69.2282 33.5199C69.0732 33.2559 68.8794 33.0296 68.6469 32.8034C67.5619 32.7656 66.5156 32.8788 65.4694 32.5394C64.5781 32.2754 63.7256 31.8982 62.7568 31.8228C62.8731 31.7474 63.0281 31.7097 63.1443 31.6342C64.0744 31.1817 65.1206 30.5782 66.2056 30.3897C66.1281 30.2388 66.0894 30.0502 66.0506 29.8994C65.1594 29.8994 64.3069 30.1634 63.4544 30.4274C61.9043 30.9931 60.0443 31.6342 58.9205 32.8411Z" fill="#89A035"/>
<path d="M71.2429 49.3975C71.2817 39.4787 62.9891 33.4445 60.5865 31.7474C50.9764 24.9966 37.1812 24.544 27.1449 30.6537C26.0211 31.3325 24.5098 32.3131 22.9211 34.0479C17.5347 39.969 16.2172 50.0387 20.1698 57.4306C25.7498 67.9151 39.7388 68.858 46.5201 69.3105C50.3176 69.5745 53.6889 69.7631 57.6802 68.1791C64.6941 65.426 71.2042 58.1472 71.2429 49.3975Z" fill="#A5D340"/>
<path d="M55.0452 32.2376C59.579 34.0102 63.9191 36.4239 67.4066 39.8181C68.3366 40.7233 69.1891 41.7038 69.9641 42.7221C69.8479 42.3827 69.6929 42.081 69.5379 41.7416C67.8716 39.4787 65.7791 37.5553 63.4153 35.9336C58.9977 32.9165 53.9989 31.1816 48.9614 29.4468C47.4501 28.9188 45.9388 28.4285 44.3888 27.9382C43.6525 27.7119 42.9163 27.4857 42.18 27.2594C41.405 27.0331 40.63 26.7314 39.8163 26.6937C39.4287 26.6937 39.3512 27.1839 39.6225 27.3725C40.6688 28.0514 42.1025 28.2777 43.3038 28.6171C44.6213 28.9942 45.9001 29.3336 47.2176 29.7108C49.8526 30.4651 52.4489 31.2571 55.0452 32.2376Z" fill="#C1E269"/>
<path d="M71.088 51.5849C70.3905 52.3769 68.8792 51.5849 67.9879 51.5472C67.0192 51.4717 66.0117 51.6603 65.0429 51.9243C64.0354 52.1883 63.0666 52.5654 62.0591 52.8671C61.0128 53.2066 60.0053 53.3574 58.9203 53.546C58.6103 53.5837 58.7266 53.9986 58.9978 54.0363C60.1991 54.1117 61.4779 53.6969 62.6016 53.3574C63.7641 53.018 64.8879 52.6031 66.0892 52.4146C66.7092 52.3014 67.3292 52.2637 67.9879 52.3014C68.6467 52.3769 69.2667 52.6409 69.9642 52.7163C70.1967 52.754 70.4292 52.754 70.6617 52.6786C69.4604 54.1494 67.9104 55.394 66.2442 56.2614C65.2366 56.7894 64.1904 57.1665 63.1054 57.3928C62.5629 57.506 61.9816 57.5814 61.4003 57.6191C60.7803 57.6568 60.1603 57.506 59.5403 57.5437C59.1916 57.5437 59.0753 57.9208 59.2691 58.1471C60.0441 59.0522 61.7491 58.7128 62.8341 58.5242C64.1129 58.298 65.3142 57.8454 66.4767 57.2797C67.6779 56.6385 68.7242 55.8465 69.5767 54.866C68.9567 55.8088 68.3754 56.7894 67.6779 57.6945C66.6704 58.9768 65.4692 60.1837 64.1904 61.2397C62.9116 62.2579 61.5554 63.1631 60.0828 63.8419C58.5328 64.5585 56.9828 65.0488 55.6265 66.1802C55.5878 66.2179 55.6265 66.2933 55.704 66.2556C57.1378 65.1996 59.0366 64.8602 60.6641 64.1059C62.1754 63.4271 63.5704 62.5596 64.8491 61.5414C67.2517 59.618 69.7317 56.9025 70.4292 53.8854C70.4292 53.8477 70.4292 53.8477 70.4292 53.81C70.5842 53.5837 70.7392 53.3574 70.8555 53.1311C70.933 52.6031 71.0105 52.1129 71.088 51.5849Z" fill="#C1E269"/>
<path d="M67.9879 47.5118C66.7479 47.0592 65.5079 46.6067 64.2291 46.2295C61.8653 45.5507 59.1915 45.2112 56.7115 45.3621C56.5952 45.3621 56.5565 45.5507 56.6727 45.5507C59.1528 45.9655 61.6715 45.9278 64.0741 46.6821C65.2366 47.0592 66.3991 47.5118 67.5229 47.9644C68.1041 48.1907 68.6854 48.3792 69.2667 48.5301C68.9954 48.4547 68.7241 48.4169 68.4141 48.3415C67.3679 48.1152 66.3216 48.0398 65.2753 48.0021C64.2678 48.0021 63.2603 48.0775 62.2528 48.1907C61.3615 48.3038 60.199 48.4547 59.5403 49.0581C59.4628 49.1335 59.5015 49.3221 59.6178 49.3221C60.4703 49.4729 61.439 49.0581 62.3303 48.9449C63.4928 48.7564 64.6941 48.7187 65.8566 48.7564C66.9804 48.7941 68.1041 48.9827 69.2279 49.1712C69.8866 49.2844 70.5842 49.4352 71.2429 49.2844C71.2429 49.0958 71.2429 48.9449 71.2429 48.7564C71.0879 48.7564 70.9329 48.7564 70.7779 48.7187C69.8479 48.3415 68.9567 47.8889 67.9879 47.5118Z" fill="#C1E269"/>
<path d="M53.2238 40.7232C53.9988 40.9495 54.8126 40.8741 55.6263 40.9872C56.4788 41.1004 57.3701 41.2889 58.2226 41.4775C59.9276 41.8169 61.6327 42.1564 63.2989 42.6466C66.0115 43.4386 68.8403 44.5701 71.0103 46.418C71.0103 46.3426 70.9715 46.2672 70.9715 46.2295C68.9565 44.1929 66.4377 42.8352 63.6477 41.9301C61.9039 41.3644 60.1214 40.9872 58.3001 40.6101C57.3701 40.4215 56.4401 40.2329 55.5101 40.1198C54.6963 40.0067 53.9213 39.9312 53.1851 40.3838C53.0301 40.4592 53.03 40.6855 53.2238 40.7232Z" fill="#C1E269"/>
<path d="M54.5414 67.1608C56.3239 66.8968 58.2614 66.1802 59.0752 64.634C59.3077 64.1814 59.4627 63.6534 59.6952 63.1631C60.0052 62.5597 60.4315 61.994 60.7802 61.3906C61.5552 60.0329 61.8265 58.4866 62.0977 56.978C62.524 54.4889 62.9502 51.8112 61.7877 49.5484C61.4002 48.7941 60.819 48.0775 60.5865 47.2478C60.354 46.3427 60.5477 45.3621 60.509 44.4193C60.509 43.4764 60.1602 42.4204 59.3077 42.0056C58.8815 41.817 58.3777 41.7793 57.9127 41.6661C56.6727 41.3267 55.7427 40.1199 55.8202 38.8753C55.8589 38.385 56.0139 37.8947 55.8977 37.4045C55.7039 36.801 55.0839 36.3862 54.6189 35.9713C52.7589 34.3119 52.2939 31.1816 49.9301 30.3519C48.6126 29.8616 47.1401 30.3142 45.745 30.4651C44.35 30.6159 42.645 30.3142 42.1025 29.0697C41.8312 28.4285 41.9087 27.7119 41.6762 27.0708C41.4825 26.5051 41.0175 26.0525 40.5525 25.6C38.5762 23.6766 35.9799 21.7154 33.2674 22.3943C31.3298 22.8846 30.0511 24.6194 28.9273 26.2411C29.2373 25.6377 28.1523 25.2983 27.4936 25.5245C26.0985 26.0902 25.2073 27.3725 24.3548 28.5794C21.2547 33.1805 18.0772 37.8947 16.6822 43.2124C15.2871 48.5301 15.9072 54.7152 19.7047 58.7883C20.286 59.4294 20.9447 59.9951 21.371 60.7494C22.0685 62.0317 21.9135 63.6157 22.611 64.8602C23.541 66.5574 25.6723 67.1608 27.5711 67.6134C30.5161 68.3299 33.4999 69.0465 36.5612 69.3105C40.32 69.6499 44.2338 69.2728 47.8763 70.4042C50.2788 71.1585 49.5813 71.4602 50.3951 69.6877C51.3251 67.7265 52.3326 67.5002 54.5414 67.1608Z" fill="#8CB72E"/>
<path d="M57.9514 48.4546C55.5101 49.9632 53.3013 51.8112 50.7825 53.2443C49.5038 53.9986 48.1087 54.6397 46.675 55.0923C45.2799 55.5071 43.8462 55.6957 42.4124 55.9974C39.6999 56.5254 37.5299 57.8831 35.2436 59.3917C34.0811 60.146 32.9185 60.9003 31.601 61.3905C30.3223 61.8808 28.966 62.0694 27.6872 62.5974C26.5635 63.0877 25.6335 63.8042 25.1684 64.9734C25.1297 65.0865 25.091 65.2374 25.0522 65.3505C24.3934 64.5962 23.9284 63.7288 23.7734 62.7105C23.7734 62.5974 23.7347 62.5219 23.7347 62.4088C23.9284 62.1071 24.1609 61.8054 24.3934 61.5414C25.2072 60.674 26.176 59.9574 27.1835 59.354C29.6248 57.8454 32.066 56.4123 34.5461 54.9414C36.3673 53.9986 38.3824 53.6214 40.4361 53.6214C42.2187 53.6214 43.8849 53.5837 45.6287 53.1689C47.295 52.7917 48.8837 52.1506 50.3175 51.2832C51.8675 50.3403 53.1851 49.2089 54.8901 48.5301C55.0063 48.4923 55.0063 48.3415 54.8513 48.3415C53.2238 48.4546 51.945 49.7369 50.6663 50.6043C49.0388 51.6603 47.2562 52.4146 45.3575 52.8295C43.4199 53.282 41.4824 53.1689 39.5449 53.282C38.1499 53.3575 36.8711 53.6969 35.6698 54.2626C38.1499 52.754 40.6299 51.2832 43.1099 49.7746C44.4274 48.9826 45.7837 48.1529 47.1012 47.3609C47.7987 46.9461 48.535 46.5312 49.2325 46.0786C49.93 45.6261 50.55 45.0981 51.2475 44.6078V44.5701C50.0075 45.1735 48.8062 45.7015 47.605 46.4181C46.4812 47.0592 45.3575 47.7381 44.2337 48.3792C41.9474 49.6992 39.6224 51.0192 37.3361 52.3392C35.0498 53.6592 32.7635 55.0169 30.4773 56.3369C28.501 57.4683 26.4085 58.5243 24.6259 59.9574C24.2772 60.2214 23.9284 60.5608 23.5797 60.9002C23.6959 58.562 24.6259 56.186 25.6722 54.1872C25.6722 54.1872 25.6722 54.1494 25.711 54.1494C26.3697 53.3952 27.1447 52.7163 27.9585 52.1129C29.6635 50.8683 31.601 49.9255 33.4611 48.9449C37.3748 46.9083 41.0949 44.6832 44.4274 41.817C45.3575 41.025 46.21 40.1575 47.0237 39.2524C47.3725 38.8376 47.76 38.4227 48.07 37.9701C48.4575 37.4421 48.6512 36.8387 48.9612 36.2353C49 36.1599 48.8837 36.1221 48.845 36.1599C48.4962 36.6501 47.9925 36.9896 47.605 37.4798C47.2562 37.9324 46.8687 38.3473 46.52 38.7998C45.7837 39.6295 45.0087 40.3838 44.1562 41.1004C42.4512 42.5712 40.4749 43.8158 38.4986 44.9849C36.5611 46.1164 34.6236 47.1723 32.686 48.2283C30.9035 49.1712 29.0822 50.0763 27.4547 51.2832C29.3147 48.4923 31.5235 45.9278 33.5773 43.2501C33.8486 43.0615 34.0811 42.8352 34.3523 42.609C35.3211 41.7792 36.2898 40.9495 37.2199 40.0821C38.1499 39.2147 39.0799 38.3096 39.9711 37.4044C40.9011 36.4616 41.6762 35.4056 42.5287 34.3873C42.6062 34.2742 42.4899 34.1233 42.3737 34.2364C41.4437 35.1793 40.3974 36.009 39.4674 36.9141C38.5761 37.7816 37.6849 38.6113 36.7548 39.4033C36.3673 39.7427 35.9411 40.1198 35.5536 40.4593C35.6311 40.3084 35.7473 40.1953 35.8248 40.0444C36.6773 38.7244 37.4524 37.3667 38.1111 35.9713C38.7311 34.6513 39.4286 33.2182 39.6224 31.7473C39.6224 31.7096 39.5449 31.6719 39.5061 31.7096C38.8474 33.0673 38.3824 34.4627 37.5686 35.745C36.7548 37.0273 35.8636 38.2718 34.9336 39.4787C33.4223 41.3644 31.7948 43.2124 30.206 45.0981C30.5548 44.3815 30.9423 43.6272 31.291 42.9107C33.0348 39.441 34.3911 35.8959 35.7086 32.2376C35.7473 32.1245 35.5536 32.049 35.5148 32.1999C34.0423 35.7827 32.2598 39.3278 30.4773 42.7598C29.586 44.4192 28.5785 46.0409 27.6485 47.7003C27.0672 48.6809 26.486 49.6238 25.9435 50.642C25.2459 51.698 24.5484 52.7917 24.0059 53.9232C23.1534 55.5826 22.4172 57.4306 22.0684 59.2786C22.0297 58.7506 22.0297 58.2226 22.0684 57.6946C22.1459 55.4694 22.4559 53.2066 22.9984 51.0569C24.0834 46.6444 26.0597 42.5712 28.656 38.7998C30.051 36.7633 31.291 34.8022 32.066 32.4639C32.1048 32.3885 31.9498 32.3507 31.911 32.4262C31.0585 34.6513 29.4697 36.5747 28.036 38.4604C27.571 39.0638 27.1447 39.6673 26.7185 40.2707C27.0285 39.441 27.3385 38.649 27.6485 37.8193C28.191 36.3484 28.6947 34.8776 29.121 33.4067C29.586 31.8605 30.1285 30.3519 30.4385 28.8056C30.4385 28.7679 30.361 28.7302 30.361 28.7679C29.741 30.0879 29.276 31.521 28.7335 32.8787C28.1135 34.3873 27.571 35.8959 26.9897 37.3667C26.4085 38.7998 25.8272 40.2707 25.246 41.7038C24.9359 42.4958 24.5872 43.2501 24.2384 44.0044C24.0447 44.4569 23.8509 44.8718 23.7347 45.3244C21.9522 49.2089 20.9446 53.4329 20.7896 57.6946C20.7896 57.7323 20.7896 57.8077 20.7896 57.8831C20.7896 57.8454 20.7509 57.8077 20.7509 57.77C20.4021 56.7894 20.1696 55.7334 19.9759 54.7152C19.6271 52.49 19.6659 50.1518 20.0534 47.9266C20.4409 45.6261 21.1384 43.3632 22.0297 41.1758C22.9597 38.7998 23.9284 36.3861 25.1297 34.1233C24.0059 36.4616 22.5722 38.649 21.5647 41.0627C20.5959 43.3632 19.7434 45.7769 19.2784 48.2661C18.8909 50.4535 18.7746 52.6409 19.0846 54.8283C19.2396 55.9974 19.5496 57.1288 19.9371 58.2603C20.1696 58.826 20.4409 59.6557 20.8671 60.2214C21.0609 60.4854 21.2547 60.7494 21.4097 61.0134C22.1072 62.2957 21.9522 63.8797 22.6497 65.1242C23.5797 66.8214 25.711 67.4248 27.6097 67.8773C27.9197 67.9528 28.2297 68.0282 28.501 68.1036C28.4622 68.1036 28.4622 68.0659 28.4235 68.0659C30.2835 67.6888 32.1048 67.3116 33.9648 66.9345C36.7548 66.3311 39.5836 65.8408 42.2187 64.7471C44.6987 63.7288 47.1787 62.4842 49.5038 61.1265C51.7513 59.8065 53.9601 58.3734 55.6651 56.4123C55.7038 56.3746 55.6263 56.2991 55.5876 56.3369C53.4951 57.9963 51.2475 59.3917 48.8837 60.5608C46.4812 61.73 44.1174 63.05 41.5987 64.0305C38.9636 65.0488 36.1736 65.5391 33.3836 66.1048C31.3298 66.5196 29.276 66.9345 27.261 67.3871C26.9122 67.1608 26.5635 66.8968 26.2147 66.6705C26.0985 66.5574 25.9435 66.4819 25.8272 66.3688C25.9047 65.7276 26.2147 65.1242 26.641 64.6339C27.4547 63.6911 28.7722 63.3517 29.9348 63.0122C32.376 62.2957 34.3136 61.0888 36.3673 59.6557C37.3748 58.9768 38.3436 58.2603 39.4286 57.6946C40.7074 57.0911 42.0637 56.7517 43.4199 56.4877C46.0162 55.9597 48.4575 55.1677 50.8213 53.9232C53.3788 52.5277 55.8976 50.7929 57.9514 48.7563C58.1064 48.4923 58.0289 48.3792 57.9514 48.4546Z" fill="#ABCC50"/>
<path d="M52.7977 63.5402C45.9001 66.1425 38.4212 69.1219 30.9424 68.4431C32.8024 68.8579 34.7012 69.1974 36.6 69.3859C37.22 69.4236 37.84 69.4614 38.46 69.4991C38.9637 69.4614 39.4287 69.4236 39.9325 69.3482C42.9938 69.0088 45.9776 68.3299 48.6126 66.6705C48.6514 66.6328 48.6126 66.5951 48.5739 66.5951C45.7451 67.9905 42.49 68.5185 39.3512 68.7448C39.3125 68.7448 39.3125 68.7448 39.2737 68.7448C39.545 68.6694 39.855 68.6316 40.1263 68.5562C44.6213 67.5002 48.6901 65.6145 52.7977 63.6534C52.9139 63.6157 52.8752 63.5025 52.7977 63.5402Z" fill="#ABCC50"/>
<path d="M27.3771 27.8628C20.2082 33.8216 17.8832 40.0444 18.077 47.9267C19.6657 38.6113 24.4708 33.2936 27.3771 27.8628Z" fill="#DCF490"/>
<path d="M27.8424 29.9371C25.5949 34.6136 22.9211 40.3839 21.4873 45.5884C24.3936 40.5347 29.4699 31.7851 27.8424 29.9371Z" fill="#DCF490"/>
<path d="M32.1051 24.6571C30.9426 27.8251 30.5938 32.9542 28.9663 36.4993C31.1751 33.0673 34.2364 28.1645 32.1051 24.6571Z" fill="#DAEA81"/>
<path d="M33.8487 28.2022C32.6474 35.1039 26.2923 41.4021 25.3623 48.3792C27.8036 41.7039 35.2437 35.6319 33.8487 28.2022Z" fill="#CFE573"/>
<path d="M38.3825 29.8239C37.1038 22.7714 36.7938 35.6319 35.0112 36.801C36.8325 35.5942 38.3825 32.3885 38.3825 29.8239Z" fill="#BED860"/>
</svg>
