<svg width="90" height="90" viewBox="0 0 90 90" fill="none" xmlns="http://www.w3.org/2000/svg">
<path d="M43.6865 69.9192C38.3663 54.3093 41.3081 51.6066 39.1474 50.7692C37.5826 51.9525 42.1718 75.2048 43.6865 69.9192Z" fill="#50872D"/>
<path d="M36.2445 19.4418C36.4383 19.4386 36.63 19.4802 36.8041 19.5633C36.9781 19.6464 37.1296 19.7685 37.246 19.9198C37.1469 18.4515 37.3701 16.9795 37.9007 15.6023L38.6894 16.5447C39.1015 15.0077 39.6112 13.4972 40.2153 12.0219C40.6835 11.8789 41.0115 12.4656 41.1317 12.9301C41.5489 14.5168 41.9616 16.1059 42.3697 17.6975L43.231 17.4628C43.3083 19.6128 43.2137 21.7654 42.9481 23.9011C43.1747 23.6175 43.6191 23.9903 43.7079 24.3387C43.7968 24.6871 43.9157 25.1577 44.285 25.1577C44.3831 25.1569 44.4791 25.1303 44.5629 25.0807C44.9385 24.8497 46.3756 24.2433 48.6176 23.3571L53.019 19.9687L53.3007 21.1165C53.6259 20.8613 53.9917 20.6598 54.3835 20.52C55.1401 20.2584 55.9601 20.2264 56.7357 20.4283C56.2778 21.7421 55.4998 22.9276 54.4686 23.8827C54.2183 24.1096 53.9541 24.3215 53.6775 24.5172C54.053 24.6687 54.7177 24.9853 54.729 25.4156C54.7176 25.5693 54.6522 25.7144 54.5437 25.8264C52.651 28.3738 49.5364 29.738 47.1242 31.8161C45.5318 33.1864 44.2525 34.8635 42.7816 36.3572C41.3107 37.851 39.5644 39.2017 37.4926 39.6577C37.3186 39.6956 37.1171 39.7225 36.9756 39.6247C36.8707 39.5381 36.7948 39.4226 36.7578 39.2934C35.5736 36.2765 35.1379 32.904 35.1304 29.694C35.1142 28.7674 35.4596 19.4565 36.2445 19.4418Z" fill="#497A29"/>
<path d="M42.8877 52.1187C42.9666 51.5564 42.0114 50.6152 41.7786 52.1359C41.4368 55.204 40.7195 57.9495 39.6442 61.0593C38.3761 65.9061 34.5931 73.0876 36.5347 72.9421C39.8708 65.8523 42.7412 56.5096 42.8877 52.1187Z" fill="#50872D"/>
<path d="M42.0566 22.5833C42.797 22.7495 43.4703 23.1259 43.992 23.6652C43.8867 21.4745 43.9332 19.2794 44.1309 17.0948C44.8442 17.4685 45.4562 18.0028 45.916 18.6534C45.8386 16.6768 46.428 14.7301 47.5935 13.1123C48.4168 14.7786 49.0261 16.5379 49.4074 18.3502L51.2851 18.0654C50.7385 19.6525 50.3822 21.2962 50.2235 22.9635L51.4654 22.9048C51.2342 24.6455 51.0034 26.387 50.7731 28.1293C51.7027 27.7588 52.6096 27.3364 53.4895 26.8642C53.4706 28.5782 53.6262 30.2898 53.954 31.9737C58.0113 32.7455 62.2134 32.2813 65.9915 30.6438C65.8454 31.3699 65.5618 32.0631 65.1553 32.6876C65.6272 32.5238 66.1255 32.9981 66.1643 33.4858C66.2031 33.9736 65.9352 34.4283 65.6635 34.8415C63.6018 38.0417 60.9379 40.9791 57.5042 42.7259C53.6711 44.6756 48.8666 45.1914 46.0675 48.4124C44.5958 43.2695 43.8222 37.9601 43.7666 32.6204C43.7316 29.2613 42.3471 25.9657 42.0566 22.5833Z" fill="#50872D"/>
<path d="M23.0477 39.7237C23.6538 39.7702 24.2381 39.9653 24.7464 40.2909C23.1022 37.9821 21.9616 35.3679 21.3953 32.6106C23.7524 32.5703 25.7253 34.256 27.4378 35.8377C26.3529 33.0841 25.2859 30.3231 24.2369 27.5548C24.0842 27.149 24.0391 26.5317 24.4735 26.4437C24.6248 26.4225 24.779 26.4514 24.9117 26.5256C25.4487 26.8092 26.1497 27.1612 27.016 27.5976C26.5084 25.6747 26.3684 23.6769 26.6029 21.7045L27.8722 22.6188C27.8998 20.989 27.9561 19.364 28.0412 17.7439C28.0575 17.4408 28.1589 17.0472 28.4706 17.0288C28.7084 17.0142 28.8762 17.2464 28.9939 17.4493L31.3335 21.4832C31.7148 21.3105 32.139 21.2489 32.5553 21.306C32.6479 23.2105 32.7401 25.1149 32.832 27.0194L34.5645 25.544C35.3913 28.8526 35.917 32.2261 36.1355 35.625C38.1146 34.586 38.9696 31.8625 41.1666 31.4078C41.1612 34.4263 40.5222 37.4118 39.2889 40.1797L40.7022 40.3911C39.2519 42.9104 37.9594 45.5132 36.8315 48.1851C36.2532 49.5566 35.7186 50.9448 35.2279 52.3498C34.9625 53.1101 34.6145 55.6979 34.0112 56.149C33.5104 56.5279 33.6143 56.2639 33.2713 55.66C32.842 54.9046 32.6792 54.0269 32.2048 53.2812C30.8453 51.1494 28.8098 49.3403 27.2613 47.3245C26.3388 46.1424 25.5022 44.8986 24.7577 43.6024C24.5486 43.2552 23.1416 39.7311 23.0477 39.7237Z" fill="#50872D"/>
<path d="M50.3139 31.3149C48.7949 32.8063 47.3555 34.373 46.0014 36.0089C47.3997 29.419 51.5482 21.1752 47.5336 28.9777C47.8253 26.3104 48.142 22.367 47.4422 19.9026C47.6926 22.9305 47.2933 25.8924 46.8464 29.1073C46.6623 28.6696 43.9221 24.571 45.1852 26.9546C48.7103 31.5508 43.9584 38.3033 42.3986 44.4018C41.5061 47.8404 40.8188 51.8425 40.3582 55.5793C36.7279 43.32 31.2724 42.7112 33.2741 31.4555C33.706 27.9105 31.9071 35.9282 32.2538 36.7032C30.5489 32.4322 29.1994 20.3476 29.1631 24.4023C31.1372 47.2096 42.7904 51.0736 39.5332 63.4662C39.3291 67.2837 38.692 70.3201 39.3642 74.2709C39.5132 75.1266 40.457 75.2488 40.2855 73.6817C40.397 62.8562 41.3195 52.6505 43.8082 42.0609C44.0585 41.4888 44.2914 40.9106 44.5192 40.33C45.0199 37.1432 49.6492 33.8892 50.3139 31.3149Z" fill="#5D933B"/>
<path d="M59.3292 54.3068C62.977 53.9596 66.8114 53.5978 69.8345 51.5735L68.4425 50.8401C69.474 49.8561 70.3375 48.717 71 47.4663C69.4202 47.0113 67.7534 46.9238 66.1329 47.2108L66.407 46.3918L62.3699 48.2425C62.3482 47.9638 62.3265 47.6851 62.3048 47.4064C58.5643 46.6534 54.556 46.9174 51.0997 48.4992C49.231 49.3561 47.5764 50.601 46.2514 52.1468C45.6505 52.8521 43.3258 55.737 44.5238 56.1807C45.0246 56.3677 46.6081 55.7101 47.169 55.6306C48.4558 55.446 49.7552 55.3165 51.0496 55.1686C53.8061 54.8573 56.566 54.57 59.3292 54.3068Z" fill="#4E9123"/>
<path d="M39.3866 51.0088C38.6401 49.7231 38.2192 48.2819 38.1589 46.8051C38.0986 45.3284 38.4006 43.859 39.0398 42.5193C40.0175 44.1659 40.7924 45.9163 41.5697 47.6619C42.0705 48.7767 42.5712 49.9148 42.6876 51.1249C42.8616 52.8717 42.0367 54.9266 42.7928 56.578C42.6363 54.5085 40.4081 52.7324 39.3866 51.0088Z" fill="#4E9123"/>
<path d="M33.9486 59.1597C30.1928 55.9267 25.9713 53.2497 21.4191 51.2142L22.5808 50.8144L19.5889 47.0739C19.2134 46.6057 18.8203 45.9958 19.0882 45.4616C19.4337 44.7709 20.4652 44.9152 21.2163 45.1658L27.9474 47.4333C24.9107 43.9464 22.2276 40.1801 19.9357 36.1873C20.7068 36.2474 21.4704 36.378 22.2165 36.5773L20.0083 30.4959L21.6795 30.9017C21.3842 29.9246 21.1435 28.9326 20.9584 27.9301C20.8908 27.5634 20.8332 27.171 20.9722 26.8226C21.3903 25.786 23.0552 26.0623 23.8326 26.8764C24.61 27.6905 25.0481 28.8432 26.0358 29.4006L26.34 28.5449C26.9854 29.3516 27.4472 30.2834 27.6945 31.2782L28.5708 30.2771C29.5902 31.5273 30.188 33.0553 30.282 34.6508C30.2952 33.7388 30.6304 32.8593 31.2309 32.1608C32.7487 35.3632 34.0309 38.6671 35.0677 42.0475C35.7326 40.1065 36.7114 38.282 37.967 36.6433C40.197 45.2737 40.1539 54.3149 37.8418 62.9247C36.6152 61.6014 35.3156 60.3445 33.9486 59.1597Z" fill="#579E2A"/>
<path d="M40.8689 48.0665C39.6997 43.7393 37.8645 39.6161 36.0369 35.5138C36.8048 35.248 37.6365 35.2122 38.4254 35.4111C39.2142 35.6099 39.9243 36.0343 40.4646 36.6298C39.9012 34.8109 39.3375 32.9924 38.7734 31.1743C38.7079 31.0167 38.6897 30.8441 38.7208 30.6768C38.871 30.1658 39.6772 30.3296 40.0778 30.689C40.4783 31.0484 40.954 31.5374 41.4648 31.3369C41.3787 30.1756 41.463 29.0082 41.7151 27.8702C41.8303 27.3482 42.0319 26.77 42.5276 26.55C43.0896 26.2982 43.7481 26.627 44.1988 27.039C44.7004 27.5084 45.0825 28.0861 45.3144 28.7256C45.5464 29.3652 45.6217 30.0489 45.5345 30.722L46.7988 29.7942L47.9067 41.3128C49.2795 37.0711 50.4662 32.7781 51.4669 28.4337L52.109 29.8896C52.7408 28.2937 53.5479 26.7694 54.5163 25.3435C55.2007 26.6479 55.6793 28.0458 55.9359 29.4899C56.4587 27.2712 57.5147 25.2059 59.0166 23.4647C59.1393 24.1346 59.2645 24.804 59.3922 25.4731C59.7678 24.3937 60.3862 23.4102 61.202 22.5948C62.0178 21.7793 63.0103 21.1527 64.1065 20.7608C64.3989 21.6789 64.533 22.6381 64.5034 23.5992C65.0554 24.8973 64.5722 26.5329 63.398 27.3544C63.847 27.6562 64.3693 27.8375 64.9127 27.88C63.9424 29.778 62.6012 31.4723 60.9645 32.8673C62.2154 33.1145 63.4922 33.2143 64.7675 33.1644C65.3346 33.7756 64.6774 34.7046 64.0402 35.2424C61.3759 37.4822 58.4641 39.4248 55.3588 41.0341C56.5242 41.8592 58.2004 41.2786 59.3033 40.3704C60.4061 39.4621 61.2812 38.2581 62.5781 37.6481L62.553 38.637C63.8223 38.1169 65.1689 37.7991 66.5413 37.6958C66.7368 38.5611 66.6971 39.4614 66.4261 40.3071C66.1551 41.1528 65.6623 41.9146 64.9966 42.5169C65.5682 42.6612 66.1608 42.71 66.7491 42.6611C65.6695 43.7681 64.3733 44.6523 62.9373 45.2611L64.3394 46.5972C60.4587 47.5849 56.513 48.5995 53.1143 50.6751C51.3079 51.7752 50.4454 53.1052 47.3371 55.5536C45.404 57.0781 43.393 58.5061 41.3121 59.832C41.7509 58.4018 42.0032 56.9233 42.0632 55.4314C42.162 52.8864 41.6613 50.999 40.8689 48.0665Z" fill="#579E2A"/>
<path d="M58.0187 51.5674C59.3043 50.8988 60.6951 50.2375 62.1434 50.3768C62.3103 50.8164 62.3687 51.2882 62.3139 51.754C62.2591 52.2197 62.0926 52.6663 61.828 53.0575C63.211 52.6966 64.6364 52.5138 66.0679 52.5135L65.4282 53.7078L68.4902 54.2934C68.561 54.6146 68.7195 54.9112 68.9489 55.1516C69.1783 55.392 69.4701 55.5672 69.7933 55.6588C69.3331 55.8063 68.9223 56.0728 68.6045 56.4298C68.2868 56.7868 68.0738 57.2211 67.9882 57.6867C66.9262 58.2936 65.6925 58.5507 64.4693 58.4201C64.7522 58.7461 65.0343 59.0721 65.3156 59.3981C62.9241 59.6315 60.5125 59.5839 58.1326 59.2563C58.9312 60.3104 59.9043 61.2272 61.0118 61.9687C59.0865 63.1672 56.7605 63.5905 54.5223 63.1496C52.7623 62.7951 51.1512 61.9186 49.3999 61.5213C46.2215 60.8001 44.0884 62.0824 41.3193 63.1838C42.0279 61.0275 45.2 59.299 46.9801 58.106C50.5306 55.7252 54.216 53.5422 58.0187 51.5674Z" fill="#579E2A"/>
<path d="M58.3779 30.3272C56.5678 33.0397 54.8102 35.8439 53.0489 38.8253C53.2242 37.4586 53.7211 34.4247 53.2379 33.2646C52.8974 35.3671 53.0201 37.9488 52.0712 40.2322C52.0487 40.3643 52.0337 40.2139 51.946 40.6601C50.0545 43.8199 48.0028 47.2805 46.0274 50.6299C46.6333 45.9286 44.1071 37.5344 43.2734 34.861C47.949 58.6475 43.694 49.1386 38.5578 65.433C35.651 52.0613 35.1578 55.2603 37.2884 44.2955C36.2369 46.7867 35.3844 50.5883 35.2292 53.7506C33.1111 48.6166 30.6788 43.2088 31.1445 37.3633C30.6124 39.0893 30.7526 41.5194 30.9604 43.5901C27.8146 37.7031 28.1363 38.3559 27.538 33.5189C27.4061 34.8298 27.4321 36.1512 27.6156 37.4562C22.3579 29.2271 27.3502 37.7471 27.404 37.8498C27.379 37.4379 22.3642 34.2413 23.7737 35.4502C27.4929 37.5576 29.1566 40.9424 30.7389 44.8969C30.5874 44.2246 23.9965 39.2494 25.5012 40.6943C30.7501 44.0742 32.8645 49.3733 34.6721 55.1588C31.0418 50.2693 21.3464 48.3599 25.1044 49.707C38.733 54.1076 38.1822 66.395 37.3936 76.2243C37.654 81.1603 39.1975 74.4005 38.7906 72.8761C38.0132 63.2193 44.8795 58.4275 53.3193 60.0741C53.1524 59.5655 52.9855 59.057 52.8186 58.5485C55.0853 58.5459 57.3473 58.3479 59.5784 57.9569C59.3053 57.2073 58.8499 56.5337 58.2514 55.994C57.6528 55.4542 56.929 55.0644 56.1422 54.8581C57.2425 52.6884 59.437 51.3816 61.7503 50.3683C53.651 52.505 41.6961 61.3148 40.0612 63.9136C46.8211 46.9053 50.2886 50.4025 61.8167 43.5095C56.902 45.1475 51.6418 47.7157 47.0163 50.4233C50.3324 44.9519 52.4305 38.0698 59.1215 35.2999C57.777 35.3305 55.6377 36.8988 54.0741 38.038C55.3598 35.6764 57.4378 32.7683 58.3779 30.3272Z" fill="#6AAF3E"/>
</svg>
