<svg width="90" height="90" viewBox="0 0 90 90" fill="none" xmlns="http://www.w3.org/2000/svg">
<path d="M46.6051 42.524C45.1743 47.1311 43.7434 51.7852 43.2188 56.5804C42.3126 57.3796 41.2157 57.9907 40.1187 58.5078C39.5464 58.7899 38.9264 58.9779 38.3064 59.166C38.1633 59.213 38.0202 59.213 37.9248 59.26C37.8771 59.213 37.8294 59.213 37.7817 59.213C37.6863 59.213 37.5909 59.26 37.4956 59.26C37.4002 59.213 37.2571 59.26 37.2571 59.401C37.2571 59.4481 37.2571 59.4951 37.2571 59.4951C37.0186 59.8712 37.0663 60.5763 36.9232 60.9524C36.7325 61.4225 37.4002 61.7516 37.6386 61.2815C37.7817 60.9524 37.8771 60.6233 37.9725 60.2943C38.0202 60.1532 38.0679 59.9652 38.0679 59.7771C38.0679 59.7301 38.0679 59.6831 38.0679 59.6361C38.7356 59.5891 39.5464 59.26 39.9756 59.119C41.0249 58.7899 42.1696 58.3198 43.1234 57.7086C43.1234 57.8027 43.1234 57.8497 43.1234 57.9437C43.1711 57.8497 43.1711 57.7557 43.2188 57.6616C43.4096 57.5206 43.6004 57.3796 43.7434 57.2385C44.0296 57.0035 43.8865 56.5804 43.6004 56.4864C44.8881 52.5374 45.9374 48.4945 46.6051 44.4045C47.7497 46.9901 49.9913 49.0586 52.6622 50.0458C50.659 47.5072 48.6559 45.0156 46.6051 42.524Z" fill="#5B4122"/>
<path d="M56.0008 52.8664C54.4269 50.0928 52.853 47.2721 51.2791 44.4985C49.2283 40.8786 46.8436 37.9169 44.2204 34.6731C44.1727 34.6261 44.1727 34.6261 44.125 34.5791C44.0773 34.6731 44.0773 34.7671 44.0296 34.8612C43.982 34.8142 43.9343 34.7671 43.8389 34.7201C39.308 42.43 33.9663 49.5286 29.0061 57.0034C27.2414 56.3453 25.8106 56.6743 23.9029 56.9564C23.5213 57.7556 25.7629 57.6616 26.7645 57.8496C27.6707 57.9907 28.6245 57.9907 29.5307 57.7086C29.5307 57.7556 29.483 57.7556 29.483 57.8026C29.483 57.7556 29.5307 57.7556 29.5307 57.7086C29.5784 57.7086 38.7833 45.5327 43.3619 39.5153C43.8866 38.8101 44.4589 38.0579 44.6497 37.1647V37.1177C44.6497 37.1647 50.5637 47.2721 53.5207 52.3023C54.5223 53.9947 55.6669 55.8281 57.527 56.5333C57.2885 55.17 56.6208 54.0417 56.0008 52.8664Z" fill="#5B4122"/>
<path d="M78.4169 65.2774C77.9876 64.9483 77.463 64.8543 76.986 64.6192C76.6045 64.4312 76.2229 64.1961 75.8891 63.9611C76.0799 63.8671 76.0322 63.491 75.746 63.444C73.0275 63.2559 70.2135 63.1619 67.5427 63.679C66.398 62.7858 65.3011 61.8456 64.2518 60.8583C63.4887 60.8583 62.6779 60.8583 61.9148 60.8583C62.6302 61.4225 63.3933 61.8926 64.1564 62.4097C65.3011 63.1149 66.398 63.9611 67.7334 64.3372C68.0196 64.4312 68.115 64.0551 67.9242 63.9141C67.8765 63.8671 67.8288 63.8671 67.8288 63.82C70.3566 63.9141 72.8844 63.82 75.4121 63.9611C75.8414 64.4312 76.2706 64.7603 76.7953 65.0894C77.2245 65.3714 77.8445 65.7005 78.3692 65.7005C78.4169 65.7005 78.6076 65.4654 78.4169 65.2774Z" fill="#5B4122"/>
<path d="M68.7827 59.8241C67.6857 61.7045 65.0148 61.9866 62.8209 61.7515C59.1962 61.3284 55.4284 59.8241 53.4729 56.7684C52.4714 55.217 51.9944 53.3836 51.279 51.6912C49.7528 48.1183 47.082 45.0156 43.7434 43.0411C51.3744 44.8275 58.6716 48.0243 65.1102 52.3963C66.398 53.2425 67.638 54.1827 68.4488 55.4991C69.2596 56.7684 69.5458 58.5078 68.7827 59.8241Z" fill="#B28C56"/>
<path d="M51.279 51.6912C51.9944 53.3836 52.4714 55.217 53.4729 56.7684C53.5206 56.8624 53.5683 56.9094 53.6637 57.0034C53.9022 57.0034 54.1407 56.9564 54.3791 56.9564C53.9499 55.5461 54.0453 53.9007 54.9038 52.6784C52.996 49.9988 51.0882 47.1781 49.0374 44.4985C47.2727 43.9343 45.5081 43.4172 43.7434 42.9941C47.082 45.0156 49.7528 48.1183 51.279 51.6912Z" fill="#5B4122"/>
<path d="M53.4254 56.7214C53.7115 56.8154 53.95 56.9094 54.2362 57.0975C55.19 53.7127 57.9563 51.3151 61.2948 50.0458C60.341 49.4817 59.3394 48.9646 58.3378 48.4474C57.2409 49.1996 56.1916 49.9518 55.2854 50.892C54.0454 52.1613 53.0438 53.7127 52.71 55.4051C52.9007 55.8282 53.1392 56.2983 53.4254 56.7214Z" fill="#5B4122"/>
<path d="M64.3951 55.217C64.5858 56.9564 63.2504 58.5548 61.4857 58.6958C59.7211 58.8839 58.0995 57.5676 57.9564 55.8282C57.7656 54.0887 59.101 52.4904 60.8657 52.3493C62.6304 52.1613 64.2043 53.4306 64.3951 55.217Z" fill="white"/>
<path d="M63.7272 55.264C63.8703 56.6744 62.821 57.8967 61.3902 58.0377C59.9594 58.1787 58.7194 57.1445 58.5763 55.7342C58.4332 54.3238 59.4825 53.1015 60.9133 52.9605C62.3441 52.8665 63.5841 53.9007 63.7272 55.264Z" fill="#5B4122"/>
<path d="M60.5317 54.4648C60.5794 55.029 60.1501 55.5461 59.5778 55.6401C59.0055 55.6871 58.4808 55.264 58.3855 54.6999C58.3378 54.1358 58.767 53.6186 59.3393 53.5246C59.9593 53.4776 60.484 53.9007 60.5317 54.4648Z" fill="white"/>
<path d="M57.3838 57.5206C57.3838 58.0847 56.9545 58.5078 56.3822 58.5078C55.8099 58.5078 55.3806 58.0847 55.3806 57.5206C55.3806 56.9564 55.8099 56.5333 56.3822 56.5333C56.9068 56.5333 57.3838 56.9564 57.3838 57.5206Z" fill="#EC9368"/>
<path d="M23.6166 19.0184C35.1585 16.9499 47.0819 19.6766 56.1438 27.1044C60.3408 30.5362 63.9655 34.9552 66.0164 39.9854C67.0179 42.477 67.5426 45.1096 67.4949 47.7893C67.4472 50.751 66.4456 53.1485 65.301 55.8282C65.2533 55.9222 65.444 56.0162 65.4917 55.9692C68.9257 51.9732 68.4488 45.3447 66.8749 40.7376C65.1102 35.5193 61.3424 30.9593 57.193 27.3864C48.0835 19.4885 35.4446 16.2448 23.6166 18.9244C23.5689 18.9244 23.5689 19.0184 23.6166 19.0184Z" fill="#B28C56"/>
<path d="M67.638 56.4393C71.2628 51.7852 70.9289 45.5797 68.5442 40.4085C65.9688 34.8612 60.9132 30.5362 55.7623 27.3864C44.4111 20.3818 29.1491 18.7834 16.9395 24.6128C16.8441 24.6598 16.8918 24.8478 17.0349 24.8008C23.1874 22.7323 29.5784 21.6041 36.1124 21.9801C42.4557 22.3562 48.6082 24.3307 54.1407 27.3864C63.9656 32.8397 74.4106 44.8276 67.4473 56.3453C67.3519 56.4863 67.5426 56.5804 67.638 56.4393Z" fill="#B28C56"/>
<path d="M66.3502 60.6703C65.8256 60.2942 65.3486 59.8241 65.0625 59.26C64.8717 58.9309 64.3948 59.213 64.5378 59.542C64.824 60.2002 65.2533 60.7643 65.8733 61.1874C66.0164 61.2814 66.2071 61.3755 66.3979 61.5165C66.7318 61.4225 67.0656 61.2814 67.3518 61.1404C67.0179 60.9994 66.6364 60.8583 66.3502 60.6703Z" fill="#5B4122"/>
<path d="M22.615 46.3789C18.8949 45.0626 15.3179 43.2292 12.0747 40.9726C11.5501 42.1949 12.0747 43.6052 12.7424 44.7335C15.5563 49.6697 20.8504 52.6314 26.049 55.029C28.9106 56.3453 31.7722 57.5205 34.8246 58.2727C41.6449 59.8711 48.7989 58.9309 55.7622 58.0377C55.1899 57.2385 54.9037 55.9692 54.3314 55.17C45.2696 56.6743 35.6354 54.0417 28.6244 48.2123C27.8137 47.5542 27.0029 46.802 25.9536 46.661C25.1428 46.5199 24.2843 46.802 23.4735 46.943C22.7104 47.0371 23.1397 46.9901 22.615 46.3789Z" fill="#B28C56"/>
<path d="M42.3128 54.7469C41.4066 56.0162 40.6912 57.4735 40.405 59.0249C40.6435 59.0249 40.8343 59.0719 41.0727 59.0719C41.3112 57.5675 41.7882 56.1572 42.6943 54.8409C42.5513 54.7939 42.4559 54.7939 42.3128 54.7469Z" fill="#5B4122"/>
<path d="M47.5592 55.4991C47.2254 56.6274 46.9869 57.8026 46.9392 59.0249C47.13 59.0249 47.3208 58.9779 47.5115 58.9779C47.5115 57.8496 47.6546 56.6744 47.9885 55.5461C47.8454 55.4991 47.7023 55.4991 47.5592 55.4991Z" fill="#5B4122"/>
<path d="M37.9728 53.5247C37.8774 53.4776 37.7821 53.4776 37.7344 53.4306C36.4466 54.6999 35.3497 56.4393 34.7773 58.2728C34.825 58.2728 34.825 58.2728 34.8727 58.2728C35.0158 58.3198 35.1112 58.3198 35.2543 58.3668C35.4451 57.8027 35.6358 57.2385 35.922 56.6744C36.4466 55.4991 37.2097 54.5119 37.9728 53.5247Z" fill="#5B4122"/>
<path d="M44.8404 55.217C44.7927 55.217 44.6973 55.217 44.6496 55.17C44.1727 56.3923 43.7911 57.7556 43.7434 59.1189C43.9342 59.1189 44.125 59.1189 44.3157 59.1189C44.3157 58.8369 44.3157 58.5548 44.3157 58.2727C44.4111 57.2385 44.5542 56.2042 44.8404 55.217Z" fill="#5B4122"/>
<path d="M33.0126 57.7556C33.2511 57.0975 33.4895 56.4863 33.8234 55.8752C34.4434 54.6999 35.3019 53.7597 36.1604 52.7724C36.065 52.7254 35.9696 52.6784 35.8742 52.6314C34.4434 53.8067 33.2034 55.6871 32.5356 57.5676C32.6787 57.6616 32.8218 57.7086 33.0126 57.7556Z" fill="#5B4122"/>
<path d="M40.4048 54.2768C40.3094 54.2297 40.214 54.2298 40.071 54.1827C38.974 55.452 38.1155 57.0974 37.8293 58.7898C38.0201 58.8368 38.2109 58.8368 38.4017 58.8368C38.7355 57.2385 39.3555 55.7341 40.4048 54.2768Z" fill="#5B4122"/>
<path d="M72.0735 71.5769C71.835 71.3889 71.5489 71.2948 71.2627 71.1538C71.0719 71.0128 70.8812 70.9188 70.6904 70.7777C70.3565 70.5427 70.0704 70.3076 69.6888 70.1196C69.7365 69.9315 69.6411 69.7435 69.4026 69.7435H69.355C69.355 69.7435 69.355 69.7435 69.3073 69.7435C66.5887 69.5554 63.7748 69.4614 61.1039 69.9785C57.3838 67.1579 54.4268 63.397 50.4205 60.8584C51.0882 60.4823 51.6129 59.9652 52.1375 59.401C52.519 59.0249 52.8529 58.6018 53.2345 58.2257C53.5206 57.8967 53.9499 57.7086 54.1883 57.3325C54.2837 57.1915 54.1406 57.0035 53.9976 57.0035C53.8545 57.0035 53.7591 57.0505 53.616 57.0505C53.6637 56.8154 53.3775 56.6274 53.1391 56.7214C52.2806 57.0975 51.7083 58.0377 51.0882 58.6959C50.4682 59.307 49.7051 59.7771 49.2759 60.5763C49.1328 60.7643 49.1328 61.0464 49.419 61.1874C49.419 61.1874 49.4666 61.1874 49.4666 61.2345C49.6097 61.9866 50.1344 62.4567 50.7544 62.9269C51.899 63.8671 52.9006 64.9483 54.0452 65.8886C55.1899 66.9228 56.4299 67.769 57.7177 68.6152C58.7669 69.2734 59.7685 70.0255 60.9608 70.4486C61.0085 70.5427 61.1039 70.5897 61.1993 70.5897C63.8225 70.5897 66.4456 70.5427 69.0211 70.3076C69.4027 70.7307 69.7842 71.0598 70.3088 71.3418C70.595 71.4829 70.8812 71.6709 71.215 71.812C71.3581 71.906 71.4535 71.953 71.5966 72C71.6919 72 71.7873 72 71.835 71.953C71.835 71.953 71.835 71.953 71.8827 71.953C72.0735 72 72.2643 71.7179 72.0735 71.5769Z" fill="#5B4122"/>
<path d="M53.4254 52.6784C52.5669 53.9007 52.4715 55.5461 52.9007 56.9564C44.2204 57.5206 35.2063 55.8752 28.0522 50.986C20.8982 46.0968 15.938 37.7759 16.415 29.2198C20.5166 29.5489 23.4259 30.3011 26.9553 30.8182C32.7739 31.6644 38.0679 34.8142 42.4081 38.7631C46.7482 42.712 49.9914 47.9303 53.4254 52.6784Z" fill="#B28C56"/>
<path d="M23.0924 38.9041C21.5662 36.4595 19.3723 34.626 16.7014 33.6858C16.7014 33.7798 16.7491 33.8739 16.7491 33.9209C19.2292 35.0021 21.3277 36.7886 22.7108 39.1391C22.8539 39.4212 23.2355 39.1861 23.0924 38.9041Z" fill="#3A2611"/>
<path d="M46.1761 49.9517C46.2715 49.8107 46.033 49.6696 45.9853 49.8107C45.1268 49.2936 44.2683 48.7764 43.4098 48.2593C43.8391 47.8832 44.2683 47.4601 44.6499 46.943C45.1268 47.131 46.1761 46.849 46.4622 46.7549C47.2253 46.5669 47.9407 46.0498 48.1792 45.2976C48.1315 45.2506 48.0838 45.2036 48.0361 45.1096H47.9884C47.2253 45.5797 45.9376 46.802 44.9837 46.4259C45.6514 45.4856 46.2238 44.4514 46.6053 43.3231C46.4622 43.1351 46.2715 42.947 46.1284 42.759C46.0807 42.9 46.0807 42.9941 46.033 43.1351C45.6991 44.2163 45.1745 45.2036 44.6022 46.1438C44.5068 46.0498 44.4591 45.9558 44.4114 45.8147C43.6006 44.1693 43.4098 42.2889 43.696 40.5025C43.696 40.4084 43.6006 40.3614 43.5529 40.4555C43.076 42.571 43.3144 44.6394 44.316 46.5669C43.9822 47.084 43.5529 47.6012 43.1714 48.0713C41.9313 47.3191 40.739 46.5669 39.4989 45.7677C39.642 45.2506 39.7851 44.7805 39.8805 44.2634C39.9282 44.2634 40.0236 44.1693 39.9759 44.1223C39.9759 44.0753 39.9282 44.0753 39.9282 44.0283C39.9282 43.9343 39.9759 43.7932 39.9759 43.6992C41.359 42.665 42.2175 40.8315 42.599 38.9511C42.5037 38.8571 42.4083 38.7631 42.2652 38.669C42.2175 38.622 42.1698 38.575 42.1221 38.575C42.0744 38.8571 41.979 39.0921 41.8836 39.3742C41.4544 40.6435 40.6913 41.6777 40.0236 42.806C40.3097 40.6905 40.1667 38.622 39.6897 36.5535C39.5466 36.4595 39.4036 36.3185 39.2605 36.2245C39.7851 38.528 39.8328 40.9256 39.4512 43.2761C39.0697 42.3829 38.8312 41.4897 38.5451 40.5495C38.2589 39.4212 38.2589 38.2929 37.9727 37.2117C37.925 37.0707 37.7343 37.0707 37.6866 37.2117C37.305 39.3742 38.2589 41.8658 39.3559 43.7932C39.2605 44.4044 39.1174 45.0155 38.9266 45.5797C37.4004 44.5924 34.2049 42.5239 34.1095 42.4299C34.5388 41.9128 34.5388 40.5025 34.6342 39.8443C34.7773 38.8571 34.7773 37.8228 34.7296 36.8356C35.2542 35.9894 35.6834 35.0022 35.8742 33.9679C35.6834 33.8739 35.5404 33.7799 35.3496 33.6859C35.3019 34.0149 35.2542 34.391 35.1588 34.7201C35.0634 35.1902 34.8726 35.6133 34.6342 35.9894C34.6342 35.8014 34.5865 35.6603 34.5865 35.4723C34.4911 34.6261 34.3003 33.8269 34.1095 33.0277C33.728 32.8397 33.3941 32.6986 33.0126 32.5106C33.3941 33.6859 33.6326 34.9081 33.7757 36.1774C33.4418 35.9424 33.108 35.5663 33.0126 35.5193C31.8202 34.438 30.9618 33.0747 30.4848 31.5704C30.4371 31.5704 30.3417 31.5233 30.294 31.5233C30.8187 33.6388 32.0587 35.4253 33.8234 36.6946C33.9188 38.1519 33.8711 39.6563 33.6803 41.1606C33.6326 41.4427 33.5372 41.6777 33.3464 41.8658C32.1541 41.0666 31.0094 40.2674 29.8171 39.4682C29.7694 39.1391 29.7217 38.8101 29.6263 38.434C29.8171 38.34 28.7201 36.0834 28.2432 35.2842C28.9109 34.0619 29.2448 32.6046 29.1017 31.1943C28.9109 31.1473 28.7201 31.1002 28.5294 31.0532C28.7678 32.3695 28.7201 33.6859 28.1478 35.0962C28.0524 34.9552 28.0047 34.8141 27.957 34.7201C27.0986 33.1687 25.9539 31.7114 24.7139 30.4421C24.6185 30.4421 24.4754 30.3951 24.38 30.3951C25.5247 31.6644 26.5262 33.0747 27.3847 34.5791C27.9093 35.5193 28.3386 36.4595 28.7201 37.4467C28.8155 37.7288 28.9109 37.9639 29.0063 38.2459C28.7678 38.34 28.5771 38.387 28.3386 38.481C24.4754 35.7543 20.7076 32.9807 16.8921 30.207C16.8444 30.16 16.749 30.254 16.7967 30.301C20.2306 33.2157 23.8554 36.0364 27.5755 38.669C24.3323 39.5622 21.0414 39.6093 17.7506 38.1989C17.7983 38.2929 17.846 38.387 17.846 38.528C20.9937 39.9383 24.9046 40.3614 28.2432 39.1862C29.7694 40.2674 31.3433 41.3487 32.8695 42.3829C32.2972 42.712 31.4864 42.9 30.8664 43.1351C29.7217 43.5112 28.5294 43.7932 27.337 44.0283C24.9523 44.4044 22.3769 44.1693 20.183 43.1821C20.2306 43.2761 20.326 43.3701 20.3737 43.5112C22.4246 44.5454 24.5708 44.8275 26.9078 44.6394C28.1478 44.5454 29.3402 44.2634 30.5325 43.9343C31.2002 43.7462 31.8679 43.5112 32.488 43.2761C32.7741 43.1821 33.2034 43.0881 33.5849 42.9C35.8742 44.4514 38.2112 45.9087 40.5959 47.3661C40.5959 47.4601 40.5959 47.6011 40.5482 47.6952C39.9282 48.0713 39.3082 48.4474 38.6405 48.7764C33.8234 47.4131 28.9109 46.896 23.9031 47.3661C23.8554 47.3661 23.8554 47.4601 23.9031 47.4601C28.6724 47.2721 33.4895 47.7422 38.1158 49.0585C36.5896 49.7637 35.0157 50.3278 33.3941 50.7509C31.6772 51.174 30.0079 51.268 28.2909 51.362C28.6248 51.5971 29.0063 51.8322 29.3402 52.0202C30.6279 51.8792 31.8679 51.6441 33.0126 51.362C34.968 50.9389 36.8281 50.1397 38.5451 49.1995C38.6881 49.2465 38.7835 49.2936 38.9266 49.2936C39.1651 49.3876 39.3082 48.9645 39.022 48.9175C39.4989 48.6354 39.9759 48.3533 40.4051 48.0242C39.9759 50.8919 38.2589 53.4775 35.6357 54.9349C35.7788 55.0289 35.9696 55.0759 36.1127 55.1229C38.7835 53.5716 40.4051 50.9389 40.5959 47.9302C40.6436 47.8832 40.6436 47.8362 40.5959 47.7892C40.5959 47.6952 40.5959 47.6011 40.5959 47.5071C42.5037 48.4003 44.0775 49.3406 45.6991 50.2808C44.936 51.4561 44.0299 52.4433 42.9806 53.3835C41.7882 54.4648 40.4051 55.0289 39.0697 55.7811C39.2128 55.8281 39.3559 55.8281 39.4512 55.8751C41.4067 55.311 43.1714 53.9477 44.5068 52.3023C44.6499 53.8066 44.7453 55.311 45.0314 56.7683C45.1268 56.7683 45.2222 56.7683 45.3176 56.8153C45.2699 55.217 44.9837 53.6656 44.793 52.1142C44.793 52.0672 44.7453 52.0672 44.7453 52.0202C45.1745 51.5031 45.5561 50.9389 45.8899 50.3748C48.1792 51.6911 50.4208 53.0074 52.7101 54.2767C52.7578 54.0887 52.7578 53.9477 52.8055 53.8066C50.6116 52.5843 48.4177 51.315 46.1761 49.9517ZM29.1017 38.9041C29.1971 38.8571 29.2448 38.8571 29.3402 38.8101C29.3879 38.9041 29.3879 39.0451 29.4355 39.1391C29.3402 39.0451 29.1971 38.9511 29.1017 38.9041Z" fill="#3A2611"/>
<path d="M44.4112 51.3621C42.6465 55.4991 40.9295 59.6831 40.0233 64.1021C39.0695 64.7603 38.0679 65.2304 36.9709 65.6065C36.3986 65.7945 35.8263 65.9356 35.254 66.0766C35.1109 66.1236 35.0155 66.1236 34.8724 66.1236C34.8247 66.0766 34.777 66.0766 34.7293 66.0766C34.6339 66.0766 34.5385 66.0766 34.4432 66.1236C34.3478 66.0766 34.2047 66.1236 34.2047 66.2176C34.2047 66.2647 34.2047 66.2647 34.2047 66.3117C33.9662 66.6407 33.9662 67.2989 33.7754 67.628C33.5847 68.0511 34.157 68.4272 34.4432 68.0041C34.6339 67.722 34.7293 67.4399 34.8724 67.1109C34.9201 66.9698 34.9678 66.8288 35.0155 66.6407C35.0155 66.5937 35.0155 66.5467 35.0632 66.4997C35.6832 66.4997 36.4463 66.2647 36.8755 66.1706C38.7356 65.7005 40.3572 64.8543 40.5003 64.7603C40.7864 64.5723 40.691 64.1492 40.4526 64.0551C42.0265 60.5293 43.3142 56.8624 44.3158 53.1015C45.1266 55.5931 47.0343 57.7086 49.419 58.8839C47.7497 56.3453 46.0804 53.8537 44.4112 51.3621Z" fill="#5B4122"/>
<path d="M41.7403 55.8282C39.928 53.2896 38.0679 50.751 36.2556 48.2124C33.8709 44.9216 31.2477 42.289 28.3384 39.4213C28.2907 39.3743 28.2907 39.3743 28.243 39.3273C28.1953 39.4213 28.1953 39.5153 28.1953 39.5623C28.1476 39.5153 28.0999 39.4683 28.0045 39.4683C24.4275 47.4602 19.992 54.888 15.9857 62.6448C14.1733 62.1747 12.8379 62.5978 11.0255 63.0679C10.7394 63.9141 12.9333 63.538 13.8872 63.632C14.7933 63.6791 15.7472 63.585 16.558 63.2089C16.558 63.2559 16.5103 63.2559 16.5103 63.303C16.5103 63.2559 16.558 63.2559 16.558 63.2089C16.6057 63.1619 24.2367 50.4219 28.0522 44.0754C28.4815 43.3232 28.9584 42.524 29.0538 41.6778V41.6308C29.1015 41.6778 35.874 50.892 39.2603 55.4521C40.4049 57.0035 41.6926 58.6489 43.6004 59.119C43.2665 57.9437 42.5034 56.8624 41.7403 55.8282Z" fill="#5B4122"/>
</svg>
