<svg width="90" height="90" viewBox="0 0 90 90" fill="none" xmlns="http://www.w3.org/2000/svg">
<path d="M45.662 61.2172C46.4866 61.3647 47.4573 61.3151 48.3312 61.1175C48.6225 61.0681 48.6719 60.723 48.5267 60.5751C49.3553 59.0957 50.2814 57.4191 50.8192 55.792C51.1586 55.8904 51.4983 55.8903 51.7893 55.9395C52.8567 56.0377 53.9241 56.0865 54.9921 55.9382C55.3319 55.8888 58.3903 55.3452 57.5676 54.4581C57.7623 54.2115 57.6661 53.8665 57.375 53.8173C56.0168 53.6206 54.6572 53.9663 53.298 54.164C52.6669 54.2629 51.9873 54.3618 51.3078 54.4113C50.8226 54.4115 50.3858 54.4117 49.9486 54.6091C49.7543 54.7078 49.6566 54.9543 49.7532 55.1515C49.3139 56.187 49.0201 57.2717 48.6778 58.3072C48.4335 58.9975 48.092 59.7372 47.9446 60.4767C47.1681 60.5264 46.3909 60.8225 45.7111 61.02C45.5168 61.0693 45.565 61.2172 45.662 61.2172Z" fill="#540200"/>
<path d="M62.6544 61.8563C63.4311 61.5603 64.257 61.0179 64.889 60.4264C65.132 60.2292 64.9873 59.8843 64.7934 59.8351C64.7977 58.1104 64.7538 56.2379 64.4184 54.5627C64.7581 54.464 65.0495 54.316 65.3409 54.1681C66.312 53.7242 67.2833 53.1818 68.1094 52.5409C68.3524 52.3437 70.7825 50.3224 69.6193 49.9779C69.6685 49.6822 69.4266 49.436 69.1354 49.5346C67.873 50.0772 66.852 51.0631 65.7828 51.9505C65.2483 52.3449 64.7622 52.7886 64.1793 53.183C63.7906 53.4296 63.3536 53.6269 63.11 54.0704C62.9641 54.2676 63.0119 54.514 63.2057 54.6124C63.3486 55.6965 63.6368 56.8297 63.8767 57.8644C64.0204 58.6035 64.1155 59.3919 64.3078 60.0817C63.6762 60.5254 63.1411 61.1662 62.6063 61.7084C62.509 61.807 62.6058 61.9055 62.6544 61.8563Z" fill="#540200"/>
<path d="M39.2729 49.925C39.1765 49.6785 38.9339 49.6293 38.6912 49.6787C37.7197 50.0242 36.9414 50.7641 36.0184 51.159C34.9983 51.5538 33.9784 51.8993 32.9101 52.1463C31.9389 52.3932 30.9674 52.788 29.9965 52.887C29.948 52.887 29.9481 52.8377 29.8996 52.8377C29.8027 52.7885 29.7055 52.8378 29.6568 52.8871C29.5112 52.8872 29.5108 53.0844 29.6563 53.0844C29.6563 53.0844 29.6563 53.0844 29.7047 53.1336C29.7532 53.1829 29.85 53.2815 29.8984 53.3308C28.5392 53.4792 27.2281 53.8249 25.8207 53.8254C25.481 53.8256 25.2859 54.2201 25.3337 54.5159C24.7013 55.1571 24.0203 55.7984 23.4848 56.4889C23.1927 56.8341 22.9978 57.1794 22.6573 57.4753C22.4141 57.722 22.171 57.9193 22.0247 58.2152C21.8785 58.4618 22.1687 58.8561 22.4603 58.6588C23.3353 58.0668 24.0168 57.2283 24.7951 56.4884C25.3301 55.9951 25.9137 55.5018 26.3033 54.91C28.1469 55.1558 29.7486 55.0566 31.5457 54.4149C31.8366 54.5627 32.1274 54.7105 32.176 54.6612C33.9239 54.3154 35.7221 53.2792 37.2289 52.2925C37.7148 52.0458 39.7075 50.8124 39.2729 49.925Z" fill="#540200"/>
<path d="M32.4782 52.9006C34.228 51.815 36.461 51.6663 38.4985 52.0602C40.5359 52.4541 42.4268 53.2919 44.415 53.9817C47.8579 55.2628 51.4959 56.1494 55.1842 56.2468C58.8726 56.3443 63.3382 56.1455 66.5941 54.4183C70.4819 52.2963 73.7427 48.547 75.7905 44.6008C70.1506 48.7948 61.1715 48.8964 54.3311 47.6656C47.4907 46.4349 40.9449 43.7738 34.1048 42.4444C35.9414 45.6496 35.3475 50.483 32.4782 52.9006Z" fill="#230403"/>
<path d="M46.3013 54.6136C46.4007 53.6281 46.3064 52.5934 46.1631 51.7558C45.9254 49.9328 45.1537 48.455 43.897 47.1252C43.8488 47.0266 43.7031 47.1252 43.7513 47.2238C44.5234 48.5538 45.0527 50.081 45.3396 51.6084C45.5311 52.5445 45.432 53.4314 45.3328 54.3184C45.6718 54.4168 45.9623 54.5152 46.3013 54.6136Z" fill="#540200"/>
<path d="M49.2863 47.322C49.1896 47.2235 48.9956 47.3221 49.0921 47.4699C50.154 49.1446 50.9737 50.7702 51.017 52.8395C51.0631 53.8249 50.8183 54.8104 50.4768 55.7467C50.6705 55.7959 50.9127 55.845 51.1065 55.8449C51.3994 54.958 51.5473 53.9725 51.5977 53.1842C51.6997 51.1148 50.8821 48.6516 49.2863 47.322Z" fill="#540200"/>
<path d="M54.917 48.2083C54.8202 48.1591 54.7231 48.2577 54.7713 48.3562C55.5427 49.9326 56.4602 51.2626 56.7464 53.0856C56.9373 54.2681 56.7893 55.3029 56.5444 56.3377C56.8352 56.3376 57.1744 56.3374 57.4652 56.3373C58.0541 53.4299 57.0943 49.6363 54.917 48.2083Z" fill="#540200"/>
<path d="M61.9821 55.9432C62.1297 55.0562 62.1804 54.1693 62.0856 53.3317C61.8966 51.4101 61.0287 49.6366 59.6751 48.3069C59.5781 48.3069 59.4812 48.307 59.3843 48.307C60.5437 49.7847 61.3149 51.4596 61.4555 53.3812C61.5499 54.3667 61.4023 55.2537 61.1579 56.0914C61.4003 56.042 61.6912 55.9926 61.9821 55.9432Z" fill="#540200"/>
<path d="M67.4247 54.0221C67.4259 53.5786 67.3784 53.1844 67.3309 52.7902C67.0928 51.1149 66.4667 49.5384 65.4521 48.2577C65.2582 48.2578 65.1127 48.3071 64.9188 48.3072C65.7878 49.6865 66.414 51.2138 66.6036 52.8891C66.6507 53.4311 66.6978 53.9731 66.6481 54.4659C66.8908 54.318 67.1336 54.17 67.4247 54.0221Z" fill="#540200"/>
<path d="M71.9482 50.2295C71.6601 49.1454 71.1294 48.1107 70.5013 47.2732C70.3073 47.3226 70.1617 47.372 69.9676 47.4214C70.4025 48.0125 70.7885 48.7023 71.0292 49.3922C71.222 49.8356 71.3177 50.3284 71.4135 50.7719C71.6078 50.624 71.7538 50.4268 71.9482 50.2295Z" fill="#540200"/>
<path d="M32.4724 52.8925C33.6866 52.153 35.0452 51.8568 36.4516 51.8563C38.3003 49.4904 38.2133 45.4008 36.5215 43.1349C36.4732 43.0364 36.3763 42.9871 36.3281 42.8886C35.5526 42.6918 34.777 42.5443 34.0014 42.3968C35.9334 45.648 35.3396 50.477 32.4724 52.8925Z" fill="#540200"/>
<path d="M56.7961 51.0282C49.4192 50.9321 42.4376 47.9261 35.6499 45.0186C35.9449 43.4404 35.5607 41.7638 34.5444 40.5312C33.5282 39.2986 31.3451 38.9048 29.7435 38.9053C37.7103 35.845 46.9364 33.8692 55.3794 34.6061C63.8226 35.2938 72.2113 38.4472 78.6043 44.0672C71.994 48.1134 64.5127 51.1243 56.7961 51.0282Z" fill="url(#paint0_linear)"/>
<path d="M46.9851 53.569C46.8886 53.3225 46.6461 53.2733 46.4033 53.3227C45.4319 53.6682 44.6536 54.4081 43.7306 54.8029C42.7105 55.1978 41.6905 55.5433 40.6223 55.7903C39.6511 56.0372 38.6795 56.432 37.7087 56.531C37.6602 56.531 37.6603 56.4817 37.6118 56.4817C37.5148 56.4324 37.4176 56.4818 37.369 56.5311C37.2234 56.5312 37.2229 56.7284 37.3685 56.7283C37.3685 56.7283 37.3685 56.7283 37.4169 56.7776C37.4653 56.8269 37.5621 56.9255 37.6105 56.9748C36.2514 57.1232 34.9402 57.4689 33.5329 57.4694C33.1932 57.4695 32.9981 57.8641 33.0459 58.1599C32.4134 58.8011 31.7324 59.4424 31.1969 60.1329C30.9049 60.4781 30.7099 60.8233 30.3695 61.1193C30.1263 61.3659 29.8831 61.5633 29.7368 61.8592C29.5906 62.1058 29.8808 62.5001 30.1725 62.3028C31.0475 61.7107 31.7289 60.8723 32.5072 60.1324C33.0423 59.6391 33.6258 59.1458 34.0155 58.554C35.859 58.7998 37.4607 58.7006 39.2579 58.0589C39.5487 58.2067 39.8395 58.3545 39.8882 58.3052C41.6361 57.9594 43.4342 56.9232 44.941 55.9365C45.4271 55.6405 47.3711 54.4564 46.9851 53.569Z" fill="#540200"/>
<path d="M68.3204 64.8572C67.788 64.3646 67.1589 63.7735 66.5293 63.3795C66.6766 62.6403 66.7271 61.8518 66.7774 61.1126C66.9256 60.0284 67.1224 58.8949 67.1736 57.8107C67.3195 57.6628 67.3686 57.4164 67.2236 57.2193C66.9335 56.8252 66.4973 56.6776 66.1099 56.4313C65.5286 56.1359 64.996 55.7419 64.4149 55.3479C63.3012 54.5598 62.2362 53.6733 60.9277 53.2303C60.6369 53.1318 60.4421 53.4276 60.49 53.674C59.3248 54.118 61.8911 55.9402 62.1816 56.1372C63.0533 56.7282 64.0708 57.1713 65.0401 57.5159C65.3309 57.6143 65.6701 57.762 66.0095 57.8112C65.7627 59.5361 65.9036 61.4086 65.9964 63.1334C65.7537 63.1827 65.6558 63.5277 65.8979 63.7248C66.5756 64.2666 67.4476 64.7097 68.2716 64.9558C68.3199 65.0543 68.3686 64.9557 68.3204 64.8572Z" fill="#540200"/>
<path d="M78.8709 58.7012C78.1924 58.4057 77.4655 58.0117 76.7382 57.8148C76.6915 57.0755 76.4994 56.2869 76.3557 55.5475C76.1643 54.4632 76.0701 53.3295 75.8301 52.2451C75.9762 52.0479 75.8798 51.8015 75.6859 51.703C75.2984 51.4567 74.8134 51.3583 74.3769 51.3092C73.7465 51.1615 73.1162 50.9646 72.4859 50.7677C71.1769 50.3739 69.9168 49.7829 68.5097 49.7835C68.2186 49.7836 68.0722 50.1288 68.2172 50.3752C67.2448 51.1642 70.2021 52.1489 70.5415 52.2473C71.5597 52.5427 72.6267 52.6901 73.694 52.7389C73.9852 52.7388 74.3247 52.788 74.6644 52.7385C74.9028 54.4637 75.5778 56.1887 76.156 57.8151C75.9616 57.963 75.9608 58.2588 76.2516 58.4065C77.0272 58.702 77.9971 58.8988 78.8704 58.8984C78.919 58.8984 78.9678 58.7505 78.8709 58.7012Z" fill="#540200"/>
<path d="M41.3423 36.9327C41.6811 37.2776 42.0201 37.5239 42.359 37.8195C42.6979 38.1151 42.9881 38.46 43.327 38.7556C43.4239 38.8049 43.5211 38.7556 43.4728 38.657C43.0381 37.8685 42.2151 37.1295 41.3425 36.8341C41.3425 36.8341 41.3424 36.8834 41.3423 36.9327Z" fill="#A84C38"/>
<path d="M43.0934 36.1935C45.0791 37.474 46.2387 39.2969 47.0579 41.5142C47.1062 41.6128 47.2033 41.5634 47.155 41.4649C46.6756 39.1982 45.0794 37.3261 43.142 36.1442C43.0935 36.1442 43.0934 36.1935 43.0934 36.1935Z" fill="#A84C38"/>
<path d="M44.4569 35.0109C47.0694 37.6708 48.6144 40.5281 49.4784 44.1741C49.4782 44.2727 49.6238 44.2233 49.6239 44.174C49.2932 40.5771 47.3618 37.0793 44.5055 34.9616C44.4572 34.9124 44.4086 34.9617 44.4569 35.0109Z" fill="#A84C38"/>
<path d="M47.3697 35.3558C49.5946 37.868 50.9459 40.627 52.3936 43.6323C52.4418 43.7309 52.5875 43.6815 52.5878 43.5337C51.674 40.3803 49.6923 37.5723 47.4669 35.2572C47.4184 35.2572 47.3213 35.3065 47.3697 35.3558Z" fill="#A84C38"/>
<path d="M49.3603 35.0603C52.265 37.2766 54.1007 40.2817 54.7223 43.928C54.7221 43.9772 54.8191 43.9772 54.8193 43.9279C54.4888 40.2323 52.5084 36.9316 49.4091 34.9617C49.3608 34.8632 49.312 35.0111 49.3603 35.0603Z" fill="#A84C38"/>
<path d="M52.3696 35.553C54.352 38.0159 55.7044 40.2819 56.327 43.4844C56.3268 43.583 56.5207 43.5829 56.5211 43.4351C56.3343 40.4788 54.8875 37.178 52.4669 35.4544C52.3699 35.4544 52.3698 35.5037 52.3696 35.553Z" fill="#A84C38"/>
<path d="M55.2344 35.5034C56.3947 36.9811 57.4581 38.4095 58.2783 40.1337C59.0985 41.8579 59.288 43.6809 59.623 45.5038C59.6228 45.6023 59.8167 45.6023 59.8171 45.4544C59.9713 41.8576 57.9933 37.6703 55.2832 35.4048C55.2347 35.4048 55.1861 35.4541 55.2344 35.5034Z" fill="#A84C38"/>
<path d="M57.8567 35.5529C60.2753 38.0155 61.4802 41.0698 61.7628 44.5187C61.7625 44.6172 61.8595 44.6172 61.9083 44.5186C61.9652 41.0697 60.4698 37.8183 57.9539 35.4543C57.9056 35.405 57.8083 35.5036 57.8567 35.5529Z" fill="#A84C38"/>
<path d="M60.9127 36.0456C62.3625 38.1145 63.3755 40.3313 63.9999 42.7947C63.9996 42.8932 64.1452 42.8439 64.1455 42.7454C63.8123 40.1834 62.751 37.868 61.0585 35.8978C61.0102 35.8485 60.8643 35.9964 60.9127 36.0456Z" fill="#A84C38"/>
<path d="M35.0756 38.9584C39.3493 38.1187 43.3811 36.8843 47.7509 36.4886C49.7901 36.2908 51.8289 36.2904 53.8191 36.3393C56.1005 36.3882 58.4775 37.0784 60.711 36.8313C60.9052 36.8312 61.0516 36.4858 60.8091 36.3871C59.2091 35.5487 57.2675 35.4997 55.5203 35.3521C52.8996 35.1059 50.2783 35.1065 47.7052 35.2551C43.4328 35.5027 38.6254 36.2438 34.7376 38.169C34.3002 38.4158 34.6385 39.0572 35.0756 38.9584Z" fill="#F4DBC0"/>
<path d="M32.1135 38.7995C35.0227 39.587 36.0824 42.6919 36.1726 45.4521C36.2182 46.6351 35.7798 47.3253 35.583 48.4098C35.9281 46.1916 34.9634 43.9246 33.3174 42.4466C31.6715 40.9685 27.4971 41.7096 25.3136 41.7598C26.0426 41.2666 28.716 39.2939 29.5417 38.9485C30.4159 38.6031 31.2892 38.6027 32.1135 38.7995Z" fill="#290000"/>
<path d="M23.126 44.173C22.3947 45.6027 21.76 47.1803 22.0471 48.8067C22.3344 50.3345 23.4473 51.5663 24.7554 52.3051C26.0635 53.0439 27.5667 53.3883 29.0701 53.6341C30.622 53.8799 32.3207 53.6328 33.633 52.6957C36.4034 50.723 36.6585 45.6461 34.6757 43.0838C33.2733 41.2114 30.5589 40.1775 28.2777 40.5727C26.1905 40.9679 24.1008 42.3489 23.126 44.173Z" fill="#1A0000"/>
<path d="M12.8766 25.2586C17.3876 25.4538 21.3622 26.7336 24.7015 29.9356C28.5247 33.5809 29.0463 38.4104 29.0824 43.4372C29.0821 43.5358 29.2275 43.585 29.2764 43.4371C32.0654 33.8259 22.1455 23.8748 12.877 25.1107C12.7799 25.1107 12.7796 25.2586 12.8766 25.2586Z" fill="black"/>
<path d="M27.8728 42.6973C23.8181 33.6254 11.888 30.1285 4.01034 36.5911C3.91304 36.6898 4.05815 36.887 4.15545 36.7883C12.5645 31.3117 23.0904 33.527 27.6784 42.796C27.7751 42.9439 27.921 42.8452 27.8728 42.6973Z" fill="black"/>
<path d="M30.2124 42.8906C29.7263 43.2851 29.3851 43.9259 29.2865 44.5667C29.0894 45.799 29.8622 47.1787 31.0256 47.5725C32.1888 48.0156 33.6456 47.4729 34.2791 46.339C34.9125 45.2544 34.6253 43.6773 33.657 42.8891C32.7373 42.0516 31.1848 42.0523 30.2124 42.8906Z" fill="white"/>
<path d="M30.2121 42.8907C29.726 43.2851 29.3849 43.9259 29.2863 44.5665C29.0892 45.7986 29.8619 47.1781 31.0251 47.5719C31.1705 47.6211 31.3644 47.6703 31.5099 47.6702C31.9958 47.3251 32.385 46.8814 32.6772 46.3885C33.2135 45.3041 33.1199 43.9243 32.4433 42.8897C32.2984 42.6434 32.1049 42.4464 31.9112 42.2986C31.2808 42.2496 30.6982 42.4469 30.2121 42.8907Z" fill="#95412E"/>
<path d="M33.6034 45.0085C33.7961 45.5506 33.5036 46.1421 32.9694 46.3395C32.4353 46.5369 31.8538 46.2414 31.6611 45.6993C31.4684 45.1572 31.761 44.5656 32.2951 44.3683C32.8778 44.1709 33.4592 44.4664 33.6034 45.0085Z" fill="white"/>
<path d="M21.9541 44.9589C21.5165 45.3534 21.2241 45.8957 21.1256 46.4871C20.9287 47.6208 21.6534 48.8527 22.7197 49.2466C23.7861 49.6404 25.0972 49.147 25.682 48.1117C26.2666 47.1257 26.0276 45.6965 25.1561 44.9575C24.2362 44.2186 22.8292 44.2192 21.9541 44.9589Z" fill="white"/>
<path d="M21.9533 44.9589C21.5158 45.3533 21.2234 45.8955 21.125 46.4869C20.9282 47.6205 21.6527 48.8522 22.7189 49.246C22.8643 49.2952 23.0097 49.3444 23.1552 49.3443C23.5925 49.0485 23.9815 48.6541 24.2252 48.1612C24.7127 47.1754 24.6189 45.8942 24.039 45.0074C23.894 44.8103 23.7489 44.6132 23.5553 44.4655C22.9248 44.4165 22.3909 44.5645 21.9533 44.9589Z" fill="#95412E"/>
<path d="M25.0544 46.9289C25.1988 47.4218 24.9549 47.964 24.4693 48.1121C23.9838 48.2602 23.4508 48.0139 23.3064 47.5211C23.1621 47.0283 23.406 46.486 23.8916 46.338C24.3287 46.1406 24.8616 46.4362 25.0544 46.9289Z" fill="white"/>
<path d="M35.151 48.3077C35.3437 48.8498 35.0025 49.4907 34.4198 49.6881C33.8371 49.8855 33.2071 49.5901 33.0144 49.048C32.8217 48.5059 33.1629 47.865 33.7456 47.6676C34.3282 47.4702 34.9582 47.7656 35.151 48.3077Z" fill="#FF9F4A"/>
<path d="M25.2905 50.2774C25.4833 50.8194 25.142 51.4603 24.5594 51.6577C23.9767 51.8551 23.3467 51.5597 23.154 51.0176C22.9612 50.4755 23.3024 49.8346 23.8851 49.6372C24.5165 49.3905 25.1464 49.6859 25.2905 50.2774Z" fill="#FF9F4A"/>
<path d="M29.0329 48.997C29.0806 49.3421 28.8856 49.6872 28.4972 49.786C28.303 49.8354 28.1092 49.7369 27.964 49.589C27.8186 49.4905 27.8191 49.2933 27.6252 49.2441C27.5282 49.1948 27.3825 49.2442 27.3338 49.3428C27.236 49.6386 27.478 49.885 27.6717 50.0328C27.6717 50.0328 27.6717 50.0328 27.7202 50.0328C27.9621 50.3285 28.4471 50.4268 28.7383 50.3774C29.4179 50.2786 29.7111 49.4404 29.567 48.8489L29.5671 48.7996C29.5671 48.7996 29.5672 48.7504 29.5187 48.7504C29.4224 48.4546 28.9851 48.7013 29.0329 48.997Z" fill="#95412E"/>
<path d="M24.0426 44.0751C24.1396 44.0751 24.1883 44.0258 24.2854 43.9765C24.334 43.9272 24.3826 43.9271 24.4312 43.8778C24.5284 43.8285 24.6254 43.8285 24.7227 43.7298C24.82 43.6312 24.8203 43.4833 24.7721 43.3848C24.7238 43.2862 24.6269 43.237 24.5298 43.237C24.3358 43.2371 24.2385 43.3357 24.0926 43.4836C23.9466 43.6316 23.8492 43.7795 23.8974 43.9273C23.9457 44.0259 23.9941 44.0752 24.0426 44.0751Z" fill="#873427"/>
<path d="M30.892 42.1033C30.5526 41.9555 30.1647 41.8077 29.7761 41.9558C29.5332 42.0545 29.5325 42.3504 29.7749 42.4489C30.1143 42.5967 30.5514 42.4486 30.8915 42.3006C30.9887 42.2512 30.9889 42.1526 30.892 42.1033Z" fill="#873427"/>
<defs>
<linearGradient id="paint0_linear" x1="29.7614" y1="42.7381" x2="78.6523" y2="42.8553" gradientUnits="userSpaceOnUse">
<stop stop-color="#330906"/>
<stop offset="0.2284" stop-color="#370906"/>
<stop offset="0.434" stop-color="#420906"/>
<stop offset="0.6308" stop-color="#540906"/>
<stop offset="0.8209" stop-color="#6D0906"/>
<stop offset="1" stop-color="#8D0906"/>
</linearGradient>
</defs>
</svg>
