<svg width="90" height="90" viewBox="0 0 90 90" fill="none" xmlns="http://www.w3.org/2000/svg">
<path d="M69.877 59.9541C65.5274 64.7242 57.9883 65.4624 51.551 64.6106C45.0557 63.7588 39.6623 61.6009 35.0809 57.058C30.4414 52.5151 27.0198 47.0069 24.1201 41.2715C23.0762 39.2272 22.0323 37.0693 20.0605 35.82C18.0888 34.5707 15.4211 34.5139 13.2753 35.5361C11.1295 36.5582 9.62171 38.5458 8.98378 40.8172C7.9979 44.3379 7.76592 47.9723 8.22987 51.6066C8.69382 55.1841 10.0277 58.7616 12.6374 61.3738C15.4791 64.2699 19.5966 65.6895 23.6561 66.2574C27.7157 66.8252 31.8332 66.5413 35.9508 66.5413C42.272 66.5413 48.5933 67.0524 54.9146 66.9956C64.1936 66.882 73.3566 65.4056 82.4615 63.9292C78.46 61.9416 74.2845 60.2381 69.877 59.9541Z" fill="#FFAD4D"/>
<path d="M11.2457 45.7008C10.8398 45.7008 10.3758 45.5872 10.0279 45.4169C8.694 44.7922 8.11407 43.0887 8.694 41.7826C8.98397 41.1579 9.56391 40.5901 10.2598 40.3629C10.6078 40.2494 10.9557 40.1926 11.3037 40.1926C11.8256 40.1926 12.3476 40.3061 12.7535 40.5901C14.0294 41.3283 14.4934 43.0887 13.7974 44.338C13.3335 45.133 12.2896 45.7008 11.2457 45.7008Z" fill="white"/>
<path d="M11.3037 40.3629C11.7676 40.3629 12.2315 40.4765 12.6375 40.7036C13.7974 41.3851 14.2613 42.9751 13.6234 44.1676C13.1594 45.0194 12.1736 45.4737 11.2457 45.4737C10.8397 45.4737 10.4917 45.4169 10.1438 45.2465C8.92592 44.6787 8.34598 43.0887 8.92592 41.8394C9.21589 41.2147 9.73783 40.7604 10.3758 40.5333C10.6657 40.4197 10.9557 40.3629 11.3037 40.3629ZM11.3037 39.9654C10.8977 39.9654 10.5497 40.0222 10.2018 40.1926C9.44786 40.4765 8.86793 41.0444 8.51997 41.7258C7.88204 43.1454 8.51997 44.9626 9.9698 45.644C10.3758 45.8144 10.7817 45.928 11.2457 45.928C12.4055 45.928 13.5074 45.3033 14.0293 44.3947C14.7833 43.0319 14.2613 41.1579 12.8695 40.3629C12.4055 40.079 11.8256 39.9654 11.3037 39.9654Z" fill="#E08235"/>
<path d="M8.92587 41.8962C9.21584 41.2715 9.73778 40.8172 10.3757 40.5901C10.4917 40.5333 10.6657 40.5333 10.7817 40.4765C11.2456 40.8172 11.4776 41.3283 11.6516 41.8394C11.9415 42.6912 11.9995 43.6565 11.5936 44.4515C11.4196 44.849 11.0716 45.1897 10.6657 45.4737C10.4917 45.4169 10.3177 45.3601 10.1437 45.3033C8.92587 44.6787 8.34594 43.0887 8.92587 41.8962Z" fill="#963427"/>
<path d="M21.6844 43.9404C21.2785 43.9404 20.8725 43.8269 20.4666 43.6565C19.1327 43.0319 18.5528 41.3283 19.1327 40.0222C19.4227 39.3976 20.0026 38.8297 20.6985 38.6025C21.0465 38.489 21.3945 38.4322 21.7424 38.4322C22.2644 38.4322 22.7863 38.5458 23.1923 38.8297C24.4681 39.5679 24.9321 41.3283 24.2362 42.5776C23.7722 43.3726 22.7863 43.9404 21.6844 43.9404Z" fill="white"/>
<path d="M21.7424 38.6025C22.2063 38.6025 22.6703 38.7161 23.0762 38.9433C24.2361 39.6247 24.7 41.2147 24.0621 42.4072C23.5982 43.259 22.6123 43.7133 21.6844 43.7133C21.2784 43.7133 20.9305 43.6565 20.5825 43.4862C19.3646 42.9183 18.7847 41.3283 19.3646 40.079C19.6546 39.4543 20.1765 39.0001 20.8145 38.7729C21.1044 38.6593 21.4524 38.6025 21.7424 38.6025ZM21.7424 38.205C21.3364 38.205 20.9885 38.2618 20.6405 38.4322C19.8866 38.7161 19.3066 39.284 18.9587 39.9654C18.3208 41.3851 18.9587 43.2022 20.4085 43.8837C20.8145 44.054 21.2204 44.1676 21.6844 44.1676C22.8442 44.1676 23.9461 43.5429 24.4681 42.6344C25.222 41.2715 24.7 39.3976 23.3082 38.6025C22.8443 38.3186 22.3223 38.205 21.7424 38.205Z" fill="#E08235"/>
<path d="M19.3646 40.1358C19.6546 39.5111 20.1765 39.0568 20.8145 38.8297C20.9304 38.7729 21.1044 38.7729 21.2204 38.7161C21.6844 39.0568 21.9163 39.5679 22.0903 40.079C22.3803 40.9308 22.4383 41.8961 22.0323 42.6912C21.8583 43.0887 21.5104 43.4294 21.1044 43.7133C20.9304 43.6565 20.7565 43.5997 20.5825 43.5429C19.3646 42.9183 18.8427 41.3283 19.3646 40.1358Z" fill="#963427"/>
<path d="M19.3645 26.6207C19.1326 26.1664 18.5526 25.996 18.0307 25.996C17.7407 25.996 17.5088 26.28 17.6247 26.5639C17.7407 26.9614 18.0307 27.2453 18.3787 27.4725C17.9727 28.3243 18.2047 29.46 18.2047 30.3686C18.2627 32.2993 18.0307 34.23 18.2047 36.1607C18.2627 36.615 18.9006 36.615 18.9586 36.1607C19.1326 34.4004 19.3066 32.6968 19.3645 30.9364C19.3645 29.9143 19.4805 28.7786 19.3645 27.6996C19.5385 27.6996 19.7125 27.586 19.8285 27.4725C20.1185 27.075 19.7705 26.6207 19.3645 26.6207Z" fill="#FEA83D"/>
<path d="M12.5215 30.0279C12.4055 29.1761 12.2895 28.2675 11.8836 27.4725C12.0576 27.3021 12.1156 26.9614 11.8836 26.7343C11.7676 26.5639 11.6516 26.5071 11.5356 26.3936C11.4776 26.3368 11.4196 26.28 11.3036 26.28C11.1297 26.2232 11.0137 26.1664 10.8977 26.2232C10.8397 26.2232 10.7817 26.2232 10.7237 26.2232C10.2598 26.1664 10.1438 26.7343 10.3758 27.0182C10.6077 27.2453 10.7237 27.3589 10.8397 27.4157C11.7676 28.3811 11.7676 30.4822 11.8836 31.6747C12.1156 33.6054 11.9996 35.6497 12.5795 37.5236C12.5795 37.5804 12.6955 37.5804 12.6955 37.5236C13.3334 35.1386 12.8115 32.4129 12.5215 30.0279Z" fill="#FEA83D"/>
<path d="M18.0308 42.8615C17.9149 42.464 17.2769 42.6344 17.3929 43.0319C17.5089 43.4861 17.2769 43.8836 16.929 44.1676C16.813 44.2244 16.697 44.2811 16.581 44.2811C16.0011 44.3379 15.5951 43.6565 15.7111 43.1454C15.8271 42.6911 15.1312 42.5208 15.0152 42.9751C14.7832 43.9972 15.5371 44.9626 16.639 44.9626C17.6829 45.0194 18.3208 43.7701 18.0308 42.8615Z" fill="#963427"/>
<path d="M11.3036 47.4044C11.3036 47.9722 10.8396 48.4265 10.2597 48.4265C9.67977 48.4265 9.21582 47.9722 9.21582 47.4044C9.21582 46.8365 9.67977 46.3822 10.2597 46.3822C10.7816 46.3822 11.3036 46.8365 11.3036 47.4044Z" fill="#FF6E57"/>
<path d="M25.222 45.0194C25.222 45.5872 24.7581 46.0415 24.1782 46.0415C23.5982 46.0415 23.1343 45.5872 23.1343 45.0194C23.1343 44.4515 23.5982 43.9972 24.1782 43.9972C24.7581 43.9972 25.222 44.4515 25.222 45.0194Z" fill="#FF6E57"/>
<path d="M69.5872 60.3516C67.9054 62.112 65.8756 63.4749 63.5558 64.3834C59.0324 66.087 53.9869 66.2574 49.2894 65.1784C44.592 64.0995 40.1845 61.8281 36.4729 58.7616C33.8632 56.6037 31.4854 54.1052 30.0936 51.0387C25.6861 41.1579 32.5873 30.7661 41.4023 26.1096C52.4211 20.3174 67.3254 22.4753 73.5887 33.7757C78.3442 42.1801 76.2564 53.5373 69.5872 60.3516Z" fill="#823624"/>
<path d="M53.6388 46.1551C53.4649 45.8712 53.1169 45.928 52.8849 46.0415C52.7689 46.0983 52.653 46.1551 52.595 46.2119C52.363 46.2119 52.189 46.3823 52.189 46.6094C52.073 46.5526 51.899 46.6094 51.7831 46.723C51.7251 46.723 51.6671 46.723 51.6671 46.7798C51.4351 46.6662 51.0871 46.723 51.0871 47.0637C50.9711 47.0637 50.7972 47.1205 50.7392 47.2908H50.6812C50.6812 47.234 50.6232 47.234 50.6232 47.1773C50.5072 47.0069 50.2172 47.1773 50.3332 47.3476C50.3912 47.4044 50.4492 47.518 50.4492 47.5748C50.4492 48.1994 50.3912 48.7673 50.2752 49.3351C49.9853 49.9598 49.6373 50.5844 49.4053 51.1523C49.3473 51.3226 49.4633 51.4362 49.5793 51.493C49.5213 51.7769 49.8113 52.0609 50.1012 51.8905C50.2752 51.7769 50.3912 51.6634 50.5652 51.5498V51.6066C50.5652 52.0041 51.0871 52.1177 51.3191 51.7769C51.3771 51.6634 51.4351 51.6066 51.4931 51.493C51.5511 51.6066 51.7251 51.6066 51.8411 51.6066C52.015 51.7769 52.305 51.7202 52.479 51.5498C52.653 51.7769 53.1169 51.8337 53.2329 51.4362V51.3794C53.4649 51.493 53.7548 51.4362 53.8708 51.1523C53.9868 51.493 54.4507 51.4362 54.6247 51.1523C54.8567 51.3794 55.3207 51.3226 55.4366 50.9251C55.7266 49.2783 54.6247 47.5748 53.6388 46.1551Z" fill="#CA8C52"/>
<path d="M56.3645 30.9932C56.5965 28.4378 57.3504 25.7689 58.4523 23.3839C58.3363 23.3839 58.2783 23.3271 58.1623 23.3271C56.9444 25.6553 56.1905 28.0971 56.0165 30.8796C55.8426 30.8796 55.6686 30.8796 55.4366 30.8796C55.0887 30.8796 54.9727 31.3339 55.2046 31.5043C55.1466 31.5043 55.0307 31.5043 54.9147 31.5043C54.8567 31.4475 54.7407 31.4475 54.6247 31.5043C54.5087 31.5043 54.3347 31.5043 54.2187 31.5043H54.1608C53.9868 31.5043 53.8708 31.5043 53.6968 31.6179C53.6388 31.6746 53.5808 31.6746 53.5228 31.7314C53.4068 31.6746 53.2908 31.6746 53.1749 31.7314C53.1749 31.5611 53.1749 31.3907 53.1749 31.2204C53.1749 31.1068 53.0009 30.9932 52.8849 31.05C50.5652 32.4697 52.131 36.4447 52.189 38.6025C52.189 38.7729 52.421 38.7729 52.421 38.6025V38.5458C52.5369 38.8297 52.9429 38.8297 53.1169 38.6025C53.1749 38.6025 53.1749 38.6593 53.2329 38.6593V38.7161C53.2909 38.8865 53.5228 38.9433 53.6968 38.8297C53.8708 38.8865 54.1028 38.8865 54.2767 38.9433C54.5667 39.0001 54.7987 38.8297 54.7987 38.5458C54.8567 36.104 54.5667 33.6054 56.2485 31.5611C56.4805 31.3339 56.4805 31.1068 56.3645 30.9932Z" fill="#CA8C52"/>
<path d="M48.9995 29.2896C48.3616 27.4725 47.5497 25.7121 46.5638 24.0653C45.5199 24.3492 44.476 24.7467 43.4321 25.1442C43.5481 25.2578 43.6641 25.3714 43.7221 25.5417C45.1139 27.6428 46.3898 29.8007 47.7816 31.9018C47.8976 32.1289 48.0136 32.3561 48.0716 32.5832C48.1296 32.6968 48.2456 32.8104 48.3616 32.7536C48.4776 32.7536 48.5935 32.6968 48.7095 32.64C48.7095 32.64 48.7095 32.64 48.6515 32.6968C48.4776 32.8104 48.7095 33.0375 48.8835 32.9807C50.5073 32.1289 49.5214 30.7093 48.9995 29.2896Z" fill="#CA8C52"/>
<path d="M42.1562 42.9751C43.664 43.8837 46.3317 44.5651 47.8975 43.5429C47.9555 43.4862 47.9555 43.4294 47.8395 43.4294C47.0276 43.3726 46.2157 43.6565 45.4038 43.6565C44.3599 43.6565 43.2 43.3726 42.1562 42.9751C42.2722 42.8047 42.3301 42.6912 42.3301 42.5776C42.3301 41.9529 42.3881 41.3283 42.4461 40.7036C42.9681 40.4765 43.0261 39.6815 42.3881 39.5679C41.2863 39.284 40.1844 39.0001 39.0245 38.7729C37.5167 38.2618 35.6029 37.9779 33.8051 38.0347C33.1092 38.0347 32.4133 38.0915 31.7753 38.2618C31.4854 38.3186 31.2534 38.3754 31.0214 38.4322C30.9634 38.4322 30.9634 38.4322 30.9054 38.4322C30.7894 38.489 30.6735 38.489 30.5575 38.5458C30.3255 38.6593 30.0355 38.7161 29.8035 38.8297C28.7597 41.6122 28.4117 44.5651 28.9336 47.518C31.4274 44.2244 37.6907 43.1454 41.5762 43.2022C41.8662 43.2022 42.0402 43.0887 42.1562 42.9751Z" fill="#CA8C52"/>
<path d="M64.7736 58.4777C64.7736 58.4777 64.7736 58.4209 64.7736 58.4777C64.6576 58.3641 64.4837 58.3073 64.3677 58.3641C64.3097 58.3641 64.3097 58.4209 64.2517 58.4209C64.1357 58.4209 64.0197 58.4209 63.9037 58.4209C63.7877 58.4209 63.7298 58.4777 63.6718 58.4777C63.6138 58.4777 63.4978 58.4777 63.4398 58.5345L63.3818 58.5913C63.3238 58.5913 63.3238 58.648 63.2658 58.648C63.2078 58.7048 63.2078 58.7048 63.1498 58.7616C63.0918 58.8184 63.0338 58.8752 62.9758 58.932C62.8598 59.1023 62.8598 59.2727 62.9178 59.3863C62.8598 59.3295 62.7439 59.2727 62.6859 59.2159C62.5699 59.1591 62.3959 59.2727 62.5119 59.3863C62.9178 59.8973 63.3818 60.2948 63.9037 60.7491C64.3677 61.6009 65.0636 62.3959 65.5276 63.2477C65.5276 63.3045 65.5856 63.3613 65.5856 63.4181C66.7454 62.7366 67.8473 61.9984 68.8332 61.0898C67.8473 59.8973 66.2815 58.7616 64.7736 58.4777Z" fill="#CA8C52"/>
<path d="M62.1639 24.3492C60.656 26.2232 59.4382 28.6082 58.9162 30.7661C58.8002 30.8229 58.6842 30.9932 58.7422 31.1636C58.7422 31.2771 58.7422 31.3339 58.8002 31.4475C59.5541 31.6179 60.2501 31.845 60.888 32.2425C61.5259 30.4821 63.2657 29.2328 64.5416 27.9268C65.1215 27.3589 65.8175 26.8478 66.4554 26.3368C65.0635 25.485 63.6717 24.8603 62.1639 24.3492Z" fill="#CA8C52"/>
<path d="M37.6905 29.5168C40.3583 31.2204 43.1999 33.1511 45.1137 35.6497C45.4037 35.9904 45.8676 35.5361 45.5777 35.1954C43.7219 32.8672 41.1702 31.3339 38.7924 29.6871C38.3285 29.3464 37.8645 29.0625 37.4006 28.8354C37.2846 28.9489 37.1106 29.0625 36.9946 29.1761C37.2266 29.2329 37.4586 29.3464 37.6905 29.5168Z" fill="#CA8C52"/>
<path d="M68.0792 40.874C67.9632 41.1579 68.1371 41.3283 68.3691 41.3283C68.3691 41.3851 68.3691 41.4418 68.4271 41.4986C68.2531 41.669 68.3111 41.8961 68.4851 42.0097C68.4851 42.0665 68.4851 42.1233 68.5431 42.1233C68.4271 42.2936 68.4851 42.6344 68.8331 42.6344C70.2829 42.6911 71.6747 42.464 73.0666 42.4072C73.1246 42.4072 73.1826 42.4072 73.1826 42.4072C73.4145 42.4072 73.5885 42.4072 73.8205 42.4072C74.5744 42.4072 75.3863 42.5208 76.1402 42.5776C76.0242 40.9876 75.7923 39.3975 75.3283 37.8643C75.0964 37.8643 74.8644 37.9211 74.6324 37.9779C72.0227 38.0915 68.9491 38.7161 68.0792 40.874Z" fill="#CA8C52"/>
<path d="M68.7752 44.7922C68.6012 44.849 68.6592 45.0762 68.8332 45.0762C70.631 44.9626 72.3708 45.0762 74.1686 45.1897C74.8645 45.2465 75.5025 45.2465 76.1984 45.3601C76.1984 45.1897 76.1984 45.0194 76.2564 44.7922C76.0824 44.7355 75.8504 44.7355 75.6185 44.6787C73.3567 44.5083 70.921 44.3379 68.7752 44.7922Z" fill="#CA8C52"/>
<path d="M67.2673 38.6593C67.1513 38.7729 67.3252 38.9433 67.4412 38.8297C69.355 36.9557 71.8487 36.0472 74.4585 35.5361C74.3425 35.3089 74.2845 35.0818 74.1685 34.9114C71.5008 35.5361 69.0071 36.7854 67.2673 38.6593Z" fill="#CA8C52"/>
<path d="M71.4429 46.439C70.8629 46.439 69.761 46.3822 69.3551 46.8365C69.1811 47.0069 69.0651 47.234 69.0071 47.518V47.5747C69.0071 47.6315 69.0071 47.6315 69.0071 47.6883C68.8332 48.4265 68.8332 49.4487 68.7172 49.9598C68.6592 50.2437 69.1231 50.4141 69.1811 50.0733C69.1811 50.0165 69.1811 50.0165 69.1811 49.9598C69.1811 49.9598 69.2391 49.9598 69.2391 50.0165C69.3551 50.0733 69.5291 50.0733 69.6451 50.1301C69.6451 50.3005 69.761 50.4708 69.993 50.4708C71.6748 50.7548 73.1247 51.6066 74.5745 52.4016C75.2124 50.7548 75.6184 49.108 75.9084 47.3476C75.8504 47.3476 75.7344 47.2908 75.6764 47.2908C74.2265 47.0069 73.0087 46.3822 71.4429 46.439Z" fill="#CA8C52"/>
<path d="M59.728 23.6678C58.2782 26.0528 57.5243 28.9489 57.6982 31.3339C57.6982 31.4475 57.8722 31.4475 57.9302 31.3339C58.2782 28.665 58.9741 26.0528 60.308 23.7814C60.134 23.7246 59.902 23.7246 59.728 23.6678Z" fill="#CA8C52"/>
<path d="M68.3112 51.493C68.2532 51.493 68.3112 51.5498 68.3112 51.5498C68.6591 51.8337 69.0651 51.8337 69.529 51.9473C70.7469 52.1744 71.7908 52.9127 72.8347 53.5373C73.1826 53.7644 73.5306 53.9916 73.8785 54.2187C73.9945 53.9916 74.1105 53.7644 74.1685 53.5373C72.2547 52.2312 70.225 51.2659 68.3112 51.493Z" fill="#CA8C52"/>
<path d="M67.9632 52.0041C67.8472 51.8905 67.7312 51.8337 67.5573 51.7769C67.5573 51.7769 67.5573 51.7769 67.4993 51.7201C67.2093 51.5498 66.9773 51.3794 66.6874 51.2091C65.7595 50.4708 64.6576 49.9598 63.4977 49.5623C61.9899 48.5401 59.9021 47.8587 58.1623 47.4612C57.8723 47.4044 57.4664 47.7451 57.6984 48.029C57.7564 48.1426 57.8723 48.1994 57.9303 48.2562C57.7564 48.2562 57.5824 48.4265 57.5824 48.6537C57.5824 48.7673 57.5824 48.8808 57.5824 48.9376C57.5824 48.9944 57.5824 49.0512 57.6404 49.0512C57.5824 48.9376 57.4664 48.8808 57.4084 48.7673C57.2924 48.5969 57.0024 48.7673 57.1184 48.9376C57.8723 50.2437 59.5542 51.2091 60.598 52.288C62.0479 53.7077 63.3237 55.2409 64.8316 56.547C64.9476 56.6605 65.1795 56.6605 65.2955 56.547C66.4554 55.3545 67.2093 53.9348 68.0212 52.4584C68.2532 52.288 68.1372 52.1176 67.9632 52.0041Z" fill="#CA8C52"/>
<path d="M69.3549 43.9972C66.2233 41.4418 61.7578 42.0665 58.0462 42.4072C57.9302 42.4072 57.9302 42.5776 58.0462 42.5776C60.018 42.7479 61.9898 42.2936 63.9615 42.5776C65.8173 42.8615 67.6151 43.2022 69.239 44.1676C69.3549 44.1676 69.4709 44.054 69.3549 43.9972Z" fill="#CA8C52"/>
<path d="M64.2515 34.4004C60.7719 35.4793 59.0321 38.0915 57.4663 41.1579C57.4663 41.1579 57.4663 41.2147 57.5243 41.2147C57.9303 40.8172 58.1622 40.3629 58.3942 39.795C58.8002 38.9433 59.4381 38.2618 60.018 37.5804C61.2359 36.2175 62.5697 35.3089 64.3675 34.7411C64.5415 34.6843 64.4255 34.3436 64.2515 34.4004Z" fill="#CA8C52"/>
<path d="M50.275 39.1136C48.4772 38.0915 47.7813 35.309 48.0713 33.435C47.3174 34.0597 47.8393 35.7065 48.0713 36.4447C48.4192 37.5236 49.0572 38.7729 50.101 39.3976C50.275 39.4544 50.449 39.1704 50.275 39.1136Z" fill="#CA8C52"/>
<path d="M48.7094 45.1897C47.8975 45.5872 47.2596 46.2119 46.3897 46.4958C45.4038 46.8365 44.3019 46.5526 43.2581 46.6662C43.2581 46.6662 43.2581 46.6662 43.2581 46.723C44.3019 46.8933 45.4038 47.0069 46.4477 46.8365C47.3176 46.6662 48.0715 45.8712 48.8254 45.4737C49.0574 45.3601 48.8834 45.0762 48.7094 45.1897Z" fill="#CA8C52"/>
<path d="M44.0697 63.7588C50.9709 66.3709 58.4521 63.5884 63.7875 59.0455C69.8768 53.7644 70.7467 47.234 68.079 39.9654C65.6433 33.3782 59.554 30.0279 52.5947 31.2204C46.7374 32.2425 41.112 37.8643 42.0979 43.9972C43.0258 49.5055 48.9412 54.3891 54.7405 51.4362C59.9019 48.824 61.1198 42.1801 55.7844 39.0001C52.0148 36.7854 44.7656 40.874 47.8973 45.3033C50.333 48.824 56.0164 47.3476 54.9145 42.7479C54.7985 42.5208 54.6825 42.2936 54.5665 42.0665C54.3346 41.5554 53.5806 42.0097 53.8126 42.5208C54.7985 44.849 53.8126 46.1551 50.739 46.439C47.3753 45.928 48.0133 42.1233 49.3471 40.4765C52.0728 37.1261 57.0023 39.9086 58.2781 42.9751C59.438 45.8144 57.4662 48.7673 55.1465 50.3005C52.1888 52.2312 48.2452 51.4362 45.6935 49.3919C41.808 46.2687 42.1559 40.8172 44.5337 37.0125C47.0274 32.9807 52.2468 31.3907 56.7703 31.5611C67.0931 31.9586 71.7906 46.6094 66.9191 54.1619C62.1637 61.5441 52.7107 65.4624 44.1277 63.5884C44.0117 63.6452 44.0117 63.702 44.0697 63.7588Z" fill="#BD3C25"/>
<path d="M12.6375 42.3504C12.6375 42.8615 12.2316 43.259 11.7096 43.259C11.1877 43.259 10.7817 42.8615 10.7817 42.3504C10.7817 41.8394 11.1877 41.4419 11.7096 41.4419C12.2316 41.4986 12.6375 41.8962 12.6375 42.3504Z" fill="white"/>
<path d="M21.9164 41.4418C22.4289 41.4418 22.8443 41.0351 22.8443 40.5333C22.8443 40.0315 22.4289 39.6247 21.9164 39.6247C21.404 39.6247 20.9885 40.0315 20.9885 40.5333C20.9885 41.0351 21.404 41.4418 21.9164 41.4418Z" fill="white"/>
<path d="M35.7769 36.104C37.1108 34.5139 38.7346 33.1511 40.5324 32.0721C41.7503 31.3339 43.1421 30.7093 44.012 29.6303C44.418 29.1193 44.7079 28.4946 44.5339 27.9268C44.244 27.0182 42.9681 26.8478 42.0402 27.1318C40.5324 27.586 39.3145 28.7218 38.2127 29.8575C36.7048 31.3339 35.255 32.8104 34.0371 34.5139C33.7472 34.9114 33.4572 35.3657 33.3992 35.8768C33.3412 36.3879 33.6312 36.9557 34.0951 37.0693C34.791 37.2397 35.371 36.615 35.7769 36.104Z" fill="#F5BD89"/>
<path d="M54.3346 26.3935C54.7405 26.28 55.1465 26.0528 55.2045 25.6553C55.2625 25.3714 55.0885 25.1442 54.8565 24.9739C54.6246 24.8035 54.3926 24.7467 54.1606 24.6899C52.5948 24.3492 50.797 24.6332 49.4631 25.5985C49.4631 25.8825 49.5791 26.1664 49.8111 26.3367C50.0431 26.5071 50.333 26.5639 50.565 26.6775C51.8409 26.9046 53.1167 26.791 54.3346 26.3935Z" fill="#F5BD89"/>
<path d="M41.5183 31.5043C40.5904 30.8796 38.6186 29.5168 38.5606 29.46C38.4446 29.5736 38.3286 29.6871 38.2126 29.8007C39.1405 30.4254 40.1264 31.05 41.0543 31.7314C41.2283 31.6747 41.4023 31.6179 41.5183 31.5043Z" fill="#F59F6B"/>
<path d="M16.0011 36.5583C15.7692 36.3311 15.4212 36.3311 15.1312 36.3879C14.8413 36.4447 14.4353 36.7286 14.4353 37.0693C14.4353 37.2965 14.6093 37.4668 14.7833 37.5236C14.7833 37.5236 14.7833 37.5804 14.8413 37.5804C14.8993 37.6372 14.8993 37.6372 14.9572 37.694C15.3632 38.0347 16.1171 37.9211 16.2911 37.3533C16.3491 37.0693 16.1751 36.7286 16.0011 36.5583Z" fill="#E08235"/>
<path d="M18.8428 36.2743C18.7848 36.2175 18.7268 36.1607 18.6688 36.1607C18.5528 36.1039 18.4368 36.1039 18.2629 36.1039C17.8569 36.1607 17.7989 36.7854 18.2629 36.7854C18.3788 36.7854 18.4368 36.7854 18.4948 36.7854H18.5528H18.6108C18.7268 36.7286 18.8428 36.615 18.8428 36.5014C18.9588 36.4447 18.9008 36.3311 18.8428 36.2743Z" fill="#E08235"/>
<path d="M13.1594 37.8643C12.9854 37.7508 12.8115 37.7508 12.6375 37.7508C12.4635 37.7508 12.2895 37.8643 12.2315 38.0347C12.1735 38.0347 12.0575 38.0915 11.9996 38.1483C11.8256 38.3754 11.9996 38.6026 12.1735 38.7161C12.3475 38.8865 12.6375 39.0001 12.8695 38.9433C13.2174 38.8865 13.2174 38.6026 13.3334 38.3186C13.3914 38.0915 13.3334 37.9211 13.1594 37.8643Z" fill="#E08235"/>
<path d="M15.8269 39.1136C15.8269 38.9433 15.8269 38.8865 15.7689 38.7161C15.5949 38.3186 15.015 38.489 14.899 38.8297C14.783 39.2272 15.247 39.5111 15.5949 39.3408C15.479 39.3976 15.6529 39.3408 15.6529 39.284C15.7109 39.284 15.8269 39.2272 15.8269 39.1136Z" fill="#E08235"/>
<path d="M16.9869 39.5679C16.9289 39.5679 16.9289 39.5679 16.8709 39.5679C16.7549 39.5679 16.639 39.6247 16.523 39.7383C16.407 39.8518 16.407 40.1358 16.639 40.1926C16.6969 40.1926 16.7549 40.1926 16.8129 40.1926C16.9869 40.3061 17.2769 40.2493 17.3349 40.0222C17.5089 39.795 17.2189 39.5679 16.9869 39.5679Z" fill="#E08235"/>
<path d="M16.6968 35.2522C16.6388 35.2522 16.6388 35.309 16.5808 35.309C16.2328 35.4793 16.5228 36.0472 16.9287 35.8768C16.9867 35.8768 16.9867 35.82 17.0447 35.82C17.3347 35.5929 16.9867 35.025 16.6968 35.2522Z" fill="#E08235"/>
<path d="M13.9713 35.9904C13.9133 35.9904 13.9133 35.9904 13.8553 35.9904C13.8553 35.9904 13.8553 35.9904 13.7973 35.9904C13.7973 35.9904 13.7973 35.9904 13.7393 35.9904C13.6813 36.104 13.7973 36.1607 13.9133 36.1607C14.1453 36.2743 14.2033 35.9904 13.9713 35.9904Z" fill="#E08235"/>
<path d="M13.7973 59.5566C13.2753 59.727 12.9274 60.2381 13.0433 60.8059C13.2753 61.5441 13.8553 61.9416 14.5512 62.1688C14.8411 62.3391 15.1311 62.4527 15.3051 62.5095C15.827 62.6799 16.291 62.3391 16.465 61.8849C16.9289 60.4652 15.1311 59.1591 13.7973 59.5566Z" fill="#E08235"/>
<path d="M23.1341 62.9638C22.8442 62.8502 22.6122 62.7366 22.2642 62.7366C22.0902 62.7366 21.9163 62.7934 21.7423 62.8502C21.6843 62.8502 21.6843 62.8502 21.6263 62.8502H21.5683C21.5103 62.8502 21.4523 62.8502 21.3363 62.8502C20.8144 62.7934 20.4664 63.3613 20.5824 63.8156C20.6984 64.3834 21.2783 64.6106 21.8003 64.6674C21.9743 64.7242 22.1482 64.7809 22.3802 64.7242C22.4382 64.7242 22.4962 64.7242 22.5542 64.7242C22.9601 64.7809 23.3661 64.3834 23.4821 64.0427C23.6561 63.6452 23.5401 63.1341 23.1341 62.9638Z" fill="#E08235"/>
<path d="M24.7579 57.0012C24.5839 56.547 24.294 56.2062 23.772 56.0927C23.3661 55.9791 22.8441 56.2062 22.7861 56.6605C22.6702 57.342 23.0181 57.9098 23.714 57.9666C23.83 57.9666 23.888 57.9666 24.004 57.9098C24.468 57.9098 24.8739 57.4555 24.7579 57.0012Z" fill="#E08235"/>
<path d="M29.0495 53.083C28.7595 52.6855 28.1796 52.5719 27.8316 52.9127C27.7157 52.9127 27.6577 52.9694 27.6577 53.0262V53.083C27.4837 53.4237 27.5997 53.8212 27.8896 54.0484C27.9476 54.1052 28.0056 54.2187 28.0056 54.2755C28.1216 54.4459 28.2956 54.5594 28.5276 54.5594C28.7595 54.5594 29.1075 54.3891 29.1075 54.1052C29.2815 53.7644 29.2815 53.3669 29.0495 53.083Z" fill="#E08235"/>
<path d="M31.7752 56.3766C31.7172 56.2063 31.6012 56.0359 31.4852 55.9223C31.3692 55.752 31.2532 55.6384 31.0792 55.5248C30.8473 55.4112 30.5573 55.4112 30.3253 55.5248C29.9774 55.6952 29.9194 56.0359 29.9774 56.3766C30.0353 56.6605 30.2093 56.8309 30.4413 56.9445C30.7313 57.1148 31.0212 57.058 31.2532 56.9445C31.5432 57.0013 31.8911 56.7741 31.7752 56.3766Z" fill="#E08235"/>
<path d="M34.2108 59.1023C34.0948 58.5345 33.6309 57.9098 32.9929 57.9098C32.703 57.9098 32.529 58.0802 32.413 58.2505C32.123 58.2505 31.8331 58.5913 32.123 58.8752C32.471 59.2159 32.9349 59.5566 33.3409 59.7838C33.8628 60.0109 34.3268 59.6134 34.2108 59.1023Z" fill="#E08235"/>
<path d="M36.9368 60.2948C36.5888 59.7838 36.0089 59.9541 35.8349 60.3516C35.6609 60.4084 35.545 60.6356 35.6609 60.8059C35.7189 60.9195 35.8349 61.0331 35.9509 61.1466C36.0089 61.2034 36.0669 61.2602 36.1829 61.317C36.2409 61.317 36.2409 61.3738 36.2989 61.3738C36.6468 61.5441 37.0528 61.1466 37.0528 60.8059C37.0528 60.5788 37.0528 60.4084 36.9368 60.2948Z" fill="#E08235"/>
<path d="M33.1091 60.0109C32.7031 60.0677 32.4132 60.2949 32.2972 60.6356C32.1812 60.7491 32.1232 60.9195 32.1812 61.0899C32.2972 61.6009 32.9351 61.8281 33.3991 62.0552C33.689 62.1688 34.037 61.9984 34.211 61.7145C34.6749 60.9195 34.037 59.8974 33.1091 60.0109Z" fill="#E08235"/>
<path d="M36.7047 61.8848C36.2407 61.7145 35.8348 61.9984 35.5448 62.3391L35.4868 62.3959C35.4868 62.3959 35.4868 62.4527 35.4288 62.4527C35.1968 62.6799 35.1388 63.0774 35.3128 63.3613C35.6608 63.8156 36.0667 63.9291 36.5887 64.0995C37.1106 64.2699 37.8065 63.8156 37.7486 63.2477C37.7486 62.4527 37.3426 62.112 36.7047 61.8848Z" fill="#E08235"/>
<path d="M41.8081 63.2477C41.5181 62.7934 40.8222 62.7934 40.5322 63.2477C40.4163 63.4181 40.4163 63.5884 40.4163 63.702C40.4163 63.8723 40.5322 64.0427 40.6482 64.0995C40.7642 64.2131 40.9382 64.2698 41.1702 64.2698C41.5181 64.2698 41.8661 64.0427 41.9241 63.6452C41.9821 63.5316 41.9241 63.4181 41.8081 63.2477Z" fill="#E08235"/>
<path d="M31.6592 63.7588C30.8473 63.2477 29.6295 63.0774 28.7596 63.5316C28.7016 63.5884 28.6436 63.5884 28.5856 63.6452C28.0056 63.4749 27.3677 63.4181 26.7878 63.5884C26.2658 63.7588 26.0919 64.3834 26.4398 64.7809C27.0777 65.4624 28.3536 65.5192 29.1655 65.5759C30.0354 65.6327 31.4273 65.7463 31.9492 64.8377C32.1812 64.497 32.0652 64.0427 31.6592 63.7588Z" fill="#E08235"/>
<path d="M36.2986 64.6106C36.1826 64.2699 35.8347 64.1563 35.4867 64.0995C35.2547 64.0427 35.0808 64.0995 34.8488 64.1563C34.6168 64.2131 34.4428 64.5538 34.6168 64.7809C34.9068 65.2352 35.3707 65.292 35.8347 65.2352C36.1246 65.1784 36.1826 64.9513 36.1246 64.7242H36.1826C36.2406 64.7809 36.2986 64.7242 36.2986 64.6106Z" fill="#E08235"/>
<path d="M39.7783 64.1563C39.5464 64.0427 39.2564 64.0427 39.0824 64.1563C39.0244 64.1563 38.9084 64.1563 38.8504 64.2131C38.5605 64.3266 38.5025 64.6674 38.7924 64.8377C39.2564 65.1217 39.7203 65.0649 40.0103 64.6106C40.1263 64.4402 39.9523 64.2131 39.7783 64.1563Z" fill="#E08235"/>
<path d="M45.2297 65.5192C45.1717 65.5192 45.1137 65.4624 45.0557 65.4624C44.8818 65.1784 44.5338 65.0649 44.2438 65.1784C44.0699 65.1784 43.9539 65.1784 43.7799 65.292C43.5479 65.4056 43.4899 65.7463 43.7219 65.9167C44.1278 66.2574 44.4758 66.1438 44.9398 65.9734C45.0557 65.9167 45.1137 65.8031 45.1137 65.6895C45.1717 65.6895 45.1717 65.6895 45.2297 65.6895C45.2877 65.6327 45.2877 65.5192 45.2297 65.5192Z" fill="#E08235"/>
<path d="M27.2516 49.619C27.1356 49.5623 26.9036 49.5623 26.8456 49.7326C26.7296 49.9598 26.6716 50.2437 26.9036 50.4708C26.9616 50.5276 27.0196 50.5276 27.0776 50.4708C27.1356 50.698 27.1936 50.9251 27.3676 51.0955C27.4836 51.2091 27.6575 51.2091 27.7155 51.0387C27.8895 50.5276 27.7735 49.9598 27.2516 49.619Z" fill="#E08235"/>
<path d="M30.5574 53.7076C30.4994 53.5941 30.2095 53.5941 30.2095 53.7644C30.2095 53.8212 30.2095 53.878 30.2095 53.9348C30.2095 53.9348 30.2095 53.9348 30.2095 53.9916C30.2095 54.2755 30.2095 54.3891 30.4994 54.3891C30.5574 54.3891 30.6154 54.3323 30.6154 54.2755C30.6154 54.0483 30.6734 53.9348 30.5574 53.7076Z" fill="#E08235"/>
<path d="M28.4695 55.8655C28.3536 55.752 28.2376 55.6384 28.0636 55.5816C27.8896 55.5248 27.6576 55.6952 27.7156 55.9223C27.8316 56.2062 28.0056 56.4334 28.2956 56.4334C28.4695 56.4334 28.5855 56.263 28.5275 56.0927C28.5275 56.0927 28.5275 55.9791 28.4695 55.8655Z" fill="#E08235"/>
<path d="M33.5729 56.4334C33.341 56.263 33.109 56.2062 32.877 56.263C32.645 56.3198 32.587 56.4902 32.5291 56.6605C32.5291 56.9445 32.703 57.2284 32.993 57.342C33.167 57.3987 33.341 57.342 33.4569 57.2284H33.5149C33.6309 57.2284 33.8049 57.1148 33.8049 56.9445C33.7469 56.7741 33.7469 56.6037 33.5729 56.4334Z" fill="#E08235"/>
<path d="M35.9508 58.4209C35.7188 58.2505 35.3709 58.2505 35.2549 58.5345C35.1969 58.648 35.1969 58.8184 35.3129 58.932C35.3709 58.9888 35.4289 58.9888 35.4869 59.0455C35.6029 59.1023 35.6608 59.1023 35.7768 59.0455C35.8928 59.0455 35.9508 58.9888 36.0088 58.932C36.0088 58.8752 36.0668 58.8184 36.0668 58.7616C36.0668 58.648 36.0668 58.5345 35.9508 58.4209Z" fill="#E08235"/>
<path d="M42.3302 65.292C42.2142 65.2352 42.1562 65.2352 42.0982 65.3488C41.9242 65.3488 41.8083 65.4056 41.7503 65.5759C41.6923 65.6895 41.7503 65.8599 41.9242 65.8599C42.1562 65.8599 42.4462 65.9167 42.5622 65.6327C42.5622 65.4056 42.4462 65.3488 42.3302 65.292Z" fill="#E08235"/>
<path d="M46.3896 65.4056C46.1576 65.292 45.8677 65.4056 45.8677 65.6895C45.8677 65.8599 45.9837 65.9167 46.1576 65.9167C46.4476 66.0302 46.6796 65.5759 46.3896 65.4056Z" fill="#E08235"/>
<path d="M72.0227 62.0552C71.3267 61.6009 70.2829 61.7145 69.529 61.8848C69.065 61.8848 68.601 61.9984 68.2531 62.2256C67.8471 62.5095 67.9631 63.0206 68.3691 63.1909C68.5431 63.2477 68.775 63.3045 68.949 63.3613C69.065 63.5316 69.239 63.702 69.471 63.7588C70.2829 63.9291 71.1528 63.9859 71.8487 63.4749C72.0807 63.3045 72.1966 63.0774 72.2546 62.7934C72.3126 62.5095 72.2546 62.2256 72.0227 62.0552Z" fill="#E08235"/>
<path d="M74.5743 63.4749C74.5743 63.2477 74.4003 63.0206 74.1684 62.907C73.8204 62.6799 73.4725 62.7366 73.1245 63.0206C72.7185 63.3613 73.0665 64.0427 73.5304 63.9859C73.7044 63.9859 73.8784 63.9859 73.9944 63.8724C74.0524 63.8156 74.1684 63.8724 74.2264 63.8156C74.4583 63.7588 74.5743 63.6452 74.5743 63.4749Z" fill="#E08235"/>
<path d="M68.6592 64.497C68.4852 64.4402 68.3692 64.3834 68.1953 64.3266C68.1373 64.3266 68.0213 64.3266 67.9633 64.3266C67.9053 64.2699 67.7893 64.2131 67.6153 64.1563C67.0934 64.0427 66.9194 64.7809 67.3833 64.8945H67.4413C67.5573 65.0081 67.7313 65.1216 67.9053 65.0081C68.0793 64.8945 68.3692 64.6674 68.6012 64.6674C68.7752 64.6674 68.7752 64.5538 68.6592 64.497Z" fill="#E08235"/>
<path d="M18.9006 37.2397C18.3787 37.0125 17.7988 37.1261 17.5088 37.5804C17.2188 37.6372 17.1028 37.9779 17.2768 38.2618C17.7988 38.8297 18.6687 38.6025 19.0746 38.0347C19.3066 37.7507 19.1906 37.3532 18.9006 37.2397Z" fill="#E08235"/>
<path d="M10.0856 40.1926C10.3755 40.1926 10.6655 40.079 10.8975 39.9086C11.1294 39.6815 10.8395 39.284 10.5495 39.4543C10.3755 39.5679 10.2595 39.6815 10.0276 39.7383C9.79558 39.8518 9.85358 40.1926 10.0856 40.1926Z" fill="#963427"/>
<path d="M21.6843 37.9211C21.4523 37.9211 21.2783 37.8075 21.1624 37.694C20.7564 37.3533 20.2925 38.0347 20.7564 38.205C21.1044 38.3754 21.3943 38.4322 21.7423 38.3186C21.9743 38.3186 21.9163 37.9779 21.6843 37.9211Z" fill="#963427"/>
<path d="M41.5762 47.6883C43.6059 53.0262 49.2893 56.0927 54.9727 54.4459C55.0886 54.4459 55.0307 54.2755 54.9147 54.3323C49.1733 55.5816 43.8379 53.1398 41.5762 47.6883C41.6342 47.6315 41.5762 47.6315 41.5762 47.6883Z" fill="#CA8C52"/>
<path d="M58.9742 53.4237C54.1608 57.853 47.6655 57.058 43.374 52.5151C43.316 52.4583 43.2 52.5151 43.258 52.6287C47.0856 57.7962 54.5087 57.7962 58.9742 53.4237C59.0322 53.4237 58.9742 53.3669 58.9742 53.4237Z" fill="#CA8C52"/>
<path d="M60.4821 42.9751C60.888 44.4515 60.772 45.7576 60.1921 47.1772C60.1341 47.2908 60.3081 47.3476 60.3661 47.234C61.236 45.9279 61.236 44.2811 60.5401 42.9183C60.598 42.9183 60.4821 42.9183 60.4821 42.9751Z" fill="#CA8C52"/>
<path d="M61.7 44.054C61.8159 44.9058 61.8159 45.7008 61.7579 46.5526C61.7579 46.6094 61.8739 46.6094 61.8739 46.5526C62.1639 45.7576 62.1059 44.7922 61.7579 43.9972C61.7579 43.9972 61.7 43.9972 61.7 44.054Z" fill="#CA8C52"/>
<path d="M53.4649 41.6122C52.0151 40.3629 49.8113 40.9308 49.0574 42.5776C48.3035 44.3379 49.8693 46.0415 51.6671 45.7576C53.2909 45.5304 53.9289 42.8615 52.189 42.2369C51.5511 42.0097 50.5652 42.1801 50.3913 42.9183C50.2173 43.5429 50.4492 44.3379 51.2032 44.3379C51.3771 44.3379 51.4351 44.1676 51.3191 44.054C51.2032 43.9404 51.0872 43.7701 50.9712 43.6565C50.9132 43.0319 51.1452 42.6911 51.6671 42.6911C52.479 42.6344 52.711 43.6565 52.537 44.2244C52.1891 45.644 50.2753 45.4737 49.5793 44.4515C48.8834 43.4294 49.5214 42.1801 50.3913 41.5554C51.2612 40.9308 52.479 41.1579 53.2909 41.669C53.4649 41.7258 53.5229 41.669 53.4649 41.6122Z" fill="#BD3C25"/>
</svg>
