<svg width="90" height="90" viewBox="0 0 90 90" fill="none" xmlns="http://www.w3.org/2000/svg">
<path d="M76.9461 63.5363C69.6469 64.5132 62.1117 62.7975 56.0057 58.7849C52.8234 58.6907 49.7414 57.8649 46.9383 56.3553C46.1849 55.9512 45.4441 55.4998 44.6274 55.3316C43.6195 55.1626 42.5997 55.395 41.5606 55.5211C36.7922 56.1649 31.717 53.8443 29.2645 49.597C28.774 49.8195 28.4681 49.8893 27.9641 49.8048C26.3182 49.5155 24.7295 49.1909 23.1721 48.5713C21.6719 47.9166 19.9611 47.1548 19.1031 45.7113C17.9368 45.955 16.7704 46.1987 15.6225 46.1945C14.43 46.1783 13.2686 45.8672 12.3803 45.0729C10.8659 43.757 10.5667 41.3002 11.2889 39.3195C11.9033 37.5627 13.309 36.0684 15.0106 35.6142C16.7121 35.16 18.7162 35.8992 19.5236 37.5314C21.0743 35.3175 23.5714 34.2168 26.1149 33.8365C28.6904 33.5153 31.3452 34.3278 33.2178 36.0937C35.3686 34.1417 38.191 33.0777 41.0033 33.1233C43.8157 33.169 46.5159 34.3476 48.504 36.3973C51.7841 34.6973 55.8656 34.8303 58.9376 36.7658C62.0095 38.7013 64.0077 42.3212 64.087 46.1348C66.0009 46.496 67.7193 47.7654 68.6801 49.5398C69.6409 51.3142 69.7547 53.5695 69.0451 55.5031C73.1452 55.3882 76.9866 59.0974 76.9461 63.5363Z" fill="url(#paint0_linear)"/>
<path d="M19.1582 31.5679C19.0284 30.623 18.7832 29.3943 18.1755 28.6247C18.028 28.2818 17.7659 28.0093 17.3959 27.9607C17.2619 27.9248 17.0453 28.0185 16.9948 28.2072C16.951 28.5494 17.0091 28.8684 17.2266 29.1289C17.2906 29.2472 17.4566 29.3422 17.5906 29.3781C17.7246 29.414 17.814 29.438 17.9033 29.4619C18.0373 29.4978 18.1839 29.4866 18.2665 29.357C19.4776 31.8052 18.8296 35.4745 18.4975 37.9643C18.4916 38.165 18.6956 38.1185 18.7782 37.9889C19.5004 36.0082 19.4566 33.6705 19.1582 31.5679Z" fill="#BA4B24"/>
<path d="M12.9127 30.4C12.9566 30.0578 12.6945 29.7853 12.4517 29.6192C12.2984 29.4769 12.145 29.3347 11.9663 29.2868C11.8003 29.1918 11.6031 29.3918 11.5078 29.5685C11.3688 30.0875 11.4472 30.8669 11.9132 31.093C11.9452 31.1521 11.9452 31.1521 11.9773 31.2112C12.0733 31.3887 12.2647 31.3894 12.3919 31.2718C12.4619 31.1894 12.5318 31.107 12.5571 31.0127C12.6717 30.9422 12.7543 30.8127 12.7922 30.6711C13.4513 31.6062 14.0277 32.6708 14.4129 33.7348C14.8495 34.9642 14.7762 36.3098 15.0661 37.5504C15.0855 37.6568 15.2321 37.6455 15.2574 37.5511C15.6687 36.195 15.1225 34.4811 14.6413 33.2398C14.3134 32.1406 13.6991 31.2175 12.9127 30.4Z" fill="#BA4B24"/>
<path d="M62.0388 61.8173C62.4282 61.9722 62.8302 62.0799 63.2196 62.2348C65.913 60.58 68.2096 58.2626 69.8993 55.5298C69.574 55.4931 69.2487 55.4565 68.9107 55.4671C68.9739 55.2312 69.0692 55.0545 69.1324 54.8186C67.1814 57.6331 64.7829 59.9738 62.0388 61.8173Z" fill="#BA4B24"/>
<path d="M64.1761 46.1587C64.0868 46.1348 64.0421 46.1228 63.9528 46.0988C63.9578 45.544 63.9056 45.0243 63.8086 44.4927C63.2979 46.9347 62.2833 49.2922 60.9365 51.4595C59.2341 54.2395 56.8862 56.3915 54.6916 58.6856C55.1063 58.7462 55.5336 58.7595 55.9162 58.7609C55.9929 58.832 56.0822 58.856 56.1589 58.9271C58.4428 56.6569 60.4578 53.9606 61.9883 51.2863C62.992 49.6843 63.7404 47.9634 64.1761 46.1587Z" fill="#BA4B24"/>
<path d="M47.8777 35.8755C48.4095 39.6081 48.2848 43.4681 47.4454 47.1367C46.8774 49.6139 45.8628 51.9713 44.5927 54.2098C44.4023 54.5633 44.1671 54.9048 43.9767 55.2583C44.168 55.259 44.404 55.2717 44.6273 55.3315C44.7613 55.3674 44.8953 55.4033 45.074 55.4512C46.5345 52.8592 47.5989 49.9589 48.2368 47.3993C49.1782 43.7075 49.163 40.0122 48.4466 36.4324C48.2165 36.2191 48.0311 36.0177 47.8777 35.8755Z" fill="#BA4B24"/>
<path d="M32.9302 35.9155C32.7769 35.7732 32.6108 35.6782 32.4574 35.536C32.4828 38.1215 32.1701 40.7177 31.5001 43.2181C30.8175 45.7657 29.6107 47.7683 28.3019 49.7941C28.6272 49.8307 28.8884 49.7491 29.2196 49.585C29.2517 49.6441 29.2837 49.7033 29.3157 49.7624C30.5672 47.7718 31.4226 45.4727 32.0235 43.4089C32.8275 40.9444 33.0702 38.4306 32.9302 35.9155Z" fill="#BA4B24"/>
<path d="M14.9007 43.1695C14.7481 43.3814 14.4616 43.5575 14.1809 43.5328C14.0916 43.5089 13.9576 43.473 13.8809 43.4019C13.8042 43.3308 13.7402 43.2125 13.6635 43.1414L13.6315 43.0822C13.5354 42.9048 13.3061 43.0456 13.4022 43.223C13.4342 43.2822 13.4342 43.2822 13.4663 43.3413C13.5371 43.6131 13.8565 43.8504 14.0798 43.9103C14.5138 44.0771 14.985 43.7483 15.1881 43.3476C15.2833 43.1709 14.9959 42.9927 14.9007 43.1695Z" fill="#964740"/>
<path d="M16.6798 43.1406C16.0098 42.9611 15.4856 42.4161 15.3373 41.719C15.1696 40.9156 15.5117 39.996 16.1994 39.5735C16.6579 39.2918 17.2124 39.1876 17.7484 39.3312C18.0164 39.403 18.2271 39.51 18.4252 39.6642C19.0514 40.1859 19.3025 41.214 18.9536 41.9801C18.6047 42.7462 17.8024 43.2391 17.0498 43.1892C16.9032 43.2004 16.8138 43.1765 16.6798 43.1406Z" fill="white"/>
<path d="M17.6661 39.4608C17.8895 39.5206 18.1002 39.6276 18.2982 39.7818C18.8797 40.2916 19.0795 41.1542 18.7879 41.8851C18.5089 42.5688 17.7639 43.0265 17.056 42.9885C16.9667 42.9646 16.8647 42.9878 16.7753 42.9639C16.1947 42.8083 15.7025 42.3224 15.5415 41.6725C15.3932 40.9755 15.7101 40.1502 16.3084 39.7038C16.7222 39.4101 17.2195 39.3411 17.6661 39.4608ZM17.7673 39.0834C17.1866 38.9278 16.5874 39.02 16.0716 39.3369C15.3139 39.8418 14.9465 40.8558 15.1463 41.7183C15.3266 42.4746 15.8828 43.0787 16.6422 43.2821C16.7762 43.3181 16.8655 43.342 16.9675 43.3187C17.8094 43.3926 18.7264 42.8293 19.1005 41.9688C19.4747 41.1084 19.2489 39.986 18.546 39.3931C18.3353 39.2861 18.0799 39.1671 17.7673 39.0834Z" fill="#BA4B24"/>
<path d="M16.1428 42.6427C16.4361 42.6202 16.6974 42.5385 16.9713 42.4096C17.5444 42.0575 17.8933 41.2914 17.8343 40.6183C17.8014 40.2049 17.6219 39.8029 17.3724 39.4832C17.0024 39.4347 16.5945 39.5276 16.2954 39.7508C15.7096 40.1501 15.3481 40.9634 15.5285 41.7196C15.5866 42.0386 15.8361 42.3583 16.1428 42.6427Z" fill="#964740"/>
<path d="M12.0988 42.0142C11.4288 41.8346 10.9046 41.2897 10.7562 40.5926C10.5885 39.7892 10.9307 38.8695 11.6184 38.447C12.0768 38.1654 12.6314 38.0611 13.1674 38.2048C13.4354 38.2766 13.6461 38.3836 13.8441 38.5378C14.4703 39.0595 14.7215 40.0875 14.3726 40.8537C14.0237 41.6198 13.2213 42.1127 12.4688 42.0627C12.3348 42.0268 12.1881 42.0381 12.0988 42.0142Z" fill="white"/>
<path d="M13.0848 38.3343C13.3082 38.3942 13.5189 38.5012 13.7169 38.6554C14.2984 39.1652 14.4982 40.0277 14.2066 40.7586C13.9276 41.4424 13.1826 41.9001 12.4747 41.8621C12.3854 41.8381 12.2834 41.8614 12.194 41.8374C11.6134 41.6819 11.1212 41.196 10.9602 40.5461C10.8119 39.849 11.1288 39.0238 11.7271 38.5773C12.1409 38.2837 12.6382 38.2147 13.0848 38.3343ZM13.186 37.9569C12.6053 37.8013 12.0061 37.8936 11.4903 38.2105C10.7327 38.7154 10.3652 39.7293 10.565 40.5919C10.7453 41.3481 11.3015 41.9522 12.0609 42.1557C12.1949 42.1916 12.2842 42.2156 12.3862 42.1923C13.2281 42.2662 14.1451 41.7029 14.5192 40.8424C14.8934 39.9819 14.6676 38.8596 13.9647 38.2667C13.754 38.1597 13.4986 38.0407 13.186 37.9569Z" fill="#BA4B24"/>
<path d="M11.5742 41.4692C11.8675 41.4466 12.1288 41.3649 12.4027 41.2361C12.9758 40.884 13.3247 40.1179 13.2657 39.4447C13.2328 39.0314 13.0533 38.6293 12.8038 38.3097C12.4338 38.2611 12.0259 38.3541 11.7268 38.5773C11.141 38.9766 10.7795 39.7898 10.9599 40.5461C11.0054 40.9122 11.2548 41.2319 11.5742 41.4692Z" fill="#964740"/>
<path d="M19.6154 43.9776C19.5143 44.355 19.1705 44.5663 18.8131 44.4706C18.4558 44.3748 18.2636 44.0199 18.3648 43.6425C18.4659 43.2651 18.8097 43.0538 19.1671 43.1496C19.5244 43.2453 19.7166 43.6002 19.6154 43.9776Z" fill="#F07483"/>
<path d="M12.9437 40.8247C13.2643 40.9107 13.5979 40.7057 13.6887 40.367C13.7794 40.0283 13.593 39.6841 13.2723 39.5981C12.9516 39.5122 12.6181 39.7171 12.5273 40.0558C12.4366 40.3946 12.623 40.7388 12.9437 40.8247Z" fill="white"/>
<path d="M17.4805 41.9393C17.8012 42.0252 18.1348 41.8203 18.2255 41.4816C18.3163 41.1428 18.1299 40.7986 17.8092 40.7127C17.4885 40.6267 17.1549 40.8317 17.0642 41.1704C16.9734 41.5091 17.1598 41.8533 17.4805 41.9393Z" fill="white"/>
<path d="M13.1966 37.2013C13.05 37.2126 12.948 37.2359 12.8207 37.3534C12.5662 37.5886 12.8797 38.0266 13.1663 37.8506C13.5936 37.8639 13.6239 37.2147 13.1966 37.2013Z" fill="#964740"/>
<path d="M17.8168 38.5404C17.7274 38.5164 17.6954 38.4573 17.6634 38.3982C17.4965 37.9489 16.9234 38.301 17.2049 38.6798C17.3136 38.8101 17.4797 38.9051 17.6583 38.953C17.8943 38.9657 18.0721 38.6594 17.8168 38.5404Z" fill="#964740"/>
<path d="M20.0793 38.1354C20.9466 40.7949 20.8505 43.2974 19.1726 45.6288C19.09 45.7584 19.288 45.9126 19.3706 45.783C21.03 43.6994 21.6343 40.3723 20.1813 38.1121C20.092 38.0882 20.0473 38.0762 20.0793 38.1354Z" fill="#BA4B24"/>
<path d="M15.5311 37.4223C15.5109 36.9618 15.446 36.4893 15.4704 36.0408C15.4502 35.5803 15.5766 35.1085 15.6457 34.6719C15.671 34.5776 15.5243 34.5888 15.5117 34.636C15.0482 35.4725 15.0701 36.6414 15.4738 37.4575C15.4738 37.4575 15.5758 37.4342 15.5311 37.4223Z" fill="#964740"/>
<path d="M16.187 36.9407C16.3134 36.4689 16.3505 35.9732 16.4895 35.4542C16.6412 34.8881 16.9143 34.4051 17.1106 33.8509C17.1233 33.8037 17.0466 33.7326 17.0339 33.7798C16.2704 34.4853 15.8785 35.9479 16.0976 36.9167C16.085 36.9639 16.1743 36.9878 16.187 36.9407Z" fill="#964740"/>
<path d="M66.942 56.2037C65.645 57.8282 64.2393 59.3224 62.7122 60.7335C62.6549 60.7687 62.7316 60.8399 62.7889 60.8046C64.4888 59.6421 65.8431 57.9824 67.0634 56.2868C67.076 56.2396 66.9547 56.1565 66.942 56.2037Z" fill="#5B1412"/>
<path d="M69.3145 58.9631C69.3272 58.9159 69.2825 58.9039 69.2378 58.892C67.8574 60.2919 66.5789 61.6685 64.8403 62.6184C64.7956 62.6065 64.8276 62.6656 64.815 62.7128C64.8597 62.7248 64.9043 62.7367 64.949 62.7487C66.7846 62.3304 68.3361 60.4707 69.3145 58.9631Z" fill="#5B1412"/>
<path d="M69.7404 63.6281C69.8297 63.652 69.9764 63.6407 70.0657 63.6647C71.9813 62.0542 73.5067 59.9347 74.164 57.4815C74.132 57.4224 74.0427 57.3984 74.0107 57.3393C72.9901 59.8974 71.5852 61.7458 69.7404 63.6281Z" fill="#BA4B24"/>
<path d="M57.3654 59.6043C57.4101 59.6163 57.4101 59.6163 57.4421 59.6754C58.4922 58.7938 59.3442 57.758 60.1769 56.6158C61.1494 55.3089 61.6492 53.6225 62.8518 52.5289C62.8644 52.4817 62.8198 52.4698 62.8198 52.4698C61.8523 53.2218 61.2682 54.3295 60.6968 55.3899C59.7951 56.9686 58.5739 58.31 57.3654 59.6043Z" fill="#5B1412"/>
<path d="M53.8944 58.6236C56.8533 55.978 59.3513 52.5516 60.3558 48.6239C60.3685 48.5767 60.2791 48.5528 60.2665 48.6C58.9813 52.503 56.6426 55.871 53.6584 58.6109C53.7157 58.5757 53.805 58.5996 53.8944 58.6236Z" fill="#5B1412"/>
<path d="M46.1652 45.125C45.0958 48.5803 43.7735 52.979 41.0312 55.5309C41.1331 55.5077 41.2225 55.5316 41.2798 55.4964C42.2405 54.5909 42.9072 53.3537 43.5611 52.1637C44.8758 49.9371 45.6486 47.7677 46.1652 45.125C46.2099 45.137 46.1652 45.125 46.1652 45.125Z" fill="#5B1412"/>
<path d="M29.1066 39.644C29.0687 42.4655 28.5707 47.5402 25.7811 49.0176C25.6665 49.088 25.7499 49.3126 25.9092 49.2541C28.7561 47.7415 29.3241 42.5844 29.196 39.6679C29.1639 39.6088 29.1066 39.644 29.1066 39.644Z" fill="#5B1412"/>
<path d="M26.2152 43.8246C26.2278 43.7774 26.1385 43.7534 26.1132 43.8478C26.0837 44.8512 25.8882 45.7595 25.5014 46.6672C25.1525 47.4333 24.5929 48.0924 24.1673 48.7874C24.1546 48.8346 24.1867 48.8937 24.244 48.8585C25.6185 47.6593 26.2514 45.6546 26.2152 43.8246Z" fill="#BA4B24"/>
<path d="M30.2882 51.1354C31.4579 49.6285 32.283 47.9787 32.9227 46.1275C33.3533 44.8776 33.6626 43.5447 33.8699 42.235C34.0334 41.2675 33.8269 40.2514 34.0477 39.2487C33.5033 40.9232 33.6735 42.7891 33.2058 44.5347C32.5611 46.9408 31.5903 48.956 30.1921 50.9579C30.2241 51.0171 30.2562 51.0762 30.2882 51.1354Z" fill="#5B1412"/>
<path d="M46.3188 55.987C49.6975 52.8471 49.4025 46.8014 50.4003 42.7202C50.4129 42.673 50.3236 42.6491 50.3109 42.6963C48.9693 46.9887 49.4733 52.4331 46.1081 55.88C46.1402 55.9391 46.2295 55.963 46.3188 55.987Z" fill="#5B1412"/>
<path d="M75.8267 59.4945C75.7947 59.4353 75.7947 59.4353 75.7626 59.3762C75.1036 61.121 74.4437 62.5117 73.1905 63.794C73.2925 63.7708 73.4265 63.8067 73.5285 63.7834C74.7437 62.6427 75.4289 61.1576 75.8267 59.4945Z" fill="#5B1412"/>
<path d="M21.6658 37.3975C22.8625 36.5046 24.136 35.6828 25.4161 35.0145C25.5181 34.9913 25.4541 34.873 25.3647 34.8491C23.8031 35.1385 22.5423 35.9131 21.493 37.1489C21.3978 37.3257 21.5386 37.5151 21.6658 37.3975Z" fill="#5B1412"/>
<path d="M28.9607 34.6496C30.1279 34.7601 31.1173 35.1769 32.2087 35.5704C32.3427 35.6063 32.3933 35.4176 32.3166 35.3465C31.3331 34.729 30.1338 34.5594 28.9733 34.6024C28.884 34.5784 28.916 34.6376 28.9607 34.6496Z" fill="#BA4B24"/>
<path d="M35.6862 36.3505C35.6407 35.9844 35.194 35.8647 34.8949 36.0879C34.5957 36.3112 34.7052 36.7956 35.0879 36.797C35.1325 36.809 35.1772 36.8209 35.2345 36.7857C35.4578 36.8456 35.7124 36.6104 35.6862 36.3505Z" fill="#5B1412"/>
<path d="M27.564 37.0057C27.6087 37.0177 27.6087 37.0177 27.564 37.0057C27.7106 36.9945 27.7106 36.9945 27.564 37.0057Z" fill="#5B1412"/>
<path d="M28.0295 37.2317C27.9781 37.0663 27.7994 37.0184 27.6654 36.9825C27.5761 36.9585 27.3848 36.9578 27.3721 37.005C27.3148 37.0402 27.2575 37.0754 27.2002 37.1106C27.3148 37.0402 27.2129 37.0635 27.2002 37.1106C27.1429 37.1459 27.0536 37.1219 27.0089 37.1099C26.9642 37.098 26.9642 37.098 26.9642 37.098C27.0536 37.1219 26.8749 37.074 26.8176 37.1092C26.8682 36.9205 26.9634 36.7438 27.1227 36.6853C27.18 36.6501 27.1926 36.603 27.1606 36.5438C26.8858 36.3185 26.4333 36.3995 26.1788 36.6347C25.797 36.9875 25.7346 37.5775 26.0734 37.9211C26.3676 38.2528 26.8142 38.3725 27.2542 38.3387C27.4581 38.2922 27.6621 38.2457 27.8787 38.152C28.0759 37.952 28.1323 37.5627 28.0295 37.2317Z" fill="#5B1412"/>
<path d="M31.7953 35.8642C31.7312 35.7459 31.6225 35.6157 31.5011 35.5326C31.2458 35.4136 30.9205 35.377 30.6272 35.3995C30.2319 35.4453 29.9395 35.822 30.0296 36.2002C30.0878 36.5191 30.3179 36.7325 30.5606 36.8986C30.816 37.0176 31.2053 37.1725 31.4792 37.0437C31.6958 36.95 31.8804 36.7972 31.9562 36.5141C32.0194 36.2782 31.936 36.0536 31.7953 35.8642Z" fill="#5B1412"/>
<path d="M40.0369 36.9094C39.9206 36.2715 39.0845 35.9969 38.5485 35.8533C37.9552 35.7449 37.2026 35.6949 36.7576 36.2836C36.2174 37.049 36.6144 37.7116 37.3038 37.9974C37.6485 38.1404 38.1971 38.2368 38.6497 38.1558C39.4596 38.1706 40.2113 37.8663 40.0369 36.9094Z" fill="#5B1412"/>
<path d="M42.8238 34.3695C42.2296 33.907 41.2343 33.6908 40.5786 34.1725C40.2221 34.4309 39.9617 34.8668 40.1412 35.2688C40.2761 35.6589 40.5508 35.8842 40.8955 36.0272C40.9402 36.0391 41.0295 36.0631 41.0742 36.075C41.6616 36.3841 42.4142 36.4341 42.898 36.0581C43.5857 35.6356 43.3286 34.8082 42.8238 34.3695Z" fill="#5B1412"/>
<path d="M45.3233 37.0114C45.3283 36.4565 44.6389 36.1707 44.2892 36.5826C43.9968 36.9593 44.1957 37.4677 44.6676 37.493C44.8016 37.5289 44.9609 37.4705 45.0435 37.3409C44.9988 37.329 44.9415 37.3642 44.9415 37.3642C44.9988 37.329 45.0435 37.3409 45.0435 37.3409C45.1775 37.3768 45.3047 37.2592 45.3233 37.0114Z" fill="#5B1412"/>
<path d="M47.0047 38.7765C46.794 38.6695 46.5134 38.6448 46.2968 38.7385C46.1308 38.6434 45.9521 38.5956 45.7608 38.5949C45.4802 38.5702 45.149 38.7343 44.9838 38.9934C44.8059 39.2997 44.8388 39.7131 44.9989 40.0088C45.2552 40.482 46.0019 40.7326 46.4738 40.7579C46.9458 40.7833 47.2955 40.3713 47.4539 39.9587C47.6823 39.4637 47.3368 38.9666 47.0047 38.7765Z" fill="#5B1412"/>
<path d="M42.3313 39.2435C42.1392 38.8887 41.6672 38.8633 41.4001 39.1457C41.3301 39.2281 41.2475 39.3577 41.2096 39.4992C41.1152 40.0301 41.5433 40.3976 42.0338 40.1751C41.9319 40.1984 41.9192 40.2455 41.9765 40.2103C42.3524 40.0582 42.5361 39.5512 42.3313 39.2435Z" fill="#5B1412"/>
<path d="M46.8863 37.4302C46.7776 37.2999 46.6756 37.3231 46.497 37.2753C46.2736 37.2154 46.0065 37.4978 46.1346 37.7344C46.2627 37.9709 46.4287 38.066 46.6773 38.0315C46.9832 37.9618 47.0844 37.5843 46.8863 37.4302Z" fill="#5B1412"/>
<path d="M36.4324 38.927C36.2917 38.7375 36.1256 38.6425 35.877 38.677C35.4371 38.7108 35.4514 39.372 35.8787 39.3854C35.9807 39.3621 36.038 39.3269 36.1594 39.41C36.4274 39.4818 36.6052 39.1755 36.4324 38.927Z" fill="#5B1412"/>
<path d="M44.5874 41.365C44.5427 41.353 44.5427 41.353 44.4981 41.3411L44.4534 41.3291C44.4534 41.3291 44.4534 41.3291 44.4087 41.3171C44.3194 41.2932 44.2301 41.2692 44.0961 41.2333C43.7581 41.2439 43.6317 41.7157 43.9065 41.941C44.0725 42.0361 44.2511 42.0839 44.4551 42.0374C44.8183 41.9325 44.8301 41.5312 44.5874 41.365Z" fill="#5B1412"/>
<path d="M40.5922 39.8393C40.2854 39.5548 39.9534 39.3647 39.5522 39.6112C39.3356 39.7048 39.2472 40.0351 39.3753 40.2717C39.4393 40.39 39.484 40.4019 39.5607 40.473C39.8228 40.7455 40.2947 40.7709 40.5745 40.4413C40.7271 40.2294 40.7903 39.9935 40.5922 39.8393Z" fill="#5B1412"/>
<path d="M54.9882 38.6404C54.6805 38.0017 53.9465 37.7039 53.3338 37.4892C52.7658 37.2864 51.9618 37.071 51.376 37.4702C50.5931 38.0695 50.9842 38.9327 51.5783 39.3953C52.0191 39.7157 52.7725 40.1198 53.3203 39.8621C53.5437 39.922 53.7796 39.9346 54.0156 39.9473C54.7682 39.9972 55.3278 39.3382 54.9882 38.6404Z" fill="#5B1412"/>
<path d="M58.3628 39.0895C58.2852 38.6642 57.7998 38.3318 57.354 38.5663C57.252 38.5896 57.182 38.672 57.1121 38.7543C56.9596 38.9663 56.941 39.2141 57.0818 39.4035C57.2545 39.6521 57.5546 39.7831 57.8478 39.7605C58.2178 39.8091 58.4083 39.4556 58.3628 39.0895Z" fill="#5B1412"/>
<path d="M60.5542 40.7384C60.4775 40.6673 60.3309 40.6786 60.2162 40.749C60.1716 40.737 60.1716 40.7371 60.1143 40.7723C60.0123 40.7955 59.9423 40.8779 59.9617 40.9842C59.9685 41.1377 59.9879 41.244 60.1092 41.3271C60.1859 41.3982 60.3199 41.4341 60.3772 41.3989C60.4792 41.3757 60.5365 41.3405 60.6065 41.2581C60.791 41.1053 60.7649 40.8455 60.5542 40.7384Z" fill="#5B1412"/>
<path d="M59.0683 40.7449C58.6654 40.283 57.9255 40.1859 57.4417 40.5619C56.9706 40.8907 56.8063 41.5041 57.0498 42.0244C57.1013 42.1899 57.21 42.3201 57.376 42.4152C57.7595 42.7707 58.1867 42.7841 58.6326 42.5496C58.7919 42.4912 58.8744 42.3616 58.957 42.232L59.0143 42.1968C59.1736 42.1384 59.2882 42.068 59.3262 41.9264C59.5866 41.4906 59.3624 41.0765 59.0683 40.7449Z" fill="#5B1412"/>
<path d="M61.8351 43.1043C61.7196 42.8205 61.3496 42.772 61.0757 42.9008C60.4453 43.2881 60.9577 44.2345 61.5755 43.8943C61.5308 43.8824 61.5182 43.9296 61.4735 43.9176C61.8494 43.7655 61.9952 43.4 61.8351 43.1043Z" fill="#5B1412"/>
<path d="M66.2943 49.1534C66.274 48.6929 65.9799 48.3612 65.6032 48.1591C65.1371 47.9331 64.6786 48.2148 64.6289 48.7577C64.5851 49.0999 64.7705 49.3013 65.0259 49.4203L65.0579 49.4794C65.256 49.6336 65.524 49.7054 65.8172 49.6829C66.0659 49.6484 66.3524 49.4723 66.2943 49.1534Z" fill="#5B1412"/>
<path d="M67.5591 50.1496C67.5591 50.1496 67.5717 50.1024 67.5591 50.1496C67.4504 50.0193 67.227 49.9595 67.0804 49.9707C66.9784 49.994 66.9085 50.0764 66.8385 50.1588L66.7812 50.194C66.5966 50.3468 66.5208 50.6298 66.7635 50.796C66.8529 50.8199 66.8849 50.8791 66.9742 50.903C67.1402 50.9981 67.3889 50.9636 67.5161 50.846C67.726 50.5988 67.6998 50.339 67.5591 50.1496Z" fill="#5B1412"/>
<path d="M68.1184 52.1704C67.8883 51.9571 67.5757 51.8733 67.2891 52.0493C67.1745 52.1198 67.1046 52.2021 67.0666 52.3437C66.9141 52.5556 66.8956 52.8035 67.0363 52.9929C67.177 53.1823 67.3431 53.2773 67.5664 53.3372C67.7771 53.4442 68.0636 53.2682 68.1715 53.0442C68.292 52.7731 68.3359 52.4309 68.1184 52.1704Z" fill="#5B1412"/>
<path d="M66.1074 50.9236C65.75 50.8278 65.5983 51.394 65.9557 51.4897C66.313 51.5855 66.4647 51.0193 66.1074 50.9236Z" fill="#5B1412"/>
<path d="M71.4828 56.4091C71.2275 56.2901 70.9409 56.4662 70.7758 56.7253C70.6097 56.6302 70.4631 56.6415 70.2785 56.7943C70.1639 56.8647 70.0687 57.0415 70.1327 57.1598C70.287 57.6562 70.9511 58.0364 71.423 58.0617C71.761 58.0511 72.0602 57.8279 72.1613 57.4505C72.1984 56.9548 71.9169 56.576 71.4828 56.4091Z" fill="#5B1412"/>
<path d="M64.5255 56.1124C64.5566 55.8174 64.4985 55.4984 64.3131 55.297C64.0956 55.0365 63.7004 55.0823 63.3818 55.1992L63.3692 55.2464C63.6178 55.2118 63.9557 55.2013 64.0838 55.4379C64.1799 55.6153 64.2187 55.8279 64.1681 56.0167C64.1176 56.2054 64.067 56.3941 63.9397 56.5117C63.7998 56.6764 63.6144 56.4751 63.4804 56.4392C63.3911 56.4152 63.3085 56.5448 63.3405 56.6039C63.456 56.8877 63.826 56.9363 64.0999 56.8074C64.3291 56.6666 64.5069 56.3603 64.5255 56.1124Z" fill="#5B1412"/>
<path d="M53.232 45.5522C53.2564 45.1037 52.7137 44.8066 52.3504 44.9115L52.3378 44.9587C52.5738 44.9713 53.0398 45.1974 52.862 45.5037C52.8494 45.5508 52.6833 45.4558 52.6387 45.4438C52.4726 45.3488 52.3833 45.3248 52.1793 45.3713C52.0647 45.4417 51.9821 45.5713 52.0462 45.6896C52.219 45.9381 52.4423 45.998 52.7356 45.9754C53.0162 46.0001 53.2008 45.8473 53.232 45.5522Z" fill="#5B1412"/>
<path d="M36.1442 41.0746C36.0481 40.8972 35.6781 40.8486 35.4995 40.8007C35.4101 40.7768 35.3208 40.7529 35.2888 40.6937C35.2247 40.5754 35.384 40.517 35.4413 40.4818C35.5559 40.4113 35.5618 40.2107 35.4152 40.2219C34.9753 40.2558 34.7848 40.6092 34.9196 40.9993C35.0031 41.2239 35.2138 41.331 35.3924 41.3788C35.5264 41.4147 35.8964 41.4633 36.0683 41.3577C36.1703 41.3344 36.2082 41.1929 36.1442 41.0746Z" fill="#5B1412"/>
<path d="M46.4251 41.6551C46.3804 41.6431 46.3231 41.6783 46.3678 41.6903C46.4318 41.8086 46.5852 41.9508 46.5473 42.0924C46.522 42.1867 46.3627 42.2452 46.2608 42.2684C45.9995 42.3501 45.7315 42.2783 45.5082 42.2185C45.3295 42.1706 45.241 42.5008 45.4197 42.5487C45.7323 42.6325 46.1723 42.5987 46.4714 42.3754C46.8473 42.2233 46.6552 41.8684 46.4251 41.6551Z" fill="#5B1412"/>
<path d="M42.0461 42.4538C42.0268 42.3475 41.9947 42.2883 41.9054 42.2644C41.7714 42.2285 41.4528 42.3454 41.2489 42.3919C41.0449 42.4383 40.5924 42.5193 40.6488 42.13C40.6615 42.0828 40.6168 42.0708 40.5595 42.106C40.1213 42.8482 42.0352 43.2093 42.0461 42.4538Z" fill="#5B1412"/>
<path d="M53.3366 41.2316C53.2734 41.4675 52.6354 41.3471 52.4441 41.3464C52.1634 41.3218 51.4681 41.2366 51.4353 40.8233C51.4479 40.7761 51.3586 40.7522 51.3459 40.7994C51.2515 41.3303 51.973 41.6753 52.3177 41.8182C52.8284 42.0562 53.7276 42.0949 53.8726 41.3753C53.9863 40.9507 53.4057 40.7951 53.3366 41.2316Z" fill="#5B1412"/>
<path d="M70.8595 59.6299C70.7382 59.5468 70.6868 59.3814 70.5528 59.3454C70.5081 59.3335 70.5081 59.3335 70.4634 59.3215C70.4634 59.3215 70.4634 59.3215 70.4761 59.2743C70.5966 59.0032 70.3219 58.7779 70.1246 58.9779C69.9274 59.1779 69.8516 59.461 69.9797 59.6975C70.1272 60.0404 70.4651 60.0299 70.7711 59.9602C70.873 59.9369 70.9236 59.7482 70.8595 59.6299Z" fill="#5B1412"/>
<path d="M28.6491 34.92C28.521 34.6834 28.1122 34.4222 27.9218 34.7757C27.9091 34.8229 27.9538 34.8348 27.9538 34.8348C28.0558 34.8116 28.1771 34.8947 28.2538 34.9658C28.1965 35.001 28.1266 35.0834 28.1586 35.1425C28.1459 35.1897 28.178 35.2489 28.2226 35.2608C28.2547 35.32 28.344 35.3439 28.4586 35.2735C28.5159 35.2383 28.5859 35.1559 28.6432 35.1207C28.6558 35.0735 28.6811 34.9792 28.6491 34.92Z" fill="#5B1412"/>
<path d="M25.4433 35.6286C25.3986 35.6166 25.2899 35.4863 25.2453 35.4744C24.9258 35.2371 24.5635 35.6962 24.7109 36.0391L24.743 36.0982C24.807 36.2165 24.9284 36.2996 25.075 36.2883C25.209 36.3242 25.381 36.2186 25.4509 36.1362C25.6481 35.9362 25.6093 35.7236 25.4433 35.6286Z" fill="#5B1412"/>
<path d="M34.7222 35.8394C35.6012 35.4176 36.4162 34.8775 37.3145 34.562C38.2129 34.2465 39.2074 34.1085 40.1319 34.0528C40.2786 34.0415 40.2845 33.8408 40.1505 33.8049C38.2879 33.6093 35.9172 34.2381 34.6455 35.7683C34.5882 35.8035 34.6649 35.8746 34.7222 35.8394Z" fill="#5B1412"/>
<path d="M44.7064 35.0257C44.9558 35.3454 45.4472 35.477 45.7792 35.6671C46.22 35.9875 46.6481 36.355 47.1142 36.5811C47.2802 36.6761 47.4201 36.5113 47.3687 36.3459C47.1572 35.8847 46.697 35.458 46.2756 35.2439C45.8989 35.0419 45.2095 34.756 44.789 34.8962C44.687 34.9194 44.6617 35.0137 44.7064 35.0257Z" fill="#BA4B24"/>
<path d="M49.2512 37.002C50.6789 36.6766 52.1065 36.3513 53.5797 36.392C55.4801 36.4462 56.9617 37.3488 58.6153 38.1458C58.7366 38.2289 58.8892 38.017 58.7678 37.9339C56.5429 35.5174 51.9632 35.0993 49.2192 36.9428C49.1745 36.9309 49.2065 36.99 49.2512 37.002Z" fill="#5B1412"/>
<path d="M61.0108 39.7484C61.6437 40.4236 62.0795 41.2988 62.4832 42.1149C62.5346 42.2804 62.7638 42.1395 62.7571 41.986C62.4933 41.0052 61.8856 40.2356 61.1507 39.5836C61.0167 39.5477 60.9341 39.6773 61.0108 39.7484Z" fill="#BA4B24"/>
<path d="M66.4314 47.9259C66.8275 48.2343 67.1663 48.5779 67.3779 49.0391C67.5574 49.4412 67.6796 49.8785 67.8591 50.2805C67.9231 50.3988 68.1145 50.3995 68.1524 50.258C68.3985 49.1609 67.3821 48.1301 66.5267 47.7492C66.45 47.6781 66.3547 47.8548 66.4314 47.9259Z" fill="#BA4B24"/>
<path d="M13.9165 36.838C14.1011 36.6852 14.375 36.5563 14.4061 36.2613C14.4314 36.1669 14.3547 36.0958 14.2528 36.119C14.0041 36.1535 13.839 36.4127 13.6864 36.6246C13.5592 36.7422 13.7446 36.9436 13.9165 36.838Z" fill="#964740"/>
<path d="M17.0467 36.4125C17.5001 36.6857 17.9729 37.0652 18.3564 37.4208C18.7399 37.7764 18.9961 38.2495 19.2776 38.6283C19.3416 38.7466 19.5135 38.641 19.5068 38.4875C19.2489 37.306 18.1693 36.511 17.0846 36.271C17.0273 36.3062 17.0021 36.4005 17.0467 36.4125Z" fill="#964740"/>
<path d="M17.1486 28.3495C17.2 28.515 17.1941 28.7156 17.2455 28.8811C17.2969 29.0466 17.259 29.1881 17.425 29.2832C17.4697 29.2951 17.559 29.3191 17.5843 29.2247C17.6669 29.0952 17.6475 28.9888 17.5834 28.8705C17.5447 28.6579 17.4486 28.4805 17.4098 28.2678C17.3011 28.1375 17.0971 28.184 17.1486 28.3495Z" fill="#964740"/>
<path d="M11.4638 29.9108C11.5025 30.1235 11.6829 30.8797 11.7023 30.986C11.7217 31.0924 11.843 31.1754 11.9197 31.2466C11.9964 31.3177 12.111 31.2472 12.1363 31.1529C12.1995 30.917 12.1481 30.7515 12.0647 30.5269C11.9812 30.3023 11.8978 30.0777 11.8144 29.8531C11.7562 29.5341 11.393 29.639 11.4638 29.9108Z" fill="#964740"/>
<defs>
<linearGradient id="paint0_linear" x1="40.4697" y1="67.2523" x2="56.3739" y2="-4.71883" gradientUnits="userSpaceOnUse">
<stop stop-color="#FFBD8E"/>
<stop offset="0.1151" stop-color="#FBB789"/>
<stop offset="0.2719" stop-color="#F0A57C"/>
<stop offset="0.4528" stop-color="#DE8966"/>
<stop offset="0.6515" stop-color="#C56148"/>
<stop offset="0.8625" stop-color="#A42E22"/>
<stop offset="1" stop-color="#8D0906"/>
</linearGradient>
</defs>
</svg>
