<svg width="180" height="180" viewBox="0 0 180 180" fill="none" xmlns="http://www.w3.org/2000/svg">
<path d="M91.3243 122.434C92.9735 122.73 94.9148 122.63 96.6627 122.235C97.2453 122.136 97.344 121.446 97.0536 121.15C98.7108 118.192 100.563 114.838 101.639 111.584C102.317 111.781 102.997 111.781 103.579 111.879C105.714 112.075 107.848 112.173 109.984 111.877C110.664 111.778 116.781 110.691 115.135 108.916C115.525 108.423 115.332 107.733 114.75 107.635C112.034 107.241 109.315 107.933 106.596 108.328C105.334 108.526 103.975 108.724 102.616 108.823C101.645 108.823 100.772 108.824 99.8975 109.218C99.5088 109.416 99.3135 109.909 99.5066 110.303C98.628 112.374 98.0404 114.544 97.3559 116.615C96.8672 117.995 96.1842 119.474 95.8894 120.954C94.3364 121.053 92.7821 121.645 91.4224 122.04C91.0339 122.139 91.1302 122.435 91.3243 122.434Z" fill="#540200"/>
<path d="M125.309 123.712C126.862 123.121 128.514 122.036 129.778 120.853C130.264 120.458 129.975 119.768 129.587 119.67C129.595 116.221 129.508 112.476 128.837 109.125C129.516 108.928 130.099 108.632 130.682 108.336C132.624 107.448 134.567 106.364 136.219 105.082C136.705 104.687 141.565 100.645 139.239 99.9558C139.337 99.3644 138.853 98.8719 138.271 99.0692C135.746 100.154 133.704 102.126 131.566 103.901C130.497 104.69 129.524 105.577 128.359 106.366C127.581 106.859 126.707 107.254 126.22 108.141C125.928 108.535 126.024 109.028 126.411 109.225C126.697 111.393 127.274 113.659 127.753 115.729C128.041 117.207 128.231 118.784 128.616 120.163C127.352 121.051 126.282 122.332 125.213 123.417C125.018 123.614 125.212 123.811 125.309 123.712Z" fill="#540200"/>
<path d="M78.5461 99.8501C78.3532 99.3571 77.8681 99.2586 77.3826 99.3574C75.4397 100.048 73.8831 101.528 72.0371 102.318C69.9969 103.108 67.957 103.799 65.8205 104.293C63.8781 104.786 61.935 105.576 59.9933 105.774C59.8962 105.774 59.8965 105.675 59.7994 105.675C59.6056 105.577 59.4112 105.676 59.3139 105.774C59.0227 105.774 59.0218 106.169 59.3129 106.169C59.3129 106.169 59.3129 106.169 59.4097 106.267C59.5066 106.366 59.7002 106.563 59.797 106.662C57.0786 106.958 54.4563 107.65 51.6416 107.651C50.9622 107.651 50.5721 108.44 50.6677 109.032C49.4028 110.314 48.0408 111.597 46.9698 112.978C46.3857 113.668 45.9958 114.359 45.3149 114.951C44.8284 115.444 44.3422 115.839 44.0496 116.43C43.7572 116.924 44.3376 117.712 44.9209 117.318C46.6709 116.134 48.0338 114.457 49.5904 112.977C50.6604 111.99 51.8276 111.004 52.6069 109.82C56.294 110.312 59.4974 110.113 63.0917 108.83C63.6734 109.125 64.255 109.421 64.3523 109.322C67.8481 108.631 71.4444 106.558 74.458 104.585C75.4298 104.092 79.4153 101.625 78.5461 99.8501Z" fill="#540200"/>
<path d="M64.9564 105.801C68.4561 103.63 72.9219 103.333 76.9969 104.121C81.0719 104.908 84.8536 106.584 88.8301 107.964C95.7158 110.526 102.992 112.299 110.368 112.494C117.745 112.689 126.676 112.291 133.188 108.837C140.964 104.593 147.485 97.0943 151.581 89.2019C140.301 97.5898 122.343 97.7929 108.662 95.3315C94.9814 92.87 81.8899 87.5478 68.2096 84.8891C71.8829 91.2993 70.695 100.966 64.9564 105.801Z" fill="#230403"/>
<path d="M92.6027 109.227C92.8015 107.256 92.6128 105.187 92.3262 103.512C91.8507 99.8658 90.3074 96.9101 87.794 94.2504C87.6976 94.0534 87.4063 94.2506 87.5027 94.4477C89.0468 97.1077 90.1054 100.162 90.6792 103.217C91.0622 105.089 90.8639 106.863 90.6656 108.637C91.3436 108.834 91.9247 109.031 92.6027 109.227Z" fill="#540200"/>
<path d="M98.5726 94.6441C98.3793 94.4471 97.9911 94.6443 98.1842 94.9399C100.308 98.2893 101.947 101.54 102.034 105.679C102.126 107.65 101.637 109.621 100.954 111.493C101.341 111.592 101.825 111.69 102.213 111.69C102.799 109.916 103.095 107.945 103.195 106.368C103.399 102.23 101.764 97.3033 98.5726 94.6441Z" fill="#540200"/>
<path d="M109.834 96.4167C109.64 96.3182 109.446 96.5154 109.543 96.7125C111.085 99.8653 112.92 102.525 113.493 106.171C113.875 108.536 113.579 110.606 113.089 112.675C113.67 112.675 114.349 112.675 114.93 112.675C116.108 106.86 114.189 99.2726 109.834 96.4167Z" fill="#540200"/>
<path d="M123.964 111.887C124.259 110.113 124.361 108.339 124.171 106.664C123.793 102.82 122.057 99.2735 119.35 96.614C119.156 96.6141 118.962 96.6142 118.769 96.6143C121.087 99.5696 122.63 102.92 122.911 106.763C123.1 108.734 122.805 110.508 122.316 112.183C122.801 112.084 123.382 111.985 123.964 111.887Z" fill="#540200"/>
<path d="M134.849 108.044C134.852 107.157 134.757 106.369 134.662 105.581C134.186 102.23 132.933 99.077 130.904 96.5156C130.516 96.5158 130.225 96.6145 129.838 96.6147C131.576 99.3733 132.828 102.428 133.207 105.778C133.301 106.862 133.396 107.947 133.296 108.932C133.782 108.636 134.267 108.34 134.849 108.044Z" fill="#540200"/>
<path d="M143.896 100.459C143.32 98.2912 142.259 96.2218 141.003 94.5468C140.615 94.6456 140.323 94.7443 139.935 94.8431C140.805 96.0254 141.577 97.405 142.058 98.7847C142.444 99.6716 142.635 100.657 142.827 101.544C143.216 101.248 143.508 100.854 143.896 100.459Z" fill="#540200"/>
<path d="M64.9448 105.785C67.3732 104.306 70.0905 103.714 72.9033 103.713C76.6006 98.9811 76.4266 90.8018 73.0429 86.27C72.9464 86.073 72.7527 85.9745 72.6561 85.7774C71.1052 85.3838 69.554 85.0888 68.0029 84.7938C71.8667 91.2963 70.6792 100.954 64.9448 105.785Z" fill="#540200"/>
<path d="M113.592 102.056C98.8385 101.864 84.8753 95.8521 71.2999 90.0372C71.8898 86.8807 71.1213 83.5274 69.0888 81.0623C67.0563 78.5971 62.6902 77.8095 59.487 77.8106C75.4206 71.6899 93.8728 67.7384 110.759 69.2122C127.645 70.5875 144.423 76.8944 157.209 88.1344C143.988 96.2268 129.025 102.249 113.592 102.056Z" fill="url(#paint0_linear)"/>
<path d="M93.9702 107.138C93.7772 106.645 93.2922 106.547 92.8066 106.646C90.8638 107.337 89.3072 108.816 87.4611 109.606C85.421 110.396 83.3811 111.087 81.2445 111.581C79.3022 112.074 77.359 112.864 75.4174 113.062C75.3203 113.062 75.3206 112.964 75.2235 112.964C75.0296 112.865 74.8353 112.964 74.738 113.062C74.4468 113.062 74.4458 113.457 74.737 113.457C74.737 113.457 74.737 113.457 74.8338 113.555C74.9306 113.654 75.1243 113.851 75.2211 113.95C72.5027 114.247 69.8804 114.938 67.0657 114.939C66.3863 114.939 65.9961 115.728 66.0918 116.32C64.8268 117.602 63.4649 118.885 62.3939 120.266C61.8098 120.956 61.4199 121.647 60.739 122.239C60.2525 122.732 59.7663 123.127 59.4736 123.718C59.1813 124.212 59.7617 125 60.345 124.606C62.095 123.422 63.4579 121.745 65.0144 120.265C66.0845 119.278 67.2516 118.292 68.031 117.108C71.718 117.6 74.9215 117.401 78.5158 116.118C79.0974 116.414 79.6791 116.709 79.7764 116.61C83.2722 115.919 86.8684 113.847 89.8821 111.873C90.8541 111.281 94.7423 108.913 93.9702 107.138Z" fill="#540200"/>
<path d="M136.641 129.715C135.576 128.729 134.318 127.547 133.059 126.759C133.354 125.281 133.454 123.704 133.555 122.225C133.851 120.057 134.245 117.79 134.347 115.622C134.639 115.326 134.737 114.833 134.447 114.439C133.867 113.651 132.995 113.355 132.22 112.863C131.057 112.272 129.992 111.484 128.83 110.696C126.603 109.12 124.473 107.347 121.856 106.461C121.274 106.264 120.884 106.855 120.98 107.348C118.65 108.236 123.782 111.881 124.364 112.275C126.107 113.457 128.142 114.343 130.08 115.032C130.662 115.229 131.34 115.524 132.019 115.622C131.526 119.072 131.807 122.817 131.993 126.267C131.508 126.366 131.312 127.056 131.796 127.45C133.151 128.533 134.895 129.42 136.543 129.912C136.64 130.109 136.738 129.912 136.641 129.715Z" fill="#540200"/>
<path d="M157.742 117.402C156.385 116.811 154.931 116.023 153.476 115.63C153.383 114.151 152.999 112.574 152.711 111.095C152.329 108.926 152.14 106.659 151.66 104.49C151.952 104.096 151.76 103.603 151.372 103.406C150.597 102.913 149.627 102.716 148.754 102.618C147.493 102.323 146.232 101.929 144.972 101.535C142.354 100.748 139.834 99.5658 137.019 99.567C136.437 99.5672 136.144 100.257 136.434 100.75C134.49 102.328 140.404 104.298 141.083 104.495C143.119 105.085 145.253 105.38 147.388 105.478C147.97 105.478 148.649 105.576 149.329 105.477C149.806 108.927 151.156 112.377 152.312 115.63C151.923 115.926 151.922 116.518 152.503 116.813C154.054 117.404 155.994 117.797 157.741 117.797C157.838 117.797 157.936 117.501 157.742 117.402Z" fill="#540200"/>
<path d="M82.6846 73.8656C83.3621 74.5554 84.0402 75.048 84.7179 75.6392C85.3957 76.2304 85.9762 76.9203 86.654 77.5115C86.8479 77.61 87.0422 77.5113 86.9457 77.3142C86.0762 75.7372 84.4302 74.2592 82.6851 73.6685C82.6851 73.6685 82.6848 73.767 82.6846 73.8656Z" fill="#A84C38"/>
<path d="M86.1868 72.3871C90.1581 74.9481 92.4775 78.594 94.1158 83.0286C94.2123 83.2257 94.4066 83.1271 94.3101 82.93C93.3511 78.3965 90.1588 74.6524 86.284 72.2885C86.187 72.2886 86.1868 72.3871 86.1868 72.3871Z" fill="#A84C38"/>
<path d="M88.9139 70.0217C94.1388 75.3413 97.2287 81.056 98.9568 88.348C98.9563 88.5451 99.2475 88.4465 99.2478 88.3479C98.5864 81.154 94.7236 74.1585 89.0111 69.9231C88.9143 69.8246 88.8171 69.9232 88.9139 70.0217Z" fill="#A84C38"/>
<path d="M94.7393 70.7117C99.1892 75.7362 101.892 81.2542 104.787 87.2648C104.884 87.4619 105.175 87.3632 105.176 87.0676C103.348 80.7608 99.3847 75.1448 94.9338 70.5146C94.8368 70.5146 94.6426 70.6132 94.7393 70.7117Z" fill="#A84C38"/>
<path d="M98.7209 70.1208C104.53 74.5534 108.202 80.5637 109.445 87.8561C109.445 87.9547 109.639 87.9546 109.639 87.856C108.978 80.4648 105.017 73.8633 98.8184 69.9237C98.7219 69.7266 98.6242 70.0223 98.7209 70.1208Z" fill="#A84C38"/>
<path d="M104.739 71.1058C108.704 76.0316 111.409 80.5637 112.654 86.9687C112.654 87.1658 113.041 87.1657 113.042 86.8701C112.669 80.9574 109.775 74.3559 104.934 70.9086C104.74 70.9087 104.74 71.0072 104.739 71.1058Z" fill="#A84C38"/>
<path d="M110.469 71.0066C112.79 73.962 114.916 76.819 116.557 80.2673C118.197 83.7157 118.576 87.3616 119.246 91.0074C119.246 91.2045 119.634 91.2044 119.634 90.9088C119.943 83.7151 115.987 75.3404 110.567 70.8095C110.47 70.8096 110.372 70.9081 110.469 71.0066Z" fill="#A84C38"/>
<path d="M115.713 71.1058C120.551 76.0311 122.96 82.1397 123.526 89.0374C123.525 89.2345 123.719 89.2345 123.817 89.0373C123.93 82.1394 120.94 75.6367 115.908 70.9086C115.811 70.8101 115.617 71.0073 115.713 71.1058Z" fill="#A84C38"/>
<path d="M121.826 72.0913C124.725 76.2291 126.751 80.6627 128 85.5894C128 85.7865 128.291 85.6879 128.291 85.4908C127.625 80.3668 125.502 75.7361 122.117 71.7956C122.021 71.6971 121.729 71.9928 121.826 72.0913Z" fill="#A84C38"/>
<path d="M70.1512 77.9166C78.6986 76.2372 86.7623 73.7684 95.5018 72.977C99.5803 72.5814 103.658 72.5806 107.638 72.6784C112.201 72.7761 116.955 74.1567 121.422 73.6623C121.81 73.6622 122.103 72.9714 121.618 72.7741C118.418 71.0972 114.535 70.9993 111.041 70.704C105.799 70.2117 100.557 70.2128 95.4103 70.5099C86.8657 71.0052 77.2508 72.4875 69.4752 76.3378C68.6003 76.8314 69.277 78.1142 70.1512 77.9166Z" fill="#F4DBC0"/>
<path d="M64.227 77.5991C70.0453 79.174 72.1647 85.3838 72.3451 90.9043C72.4363 93.2702 71.5596 94.6508 71.166 96.8197C71.8563 92.3832 69.9268 87.8493 66.6349 84.8932C63.343 81.9371 54.9942 83.4193 50.6273 83.5197C52.0853 82.5333 57.432 78.5878 59.0834 77.897C60.8317 77.2062 62.5784 77.2055 64.227 77.5991Z" fill="#290000"/>
<path d="M46.2519 88.3461C44.7893 91.2055 43.5201 94.3606 44.0942 97.6134C44.6689 100.669 46.8945 103.133 49.5108 104.61C52.127 106.088 55.1334 106.777 58.1402 107.268C61.2441 107.76 64.6415 107.266 67.266 105.392C72.8067 101.446 73.3171 91.2922 69.3514 86.1677C66.5467 82.4229 61.1179 80.355 56.5553 81.1455C52.3809 81.9359 48.2016 84.6979 46.2519 88.3461Z" fill="#1A0000"/>
<path d="M25.7532 50.5174C34.7751 50.9079 42.7244 53.4673 49.4029 59.8714C57.0494 67.1621 58.0927 76.821 58.1647 86.8747C58.1642 87.0718 58.4551 87.1703 58.5528 86.8745C64.1307 67.652 44.291 47.7499 25.7539 50.2217C25.5599 50.2217 25.5591 50.5174 25.7532 50.5174Z" fill="black"/>
<path d="M55.7456 85.3946C47.6363 67.2508 23.7759 60.257 8.02067 73.1823C7.82607 73.3796 8.11631 73.774 8.31091 73.5767C25.1291 62.6235 46.1808 67.054 55.3569 85.592C55.5503 85.8878 55.8419 85.6904 55.7456 85.3946Z" fill="black"/>
<path d="M60.425 85.7809C59.4528 86.5699 58.7704 87.8517 58.5732 89.1333C58.1789 91.5978 59.7246 94.3573 62.0514 95.1449C64.3779 96.0311 67.2915 94.9456 68.5585 92.6778C69.8253 90.5086 69.2509 87.3545 67.3142 85.7781C65.4748 84.1031 62.3698 84.1044 60.425 85.7809Z" fill="white"/>
<path d="M60.4241 85.7812C59.452 86.5701 58.7698 87.8516 58.5726 89.133C58.1785 91.5971 59.7239 94.3561 62.0502 95.1436C62.341 95.2421 62.7288 95.3405 63.0199 95.3404C63.9917 94.6501 64.77 93.7627 65.3545 92.7769C66.427 90.6081 66.2397 87.8485 64.8867 85.7794C64.5969 85.2867 64.2098 84.8926 63.8225 84.5971C62.5615 84.499 61.3964 84.8938 60.4241 85.7812Z" fill="#95412E"/>
<path d="M67.2069 90.0171C67.5923 91.1013 67.0072 92.2844 65.9389 92.6792C64.8706 93.0739 63.7077 92.483 63.3222 91.3988C62.9368 90.3146 63.5219 89.1315 64.5902 88.7367C65.7556 88.3419 66.9185 88.9329 67.2069 90.0171Z" fill="white"/>
<path d="M43.9082 89.9178C43.033 90.7068 42.4481 91.7914 42.2511 92.9744C41.8574 95.2418 43.3067 97.7055 45.4395 98.4932C47.5722 99.2809 50.1944 98.2941 51.3639 96.2235C52.5332 94.2515 52.0551 91.393 50.3122 89.9151C48.4723 88.4373 45.6584 88.4385 43.9082 89.9178Z" fill="white"/>
<path d="M43.9069 89.9177C43.0319 90.7066 42.4471 91.791 42.2502 92.9738C41.8565 95.2408 43.3057 97.7042 45.438 98.4918C45.7288 98.5902 46.0196 98.6887 46.3106 98.6886C47.1852 98.0968 47.9632 97.308 48.4507 96.3223C49.4257 94.3507 49.238 91.7882 48.0782 90.0146C47.7882 89.6205 47.4981 89.2264 47.1108 88.9308C45.8499 88.8328 44.782 89.1289 43.9069 89.9177Z" fill="#95412E"/>
<path d="M50.1089 93.8581C50.3975 94.8438 49.9097 95.9283 48.9387 96.2244C47.9676 96.5206 46.9015 96.0281 46.6129 95.0425C46.3242 94.0569 46.8121 92.9723 47.7831 92.6762C48.6573 92.2815 49.7232 92.8725 50.1089 93.8581Z" fill="white"/>
<path d="M70.3019 96.6156C70.6874 97.6998 70.005 98.9817 68.8396 99.3765C67.6742 99.7713 66.4142 99.1803 66.0288 98.0961C65.6433 97.0119 66.3257 95.7301 67.4911 95.3353C68.6565 94.9405 69.9165 95.5314 70.3019 96.6156Z" fill="#FF9F4A"/>
<path d="M50.5813 100.555C50.9667 101.639 50.2843 102.921 49.119 103.315C47.9536 103.71 46.6936 103.119 46.3082 102.035C45.9227 100.951 46.6051 99.669 47.7705 99.2742C49.0332 98.7808 50.2931 99.3718 50.5813 100.555Z" fill="#FF9F4A"/>
<path d="M58.0658 97.9939C58.1611 98.684 57.7712 99.3743 56.9944 99.5718C56.606 99.6705 56.2183 99.4735 55.9279 99.1779C55.6373 98.9808 55.6382 98.5865 55.2503 98.488C55.0565 98.3895 54.7651 98.4882 54.6676 98.6854C54.472 99.2771 54.956 99.7698 55.3434 100.065C55.3434 100.065 55.3434 100.065 55.4405 100.065C55.9242 100.657 56.8942 100.854 57.4767 100.755C58.8358 100.557 59.4222 98.8807 59.134 97.6977L59.1342 97.5991C59.1342 97.5991 59.1345 97.5005 59.0374 97.5006C58.8448 96.9091 57.9702 97.4024 58.0658 97.9939Z" fill="#95412E"/>
<path d="M48.0851 88.1504C48.2792 88.1503 48.3765 88.0517 48.5708 87.953C48.6681 87.8544 48.7651 87.8543 48.8624 87.7557C49.0567 87.657 49.2508 87.657 49.4454 87.4597C49.6399 87.2625 49.6406 86.9667 49.5441 86.7696C49.4476 86.5725 49.2537 86.474 49.0597 86.4741C48.6715 86.4742 48.477 86.6715 48.1851 86.9673C47.8933 87.2632 47.6985 87.559 47.7948 87.8547C47.8913 88.0519 47.9881 88.1504 48.0851 88.1504Z" fill="#873427"/>
<path d="M61.7839 84.2065C61.1052 83.9109 60.3294 83.6153 59.5522 83.9115C59.0664 84.1089 59.0649 84.7006 59.5498 84.8977C60.2285 85.1933 61.1028 84.8971 61.783 84.601C61.9773 84.5023 61.9778 84.3051 61.7839 84.2065Z" fill="#873427"/>
<defs>
<linearGradient id="paint0_linear" x1="59.5228" y1="85.4762" x2="157.305" y2="85.7105" gradientUnits="userSpaceOnUse">
<stop stop-color="#330906"/>
<stop offset="0.2284" stop-color="#370906"/>
<stop offset="0.434" stop-color="#420906"/>
<stop offset="0.6308" stop-color="#540906"/>
<stop offset="0.8209" stop-color="#6D0906"/>
<stop offset="1" stop-color="#8D0906"/>
</linearGradient>
</defs>
</svg>
