<svg width="160" height="160" viewBox="0 0 160 160" fill="none" xmlns="http://www.w3.org/2000/svg">
<mask id="mask0" mask-type="alpha" maskUnits="userSpaceOnUse" x="42" y="33" width="74" height="94">
<path d="M83.3216 122.397C82.0292 121.931 77.7828 121.185 76.0289 122.024C74.4596 122.771 73.3518 124.823 74.0903 126.222C74.2749 125.663 74.7365 124.823 75.3827 124.543C76.3981 124.077 75.8442 125.476 76.6751 125.383C77.2289 125.383 76.952 124.263 77.6905 124.263C78.7982 124.17 78.0597 125.942 78.9829 125.942C79.8137 125.942 79.5368 124.17 80.6445 123.983C82.0292 123.797 81.8446 125.942 82.3061 125.756C82.9523 125.569 82.7677 124.356 83.6908 124.45C85.1678 124.543 85.9063 125.663 85.9063 125.663C85.9063 125.663 86.3679 123.61 83.3216 122.397Z" fill="#D81E0B"/>
<path d="M66.7976 45.5257C71.8748 47.5781 77.1367 46.2721 79.3522 45.5257C78.7983 45.2459 78.1521 44.966 77.5059 44.6861C75.8443 43.9398 74.0903 43.0069 72.4287 42.074C70.7671 41.141 69.0131 40.2081 67.4438 39.3685C66.613 38.9954 65.8745 38.5289 65.136 38.1558C64.3975 37.7826 63.7513 37.5027 63.1051 37.2229C62.4589 36.943 61.9051 36.7564 61.3512 36.5698C60.7973 36.3832 60.3358 36.3832 59.9665 36.3832C59.5973 36.3832 59.228 36.3832 59.0434 36.3832C58.8588 36.3832 58.7664 36.4765 58.7664 36.4765C58.6741 36.4765 58.6741 36.4765 58.5818 36.3832C58.5818 36.2899 58.5818 36.2899 58.6741 36.2899C58.6741 36.2899 58.7664 36.1966 58.9511 36.1034C59.1357 36.0101 59.5049 35.9168 59.8742 35.8235C60.3358 35.7302 60.7973 35.7302 61.4435 35.7302C61.9974 35.7302 62.7359 35.9168 63.3821 36.1034C64.7668 36.4765 66.4284 37.1295 67.9977 37.8759C69.6593 38.6222 71.321 39.6484 73.0749 40.488C74.7365 41.4209 76.4905 42.3538 78.0598 43.1935C78.706 43.4733 79.2598 43.7532 79.8137 44.0331C78.5213 41.8874 75.1058 36.943 70.0286 34.8906C63.3821 32.1851 56.4586 35.2637 56.4586 35.2637C56.4586 35.2637 60.2434 42.9136 66.7976 45.5257Z" fill="#D81E0B"/>
<path d="M115.631 83.8681C114.708 62.1313 97.7224 52.709 90.4297 53.5486C85.6294 54.1083 85.2602 56.6272 81.5677 57.4668C81.0138 54.1083 80.5522 48.884 82.7677 45.7121C83.2293 46.0853 83.5985 46.3652 83.6908 45.5256C83.6908 45.2457 83.5062 45.2457 83.6908 44.9658C83.6908 44.9658 84.0601 44.9658 84.1524 44.8725C84.2447 44.7792 84.337 44.4061 84.4294 44.3128C84.614 44.1262 84.8909 44.2195 85.0755 44.1262C85.4448 43.7531 85.1679 43.5665 85.1679 43.1C85.3525 43.1 85.5371 43.1933 85.7217 43.1933C85.814 42.0738 84.337 41.7939 83.5985 41.1409C83.4139 40.9543 82.7677 40.1147 82.4908 40.3013C82.3062 40.3946 82.3062 41.5141 82.3062 41.7006C82.0292 41.7006 81.66 41.5141 81.383 41.7006C81.1061 41.7939 81.1061 42.1671 80.9215 42.3537C80.6445 42.6336 80.2753 42.3537 80.183 42.8201C80.183 43.0067 80.3676 43.2866 80.5522 43.3799C80.3676 43.4732 80.183 43.5665 80.0907 43.6598C80.0907 43.6598 80.4599 43.9396 80.8292 44.2195C78.2444 48.6975 78.706 54.1083 79.2598 57.5601C79.1675 57.5601 79.1675 57.5601 79.0752 57.5601C72.9826 57.5601 74.275 54.2016 68.6439 53.5486C61.6281 52.709 41.6886 62.8777 42.704 83.7748C43.3502 97.5818 55.1662 126.409 68.2746 124.916C74.0903 124.263 72.7056 120.905 79.0752 120.905C85.3525 120.905 84.7986 124.356 90.7066 125.009C103.907 126.502 116.185 97.5818 115.631 83.8681ZM110.092 80.5096C110 80.5096 109.908 80.5096 109.815 80.5096C109.169 80.5096 108.523 80.0432 108.431 79.3901C106.4 68.1952 96.3377 61.1051 91.4451 59.7991C90.7066 59.6125 90.245 58.8662 90.4297 58.1198C90.6143 57.3735 91.3528 56.907 92.0913 57.0936C98.4609 58.7729 108.985 66.8892 111.108 78.8304C111.385 79.5767 110.831 80.323 110.092 80.5096Z" fill="#D81E0B"/>
</mask>
<g mask="url(#mask0)">
<ellipse cx="79.0988" cy="80.4156" rx="46.1563" ry="58.3067" fill="#21A36C"/>
</g>
</svg>
