<svg width="160" height="160" viewBox="0 0 160 160" fill="none" xmlns="http://www.w3.org/2000/svg">
<mask id="mask0" mask-type="alpha" maskUnits="userSpaceOnUse" x="23" y="44" width="116" height="72">
<path d="M28.4588 51.3244C28.3653 52.3026 28.6457 53.3787 29.3935 53.9656C29.487 54.0634 29.5805 53.9656 29.487 53.8678C28.9262 53.0852 28.5522 52.3026 28.5522 51.2266C28.5522 51.2266 28.4588 51.2266 28.4588 51.3244Z" fill="#C3EDD4"/>
<path d="M29.2027 44.8524C28.5095 47.3303 28.3362 51.385 30.2427 53.1871C30.416 53.4123 30.5893 52.9618 30.5893 52.7365C30.416 51.6102 29.896 50.7092 29.7227 49.5829C29.376 48.006 29.5494 46.6545 30.0694 45.0776C30.0694 44.4018 29.3761 44.1766 29.2027 44.8524Z" fill="#C3EDD4"/>
<path d="M31.7304 50.0527C31.45 50.9331 31.45 51.9113 31.8239 52.6939C31.8239 52.7917 32.0109 52.6939 32.0109 52.5961C31.9174 51.7157 31.9174 50.9331 32.1978 50.1505C32.2913 49.857 31.8239 49.7592 31.7304 50.0527Z" fill="#C3EDD4"/>
<path d="M34.5345 47.7049C33.9736 48.7809 33.4128 50.2483 33.8802 51.4222C33.9736 51.6178 34.1606 51.6178 34.2541 51.4222C34.3476 50.9331 34.3476 50.4439 34.3476 49.857C34.441 49.1722 34.5345 48.4875 34.7215 47.8027C34.815 47.6071 34.628 47.6071 34.5345 47.7049Z" fill="#C3EDD4"/>
<path d="M37.619 47.5092C36.9647 48.3896 36.3103 49.4657 36.4973 50.6396C36.4973 50.7374 36.7777 50.8352 36.7777 50.6396C37.2451 49.7592 37.4321 48.7809 38.0864 47.9983C38.4603 47.7049 37.8995 47.1179 37.619 47.5092Z" fill="#C3EDD4"/>
<path d="M41.0772 49.0744C40.5164 49.5635 39.7686 50.3461 39.7686 51.2265C39.7686 51.4221 39.9555 51.4221 40.049 51.3243C40.3294 51.1287 40.5164 50.8352 40.7033 50.5417C40.9838 50.1504 41.2642 49.857 41.6381 49.5635C41.9186 49.27 41.4512 48.7809 41.0772 49.0744Z" fill="#C3EDD4"/>
<path d="M45.5652 49.7593C44.5369 50.6398 43.4152 51.5202 42.5739 52.5962C42.4804 52.6941 42.5739 52.7919 42.6674 52.694C43.7891 52.0093 44.8174 50.9332 45.7521 50.0528C46.0326 49.8572 45.7522 49.5637 45.5652 49.7593Z" fill="#C3EDD4"/>
<path d="M46.1248 52.4003C45.7509 52.596 45.3769 52.7916 45.003 53.0851C44.6291 53.2807 44.3487 53.4764 44.0682 53.7699C43.9748 53.8677 43.9748 54.1612 44.1617 54.1612C44.5356 54.1612 44.8161 53.9655 45.19 53.8677C45.6574 53.672 46.0313 53.3786 46.4987 53.1829C46.9661 52.8894 46.5922 52.2047 46.1248 52.4003Z" fill="#C3EDD4"/>
<path d="M51.612 53.2883C49.2784 53.064 45.2475 53.7367 44.6111 56.6519C44.6111 56.8761 44.8233 57.3246 45.0354 57.1004C45.884 56.8761 46.7326 55.9792 47.5811 55.5307C48.854 54.858 50.127 54.4095 51.612 54.1852C52.2485 54.1852 52.2485 53.2883 51.612 53.2883Z" fill="#C3EDD4"/>
<path d="M118.384 111.486C118.758 110.019 118.477 108.16 118.384 106.693C118.29 104.834 115.579 105.225 116.047 106.986C116.421 108.454 116.608 110.312 117.355 111.584C117.636 111.975 118.197 111.975 118.384 111.486Z" fill="#C3EDD4"/>
<path d="M109.878 108.16C110.065 107.28 109.691 106.399 109.504 105.421C109.411 104.932 109.317 104.443 109.224 103.954C109.037 103.269 108.756 102.975 108.289 102.486C107.635 101.997 106.606 102.486 106.419 103.269C106.139 104.345 106.7 105.128 107.074 106.106C107.448 106.888 107.728 107.964 108.382 108.551C108.85 109.041 109.784 108.943 109.878 108.16Z" fill="#C3EDD4"/>
<path d="M99.5951 106.986C99.4082 106.399 99.2212 105.91 98.9408 105.421C98.7538 104.932 98.6604 104.345 98.4734 103.758C97.9125 101.801 95.0147 102.682 95.5756 104.541C95.9495 105.91 96.7908 107.377 98.006 108.16C98.8473 108.747 99.8756 107.964 99.5951 106.986Z" fill="#C3EDD4"/>
<path d="M90.9954 110.508C91.6497 109.138 90.8084 107.084 90.154 105.91C89.6867 105.127 88.7519 104.834 87.9106 105.323C86.9758 105.91 86.8823 107.182 87.6301 107.964C87.9106 108.356 88.191 108.747 88.378 109.236C88.6584 109.823 88.6584 110.312 89.1258 110.801C89.6867 111.29 90.6215 111.193 90.9954 110.508Z" fill="#C3EDD4"/>
<path d="M81.3663 112.464C82.0206 111.584 81.9272 110.605 81.6467 109.529C81.4598 108.551 80.9924 107.475 80.2446 106.692C78.8424 105.225 76.225 107.182 77.3467 109.04C77.7206 109.627 78.188 110.018 78.4684 110.605C78.5619 110.801 78.6554 111.095 78.7489 111.388C78.9359 111.975 79.1228 112.268 79.5902 112.66C80.2445 112.953 81.0858 112.855 81.3663 112.464Z" fill="#C3EDD4"/>
<path d="M72.1126 113.638C72.6734 112.562 72.6734 111.584 72.2995 110.41C71.9256 109.236 70.8973 107.768 69.4952 108.16C68.1865 108.551 68.3734 110.41 69.1212 111.29C69.4017 111.584 69.5886 111.877 69.7756 112.268C69.9626 112.757 70.243 113.149 70.43 113.638C70.7104 114.323 71.7386 114.323 72.1126 113.638Z" fill="#C3EDD4"/>
<path d="M66.6908 112.758C66.9713 112.171 67.1582 111.78 67.0647 111.095C67.0647 110.41 67.2517 109.823 66.9713 109.138C66.6908 108.16 65.1017 107.671 64.5408 108.845C64.1669 109.725 64.2604 110.606 64.5408 111.486C64.7278 112.367 65.1952 112.758 65.943 113.051C66.2234 113.149 66.5973 113.051 66.6908 112.758Z" fill="#C3EDD4"/>
<path d="M56.2216 114.225C56.502 113.54 56.9694 112.953 57.1564 112.269C57.4368 111.388 57.7172 110.41 57.8107 109.53C57.9042 108.16 55.8477 107.573 55.2868 108.845C54.9129 109.725 54.8194 110.703 54.7259 111.584C54.6324 112.464 55.1933 113.443 55.5672 114.225C55.6607 114.421 56.1281 114.519 56.2216 114.225Z" fill="#C3EDD4"/>
<path d="M50.6131 110.997C51.1739 109.823 51.7348 108.16 51.2674 106.889C50.987 106.302 50.7065 105.812 50.0522 105.617C49.3979 105.421 48.3696 105.715 48.0891 106.497C47.4348 108.062 47.8087 109.53 48.5565 110.997C48.837 111.878 50.2392 111.878 50.6131 110.997Z" fill="#C3EDD4"/>
<path d="M119.226 108.453C123.246 110.116 127.732 112.073 131.846 110.508C135.024 109.236 137.08 106.008 138.015 102.584C140.072 95.2472 137.08 86.9322 131.565 81.9432C126.05 76.9542 118.198 75.1933 111 76.1716C104.643 77.052 98.7542 79.9867 92.5846 81.4541C84.452 83.4105 76.0389 82.041 67.7194 80.9649C61.4563 80.0845 52.3889 76.7585 50.6128 69.3239C49.1172 63.161 49.6781 58.2699 45.1911 53.5743C42.8541 51.1287 39.5824 49.5636 36.3107 49.857C32.0107 50.1505 28.365 53.4765 26.402 57.3894C21.6346 66.6827 22.3824 79.3019 26.4954 88.693C29.8607 96.3232 36.6846 104.247 44.4433 107.084C58.1846 112.171 72.4868 111.682 86.602 108.062C91.2759 106.888 95.9499 105.225 100.811 104.834C106.98 104.345 113.243 106.008 119.226 108.453Z" fill="#A2E0BB"/>
<path d="M37.0584 68.7369C36.9649 70.5956 34.254 70.3021 34.6279 68.4435C34.7214 67.7587 33.6931 67.4652 33.5997 68.15V68.2478C33.5062 68.2478 33.3192 70.9869 35.4692 71.2804C36.8714 71.476 37.8997 70.2043 37.9932 68.7369C37.9932 68.15 37.1519 68.15 37.0584 68.7369Z" fill="#579E8A"/>
<path d="M39.0213 60.9111C37.6191 63.0633 37.8996 65.6067 39.9561 67.1718C41.3583 68.2479 44.9104 67.8566 44.9104 65.5088C44.9104 65.3132 44.63 65.1175 44.4431 65.2154C43.9757 65.6067 43.6017 66.0958 43.0409 66.3893C42.1996 66.8784 41.2648 66.6827 40.517 66.1936C38.8344 65.2154 38.6474 62.7698 39.0213 60.9111C39.1148 60.9111 39.0213 60.9111 39.0213 60.9111Z" fill="#579E8A"/>
<path d="M27.5235 60.1284C26.1213 62.2806 26.4018 64.824 28.4583 66.3892C29.8605 67.4652 33.4127 67.0739 33.4127 64.7262C33.4127 64.5305 33.1322 64.3349 32.9453 64.4327C32.4779 64.824 32.104 65.3131 31.5431 65.6066C30.7018 66.0957 29.767 65.9 29.0192 65.4109C27.3366 64.3349 27.1496 61.8893 27.5235 60.1284C27.617 60.1284 27.617 60.0306 27.5235 60.1284Z" fill="#579E8A"/>
<path d="M27.7108 69.324C27.7108 70.2044 27.0564 70.8891 26.2151 70.8891C25.3738 70.8891 24.7195 70.2044 24.7195 69.324C24.7195 68.4436 25.3738 67.7588 26.2151 67.7588C27.0564 67.7588 27.7108 68.4436 27.7108 69.324Z" fill="#EC9368"/>
<path d="M46.2188 70.3999C47.0448 70.3999 47.7144 69.6991 47.7144 68.8347C47.7144 67.9703 47.0448 67.2695 46.2188 67.2695C45.3927 67.2695 44.7231 67.9703 44.7231 68.8347C44.7231 69.6991 45.3927 70.3999 46.2188 70.3999Z" fill="#EC9368"/>
<path d="M46.2195 55.0415C45.8456 54.5524 45.4717 54.1611 45.0978 53.672C42.7608 51.2264 39.4891 49.6612 36.2173 49.9547C35.0956 50.0525 33.9739 50.346 32.9456 50.8351C32.4782 52.009 32.1978 53.1829 31.9173 54.3568C31.6369 55.5306 31.4499 56.9002 32.1978 57.7806C33.3195 58.9545 35.2825 57.9762 36.0304 56.6067C36.7782 55.2372 36.8717 53.4763 37.6195 52.009C38.0869 51.1286 39.0217 50.346 39.863 50.7373C40.7043 51.1286 40.7043 52.4981 40.2369 53.3785C39.7695 54.2589 39.0217 54.9437 38.7412 55.9219C38.0869 57.7806 39.9565 60.0305 41.826 59.7371C43.8826 59.1501 44.7239 56.6067 46.2195 55.0415Z" fill="#C3EDD4"/>
<path d="M47.9022 63.3564C48.3696 63.3564 48.9305 63.2585 49.3979 63.2585C49.1174 61.4977 48.7435 59.8347 48.0892 58.2695C47.4348 58.7586 46.7805 59.1499 46.2196 59.7369C45.3783 60.6173 45.0044 62.2803 45.9392 63.0629C46.5 63.4542 47.2479 63.4542 47.9022 63.3564Z" fill="#C3EDD4"/>
<path d="M51.8279 108.062C51.454 109.529 51.7344 111.388 51.8279 112.855C51.9214 114.714 54.6322 114.323 54.1648 112.562C53.7909 111.095 53.604 109.236 52.8562 107.964C52.5757 107.475 51.9214 107.573 51.8279 108.062Z" fill="#C3EDD4"/>
<path d="M60.4284 109.334C60.2414 110.214 60.6153 111.095 60.8023 112.073C60.8958 112.562 60.9893 113.051 61.0828 113.54C61.2697 114.225 61.5501 114.518 62.0175 115.008C62.6719 115.497 63.7001 115.008 63.8871 114.225C64.1675 113.149 63.6067 112.366 63.2327 111.388C62.8588 110.606 62.5784 109.529 61.9241 108.943C61.4567 108.453 60.5219 108.551 60.4284 109.334Z" fill="#C3EDD4"/>
<path d="M72.1135 110.019C72.3005 110.606 72.4874 111.095 72.7679 111.584C72.9548 112.073 73.0483 112.66 73.2353 113.247C73.7961 115.203 76.6939 114.323 76.1331 112.464C75.7592 111.095 74.9179 109.627 73.7027 108.845C72.8613 108.258 71.8331 109.138 72.1135 110.019Z" fill="#C3EDD4"/>
<path d="M84.3588 107.377C83.7044 108.747 84.5457 110.801 85.2001 111.975C85.6675 112.758 86.6023 113.051 87.4436 112.562C88.3784 111.975 88.4718 110.703 87.724 109.921C87.4436 109.53 87.1631 109.138 86.9762 108.649C86.6957 108.062 86.6957 107.573 86.2284 107.084C85.761 106.595 84.7327 106.693 84.3588 107.377Z" fill="#C3EDD4"/>
<path d="M91.4629 104.932C90.8085 105.812 90.902 106.79 91.1824 107.866C91.3694 108.845 91.8368 109.921 92.5846 110.703C93.9868 112.171 96.6042 110.214 95.4824 108.356C95.1085 107.769 94.6411 107.377 94.3607 106.79C94.2672 106.595 94.1737 106.301 94.0802 106.008C93.8933 105.421 93.7063 105.127 93.2389 104.736C92.6781 104.345 91.8368 104.443 91.4629 104.932Z" fill="#C3EDD4"/>
<path d="M102.867 102.584C102.307 103.66 102.307 104.638 102.681 105.812C103.054 106.986 104.083 108.453 105.485 108.062C106.794 107.671 106.607 105.812 105.859 104.932C105.578 104.638 105.391 104.345 105.204 103.954C105.017 103.464 104.737 103.073 104.55 102.584C104.176 101.997 103.241 101.899 102.867 102.584Z" fill="#C3EDD4"/>
<path d="M113.056 105.128C112.776 105.715 112.589 106.106 112.682 106.791C112.682 107.475 112.495 108.062 112.776 108.747C113.056 109.725 114.645 110.214 115.206 109.041C115.58 108.16 115.487 107.28 115.206 106.399C115.019 105.519 114.552 105.128 113.804 104.834C113.523 104.736 113.243 104.932 113.056 105.128Z" fill="#C3EDD4"/>
<path d="M120.722 106.888C120.441 107.573 119.974 108.16 119.787 108.845C119.506 109.725 119.226 110.704 119.132 111.584C119.039 112.954 121.096 113.54 121.656 112.269C122.03 111.388 122.124 110.41 122.217 109.53C122.311 108.649 121.75 107.671 121.376 106.888C121.283 106.693 120.815 106.693 120.722 106.888Z" fill="#C3EDD4"/>
<path d="M126.237 110.116C125.676 111.29 125.115 112.953 125.582 114.225C125.863 114.812 126.143 115.301 126.798 115.497C127.452 115.692 128.48 115.399 128.761 114.616C129.415 113.051 129.041 111.584 128.293 110.116C128.106 109.236 126.704 109.236 126.237 110.116Z" fill="#C3EDD4"/>
<path d="M102.119 81.0626C102.026 80.4757 101.184 80.7691 101.278 81.3561C102.493 89.9646 101.465 97.5948 99.2214 105.029C99.6888 104.932 100.156 104.932 100.624 104.834C100.717 104.834 100.904 104.834 100.998 104.834C101.184 104.247 101.278 103.758 101.465 103.171C103.521 95.834 103.802 88.4972 102.119 81.0626Z" fill="#DEEDD4"/>
<path d="M123.339 88.4971C124.181 92.8992 124.555 96.6165 123.713 101.116C123.153 103.855 122.311 106.595 121.376 109.334C121.844 109.529 122.405 109.725 122.872 109.921C123.994 106.79 125.022 103.562 125.583 100.236C126.331 96.1274 125.396 92.2144 124.461 88.3015C124.181 87.4211 123.153 87.8124 123.339 88.4971Z" fill="#DEEDD4"/>
<path d="M92.7715 89.3776C92.7715 89.2797 92.5845 89.2797 92.5845 89.3776C92.3041 91.4319 92.5845 93.3883 92.7715 95.5405C93.0519 98.9643 92.1171 102.584 91.3693 105.91C91.2758 106.203 91.1823 106.595 91.0889 106.888L93.0519 106.301C94.2671 100.432 94.2671 94.3666 92.7715 89.3776Z" fill="#DEEDD4"/>
<path d="M117.17 82.53C117.077 82.3343 116.796 82.4322 116.703 82.6278C116.703 86.0516 117.451 89.4755 117.544 92.9971C117.638 97.2035 116.609 101.019 115.394 104.932C115.207 105.519 115.02 106.203 114.833 106.79C115.394 106.986 115.955 107.182 116.422 107.377C116.516 107.279 116.516 107.084 116.609 106.986C119.414 99.0622 120.535 90.6493 117.17 82.53Z" fill="#DEEDD4"/>
<path d="M110.812 94.073C110.812 93.4861 109.971 93.4861 109.971 94.073C109.691 97.986 108.849 101.605 107.541 105.127C108.008 105.225 108.569 105.323 109.036 105.421C110.252 101.801 110.812 97.986 110.812 94.073Z" fill="#DEEDD4"/>
<path d="M46.5931 81.7475C46.6866 81.4541 46.2192 81.1606 46.0323 81.5519C42.3866 89.2799 33.8801 90.356 26.2148 88.4974C26.3083 88.5952 26.3083 88.693 26.3083 88.7908C26.4953 89.2799 26.7757 89.7691 27.0561 90.356C28.7388 90.5516 30.3279 90.6495 31.7301 90.6495C37.8062 90.4538 44.5366 88.2039 46.5931 81.7475Z" fill="#DEEDD4"/>
<path d="M75.3848 89.3776C75.3848 89.2798 75.1978 89.182 75.1978 89.3776C74.3565 95.1492 73.4217 100.53 71.2717 105.91C70.5239 107.671 69.6826 109.236 68.7478 110.801C69.4022 110.801 70.0565 110.703 70.7109 110.703C74.3565 104.051 76.1326 95.7361 75.3848 89.3776Z" fill="#DEEDD4"/>
<path d="M34.8152 97.7907C40.6109 96.8124 46.7805 93.6821 49.4913 88.0083C49.5848 87.7148 49.3044 87.5192 49.1174 87.8127C46.1261 92.0191 41.0783 94.4647 36.3109 95.6385C34.4413 96.1277 32.5717 96.3233 30.7957 96.2255C31.263 96.8124 31.7304 97.4972 32.1978 98.0841C33.1326 97.9863 33.9739 97.8885 34.8152 97.7907Z" fill="#DEEDD4"/>
<path d="M85.3866 87.9104C84.3584 93.3885 84.7323 98.8666 83.0497 104.247C82.4888 106.008 81.741 107.671 80.9932 109.334C81.741 109.138 82.4888 109.04 83.3301 108.845C86.1345 102.095 87.0693 94.1711 85.854 87.9104C85.7606 87.7148 85.3866 87.7148 85.3866 87.9104Z" fill="#DEEDD4"/>
<path d="M48.4632 101.899C52.9501 97.7902 57.1567 91.0404 56.4088 84.584C56.4088 84.1927 55.9414 84.1927 55.848 84.584C55.3806 91.4317 50.8936 98.3771 45.4719 101.997C43.6023 103.268 41.5458 104.051 39.4893 104.638C40.1436 105.127 40.8914 105.518 41.5458 105.91C44.1632 104.931 46.5936 103.66 48.4632 101.899Z" fill="#DEEDD4"/>
<path d="M67.7191 87.2258C66.3169 92.8995 65.1017 97.7907 62.2973 103.073C60.8952 105.812 59.1191 108.16 57.2495 110.41C57.8104 110.508 58.3712 110.508 58.9321 110.606C60.6147 108.453 62.1104 106.106 63.4191 103.758C66.4104 98.2798 67.6256 93.5843 68.4669 87.4214C68.4669 86.8345 67.8126 86.7367 67.7191 87.2258Z" fill="#DEEDD4"/>
<path d="M133.622 84.1931C132.968 83.4105 132.22 82.628 131.472 81.9432C125.957 76.9542 118.105 75.1934 110.907 76.1716C104.55 77.052 98.6611 79.9867 92.4915 81.4541C84.3589 83.4105 75.9459 82.041 67.6263 80.965C62.1111 80.1824 54.3524 77.5411 51.4545 71.7695C48.8371 75.7803 46.6871 80.0845 45.0045 84.5844C44.3502 86.3452 43.7893 88.2039 44.2567 90.1604C44.4437 90.7473 44.7241 91.3343 45.098 91.8234C46.7806 93.7798 49.211 92.8016 50.5197 91.2364C51.548 90.0625 52.1089 88.4974 52.8567 87.1278C53.2306 86.4431 53.5111 85.8561 53.9785 85.2692C55.1002 83.5084 57.7176 84.9757 57.0632 86.9322C56.8763 87.5191 56.5959 88.2039 56.4089 88.7908C55.4741 91.6277 54.5393 94.5624 55.3806 97.4971C55.7545 98.8667 56.6893 100.138 57.9045 100.823C60.5219 102.29 62.7654 100.627 64.0741 98.5732C64.9154 97.1058 65.3828 95.4428 65.9437 93.8777C66.6915 91.7255 67.7198 89.7691 68.8415 87.8126C70.2437 85.5627 73.5154 86.9322 73.1415 89.5734C73.048 89.8669 73.048 90.1604 72.9545 90.5517C72.3002 93.682 71.085 96.8124 71.8328 100.138C72.1133 101.312 72.5806 102.486 73.4219 103.269C76.6002 106.497 81.0872 103.758 82.7698 100.138C84.172 97.008 84.2654 93.4864 85.0133 90.0625C85.3872 88.5952 85.8546 87.1278 86.6959 85.8561C88.0981 83.6062 91.4633 84.8779 91.2763 87.5191C91.2763 88.1061 91.1828 88.693 91.1828 89.1821C90.9959 91.9212 90.9959 94.7581 92.585 97.1058C93.3328 98.1819 94.4546 99.0623 95.7633 99.258C99.035 99.7471 100.998 96.4211 101.185 93.2907C101.372 90.6495 100.624 88.0082 100.718 85.367C100.718 84.291 100.998 83.1171 101.372 82.041C102.12 80.2802 104.55 80.7693 104.831 82.6279C105.018 83.704 105.111 84.7801 105.298 85.8561C105.765 89.3778 106.326 93.1929 109.598 95.2472C111.187 96.3233 113.337 96.2254 114.739 94.8559C116.889 92.8016 115.768 89.5734 115.674 86.7365C115.674 85.0735 116.142 83.3127 116.983 81.8454C118.665 78.8128 123.152 80.6715 122.498 84.0953C122.031 86.2474 121.75 88.3017 123.246 89.9647C124.368 91.2364 126.144 91.6277 127.733 91.0408C130.631 90.1604 132.126 87.1278 133.622 84.1931Z" fill="#A2E0BB"/>
<path d="M75.5717 82.041C75.2913 84.8779 75.1043 87.8126 74.8239 90.6495C74.7304 91.3343 74.8239 92.1168 75.1043 92.7038C76.1326 95.1494 78.563 94.3668 79.6848 92.8994C80.4326 91.8234 80.713 90.356 81.0869 88.9865C81.6478 86.7365 82.4891 84.4866 83.6108 82.4323C80.8065 82.5301 78.1891 82.3345 75.5717 82.041Z" fill="#C3EDD4"/>
<path d="M92.4917 81.5522C92.4917 81.9435 92.4917 82.3347 92.4917 82.726C92.4917 85.5629 93.0526 88.302 94.0808 90.9432C94.2678 91.5302 94.7352 92.0193 95.2961 92.3128C96.9787 93.0953 98.1004 91.1389 98.3809 89.4759C98.7548 87.1281 98.2874 84.7803 98.1004 82.4326C98.0069 81.65 98.0069 80.7696 98.0069 79.8892C96.1374 80.4761 94.3613 81.063 92.4917 81.5522Z" fill="#C3EDD4"/>
<path d="M131.472 82.0409C129.602 80.3779 127.546 79.1062 125.302 78.1279C125.022 79.3018 124.555 80.3779 124.181 81.5518C123.339 83.9973 123.62 87.6168 126.144 88.2038C126.985 88.3994 127.826 88.2038 128.574 87.7146C130.07 86.7364 130.818 85.0734 131.472 83.5082C131.659 83.1169 131.752 82.8235 131.939 82.4322C131.659 82.2365 131.566 82.1387 131.472 82.0409Z" fill="#C3EDD4"/>
<path d="M48.6502 81.7478C48.6502 82.3347 48.9307 82.9217 49.3981 83.313C50.6133 84.2912 52.2024 82.9217 53.2307 81.6499C54.4459 80.0848 55.8481 78.7152 57.3437 77.5414C55.6611 76.5631 54.1655 75.3892 52.9502 73.9219C50.3328 75.7805 48.3698 78.5196 48.6502 81.7478Z" fill="#C3EDD4"/>
<path d="M67.6258 80.9649C66.0366 80.7693 64.2605 80.378 62.4845 79.791C61.1758 82.2366 60.3344 84.9757 59.867 87.7147C59.7736 88.3995 59.867 89.1821 60.3344 89.769C61.5497 91.1386 63.5127 89.8668 64.6344 88.4973C66.504 86.2474 68.0931 83.8018 69.5888 81.2584C68.9344 81.1605 68.2801 81.0627 67.6258 80.9649Z" fill="#C3EDD4"/>
<path d="M107.074 85.5626C107.728 88.693 112.028 88.4973 112.495 85.367C112.776 83.6061 112.963 81.8453 113.337 80.1823C113.617 78.8128 114.085 77.3454 114.645 76.0737C113.43 76.0737 112.122 76.1715 110.906 76.3672C109.598 76.5628 108.289 76.8563 107.074 77.1498C107.167 77.7367 107.261 78.3237 107.167 78.9106C107.167 81.0627 106.606 83.3127 107.074 85.5626Z" fill="#C3EDD4"/>
<path d="M28.646 59.0524C29.0199 59.248 29.4873 59.0524 29.8612 58.9545C30.3286 58.8567 30.7025 59.0524 31.0764 58.6611C31.2634 58.4654 31.2634 58.0741 31.0764 57.8785C30.7025 57.3894 30.0482 57.585 29.5808 57.6828C29.1134 57.7807 28.5525 57.9763 28.459 58.5632C28.2721 58.7589 28.459 58.9545 28.646 59.0524Z" fill="#579E8A"/>
<path d="M44.35 59.5417C43.9761 59.0526 43.4153 58.6613 42.8544 58.5635C42.574 58.5635 42.2935 58.5635 42.2 58.8569C42.0131 59.1504 42.1066 59.5417 42.387 59.7374C42.7609 59.933 43.2283 60.0308 43.6022 60.3243C44.0696 60.8134 44.8174 60.1287 44.35 59.5417Z" fill="#579E8A"/>
</mask>
<g mask="url(#mask0)">
<g filter="url(#filter0_d)">
<ellipse cx="85" cy="71" rx="101" ry="71" fill="#21A36C"/>
<path d="M185.5 71C185.5 90.3991 174.315 108.012 156.13 120.796C137.947 133.578 112.8 141.5 85 141.5C57.2001 141.5 32.0533 133.578 13.8698 120.796C-4.31523 108.012 -15.5 90.3991 -15.5 71C-15.5 51.6009 -4.31523 33.988 13.8698 21.2045C32.0533 8.42197 57.2001 0.5 85 0.5C112.8 0.5 137.947 8.42197 156.13 21.2045C174.315 33.988 185.5 51.6009 185.5 71Z" stroke="black"/>
</g>
</g>
<defs>
<filter id="filter0_d" x="-20" y="0" width="210" height="150" filterUnits="userSpaceOnUse" color-interpolation-filters="sRGB">
<feFlood flood-opacity="0" result="BackgroundImageFix"/>
<feColorMatrix in="SourceAlpha" type="matrix" values="0 0 0 0 0 0 0 0 0 0 0 0 0 0 0 0 0 0 127 0"/>
<feOffset dy="4"/>
<feGaussianBlur stdDeviation="2"/>
<feColorMatrix type="matrix" values="0 0 0 0 0 0 0 0 0 0 0 0 0 0 0 0 0 0 0.25 0"/>
<feBlend mode="normal" in2="BackgroundImageFix" result="effect1_dropShadow"/>
<feBlend mode="normal" in="SourceGraphic" in2="effect1_dropShadow" result="shape"/>
</filter>
</defs>
</svg>
