<svg width="160" height="160" viewBox="0 0 160 160" fill="none" xmlns="http://www.w3.org/2000/svg">
<mask id="mask0" mask-type="alpha" maskUnits="userSpaceOnUse" x="17" y="48" width="126" height="65">
<path d="M95.0601 67.5589C95.5522 67.1641 95.9459 66.6705 96.4381 66.2757C97.8161 64.9926 99.1941 63.6108 101.064 63.0186C103.623 64.4991 105.986 66.2757 108.053 68.3485C108.053 68.7433 108.053 68.9407 107.757 69.1381C107.462 69.3355 107.068 69.4342 106.773 69.5329C105.395 70.0264 104.805 71.2108 103.722 71.9018C102.541 72.5927 100.867 71.7044 99.6862 71.1121C97.9145 70.2238 96.4381 68.9407 95.0601 67.5589Z" fill="#446878"/>
<path d="M84.5283 94.5047C84.3314 94.9983 84.5283 95.4918 84.7252 95.9853C85.1189 96.6762 85.5126 97.2684 86.0047 97.7619C86.3984 98.1567 86.7922 98.5515 87.1859 98.9464C87.5796 99.3412 87.7765 99.8347 87.8749 100.427C87.8749 101.019 87.678 101.611 87.1859 101.809C86.3984 102.204 85.7094 101.71 84.922 102.105C84.3314 102.401 84.0361 102.993 83.7409 103.585C83.1503 105.066 82.7566 106.645 82.7566 108.224C82.7566 108.915 82.7566 109.705 82.6581 110.396C82.4613 111.087 81.9691 111.778 81.2801 111.975C80.6896 112.074 80.099 111.876 79.6068 111.482C78.4257 110.593 77.8351 109.31 77.343 107.928C75.8665 103.783 75.0791 99.3412 76.0634 95.097C78.721 94.406 81.2801 94.1099 84.0361 94.0112C84.233 94.0112 84.5283 94.0112 84.6267 94.2086C84.6267 94.406 84.6267 94.7021 84.5283 94.5047Z" fill="#8AA0C7"/>
<g opacity="0.51">
<path opacity="0.51" d="M86.8901 101.118C86.2011 100.032 85.7089 98.9463 85.0199 97.8606C84.4294 96.8736 83.8388 95.9853 83.3467 94.8995C83.2482 94.7021 83.4451 94.7021 83.5435 94.7021C84.3309 95.4918 84.9215 96.6762 85.5121 97.6632C86.1027 98.7489 86.5948 99.736 86.9885 100.92C87.087 101.216 86.8901 101.216 86.8901 101.118Z" fill="#233E44"/>
</g>
<g opacity="0.51">
<path opacity="0.51" d="M85.1186 101.611C84.5281 100.427 83.8391 99.1437 83.2485 97.9593C82.6579 96.8735 81.9689 95.8865 81.5752 94.7021C81.5752 94.6034 81.6736 94.5047 81.7721 94.6034C82.6579 95.4917 83.2485 96.7748 83.8391 97.9593C84.4296 99.1437 84.9218 100.328 85.4139 101.611C85.4139 101.611 85.2171 101.71 85.1186 101.611Z" fill="#233E44"/>
</g>
<g opacity="0.51">
<path opacity="0.51" d="M83.5442 102.006C82.7568 100.229 81.8709 98.5515 81.0835 96.7748C81.0835 96.6761 81.1819 96.5774 81.1819 96.6761C82.2647 98.2554 83.0521 100.131 83.7411 101.907C83.7411 102.006 83.5442 102.105 83.5442 102.006Z" fill="#233E44"/>
</g>
<g opacity="0.51">
<path opacity="0.51" d="M82.6581 104.078C81.477 101.611 80.1974 99.0446 79.3115 96.3796C79.3115 96.1822 79.5084 96.0835 79.6068 96.2809C80.8864 98.7485 81.8707 101.413 82.855 103.98C82.9534 104.078 82.7565 104.177 82.6581 104.078Z" fill="#233E44"/>
</g>
<g opacity="0.51">
<path opacity="0.51" d="M78.5241 96.8732C79.1146 100.92 82.0675 104.572 82.166 108.718C82.166 108.915 81.8707 109.014 81.7722 108.816C80.8864 106.941 80.4927 104.769 79.9021 102.795C79.2131 100.821 78.5241 98.946 78.3272 96.8732C78.2288 96.7745 78.5241 96.6758 78.5241 96.8732Z" fill="#233E44"/>
</g>
<g opacity="0.51">
<path opacity="0.51" d="M77.4414 97.268C77.4414 99.7355 78.8194 102.006 79.7052 104.375C80.3942 106.349 81.1817 108.619 80.9848 110.691C80.9848 110.889 80.4927 110.988 80.3942 110.79C79.6068 108.52 79.4099 106.151 78.6225 103.881C77.9335 101.71 76.8508 99.6368 77.2445 97.3667C77.3429 97.1693 77.4414 97.1693 77.4414 97.268Z" fill="#233E44"/>
</g>
<g opacity="0.51">
<path opacity="0.51" d="M76.5553 97.1694C76.4568 99.2421 76.949 101.315 77.638 103.289C78.1301 104.967 78.9176 106.842 78.6223 108.52C78.6223 108.816 78.0317 108.915 77.9333 108.619C77.3427 106.546 76.949 104.473 76.3584 102.401C75.8663 100.624 75.6694 98.8473 76.1615 97.0707C76.26 96.972 76.5553 97.0707 76.5553 97.1694Z" fill="#233E44"/>
</g>
<path d="M103.23 85.1279C105.1 87.0032 106.872 88.8786 108.742 90.7539C109.136 91.1487 109.529 91.7409 109.332 92.2345C109.234 92.4319 109.037 92.6293 108.742 92.8267C107.758 93.5176 106.773 94.1098 105.789 94.8007C105.395 94.9981 105.1 95.2942 104.805 95.4916C104.214 95.7877 103.722 96.1825 103.131 96.4787C101.458 97.6631 99.8832 98.9462 98.3083 100.328C97.7177 100.427 97.1272 100.328 96.635 99.9332C96.1429 99.5384 95.7491 99.0449 95.4539 98.5514C94.2727 96.8735 93.19 94.9981 92.501 93.0241C92.8947 91.2474 94.3711 90.2604 95.8476 89.1747C98.1114 87.6941 100.375 86.2136 102.738 84.9305C102.836 84.8318 102.934 84.8318 103.033 84.9305C103.033 85.0292 103.328 85.2266 103.23 85.1279Z" fill="#8AA0C7"/>
<g opacity="0.51">
<path opacity="0.51" d="M108.249 92.5306C106.773 91.4448 105.493 90.063 104.214 88.8786C103.033 87.7929 101.655 86.8058 100.67 85.424C100.572 85.3253 100.769 85.1279 100.867 85.2266C102.344 86.1149 103.525 87.4968 104.706 88.6812C105.986 89.9643 107.265 91.1487 108.249 92.5306C108.249 92.5306 108.249 92.6293 108.249 92.5306Z" fill="#233E44"/>
</g>
<g opacity="0.51">
<path opacity="0.51" d="M106.872 93.1229C105.691 91.8397 104.608 90.5566 103.328 89.3722C102.049 88.1877 100.572 87.2007 99.3912 86.0163C99.2927 85.9176 99.3912 85.7202 99.588 85.8189C101.163 86.5098 102.442 87.8916 103.624 89.0761C104.903 90.2605 105.986 91.5436 106.97 93.0242C107.167 93.1229 106.97 93.2216 106.872 93.1229Z" fill="#233E44"/>
</g>
<g opacity="0.51">
<path opacity="0.51" d="M105.69 93.9121C104.608 92.5303 103.328 91.1485 102.048 89.8653C100.867 88.6809 99.3909 87.7926 98.3081 86.5095C98.2097 86.4108 98.3081 86.2134 98.505 86.3121C100.08 87.003 101.458 88.4835 102.639 89.6679C103.919 90.9511 105.001 92.3329 105.887 93.8134C105.986 93.9122 105.789 94.0109 105.69 93.9121Z" fill="#233E44"/>
</g>
<g opacity="0.51">
<path opacity="0.51" d="M104.214 94.1098C102.245 91.6423 99.7846 89.7669 97.6192 87.4968C97.5208 87.3981 97.6192 87.2007 97.816 87.2994C100.67 88.6812 102.836 91.4449 104.608 93.9124C104.706 94.1098 104.411 94.3072 104.214 94.1098Z" fill="#233E44"/>
</g>
<g opacity="0.51">
<path opacity="0.51" d="M102.344 94.3069C101.458 92.9251 100.375 91.8394 99.1943 90.7537C98.1116 89.7666 96.832 88.977 95.8477 87.8913C95.7493 87.7926 95.8477 87.5952 96.0446 87.6939C98.7021 89.1744 100.966 91.8394 102.639 94.3069C102.639 94.4056 102.442 94.5043 102.344 94.3069Z" fill="#233E44"/>
</g>
<g opacity="0.51">
<path opacity="0.51" d="M101.753 95.7877C99.8832 93.3202 97.5209 91.2474 95.4539 88.8786C95.3554 88.7799 95.4539 88.6812 95.5523 88.6812C98.2099 90.3591 100.277 93.1228 102.049 95.5903C102.245 95.7877 101.95 95.9851 101.753 95.7877Z" fill="#233E44"/>
</g>
<g opacity="0.51">
<path opacity="0.51" d="M100.474 96.9719C99.4893 95.7875 98.7019 94.4056 97.6192 93.2212C96.5365 92.0368 95.3553 91.0498 94.2726 89.8653C94.0757 89.6679 94.2726 89.4705 94.5679 89.5692C97.127 90.8524 99.8831 94.2082 100.572 96.8732C100.572 96.9719 100.572 97.0706 100.474 96.9719Z" fill="#233E44"/>
</g>
<g opacity="0.51">
<path opacity="0.51" d="M99.588 97.3667C98.6037 96.0835 97.521 94.8004 96.4382 93.616C95.3555 92.4315 94.0759 91.3458 92.9932 90.0627C92.8948 89.964 92.9932 89.7666 93.1901 89.8653C95.8477 91.6419 98.1115 94.603 99.7848 97.268C99.8833 97.3667 99.6864 97.5641 99.588 97.3667Z" fill="#233E44"/>
</g>
<g opacity="0.51">
<path opacity="0.51" d="M98.8007 98.5515C97.029 96.38 95.1588 94.3073 93.584 91.9384C93.4855 91.8397 93.6824 91.741 93.7808 91.8397C95.8478 93.7151 97.5211 96.0839 99.096 98.3541C99.096 98.5515 98.8991 98.7489 98.8007 98.5515Z" fill="#233E44"/>
</g>
<g opacity="0.51">
<path opacity="0.51" d="M97.2259 98.6498C96.0448 97.4654 95.0605 96.0835 93.9778 94.8991C92.9935 93.7147 91.9107 92.6289 91.0249 91.4445C90.9264 91.3458 91.1233 91.1484 91.2217 91.2471C93.6825 93.0238 95.8479 95.8861 97.4228 98.5511C97.6196 98.5511 97.3243 98.7485 97.2259 98.6498Z" fill="#233E44"/>
</g>
<path d="M113.565 76.4421C115.829 70.7173 119.963 65.6835 125.278 62.7224C130.593 59.6627 137.188 58.8731 142.995 60.7484C142.798 62.1302 141.912 63.0185 140.731 63.7095C138.467 65.19 136.597 67.3615 134.924 69.5329C133.743 71.0134 132.463 72.5927 132.069 74.468C131.774 75.8499 132.069 77.3304 132.266 78.7122C133.251 83.5486 134.629 88.2864 134.629 93.2215C134.629 94.1098 134.53 94.9981 134.136 95.7877C133.94 96.0838 133.349 95.7877 133.152 95.689C130.987 94.8007 129.609 93.2215 127.542 91.7409C126.656 91.1487 125.868 90.6552 124.884 90.063C123.506 89.2734 122.522 88.7799 121.931 88.4838C119.864 87.398 116.518 85.7201 113.368 82.9564C111.399 81.2785 111.202 80.4889 111.104 79.8967C111.104 78.3174 112.285 77.3304 113.565 76.4421Z" fill="#446878"/>
<path d="M142.503 61.3405C139.846 61.2418 136.991 60.847 134.333 61.1431C131.381 61.4392 128.231 62.6237 125.672 64.0055C120.652 66.7692 117.6 71.9017 112.974 75.1588C112.777 75.2576 112.581 75.0601 112.679 74.8627C114.451 72.3952 117.01 70.2237 119.274 68.0523C121.242 66.0782 123.408 64.3016 125.869 63.1172C128.329 61.9327 130.987 60.9457 133.644 60.5509C136.499 60.1561 139.55 60.7483 142.503 61.0444C142.7 61.1431 142.7 61.4392 142.503 61.3405Z" fill="#233E44"/>
<path d="M142.011 62.3276C136.696 61.3406 130.101 62.9198 125.475 65.7822C123.408 67.0653 121.734 68.842 119.864 70.3225C117.699 72.0991 115.533 73.9745 113.171 75.2576C112.876 75.455 112.58 74.9615 112.876 74.7641C115.336 72.7901 117.994 71.0134 120.455 68.9407C122.522 67.2627 124.392 65.4861 126.754 64.3016C131.282 62.2289 137.286 60.551 142.011 62.3276C142.109 62.2289 142.109 62.3276 142.011 62.3276Z" fill="#233E44"/>
<path d="M139.452 64.1042C134.038 63.0185 129.117 64.2029 124.49 67.7562C120.947 70.5199 117.699 74.2706 113.663 75.9485C113.466 76.0472 113.269 75.6524 113.466 75.455C115.632 74.1719 117.6 72.6913 119.667 70.9147C121.636 69.138 123.703 67.3614 125.868 65.8809C129.609 63.4133 135.514 61.3406 139.55 63.9068C139.649 64.0055 139.55 64.1042 139.452 64.1042Z" fill="#233E44"/>
<path d="M138.074 65.3872C135.711 65.0911 133.054 65.1898 130.692 65.8807C128.329 66.5716 126.262 68.1509 124.294 69.5327C121.045 71.8029 116.419 76.3432 112.285 75.1587C112.187 75.1587 112.187 74.8626 112.285 74.8626C115.041 74.2704 117.305 73.4808 119.667 71.8029C121.931 70.2236 124.097 68.7431 126.361 67.2626C128.231 66.0781 130.003 65.1898 132.168 64.8937C133.94 64.5976 136.4 64.1041 138.074 65.1898C138.172 65.2885 138.172 65.3872 138.074 65.3872Z" fill="#233E44"/>
<path d="M136.105 67.2628C133.94 66.3745 131.184 67.4602 129.018 68.2498C126.754 69.1382 124.687 70.6187 122.62 72.0992C119.47 74.2707 115.336 77.0343 111.498 76.3434C111.399 76.3434 111.399 76.0473 111.498 76.0473C113.958 75.4551 116.222 75.0603 118.585 73.7772C120.947 72.5927 123.112 71.0135 125.376 69.533C127.345 68.2498 129.215 67.4602 131.38 66.868C132.857 66.4732 134.825 65.6836 136.203 66.9667C136.302 67.1641 136.203 67.3615 136.105 67.2628Z" fill="#233E44"/>
<path d="M134.53 69.0394C133.448 69.3355 132.365 69.3355 131.282 69.6316C130.003 70.0264 128.821 70.6186 127.64 71.2109C125.672 72.2966 123.9 73.6784 121.931 74.7641C118.683 76.4421 113.959 78.0213 110.415 76.8369C110.317 76.8369 110.317 76.5408 110.415 76.5408C112.581 75.9486 114.844 76.146 117.01 75.6525C119.274 75.0603 121.341 74.0732 123.408 72.7901C126.361 71.0135 130.888 67.4602 134.432 68.9407C134.629 68.9407 134.629 69.0394 134.53 69.0394Z" fill="#233E44"/>
<path d="M132.562 71.6054C130.396 71.6054 128.526 73.1846 126.656 74.2704C125.081 75.1587 123.408 75.9483 121.734 76.5405C118.486 77.6263 114.254 78.2185 111.006 76.9353C110.809 76.8366 110.809 76.5405 111.006 76.5405C112.974 76.3431 114.943 76.7379 116.911 76.5405C118.978 76.3431 121.045 75.8496 123.014 74.9613C124.884 74.1717 126.656 73.1846 128.526 72.1976C129.806 71.5067 131.085 70.7171 132.562 71.3093C132.66 71.408 132.66 71.6054 132.562 71.6054Z" fill="#233E44"/>
<path d="M131.675 74.2703C129.608 74.2703 127.837 75.3561 125.967 76.3431C124.293 77.1327 122.522 77.7249 120.75 78.021C119.076 78.3171 117.403 78.4158 115.828 78.3171C114.057 78.3171 111.99 78.3171 110.316 77.5275C110.119 77.4288 110.218 77.2314 110.316 77.1327C112.186 76.9353 114.155 77.4288 116.025 77.4288C118.092 77.4288 120.159 77.3301 122.128 76.8366C123.9 76.4418 125.474 75.6522 127.148 74.8625C128.624 74.1716 130.101 73.5794 131.675 73.8755C131.774 74.0729 131.774 74.2703 131.675 74.2703Z" fill="#233E44"/>
<path d="M131.479 76.1459C129.018 78.4161 124.786 78.3174 121.734 78.7122C118.388 79.107 114.155 79.8966 111.006 78.0213C110.907 77.9226 111.006 77.7252 111.104 77.7252C114.647 78.5148 118.093 78.4161 121.734 78.0213C123.506 77.8239 125.278 77.5278 127.05 77.2316C128.624 77.0342 130.002 76.2446 131.479 76.1459C131.479 76.0472 131.577 76.1459 131.479 76.1459Z" fill="#233E44"/>
<path d="M131.774 78.8108C130.495 79.6004 129.117 79.7978 127.64 79.7978C125.573 79.8965 123.506 79.8965 121.439 79.8965C117.6 79.7978 113.663 79.6991 110.12 78.0211C110.021 78.0211 110.021 77.8237 110.12 77.8237C113.762 78.8108 117.403 79.2056 121.144 79.2056C124.589 79.3043 128.428 79.7978 131.774 78.8108C131.774 78.7121 131.774 78.8108 131.774 78.8108Z" fill="#233E44"/>
<path d="M131.676 80.785C130.101 81.772 127.936 81.8707 126.262 81.772C123.998 81.772 121.833 81.5746 119.569 81.2785C115.829 80.785 111.301 79.798 108.348 76.9356C108.25 76.8369 108.348 76.5408 108.545 76.6395C110.415 77.133 112.088 78.4161 113.959 79.1071C116.026 79.8967 118.093 80.2915 120.258 80.4889C122.128 80.6863 123.998 80.8837 125.869 80.9824C127.936 81.0811 129.806 80.6863 131.774 80.4889C131.774 80.4889 131.774 80.6863 131.676 80.785Z" fill="#233E44"/>
<path d="M132.266 82.4626C131.085 83.9431 129.116 83.7457 127.542 83.647C125.376 83.5483 123.309 83.3509 121.144 82.9561C118.88 82.5613 116.714 82.0678 114.549 81.1795C112.679 80.4885 110.612 79.6989 109.135 78.1197C109.037 78.021 109.135 77.7249 109.332 77.8236C111.202 78.5145 112.974 79.6002 114.844 80.2911C116.616 80.9821 118.486 81.4756 120.356 81.8704C124.097 82.66 128.526 83.4496 132.266 82.2652C132.266 82.2652 132.365 82.3639 132.266 82.4626Z" fill="#233E44"/>
<path d="M132.562 86.2134C130.79 86.6082 129.018 86.1146 127.247 85.7198C125.18 85.2263 123.014 84.8315 120.947 84.338C116.616 83.351 112.876 81.4756 109.234 78.712C109.136 78.6133 109.234 78.3172 109.333 78.4159C111.104 79.2055 112.679 80.1925 114.352 81.1795C116.321 82.364 118.388 83.0549 120.553 83.4497C124.491 84.338 128.526 85.325 132.562 85.8185C132.66 85.9172 132.759 86.2134 132.562 86.2134Z" fill="#233E44"/>
<path d="M133.349 89.1748C131.381 89.2735 129.314 88.4839 127.443 88.0891C125.376 87.5956 123.309 87.0034 121.341 86.3124C119.471 85.5228 117.699 84.4371 115.927 83.2527C113.959 81.9695 111.892 80.6864 110.021 79.2059C109.825 79.0085 110.021 78.6137 110.218 78.7124C114.156 80.8838 117.797 84.0423 122.03 85.6215C123.9 86.3124 125.77 86.806 127.64 87.2995C129.51 87.793 131.676 87.9904 133.448 88.9774C133.546 88.9774 133.448 89.1748 133.349 89.1748Z" fill="#233E44"/>
<path d="M132.955 91.2473C130.79 91.4447 128.428 90.2603 126.361 89.5694C124.195 88.7797 122.03 87.9901 119.963 86.9044C117.994 85.9174 116.223 84.6342 114.648 83.1537C113.073 81.6732 111.104 79.9952 110.021 78.0212C109.923 77.9225 110.12 77.7251 110.218 77.8238C111.793 79.0082 113.073 80.7848 114.451 82.1667C116.124 83.8446 117.994 85.2265 120.061 86.3122C124.195 88.4836 128.723 89.8655 133.054 91.2473C132.955 91.1486 132.955 91.2473 132.955 91.2473Z" fill="#233E44"/>
<path d="M133.349 93.024C128.428 92.6292 123.998 90.2603 119.766 87.5953C117.797 86.3122 115.632 85.1278 113.86 83.5485C112.384 82.2654 110.514 80.1927 110.218 78.1199C110.218 77.9225 110.317 77.8238 110.514 77.9225C111.203 78.7121 111.596 79.6992 112.187 80.5875C112.876 81.5745 113.663 82.4628 114.549 83.1537C116.321 84.6343 118.388 85.9174 120.455 87.1018C124.589 89.6681 128.821 91.5434 133.448 92.8266C133.546 92.8266 133.448 93.024 133.349 93.024Z" fill="#233E44"/>
<path d="M106.97 68.4472C106.97 68.5459 104.312 69.7304 104.017 69.8291C102.934 70.4213 102.049 71.3096 101.163 72.0992C101.064 72.1979 100.867 72.0992 100.966 72.0005C101.556 70.52 103.131 69.5329 104.608 68.9407C105.001 68.7433 107.167 67.5589 107.265 68.3485C107.167 68.4472 107.068 68.5459 106.97 68.4472Z" fill="#233E44"/>
<path d="M105.986 67.0655C105.198 67.8551 104.214 68.3486 103.328 68.8421C102.245 69.4344 101.36 70.1253 100.277 70.7175C100.178 70.7175 100.08 70.6188 100.178 70.6188C101.458 68.8421 104.017 67.8551 105.986 66.9668C105.986 66.9668 106.084 66.9668 105.986 67.0655Z" fill="#233E44"/>
<path d="M104.706 66.2758C103.722 66.9667 102.738 67.4602 101.753 68.1512C100.769 68.8421 99.8833 69.6317 98.899 70.2239C98.8006 70.3226 98.6037 70.1252 98.7021 70.0265C99.9817 68.2499 102.639 66.7693 104.706 66.1771C104.706 66.0784 104.706 66.1771 104.706 66.2758Z" fill="#233E44"/>
<path d="M102.934 65.19C102.048 65.9796 101.064 66.7692 100.178 67.4602C99.3909 68.0524 98.7019 68.842 97.816 69.2368C97.7176 69.3355 97.6191 69.1381 97.6191 69.0394C98.1113 68.1511 98.9972 67.5589 99.7846 66.9667C100.769 66.177 101.753 65.5848 102.836 65.0913C102.934 65.0913 103.033 65.0913 102.934 65.19Z" fill="#233E44"/>
<path d="M101.655 64.4992C100.08 65.881 98.5049 67.4603 96.8316 68.7434C96.7332 68.8421 96.5363 68.6447 96.6347 68.546C97.7175 66.7694 99.686 65.1901 101.556 64.3018C101.655 64.2031 101.851 64.4005 101.655 64.4992Z" fill="#233E44"/>
<path d="M65.7282 63.2159C66.5156 59.2678 67.6968 55.4184 69.2716 51.7664C69.9606 50.2859 70.7481 48.7066 72.2245 48.0157C72.4214 47.917 73.7994 48.3118 73.9963 48.4105C76.1617 49.3975 79.902 53.543 84.1345 55.0236C86.6936 55.9119 88.5638 57.2937 91.2214 57.8859C91.7135 57.9846 92.2057 58.2808 92.1073 58.6756C92.1073 58.7743 92.0088 58.873 91.9104 58.9717C90.6308 60.9457 89.2528 63.0185 87.8748 64.9925C87.3826 65.6834 86.3984 65.5847 85.6109 65.6834C79.4099 65.9795 73.2088 65.486 67.2046 64.2029C66.614 64.1042 65.5313 64.0055 65.7282 63.2159Z" fill="#446878"/>
<path d="M92.2057 58.7743C92.2057 59.2678 91.0246 59.5639 90.7293 59.6626C88.367 60.3535 84.4298 57.7872 83.544 57.195C76.6539 52.7534 69.9607 51.0755 70.3544 49.7923C70.4529 49.5949 70.6497 49.2988 71.0434 49.0027C71.4372 48.6079 71.8309 48.2131 72.323 48.1144C72.8152 48.0157 73.1105 48.1144 73.4058 48.3118C74.5869 48.8053 75.4728 49.4962 76.4571 50.2859C76.4571 50.2859 77.3429 50.9768 78.1304 51.6677C79.8037 52.9508 81.3785 54.1352 83.4455 55.0236C84.0361 55.221 84.3314 55.3197 85.3157 55.7145C86.2016 56.1093 86.2016 56.208 87.678 56.8002C89.056 57.3924 89.5482 57.5898 90.0403 57.7872C90.434 57.8859 90.7293 57.9846 91.123 58.0833C91.4183 58.182 91.5167 58.182 91.7136 58.2807C91.9105 58.182 92.2057 58.4782 92.2057 58.7743Z" fill="#3D585F"/>
<path d="M90.5325 58.2809C90.6309 58.1822 90.6309 58.1822 90.7293 58.0835C90.8278 57.9848 91.0246 58.1822 90.9262 58.2809C90.0403 59.6628 89.1545 61.1433 88.4655 62.6239C87.9733 63.7096 87.5796 64.9927 86.5953 65.7823C86.4969 65.881 86.3984 65.6836 86.3984 65.5849C86.8906 64.3018 87.5796 63.1174 88.2686 61.9329C88.5639 61.3407 88.9576 60.7485 89.2529 60.1563C89.4498 59.9589 90.1388 58.4784 90.5325 58.2809C90.5325 58.3796 90.5325 58.2809 90.5325 58.2809Z" fill="#233E44"/>
<path d="M89.1547 57.9845C89.1547 57.9845 88.8594 58.6754 88.761 58.8728C88.5641 59.2677 88.2688 59.5638 88.0719 59.9586C87.5798 60.7482 87.1861 61.4391 86.7924 62.2287C86.3002 63.3145 85.8081 64.795 84.8238 65.4859C84.7254 65.5846 84.5285 65.3872 84.6269 65.2885C85.1191 64.0054 85.9065 62.7222 86.5955 61.5378C87.3829 60.156 88.1704 58.7741 89.3515 57.5897C89.45 57.491 89.5484 57.5897 89.45 57.6884C89.3515 57.8858 89.3515 57.8858 89.1547 57.9845Z" fill="#233E44"/>
<path d="M87.5797 57.3924C86.7923 58.5768 86.0048 59.7612 85.3158 61.0444C84.7253 62.1301 84.3315 63.5119 83.3472 64.3016C83.2488 64.4003 83.1504 64.3016 83.1504 64.2029C83.5441 62.9197 84.43 61.7353 85.0205 60.6496C85.808 59.3664 86.5954 58.2807 87.5797 57.3924C87.5797 57.2937 87.6781 57.2937 87.5797 57.3924Z" fill="#233E44"/>
<path d="M86.0044 56.7014C84.528 58.7742 83.4452 61.0443 81.9688 63.1171C81.8704 63.2158 81.6735 63.1171 81.7719 63.0184C82.6578 60.6495 84.3311 58.5768 85.8075 56.6027C85.906 56.4053 86.1028 56.504 86.0044 56.7014Z" fill="#233E44"/>
<path d="M83.6424 55.517C82.7565 56.7014 82.0675 57.9845 81.477 59.3664C80.9848 60.4521 80.5911 61.7352 79.7052 62.5248C79.6068 62.6235 79.3115 62.5248 79.4099 62.3274C79.8037 61.0443 80.5911 59.7612 81.1817 58.6754C81.7723 57.491 82.4613 56.3066 83.3471 55.3196C83.544 55.1222 83.7408 55.3196 83.6424 55.517Z" fill="#233E44"/>
<path d="M81.3786 55.4182C80.6896 56.5039 80.1975 57.5896 79.6069 58.6753C79.1147 59.6624 78.8195 60.8468 78.1304 61.6364C78.032 61.7351 77.9336 61.6364 77.9336 61.5377C78.032 60.3533 78.721 59.3662 79.2132 58.3792C79.8038 57.2935 80.4928 56.2078 81.1818 55.2207C81.2802 55.122 81.4771 55.3194 81.3786 55.4182Z" fill="#233E44"/>
<path d="M80.2956 53.7406C79.4097 54.9251 78.6223 56.2082 78.0317 57.59C77.4411 58.7745 77.2443 60.1563 76.6537 61.3407C76.5553 61.4394 76.3584 61.4394 76.3584 61.242C76.4568 58.4784 78.4254 55.5173 80.0003 53.5432C80.1971 53.2471 80.394 53.5432 80.2956 53.7406Z" fill="#233E44"/>
<path d="M78.3269 52.8523C77.6379 53.938 77.0473 55.1225 76.5551 56.4056C76.063 57.59 75.7677 58.9718 75.0787 60.1563C75.0787 60.255 74.8818 60.255 74.8818 60.0576C75.0787 57.4913 76.8504 54.7276 78.13 52.7536C78.2284 52.5562 78.4253 52.6549 78.3269 52.8523Z" fill="#233E44"/>
<path d="M77.2445 51.4701C76.3586 52.7532 75.6696 54.1351 74.9806 55.5169C74.39 56.8987 74.0947 58.5767 73.2089 59.8598C73.1104 59.9585 72.9136 59.9585 72.9136 59.7611C72.9136 58.2806 73.701 56.7013 74.2916 55.4182C74.9806 53.9376 75.8665 52.5558 76.8507 51.2727C77.146 51.0753 77.3429 51.2727 77.2445 51.4701Z" fill="#233E44"/>
<path d="M75.768 50.4831C74.8821 51.9636 73.8978 53.4442 73.1104 55.0234C72.3229 56.5039 71.9292 58.0832 71.1418 59.5637C71.0433 59.7611 70.748 59.6624 70.748 59.465C71.0433 56.0104 73.7009 53.0494 75.5711 50.3844C75.6695 50.0883 75.8664 50.2857 75.768 50.4831Z" fill="#233E44"/>
<path d="M74.3896 48.904C73.3069 50.7793 71.8304 52.3586 70.8461 54.2339C69.8619 56.0106 69.4681 58.2807 68.287 59.86C68.1886 59.9587 67.9917 59.86 67.9917 59.7613C68.1886 55.4183 71.732 51.8651 74.1927 48.7066C74.2912 48.6079 74.488 48.8053 74.3896 48.904Z" fill="#233E44"/>
<path d="M18.4821 77.9226C21.5334 77.133 24.4863 75.8499 27.4392 74.5668C30.7858 73.0862 34.2308 71.6057 37.5774 70.2239C41.9083 68.3485 46.3376 66.4732 50.6685 64.4991C53.7198 63.1173 56.7711 61.6368 59.9209 60.6497C70.2559 57.4913 81.5753 59.564 91.6151 63.5121C98.1114 66.0784 103.722 70.8161 110.218 73.3823C111.104 73.7771 112.088 73.7771 113.073 73.3823C113.86 73.0862 114.746 72.494 115.533 72.6914C115.632 72.8888 114.352 75.159 113.762 76.3434C113.171 77.5278 112.679 78.7123 112.876 79.9954C112.974 80.785 113.27 81.4759 113.565 82.1668C113.762 82.6604 113.959 83.1539 114.155 83.5487C112.187 82.6604 109.529 83.2526 107.561 84.2396C105.592 85.2266 103.919 86.8059 102.245 88.1877C95.1586 94.1098 86.2999 98.0579 77.0476 98.5514C73.8978 98.7488 70.8465 98.4527 67.6968 98.0579C50.1764 95.8865 33.2465 89.4708 18.679 79.6006C18.2853 79.4032 17.99 79.1071 17.7931 78.7123C17.6947 78.3175 18.0884 78.0213 18.4821 77.9226Z" fill="#B4C2DC"/>
<path d="M45.9439 78.2184C48.6015 78.7119 51.0622 80.1925 53.6214 81.0808C57.2633 82.3639 61.2005 82.66 64.9408 82.9561C67.0078 83.1536 69.1732 83.2523 71.2402 83.1535C73.1104 83.0548 74.9806 82.7587 76.8507 82.4626C80.2958 81.9691 83.8392 81.3769 87.2842 80.686C95.4539 78.9094 103.624 75.9483 111.793 77.4288C112.482 78.3171 111.793 79.0081 110.809 79.4029C109.825 79.7977 108.742 79.6003 107.659 79.5016C103.722 79.2055 99.9816 80.9821 96.3397 82.4626C91.4183 84.338 86.3984 85.8185 81.3785 87.2004C78.524 87.99 75.5711 88.7796 72.6183 89.1744C63.0706 90.3588 53.1293 86.8055 46.4361 79.9951C46.0423 79.6003 45.6486 78.7119 45.9439 78.2184Z" fill="#BFD0E0"/>
<path d="M113.172 81.1798C113.763 82.6603 114.747 83.6474 114.649 83.8448C114.55 83.9435 114.354 83.6473 113.861 83.4499C113.074 83.0551 112.385 83.1538 111.794 83.1538C109.727 83.1538 107.66 84.3383 107.66 84.3383C106.381 85.0292 106.184 85.3253 103.428 87.5954C103.428 87.5954 103.034 87.8916 100.967 89.4708C96.341 92.9254 91.5179 95.0968 91.5179 95.0968C89.0572 96.1826 85.12 97.7618 80.0017 98.354C77.4425 98.6501 73.8991 98.9462 66.9106 98.0579C65.631 97.8605 53.3273 96.2813 40.4331 91.1487C35.2164 89.076 30.6886 86.7071 29.0153 85.9175C26.5546 84.6344 27.342 84.9305 25.3734 83.8448C25.3734 83.8448 18.1881 80.0941 17.8928 78.8109C17.7944 78.5148 17.9912 78.3174 17.9912 78.3174C17.9912 78.3174 18.0897 78.12 18.4834 77.9226C23.208 76.6395 30.1965 81.2785 30.1965 81.2785C39.0551 87.2006 49.1933 90.3591 53.4258 91.4448C61.6938 93.715 70.2572 94.3072 78.7221 93.4189C82.4624 93.0241 86.498 92.4319 89.8446 90.8526C93.6834 89.076 96.4394 85.6214 99.786 83.1538C105.495 78.9096 111.794 77.4291 112.877 78.9096C113.074 79.4031 112.68 79.8967 113.172 81.1798Z" fill="#97A9BF"/>
<path d="M24.6832 75.3565C27.8329 74.172 27.8329 74.0733 30.5889 73.0863C34.3292 71.7045 37.1837 70.7175 40.4318 69.6317C45.2549 68.0525 49.1921 66.8681 50.2748 66.572C64.8423 62.3278 80.4926 57.7874 92.6978 64.2031C98.3083 67.1642 108.545 75.1591 112.876 73.2837C113.171 73.185 115.238 72.198 115.533 72.6915C115.829 73.0863 115.041 74.172 114.746 74.3694C114.746 74.3694 113.565 75.85 111.99 76.6396C107.364 78.7124 60.8067 69.1382 51.3575 71.211C48.503 71.8032 45.747 72.5928 42.991 73.4811C41.5146 73.9746 40.0381 74.4682 38.5617 74.9617C37.6758 75.2578 36.8884 75.4552 36.1994 75.4552C35.8057 75.4552 33.6402 75.6526 33.4434 75.0604C32.9512 73.8759 40.235 68.8421 47.9125 65.3875C56.0821 61.7355 62.9721 60.7485 64.3502 60.5511C68.8779 59.9589 78.9177 58.4784 89.6465 62.5252C94.7648 64.4992 97.6193 65.5849 101.064 67.9538C104.608 70.4214 107.265 73.185 111.498 73.2837C113.27 73.2837 114.648 72.8889 115.632 72.5928C114.451 73.8759 113.27 75.2578 112.088 76.5409C109.234 75.0604 105.986 74.5669 102.836 74.0733C99.391 73.4811 95.8475 72.9876 92.4025 72.5928C85.2172 71.7045 77.9334 71.211 70.6496 71.4084C63.6612 71.6058 56.8695 72.7902 50.1763 74.7643C46.6329 75.7513 43.0894 76.6396 39.4475 76.9357C34.8214 77.3305 33.6402 76.4422 28.325 76.6396C22.4193 76.9357 18.3837 78.1201 18.2852 77.824C18.1868 77.6266 20.1554 77.0344 24.6832 75.3565Z" fill="#A2B5D3"/>
<path d="M50.9637 76.3432C54.1135 76.2445 57.1648 77.1328 60.3145 77.2315C63.3658 77.3302 66.3187 77.2315 69.37 76.9354C75.7679 76.3432 82.0674 75.2575 88.3669 74.4678C88.3669 74.4678 93.9773 73.6782 107.856 73.1847C107.856 73.1847 114.943 72.9873 115.041 74.1717C115.041 74.2704 114.943 74.5665 114.648 75.06C114.648 75.06 114.352 75.5536 114.057 75.9484C112.679 78.0211 106.478 76.5406 106.478 76.5406C104.116 75.9484 98.2098 76.3432 86.6936 77.725C80.3941 78.5146 74.0946 79.6003 67.7951 79.8965C64.7438 79.9952 61.791 79.9952 58.8381 79.5016C56.0821 79.1068 53.0308 78.5146 50.8653 76.738C50.57 76.738 50.6684 76.3432 50.9637 76.3432Z" fill="#9FB3CB"/>
<path d="M115.238 73.5798C114.647 74.3695 113.171 75.4552 110.612 75.6526C107.659 75.85 105.001 74.863 100.572 72.2967C97.4223 70.4214 94.371 68.2499 90.926 66.8681C87.4809 65.4862 83.8391 64.6966 80.1972 64.0057C76.3584 63.3148 72.5197 63.0187 68.6809 63.3148C64.8422 63.6109 61.2003 64.9927 57.6569 66.4733C50.3731 69.533 43.0893 72.5928 35.7071 75.2578C34.0338 75.85 29.3092 77.824 22.8129 78.4163C21.3364 78.515 18.1867 78.8111 17.9898 78.2189C17.793 77.3305 24.8799 75.4552 33.5417 72.0993C50.57 65.3875 53.7197 60.6498 65.3343 59.3667C70.4527 58.7745 74.4883 59.1693 76.6537 59.4654C78.1302 59.6628 91.1228 61.1433 99.2925 67.0655C100.277 67.7564 100.966 68.2499 102.344 69.1382C102.344 69.1382 107.856 72.7902 111.104 73.185C111.399 73.185 111.793 73.2837 112.187 73.2837C112.777 73.2837 113.171 73.185 114.647 72.7902C115.238 72.6915 115.533 72.5928 115.632 72.6915C115.73 72.8889 115.336 73.4811 115.238 73.5798Z" fill="#718CA7"/>
<path d="M36.8883 75.6525C37.8726 76.9356 37.7741 79.0084 36.593 80.0941C35.904 80.6863 34.9197 80.8837 33.9354 80.9824C33.2464 80.9824 32.5574 80.9824 31.9668 80.5876C31.3762 80.1928 30.8841 79.6006 30.6872 78.9097C30.1951 77.6265 30.2935 76.146 31.1794 75.159C32.3605 73.6784 35.7071 74.0732 36.8883 75.6525Z" fill="#596983"/>
<path d="M35.0185 76.3431C35.5106 77.034 35.5106 78.1198 34.8216 78.6133C34.4279 78.9094 33.9358 79.0081 33.4436 79.0081C33.0499 79.0081 32.7546 79.0081 32.4593 78.8107C32.164 78.6133 31.9672 78.3172 31.7703 77.9224C31.475 77.3302 31.5735 76.5405 31.9672 75.9483C32.7546 75.2574 34.4279 75.5535 35.0185 76.3431Z" fill="#E8AC28"/>
<path d="M34.1321 76.8367C34.329 77.1328 34.329 77.6263 34.0337 77.8238C33.9353 78.0212 33.7384 78.0212 33.5415 78.0212C33.3447 78.0212 33.2463 78.0212 33.0494 77.9225C32.951 77.8238 32.8525 77.725 32.7541 77.5276C32.6557 77.2315 32.6557 76.9354 32.8525 76.6393C33.1478 76.4419 33.9353 76.5406 34.1321 76.8367Z" fill="#314C53"/>
<path d="M41.9082 72.0993C42.0066 71.9019 42.4003 72.0006 42.5972 72.198C44.5658 73.9746 45.8454 76.4422 45.8454 79.1072C45.8454 81.7721 44.4674 84.4371 42.1051 85.6215C42.2035 84.2397 43.3846 82.9566 43.9752 81.6734C45.0579 79.4033 44.8611 76.5409 43.3846 74.3695C42.8925 73.5798 42.2035 73.0863 41.9082 72.0993Z" fill="#314C53"/>
<path d="M47.0264 85.4238C48.2076 85.8186 49.3887 86.2134 50.6683 86.6083C52.0463 87.1018 53.5228 87.5953 54.9992 87.694C55.8851 87.7927 56.9678 87.7927 57.5584 88.4836C58.149 89.2732 57.8537 90.359 57.5584 91.2473C57.2631 91.9382 56.9678 92.5304 56.6725 93.1226C56.2788 93.7148 55.7867 94.4058 55.0976 94.5045C54.4086 94.6032 53.9165 94.1096 53.4243 93.7148C51.5542 92.1356 49.684 90.6551 47.9123 89.0758C47.4202 88.681 47.1249 88.1875 46.5343 87.8914C46.1406 87.5953 45.6484 87.2992 45.6484 86.8057C45.6484 86.3122 46.0422 86.016 46.4359 85.7199C46.5343 85.6212 46.7312 85.6212 47.0264 85.4238Z" fill="#648A95"/>
<g opacity="0.34">
<path opacity="0.34" d="M91.5165 76.442C88.5636 76.9355 85.4138 76.1459 82.5594 75.5536C79.8034 74.9614 77.0473 74.4679 74.2913 74.2705C69.0746 73.777 63.9563 74.2705 59.1332 76.2446C56.5741 77.3303 52.1447 78.7121 51.062 74.9614C49.9793 71.2107 54.507 68.9406 57.2631 67.8549C62.4798 65.7821 68.484 65.1899 73.996 65.7821C77.4411 66.0782 80.6892 66.8678 83.9374 68.0523C87.1856 69.2367 90.5322 70.8159 92.6976 73.5796C93.485 74.3692 92.6976 76.2446 91.5165 76.442Z" fill="white"/>
</g>
<path d="M76.6539 65.9794C75.0791 66.4729 73.4058 66.2755 71.7325 66.2755C69.8623 66.2755 67.9922 66.3742 66.2204 66.6703C64.744 66.8677 63.2676 67.2625 61.7911 67.7561C60.4131 68.2496 59.1335 69.1379 57.7555 69.2366C57.3618 69.2366 57.1649 68.7431 57.2634 68.447C58.7398 65.8807 63.0707 65.2885 65.7283 64.9924C69.0749 64.5976 73.5042 64.3015 76.7524 65.6833C76.7524 65.782 76.7524 65.9794 76.6539 65.9794Z" fill="white"/>
<path d="M54.9013 71.4082C54.5076 71.9017 53.7201 72.0004 53.228 71.7043C53.0311 71.6056 52.8343 71.4082 52.7358 71.2108C52.539 70.9147 52.539 70.5199 52.6374 70.2238C52.6374 70.2238 52.6374 70.2238 52.6374 70.1251C52.7358 69.7303 53.1296 69.2368 53.6217 69.1381C54.0154 69.0394 54.3107 69.0394 54.606 69.2368C55.3934 69.7303 55.4919 70.7173 54.9013 71.4082Z" fill="white"/>
<g opacity="0.67">
<path opacity="0.67" d="M58.5427 88.9774C56.2788 89.1748 53.7197 88.3852 51.5542 87.8916C49.2904 87.2994 46.7312 86.7072 44.861 85.3254C44.7626 85.2267 44.7626 85.0293 44.9595 85.128C47.2233 85.8189 49.3888 86.8059 51.7511 87.3981C54.015 87.9903 56.3773 88.3852 58.6411 88.78C58.7396 88.78 58.6411 88.9774 58.5427 88.9774Z" fill="#233E44"/>
</g>
<g opacity="0.67">
<path opacity="0.67" d="M58.8377 90.0631C57.1644 90.8527 54.3099 89.767 52.5382 89.3722C49.979 88.78 47.3215 88.0891 45.156 86.6085C45.0576 86.5098 45.156 86.4111 45.2544 86.4111C49.6838 87.9904 54.2115 89.3722 58.8377 89.8657C58.9361 89.9644 58.9361 90.0631 58.8377 90.0631Z" fill="#233E44"/>
</g>
<g opacity="0.67">
<path opacity="0.67" d="M58.2477 91.6424C56.1807 92.0372 53.9168 91.3462 51.9482 90.754C49.7828 89.9644 47.4204 89.1748 45.4519 87.8917C45.3534 87.793 45.3534 87.4968 45.5503 87.5955C47.7157 88.1878 49.6843 89.2735 51.7513 89.9644C53.8184 90.6553 56.0822 90.8527 58.1492 91.4449C58.3461 91.4449 58.3461 91.5436 58.2477 91.6424Z" fill="#233E44"/>
</g>
<g opacity="0.67">
<path opacity="0.67" d="M57.7554 93.419C56.0821 93.6164 54.212 92.9255 52.6371 92.3333C50.9638 91.7411 49.3889 91.0501 47.9125 89.9644C47.7156 89.8657 47.8141 89.5696 48.0109 89.6683C49.6842 90.3592 51.3575 91.1488 53.1292 91.7411C54.6057 92.2346 56.279 92.5307 57.7554 93.419Z" fill="#233E44"/>
</g>
<g opacity="0.67">
<path opacity="0.67" d="M57.3615 94.8994C55.1961 94.8994 52.6369 93.9124 51.0621 92.4318C50.9636 92.3331 51.0621 92.1357 51.2589 92.1357C52.3416 92.5306 53.4244 93.0241 54.5071 93.5176C55.4914 93.9124 56.4757 94.2085 57.46 94.702C57.46 94.8007 57.3615 94.8994 57.3615 94.8994Z" fill="#233E44"/>
</g>
<path d="M34.8214 83.8446C33.345 83.8446 31.967 83.351 30.7858 82.5614C28.3251 80.6861 27.5377 77.0341 29.0141 74.3691C29.7031 72.9873 30.9827 71.9016 32.3607 71.3094C33.0497 71.0133 33.8371 70.9146 34.6246 70.9146C36.8884 70.9146 39.1523 72.099 40.3335 73.9743C41.9083 76.5406 41.4162 80.2913 39.1523 82.2653C38.0696 83.2523 36.4947 83.8446 34.8214 83.8446Z" fill="white"/>
<path d="M34.723 71.3093C36.79 71.3093 38.857 72.395 39.9398 74.1717C41.4162 76.5405 40.924 79.9951 38.857 81.8704C37.7743 82.8575 36.2979 83.351 34.8214 83.351C33.5418 83.351 32.1638 82.9562 31.1795 82.1666C28.9157 80.3899 28.2267 77.034 29.5062 74.5665C30.1952 73.2833 31.278 72.2963 32.656 71.7041C33.345 71.408 34.034 71.3093 34.723 71.3093ZM34.723 70.3223C33.8371 70.3223 33.0497 70.5197 32.2623 70.8158C30.6874 71.408 29.4078 72.5924 28.6204 74.073C27.0455 77.034 27.9314 80.8834 30.4905 82.9562C31.6717 83.8445 33.1481 84.338 34.8214 84.338C36.5932 84.338 38.2665 83.7458 39.546 82.5614C42.0068 80.3899 42.5973 76.4418 40.8256 73.5794C39.546 71.6054 37.1837 70.3223 34.723 70.3223Z" fill="#718CA7"/>
<path d="M32.4591 71.8032C32.3607 71.8032 32.2623 71.8032 32.1638 71.8032C30.9827 72.3954 29.9984 73.2837 29.4078 74.3695C28.3251 76.4422 28.6204 79.2059 30.0968 81.0812C31.0811 81.7721 32.2623 82.0682 33.4434 81.8708C36.0026 81.476 37.9712 78.8111 37.6759 76.2448C37.5775 73.7772 35.0183 71.7045 32.4591 71.8032Z" fill="#314C53"/>
<path d="M38.2666 77.7249C38.2666 78.7119 37.4792 79.5015 36.4949 79.5015C35.5106 79.5015 34.7231 78.7119 34.7231 77.7249C34.7231 76.7379 35.5106 75.9482 36.4949 75.9482C37.4792 75.9482 38.2666 76.7379 38.2666 77.7249Z" fill="white"/>
</mask>
<g mask="url(#mask0)">
<rect x="-18" y="34" width="196" height="94" fill="#21A36C"/>
</g>
</svg>
