<svg width="90" height="90" viewBox="0 0 90 90" fill="none" xmlns="http://www.w3.org/2000/svg">
<mask id="mask0" mask-type="alpha" maskUnits="userSpaceOnUse" x="26" y="18" width="38" height="54">
<path d="M26.8877 48.2581L29.4242 44.7919L32.6256 45.6118L37.0091 42.7792L45.5545 47.699L56.5009 43.8228L58.7419 46.8169L60.9829 44.7919L62.8176 47.699L60.9829 54.0973L44.6556 59.8371L32.6256 54.0973L26.8877 48.2581Z" fill="#CCCBBC"/>
<path d="M35.8889 44.0961C35.8889 44.0961 36.5908 46.7921 35.8889 48.5687C35.1871 50.3453 32.0841 53.9855 31.5054 59.8619C31.0991 64.0612 34.4483 69.3786 44.5451 69.3786C52.8565 69.3786 57.8803 65.4527 58.2004 61.3279C58.7299 54.5694 53.8662 51.1156 52.8442 48.4693C51.6867 45.4627 51.9576 42.7916 51.9576 42.7916L35.8889 44.0961Z" fill="#FAC042"/>
<path d="M39.7305 44.8664C39.1764 46.0342 37.1324 51.4883 37.0093 56.0727C36.8861 60.9055 41.0234 63.6512 44.8651 63.3033C49.6795 62.8685 52.487 60.334 51.9329 55.5633C51.3049 50.1962 48.6575 44.8664 48.6575 44.8664H39.7305Z" fill="#F7CD48"/>
<path d="M47.5369 47.5748C48.8175 47.7363 52.8562 47.9475 52.8562 47.9475C52.8562 47.9475 52.1544 46.8293 51.9943 44.8788C50.7753 44.7297 49.7656 44.8043 48.5466 44.9658C46.4534 45.2267 44.3355 45.3385 42.23 45.3012C41.171 45.2764 40.1244 45.2267 39.0655 45.1273C38.3882 45.0652 36.9969 44.6055 36.4551 45.1149C38.733 46.8169 46.1702 47.3884 47.5369 47.5748Z" fill="#E9B13F"/>
<path d="M43.4245 25.5722C38.9425 25.5101 30.04 28.616 30.04 36.1946C30.04 46.2579 43.8308 46.8169 43.8308 46.8169C51.2557 46.9784 58.8036 43.2761 58.7667 36.5052C58.7298 29.8957 51.7728 25.684 43.4245 25.5722Z" fill="#FAC042"/>
<path d="M41.9099 26.181C42.5133 25.6343 43.0058 24.9262 43.092 24.1062C43.1659 23.2986 42.7349 22.4041 41.9592 22.1557C43.0304 22.3544 43.9662 23.1868 44.2987 24.2304C44.5819 23.6465 45.0498 23.162 45.6162 22.8638C45.5546 23.4477 45.493 24.0316 45.4315 24.6156C45.7516 24.1062 46.355 23.7708 46.9583 23.7708C46.3303 24.6901 46.4412 26.0443 47.2046 26.8519L41.9099 26.181Z" fill="#FAC042"/>
<path d="M30.4094 34.1943C29.1904 35.2379 27.9222 36.3685 27.405 37.8966C27.7621 37.6109 28.2177 37.4494 28.6733 37.4494C28.5378 38.1203 28.4763 38.8036 28.4886 39.4993C29.8677 39.1142 31.4437 39.5366 32.4657 40.5553C32.5027 40.5926 32.5396 40.6174 32.5766 40.605C32.6258 40.5926 32.6135 40.5056 32.5642 40.5181L30.4094 34.1943Z" fill="#FAC042"/>
<path d="M57.4861 33.4489C58.2495 33.9956 59.0253 34.5422 59.7887 35.0889C59.5671 35.2752 59.3331 35.4491 59.1115 35.6355C59.8503 36.3809 60.4906 37.2754 60.9708 38.2818C59.4932 37.9463 57.991 37.7351 56.4888 37.6357L57.4861 33.4489Z" fill="#FAC042"/>
<path d="M36.2584 40.1702C36.2214 41.4871 37.9576 45.0403 44.2004 45.2267C50.7141 45.4379 52.1424 41.7232 52.1424 41.7232C52.2655 40.1702 36.2584 40.1702 36.2584 40.1702Z" fill="#D52F28"/>
<path d="M35.7778 39.6732C35.4946 41.1392 40.4076 43.1519 44.8403 43.1146C49.0637 43.0773 52.573 42.1207 52.6592 40.7044C52.7454 39.2757 50.8368 38.9651 48.8421 37.9836C46.8474 36.9897 46.5765 35.3125 44.2246 35.4367C41.8605 35.5734 42.1068 36.9524 39.8781 37.3872C37.6494 37.8221 36.1472 37.7351 35.7778 39.6732Z" fill="#F25A29"/>
<path d="M38.4747 38.2942C38.2161 38.3315 37.9452 38.3687 37.7236 38.493C37.4896 38.6172 37.3049 38.8532 37.3049 39.1141C37.3172 39.5366 37.7605 39.785 38.1669 39.9217C38.6471 40.0832 39.1396 40.2199 39.6321 40.3068C39.903 40.3565 40.1739 40.3938 40.4448 40.3441C40.9866 40.2447 41.3929 39.7975 41.7623 39.3751C42.0332 39.052 42.3287 38.6917 42.3041 38.2693C42.3041 38.1824 42.2795 38.0954 42.2179 38.0209C42.1317 37.9215 41.9716 37.8966 41.8362 37.8966C40.7157 37.8593 39.5829 38.1451 38.4747 38.2942Z" fill="#F77E41"/>
<path d="M38.3143 36.2691C38.8991 36.2691 39.3732 35.7907 39.3732 35.2007C39.3732 34.6106 38.8991 34.1322 38.3143 34.1322C37.7295 34.1322 37.2554 34.6106 37.2554 35.2007C37.2554 35.7907 37.7295 36.2691 38.3143 36.2691Z" fill="#231F20"/>
<path d="M38.4378 34.8785C38.4378 35.1394 38.2284 35.3506 37.9699 35.3506C37.7113 35.3506 37.502 35.1394 37.502 34.8785C37.502 34.6176 37.7113 34.4064 37.9699 34.4064C38.2284 34.4064 38.4378 34.6176 38.4378 34.8785Z" fill="white"/>
<path d="M52.8071 36.1946C52.8071 36.7785 52.3392 37.2631 51.7481 37.2631C51.1571 37.2631 50.6892 36.7909 50.6892 36.1946C50.6892 35.5983 51.1571 35.1262 51.7481 35.1262C52.3392 35.1262 52.8071 35.6107 52.8071 36.1946Z" fill="#231F20"/>
<path d="M51.4157 36.332C51.6741 36.332 51.8835 36.1207 51.8835 35.8599C51.8835 35.5992 51.6741 35.3878 51.4157 35.3878C51.1572 35.3878 50.9478 35.5992 50.9478 35.8599C50.9478 36.1207 51.1572 36.332 51.4157 36.332Z" fill="white"/>
<path d="M38.3146 27.7597C38.487 27.7597 38.487 27.4979 38.3146 27.4979C38.1422 27.4979 38.1422 27.7597 38.3146 27.7597Z" fill="#F7CD48"/>
<path d="M38.3146 27.7588C38.8071 27.7464 39.2996 27.9824 39.5952 28.3924C39.6321 28.4545 39.706 28.4794 39.7675 28.4421C39.8291 28.4049 39.8537 28.3179 39.8168 28.2682C39.4843 27.7837 38.9056 27.4855 38.3146 27.5103C38.1422 27.4979 38.1422 27.7712 38.3146 27.7588Z" fill="#F7CD48"/>
<path d="M40.2354 29.2C40.6171 29.5106 40.8264 29.9951 40.7895 30.492C40.7771 30.666 41.0357 30.6536 41.048 30.492C41.085 29.933 40.8387 29.3739 40.4201 29.026C40.3708 28.9763 40.2846 28.9763 40.2354 29.026C40.1984 29.0633 40.1861 29.1503 40.2354 29.2Z" fill="#F7CD48"/>
<path d="M41.8605 30.4299C42.0329 30.7902 42.0945 31.2002 42.0452 31.5978C42.0329 31.6723 42.0575 31.7344 42.1314 31.7593C42.193 31.7717 42.2792 31.7344 42.2915 31.6723C42.353 31.2002 42.2915 30.7281 42.0822 30.3057C42.0575 30.2436 41.959 30.2312 41.9098 30.256C41.8482 30.2933 41.8359 30.3678 41.8605 30.4299Z" fill="#F7CD48"/>
<path d="M43.2028 31.9084C43.2521 32.2935 43.3013 32.6786 43.3383 33.0638C43.3506 33.1383 43.3875 33.2004 43.4737 33.2004C43.5353 33.2004 43.6092 33.1383 43.6092 33.0638C43.5599 32.6786 43.5107 32.2935 43.4737 31.9084C43.4614 31.8338 43.4245 31.7717 43.3383 31.7717C43.2767 31.7841 43.1905 31.8462 43.2028 31.9084Z" fill="#F7CD48"/>
<path d="M45.4437 31.635C45.1605 32.0077 44.9881 32.4798 44.9758 32.952C44.9635 33.1259 45.222 33.1135 45.2343 32.952C45.2467 32.5171 45.4067 32.1071 45.6653 31.7593C45.7022 31.7096 45.6776 31.6102 45.616 31.5853C45.5545 31.5481 45.4929 31.5853 45.4437 31.635Z" fill="#F7CD48"/>
<path d="M46.6258 32.9768C46.8351 32.4674 47.0444 31.958 47.2538 31.4487C47.2784 31.3865 47.2291 31.2996 47.1676 31.2872C47.0937 31.2623 47.0321 31.312 47.0075 31.3741C46.7982 31.8835 46.5888 32.3929 46.3795 32.9023C46.3549 32.9644 46.4042 33.0513 46.4657 33.0638C46.5396 33.0886 46.5888 33.0389 46.6258 32.9768Z" fill="#F7CD48"/>
<path d="M48.4728 30.7654C48.8668 30.0821 49.4579 29.5478 50.1844 29.2372C50.2459 29.2124 50.2582 29.113 50.2336 29.0633C50.1967 29.0012 50.1228 28.9888 50.0612 29.0136C49.3101 29.3366 48.6698 29.9205 48.2635 30.6411C48.1773 30.7778 48.3989 30.9145 48.4728 30.7654Z" fill="#F7CD48"/>
<path d="M50.6894 28.5912C51.0342 28.3178 51.4282 28.0942 51.8469 27.9327C51.9084 27.9079 51.9577 27.8457 51.933 27.7712C51.9207 27.7091 51.8345 27.6594 51.773 27.6842C51.3174 27.8582 50.8864 28.1066 50.5047 28.4048C50.4555 28.4545 50.4555 28.5415 50.5047 28.5912C50.554 28.6409 50.6278 28.6409 50.6894 28.5912Z" fill="#F7CD48"/>
<path d="M48.3991 28.8645C48.8793 28.38 49.3964 27.9576 49.9628 27.5849C50.0983 27.4979 49.9751 27.2743 49.8274 27.3612C49.2364 27.734 48.6946 28.1812 48.202 28.6782C48.1035 28.8024 48.2882 28.9888 48.3991 28.8645Z" fill="#F7CD48"/>
<path d="M47.4386 30.3181C47.4756 29.9206 47.5987 29.5354 47.7957 29.1876C47.8819 29.0385 47.648 28.9142 47.5741 29.0509C47.3524 29.436 47.2293 29.8709 47.1801 30.3181C47.1678 30.3927 47.2416 30.4548 47.3155 30.4548C47.3771 30.4548 47.4263 30.3927 47.4386 30.3181Z" fill="#F7CD48"/>
<path d="M45.3452 30.902C45.4807 30.343 45.5053 29.759 45.4068 29.1875C45.3945 29.113 45.3083 29.0757 45.2467 29.1006C45.1729 29.1254 45.1482 29.1875 45.1606 29.2621C45.2467 29.7839 45.2221 30.3305 45.099 30.8399C45.0497 31.0014 45.3083 31.0635 45.3452 30.902Z" fill="#F7CD48"/>
<path d="M43.806 30.3802C43.8307 29.759 43.6829 29.1503 43.3628 28.616C43.2766 28.467 43.0549 28.6036 43.1411 28.7527C43.4366 29.2497 43.5721 29.8087 43.5475 30.3802C43.5352 30.5417 43.7937 30.5417 43.806 30.3802Z" fill="#F7CD48"/>
<path d="M42.2792 28.9267C42.0945 28.3924 41.7743 27.9079 41.3557 27.5228C41.2325 27.4109 41.0478 27.5973 41.171 27.7091C41.565 28.057 41.8605 28.4918 42.0329 28.9888C42.0575 29.0509 42.1191 29.1006 42.193 29.0757C42.2545 29.0633 42.3038 28.9888 42.2792 28.9267Z" fill="#F7CD48"/>
<path d="M40.4324 27.0134C40.3093 26.7525 40.1246 26.5413 39.8907 26.3673C39.8414 26.3301 39.7429 26.3549 39.7183 26.417C39.6813 26.4916 39.706 26.5537 39.7675 26.591C39.7922 26.6034 39.7552 26.5785 39.7675 26.591C39.7798 26.591 39.7798 26.6034 39.7922 26.6034C39.8045 26.6158 39.8168 26.6282 39.8291 26.6282C39.8537 26.6531 39.8784 26.6655 39.903 26.6904C39.9522 26.74 39.9892 26.7773 40.0384 26.827L40.0507 26.8394C40.0631 26.8519 40.0631 26.8519 40.0507 26.8394C40.0631 26.8519 40.0754 26.8643 40.0754 26.8767C40.0877 26.9016 40.1123 26.9264 40.1246 26.9513C40.1616 27.001 40.1862 27.0631 40.2231 27.1252C40.2477 27.1873 40.3463 27.2122 40.3955 27.1749C40.4571 27.1625 40.4694 27.0879 40.4324 27.0134Z" fill="#F7CD48"/>
<path d="M43.0425 27.5227C42.8086 27.1376 42.587 26.74 42.353 26.3549C42.2668 26.2058 42.0452 26.3425 42.1314 26.4916C42.3653 26.8767 42.587 27.2743 42.8209 27.6594C42.8948 27.7961 43.1287 27.6594 43.0425 27.5227Z" fill="#F7CD48"/>
<path d="M44.8405 28.0942C44.6805 27.647 44.742 27.1625 45.0129 26.7649C45.0499 26.7028 45.0252 26.6158 44.9637 26.591C44.9021 26.5537 44.8282 26.5785 44.7913 26.6406C44.4958 27.0755 44.4219 27.6718 44.5943 28.1688C44.6189 28.2309 44.6805 28.2806 44.7543 28.2557C44.8159 28.2433 44.8652 28.1688 44.8405 28.0942Z" fill="#F7CD48"/>
<path d="M46.3552 27.97C46.6137 27.4979 46.9954 27.0879 47.4633 26.8146C47.6111 26.7276 47.4757 26.504 47.3279 26.591C46.8231 26.8891 46.4167 27.324 46.1335 27.8333C46.0596 27.9824 46.2813 28.1191 46.3552 27.97Z" fill="#F7CD48"/>
<path d="M48.2639 27.71C48.4362 27.71 48.4362 27.4482 48.2639 27.4482C48.1038 27.4482 48.1038 27.71 48.2639 27.71Z" fill="#F7CD48"/>
<path d="M48.3376 27.647C48.6947 27.3612 49.1133 27.1376 49.5566 27.001C49.7167 26.9513 49.6428 26.7028 49.4827 26.7525C49.0025 26.9016 48.5469 27.15 48.1529 27.4606C48.1037 27.5103 48.1037 27.5973 48.1529 27.647C48.2145 27.6967 48.2884 27.6967 48.3376 27.647Z" fill="#F7CD48"/>
<path d="M26.8879 48.2581C26.8879 48.2581 19.8201 72 45.567 72C70.7105 72 62.83 47.6866 62.83 47.6866L58.7667 50.4074L54.0261 49.7365L52.3392 52.0598L46.2442 50.4074L41.7129 53.1655L40.6294 49.3141L35.5687 52.0598L31.9732 46.8045L30.0154 50.4074L26.8879 48.2581Z" fill="#E5E5D1"/>
<path d="M28.8088 57.9363C29.0182 59.0047 29.2644 60.0856 29.7939 61.0422C30.311 61.9989 31.136 62.8313 32.1703 63.1667C32.5644 63.2909 32.9953 63.3406 33.3893 63.2164C34.4852 62.881 34.8177 61.4398 34.5468 60.3216C34.2759 59.2035 33.611 58.2096 33.377 57.079C33.2416 56.4454 33.2539 55.787 33.1923 55.1409C33.0199 53.6004 31.567 51.8983 29.917 52.7431C28.1685 53.6501 28.5133 56.4081 28.8088 57.9363Z" fill="white"/>
<path d="M28.6362 33.9334C28.6362 33.9334 32.7735 16.7886 45.259 18.0682C57.7446 19.3479 60.6874 35.7846 60.6874 35.7846L55.4297 37.9588L53.1025 33.7968L48.6082 35.0516L45.5299 33.2501L41.4173 34.9273L39.5334 32.4799L34.916 34.8776L33.2167 32.9023L28.6362 33.9334Z" fill="#E5E5D1"/>
<path d="M34.8914 24.8392C34.4728 25.5846 34.1034 26.3922 34.0664 27.237C34.0295 28.0943 34.4112 29.0136 35.1623 29.3988C35.938 29.7963 36.9108 29.5478 37.588 29.0012C38.2652 28.4546 38.6962 27.6594 39.0656 26.8643C39.435 26.0692 39.7797 25.2492 40.3338 24.5783C40.9741 23.808 41.9592 23.0999 41.676 21.9569C41.4543 21.0748 40.5555 20.3542 39.6443 20.466C37.5757 20.7518 35.8272 23.162 34.8914 24.8392Z" fill="white"/>
<path d="M59.752 41.7108C59.1609 40.4187 58.9516 38.9527 59.1486 37.5488C59.1609 37.4618 59.1732 37.35 59.0994 37.3003C59.0747 37.2755 59.0378 37.263 59.0009 37.263C58.0158 37.0643 56.7599 38.5427 57.0431 39.4869C57.3755 40.5305 58.6807 41.5989 59.752 41.7108Z" fill="#FAC042"/>
<path d="M38.8327 36.7922C38.4756 36.7922 38.1308 36.6804 37.86 36.4692C37.2689 36.0095 37.0842 35.1274 37.429 34.4689C37.6014 34.1335 37.8969 33.8602 38.254 33.7235C38.4264 33.649 38.6111 33.6241 38.8081 33.6241C39.3622 33.6241 39.9039 33.9223 40.1872 34.3695C40.5812 35.0032 40.458 35.8977 39.9039 36.4071C39.6207 36.6555 39.239 36.7922 38.8327 36.7922Z" fill="white"/>
<path d="M38.8069 33.7347C39.3118 33.7347 39.8166 33.9956 40.0875 34.4304C40.4446 35.0143 40.3338 35.8467 39.8166 36.3064C39.5457 36.5549 39.1886 36.6667 38.8316 36.6667C38.5114 36.6667 38.1913 36.5673 37.9327 36.3685C37.3909 35.9461 37.2185 35.1261 37.5387 34.5174C37.6987 34.2068 37.9696 33.9583 38.3021 33.8341C38.4622 33.7719 38.6345 33.7347 38.8069 33.7347ZM38.8069 33.4986C38.5976 33.4986 38.4006 33.5359 38.2036 33.6104C37.8342 33.7595 37.514 34.0453 37.317 34.4056C36.9476 35.1137 37.1446 36.0703 37.7849 36.5673C38.0681 36.7909 38.4375 36.9152 38.8316 36.9152C39.2625 36.9152 39.6689 36.7661 39.9767 36.4928C40.5677 35.9585 40.7032 34.9895 40.2845 34.3062C39.989 33.8092 39.4103 33.4986 38.8069 33.4986Z" fill="black"/>
<path d="M38.2652 33.8713C38.2406 33.8713 38.2159 33.8837 38.2036 33.8837C37.9204 34.0204 37.6865 34.244 37.551 34.5174C37.2801 35.0267 37.3663 35.6976 37.7234 36.1449C37.9574 36.3064 38.2529 36.3809 38.5361 36.3437C39.1517 36.2443 39.632 35.6106 39.5704 34.977C39.4965 34.3558 38.8932 33.834 38.2652 33.8713Z" fill="black"/>
<path d="M51.7492 37.7861C51.3921 37.7861 51.0473 37.6743 50.7765 37.4631C50.1854 37.0034 50.0007 36.1213 50.3455 35.4629C50.5179 35.1274 50.8134 34.8541 51.1705 34.7174C51.3429 34.6429 51.5276 34.618 51.7246 34.618C52.2787 34.618 52.8204 34.9162 53.1036 35.3635C53.4977 35.9971 53.3745 36.8916 52.8204 37.401C52.5249 37.6494 52.1555 37.7861 51.7492 37.7861Z" fill="white"/>
<path d="M51.7237 34.7286C52.2285 34.7286 52.7334 34.9895 53.0042 35.4243C53.3613 36.0082 53.2505 36.8406 52.7334 37.3003C52.4625 37.5488 52.1054 37.6606 51.7483 37.6606C51.4282 37.6606 51.108 37.5612 50.8494 37.3624C50.3077 36.94 50.1353 36.12 50.4554 35.5113C50.6155 35.2007 50.8864 34.9522 51.2188 34.828C51.3789 34.7658 51.5513 34.7286 51.7237 34.7286ZM51.7237 34.4925C51.5144 34.4925 51.3173 34.5298 51.1203 34.6043C50.7509 34.7534 50.4308 35.0392 50.2338 35.3995C49.8644 36.1076 50.0614 37.0642 50.7017 37.5612C50.9849 37.7848 51.3543 37.9091 51.7483 37.9091C52.1793 37.9091 52.5856 37.76 52.8934 37.4866C53.4845 36.9524 53.6199 35.9834 53.2013 35.3001C52.8934 34.8031 52.3147 34.4925 51.7237 34.4925Z" fill="black"/>
<path d="M51.1822 34.8652C51.1576 34.8652 51.1329 34.8776 51.1206 34.8776C50.8374 35.0143 50.6035 35.2379 50.468 35.5112C50.1971 36.0206 50.2833 36.6915 50.6404 37.1388C50.8744 37.3003 51.1699 37.3748 51.4531 37.3376C52.0687 37.2382 52.549 36.6045 52.4874 35.9709C52.4135 35.3497 51.7978 34.8279 51.1822 34.8652Z" fill="black"/>
<path d="M39.1768 35.8964C39.4284 35.8964 39.6324 35.6906 39.6324 35.4367C39.6324 35.1829 39.4284 34.9771 39.1768 34.9771C38.9252 34.9771 38.7212 35.1829 38.7212 35.4367C38.7212 35.6906 38.9252 35.8964 39.1768 35.8964Z" fill="white"/>
<path d="M52.1546 36.8158C52.4062 36.8158 52.6102 36.61 52.6102 36.3561C52.6102 36.1022 52.4062 35.8964 52.1546 35.8964C51.903 35.8964 51.699 36.1022 51.699 36.3561C51.699 36.61 51.903 36.8158 52.1546 36.8158Z" fill="white"/>
</mask>
<g mask="url(#mask0)">
<ellipse cx="45.5625" cy="45" rx="38.8125" ry="46.125" fill="#21A36C"/>
</g>
</svg>
