<svg width="160" height="160" viewBox="0 0 160 160" fill="none" xmlns="http://www.w3.org/2000/svg">
<mask id="mask0" mask-type="alpha" maskUnits="userSpaceOnUse" x="19" y="40" width="121" height="80">
<path d="M50.0704 97.1299C50.0704 97.1299 48.0705 100.487 46.7134 101.273C45.3563 102.058 41.2137 100.701 40.1423 101.558C39.0709 102.344 36.2854 104.629 37.2853 105.272C38.2853 105.844 39.928 104.058 39.928 104.058C39.928 104.058 38.9281 106.272 39.7138 106.272C40.4994 106.272 41.4994 104.844 41.4994 104.844L43.1422 104.415C43.1422 104.415 42.1422 106.844 43.3564 106.415C44.5707 105.987 45.3563 104.201 46.5706 103.915C47.7848 103.63 49.5704 103.701 51.1418 102.987C52.6417 102.272 55.5701 98.9155 55.7844 98.4155C55.9273 97.987 50.0704 97.1299 50.0704 97.1299Z" fill="#FF8A80"/>
<path d="M129.423 91.4162C130.637 82.4166 137.208 64.3461 113.138 54.4894C110.138 53.2752 107.353 52.4181 104.782 51.8467C106.281 51.4182 107.496 50.9896 107.496 50.5611C107.496 49.704 100.21 50.6325 97.139 51.061C96.8533 51.061 96.6391 51.061 96.3534 51.061C97.7819 50.5611 101.425 49.204 100.496 48.1326C99.4961 46.9184 91.2108 51.061 89.4251 51.9896C81.4255 53.7752 75.9258 57.3464 69.569 53.9895C58.4981 48.0612 48.07 48.0612 46.1416 47.9183C45.6416 47.8469 43.2131 48.6326 37.9991 48.6326C32.7851 48.6326 33.2851 50.5611 28.2853 52.1324C23.2855 53.7038 21.3571 52.9895 19.9286 54.918C18.5715 56.8465 21.2856 58.2035 22.2142 60.132C23.0713 62.0605 24.2855 63.7747 26.5711 64.4889C28.8567 65.2032 29.4995 67.6316 31.0709 67.6316C32.6422 67.6316 43.356 68.9887 45.6416 71.1315C47.9272 73.2028 54.8554 80.8453 53.4269 86.4164C52.0698 91.9876 51.1413 93.8446 50.1414 95.6303C49.07 97.3445 48.2843 97.8444 48.6414 99.7015C48.9986 101.63 52.9269 100.773 54.6411 99.7729C56.3553 98.7015 64.4978 89.9163 69.2118 89.9163C73.9259 89.9163 78.7828 90.0591 80.6398 94.2732C82.5683 98.4158 92.7821 101.559 100.067 104.701C107.353 107.844 125.352 107.273 128.352 104.201C131.352 100.773 128.209 100.416 129.423 91.4162Z" fill="#8D6E63"/>
<path d="M38.2852 49.4182C38.2852 49.4182 38.928 40.8472 42.9992 42.2043C47.0704 43.6328 44.8563 49.9182 38.2852 49.4182Z" fill="#8D6E63"/>
<path d="M97.9245 101.416C97.9245 101.416 96.9959 105.13 97.2816 106.987C97.5673 108.844 95.4246 109.487 90.4963 108.201C85.5679 106.987 77.2826 105.701 75.0684 106.63C72.9257 107.558 70.7829 108.772 70.7829 107.844C70.7829 106.915 73.5685 105.344 73.5685 105.344C73.5685 105.344 68.3545 108.13 67.426 107.487C66.4974 106.844 70.4972 104.701 70.4972 104.701C70.4972 104.701 73.5685 101.916 76.9969 102.201C80.3539 102.487 87.4964 105.273 89.3534 103.416C91.2105 101.558 91.2105 97.8444 92.7104 96.9158C94.2104 96.2016 97.9245 101.416 97.9245 101.416Z" fill="#FF8A80"/>
<path d="M45.6416 49.3467C45.6416 49.3467 52.0699 37.633 59.1409 41.7756C66.212 45.9183 58.4267 56.7034 52.4984 54.8464C46.5701 52.9893 45.6416 49.3467 45.6416 49.3467Z" fill="#FF8A80"/>
<path d="M48.3555 49.1322C48.3555 49.1322 55.7837 43.2039 55.7837 46.418C55.7837 49.6321 54.9266 52.132 48.3555 49.1322Z" fill="#EF5350"/>
<path d="M20.0714 54.8464C19.9285 54.4178 20.5713 53.2036 22.8569 53.0608C25.0711 52.9179 24.6426 54.9892 23.0712 55.5606C21.4999 56.132 20.7142 58.0605 20.0714 57.2748C19.3571 56.4177 20.0714 54.8464 20.0714 54.8464Z" fill="#6D4C41"/>
<path d="M33.7139 54.3464C33.7139 54.3464 37.5708 57.5605 38.2137 55.4178C38.7851 53.275 35.4281 51.4894 33.7139 54.3464Z" fill="#37474F"/>
<path d="M36.9997 54.8464C36.8568 54.7035 36.6426 54.7035 36.4997 54.8464C36.3569 54.9892 36.3569 55.2035 36.4997 55.3464C36.6426 55.4892 36.8568 55.4892 36.9997 55.3464C37.1425 55.2035 37.1425 54.9178 36.9997 54.8464Z" fill="#E0E0E0"/>
<path d="M116.281 60.2033C116.281 60.2033 124.352 62.5603 125.066 69.2743C125.709 76.0596 110.21 57.8462 116.281 60.2033Z" fill="#A1887F"/>
<path d="M118.995 74.4168C118.995 74.4168 120.995 80.488 122.352 78.4881C123.709 76.4168 119.209 69.7028 118.995 74.4168Z" fill="#A1887F"/>
<path d="M125.709 74.2024C125.709 74.2024 125.066 76.9166 126.351 77.7737C127.78 78.6308 126.851 72.5596 125.709 74.2024Z" fill="#A1887F"/>
<path d="M120.209 98.9156C120.423 98.7013 120.709 98.5585 120.995 98.6299C123.995 98.987 140.137 101.558 139.994 110.129C139.851 119.557 120.923 119.557 107.924 118.2C98.7816 117.2 87.6393 116.986 81.1397 119.057C80.1397 119.343 79.354 118.415 80.2111 117.843C83.9252 115.415 90.6392 113.843 102.781 115.058C127.852 117.486 132.351 112.058 130.994 109.129C129.709 106.415 121.781 104.13 120.352 103.773C120.209 103.701 120.066 103.63 119.923 103.487C119.495 102.915 118.281 101.201 120.209 98.9156Z" fill="#FF8A80"/>
</mask>
<g mask="url(#mask0)">
<ellipse cx="97" cy="80" rx="101" ry="70" fill="#21A36C"/>
</g>
</svg>
