<svg width="160" height="160" viewBox="0 0 160 160" fill="none" xmlns="http://www.w3.org/2000/svg">
<mask id="mask0" mask-type="alpha" maskUnits="userSpaceOnUse" x="22" y="34" width="117" height="92">
<path d="M40.4521 39.6106C40.4521 39.6106 41.593 34.2791 44.8256 34.0033C48.0581 33.8195 47.3926 41.3572 44.8256 42.0007C42.2586 42.7361 40.4521 39.6106 40.4521 39.6106Z" fill="#E0E0E0"/>
<path d="M113.565 102.027C113.85 101.751 114.23 101.567 114.61 101.659C118.318 102.119 138.189 105.152 137.999 115.356C137.809 126.57 114.515 126.57 98.5429 124.916C87.3242 123.721 73.6335 123.537 65.5521 125.927C64.3162 126.295 63.3654 125.192 64.4113 124.456C68.9748 121.607 77.2463 119.676 92.1729 121.147C122.977 124.089 128.586 117.562 126.875 114.069C125.259 110.852 115.561 108.094 113.755 107.634C113.565 107.542 113.375 107.45 113.279 107.358C112.614 106.807 111.093 104.785 113.565 102.027Z" fill="#FF8A80"/>
<path d="M54.6197 97.8902C55.5704 95.4083 51.2921 96.6952 50.2463 97.6144C50.2463 97.6144 51.7675 104.968 50.7217 106.255C50.3414 106.715 49.961 107.174 49.4857 107.634C48.8202 107.818 44.827 109.013 43.6861 109.289C42.4502 109.473 43.0206 110.76 44.6369 110.3C45.3024 110.116 46.3482 109.84 47.3941 109.473C47.299 109.564 47.2039 109.565 47.2039 109.656C45.9679 110.392 46.4433 110.851 47.9645 110.392C49.4857 109.932 50.5315 109.105 50.7217 109.473C50.9118 109.932 50.5315 111.127 52.0527 110.668C53.5739 110.208 53.2886 109.197 54.1443 108.461C55.0951 107.726 56.2359 108.002 56.1409 106.439C55.7606 104.784 53.6689 100.372 54.6197 97.8902Z" fill="#FF8A80"/>
<path d="M56.3302 46.5051C56.3302 46.5051 51.7667 46.6889 46.8228 41.9089C41.879 37.1289 36.1745 37.5885 31.8961 35.9339C27.6178 34.2792 25.2409 33.5438 23.7197 35.9339C22.1986 38.3239 23.7198 39.5189 22.674 40.8058C21.6281 42.1847 21.6281 46.3212 23.9099 51.6528C26.1917 56.9844 31.6109 60.1098 34.6533 68.4748C37.6957 76.8399 39.407 83.1826 43.4001 87.6869C47.3933 92.1911 48.6292 96.0519 49.1997 98.5339C49.7701 101.016 52.2421 99.7289 53.478 99.4531C54.714 99.1773 56.045 98.9016 56.9007 97.7985C57.6613 96.7873 56.7105 95.6842 58.612 96.1438C60.4184 96.6035 59.1825 97.8904 61.5593 99.2692C63.8411 100.648 63.746 99.4531 64.982 100.648C66.218 101.843 72.683 109.84 85.8984 109.84C99.1137 109.84 103.772 108.645 107.765 109.289C111.759 109.84 112.804 107.634 114.991 107.634C117.178 107.634 118.794 106.439 119.46 104.049C120.125 101.659 115.657 96.8792 115.466 92.9265C115.276 88.8819 116.988 87.6869 116.417 82.8149C115.847 77.943 115.657 65.1656 96.5467 57.9955C77.5318 50.8255 75.3451 55.3298 69.1653 52.3882C62.8904 49.3547 61.5593 46.5051 56.3302 46.5051Z" fill="#E0E0E0"/>
<path d="M47.4881 45.6775C47.4881 45.6775 60.9886 33.6355 67.5488 37.864C74.1089 42.0925 66.1227 57.9953 57.661 55.1456C49.3896 52.3879 44.9211 48.1594 47.4881 45.6775Z" fill="#FF8A80"/>
<path d="M52.9072 48.8032C52.9072 48.8032 63.0802 40.5301 64.2211 44.7586C65.2669 48.9871 58.2314 51.9286 52.9072 48.8032Z" fill="#EF5350"/>
<path d="M27.7123 34.5552C27.7123 34.5552 24.1945 33.544 23.2438 35.1067C22.293 36.7613 22.9585 39.2433 24.1945 38.7836C25.4305 38.5079 29.899 38.8756 27.7123 34.5552Z" fill="#FF8A80"/>
<path d="M35.7939 41.4489C35.7939 41.4489 39.7871 44.7581 40.4526 42.552C41.2132 40.3458 37.6954 38.5993 35.7939 41.4489Z" fill="#37474F"/>
<path d="M39.313 41.9084C39.1229 41.7245 38.9327 41.8165 38.7426 41.9084C38.5524 42.0922 38.6475 42.2761 38.7426 42.4599C38.9327 42.6438 39.1229 42.5519 39.313 42.4599C39.5032 42.2761 39.5032 42.0922 39.313 41.9084Z" fill="#E0E0E0"/>
<path d="M83.0455 101.567C71.6366 101.843 64.6011 89.7092 62.1292 80.1492C59.6573 70.681 55.6641 71.2326 44.9207 66.1768C34.1773 61.121 29.899 45.402 25.9059 43.5635C23.6241 42.5524 22.4832 43.5635 22.0078 44.6666C22.198 46.5051 22.7684 48.8951 23.9093 51.5609C26.1911 56.8925 31.6103 60.0179 34.6527 68.3829C37.6951 76.748 39.4064 83.0907 43.3995 87.595C47.3927 92.0073 48.6286 95.96 49.1991 98.442C49.7695 100.924 52.2414 99.637 53.4774 99.3612C54.7134 99.0854 56.0444 98.8097 56.9001 97.7066C57.6607 96.6954 56.7099 95.5923 58.6114 96.0519C60.4178 96.5116 59.1819 97.7985 61.5587 99.1773C63.8405 100.556 63.7454 99.3612 64.9814 100.556C66.2174 101.751 72.6824 109.749 85.8978 109.749C93.4086 109.749 98.1623 109.381 101.585 109.105C102.441 107.91 102.916 106.807 102.821 105.704C102.441 95.96 94.4545 101.292 83.0455 101.567Z" fill="#D3D9D6"/>
<path d="M66.5982 99.1773C67.5489 96.6954 63.2706 97.9823 62.2248 98.9015C62.2248 98.9015 63.746 106.255 62.7002 107.542C62.3199 108.002 61.9396 108.462 61.4642 108.921C60.7987 109.105 56.8055 110.3 55.6647 110.576C54.4287 110.76 54.9991 112.047 56.6154 111.587C57.2809 111.403 58.3267 111.127 59.3725 110.76C59.2775 110.852 59.1824 110.852 59.1824 110.944C57.9465 111.679 58.4218 112.139 59.943 111.679C61.4642 111.219 62.51 110.392 62.7002 110.76C62.8903 111.219 62.51 112.414 64.0312 111.955C65.5524 111.495 65.2672 110.484 66.1228 109.749C67.0736 109.013 68.2145 109.289 68.1194 107.726C67.7391 106.072 65.6475 101.659 66.5982 99.1773Z" fill="#FF8A80"/>
<path d="M96.5462 104.877C96.5462 104.877 96.261 108.278 93.5989 108.002C91.0319 107.726 86.6585 108.554 82.8555 108.554C79.0525 108.554 77.8166 108.737 77.3412 109.749C76.8658 110.76 76.7707 111.863 77.9116 111.127C79.1476 110.392 80.1934 109.657 80.6688 109.749C81.1442 109.932 78.1018 111.403 80.0983 111.495C82.0949 111.679 83.1407 110.116 84.2816 110.024C85.3274 109.84 82.0949 111.771 83.7112 111.679C85.2323 111.495 85.7077 110.024 87.1338 110.484C88.56 110.944 88.1796 111.863 92.6481 111.403C97.1166 110.944 101.3 111.679 102.441 110.852C103.677 109.932 101.205 105.244 101.395 104.417C101.49 103.682 98.2575 101.292 96.5462 104.877Z" fill="#FF8A80"/>
</mask>
<g mask="url(#mask0)">
<ellipse cx="94.1834" cy="62.8021" rx="139" ry="96" transform="rotate(53.1482 94.1834 62.8021)" fill="#21A36C"/>
</g>
</svg>
