<svg width="160" height="160" viewBox="0 0 160 160" fill="none" xmlns="http://www.w3.org/2000/svg">
<mask id="mask0" mask-type="alpha" maskUnits="userSpaceOnUse" x="49" y="30" width="62" height="100">
<path d="M77.2338 90.6597C76.8202 89.0883 76.5616 87.517 76.4582 85.9456C76.4065 85.4387 76.4065 84.8304 76.7167 84.4249C76.9753 84.1208 77.3372 83.918 77.7509 83.766C82.4044 81.7891 87.2131 80.1163 92.1252 78.697C90.7809 76.2639 88.4024 74.3884 85.7136 73.5774C86.179 72.2088 87.8853 71.7526 89.3331 71.5498C93.3145 70.8909 97.3476 70.2319 101.329 69.6236C101.122 67.9002 99.7778 66.4809 98.2266 65.5685C96.7271 64.6561 95.0208 64.0985 93.4179 63.2875C92.9008 63.034 92.3321 62.6792 92.1252 62.1216C91.7633 61.1078 92.7457 60.0941 93.7281 59.5872C95.331 58.7255 97.1407 58.2693 98.7436 57.3568C102.311 55.3293 104.69 51.2234 108.775 50.6659C107.947 47.7766 105.827 45.2421 103.139 43.8735C104.276 43.1638 105.465 42.4035 106.293 41.3897C107.12 40.3252 107.534 38.8552 107.017 37.6387C106.81 37.1825 106.448 36.7263 106.344 36.2194C106.086 35.1549 106.913 34.1918 107.43 33.2794C107.999 32.367 108.206 30.9477 107.275 30.3901C106.913 30.1874 106.396 30.1874 105.983 30.2888C103.863 30.745 102.26 33.0767 100.14 32.6712C99.4675 32.5191 98.847 32.1136 98.1749 32.0122C96.6237 31.8094 95.5378 33.3301 94.7622 34.648C93.8315 36.3715 92.4872 38.3484 90.5223 38.1456C89.178 37.9935 88.2473 36.777 87.2131 35.9153C86.179 35.0029 84.4727 34.4453 83.5937 35.4591C83.18 35.9153 83.1283 36.6249 83.0249 37.2332C82.7147 41.0349 82.3527 44.8873 82.0425 48.689C81.8874 50.311 81.2669 52.44 79.5606 52.3893C77.7509 52.3386 77.0787 49.7028 75.3724 49.2466C74.0797 48.8917 72.7871 50.0069 72.4251 51.2741C72.0632 52.5414 72.4251 53.8593 72.7354 55.1772C73.3041 57.2555 73.8212 59.3844 74.39 61.4627C74.6485 62.3751 74.8553 63.2875 74.5968 64.1999C74.3383 65.0616 73.3558 65.822 72.4768 65.4671C71.753 65.2137 71.4427 64.4026 70.9773 63.7437C70.512 63.1354 69.5296 62.6285 69.0125 63.2368C68.8574 63.4396 68.8057 63.693 68.754 63.9464C68.5472 65.5178 69.2193 67.0892 69.7881 68.6099C70.3569 70.1305 70.8739 71.7526 70.4086 73.2733C69.9432 74.794 68.0818 76.0105 66.634 75.2502C66.1687 74.9967 65.8067 74.6419 65.2897 74.6926C64.5141 74.794 64.3072 75.7571 64.3072 76.5174C64.3072 78.1395 64.3072 79.7108 64.3072 81.3329C64.3072 82.7522 64.3072 84.1715 63.8419 85.4894C63.4799 86.5032 62.9112 87.3649 62.3941 88.2773C60.8429 91.1159 60.0673 94.2586 58.5678 97.1479C57.7922 98.6686 47.6061 113.115 51.1738 113.774C53.0353 114.129 55.7757 108.452 56.4996 107.286C58.723 103.738 61.5151 100.544 64.7209 97.8069C68.4954 94.6135 72.7354 92.2311 77.2338 90.6597Z" fill="#4F8E26"/>
<path d="M59.8601 117.423C59.4981 116.46 58.9811 115.548 58.8259 114.534C58.6191 113.267 58.8259 112 59.0845 110.732C59.8084 107.083 60.5323 103.332 59.8084 99.6315C59.2396 96.5901 57.7401 93.8022 56.0338 91.2171C55.465 90.4061 54.8963 89.5443 54.7411 88.5305C54.6377 87.5674 55.1548 86.4016 56.1372 86.1482C56.9128 85.9961 57.6884 86.4016 58.4123 86.3002C59.705 86.1481 60.4288 84.5768 60.1703 83.3602C59.9118 82.093 59.0845 81.0792 58.3089 80.0147C55.9304 76.8213 54.2758 73.1717 53.5002 69.3193C53.3968 68.7617 53.2934 68.1535 53.5519 67.5959C53.9139 66.8355 54.948 66.5314 55.7753 66.6835C56.6543 66.8355 57.3782 67.3424 58.1021 67.8493C59.2396 68.6097 60.3254 69.4207 61.463 70.181C62.4454 70.8907 63.8932 71.5496 64.7722 70.6879C65.2892 70.181 65.2892 69.4207 65.2375 68.7617C64.6171 62.2735 59.8084 56.5963 59.6015 50.1081C59.5498 49.3477 59.705 48.3846 60.4288 48.0805C61.101 47.7764 61.8249 48.1819 62.4971 48.486C64.0483 49.1957 65.858 49.4998 67.5643 49.2463C68.0814 49.1957 68.6501 49.0436 69.0121 48.6888C69.6843 48.0298 69.5292 46.9653 69.374 46.0529C69.0121 44.2788 68.6501 42.5047 68.2882 40.7305C68.1848 40.2743 68.1331 39.8181 68.3399 39.4126C69.0121 38.1961 70.9769 39.4633 72.3213 39.0578C73.3554 38.7537 73.7691 37.5878 74.2344 36.6247C75.1651 34.4958 76.768 32.6203 78.7846 31.353C81.7318 35.8137 79.6636 42.6061 83.5933 46.205C84.0069 46.5598 84.4723 46.9146 84.524 47.4722C84.6274 48.1312 84.0069 48.6888 83.4899 49.145C81.6801 50.767 80.5426 52.896 79.4568 55.0249C79.0948 55.7346 78.7329 56.4949 78.6812 57.3566C78.6295 58.1677 79.0431 59.0801 79.8187 59.3842C80.9562 59.7897 82.0421 58.8773 83.0762 58.2184C84.1103 57.6101 85.92 57.6101 86.0235 58.7759C86.0752 59.2321 85.7649 59.6883 85.5064 60.0432C83.283 63.2366 81.0597 66.43 78.7846 69.6234C77.8022 70.9921 76.8197 72.4114 76.5095 74.0841C76.1993 75.7062 76.7163 77.6324 78.2158 78.4941C80.646 79.812 83.8001 77.6323 86.3337 78.6968C82.7143 82.5999 78.8363 86.1988 74.6481 89.4937C76.768 89.443 78.888 89.3416 81.008 89.2909C81.6801 89.2909 82.5074 89.3416 82.766 89.9499C83.0245 90.6088 82.4557 91.2678 81.887 91.6733C78.6812 94.1571 75.0617 96.0832 72.1662 98.9218C69.2706 101.71 67.1507 105.816 68.1331 109.668C68.6501 109.161 69.1672 108.654 69.8911 108.502C70.615 108.35 71.4423 108.806 71.494 109.516C71.494 110.023 71.0803 110.479 70.7184 110.834C68.3916 113.064 66.5819 115.852 65.4961 118.843C64.4102 121.935 63.7898 125.686 60.8942 127.359C60.6874 127.46 60.9976 123.76 60.9976 123.405C61.101 121.276 60.584 119.198 59.8601 117.423Z" fill="#4F8E26"/>
<path d="M59.8612 115.802C57.0174 113.419 53.3462 132.276 57.1208 126.953C57.2759 122.949 59.4993 119.654 59.8612 115.802Z" fill="#65AA39"/>
<path d="M54.6899 116.714C52.57 119.755 49.7778 123.608 49.7778 125.382C51.691 128.322 56.2928 116.815 54.6899 116.714Z" fill="#65AA39"/>
<path d="M93.1592 41.6939C93.5211 38.9567 93.5728 36.1688 93.4177 33.4316C93.366 32.5192 93.0558 31.3533 92.1251 31.2012C91.2978 31.0492 90.5739 31.8095 90.1602 32.5192C88.4022 35.2057 87.0061 38.095 85.972 41.1363C85.5584 42.3529 84.4725 43.975 83.2833 43.316C82.9213 43.1132 82.6628 42.7584 82.456 42.4036C81.5253 40.9336 80.3877 39.6664 78.9917 38.6019C78.7331 38.3991 78.3712 38.1964 78.0609 38.1964C77.7507 38.1964 77.4922 38.3991 77.2853 38.6019C75.6825 40.2239 76.0444 42.8598 75.7342 45.0901C75.6825 45.597 75.5273 46.1546 75.1654 46.5094C74.2347 47.3711 72.7352 46.6615 71.6494 45.9518C70.5635 45.2422 68.9089 44.6846 68.185 45.6984C67.9265 46.0532 67.8748 46.5601 67.8231 47.0163C67.668 49.5001 67.5129 52.0345 67.306 54.5183C65.8065 54.1128 64.2554 53.7073 62.7559 53.3525C61.3081 56.9514 62.6008 61.0066 62.7042 64.8589C62.7559 66.4303 62.2905 68.3565 60.7393 68.762C59.5501 69.0661 58.4125 68.2551 57.3267 67.7482C56.2409 67.1906 54.638 67.0386 54.0692 68.1031C53.6039 69.0155 54.2243 70.0292 54.8448 70.8403C58.516 75.9599 60.9462 81.8905 61.9286 88.0746C61.3081 87.4157 60.6876 86.706 59.8603 86.3005C59.033 85.9457 57.8955 85.9964 57.3267 86.706C56.7062 87.4664 56.9131 88.5308 57.1199 89.4432C57.7921 92.1298 58.4125 94.7656 59.0847 97.4521C58.2057 96.3877 56.3443 96.9453 55.6721 98.0604C54.9482 99.2263 55.1033 100.646 55.2068 101.963C55.7755 108.401 55.8789 114.94 54.3794 121.225C56.7579 117.931 59.1881 114.636 61.7217 111.392C63.7383 108.857 65.8583 106.323 68.6504 104.549C74.1313 101.102 81.3701 101.254 87.0061 97.959C85.2998 96.0835 83.5418 94.2587 81.8355 92.3832C81.577 92.1298 81.3184 91.8256 81.3184 91.4708C81.2667 90.8625 81.8355 90.4063 82.3526 90.0515C86.6442 87.6184 92.4353 88.4801 96.5201 85.6415C95.124 83.1578 93.0558 81.0795 90.5222 79.6095C90.0051 79.3054 89.4363 79.0012 89.0744 78.545C88.4539 77.734 88.609 76.6695 88.8159 75.7064C90.8324 67.6975 97.4508 62.882 96.9855 54.0114C96.8303 51.0714 97.3474 48.537 97.6576 45.6477C97.8128 44.127 97.9679 42.2515 96.5718 41.187C95.9513 40.9336 93.366 40.2746 93.1592 41.6939Z" fill="#579E2A"/>
<path d="M78.6811 103.079C78.2674 101.507 78.0089 99.9359 77.9055 98.3646C77.8538 97.8577 77.8538 97.2494 78.164 96.8439C78.4226 96.5397 78.7845 96.337 79.1981 96.1849C83.8517 94.208 88.6604 92.5353 93.5725 91.116C92.2281 88.6829 89.8496 86.8074 87.1609 85.9964C87.6263 84.6277 89.3326 84.1715 90.7804 83.9688C94.7617 83.3098 98.7948 82.6509 102.776 82.0426C102.569 80.3192 101.225 78.8999 99.6738 77.9874C98.1744 77.075 96.468 76.5175 94.8652 75.7064C94.3481 75.453 93.7793 75.0982 93.5725 74.5406C93.2106 73.5268 94.193 72.513 95.1754 72.0061C96.7783 71.1444 98.588 70.6882 100.191 69.7758C103.759 67.7482 106.137 63.6424 110.222 63.0848C109.395 60.1955 107.275 57.661 104.586 56.2924C105.723 55.5828 106.913 54.8224 107.74 53.8087C108.567 52.7442 108.981 51.2742 108.464 50.0576C108.257 49.6014 107.895 49.1452 107.792 48.6384C107.533 47.5739 108.361 46.6108 108.878 45.6984C109.446 44.786 109.653 43.3667 108.722 42.8091C108.36 42.6063 107.843 42.6063 107.43 42.7077C105.31 43.1639 103.707 45.4956 101.587 45.0901C100.915 44.938 100.294 44.5325 99.6221 44.4311C98.0709 44.2284 96.9851 45.7491 96.2095 47.067C95.2788 48.7904 93.9344 50.7673 91.9696 50.5645C90.6252 50.4125 89.6945 49.1959 88.6604 48.3342C87.6263 47.4218 85.92 46.8642 85.041 47.878C84.6273 48.3342 84.5756 49.0439 84.4722 49.6521C84.1619 53.4538 83.8 57.3062 83.4898 61.1079C83.3346 62.73 82.7142 64.8589 81.0079 64.8082C79.1981 64.7575 78.526 62.1217 76.8197 61.6655C75.527 61.3107 74.2343 62.4258 73.8724 63.6931C73.5104 64.9603 73.8724 66.2782 74.1826 67.5961C74.7514 69.6744 75.2685 71.8034 75.8372 73.8816C76.0958 74.794 76.3026 75.7064 76.0441 76.6188C75.7855 77.4806 74.8031 78.2409 73.9241 77.8861C73.2002 77.6326 72.89 76.8216 72.4246 76.1626C71.9593 75.5544 70.9768 75.0475 70.4598 75.6557C70.3046 75.8585 70.2529 76.1119 70.2012 76.3654C69.9944 77.9368 70.6666 79.5081 71.2354 81.0288C71.8041 82.5495 72.3212 84.1716 71.8558 85.6922C71.3905 87.2129 69.5291 88.4294 68.0813 87.6691C67.6159 87.4157 67.254 87.0608 66.7369 87.1115C65.9613 87.2129 65.7545 88.176 65.7545 88.9363C65.7545 90.5584 65.7545 92.1298 65.7545 93.7518C65.7545 95.1711 65.7545 96.5904 65.2891 97.9083C64.9272 98.9221 64.3584 99.7838 63.8414 100.696C62.2902 103.535 61.5146 106.678 60.0151 109.567C59.2395 111.088 49.0534 125.534 52.6211 126.193C54.4825 126.548 57.223 120.871 57.9468 119.705C60.1702 116.156 62.9624 112.963 66.1682 110.226C69.9427 107.032 74.1309 104.65 78.6811 103.079Z" fill="#60AD2D"/>
<path d="M91.5551 79.1532C88.9698 78.9505 86.3845 78.6971 83.8509 79.5081C83.4372 79.6601 82.9719 79.8122 82.5065 80.015C84.1611 77.3791 85.8157 74.794 87.4703 72.1581C88.0908 71.195 88.7113 70.2319 89.3317 69.2688C89.3834 69.2688 89.4352 69.2688 89.4869 69.2182C89.9005 68.914 90.3142 68.5592 90.7278 68.2044C91.4 67.6468 92.1239 67.2413 92.8995 66.7851C94.5024 65.9233 96.2604 65.3151 97.9667 64.6561C98.1218 64.6054 98.0701 64.4027 97.915 64.4027C95.9501 64.6561 94.037 65.0616 92.1756 65.822C91.9171 65.9234 91.6068 66.0754 91.2966 66.2275C93.3648 62.9834 95.4331 59.6886 97.2945 56.3431C97.3462 56.2924 97.2428 56.2417 97.1911 56.2924C94.6058 59.5872 92.279 63.0848 90.0039 66.5823C90.0039 66.2275 90.0039 65.8727 90.0039 65.5178C90.0039 64.0985 89.9522 62.6792 89.7971 61.2599C89.5386 58.4213 89.1249 55.4307 88.2459 52.6935C88.2459 52.6428 88.0908 52.6428 88.0908 52.7441C88.3493 55.4814 89.1249 58.1679 89.3834 60.9051C89.5386 62.3244 89.5903 63.7944 89.4869 65.2137C89.4352 65.8727 89.3835 66.5316 89.28 67.1906C89.2283 67.3427 89.2283 67.5454 89.1766 67.6975C88.9181 67.9509 88.763 68.2551 88.6079 68.6099C88.2459 69.1168 87.9357 69.6237 87.5737 70.1306C85.7123 72.9185 83.8509 75.7571 81.9377 78.545C81.9894 77.1764 81.6792 75.7571 81.4207 74.5912C80.9553 72.665 80.1797 70.8402 79.0939 69.1675C80.128 70.9416 80.8519 72.9185 81.007 74.946C81.1104 75.9091 81.0587 76.8216 80.9553 77.7846C80.8519 78.6464 80.6451 79.5588 80.6451 80.4712C79.8695 81.5863 79.1456 82.7522 78.37 83.8674C77.4393 85.2867 76.5086 86.706 75.6296 88.1253C75.5779 87.6691 75.5779 87.2128 75.4745 86.7566C75.2159 85.236 74.7506 83.8674 73.7682 82.6508C73.7164 82.6001 73.6647 82.6508 73.7164 82.7015C74.5437 84.0701 74.9057 85.6922 74.9057 87.3142C74.9057 88.0239 74.854 88.7335 74.854 89.3925C73.7681 91.0652 72.734 92.6873 71.6482 94.36C71.1828 94.8669 70.7692 95.4752 70.5106 96.1342C67.098 101.457 63.7371 106.779 60.3762 112.101C56.9636 117.474 53.6027 122.847 50.1384 128.17C49.3628 129.386 51.1208 130.501 51.8447 129.184C57.5324 119.502 63.4786 110.023 69.4765 100.544C70.6658 98.6686 71.855 96.7931 73.0442 94.8669C73.1477 94.7655 73.3028 94.6642 73.4062 94.5628C74.4403 93.7011 75.6296 92.9914 76.8705 92.4338C79.7144 91.2173 82.5582 90.5076 85.6089 90.0514C85.6606 90.0514 85.6606 90.0008 85.6089 90.0008C82.3514 90.2542 78.8354 90.2035 75.7847 91.5214C75.4745 91.6735 75.1642 91.8256 74.854 91.9776C76.6637 89.0884 78.4734 86.1991 80.2831 83.3098C80.6968 82.955 81.1104 82.5494 81.5241 82.1946C82.3514 81.5356 83.2821 81.0795 84.2645 80.6232C86.3845 79.6602 88.9698 79.3053 91.2966 79.356C91.6585 79.356 91.6585 79.1532 91.5551 79.1532Z" fill="#73BF41"/>
<path d="M58.7754 120.414C59.6027 119.806 60.4817 119.198 61.1539 118.438C61.9812 117.474 62.4465 116.207 62.8602 114.991C64.1011 111.442 65.3938 107.843 67.8757 105.005C69.9439 102.622 72.6327 100.95 75.4765 99.5811C76.4072 99.1249 77.3379 98.6687 77.9584 97.9084C78.5789 97.0973 78.6823 95.8808 77.9584 95.1712C77.3896 94.6643 76.5106 94.6136 75.8902 94.1574C74.856 93.397 75.0112 91.7243 75.8902 90.7105C76.7175 89.7474 78.0101 89.2405 79.1994 88.7336C82.8705 87.1623 86.1797 84.7799 88.8167 81.7892C89.2304 81.333 89.5923 80.8768 89.644 80.2685C89.7475 79.4068 89.0236 78.6465 88.1963 78.3423C87.369 78.0382 86.49 78.1396 85.611 78.1902C84.2149 78.2916 82.8705 78.4437 81.4745 78.5451C80.2852 78.6465 78.6823 78.5451 78.3721 77.3792C78.217 76.7202 78.5789 76.0106 78.9925 75.453C82.8188 70.1306 89.9026 67.5962 93.4186 62.0204C93.8323 61.3614 94.1942 60.449 93.7288 59.8407C93.3152 59.2831 92.4879 59.2325 91.764 59.1818C90.0577 59.0297 88.3514 58.4214 86.9553 57.357C86.5417 57.0528 86.128 56.6473 85.9729 56.1404C85.7144 55.228 86.3865 54.3663 87.007 53.7073C88.1963 52.3387 89.4372 51.0208 90.6265 49.6522C90.9367 49.2974 91.2469 48.9425 91.2469 48.4863C91.2987 47.067 88.9202 47.2191 87.9377 46.2053C87.2139 45.445 87.4207 44.2284 87.5241 43.164C87.8343 40.8322 87.369 38.4498 86.2831 36.3716C81.4744 38.8047 79.7682 45.6984 74.5458 46.915C74.0288 47.0163 73.4083 47.1177 73.098 47.5232C72.6844 48.0808 72.9429 48.8411 73.1497 49.4494C73.8736 51.7304 73.7702 54.1635 73.6151 56.5459C73.5634 57.3569 73.5117 58.2187 73.098 58.9283C72.7361 59.638 71.9088 60.2462 71.0815 60.0942C69.8922 59.8914 69.4269 58.5228 68.8581 57.509C68.2893 56.4445 66.6864 55.5828 66.0143 56.5459C65.7557 56.9514 65.7557 57.4583 65.8074 57.9145C66.1177 61.7669 66.4279 65.6193 66.7382 69.4717C66.8933 71.1444 66.9967 72.8679 66.4279 74.4392C65.8591 76.0106 64.4114 77.4299 62.7051 77.3792C59.9646 77.3285 58.31 73.9323 55.5696 73.5775C56.7071 78.6971 58.2583 83.7661 60.1714 88.6829C58.3617 87.5678 56.6037 86.5033 54.794 85.3881C54.2252 85.0333 53.4496 84.6785 52.9326 85.084C52.3638 85.4895 52.5706 86.3512 52.8292 87.0102C54.3286 90.7105 56.5003 94.1574 57.5861 98.0098C58.672 101.862 58.4134 106.424 55.6213 109.313C55.4145 108.655 55.2076 107.894 54.6906 107.438C54.1735 106.982 53.1911 106.931 52.7775 107.539C52.5189 107.996 52.674 108.553 52.7775 109.06C53.6565 112.152 53.8116 115.396 53.1911 118.539C52.5706 121.783 51.1746 125.281 52.8292 128.17C52.9326 128.373 54.5872 124.976 54.7423 124.672C55.7247 123.152 57.2242 121.58 58.7754 120.414Z" fill="#68BC31"/>
<path d="M56.1897 122.848C57.1204 120.769 57.9995 118.64 58.8268 116.562C60.8433 111.493 62.653 106.374 64.411 101.203C65.29 98.6689 66.169 96.1344 67.0998 93.5999C67.5134 93.1437 67.9271 92.6369 68.3407 92.1806C69.3231 91.1669 70.409 90.2038 71.4948 89.342C73.7699 87.5172 76.4586 86.0979 79.0439 84.7293C79.0956 84.6786 79.0439 84.6279 78.9922 84.6279C76.2001 85.9459 73.4079 87.3145 70.7709 88.9365C69.7885 89.5448 68.8578 90.2038 67.9788 90.9641C70.1504 84.9321 72.3738 78.9001 74.6489 72.868C74.6489 72.868 74.7006 72.8173 74.7006 72.7667C75.1659 72.057 75.683 71.3474 76.2001 70.6884C77.2859 69.3198 78.5786 68.1032 79.8712 66.9374C82.5082 64.6564 85.5072 62.6795 88.5062 60.8547C88.6613 60.7533 88.5579 60.5505 88.4028 60.6519C85.197 62.426 81.9395 64.0481 78.9922 66.2784C77.9581 67.0894 76.9757 67.9512 76.045 68.9143C78.0615 63.4398 79.7161 57.864 81.6809 52.3896C81.7326 52.3389 81.5775 52.2882 81.5775 52.3389C79.4059 57.5092 77.0274 62.6288 74.8557 67.7991C74.0801 69.5732 73.3562 71.3474 72.684 73.1722C72.5806 72.7667 72.4255 72.3611 72.3221 72.057C71.5982 70.1815 70.8226 68.4074 69.9436 66.6333C69.9436 66.5826 69.8402 66.6332 69.8919 66.6839C70.6158 68.3567 71.4948 70.1308 71.805 71.9049C71.9602 72.8173 71.9602 73.7804 71.9602 74.6928C71.9602 74.7942 71.9602 74.9463 71.9602 75.0477C70.926 77.6835 69.8919 80.37 68.8578 83.0059C67.8754 85.5403 66.9446 88.0748 66.0139 90.6093C65.1866 87.2638 63.3769 83.969 61.4638 81.2825C61.4121 81.2318 61.3087 81.2825 61.3604 81.3838C62.6013 83.31 63.6354 85.439 64.2559 87.6186C64.773 89.342 64.9798 91.0655 65.2383 92.7889C64.3076 95.2727 63.4286 97.7565 62.4979 100.24C62.3945 99.632 62.1877 99.0237 61.9808 98.4154C61.1535 96.0837 59.8609 93.8027 58.258 91.8765C58.2063 91.8258 58.2063 91.8765 58.2063 91.9272C59.8092 93.9548 60.895 96.1851 61.4121 98.6689C61.6189 99.7333 61.8257 100.798 61.8774 101.913C60.4296 105.816 58.9819 109.719 57.4824 113.572C56.3966 116.359 55.259 119.147 54.0698 121.885C53.4493 123.304 52.7771 124.672 52.0532 126.092C52.1566 126.852 52.3635 127.612 52.7771 128.373C52.8805 128.576 54.5351 125.179 54.6902 124.875C55.1556 124.166 55.621 123.456 56.1897 122.848Z" fill="#9ACC5E"/>
</mask>
<g mask="url(#mask0)">
<ellipse rx="86.6715" ry="58.6307" transform="matrix(0.5 -0.866026 -0.866025 -0.5 80.5928 80.2758)" fill="#21A36C"/>
</g>
</svg>
