<svg width="160" height="160" viewBox="0 0 160 160" fill="none" xmlns="http://www.w3.org/2000/svg">
<mask id="mask0" mask-type="alpha" maskUnits="userSpaceOnUse" x="28" y="33" width="104" height="94">
<path d="M36.408 55.1C37.3036 53.692 39.0258 52.8874 39.9903 51.4794C41.1614 49.8033 41.2303 47.5237 42.6081 46.0486C43.2281 45.3782 44.0548 44.9088 44.8126 44.5736C50.3926 41.9587 57.1438 41.8247 62.7239 44.3054C63.3439 44.5736 63.9639 44.8418 64.5839 44.7077C65.2728 44.5065 65.6861 43.9031 66.0995 43.3667C68.9929 40.0144 74.7796 40.6849 78.0863 37.6677C78.8441 36.9302 79.4641 36.0586 80.2908 35.4552C81.2552 34.7847 82.4264 34.5836 83.5975 34.4495C86.7664 34.0472 89.9354 33.846 93.1732 33.9131C98.5466 37.3325 103.92 40.8189 109.293 44.2384C112.393 46.2498 115.7 48.4623 116.94 51.8817C117.353 53.0886 117.56 54.3625 118.318 55.3682C119.007 56.2398 119.971 56.7091 120.867 57.3796C122.658 58.7205 123.967 60.6649 124.38 62.8104C124.794 64.7548 124.587 66.8333 124.794 68.8447C125.069 70.8561 126.034 72.9345 127.894 73.7391C128.307 72.9345 129.202 72.3982 130.098 72.3982C130.58 75.6164 130.994 78.8347 131.476 82.053C131.545 82.5893 131.614 83.1257 131.476 83.595C131.131 84.7348 129.685 85.1371 128.858 86.0087C127.894 86.9474 127.687 88.3554 127.342 89.6293C126.516 93.2498 124.656 96.6692 122.176 99.4182C117.56 93.3839 110.327 89.8975 102.956 87.6179C95.5843 85.4053 87.9375 84.2655 80.6352 81.8518C69.4062 78.1642 59.2794 71.5266 47.8437 68.6435C44.537 67.839 39.8525 67.4367 37.5791 64.6877C35.9258 62.3411 34.8235 57.5137 36.408 55.1Z" fill="#77932A"/>
<path d="M87.1798 48.3939C87.3865 48.3939 87.5932 48.2598 87.5243 48.0587C87.5243 47.8576 87.4554 47.7235 87.4554 47.5223C87.4554 47.5223 87.5243 47.5223 87.5243 47.5894C89.3843 48.8632 90.3488 51.0758 92.2777 52.2827C92.4155 52.3497 92.5532 52.2156 92.4844 52.0815C91.3821 50.4724 90.1421 48.7292 88.8332 47.3212C87.3865 45.8461 85.4576 45.0416 83.8731 43.7677C81.462 41.8904 79.8775 39.5437 78.8442 36.8618C78.6375 37.13 78.3619 37.3982 78.1553 37.5993C78.0175 37.7334 77.9486 37.8005 77.8108 37.9346C78.6375 40.3483 80.1531 42.5608 82.0131 44.17C82.082 44.237 82.2198 44.304 82.2887 44.4381C82.0131 44.304 81.7375 44.237 81.5309 44.17C80.222 43.6336 78.8442 42.9631 78.0175 41.8233C77.3286 40.8846 77.053 39.8119 76.433 38.8732C76.3641 38.9403 76.2264 38.9403 76.1575 39.0073C76.7775 40.2142 76.7086 41.6892 77.4664 42.8961C78.0864 43.9018 79.0508 44.6393 80.1531 45.2427C81.3931 45.9132 82.7709 46.3155 84.0109 46.9189C84.8376 47.3212 86.0087 48.3939 87.1798 48.3939Z" fill="#89A035"/>
<path d="M106.538 51.143C108.054 50.6067 109.432 49.8691 110.74 48.9305C111.636 48.3271 112.394 47.5895 113.152 46.852C112.945 46.7179 112.807 46.5838 112.601 46.4497C111.843 46.9191 111.016 47.3213 110.258 47.7907C108.949 48.5282 107.503 49.2657 106.056 49.6009C104.678 49.9362 103.094 49.9362 101.716 49.668C102.749 49.3998 103.783 49.1316 104.747 48.6623C106.056 48.0589 107.158 47.1873 107.985 46.1145C108.398 45.6452 108.949 44.9747 109.156 44.3042C109.5 44.5054 109.776 44.6395 110.12 44.7736C109.776 44.5724 109.5 44.3713 109.156 44.1701C108.812 43.969 108.467 43.7008 108.123 43.4997C108.054 43.6338 107.985 43.7679 107.847 43.969C107.503 44.6395 107.02 45.3099 106.469 45.9134C105.367 47.0532 104.058 47.7907 102.543 48.26C101.578 48.5952 100.545 48.8634 99.5803 49.1316C99.167 48.9975 98.8225 48.9305 98.4092 48.8634C98.547 48.3941 98.7537 47.8577 98.8226 47.4554C99.4426 45.1758 99.4426 42.9633 99.4426 40.6166C99.4426 40.4825 99.167 40.4155 99.167 40.5496C98.8226 42.6951 97.8581 44.9077 96.9625 46.852C96.7559 47.3214 96.5492 47.7907 96.2736 48.193C95.5847 46.5838 94.4136 45.2429 93.7936 43.6338C93.0358 41.6894 93.5869 39.5439 93.2425 37.5325C93.0358 36.1915 92.5536 34.9176 91.9336 33.7778C91.7958 33.7778 91.658 33.7778 91.4514 33.7778C91.9336 35.1858 92.4158 36.6609 92.4847 38.1359C92.5536 39.9462 92.1402 41.7564 92.5536 43.5667C92.6914 44.1031 92.898 44.7065 93.1047 45.1758C92.3469 44.3042 91.5891 43.4326 90.7625 42.561C88.2135 39.8121 85.5957 37.1302 83.0468 34.3142C82.9779 34.3142 82.909 34.3142 82.7712 34.3813C84.8379 36.862 86.8357 39.4098 88.8335 41.9576C89.7291 43.1644 90.6936 44.3042 91.658 45.444C92.278 46.1145 92.8291 46.852 93.4492 47.5225C93.7247 47.8577 94.2758 48.3271 94.6203 48.7293C94.8269 49.1987 94.9647 49.735 94.9647 50.2714C94.9647 50.3385 94.9647 50.3385 94.9647 50.4055C94.5514 51.0089 94.1381 51.6794 93.8625 52.3499C93.5181 53.4226 94.8958 54.0261 95.6536 53.3556C96.4114 52.6851 97.0314 51.7465 97.5137 50.7408C100.683 51.6124 103.576 52.2158 106.538 51.143Z" fill="#89A035"/>
<path d="M124.657 64.0829C123.623 64.0159 122.59 64.0829 121.488 64.217C120.385 64.3511 119.283 64.6864 118.181 64.8875C117.561 65.0216 116.872 65.1557 116.252 65.0216C115.839 64.9546 115.494 64.7534 115.012 64.7534C114.805 64.7534 114.599 64.9546 114.668 65.1557C115.288 66.8989 117.974 66.1614 119.283 65.8262C121.005 65.3568 122.865 65.1557 124.657 65.0216C124.725 64.6864 124.657 64.4182 124.657 64.0829Z" fill="#89A035"/>
<path d="M104.748 58.384C104.472 58.7192 104.748 59.1885 105.161 59.1215C106.814 58.8533 108.468 58.1158 109.983 57.3783C110.672 57.3783 111.292 57.4453 111.981 57.6464C113.497 58.0487 114.943 58.7863 116.459 59.2556C117.906 59.6579 119.352 59.6579 120.868 59.5908C121.626 59.5238 122.383 59.5908 123.072 59.5908C122.797 59.1215 122.452 58.7192 122.039 58.3169C120.11 58.2499 118.25 58.451 116.39 57.8476C114.806 57.3783 113.29 56.7078 111.568 56.5737C111.774 56.4396 112.05 56.3726 112.257 56.2385C113.91 55.4339 115.77 54.3611 117.699 54.0259C117.561 53.7577 117.492 53.4225 117.423 53.1543C115.839 53.1543 114.323 53.6236 112.808 54.093C110.052 55.0987 106.745 56.2385 104.748 58.384Z" fill="#89A035"/>
<path d="M126.654 87.8177C126.723 70.1843 111.98 59.4567 107.709 56.4396C90.6246 44.4382 66.0999 43.6336 48.2574 54.4952C46.2596 55.7021 43.5729 57.4453 40.7484 60.5295C31.1728 71.0559 28.8305 88.9575 35.8573 102.099C45.7774 120.738 70.6466 122.414 82.7023 123.219C89.4535 123.688 95.4469 124.023 102.543 121.207C115.012 116.313 126.585 103.373 126.654 87.8177Z" fill="#A5D340"/>
<path d="M97.8579 57.3115C105.918 60.4627 113.634 64.7537 119.834 70.788C121.487 72.3971 123.003 74.1403 124.38 75.9506C124.174 75.3472 123.898 74.8108 123.623 74.2074C120.66 70.1846 116.94 66.7651 112.738 63.8821C104.885 58.5183 95.9979 55.4342 87.0422 52.35C84.3555 51.4113 81.6688 50.5397 78.9132 49.6681C77.6043 49.2658 76.2954 48.8636 74.9865 48.4613C73.6087 48.059 72.2309 47.5226 70.7842 47.4556C70.0953 47.4556 69.9576 48.3272 70.4398 48.6624C72.2998 49.8693 74.8487 50.2716 76.9843 50.875C79.3266 51.5454 81.5999 52.1489 83.9422 52.8193C88.6267 54.1603 93.2423 55.5683 97.8579 57.3115Z" fill="#C1E269"/>
<path d="M126.378 91.7067C125.138 93.1147 122.452 91.7067 120.867 91.6397C119.145 91.5056 117.354 91.8408 115.631 92.3101C113.84 92.7795 112.118 93.4499 110.327 93.9863C108.467 94.5897 106.676 94.8579 104.747 95.1932C104.196 95.2602 104.402 95.9977 104.885 96.0648C107.02 96.1989 109.294 95.4613 111.291 94.8579C113.358 94.2545 115.356 93.517 117.492 93.1817C118.594 92.9806 119.696 92.9136 120.867 92.9806C122.038 93.1147 123.14 93.584 124.38 93.7181C124.794 93.7852 125.207 93.7852 125.621 93.6511C123.485 96.2659 120.729 98.4785 117.767 100.021C115.976 100.959 114.116 101.63 112.187 102.032C111.223 102.233 110.189 102.367 109.156 102.434C108.054 102.501 106.951 102.233 105.849 102.3C105.229 102.3 105.022 102.971 105.367 103.373C106.745 104.982 109.776 104.379 111.705 104.043C113.978 103.641 116.114 102.837 118.18 101.831C120.316 100.691 122.176 99.283 123.692 97.5398C122.589 99.216 121.556 100.959 120.316 102.568C118.525 104.848 116.389 106.993 114.116 108.871C111.843 110.681 109.431 112.29 106.814 113.497C104.058 114.771 101.302 115.643 98.8913 117.654C98.8224 117.721 98.8913 117.855 99.0291 117.788C101.578 115.911 104.954 115.307 107.847 113.966C110.534 112.76 113.014 111.217 115.287 109.407C119.558 105.988 123.967 101.16 125.207 95.7966C125.207 95.7295 125.207 95.7295 125.207 95.6625C125.483 95.2602 125.758 94.8579 125.965 94.4556C126.103 93.517 126.241 92.6454 126.378 91.7067Z" fill="#C1E269"/>
<path d="M120.867 84.4657C118.663 83.6611 116.458 82.8565 114.185 82.186C109.982 80.9792 105.229 80.3758 100.82 80.644C100.613 80.644 100.545 80.9792 100.751 80.9792C105.16 81.7167 109.638 81.6497 113.909 82.9906C115.976 83.6611 118.043 84.4657 120.04 85.2702C121.074 85.6725 122.107 86.0077 123.14 86.2759C122.658 86.1418 122.176 86.0748 121.625 85.9407C119.765 85.5384 117.905 85.4043 116.045 85.3373C114.254 85.3373 112.463 85.4714 110.671 85.6725C109.087 85.8736 107.02 86.1418 105.849 87.2146C105.711 87.3487 105.78 87.6839 105.987 87.6839C107.502 87.9521 109.225 87.2146 110.809 87.0134C112.876 86.6782 115.011 86.6112 117.078 86.6782C119.076 86.7453 121.074 87.0805 123.072 87.4157C124.243 87.6169 125.483 87.8851 126.654 87.6169C126.654 87.2816 126.654 87.0134 126.654 86.6782C126.378 86.6782 126.103 86.6782 125.827 86.6112C124.174 85.9407 122.589 85.1361 120.867 84.4657Z" fill="#C1E269"/>
<path d="M94.62 72.3972C95.9977 72.7995 97.4444 72.6654 98.8911 72.8665C100.407 73.0676 101.991 73.4029 103.507 73.7381C106.538 74.3415 109.569 74.945 112.531 75.8166C117.354 77.2246 122.383 79.236 126.24 82.5213C126.24 82.3872 126.171 82.2531 126.171 82.1861C122.589 78.5655 118.111 76.1518 113.151 74.5427C110.051 73.537 106.882 72.8665 103.645 72.196C101.991 71.8608 100.338 71.5256 98.6845 71.3244C97.2378 71.1233 95.86 70.9892 94.5511 71.7937C94.2755 71.9278 94.2755 72.3301 94.62 72.3972Z" fill="#C1E269"/>
<path d="M96.9624 119.397C100.131 118.927 103.576 117.654 105.022 114.905C105.436 114.1 105.711 113.161 106.125 112.29C106.676 111.217 107.434 110.211 108.054 109.139C109.431 106.725 109.914 103.976 110.396 101.294C111.154 96.869 111.911 92.1086 109.845 88.0858C109.156 86.7449 108.123 85.471 107.709 83.9959C107.296 82.3868 107.64 80.6436 107.571 78.9674C107.571 77.2912 106.951 75.4139 105.436 74.6764C104.678 74.3412 103.782 74.2741 102.956 74.073C100.751 73.4695 99.098 71.324 99.2357 69.1115C99.3046 68.2399 99.5802 67.3683 99.3735 66.4966C99.0291 65.4239 97.9268 64.6864 97.1002 63.9489C93.7934 60.9988 92.9668 55.4339 88.7645 53.9588C86.4222 53.0872 83.8044 53.8918 81.3244 54.16C78.8444 54.4282 75.8132 53.8918 74.8488 51.6792C74.3665 50.5394 74.5043 49.2655 74.091 48.1257C73.7465 47.12 72.9199 46.3155 72.0932 45.5109C68.5798 42.0915 63.9642 38.605 59.1419 39.8119C55.6974 40.6835 53.4241 43.7677 51.4262 46.6507C51.9774 45.5779 50.0484 44.9745 48.8773 45.3768C46.3973 46.3825 44.8128 48.6621 43.2972 50.8076C37.7861 58.9874 32.1371 67.3683 29.6571 76.8219C27.177 86.2755 28.2793 97.2713 35.0305 104.512C36.0638 105.652 37.235 106.658 37.9927 107.999C39.2328 110.278 38.9572 113.094 40.1972 115.307C41.8506 118.324 45.6395 119.397 49.0151 120.201C54.2507 121.475 59.5552 122.749 64.9975 123.219C71.6798 123.822 78.6377 123.151 85.1133 125.163C89.3845 126.504 88.1445 127.04 89.5912 123.889C91.2445 120.403 93.0357 120 96.9624 119.397Z" fill="#8CB72E"/>
<path d="M103.025 86.1416C98.6845 88.8235 94.7578 92.1088 90.28 94.6566C88.0066 95.9975 85.5266 97.1373 82.9777 97.9419C80.4976 98.6794 77.9487 99.0147 75.3998 99.551C70.5775 100.49 66.7197 102.903 62.6552 105.585C60.5885 106.926 58.5218 108.267 56.1796 109.139C53.9062 110.01 51.495 110.346 49.2217 111.284C47.2239 112.156 45.5705 113.43 44.7439 115.508C44.675 115.709 44.6061 115.978 44.5372 116.179C43.3661 114.838 42.5394 113.296 42.2638 111.485C42.2638 111.284 42.1949 111.15 42.1949 110.949C42.5394 110.413 42.9527 109.876 43.3661 109.407C44.8127 107.865 46.535 106.591 48.3261 105.518C52.6662 102.836 57.0062 100.289 61.4152 97.6737C64.653 95.9975 68.2353 95.3271 71.8864 95.3271C75.0553 95.3271 78.0176 95.26 81.1177 94.5225C84.0799 93.852 86.9044 92.7122 89.4533 91.1701C92.2089 89.494 94.5512 87.4826 97.5823 86.2757C97.789 86.2087 97.789 85.9405 97.5134 85.9405C94.62 86.1416 92.3467 88.4212 90.0733 89.9633C87.18 91.8406 84.011 93.1816 80.6354 93.9191C77.1909 94.7236 73.7464 94.5225 70.302 94.7237C67.8219 94.8577 65.5486 95.4612 63.413 96.4669C67.8219 93.785 72.2309 91.1701 76.6398 88.4883C78.9821 87.0803 81.3932 85.6052 83.7355 84.1972C84.9755 83.4597 86.2844 82.7222 87.5244 81.9176C88.7644 81.1131 89.8667 80.1744 91.1067 79.3028V79.2358C88.9022 80.3085 86.7666 81.2472 84.631 82.5211C82.6332 83.6609 80.6354 84.8677 78.6376 86.0075C74.5731 88.3542 70.4397 90.7008 66.3752 93.0475C62.3107 95.3941 58.2463 97.8078 54.1818 100.154C50.6684 102.166 46.9483 104.043 43.7794 106.591C43.1594 107.06 42.5394 107.664 41.9194 108.267C42.126 104.11 43.7794 99.8863 45.6394 96.3328C45.6394 96.3328 45.6394 96.2657 45.7083 96.2657C46.8794 94.9248 48.2572 93.7179 49.7039 92.6452C52.7351 90.4326 56.1795 88.7564 59.4863 87.0132C66.4441 83.3927 73.0575 79.4369 78.9821 74.3413C80.6354 72.9333 82.151 71.3912 83.5977 69.7821C84.2177 69.0446 84.9066 68.3071 85.4577 67.5025C86.1466 66.5639 86.491 65.4911 87.0422 64.4183C87.111 64.2842 86.9044 64.2172 86.8355 64.2842C86.2155 65.1559 85.3199 65.7593 84.631 66.6309C84.011 67.4355 83.3221 68.173 82.7021 68.9775C81.3932 70.4526 80.0154 71.7935 78.4998 73.0674C75.4687 75.6823 71.9553 77.8948 68.4419 79.9733C64.9974 81.9847 61.5529 83.862 58.1085 85.7393C54.9395 87.4155 51.7017 89.0246 48.8083 91.1701C52.1151 86.2087 56.0418 81.6495 59.6929 76.8891C60.1752 76.5539 60.5885 76.1516 61.0707 75.7493C62.793 74.2743 64.5152 72.7992 66.1686 71.2571C67.8219 69.7151 69.4753 68.1059 71.0597 66.4968C72.7131 64.8206 74.0909 62.9433 75.6065 61.133C75.7443 60.9319 75.5376 60.6637 75.3309 60.8648C73.6775 62.541 71.8175 64.0161 70.1642 65.6252C68.5797 67.1673 66.9952 68.6423 65.3419 70.0503C64.653 70.6537 63.8952 71.3242 63.2063 71.9276C63.3441 71.6594 63.5508 71.4583 63.6885 71.1901C65.2041 68.8435 66.5819 66.4298 67.753 63.949C68.8553 61.6024 70.0953 59.0546 70.4397 56.4397C70.4397 56.3727 70.302 56.3056 70.2331 56.3727C69.0619 58.7864 68.2353 61.2671 66.7886 63.5467C65.3419 65.8263 63.7574 68.0389 62.1041 70.1844C59.4174 73.5368 56.524 76.8221 53.6995 80.1744C54.3195 78.9005 55.0084 77.5596 55.6284 76.2857C58.7285 70.1173 61.1396 63.8149 63.4819 57.3113C63.5508 57.1102 63.2063 56.9761 63.1374 57.2443C60.5196 63.6138 57.3507 69.9162 54.1818 76.0175C52.5973 78.9676 50.8061 81.8506 49.1528 84.8007C48.1194 86.5439 47.0861 88.2201 46.1216 90.0303C44.8816 91.9077 43.6416 93.852 42.6772 95.8634C41.1616 98.8135 39.8527 102.099 39.2327 105.384C39.1638 104.445 39.1638 103.507 39.2327 102.568C39.3705 98.6124 39.9216 94.5896 40.886 90.7679C42.8149 82.9233 46.3283 75.6823 50.9439 68.9775C53.424 65.357 55.6284 61.8705 57.0062 57.7136C57.0751 57.5795 56.7996 57.5125 56.7307 57.6466C55.2151 61.6024 52.3906 65.0218 49.8417 68.3741C49.015 69.4469 48.2572 70.5196 47.4994 71.5924C48.0506 70.1173 48.6017 68.7094 49.1528 67.2343C50.1172 64.6195 51.0128 62.0046 51.7706 59.3898C52.5973 56.6409 53.5617 53.959 54.1129 51.2101C54.1129 51.143 53.9751 51.076 53.9751 51.143C52.8728 53.4897 52.0462 56.0375 51.0817 58.4511C49.9795 61.133 49.015 63.8149 47.9817 66.4298C46.9483 68.9775 45.915 71.5924 44.8816 74.1402C44.3305 75.5482 43.7105 76.8891 43.0905 78.2301C42.7461 79.0346 42.4016 79.7721 42.1949 80.5767C39.026 87.4826 37.2349 94.9918 36.9593 102.568C36.9593 102.635 36.9593 102.769 36.9593 102.903C36.9593 102.836 36.8904 102.769 36.8904 102.702C36.2704 100.959 35.8571 99.0817 35.5126 97.2714C34.8926 93.3157 34.9615 89.1587 35.6504 85.2029C36.3393 81.1131 37.5793 77.0903 39.1638 73.2015C40.8171 68.9775 42.5394 64.6865 44.675 60.6637C42.6772 64.8206 40.1282 68.7094 38.3371 73.0004C36.6149 77.0902 35.0993 81.3813 34.2726 85.8064C33.5837 89.6951 33.3771 93.5838 33.9282 97.4726C34.2037 99.551 34.7548 101.562 35.4437 103.574C35.8571 104.58 36.3393 106.055 37.0971 107.06C37.4415 107.53 37.786 107.999 38.0616 108.468C39.3016 110.748 39.026 113.564 40.266 115.776C41.9194 118.794 45.7083 119.866 49.0839 120.671C49.635 120.805 50.1861 120.939 50.6684 121.073C50.5995 121.073 50.5995 121.006 50.5306 121.006C53.8373 120.336 57.0751 119.665 60.3818 118.995C65.3419 117.922 70.3708 117.05 75.0553 115.106C79.4643 113.296 83.8732 111.083 88.0066 108.669C92.0022 106.323 95.9289 103.775 98.9601 100.289C99.029 100.222 98.8912 100.087 98.8223 100.154C95.1023 103.105 91.1067 105.585 86.9044 107.664C82.6332 109.742 78.4309 112.089 73.9531 113.832C69.2686 115.642 64.3086 116.514 59.3485 117.52C55.6973 118.257 52.0462 118.995 48.4639 119.799C47.8439 119.397 47.2239 118.928 46.6039 118.525C46.3972 118.324 46.1217 118.19 45.915 117.989C46.0528 116.849 46.6039 115.776 47.3617 114.905C48.8084 113.229 51.1506 112.625 53.2173 112.022C57.5574 110.748 61.0018 108.602 64.653 106.055C66.4441 104.848 68.1664 103.574 70.0953 102.568C72.3687 101.495 74.7798 100.892 77.1909 100.423C81.8065 99.484 86.1466 98.076 90.3489 95.8634C94.8956 93.3827 99.3734 90.2985 103.025 86.678C103.3 86.2087 103.162 86.0075 103.025 86.1416Z" fill="#ABCC50"/>
<path d="M93.8624 112.961C81.6 117.587 68.3043 122.884 55.0085 121.677C58.3153 122.414 61.6909 123.018 65.0665 123.353C66.1687 123.42 67.2709 123.487 68.3732 123.554C69.2687 123.487 70.0954 123.42 70.991 123.286C76.4333 122.683 81.7378 121.476 86.4223 118.526C86.4912 118.459 86.4223 118.392 86.3534 118.392C81.3244 120.872 75.5377 121.811 69.9576 122.213C69.8887 122.213 69.8887 122.213 69.8198 122.213C70.3021 122.079 70.8532 122.012 71.3354 121.878C79.3266 120.001 86.5601 116.648 93.8624 113.162C94.069 113.095 94.0002 112.894 93.8624 112.961Z" fill="#ABCC50"/>
<path d="M48.6704 49.5342C35.9258 60.1276 31.7924 71.1904 32.1368 85.2032C34.9613 68.6426 43.5036 59.189 48.6704 49.5342Z" fill="#DCF490"/>
<path d="M49.4974 53.2217C45.5018 61.5355 40.7484 71.7937 38.1995 81.0462C43.3662 72.0619 52.3908 56.507 49.4974 53.2217Z" fill="#DCF490"/>
<path d="M57.0757 43.835C55.009 49.4669 54.389 58.5853 51.4956 64.8878C55.4223 58.7865 60.8646 50.0703 57.0757 43.835Z" fill="#DAEA81"/>
<path d="M60.1752 50.1372C58.0396 62.4068 46.7417 73.6037 45.0884 86.0074C49.4284 74.1401 62.6553 63.3455 60.1752 50.1372Z" fill="#CFE573"/>
<path d="M68.2356 53.0205C65.9622 40.4827 65.4111 63.3458 62.2422 65.4242C65.48 63.2787 68.2356 57.5797 68.2356 53.0205Z" fill="#BED860"/>
</mask>
<g mask="url(#mask0)">
<ellipse rx="69.9537" ry="82.5546" transform="matrix(0.500747 -0.865593 0.866456 0.499253 80.5591 80.6642)" fill="#21A36C"/>
</g>
</svg>
