<svg width="160" height="160" viewBox="0 0 160 160" fill="none" xmlns="http://www.w3.org/2000/svg">
<mask id="mask0" mask-type="alpha" maskUnits="userSpaceOnUse" x="33" y="21" width="94" height="118">
<path d="M77.6652 124.301C68.2069 96.5498 73.4368 91.7449 69.5956 90.2563C66.8138 92.3599 74.9723 133.697 77.6652 124.301Z" fill="#50872D"/>
<path d="M64.4347 34.5634C64.7791 34.5576 65.12 34.6317 65.4295 34.7794C65.7389 34.9271 66.0082 35.1442 66.2151 35.4131C66.0389 32.8028 66.4357 30.1859 67.3791 27.7376L68.7811 29.413C69.5138 26.6805 70.4198 23.9951 71.4939 21.3724C72.3263 21.1182 72.9093 22.1613 73.123 22.9871C73.8648 25.8078 74.5985 28.6329 75.324 31.4623L76.8551 31.0451C76.9926 34.8673 76.8244 38.6943 76.3521 42.491C76.7549 41.9868 77.545 42.6496 77.703 43.269C77.861 43.8883 78.0724 44.725 78.7289 44.725C78.9032 44.7236 79.0739 44.6763 79.223 44.588C79.8906 44.1773 82.4455 43.0995 86.4313 41.5239L94.256 35.5L94.7567 37.5406C95.3349 37.087 95.9852 36.7288 96.6818 36.4801C98.0269 36.0151 99.4846 35.9583 100.863 36.3171C100.049 38.6528 98.6662 40.7604 96.8331 42.4584C96.388 42.8617 95.9183 43.2384 95.4266 43.5862C96.0942 43.8557 97.276 44.4186 97.296 45.1835C97.2758 45.4567 97.1594 45.7147 96.9666 45.9137C93.6017 50.4425 88.0648 52.8677 83.7763 56.5621C80.9455 58.9981 78.6711 61.9797 76.0562 64.6352C73.4412 67.2908 70.3367 69.6921 66.6536 70.5027C66.3442 70.5701 65.9859 70.6179 65.7344 70.4441C65.5479 70.2901 65.413 70.0849 65.3472 69.8551C63.2419 64.4918 62.4675 58.4961 62.4541 52.7895C62.4252 51.1423 63.0394 34.5894 64.4347 34.5634Z" fill="#497A29"/>
<path d="M76.2452 92.6558C76.3854 91.6562 74.6874 89.9828 74.2734 92.6862C73.6659 98.1408 72.3907 103.022 70.479 108.55C68.2246 117.167 61.4993 129.934 64.951 129.675C70.8818 117.071 75.9848 100.462 76.2452 92.6558Z" fill="#50872D"/>
<path d="M74.7676 40.1485C76.0837 40.4439 77.2808 41.1131 78.2081 42.0717C78.0211 38.1772 78.1036 34.2748 78.4552 30.3911C79.7233 31.0555 80.8112 32.0053 81.6287 33.1619C81.4911 29.648 82.5388 26.1871 84.6108 23.311C86.0746 26.2734 87.1577 29.401 87.8355 32.6229L91.1737 32.1166C90.2019 34.9382 89.5686 37.8603 89.2865 40.8243L91.4942 40.72C91.0832 43.8146 90.673 46.9106 90.2635 50.008C91.9161 49.3493 93.5285 48.5983 95.0928 47.7588C95.059 50.806 95.3356 53.8488 95.9184 56.8425C103.131 58.2146 110.602 57.3892 117.318 54.4781C117.059 55.7691 116.555 57.0013 115.832 58.1117C116.671 57.8205 117.557 58.6636 117.626 59.5307C117.695 60.3978 117.218 61.2062 116.735 61.9407C113.07 67.63 108.334 72.852 102.23 75.9575C95.4155 79.4236 86.8741 80.3406 81.898 86.0669C79.2816 76.9239 77.9063 67.4849 77.8076 57.9921C77.7453 52.0203 75.2839 46.1616 74.7676 40.1485Z" fill="#50872D"/>
<path d="M40.9738 70.6201C42.0513 70.7027 43.09 71.0496 43.9937 71.6284C41.0707 67.5239 39.0429 62.8765 38.0361 57.9746C42.2267 57.9029 45.734 60.8997 48.7785 63.7117C46.8497 58.8163 44.9529 53.908 43.088 48.9865C42.8165 48.2651 42.7363 47.1676 43.5086 47.0111C43.7776 46.9736 44.0517 47.0248 44.2875 47.1568C45.2422 47.6609 46.4885 48.2868 48.0285 49.0626C47.1262 45.6441 46.8772 42.0925 47.2941 38.5859L49.5507 40.2114C49.5997 37.3139 49.6998 34.4251 49.8512 31.5449C49.8801 31.006 50.0603 30.3062 50.6145 30.2736C51.0373 30.2476 51.3355 30.6605 51.5447 31.0212L55.7041 38.1926C56.3819 37.8854 57.1362 37.776 57.8762 37.8774C58.0409 41.2632 58.2048 44.649 58.368 48.0347L61.4481 45.4117C62.918 51.2936 63.8526 57.2909 64.241 63.3336C67.7595 61.4864 69.2795 56.6447 73.1852 55.8362C73.1756 61.2025 72.0395 66.51 69.847 71.4307L72.3595 71.8066C69.7813 76.2853 67.4834 80.9124 65.4784 85.6626C64.4502 88.1008 63.4999 90.5688 62.6275 93.0664C62.1557 94.4181 61.5371 99.0187 60.4644 99.8205C59.5742 100.494 59.7589 100.025 59.1491 98.9513C58.3858 97.6083 58.0965 96.048 57.2531 94.7224C54.8362 90.9324 51.2176 87.7162 48.4647 84.1327C46.8246 82.0311 45.3373 79.82 44.0138 77.5155C43.6421 76.8983 41.1407 70.6331 40.9738 70.6201Z" fill="#50872D"/>
<path d="M89.4472 55.6712C86.7467 58.3226 84.1878 61.1079 81.7804 64.0161C84.2663 52.3007 91.6415 37.645 84.5044 51.5162C85.0229 46.7744 85.586 39.7639 84.3419 35.3828C84.787 40.7657 84.0771 46.0312 83.2826 51.7465C82.9555 50.9686 78.0839 43.682 80.3294 47.9197C86.5963 56.0907 78.1485 68.0951 75.3755 78.9368C73.7888 85.0499 72.567 92.1647 71.7481 98.808C65.2942 77.0136 55.5956 75.9314 59.1541 55.9211C59.9219 49.619 56.7239 63.8727 57.3404 65.2504C54.3093 57.6575 51.9102 36.1738 51.8457 43.3821C55.3553 83.9285 76.0721 90.7978 70.2814 112.829C69.9187 119.616 68.7859 125.014 69.981 132.037C70.2458 133.559 71.9238 133.776 71.619 130.99C71.817 111.745 73.4572 93.6012 77.8814 74.7753C78.3265 73.7583 78.7405 72.7304 79.1455 71.6981C80.0357 66.0327 88.2654 60.2478 89.4472 55.6712Z" fill="#5D933B"/>
<path d="M105.474 96.5457C111.959 95.9285 118.776 95.2852 124.15 91.6865L121.676 90.3827C123.51 88.6333 125.045 86.6084 126.222 84.3848C123.414 83.576 120.451 83.4204 117.57 83.9306L118.057 82.4746L110.88 85.7647C110.841 85.2693 110.803 84.7738 110.764 84.2783C104.115 82.9396 96.9886 83.4091 90.8441 86.2211C87.5221 87.7445 84.5806 89.9575 82.2249 92.7057C81.1566 93.9596 77.0239 99.0882 79.1537 99.8771C80.0439 100.21 82.8591 99.0404 83.8561 98.8992C86.1439 98.571 88.4539 98.3407 90.7551 98.0777C95.6556 97.5243 100.562 97.0136 105.474 96.5457Z" fill="#4E9123"/>
<path d="M70.0206 90.6823C68.6936 88.3966 67.9454 85.8344 67.8381 83.2091C67.7309 80.5838 68.2678 77.9714 69.4042 75.5898C71.1422 78.5171 72.5198 81.629 73.9018 84.7322C74.792 86.7141 75.6822 88.7373 75.8892 90.8887C76.1985 93.9942 74.7319 97.6472 76.0761 100.583C75.7979 96.904 71.8366 93.7464 70.0206 90.6823Z" fill="#4E9123"/>
<path d="M60.3531 105.173C53.6761 99.4256 46.1712 94.6664 38.0785 91.0477L40.1437 90.3371L34.8248 83.6873C34.1572 82.855 33.4584 81.7706 33.9346 80.8209C34.5489 79.5931 36.3827 79.8495 37.7179 80.295L49.6843 84.3262C44.2857 78.1273 39.5157 71.4317 35.4413 64.3334C36.8121 64.4402 38.1696 64.6723 39.4961 65.0266L35.5704 54.2152L38.5413 54.9367C38.0164 53.1997 37.5885 51.4361 37.2595 49.6538C37.1393 49.0019 37.0369 48.3043 37.284 47.6849C38.0273 45.8421 40.9871 46.3333 42.3692 47.7806C43.7512 49.2279 44.5301 51.2771 46.286 52.2681L46.8268 50.7469C47.9741 52.181 48.7951 53.8375 49.2347 55.606L50.7925 53.8262C52.6048 56.0489 53.6676 58.7652 53.8348 61.6017C53.8582 59.9805 54.454 58.4168 55.5217 57.175C58.2199 62.8682 60.4994 68.7418 62.3427 74.7514C63.5247 71.3008 65.2647 68.0573 67.4969 65.1439C71.4614 80.4869 71.3848 96.5601 67.2743 111.866C65.0938 109.514 62.7833 107.279 60.3531 105.173Z" fill="#579E2A"/>
<path d="M72.6557 85.4517C70.5771 77.7588 67.3146 70.4289 64.0654 63.1358C65.4306 62.6633 66.9092 62.5997 68.3117 62.9532C69.7141 63.3067 70.9765 64.0612 71.9369 65.1199C70.9354 61.8863 69.9332 58.6534 68.9303 55.4212C68.8139 55.141 68.7815 54.8342 68.8368 54.5367C69.1039 53.6283 70.5371 53.9195 71.2492 54.5584C71.9614 55.1973 72.8071 56.0666 73.7151 55.7102C73.5621 53.6456 73.7119 51.5703 74.1601 49.5472C74.3649 48.6192 74.7232 47.5913 75.6045 47.2002C76.6037 46.7525 77.7743 47.3371 78.5755 48.0694C79.4672 48.904 80.1465 49.931 80.5588 51.068C80.9712 52.205 81.1052 53.4205 80.95 54.6171L83.1978 52.9677L85.1673 73.4452C87.6079 65.9044 89.7176 58.2723 91.4965 50.549L92.6382 53.1372C93.7612 50.3001 95.1962 47.5902 96.9178 45.0553C98.1345 47.3742 98.9853 49.8594 99.4414 52.4266C100.371 48.4823 102.248 44.8107 104.918 41.7152C105.136 42.9061 105.359 44.0962 105.586 45.2857C106.254 43.3668 107.353 41.6184 108.803 40.1687C110.254 38.719 112.018 37.6049 113.967 36.9082C114.487 38.5404 114.725 40.2457 114.673 41.9542C115.654 44.2621 114.795 47.1698 112.707 48.6301C113.506 49.1668 114.434 49.489 115.4 49.5646C113.675 52.9389 111.291 55.951 108.381 58.431C110.605 58.8704 112.875 59.0477 115.142 58.959C116.15 60.0456 114.982 61.6972 113.849 62.6534C109.113 66.6352 103.936 70.0887 98.4155 72.9497C100.487 74.4165 103.467 73.3843 105.428 71.7697C107.389 70.155 108.944 68.0145 111.25 66.9301L111.205 68.6882C113.462 67.7636 115.856 67.1986 118.296 67.0149C118.643 68.5533 118.573 70.1537 118.091 71.6572C117.609 73.1607 116.733 74.515 115.549 75.5857C116.566 75.8423 117.619 75.929 118.665 75.8421C116.746 77.8102 114.441 79.382 111.888 80.4644L114.381 82.8396C107.482 84.5955 100.467 86.3992 94.4252 90.0892C91.2139 92.045 89.6806 94.4094 84.1547 98.7622C80.718 101.472 77.1431 104.011 73.4436 106.368C74.2237 103.826 74.6723 101.197 74.7788 98.5449C74.9546 94.0204 74.0644 90.6651 72.6557 85.4517Z" fill="#579E2A"/>
<path d="M103.144 91.6754C105.43 90.4867 107.902 89.311 110.477 89.5587C110.774 90.3402 110.878 91.179 110.78 92.007C110.683 92.8351 110.387 93.629 109.916 94.3244C112.375 93.6829 114.909 93.3578 117.454 93.3574L116.317 95.4805L121.76 96.5215C121.886 97.0926 122.168 97.6198 122.576 98.0472C122.984 98.4746 123.502 98.7861 124.077 98.9488C123.259 99.2112 122.529 99.6849 121.964 100.32C121.399 100.954 121.02 101.726 120.868 102.554C118.98 103.633 116.787 104.09 114.612 103.858C115.115 104.437 115.617 105.017 116.117 105.596C111.865 106.012 107.578 105.927 103.347 105.344C104.767 107.218 106.497 108.848 108.465 110.167C105.043 112.297 100.907 113.05 96.9285 112.266C93.7995 111.636 90.9354 110.078 87.8219 109.371C82.1715 108.089 78.3793 110.369 73.4565 112.327C74.7162 108.493 80.3555 105.42 83.5201 103.299C89.8321 99.0669 96.3839 95.1861 103.144 91.6754Z" fill="#579E2A"/>
<path d="M103.783 53.915C100.565 58.7372 97.4404 63.7224 94.3092 69.0227C94.6207 66.5931 95.5042 61.1994 94.6452 59.1371C94.0399 62.8749 94.258 67.4646 92.5711 71.524C92.531 71.7587 92.5043 71.4914 92.3485 72.2846C88.9858 77.9021 85.3383 84.0543 81.8265 90.0087C82.9036 81.6508 78.4126 66.7278 76.9305 61.9752C85.2426 104.262 77.6782 87.3575 68.5472 116.325C63.3796 92.5534 62.5028 98.2405 66.2905 78.7475C64.4211 83.1763 62.9056 89.9348 62.6296 95.5567C58.8641 86.4295 54.54 76.8156 55.3679 66.4236C54.4221 69.4921 54.6714 73.8123 55.0408 77.4936C49.4482 67.0277 50.0201 68.1882 48.9564 59.5891C48.7219 61.9196 48.7682 64.2689 49.0943 66.5888C39.7474 51.9592 48.6225 67.106 48.7182 67.2885C48.6737 66.5562 39.7585 60.8734 42.2644 63.0227C48.8762 66.7692 51.8339 72.7866 54.6469 79.8167C54.3776 78.6214 42.6605 69.7768 45.3355 72.3454C54.6669 78.3542 58.4257 87.7747 61.6393 98.0602C55.1854 89.3676 37.9492 85.9732 44.63 88.368C68.8587 96.1913 67.8795 118.036 66.4775 135.51C66.9404 144.285 69.6844 132.267 68.9611 129.558C67.5791 112.39 79.7857 103.871 94.7898 106.798C94.4931 105.894 94.1964 104.99 93.8997 104.086C97.9294 104.082 101.951 103.73 105.917 103.034C105.432 101.702 104.622 100.504 103.558 99.5448C102.494 98.5853 101.207 97.8923 99.8083 97.5256C101.764 93.6682 105.666 91.3451 109.778 89.5436C95.3796 93.3423 74.1264 109.004 71.2199 113.624C83.2375 83.3871 89.402 89.6045 109.896 77.3501C101.159 80.2621 91.8077 84.8279 83.5846 89.6414C89.4799 79.9145 93.2098 67.6797 105.105 62.7554C102.715 62.8097 98.9114 65.5978 96.1318 67.6232C98.4174 63.4247 102.112 58.2548 103.783 53.915Z" fill="#6AAF3E"/>
</mask>
<g mask="url(#mask0)">
<rect x="-36" y="-22" width="174" height="196" fill="#21A36C"/>
</g>
</svg>
