<svg width="160" height="160" viewBox="0 0 160 160" fill="none" xmlns="http://www.w3.org/2000/svg">
<mask id="mask0" mask-type="alpha" maskUnits="userSpaceOnUse" x="19" y="32" width="121" height="96">
<path d="M82.8535 75.5981C80.3098 83.7885 77.7661 92.0625 76.8335 100.587C75.2225 102.008 73.2723 103.094 71.3222 104.014C70.3047 104.515 69.2025 104.85 68.1002 105.184C67.8458 105.267 67.5915 105.267 67.4219 105.351C67.3371 105.267 67.2523 105.267 67.1675 105.267C66.9979 105.267 66.8284 105.351 66.6588 105.351C66.4892 105.267 66.2348 105.351 66.2348 105.602C66.2348 105.685 66.2348 105.769 66.2348 105.769C65.8109 106.437 65.8957 107.691 65.6413 108.36C65.3022 109.195 66.4892 109.78 66.9132 108.945C67.1675 108.36 67.3371 107.775 67.5067 107.19C67.5915 106.939 67.6762 106.605 67.6762 106.27C67.6762 106.187 67.6762 106.103 67.6762 106.02C68.8633 105.936 70.3047 105.351 71.0678 105.1C72.9332 104.515 74.9681 103.679 76.6639 102.593C76.6639 102.76 76.6639 102.844 76.6639 103.011C76.7487 102.844 76.7487 102.677 76.8335 102.509C77.1726 102.259 77.5118 102.008 77.7661 101.757C78.2749 101.339 78.0205 100.587 77.5118 100.42C79.8011 93.3997 81.6664 86.2122 82.8535 78.9412C84.8884 83.5378 88.8735 87.2151 93.6217 88.9702C90.0606 84.4571 86.4994 80.0276 82.8535 75.5981Z" fill="#5B4122"/>
<path d="M99.5569 93.9849C96.7588 89.054 93.9608 84.0395 91.1627 79.1085C87.5168 72.6732 83.2774 67.408 78.614 61.6413C78.5292 61.5577 78.5292 61.5577 78.4444 61.4741C78.3596 61.6413 78.3596 61.8084 78.2748 61.9756C78.19 61.892 78.1052 61.8084 77.9357 61.7248C69.8807 75.4312 60.3843 88.0511 51.5663 101.34C48.4291 100.17 45.8854 100.755 42.4939 101.256C41.8156 102.677 45.8006 102.51 47.5812 102.844C49.1922 103.095 50.888 103.095 52.499 102.593C52.499 102.677 52.4142 102.677 52.4142 102.76C52.4142 102.677 52.499 102.677 52.499 102.593C52.5838 102.593 68.948 80.9472 77.0878 70.2495C78.0205 68.9959 79.0379 67.6587 79.3771 66.0708V65.9872C79.3771 66.0708 89.8909 84.0395 95.1478 92.982C96.9284 95.9907 98.9633 99.2502 102.27 100.504C101.846 98.0801 100.659 96.0743 99.5569 93.9849Z" fill="#5B4122"/>
<path d="M139.408 116.048C138.645 115.463 137.712 115.296 136.864 114.878C136.186 114.544 135.507 114.126 134.914 113.708C135.253 113.541 135.168 112.873 134.66 112.789C129.827 112.455 124.824 112.288 120.076 113.207C118.041 111.619 116.091 109.947 114.225 108.192C112.869 108.192 111.427 108.192 110.071 108.192C111.343 109.195 112.699 110.031 114.056 110.95C116.091 112.204 118.041 113.708 120.415 114.377C120.924 114.544 121.093 113.876 120.754 113.625C120.669 113.541 120.585 113.541 120.585 113.458C125.078 113.625 129.572 113.458 134.066 113.708C134.829 114.544 135.592 115.129 136.525 115.714C137.288 116.216 138.39 116.801 139.323 116.801C139.408 116.801 139.747 116.383 139.408 116.048Z" fill="#5B4122"/>
<path d="M122.28 106.354C120.33 109.697 115.582 110.198 111.682 109.781C105.238 109.028 98.5393 106.354 95.0629 100.922C93.2824 98.1636 92.4345 94.9042 91.1627 91.8954C88.4494 85.5437 83.7012 80.0277 77.766 76.5176C91.3322 79.6934 104.305 85.3766 115.751 93.1491C118.041 94.6534 120.245 96.3249 121.687 98.665C123.128 100.922 123.637 104.014 122.28 106.354Z" fill="#B28C56"/>
<path d="M91.1626 91.8955C92.4345 94.9042 93.2824 98.1637 95.0629 100.922C95.1477 101.089 95.2325 101.172 95.4021 101.34C95.826 101.34 96.25 101.256 96.6739 101.256C95.9108 98.7487 96.0804 95.8236 97.6066 93.6506C94.215 88.8868 90.8235 83.8723 87.1776 79.1085C84.0404 78.1056 80.9032 77.1863 77.766 76.4341C83.7012 80.0278 88.4494 85.5438 91.1626 91.8955Z" fill="#5B4122"/>
<path d="M94.9784 100.838C95.4871 101.005 95.9111 101.172 96.4198 101.507C98.1156 95.4893 103.033 91.227 108.969 88.9705C107.273 87.9676 105.492 87.0482 103.712 86.1289C101.761 87.4661 99.8961 88.8033 98.2851 90.4748C96.0806 92.7314 94.3001 95.4893 93.7065 98.4981C94.0457 99.2502 94.4696 100.086 94.9784 100.838Z" fill="#5B4122"/>
<path d="M114.48 98.1636C114.819 101.256 112.445 104.097 109.308 104.348C106.17 104.682 103.288 102.342 103.033 99.2501C102.694 96.1578 105.068 93.3163 108.205 93.0655C111.343 92.7312 114.141 94.9878 114.48 98.1636Z" fill="white"/>
<path d="M113.293 98.2474C113.547 100.755 111.682 102.928 109.138 103.178C106.595 103.429 104.39 101.59 104.136 99.0831C103.881 96.5758 105.747 94.4029 108.29 94.1522C110.834 93.985 113.039 95.8237 113.293 98.2474Z" fill="#5B4122"/>
<path d="M107.612 96.8263C107.697 97.8292 106.934 98.7485 105.916 98.9157C104.899 98.9992 103.966 98.2471 103.796 97.2442C103.712 96.2413 104.475 95.3219 105.492 95.1548C106.595 95.0712 107.527 95.8234 107.612 96.8263Z" fill="white"/>
<path d="M102.016 102.259C102.016 103.262 101.253 104.014 100.235 104.014C99.2177 104.014 98.4546 103.262 98.4546 102.259C98.4546 101.256 99.2177 100.504 100.235 100.504C101.168 100.504 102.016 101.256 102.016 102.259Z" fill="#EC9368"/>
<path d="M41.9851 33.8106C62.504 30.1332 83.7013 34.9806 99.8112 48.1855C107.273 54.2865 113.717 62.1426 117.363 71.0852C119.143 75.5147 120.076 80.1949 119.991 84.9587C119.906 90.2239 118.126 94.4863 116.091 99.2501C116.006 99.4172 116.345 99.5844 116.43 99.5008C122.535 92.3969 121.687 80.6128 118.889 72.4224C115.752 63.1455 109.053 55.0387 101.677 48.687C85.4818 34.6463 63.0128 28.8796 41.9851 33.6434C41.9003 33.6434 41.9003 33.8106 41.9851 33.8106Z" fill="#B28C56"/>
<path d="M120.246 100.337C126.69 92.0626 126.096 81.0307 121.857 71.8374C117.278 61.9755 108.291 54.2865 99.1333 48.687C78.9535 36.2343 51.8211 33.3927 30.1151 43.756C29.9455 43.8396 30.0303 44.1739 30.2847 44.0903C41.2224 40.413 52.5842 38.4072 64.2002 39.0758C75.4772 39.7444 86.415 43.2546 96.2505 48.687C113.717 58.3817 132.286 79.6935 119.907 100.169C119.737 100.42 120.076 100.587 120.246 100.337Z" fill="#B28C56"/>
<path d="M117.956 107.858C117.023 107.19 116.175 106.354 115.667 105.351C115.327 104.766 114.48 105.268 114.734 105.853C115.243 107.023 116.006 108.026 117.108 108.778C117.362 108.945 117.702 109.112 118.041 109.363C118.634 109.196 119.228 108.945 119.736 108.694C119.143 108.443 118.465 108.193 117.956 107.858Z" fill="#5B4122"/>
<path d="M40.2046 82.4515C33.5911 80.1114 27.2319 76.8519 21.4663 72.8403C20.5336 75.0133 21.4663 77.5206 22.6533 79.5264C27.6558 88.3018 37.0674 93.567 46.3094 97.8294C51.3968 100.169 56.4841 102.259 61.9106 103.596C74.0354 106.438 86.7538 104.766 99.1329 103.178C98.1155 101.757 97.6068 99.5009 96.5893 98.0801C80.4794 100.754 63.352 96.0743 50.888 85.7109C49.4466 84.5409 48.0052 83.2037 46.1398 82.953C44.6984 82.7022 43.1722 83.2037 41.7308 83.4544C40.3742 83.6216 41.1373 83.538 40.2046 82.4515Z" fill="#B28C56"/>
<path d="M75.2227 97.3276C73.6117 99.5842 72.3399 102.175 71.8312 104.933C72.2551 104.933 72.5943 105.017 73.0182 105.017C73.4422 102.342 74.2901 99.8349 75.9011 97.4948C75.6467 97.4112 75.4771 97.4112 75.2227 97.3276Z" fill="#5B4122"/>
<path d="M84.5493 98.665C83.9558 100.671 83.5318 102.76 83.447 104.933C83.7862 104.933 84.1253 104.85 84.4645 104.85C84.4645 102.844 84.7189 100.754 85.3124 98.7486C85.058 98.665 84.8036 98.665 84.5493 98.665Z" fill="#5B4122"/>
<path d="M67.5068 95.1549C67.3372 95.0714 67.1676 95.0714 67.0829 94.9878C64.7935 97.2443 62.8434 100.337 61.8259 103.596C61.9107 103.596 61.9107 103.596 61.9955 103.596C62.2499 103.68 62.4195 103.68 62.6738 103.763C63.013 102.76 63.3521 101.757 63.8609 100.755C64.7935 98.6651 66.1502 96.91 67.5068 95.1549Z" fill="#5B4122"/>
<path d="M79.7165 98.1637C79.6317 98.1637 79.4621 98.1637 79.3773 98.0801C78.5295 100.253 77.8511 102.677 77.7664 105.1C78.1055 105.1 78.4447 105.1 78.7838 105.1C78.7838 104.599 78.7838 104.098 78.7838 103.596C78.9534 101.757 79.2078 99.9187 79.7165 98.1637Z" fill="#5B4122"/>
<path d="M58.689 102.677C59.1129 101.507 59.5368 100.42 60.1304 99.3336C61.2326 97.2442 62.7588 95.5727 64.285 93.8176C64.1154 93.734 63.9459 93.6505 63.7763 93.5669C61.2326 95.6563 59.0281 98.9993 57.8411 102.342C58.0954 102.509 58.3498 102.593 58.689 102.677Z" fill="#5B4122"/>
<path d="M71.8311 96.4919C71.6615 96.4083 71.4919 96.4083 71.2375 96.3247C69.2874 98.5812 67.7612 101.506 67.2524 104.515C67.5916 104.599 67.9308 104.599 68.2699 104.599C68.8634 101.757 69.9657 99.0827 71.8311 96.4919Z" fill="#5B4122"/>
<path d="M128.131 127.248C127.707 126.913 127.198 126.746 126.69 126.496C126.35 126.245 126.011 126.078 125.672 125.827C125.079 125.409 124.57 124.991 123.892 124.657C123.976 124.323 123.807 123.988 123.383 123.988H123.298C123.298 123.988 123.298 123.988 123.213 123.988C118.38 123.654 113.378 123.487 108.63 124.406C102.016 119.392 96.7591 112.706 89.6368 108.193C90.8239 107.524 91.7566 106.605 92.6892 105.602C93.3675 104.933 93.9611 104.181 94.6394 103.512C95.1481 102.927 95.9112 102.593 96.3352 101.924C96.5047 101.674 96.2504 101.339 95.996 101.339C95.7416 101.339 95.5721 101.423 95.3177 101.423C95.4025 101.005 94.8938 100.671 94.4698 100.838C92.9436 101.507 91.9261 103.178 90.8239 104.348C89.7216 105.435 88.365 106.27 87.6019 107.691C87.3475 108.025 87.3475 108.527 87.8563 108.778C87.8563 108.778 87.9411 108.778 87.9411 108.861C88.1954 110.198 89.1281 111.034 90.2304 111.87C92.2653 113.541 94.0459 115.464 96.0808 117.135C98.1157 118.974 100.32 120.478 102.61 121.982C104.475 123.153 106.255 124.49 108.375 125.242C108.46 125.409 108.63 125.493 108.799 125.493C113.463 125.493 118.126 125.409 122.705 124.991C123.383 125.743 124.061 126.328 124.994 126.83C125.503 127.081 126.011 127.415 126.605 127.666C126.859 127.833 127.029 127.916 127.283 128C127.453 128 127.622 128 127.707 127.916C127.707 127.916 127.707 127.916 127.792 127.916C128.131 128 128.47 127.498 128.131 127.248Z" fill="#5B4122"/>
<path d="M94.9783 93.6504C93.4521 95.8234 93.2825 98.7485 94.0456 101.256C78.614 102.259 62.5889 99.3335 49.8705 90.6417C37.1522 81.9498 28.3341 67.157 29.182 51.9463C36.4739 52.5313 41.646 53.8685 47.9204 54.7878C58.2646 56.2922 67.6762 61.8918 75.392 68.9121C83.1078 75.9324 88.8735 85.2093 94.9783 93.6504Z" fill="#B28C56"/>
<path d="M41.0526 69.1626C38.3394 64.8167 34.4391 61.5572 29.6909 59.8857C29.6909 60.0529 29.7757 60.22 29.7757 60.3036C34.1847 62.2259 37.9155 65.4017 40.3743 69.5805C40.6287 70.0819 41.307 69.6641 41.0526 69.1626Z" fill="#3A2611"/>
<path d="M82.0906 88.8031C82.2602 88.5524 81.8363 88.3017 81.7515 88.5524C80.2253 87.6331 78.6991 86.7138 77.1729 85.7944C77.936 85.1258 78.6991 84.3737 79.3774 83.4543C80.2253 83.7886 82.0907 83.2872 82.5994 83.12C83.956 82.7857 85.2278 81.8664 85.6518 80.5292C85.567 80.4456 85.4822 80.362 85.3974 80.1949H85.3126C83.956 81.0306 81.6667 83.2036 79.9709 82.535C81.158 80.8635 82.1754 79.0248 82.8537 77.019C82.5994 76.6847 82.2602 76.3504 82.0059 76.0161C81.9211 76.2668 81.9211 76.434 81.8363 76.6847C81.2428 78.607 80.3101 80.362 79.2926 82.0335C79.123 81.8664 79.0382 81.6992 78.9535 81.4485C77.512 78.5234 77.1729 75.1804 77.6816 72.0045C77.6816 71.8373 77.512 71.7538 77.4273 71.9209C76.5794 75.6818 77.0033 79.3591 78.7839 82.7857C78.1904 83.705 77.4273 84.6244 76.7489 85.4601C74.5444 84.1229 72.4247 82.7857 70.2202 81.3649C70.4746 80.4456 70.7289 79.6098 70.8985 78.6905C70.9833 78.6905 71.1529 78.5234 71.0681 78.4398C71.0681 78.3562 70.9833 78.3562 70.9833 78.2726C70.9833 78.1055 71.0681 77.8548 71.0681 77.6876C73.527 75.849 75.0532 72.5895 75.7315 69.2465C75.5619 69.0794 75.3923 68.9122 75.138 68.7451C75.0532 68.6615 74.9684 68.5779 74.8836 68.5779C74.7988 69.0794 74.6292 69.4972 74.4596 69.9987C73.6965 72.2552 72.3399 74.0939 71.1529 76.0997C71.6616 72.3388 71.4072 68.6615 70.5593 64.9842C70.305 64.817 70.0506 64.5663 69.7962 64.3991C70.7289 68.4943 70.8137 72.7567 70.1354 76.9354C69.4571 75.3475 69.0331 73.7596 68.5244 72.0881C68.0157 70.0823 68.0157 68.0765 67.5069 66.1542C67.4222 65.9035 67.083 65.9035 66.9982 66.1542C66.3199 69.9987 68.0157 74.4282 69.9658 77.8548C69.7962 78.9412 69.5419 80.0277 69.2027 81.0306C66.4895 79.2756 60.8086 75.5982 60.639 75.4311C61.4021 74.5118 61.4021 72.0045 61.5717 70.8344C61.8261 69.0794 61.8261 67.2407 61.7413 65.4856C62.674 63.9813 63.4371 62.2262 63.7762 60.3875C63.4371 60.2204 63.1827 60.0532 62.8436 59.8861C62.7588 60.4711 62.674 61.1397 62.5044 61.7247C62.3348 62.5605 61.9957 63.3127 61.5717 63.9813C61.5717 63.647 61.4869 63.3962 61.4869 63.0619C61.3174 61.5576 60.9782 60.1368 60.639 58.716C59.9607 58.3817 59.3672 58.131 58.6889 57.7967C59.3672 59.8861 59.7911 62.059 60.0455 64.3156C59.452 63.8977 58.8585 63.2291 58.6889 63.1455C56.5692 61.2233 55.043 58.7996 54.1951 56.1252C54.1103 56.1252 53.9407 56.0416 53.8559 56.0416C54.7886 59.8025 56.9931 62.9784 60.1303 65.2349C60.2999 67.8257 60.2151 70.5001 59.8759 73.1745C59.7911 73.676 59.6216 74.0939 59.2824 74.4282C57.1627 73.0074 55.1278 71.5866 53.008 70.1658C52.9232 69.5808 52.8384 68.9958 52.6689 68.3272C53.008 68.16 51.0579 64.1484 50.21 62.7276C51.397 60.5547 51.9906 57.9638 51.7362 55.4566C51.397 55.373 51.0579 55.2894 50.7187 55.2058C51.1427 57.546 51.0579 59.8861 50.0404 62.3933C49.8708 62.1426 49.786 61.8919 49.7013 61.7247C48.1751 58.9667 46.1401 56.3759 43.9356 54.1194C43.766 54.1194 43.5117 54.0358 43.3421 54.0358C45.377 56.2923 47.1576 58.7996 48.6838 61.474C49.6165 63.1455 50.3796 64.817 51.0579 66.5721C51.2275 67.0735 51.397 67.4914 51.5666 67.9929C51.1427 68.16 50.8035 68.2436 50.3796 68.4108C43.5117 63.5634 36.8133 58.6324 30.0302 53.7015C29.9454 53.6179 29.7758 53.7851 29.8606 53.8686C35.9654 59.0503 42.4094 64.0648 49.0229 68.7451C43.2573 70.333 37.4069 70.4166 31.5564 67.9093C31.6412 68.0765 31.726 68.2436 31.726 68.4943C37.3221 71.0016 44.2748 71.7538 50.21 69.6644C52.9232 71.5866 55.7213 73.5088 58.4345 75.3475C57.4171 75.9325 55.9756 76.2668 54.8734 76.6847C52.8384 77.3533 50.7187 77.8548 48.599 78.2726C44.3596 78.9412 39.7809 78.5234 35.8807 76.7683C35.9654 76.9354 36.135 77.1026 36.2198 77.3533C39.8657 79.192 43.6812 79.6934 47.8359 79.3591C50.0404 79.192 52.1601 78.6905 54.2799 78.1055C55.4669 77.7712 56.654 77.3533 57.7562 76.9354C58.2649 76.7683 59.028 76.6011 59.7064 76.2668C63.7762 79.0248 67.9309 81.6157 72.1703 84.2065C72.1703 84.3737 72.1703 84.6244 72.0856 84.7915C70.9833 85.4601 69.881 86.1287 68.694 86.7138C60.1303 84.2901 51.397 83.3707 42.4942 84.2065C42.4094 84.2065 42.4094 84.3737 42.4942 84.3737C50.9731 84.0393 59.5368 84.8751 67.7613 87.2152C65.0481 88.4688 62.25 89.4717 59.3672 90.2239C56.3148 90.9761 53.3472 91.1433 50.2948 91.3104C50.8883 91.7283 51.5666 92.1462 52.1601 92.4805C54.4494 92.2297 56.654 91.8119 58.6889 91.3104C62.1652 90.5582 65.472 89.1374 68.5244 87.4659C68.7788 87.5495 68.9484 87.6331 69.2027 87.6331C69.6267 87.8002 69.881 87.0481 69.3723 86.9645C70.2202 86.463 71.0681 85.9616 71.8312 85.3766C71.0681 90.4747 68.0157 95.0713 63.3523 97.6621C63.6067 97.8293 63.9458 97.9129 64.2002 97.9964C68.9484 95.2385 71.8312 90.5582 72.1703 85.2094C72.2551 85.1258 72.2551 85.0423 72.1703 84.9587C72.1703 84.7915 72.1703 84.6244 72.1703 84.4572C75.5619 86.0452 78.3599 87.7167 81.2428 89.3882C79.8861 91.4776 78.2751 93.2326 76.4098 94.9041C74.2901 96.8264 71.8312 97.8293 69.4571 99.1665C69.7115 99.2501 69.9658 99.2501 70.1354 99.3336C73.6118 98.3307 76.7489 95.9071 79.123 92.9819C79.3774 95.6563 79.547 98.3307 80.0557 100.922C80.2253 100.922 80.3949 100.922 80.5644 101.005C80.4797 98.1636 79.9709 95.4056 79.6318 92.6476C79.6318 92.564 79.547 92.564 79.547 92.4805C80.3101 91.5611 80.9884 90.5582 81.5819 89.5553C85.6518 91.8954 89.6369 94.2355 93.7067 96.4921C93.7915 96.1578 93.7915 95.9071 93.8763 95.6563C89.976 93.4834 86.0757 91.2268 82.0906 88.8031ZM51.7362 69.1629C51.9058 69.0794 51.9906 69.0794 52.1601 68.9958C52.2449 69.1629 52.2449 69.4137 52.3297 69.5808C52.1601 69.4137 51.9058 69.2465 51.7362 69.1629Z" fill="#3A2611"/>
<path d="M78.9532 91.3105C75.816 98.6652 72.7636 106.103 71.1526 113.959C69.4568 115.13 67.6762 115.965 65.7261 116.634C64.7086 116.968 63.6912 117.219 62.6737 117.47C62.4193 117.553 62.2497 117.553 61.9954 117.553C61.9106 117.47 61.8258 117.47 61.741 117.47C61.5714 117.47 61.4018 117.47 61.2323 117.553C61.0627 117.47 60.8083 117.553 60.8083 117.72C60.8083 117.804 60.8083 117.804 60.8083 117.888C60.3844 118.473 60.3844 119.643 60.0452 120.228C59.7061 120.98 60.7235 121.648 61.2323 120.896C61.5714 120.395 61.741 119.893 61.9954 119.308C62.0802 119.058 62.165 118.807 62.2497 118.473C62.2497 118.389 62.2497 118.305 62.3345 118.222C63.4368 118.222 64.7934 117.804 65.5565 117.637C68.8633 116.801 71.7461 115.297 72.0005 115.13C72.5092 114.795 72.3396 114.043 71.9157 113.876C74.7137 107.608 77.003 101.089 78.7836 94.4028C80.225 98.8323 83.6166 102.593 87.856 104.683C84.8884 100.17 81.9208 95.74 78.9532 91.3105Z" fill="#5B4122"/>
<path d="M74.205 99.25C70.9831 94.7369 67.6763 90.2239 64.4543 85.7108C60.2149 79.8605 55.5515 75.1803 50.3793 70.0822C50.2945 69.9986 50.2945 69.9986 50.2097 69.915C50.125 70.0822 50.125 70.2493 50.125 70.3329C50.0402 70.2493 49.9554 70.1658 49.7858 70.1658C43.4266 84.3736 35.5413 97.5785 28.419 111.368C25.197 110.533 22.8229 111.285 19.6009 112.121C19.0922 113.625 22.9925 112.956 24.6883 113.124C26.2993 113.207 27.995 113.04 29.4364 112.371C29.4364 112.455 29.3517 112.455 29.3517 112.538C29.3517 112.455 29.4364 112.455 29.4364 112.371C29.5212 112.288 43.0875 89.6388 49.8706 78.3562C50.6337 77.019 51.4816 75.5982 51.6512 74.0938V74.0102C51.736 74.0938 63.776 90.4746 69.796 98.5814C71.8309 101.339 74.1202 104.265 77.5118 105.1C76.9183 103.011 75.5617 101.089 74.205 99.25Z" fill="#5B4122"/>
</mask>
<g mask="url(#mask0)">
<path d="M163.556 79.9999C163.556 116.328 126.146 145.778 80 145.778C33.8536 145.778 -3.55554 116.328 -3.55554 79.9999C-3.55554 43.6719 33.8536 14.2222 80 14.2222C126.146 14.2222 163.556 43.6719 163.556 79.9999Z" fill="#21A36C"/>
</g>
</svg>
