<svg width="160" height="160" viewBox="0 0 160 160" fill="none" xmlns="http://www.w3.org/2000/svg">
<mask id="mask0" mask-type="alpha" maskUnits="userSpaceOnUse" x="7" y="44" width="134" height="72">
<path d="M81.1775 108.83C82.6434 109.093 84.369 109.004 85.9227 108.653C86.4405 108.565 86.5283 107.952 86.2701 107.689C87.7432 105.059 89.3896 102.078 90.3457 99.1855C90.9491 99.3605 91.553 99.3603 92.0704 99.4477C93.9679 99.6222 95.8656 99.7091 97.7641 99.4454C98.3682 99.3575 103.806 98.3912 102.343 96.8142C102.689 96.3758 102.518 95.7624 102.001 95.6749C99.5859 95.3253 97.1689 95.9398 94.7525 96.2913C93.6306 96.4671 92.4224 96.6429 91.2144 96.731C90.3517 96.7313 89.5753 96.7316 88.798 97.0825C88.4525 97.258 88.2789 97.6963 88.4506 98.0468C87.6696 99.8877 87.1473 101.816 86.5389 103.657C86.1045 104.884 85.4974 106.199 85.2353 107.514C83.8548 107.602 82.4732 108.129 81.2646 108.48C80.9193 108.567 81.0049 108.83 81.1775 108.83Z" fill="#540200"/>
<path d="M111.385 109.967C112.766 109.44 114.234 108.476 115.358 107.425C115.79 107.074 115.533 106.461 115.188 106.373C115.195 103.307 115.117 99.9784 114.521 97.0002C115.125 96.8248 115.643 96.5618 116.161 96.2987C117.887 95.5096 119.614 94.5453 121.083 93.4059C121.515 93.0553 125.835 89.4619 123.767 88.8495C123.855 88.3239 123.425 87.886 122.907 88.0615C120.663 89.026 118.848 90.7787 116.947 92.3563C115.997 93.0575 115.132 93.8463 114.096 94.5475C113.405 94.9858 112.628 95.3365 112.195 96.1251C111.936 96.4756 112.021 96.9136 112.365 97.0887C112.619 99.0158 113.132 101.03 113.558 102.87C113.814 104.184 113.983 105.585 114.325 106.812C113.202 107.601 112.25 108.74 111.3 109.704C111.127 109.879 111.299 110.054 111.385 109.967Z" fill="#540200"/>
<path d="M69.819 88.7553C69.6476 88.3171 69.2164 88.2296 68.7848 88.3175C67.0578 88.9317 65.6742 90.2471 64.0333 90.949C62.2198 91.6509 60.4065 92.2652 58.5074 92.7042C56.7808 93.1432 55.0536 93.8451 53.3277 94.0211C53.2414 94.0211 53.2416 93.9334 53.1554 93.9335C52.983 93.8459 52.8103 93.9336 52.7238 94.0213C52.4649 94.0214 52.4641 94.372 52.7229 94.3719C52.7229 94.3719 52.7229 94.3719 52.809 94.4595C52.895 94.5472 53.0671 94.7224 53.1532 94.81C50.7369 95.0739 48.4059 95.6884 45.904 95.6894C45.3 95.6896 44.9532 96.391 45.0382 96.9169C43.9139 98.0569 42.7032 99.1969 41.7512 100.424C41.2321 101.038 40.8855 101.652 40.2802 102.178C39.8478 102.617 39.4156 102.967 39.1555 103.493C38.8956 103.932 39.4115 104.633 39.93 104.282C41.4855 103.23 42.697 101.739 44.0806 100.424C45.0318 99.5466 46.0692 98.6696 46.762 97.6175C50.0394 98.0545 52.8869 97.8781 56.0818 96.7373C56.5988 97.0001 57.1158 97.2629 57.2023 97.1752C60.3097 96.5604 63.5064 94.7184 66.1852 92.9642C67.049 92.5256 70.5917 90.3329 69.819 88.7553Z" fill="#540200"/>
<path d="M57.7391 94.0453C60.8499 92.1154 64.8195 91.851 68.4417 92.5513C72.0639 93.2515 75.4254 94.7409 78.9601 95.9673C85.0808 98.2449 91.5482 99.821 98.1053 99.9942C104.662 100.167 112.601 99.8141 118.39 96.7435C125.301 92.9711 131.098 86.3056 134.739 79.2902C124.712 86.7461 108.749 86.9267 96.5887 84.7387C84.428 82.5507 72.7911 77.8199 60.6308 75.4566C63.8959 81.1546 62.84 89.7474 57.7391 94.0453Z" fill="#230403"/>
<path d="M82.3135 97.0908C82.4902 95.3388 82.3225 93.4993 82.0677 92.0103C81.6451 88.7694 80.2732 86.1421 78.0391 83.778C77.9534 83.6029 77.6944 83.7782 77.7801 83.9533C79.1527 86.3178 80.0936 89.0329 80.6037 91.7482C80.9442 93.4123 80.7679 94.9892 80.5917 96.566C81.1943 96.7409 81.7108 96.9159 82.3135 97.0908Z" fill="#540200"/>
<path d="M87.6201 84.128C87.4483 83.9529 87.1032 84.1282 87.2749 84.3909C89.1627 87.3682 90.62 90.2581 90.697 93.9369C90.7788 95.6887 90.3437 97.4407 89.7366 99.1052C90.081 99.1926 90.5115 99.2801 90.856 99.2799C91.3768 97.703 91.6396 95.9511 91.7292 94.5496C91.9107 90.8707 90.4571 86.4917 87.6201 84.128Z" fill="#540200"/>
<path d="M97.6302 85.7038C97.4581 85.6163 97.2854 85.7916 97.3711 85.9667C98.7426 88.7692 100.374 91.1336 100.882 94.3745C101.222 96.4767 100.959 98.3163 100.523 100.156C101.04 100.156 101.643 100.156 102.16 100.155C103.207 94.9866 101.501 88.2424 97.6302 85.7038Z" fill="#540200"/>
<path d="M110.19 99.4544C110.453 97.8775 110.543 96.3007 110.374 94.8117C110.038 91.3955 108.495 88.2427 106.089 85.8787C105.917 85.8788 105.744 85.8788 105.572 85.8789C107.633 88.5059 109.004 91.4836 109.254 94.8998C109.422 96.6516 109.16 98.2285 108.725 99.7179C109.156 99.6301 109.673 99.5422 110.19 99.4544Z" fill="#540200"/>
<path d="M119.866 96.0393C119.868 95.2509 119.784 94.5501 119.699 93.8494C119.276 90.8711 118.163 88.0683 116.359 85.7915C116.015 85.7917 115.756 85.8794 115.411 85.8796C116.956 88.3317 118.069 91.0469 118.406 94.0252C118.49 94.9888 118.574 95.9523 118.485 96.8284C118.917 96.5654 119.348 96.3024 119.866 96.0393Z" fill="#540200"/>
<path d="M127.908 89.2971C127.396 87.3699 126.452 85.5304 125.336 84.0415C124.991 84.1293 124.732 84.217 124.387 84.3048C125.16 85.3558 125.846 86.5821 126.274 87.8085C126.617 88.5969 126.787 89.473 126.957 90.2614C127.303 89.9984 127.562 89.6478 127.908 89.2971Z" fill="#540200"/>
<path d="M57.7288 94.0311C59.8874 92.7164 62.3027 92.1899 64.803 92.1889C68.0895 87.983 67.9349 80.7125 64.9271 76.6842C64.8414 76.5091 64.6691 76.4215 64.5834 76.2464C63.2047 75.8965 61.8259 75.6343 60.4471 75.372C63.8816 81.1521 62.826 89.7369 57.7288 94.0311Z" fill="#540200"/>
<path d="M100.971 90.7167C87.8567 90.5457 75.4449 85.2017 63.3779 80.0329C63.9023 77.2272 63.2192 74.2465 61.4125 72.0552C59.6058 69.8639 55.7248 69.1638 52.8775 69.1648C67.0408 63.7242 83.4427 60.2117 98.4526 61.5218C113.463 62.7442 128.376 68.3504 139.741 78.3415C127.99 85.5348 114.689 90.8874 100.971 90.7167Z" fill="url(#paint0_linear)"/>
<path d="M83.5288 95.2339C83.3573 94.7956 82.9261 94.7081 82.4945 94.796C80.7675 95.4102 79.3839 96.7256 77.743 97.4275C75.9295 98.1294 74.1162 98.7437 72.2171 99.1827C70.4905 99.6217 68.7633 100.324 67.0374 100.5C66.9511 100.5 66.9513 100.412 66.8651 100.412C66.6927 100.324 66.52 100.412 66.4335 100.5C66.1747 100.5 66.1738 100.851 66.4326 100.85C66.4326 100.85 66.4326 100.85 66.5187 100.938C66.6048 101.026 66.7769 101.201 66.8629 101.289C64.4466 101.552 62.1157 102.167 59.6137 102.168C59.0098 102.168 58.663 102.87 58.748 103.395C57.6236 104.535 56.413 105.675 55.4609 106.903C54.9418 107.517 54.5952 108.13 53.99 108.657C53.5575 109.095 53.1253 109.446 52.8652 109.972C52.6053 110.41 53.1212 111.111 53.6397 110.761C55.1952 109.708 56.4067 108.217 57.7904 106.902C58.7415 106.025 59.779 105.148 60.4717 104.096C63.7491 104.533 66.5966 104.357 69.7916 103.216C70.3086 103.479 70.8256 103.741 70.9121 103.654C74.0195 103.039 77.2161 101.197 79.8949 99.4427C80.759 98.9165 84.2151 96.8114 83.5288 95.2339Z" fill="#540200"/>
<path d="M121.459 115.302C120.512 114.426 119.394 113.375 118.275 112.675C118.537 111.361 118.626 109.959 118.716 108.645C118.979 106.717 119.329 104.702 119.42 102.775C119.68 102.512 119.767 102.074 119.509 101.723C118.993 101.023 118.218 100.76 117.529 100.322C116.496 99.7972 115.549 99.0968 114.516 98.3963C112.536 96.9954 110.643 95.4192 108.316 94.6317C107.799 94.4567 107.453 94.9825 107.538 95.4205C105.467 96.2098 110.029 99.4494 110.546 99.7997C112.095 100.85 113.904 101.638 115.627 102.251C116.144 102.426 116.747 102.688 117.351 102.776C116.912 105.842 117.162 109.171 117.327 112.237C116.896 112.325 116.722 112.938 117.152 113.289C118.357 114.252 119.907 115.04 121.372 115.477C121.458 115.652 121.545 115.477 121.459 115.302Z" fill="#540200"/>
<path d="M140.215 104.358C139.008 103.832 137.716 103.132 136.423 102.782C136.34 101.467 135.999 100.066 135.743 98.7512C135.403 96.8234 135.235 94.8079 134.809 92.8802C135.069 92.5296 134.897 92.0915 134.553 91.9164C133.864 91.4785 133.001 91.3036 132.225 91.2163C131.105 90.9539 129.984 90.6038 128.864 90.2537C126.536 89.5536 124.296 88.503 121.795 88.504C121.277 88.5043 121.017 89.1178 121.275 89.5558C119.546 90.9587 124.803 92.7091 125.407 92.8841C127.217 93.4092 129.114 93.6713 131.011 93.7581C131.529 93.7579 132.133 93.8453 132.737 93.7574C133.16 96.8243 134.36 99.8909 135.388 102.782C135.043 103.045 135.041 103.571 135.558 103.834C136.937 104.359 138.661 104.709 140.214 104.708C140.3 104.708 140.387 104.445 140.215 104.358Z" fill="#540200"/>
<path d="M73.4969 65.6582C74.0991 66.2713 74.7018 66.7092 75.3043 67.2347C75.9068 67.7602 76.4228 68.3734 77.0253 68.8989C77.1976 68.9865 77.3703 68.8988 77.2845 68.7236C76.5117 67.3218 75.0486 66.008 73.4973 65.4829C73.4973 65.4829 73.4971 65.5705 73.4969 65.6582Z" fill="#A84C38"/>
<path d="M76.6109 64.344C80.1409 66.6204 82.2026 69.8612 83.6589 73.8031C83.7447 73.9782 83.9174 73.8906 83.8316 73.7154C82.9792 69.6856 80.1416 66.3576 76.6973 64.2563C76.6111 64.2563 76.6109 64.344 76.6109 64.344Z" fill="#A84C38"/>
<path d="M79.0344 62.2415C83.6788 66.9701 86.4254 72.0498 87.9615 78.5316C87.9611 78.7068 88.2199 78.6191 88.2202 78.5315C87.6323 72.137 84.1987 65.9187 79.1209 62.1539C79.0348 62.0663 78.9484 62.154 79.0344 62.2415Z" fill="#A84C38"/>
<path d="M84.2128 62.8544C88.1682 67.3206 90.5705 72.2254 93.1442 77.5682C93.2299 77.7434 93.4888 77.6557 93.4895 77.3929C91.865 71.7869 88.3419 66.7949 84.3856 62.6791C84.2994 62.6792 84.1268 62.7668 84.2128 62.8544Z" fill="#A84C38"/>
<path d="M87.7517 62.3293C92.9156 66.2694 96.179 71.6119 97.284 78.0941C97.2838 78.1817 97.4562 78.1816 97.4564 78.094C96.869 71.524 93.3482 65.656 87.8384 62.1541C87.7526 61.9789 87.6657 62.2418 87.7517 62.3293Z" fill="#A84C38"/>
<path d="M93.1014 63.205C96.6256 67.5835 99.0298 71.612 100.137 77.3054C100.136 77.4806 100.481 77.4805 100.482 77.2177C100.15 71.962 97.5776 66.094 93.2743 63.0297C93.1018 63.0298 93.1016 63.1174 93.1014 63.205Z" fill="#A84C38"/>
<path d="M98.1949 63.1171C100.258 65.7441 102.148 68.2836 103.606 71.3488C105.064 74.414 105.401 77.6548 105.997 80.8956C105.996 81.0708 106.341 81.0706 106.342 80.8078C106.616 74.4134 103.1 66.9693 98.2816 62.9418C98.1954 62.9419 98.109 63.0295 98.1949 63.1171Z" fill="#A84C38"/>
<path d="M102.856 63.2049C107.156 67.5829 109.298 73.0129 109.8 79.1442C109.8 79.3194 109.972 79.3193 110.059 79.1441C110.16 73.0126 107.502 67.2324 103.029 63.0297C102.943 62.9421 102.77 63.1173 102.856 63.2049Z" fill="#A84C38"/>
<path d="M108.29 64.0812C110.867 67.7592 112.668 71.7002 113.778 76.0795C113.778 76.2547 114.036 76.167 114.037 75.9918C113.444 71.4371 111.558 67.3209 108.549 63.8183C108.463 63.7307 108.204 63.9936 108.29 64.0812Z" fill="#A84C38"/>
<path d="M62.3569 69.2594C69.9546 67.7665 77.1223 65.572 84.8908 64.8686C88.5161 64.5169 92.1406 64.5162 95.6787 64.6031C99.7345 64.69 103.96 65.9172 107.931 65.4777C108.276 65.4777 108.537 64.8636 108.105 64.6882C105.261 63.1976 101.809 63.1106 98.7031 62.8481C94.044 62.4105 89.3839 62.4115 84.8095 62.6756C77.2142 63.1158 68.6677 64.4334 61.756 67.856C60.9784 68.2947 61.5798 69.435 62.3569 69.2594Z" fill="#F4DBC0"/>
<path d="M57.0907 68.9769C62.2625 70.3768 64.1464 75.8966 64.3068 80.8037C64.3878 82.9068 63.6085 84.1339 63.2587 86.0619C63.8723 82.1183 62.1572 78.0881 59.231 75.4605C56.3049 72.8329 48.8837 74.1504 45.002 74.2397C46.298 73.3628 51.0507 69.8557 52.5185 69.2417C54.0726 68.6277 55.6252 68.627 57.0907 68.9769Z" fill="#290000"/>
<path d="M41.1129 78.5296C39.8129 81.0713 38.6846 83.8758 39.195 86.7672C39.7058 89.4834 41.6841 91.6732 44.0097 92.9867C46.3353 94.3001 49.0076 94.9123 51.6803 95.3494C54.4393 95.7863 57.4592 95.3469 59.7922 93.6811C64.7172 90.174 65.1708 81.1483 61.6458 76.5933C59.1527 73.2645 54.3271 71.4264 50.2715 72.1291C46.5609 72.8317 42.846 75.2867 41.1129 78.5296Z" fill="#1A0000"/>
<path d="M22.8917 44.9038C30.9112 45.251 37.9772 47.526 43.9137 53.2185C50.7106 59.6991 51.6379 68.2849 51.702 77.2215C51.7015 77.3967 51.96 77.4842 52.0469 77.2213C57.0051 60.1346 39.3697 42.4439 22.8923 44.641C22.7198 44.6411 22.7192 44.9039 22.8917 44.9038Z" fill="black"/>
<path d="M49.5513 75.906C42.343 59.7782 21.1338 53.5615 7.12911 65.0507C6.95613 65.226 7.21411 65.5766 7.38709 65.4012C22.3366 55.665 41.0492 59.6033 49.2057 76.0815C49.3776 76.3444 49.6369 76.169 49.5513 75.906Z" fill="black"/>
<path d="M53.711 76.2498C52.8468 76.9511 52.2402 78.0905 52.0649 79.2296C51.7145 81.4203 53.0884 83.8732 55.1566 84.5733C57.2247 85.361 59.8145 84.3961 60.9407 82.3803C62.0668 80.4522 61.5562 77.6485 59.8347 76.2472C58.1997 74.7583 55.4397 74.7595 53.711 76.2498Z" fill="white"/>
<path d="M53.7101 76.2498C52.846 76.951 52.2396 78.0902 52.0643 79.2291C51.714 81.4195 53.0877 83.8719 55.1555 84.572C55.414 84.6595 55.7587 84.7469 56.0174 84.7468C56.8813 84.1332 57.5731 83.3445 58.0926 82.4682C59.046 80.5404 58.8796 78.0874 57.6768 76.2482C57.4192 75.8102 57.0751 75.4599 56.7309 75.1972C55.61 75.1101 54.5744 75.461 53.7101 76.2498Z" fill="#95412E"/>
<path d="M59.7399 80.0151C60.0825 80.9788 59.5624 82.0305 58.6128 82.3814C57.6632 82.7323 56.6295 82.207 56.2869 81.2433C55.9443 80.2796 56.4644 79.2279 57.414 78.877C58.4499 78.5261 59.4835 79.0514 59.7399 80.0151Z" fill="white"/>
<path d="M39.0295 79.927C38.2516 80.6283 37.7317 81.5924 37.5566 82.6439C37.2066 84.6594 38.4949 86.8494 40.3907 87.5496C42.2864 88.2498 44.6173 87.3726 45.6569 85.5321C46.6962 83.7792 46.2712 81.2383 44.722 79.9246C43.0865 78.611 40.5853 78.612 39.0295 79.927Z" fill="white"/>
<path d="M39.0285 79.9269C38.2507 80.6281 37.7309 81.592 37.5559 82.6433C37.206 84.6585 38.494 86.8482 40.3895 87.5483C40.6479 87.6358 40.9064 87.7233 41.1651 87.7232C41.9425 87.1972 42.6341 86.496 43.0675 85.6198C43.9341 83.8673 43.7673 81.5895 42.7364 80.013C42.4785 79.6626 42.2207 79.3123 41.8764 79.0496C40.7556 78.9625 39.8064 79.2257 39.0285 79.9269Z" fill="#95412E"/>
<path d="M44.5414 83.429C44.798 84.3051 44.3643 85.2691 43.5012 85.5323C42.6381 85.7956 41.6904 85.3578 41.4338 84.4817C41.1773 83.6056 41.6109 82.6416 42.474 82.3784C43.2511 82.0275 44.1986 82.5529 44.5414 83.429Z" fill="white"/>
<path d="M62.4905 85.8802C62.8332 86.844 62.2266 87.9834 61.1907 88.3343C60.1548 88.6852 59.0348 88.1599 58.6922 87.1962C58.3496 86.2325 58.9562 85.0931 59.992 84.7422C61.0279 84.3912 62.1479 84.9165 62.4905 85.8802Z" fill="#FF9F4A"/>
<path d="M44.9613 89.3818C45.304 90.3455 44.6974 91.4849 43.6615 91.8358C42.6256 92.1868 41.5056 91.6615 41.163 90.6978C40.8204 89.734 41.427 88.5947 42.4629 88.2437C43.5852 87.8051 44.7052 88.3304 44.9613 89.3818Z" fill="#FF9F4A"/>
<path d="M51.6141 87.1059C51.6988 87.7193 51.3523 88.3329 50.6618 88.5085C50.3165 88.5963 49.9719 88.4211 49.7138 88.1583C49.4554 87.9832 49.4563 87.6326 49.1115 87.5451C48.9392 87.4576 48.6802 87.5453 48.5935 87.7206C48.4196 88.2465 48.8499 88.6845 49.1943 88.9473C49.1943 88.9473 49.1943 88.9473 49.2805 88.9472C49.7105 89.4729 50.5727 89.6478 51.0905 89.5599C52.2986 89.3842 52.8198 87.8941 52.5636 86.8426L52.5638 86.755C52.5638 86.755 52.5641 86.6673 52.4778 86.6674C52.3066 86.1416 51.5291 86.5801 51.6141 87.1059Z" fill="#95412E"/>
<path d="M42.7421 78.3558C42.9146 78.3557 43.0011 78.268 43.1738 78.1803C43.2603 78.0927 43.3465 78.0926 43.433 78.005C43.6057 77.9173 43.7783 77.9172 43.9512 77.7419C44.1241 77.5665 44.1248 77.3036 44.039 77.1284C43.9531 76.9532 43.7808 76.8657 43.6083 76.8657C43.2633 76.8659 43.0904 77.0412 42.831 77.3042C42.5716 77.5672 42.3984 77.8301 42.484 78.093C42.5698 78.2682 42.6559 78.3558 42.7421 78.3558Z" fill="#873427"/>
<path d="M54.9189 74.8501C54.3156 74.5873 53.626 74.3246 52.9351 74.5878C52.5033 74.7633 52.502 75.2893 52.933 75.4645C53.5363 75.7272 54.3134 75.464 54.918 75.2007C55.0908 75.113 55.0912 74.9377 54.9189 74.8501Z" fill="#873427"/>
</mask>
<g mask="url(#mask0)">
<ellipse cx="79.6667" cy="79.6665" rx="101" ry="69" fill="#21A36C"/>
</g>
<defs>
<linearGradient id="paint0_linear" x1="52.9094" y1="75.9787" x2="139.827" y2="76.1869" gradientUnits="userSpaceOnUse">
<stop stop-color="#330906"/>
<stop offset="0.2284" stop-color="#370906"/>
<stop offset="0.434" stop-color="#420906"/>
<stop offset="0.6308" stop-color="#540906"/>
<stop offset="0.8209" stop-color="#6D0906"/>
<stop offset="1" stop-color="#8D0906"/>
</linearGradient>
</defs>
</svg>
