<svg width="160" height="160" viewBox="0 0 160 160" fill="none" xmlns="http://www.w3.org/2000/svg">
<mask id="mask0" mask-type="alpha" maskUnits="userSpaceOnUse" x="19" y="49" width="119" height="65">
<path d="M137.385 113.116C124.408 114.853 111.012 111.803 100.157 104.669C94.4997 104.501 89.0206 103.033 84.0373 100.35C82.6979 99.6312 81.3809 98.8289 79.9291 98.5297C78.1371 98.2294 76.3242 98.6425 74.4769 98.8667C65.9997 100.011 56.9772 95.8856 52.6171 88.335C51.7452 88.7306 51.2013 88.8545 50.3053 88.7043C47.3792 88.19 44.555 87.613 41.7862 86.5115C39.1193 85.3475 36.0778 83.9932 34.5525 81.427C32.4789 81.8602 30.4054 82.2934 28.3647 82.286C26.2447 82.2573 24.1801 81.7041 22.6009 80.2921C19.9085 77.9526 19.3766 73.5852 20.6606 70.0638C21.7528 66.9405 24.2518 64.2841 27.2768 63.4766C30.3018 62.6691 33.8647 63.9833 35.3 66.8849C38.0568 62.9492 42.4961 60.9924 47.0179 60.3163C51.5966 59.7453 56.3161 61.1897 59.6453 64.329C63.4688 60.8589 68.4865 58.9672 73.4862 59.0484C78.4859 59.1296 83.2863 61.2249 86.8208 64.8687C92.652 61.8467 99.9081 62.0829 105.369 65.5239C110.83 68.9649 114.383 75.4002 114.524 82.1799C117.926 82.822 120.981 85.0788 122.689 88.2333C124.397 91.3877 124.6 95.3972 123.338 98.8347C130.627 98.6304 137.456 105.225 137.385 113.116Z" fill="url(#paint0_linear)"/>
<path d="M34.6507 56.2831C34.4199 54.6032 33.9839 52.4188 32.9037 51.0507C32.6415 50.4411 32.1755 49.9566 31.5177 49.8703C31.2795 49.8065 30.8945 49.973 30.8046 50.3084C30.7267 50.9168 30.8301 51.4839 31.2166 51.947C31.3305 52.1573 31.6256 52.3263 31.8639 52.3901C32.1021 52.454 32.2609 52.4965 32.4197 52.5391C32.6579 52.6029 32.9186 52.5829 33.0655 52.3525C35.2185 56.7049 34.0664 63.2281 33.4761 67.6544C33.4656 68.0112 33.8282 67.9286 33.9751 67.6982C35.259 64.1769 35.1811 60.0209 34.6507 56.2831Z" fill="#BA4B24"/>
<path d="M23.5471 54.207C23.625 53.5986 23.159 53.1142 22.7275 52.8188C22.4549 52.5659 22.1822 52.3131 21.8645 52.2279C21.5694 52.059 21.2188 52.4145 21.0495 52.7287C20.8023 53.6513 20.9416 55.037 21.7702 55.4388C21.8271 55.5439 21.8271 55.544 21.884 55.6491C22.0548 55.9645 22.395 55.9658 22.6212 55.7567C22.7455 55.6103 22.8699 55.4638 22.9148 55.296C23.1186 55.1709 23.2654 54.9405 23.3329 54.6889C24.5045 56.3513 25.5293 58.2439 26.2141 60.1354C26.9902 62.321 26.8598 64.7131 27.3753 66.9188C27.4097 67.1078 27.6704 67.0878 27.7154 66.92C28.4465 64.509 27.4756 61.4622 26.6201 59.2553C26.0372 57.3013 24.945 55.6602 23.5471 54.207Z" fill="#BA4B24"/>
<path d="M110.883 110.06C111.575 110.336 112.29 110.527 112.982 110.802C117.77 107.86 121.853 103.741 124.857 98.8823C124.279 98.8172 123.7 98.7522 123.1 98.771C123.212 98.3516 123.381 98.0374 123.494 97.6181C120.025 102.622 115.761 106.783 110.883 110.06Z" fill="#BA4B24"/>
<path d="M114.682 82.2224C114.523 82.1799 114.444 82.1586 114.285 82.116C114.294 81.1296 114.201 80.2058 114.029 79.2607C113.121 83.602 111.317 87.7931 108.923 91.6462C105.896 96.5884 101.722 100.414 97.8207 104.493C98.5578 104.6 99.3174 104.624 99.9977 104.626C100.134 104.753 100.293 104.795 100.429 104.922C104.489 100.886 108.072 96.0926 110.793 91.3382C112.577 88.4903 113.907 85.4308 114.682 82.2224Z" fill="#BA4B24"/>
<path d="M85.7073 63.9414C86.6527 70.5771 86.4311 77.4395 84.9389 83.9614C83.9291 88.3652 82.1252 92.5563 79.8673 96.5359C79.5287 97.1643 79.1107 97.7714 78.7721 98.3998C79.1122 98.4011 79.5318 98.4236 79.9288 98.53C80.167 98.5938 80.4052 98.6576 80.7229 98.7427C83.3193 94.1348 85.2116 88.9786 86.3457 84.4282C88.0192 77.865 87.9922 71.2956 86.7186 64.9315C86.3096 64.5523 85.98 64.1943 85.7073 63.9414Z" fill="#BA4B24"/>
<path d="M59.1342 64.0126C58.8615 63.7597 58.5663 63.5908 58.2937 63.3379C58.3386 67.9345 57.7828 72.5499 56.5917 76.995C55.3782 81.5241 53.2327 85.0843 50.9059 88.6858C51.4843 88.7508 51.9487 88.6056 52.5375 88.3139C52.5945 88.4191 52.6514 88.5242 52.7083 88.6294C54.9332 85.0905 56.4539 81.0033 57.5222 77.3342C58.9515 72.9529 59.3829 68.484 59.1342 64.0126Z" fill="#BA4B24"/>
<path d="M27.0817 76.9085C26.8106 77.2853 26.3011 77.5983 25.8022 77.5545C25.6434 77.512 25.4052 77.4481 25.2688 77.3217C25.1325 77.1953 25.0186 76.985 24.8823 76.8586L24.8254 76.7534C24.6546 76.438 24.247 76.6883 24.4178 77.0038C24.4748 77.1089 24.4748 77.1089 24.5317 77.2141C24.6576 77.6973 25.2254 78.1191 25.6224 78.2255C26.394 78.5221 27.2316 77.9375 27.5927 77.2252C27.762 76.911 27.251 76.5943 27.0817 76.9085Z" fill="#964740"/>
<path d="M30.2445 76.8565C29.0534 76.5373 28.1214 75.5685 27.8577 74.3292C27.5596 72.9009 28.1678 71.2661 29.3904 70.5149C30.2055 70.0142 31.1913 69.8289 32.1442 70.0842C32.6207 70.2119 32.9952 70.4021 33.3473 70.6763C34.4605 71.6038 34.907 73.4314 34.2868 74.7934C33.6665 76.1554 32.2402 77.0317 30.9022 76.9428C30.6415 76.9629 30.4827 76.9203 30.2445 76.8565Z" fill="white"/>
<path d="M31.9978 70.3149C32.3949 70.4212 32.7694 70.6115 33.1215 70.8856C34.1553 71.7919 34.5104 73.3253 33.9921 74.6247C33.4961 75.8402 32.1717 76.6539 30.9131 76.5864C30.7543 76.5438 30.573 76.5852 30.4142 76.5426C29.3819 76.266 28.5069 75.4023 28.2207 74.2469C27.957 73.0076 28.5204 71.5405 29.5841 70.7468C30.3198 70.2248 31.2038 70.1021 31.9978 70.3149ZM32.1776 69.6439C31.1453 69.3673 30.08 69.5313 29.1631 70.0947C27.8162 70.9922 27.163 72.7949 27.5181 74.3283C27.8387 75.6727 28.8276 76.7467 30.1775 77.1084C30.4157 77.1723 30.5745 77.2148 30.7558 77.1735C32.2526 77.3049 33.8827 76.3034 34.5479 74.7737C35.2131 73.2439 34.8116 71.2486 33.562 70.1946C33.1874 70.0044 32.7335 69.7928 32.1776 69.6439Z" fill="#BA4B24"/>
<path d="M29.2898 75.9716C29.8112 75.9315 30.2757 75.7863 30.7626 75.5572C31.7814 74.9313 32.4017 73.5693 32.2968 72.3726C32.2384 71.6378 31.9192 70.923 31.4758 70.3547C30.818 70.2684 30.0929 70.4336 29.561 70.8305C28.5197 71.5403 27.877 72.9861 28.1976 74.3305C28.301 74.8976 28.7445 75.4659 29.2898 75.9716Z" fill="#964740"/>
<path d="M22.0999 74.8545C20.9088 74.5354 19.9769 73.5665 19.7132 72.3273C19.415 70.899 20.0233 69.2641 21.2459 68.513C22.0609 68.0122 23.0468 67.8269 23.9997 68.0823C24.4761 68.2099 24.8507 68.4002 25.2028 68.6743C26.316 69.6019 26.7625 71.4294 26.1422 72.7914C25.522 74.1534 24.0956 75.0297 22.7577 74.9409C22.5195 74.8771 22.2588 74.8971 22.0999 74.8545Z" fill="white"/>
<path d="M23.8531 68.3124C24.2501 68.4188 24.6247 68.6091 24.9768 68.8832C26.0106 69.7894 26.3657 71.3229 25.8473 72.6223C25.3514 73.8378 24.0269 74.6515 22.7684 74.5839C22.6096 74.5414 22.4283 74.5827 22.2694 74.5402C21.2371 74.2636 20.3621 73.3999 20.076 72.2445C19.8123 71.0052 20.3756 69.5381 21.4394 68.7444C22.175 68.2224 23.059 68.0997 23.8531 68.3124ZM24.0328 67.6415C23.0005 67.3648 21.9353 67.5289 21.0183 68.0922C19.6714 68.9898 19.0182 70.7924 19.3733 72.3258C19.6939 73.6703 20.6828 74.7443 22.0327 75.106C22.271 75.1698 22.4298 75.2124 22.6111 75.1711C24.1078 75.3024 25.7379 74.3009 26.4031 72.7712C27.0684 71.2415 26.6668 69.2461 25.4172 68.1922C25.0427 68.0019 24.5887 67.7904 24.0328 67.6415Z" fill="#BA4B24"/>
<path d="M21.168 73.8857C21.6894 73.8456 22.1539 73.7004 22.6408 73.4713C23.6596 72.8453 24.2799 71.4833 24.175 70.2866C24.1166 69.5518 23.7974 68.8371 23.3539 68.2688C22.6962 68.1824 21.971 68.3477 21.4391 68.7445C20.3979 69.4544 19.7551 70.9002 20.0758 72.2446C20.1567 72.8955 20.6002 73.4638 21.168 73.8857Z" fill="#964740"/>
<path d="M35.463 78.3452C35.2832 79.0161 34.6719 79.3917 34.0367 79.2215C33.4014 79.0512 33.0598 78.4204 33.2396 77.7494C33.4194 77.0784 34.0306 76.7029 34.6659 76.8731C35.3012 77.0433 35.6428 77.6742 35.463 78.3452Z" fill="#F07483"/>
<path d="M23.6023 72.74C24.1724 72.8927 24.7654 72.5284 24.9268 71.9263C25.0881 71.3241 24.7567 70.7121 24.1866 70.5593C23.6165 70.4066 23.0235 70.7709 22.8621 71.373C22.7008 71.9752 23.0322 72.5872 23.6023 72.74Z" fill="white"/>
<path d="M31.668 74.7214C32.2381 74.8742 32.8311 74.5099 32.9924 73.9077C33.1538 73.3055 32.8224 72.6935 32.2523 72.5408C31.6821 72.388 31.0892 72.7523 30.9278 73.3545C30.7665 73.9567 31.0978 74.5686 31.668 74.7214Z" fill="white"/>
<path d="M24.0522 66.2985C23.7915 66.3185 23.6102 66.3598 23.384 66.5689C22.9315 66.987 23.4889 67.7656 23.9983 67.4526C24.7579 67.4764 24.8118 66.3222 24.0522 66.2985Z" fill="#964740"/>
<path d="M32.2657 68.679C32.1069 68.6364 32.0499 68.5313 31.993 68.4261C31.6963 67.6275 30.6775 68.2535 31.178 68.9269C31.3712 69.1585 31.6664 69.3274 31.984 69.4126C32.4035 69.4351 32.7197 68.8905 32.2657 68.679Z" fill="#964740"/>
<path d="M36.288 67.9589C37.8297 72.6869 37.659 77.1358 34.676 81.2806C34.5291 81.5109 34.8812 81.785 35.0281 81.5547C37.9781 77.8505 39.0523 71.9358 36.4693 67.9176C36.3104 67.875 36.231 67.8538 36.288 67.9589Z" fill="#BA4B24"/>
<path d="M28.2023 66.6911C28.1663 65.8725 28.0509 65.0325 28.0944 64.2351C28.0584 63.4165 28.2831 62.5777 28.406 61.8016C28.4509 61.6339 28.1902 61.6539 28.1678 61.7378C27.3437 63.225 27.3827 65.3029 28.1004 66.7537C28.1004 66.7537 28.2817 66.7124 28.2023 66.6911Z" fill="#964740"/>
<path d="M29.3678 65.8347C29.5926 64.996 29.6585 64.1147 29.9057 63.1921C30.1754 62.1857 30.6608 61.3269 31.0099 60.3417C31.0324 60.2579 30.896 60.1314 30.8735 60.2153C29.5161 61.4697 28.8195 64.0697 29.209 65.7921C29.1865 65.876 29.3454 65.9186 29.3678 65.8347Z" fill="#964740"/>
<path d="M119.599 100.08C117.293 102.968 114.794 105.625 112.079 108.133C111.977 108.196 112.114 108.322 112.216 108.26C115.238 106.193 117.645 103.242 119.815 100.228C119.837 100.144 119.621 99.9964 119.599 100.08Z" fill="#5B1412"/>
<path d="M123.817 104.986C123.839 104.902 123.76 104.881 123.681 104.86C121.226 107.348 118.954 109.796 115.863 111.484C115.783 111.463 115.84 111.568 115.818 111.652C115.897 111.673 115.977 111.695 116.056 111.716C119.319 110.972 122.077 107.666 123.817 104.986Z" fill="#5B1412"/>
<path d="M124.574 113.279C124.733 113.322 124.994 113.302 125.152 113.344C128.558 110.481 131.27 106.713 132.438 102.352C132.381 102.247 132.223 102.204 132.166 102.099C130.351 106.647 127.854 109.933 124.574 113.279Z" fill="#BA4B24"/>
<path d="M102.575 106.126C102.654 106.147 102.654 106.147 102.711 106.252C104.578 104.685 106.092 102.843 107.573 100.813C109.302 98.4896 110.19 95.4915 112.328 93.5473C112.351 93.4635 112.271 93.4422 112.271 93.4422C110.551 94.7792 109.513 96.7483 108.497 98.6335C106.894 101.44 104.723 103.825 102.575 106.126Z" fill="#5B1412"/>
<path d="M96.4032 104.383C101.664 99.6796 106.104 93.5881 107.89 86.6056C107.913 86.5217 107.754 86.4791 107.731 86.563C105.447 93.5018 101.289 99.4893 95.9837 104.36C96.0856 104.298 96.2444 104.34 96.4032 104.383Z" fill="#5B1412"/>
<path d="M82.663 80.3849C80.7617 86.5275 78.411 94.3476 73.5357 98.8842C73.717 98.8429 73.8758 98.8855 73.9777 98.8229C75.6857 97.213 76.8708 95.0136 78.0334 92.898C80.3707 88.9397 81.7446 85.0829 82.663 80.3849C82.7424 80.4062 82.663 80.3849 82.663 80.3849Z" fill="#5B1412"/>
<path d="M52.3362 70.6408C52.2688 75.6567 51.3834 84.6785 46.4242 87.3049C46.2204 87.4301 46.3688 87.8294 46.6519 87.7255C51.713 85.0365 52.7228 75.8683 52.495 70.6834C52.4381 70.5782 52.3362 70.6408 52.3362 70.6408Z" fill="#5B1412"/>
<path d="M47.1959 78.073C47.2184 77.9891 47.0595 77.9466 47.0146 78.1143C46.9622 79.8981 46.6146 81.5129 45.9269 83.1265C45.3066 84.4885 44.3118 85.6602 43.5552 86.8958C43.5327 86.9796 43.5896 87.0848 43.6915 87.0222C46.1352 84.8903 47.2603 81.3264 47.1959 78.073Z" fill="#BA4B24"/>
<path d="M54.437 91.0701C56.5166 88.3912 57.9833 85.4582 59.1205 82.1672C59.8861 79.9452 60.4359 77.5755 60.8045 75.2472C61.0951 73.5272 60.728 71.7209 61.1206 69.9383C60.1527 72.9151 60.4554 76.2323 59.6239 79.3356C58.4778 83.613 56.7518 87.1957 54.2662 90.7547C54.3231 90.8598 54.3801 90.965 54.437 91.0701Z" fill="#5B1412"/>
<path d="M82.9358 99.6952C88.9423 94.1132 88.4178 83.3654 90.1917 76.1099C90.2141 76.026 90.0553 75.9835 90.0328 76.0673C87.6477 83.6984 88.5437 93.3772 82.5612 99.505C82.6182 99.6101 82.777 99.6527 82.9358 99.6952Z" fill="#5B1412"/>
<path d="M135.394 105.931C135.338 105.826 135.338 105.826 135.281 105.721C134.109 108.823 132.936 111.295 130.708 113.574C130.889 113.533 131.127 113.597 131.309 113.556C133.469 111.528 134.687 108.888 135.394 105.931Z" fill="#5B1412"/>
<path d="M39.1084 66.6467C41.2359 65.0594 43.4998 63.5984 45.7757 62.4104C45.9569 62.3691 45.8431 62.1588 45.6843 62.1162C42.908 62.6308 40.6666 64.0079 38.8013 66.2049C38.632 66.5191 38.8822 66.8558 39.1084 66.6467Z" fill="#5B1412"/>
<path d="M52.0771 61.7616C54.1522 61.958 55.9111 62.699 57.8514 63.3987C58.0896 63.4625 58.1795 63.1271 58.0432 63.0006C56.2947 61.9029 54.1626 61.6013 52.0995 61.6777C51.9407 61.6352 51.9977 61.7403 52.0771 61.7616Z" fill="#BA4B24"/>
<path d="M64.0333 64.7857C63.9524 64.1348 63.1583 63.922 62.6264 64.3188C62.0945 64.7157 62.2893 65.5769 62.9695 65.5794C63.0489 65.6006 63.1283 65.6219 63.2302 65.5593C63.6273 65.6657 64.0797 65.2476 64.0333 64.7857Z" fill="#5B1412"/>
<path d="M49.5933 65.9506C49.6727 65.9719 49.6727 65.9719 49.5933 65.9506C49.854 65.9306 49.854 65.9306 49.5933 65.9506Z" fill="#5B1412"/>
<path d="M50.4216 66.3524C50.3302 66.0583 50.0126 65.9732 49.7744 65.9093C49.6155 65.8668 49.2754 65.8655 49.253 65.9494C49.1511 66.012 49.0492 66.0746 48.9473 66.1372C49.1511 66.012 48.9698 66.0533 48.9473 66.1372C48.8454 66.1998 48.6866 66.1572 48.6072 66.1359C48.5278 66.1147 48.5278 66.1147 48.5278 66.1147C48.6866 66.1572 48.369 66.0721 48.2671 66.1347C48.357 65.7992 48.5263 65.485 48.8095 65.3811C48.9114 65.3185 48.9338 65.2346 48.8769 65.1295C48.3884 64.7289 47.5839 64.8729 47.1314 65.291C46.4527 65.9182 46.3418 66.9672 46.9442 67.5781C47.4671 68.1676 48.2611 68.3804 49.0432 68.3203C49.4058 68.2377 49.7684 68.155 50.1534 67.9885C50.504 67.633 50.6044 66.9408 50.4216 66.3524Z" fill="#5B1412"/>
<path d="M57.116 63.9213C57.0021 63.711 56.8088 63.4794 56.5931 63.3317C56.1391 63.1202 55.5608 63.0551 55.0394 63.0952C54.3367 63.1766 53.8168 63.8463 53.9771 64.5185C54.0805 65.0856 54.4895 65.4648 54.921 65.7602C55.375 65.9718 56.0672 66.2472 56.5541 66.0181C56.9392 65.8515 57.2673 65.5799 57.4021 65.0767C57.5145 64.6573 57.3662 64.258 57.116 63.9213Z" fill="#5B1412"/>
<path d="M71.7674 65.7795C71.5606 64.6454 70.0743 64.1572 69.1214 63.9019C68.0667 63.7091 66.7287 63.6203 65.9377 64.6669C64.9773 66.0276 65.683 67.2055 66.9086 67.7137C67.5213 67.9678 68.4967 68.1392 69.3013 67.9952C70.7411 68.0215 72.0775 67.4806 71.7674 65.7795Z" fill="#5B1412"/>
<path d="M76.7218 61.2641C75.6655 60.4417 73.8961 60.0575 72.7304 60.9137C72.0967 61.3732 71.6337 62.148 71.9529 62.8628C72.1926 63.5563 72.681 63.9568 73.2938 64.2109C73.3732 64.2322 73.532 64.2748 73.6114 64.296C74.6557 64.8455 75.9937 64.9344 76.8537 64.2659C78.0763 63.5147 77.6193 62.0439 76.7218 61.2641Z" fill="#5B1412"/>
<path d="M81.1658 65.9605C81.1748 64.9741 79.9492 64.4659 79.3274 65.1982C78.8076 65.868 79.1612 66.7717 80.0002 66.8168C80.2384 66.8806 80.5216 66.7767 80.6684 66.5463C80.589 66.5251 80.4871 66.5877 80.4871 66.5877C80.589 66.5251 80.6684 66.5463 80.6684 66.5463C80.9066 66.6102 81.1329 66.4011 81.1658 65.9605Z" fill="#5B1412"/>
<path d="M84.155 69.0988C83.7804 68.9085 83.2815 68.8647 82.8964 69.0312C82.6013 68.8623 82.2836 68.7772 81.9435 68.7759C81.4446 68.7321 80.8558 69.0238 80.5621 69.4845C80.246 70.029 80.3044 70.7638 80.5891 71.2896C81.0446 72.1308 82.3721 72.5764 83.2111 72.6214C84.0501 72.6664 84.6719 71.9341 84.9535 71.2005C85.3596 70.3205 84.7453 69.4368 84.155 69.0988Z" fill="#5B1412"/>
<path d="M75.8468 69.9287C75.5052 69.2978 74.6662 69.2527 74.1912 69.7547C74.0669 69.9012 73.9201 70.1315 73.8526 70.3832C73.6848 71.327 74.446 71.9804 75.318 71.5848C75.1367 71.6261 75.1142 71.71 75.2161 71.6474C75.8843 71.377 76.2109 70.4757 75.8468 69.9287Z" fill="#5B1412"/>
<path d="M83.945 66.705C83.7517 66.4735 83.5704 66.5148 83.2528 66.4297C82.8557 66.3233 82.3808 66.8253 82.6085 67.2459C82.8363 67.6665 83.1314 67.8354 83.5734 67.7741C84.1173 67.6501 84.297 66.9792 83.945 66.705Z" fill="#5B1412"/>
<path d="M65.3593 69.3661C65.109 69.0294 64.8139 68.8604 64.3719 68.9218C63.5898 68.9819 63.6153 70.1573 64.3749 70.1811C64.5562 70.1398 64.6581 70.0772 64.8738 70.2249C65.3503 70.3525 65.6664 69.808 65.3593 69.3661Z" fill="#5B1412"/>
<path d="M79.858 73.7002C79.7786 73.679 79.7786 73.679 79.6992 73.6577L79.6198 73.6364C79.6198 73.6364 79.6198 73.6364 79.5404 73.6151C79.3816 73.5726 79.2227 73.53 78.9845 73.4662C78.3837 73.485 78.159 74.3237 78.6474 74.7243C78.9426 74.8933 79.2602 74.9784 79.6228 74.8957C80.2685 74.7092 80.2895 73.9957 79.858 73.7002Z" fill="#5B1412"/>
<path d="M72.7547 70.9878C72.2093 70.4821 71.619 70.1442 70.9058 70.5823C70.5208 70.7488 70.3635 71.3359 70.5912 71.7565C70.7051 71.9668 70.7845 71.9881 70.9208 72.1145C71.3868 72.5989 72.2258 72.644 72.7232 72.0581C72.9944 71.6813 73.1068 71.262 72.7547 70.9878Z" fill="#5B1412"/>
<path d="M98.3481 68.8564C97.8013 67.721 96.4963 67.1916 95.407 66.8098C94.3972 66.4493 92.9679 66.0663 91.9266 66.7761C90.5347 67.8415 91.2299 69.3762 92.2862 70.1985C93.0698 70.7681 94.4092 71.4866 95.3831 71.0284C95.7802 71.1347 96.1997 71.1573 96.6192 71.1798C97.9571 71.2686 98.952 70.0969 98.3481 68.8564Z" fill="#5B1412"/>
<path d="M104.347 69.6551C104.209 68.899 103.346 68.3082 102.554 68.7251C102.372 68.7664 102.248 68.9128 102.124 69.0593C101.853 69.4361 101.82 69.8767 102.07 70.2135C102.377 70.6553 102.91 70.8882 103.432 70.8481C104.089 70.9344 104.428 70.306 104.347 69.6551Z" fill="#5B1412"/>
<path d="M108.243 72.5863C108.106 72.4599 107.845 72.4799 107.642 72.6051C107.562 72.5839 107.562 72.5839 107.46 72.6465C107.279 72.6878 107.155 72.8342 107.189 73.0233C107.201 73.2961 107.236 73.4852 107.451 73.6329C107.588 73.7593 107.826 73.8231 107.928 73.7605C108.109 73.7192 108.211 73.6566 108.335 73.5102C108.664 73.2385 108.617 72.7766 108.243 72.5863Z" fill="#5B1412"/>
<path d="M105.601 72.5979C104.885 71.7767 103.57 71.604 102.71 72.2725C101.872 72.8571 101.58 73.9475 102.013 74.8725C102.104 75.1667 102.298 75.3983 102.593 75.5672C103.275 76.1994 104.034 76.2231 104.827 75.8063C105.11 75.7023 105.257 75.472 105.404 75.2417L105.505 75.1791C105.789 75.0752 105.992 74.95 106.06 74.6984C106.523 73.9235 106.124 73.1874 105.601 72.5979Z" fill="#5B1412"/>
<path d="M110.52 76.7922C110.315 76.2877 109.657 76.2014 109.17 76.4305C108.049 77.119 108.96 78.8014 110.058 78.1967C109.979 78.1754 109.957 78.2593 109.877 78.238C110.545 77.9676 110.805 77.3179 110.52 76.7922Z" fill="#5B1412"/>
<path d="M118.448 87.5463C118.412 86.7276 117.889 86.138 117.219 85.7788C116.391 85.377 115.576 85.8778 115.487 86.8429C115.409 87.4513 115.739 87.8093 116.193 88.0208L116.25 88.126C116.602 88.4001 117.078 88.5278 117.6 88.4877C118.042 88.4263 118.551 88.1134 118.448 87.5463Z" fill="#5B1412"/>
<path d="M120.696 89.3172C120.696 89.3172 120.719 89.2334 120.696 89.3172C120.503 89.0857 120.106 88.9793 119.845 88.9993C119.664 89.0406 119.54 89.1871 119.415 89.3335L119.313 89.3961C118.985 89.6678 118.85 90.171 119.282 90.4664C119.441 90.509 119.498 90.6141 119.656 90.6567C119.952 90.8257 120.394 90.7643 120.62 90.5553C120.993 90.1159 120.946 89.654 120.696 89.3172Z" fill="#5B1412"/>
<path d="M121.691 92.9098C121.282 92.5306 120.726 92.3816 120.217 92.6946C120.013 92.8198 119.889 92.9662 119.821 93.2179C119.55 93.5947 119.517 94.0353 119.767 94.372C120.017 94.7087 120.313 94.8777 120.71 94.9841C121.084 95.1744 121.594 94.8614 121.785 94.4633C122 93.9814 122.078 93.373 121.691 92.9098Z" fill="#5B1412"/>
<path d="M118.115 90.6931C117.48 90.5229 117.21 91.5293 117.845 91.6995C118.48 91.8698 118.75 90.8633 118.115 90.6931Z" fill="#5B1412"/>
<path d="M127.672 100.445C127.218 100.234 126.709 100.547 126.415 101.008C126.12 100.839 125.859 100.859 125.531 101.13C125.327 101.255 125.158 101.57 125.272 101.78C125.546 102.662 126.727 103.338 127.566 103.383C128.167 103.365 128.698 102.968 128.878 102.297C128.944 101.416 128.444 100.742 127.672 100.445Z" fill="#5B1412"/>
<path d="M115.303 99.9178C115.358 99.3933 115.255 98.8262 114.925 98.4682C114.539 98.0051 113.836 98.0865 113.27 98.2943L113.247 98.3782C113.689 98.3168 114.29 98.298 114.518 98.7186C114.689 99.0341 114.758 99.4121 114.668 99.7476C114.578 100.083 114.488 100.419 114.262 100.628C114.013 100.921 113.683 100.563 113.445 100.499C113.286 100.456 113.139 100.687 113.196 100.792C113.402 101.296 114.059 101.382 114.546 101.153C114.954 100.903 115.27 100.358 115.303 99.9178Z" fill="#5B1412"/>
<path d="M95.2259 81.1441C95.2694 80.3467 94.3045 79.8185 93.6587 80.005L93.6362 80.0889C94.0558 80.1114 94.8843 80.5132 94.5682 81.0577C94.5457 81.1416 94.2505 80.9726 94.1711 80.9513C93.876 80.7824 93.7171 80.7398 93.3546 80.8224C93.1508 80.9476 93.004 81.178 93.1179 81.3883C93.425 81.8301 93.822 81.9365 94.3434 81.8964C94.8424 81.9402 95.1705 81.6686 95.2259 81.1441Z" fill="#5B1412"/>
<path d="M64.8471 73.184C64.6763 72.8685 64.0185 72.7822 63.7009 72.6971C63.5421 72.6545 63.3833 72.612 63.3263 72.5068C63.2125 72.2965 63.4956 72.1926 63.5975 72.13C63.8013 72.0048 63.8118 71.6481 63.5511 71.6681C62.769 71.7282 62.4304 72.3566 62.6701 73.0501C62.8184 73.4494 63.193 73.6397 63.5106 73.7248C63.7489 73.7886 64.4066 73.875 64.7122 73.6872C64.8935 73.6459 64.9609 73.3943 64.8471 73.184Z" fill="#5B1412"/>
<path d="M83.124 74.2158C83.0446 74.1945 82.9427 74.2571 83.0221 74.2784C83.136 74.4887 83.4087 74.7415 83.3412 74.9931C83.2963 75.1609 83.0131 75.2648 82.8318 75.3061C82.3674 75.4513 81.8909 75.3237 81.4939 75.2173C81.1763 75.1322 81.0189 75.7193 81.3366 75.8044C81.8924 75.9533 82.6745 75.8932 83.2064 75.4964C83.8746 75.226 83.533 74.5951 83.124 74.2158Z" fill="#5B1412"/>
<path d="M75.3394 75.6359C75.3049 75.4469 75.248 75.3418 75.0891 75.2992C74.8509 75.2354 74.2846 75.4432 73.922 75.5258C73.5594 75.6084 72.7549 75.7524 72.8552 75.0602C72.8777 74.9763 72.7983 74.955 72.6964 75.0176C71.9173 76.3371 75.3199 76.9791 75.3394 75.6359Z" fill="#5B1412"/>
<path d="M95.4116 73.4633C95.2992 73.8826 94.1651 73.6686 93.8249 73.6674C93.326 73.6236 92.09 73.4722 92.0315 72.7374C92.054 72.6535 91.8952 72.6109 91.8727 72.6948C91.7049 73.6387 92.9874 74.252 93.6002 74.5061C94.5082 74.9292 96.1068 74.998 96.3645 73.7186C96.5668 72.9638 95.5345 72.6872 95.4116 73.4633Z" fill="#5B1412"/>
<path d="M126.563 106.171C126.347 106.024 126.256 105.729 126.018 105.666C125.938 105.644 125.938 105.644 125.859 105.623C125.859 105.623 125.859 105.623 125.881 105.539C126.096 105.057 125.607 104.657 125.257 105.012C124.906 105.368 124.771 105.871 124.999 106.291C125.261 106.901 125.862 106.882 126.406 106.758C126.587 106.717 126.677 106.382 126.563 106.171Z" fill="#5B1412"/>
<path d="M51.5227 62.2425C51.295 61.8219 50.5683 61.3575 50.2297 61.9859C50.2072 62.0698 50.2867 62.091 50.2867 62.091C50.4679 62.0497 50.6837 62.1974 50.82 62.3238C50.7182 62.3864 50.5938 62.5329 50.6507 62.6381C50.6283 62.7219 50.6852 62.8271 50.7646 62.8484C50.8215 62.9535 50.9804 62.996 51.1841 62.8709C51.286 62.8083 51.4104 62.6618 51.5122 62.5992C51.5347 62.5153 51.5797 62.3476 51.5227 62.2425Z" fill="#5B1412"/>
<path d="M45.8236 63.5022C45.7442 63.481 45.5509 63.2494 45.4715 63.2281C44.9037 62.8063 44.2594 63.6225 44.5216 64.2321L44.5786 64.3372C44.6924 64.5475 44.9082 64.6952 45.1689 64.6752C45.4071 64.739 45.7128 64.5513 45.8371 64.4048C46.1877 64.0493 46.1188 63.6712 45.8236 63.5022Z" fill="#5B1412"/>
<path d="M62.3195 63.877C63.8822 63.1271 65.331 62.1669 66.9281 61.606C68.5253 61.0452 70.2932 60.7997 71.9368 60.7008C72.1975 60.6807 72.208 60.324 71.9698 60.2601C68.6586 59.9123 64.444 61.0303 62.1832 63.7505C62.0813 63.8131 62.2176 63.9396 62.3195 63.877Z" fill="#5B1412"/>
<path d="M80.0692 62.4306C80.5127 62.9989 81.3862 63.233 81.9765 63.571C82.7601 64.1405 83.5213 64.7939 84.3498 65.1957C84.645 65.3647 84.8937 65.0717 84.8023 64.7776C84.4262 63.9577 83.6082 63.1991 82.859 62.8186C82.1893 62.4593 80.9637 61.9512 80.2161 62.2003C80.0348 62.2416 79.9898 62.4094 80.0692 62.4306Z" fill="#BA4B24"/>
<path d="M88.1493 65.9437C90.6874 65.3653 93.2254 64.7868 95.8444 64.8593C99.223 64.9556 101.857 66.5603 104.797 67.9772C105.012 68.1249 105.283 67.7481 105.068 67.6004C101.112 63.3044 92.9707 62.5611 88.0924 65.8385C88.013 65.8173 88.0699 65.9224 88.1493 65.9437Z" fill="#5B1412"/>
<path d="M109.055 70.8264C110.18 72.0268 110.955 73.5827 111.672 75.0335C111.764 75.3277 112.171 75.0773 112.159 74.8045C111.69 73.0607 110.61 71.6926 109.304 70.5334C109.065 70.4696 108.919 70.6999 109.055 70.8264Z" fill="#BA4B24"/>
<path d="M118.691 85.3642C119.396 85.9125 119.998 86.5233 120.374 87.3432C120.693 88.058 120.91 88.8354 121.229 89.5501C121.343 89.7604 121.683 89.7617 121.751 89.5101C122.188 87.5597 120.381 85.7272 118.861 85.05C118.724 84.9236 118.555 85.2378 118.691 85.3642Z" fill="#BA4B24"/>
<path d="M25.3315 65.6524C25.6597 65.3808 26.1466 65.1517 26.202 64.6272C26.247 64.4594 26.1106 64.333 25.9293 64.3743C25.4874 64.4357 25.1937 64.8963 24.9225 65.2731C24.6963 65.4822 25.0259 65.8402 25.3315 65.6524Z" fill="#964740"/>
<path d="M30.8964 64.8958C31.7024 65.3815 32.543 66.0562 33.2247 66.6883C33.9064 67.3205 34.3619 68.1616 34.8623 68.8351C34.9762 69.0454 35.2818 68.8576 35.2698 68.5847C34.8113 66.4842 32.8921 65.071 30.9638 64.6442C30.8619 64.7068 30.817 64.8746 30.8964 64.8958Z" fill="#964740"/>
<path d="M31.0776 50.5615C31.169 50.8557 31.1585 51.2125 31.2499 51.5066C31.3413 51.8008 31.2739 52.0524 31.569 52.2214C31.6485 52.2427 31.8073 52.2852 31.8522 52.1175C31.999 51.8872 31.9646 51.6981 31.8507 51.4878C31.7818 51.1098 31.611 50.7944 31.5421 50.4163C31.3488 50.1847 30.9862 50.2674 31.0776 50.5615Z" fill="#964740"/>
<path d="M20.9718 53.3372C21.0408 53.7152 21.3614 55.0596 21.3959 55.2487C21.4303 55.4377 21.6461 55.5854 21.7824 55.7118C21.9188 55.8382 22.1225 55.713 22.1675 55.5453C22.2798 55.1259 22.1884 54.8318 22.0401 54.4325C21.8918 54.0331 21.7434 53.6338 21.5951 53.2345C21.4917 52.6675 20.846 52.854 20.9718 53.3372Z" fill="#964740"/>
</mask>
<g mask="url(#mask0)">
<ellipse cx="77" cy="81" rx="95" ry="43" fill="#21A36C"/>
</g>
<defs>
<linearGradient id="paint0_linear" x1="72.5375" y1="119.722" x2="100.812" y2="-8.22654" gradientUnits="userSpaceOnUse">
<stop stop-color="#FFBD8E"/>
<stop offset="0.1151" stop-color="#FBB789"/>
<stop offset="0.2719" stop-color="#F0A57C"/>
<stop offset="0.4528" stop-color="#DE8966"/>
<stop offset="0.6515" stop-color="#C56148"/>
<stop offset="0.8625" stop-color="#A42E22"/>
<stop offset="1" stop-color="#8D0906"/>
</linearGradient>
</defs>
</svg>
