<svg width="28" height="28" viewBox="0 0 28 28" fill="none" xmlns="http://www.w3.org/2000/svg">
<path d="M14 0C6.28015 0 0 6.28015 0 14C0 21.7199 6.28015 28 14 28C21.7199 28 28 21.7199 28 14C28 6.28015 21.7199 0 14 0ZM18.3249 14.8249L12.4915 20.6581C12.264 20.8856 11.9654 21 11.6666 21C11.368 21 11.0693 20.8856 10.8418 20.6581C10.3856 20.202 10.3856 19.4646 10.8418 19.0085L15.8504 14L10.8419 8.9915C10.3857 8.53535 10.3857 7.798 10.8419 7.34185C11.298 6.8857 12.0354 6.8857 12.4915 7.34185L18.3249 13.1752C18.781 13.6314 18.781 14.3686 18.3249 14.8249Z" fill="#24AE2A"/>
</svg>
