<svg width="28" height="28" viewBox="0 0 28 28" fill="none" xmlns="http://www.w3.org/2000/svg">
<path d="M14 28C21.7199 28 28 21.7199 28 14C28 6.28015 21.7199 -5.49028e-07 14 -1.22392e-06C6.28015 -1.89881e-06 1.89881e-06 6.28015 1.22392e-06 14C5.49028e-07 21.7198 6.28015 28 14 28ZM9.67515 13.1751L15.5085 7.34185C15.736 7.11435 16.0347 7 16.3334 7C16.632 7 16.9307 7.11435 17.1582 7.34185C17.6144 7.798 17.6144 8.53535 17.1582 8.9915L12.1496 14L17.1581 19.0085C17.6143 19.4646 17.6143 20.202 17.1581 20.6581C16.702 21.1143 15.9646 21.1143 15.5085 20.6581L9.67515 14.8248C9.219 14.3686 9.219 13.6313 9.67515 13.1751Z" fill="#24AE2A"/>
</svg>
