<svg width="340" height="340" viewBox="0 0 340 340" fill="none" xmlns="http://www.w3.org/2000/svg">
<path d="M141.881 238.686C131.978 236.38 116.864 231.56 100.811 221.082C84.4462 210.289 73.814 197.925 67.6641 189.542L80.9022 180.216C85.2801 185.351 90.3877 190.799 96.4335 196.039C114.154 211.547 132.499 220.034 146.154 224.854C144.695 229.569 143.236 234.075 141.881 238.686Z" fill="url(#paint0_linear)"/>
<path d="M144.383 243.086L141.047 242.353C126.037 238.79 111.756 232.713 98.8311 224.225C85.593 215.528 74.1269 204.631 64.7456 191.847L62.5566 188.808L81.5278 175.396L83.7167 177.911C88.4074 183.464 93.515 188.599 98.8311 193.419C112.903 205.679 129.164 215.214 147.301 221.501L150.637 222.654L144.383 243.086ZM72.8761 190.38C81.3193 201.173 91.4303 210.499 102.896 218.043C114.154 225.483 126.454 230.931 139.484 234.389L141.672 227.264C123.952 220.663 108.004 211.127 94.0362 198.972C89.2413 194.676 84.5506 190.171 80.2769 185.246L72.8761 190.38Z" fill="black"/>
<path d="M191.914 241.305C201.608 238.162 216.201 231.979 231.315 220.139C246.742 207.984 256.228 194.781 261.648 185.875L247.681 177.806C243.824 183.255 239.133 189.123 233.609 194.991C217.348 211.966 199.732 222.025 186.598 227.998C188.37 232.399 190.142 236.904 191.914 241.305Z" fill="url(#paint1_linear)"/>
<path d="M187.327 247.278L179.301 227.474L182.532 226.007C200.044 218.148 215.575 207.25 228.501 193.838C233.504 188.704 238.09 183.045 242.26 177.073L244.136 174.348L264.254 185.979L262.273 189.227C254.039 202.849 243.511 214.69 231.107 224.435C218.911 233.97 205.36 241.305 190.663 246.125L187.327 247.278ZM188.682 231.351L191.497 238.266C204.109 233.761 215.888 227.159 226.52 218.881C237.257 210.394 246.534 200.23 254.039 188.808L246.221 184.303C242.364 189.542 238.195 194.467 233.712 199.182C220.891 212.28 205.777 223.177 188.682 231.351Z" fill="black"/>
<path d="M240.593 256.499C236.423 260.9 231.003 261.843 227.98 262.367C225.583 262.786 214.534 264.672 206.09 257.337C203.276 254.822 201.608 252.098 200.774 250.317L198.377 277.98C203.172 279.761 212.97 282.695 224.853 280.599C229.752 279.761 249.349 276.198 255.186 260.481C258.313 252.098 256.854 241.41 250.912 234.18C249.766 232.818 245.388 227.578 237.987 226.321C236.528 226.007 228.397 224.645 223.811 229.569C223.29 230.198 220.579 233.027 221.309 236.485C222.039 239.838 225.896 242.353 228.814 241.934C232.15 241.515 232.462 237.638 236.215 237.009C239.551 236.485 242.261 238.895 242.469 239.105C245.284 241.724 245.075 245.706 244.971 247.278C244.658 252.098 241.74 255.346 240.593 256.499Z" fill="url(#paint2_linear)"/>
<path d="M216.514 285C210.051 285 203.38 283.847 197.126 281.437C195.562 280.913 194.624 279.341 194.729 277.665L197.126 250.002C197.23 248.325 198.481 247.068 200.045 246.754C201.608 246.439 203.276 247.278 204.006 248.745C205.152 251.05 206.612 253.041 208.488 254.612C213.074 258.699 219.641 260.166 227.355 258.804C230.273 258.28 234.547 257.546 237.987 253.984C238.821 253.145 241.218 250.631 241.427 246.963C241.531 245.706 241.739 243.191 240.072 241.724C240.072 241.724 238.508 240.257 236.945 240.571C236.319 240.676 236.111 240.991 235.173 241.934C234.13 243.191 232.462 245.077 229.439 245.496C224.436 246.125 219.016 242.353 217.869 237.218C217.14 233.76 218.286 230.198 221.309 227.054C226.521 221.501 234.443 221.92 238.821 222.758C244.554 223.806 249.87 227.054 253.935 231.874C260.502 239.838 262.483 251.888 258.834 261.738C255.811 269.806 247.681 280.284 225.687 284.161C222.56 284.685 219.537 285 216.514 285ZM202.234 275.464C209.53 277.77 217.035 278.294 224.228 277.036C242.782 273.788 249.453 265.51 251.85 259.223C254.561 251.783 253.101 242.458 248.202 236.59C245.283 233.027 241.427 230.722 237.466 229.988C235.173 229.569 229.544 228.94 226.625 232.084C225.374 233.446 224.853 234.704 225.062 235.647C225.374 237.218 227.459 238.371 228.501 238.266C228.71 238.266 228.918 238.057 229.752 237.114C230.899 235.856 232.671 233.865 235.798 233.341C240.697 232.503 244.45 235.751 245.075 236.38C249.14 240.257 248.828 245.706 248.619 247.487C248.306 251.679 246.534 255.555 243.199 259.013C238.195 264.357 231.941 265.405 228.606 265.929C218.807 267.606 209.947 265.51 203.797 260.061L203.693 259.956L202.234 275.464Z" fill="black"/>
<path d="M144.277 221.711C142.818 222.968 129.371 235.123 130.935 253.984C132.186 268.863 142.088 277.77 144.277 279.656C144.277 279.656 149.906 282.171 155.847 270.749C155.847 270.749 166.792 274.626 178.258 271.168C179.509 273.159 182.219 277.036 187.014 278.922C188.474 279.446 190.454 280.285 192.852 279.761C190.35 279.761 197.23 277.351 198.063 276.198C208.8 261.843 207.236 246.963 207.236 246.963C205.673 231.979 195.874 222.758 193.164 220.453C176.799 220.872 160.538 221.291 144.277 221.711Z" fill="url(#paint3_linear)"/>
<path d="M154.597 218.148C151.783 223.073 148.864 229.884 148.447 238.371C148.135 244.03 147.822 249.583 151.47 254.822C156.786 262.576 166.48 263.205 167.523 263.31C174.506 263.729 182.116 260.585 186.181 254.508C189.725 249.269 189.517 243.715 189.308 239.105C188.891 229.569 185.034 222.234 182.22 218.148C173.047 218.043 163.874 218.043 154.597 218.148Z" fill="#FCE9AE"/>
<path d="M147.822 277.875C142.923 273.684 140.421 269.283 139.17 266.244C133.541 253.041 137.815 236.485 149.177 222.968L145.112 221.606C141.255 225.273 134.375 232.818 131.769 244.449C130.727 249.059 127.183 264.672 136.46 273.055C140.317 276.513 144.799 277.561 147.822 277.875Z" fill="#FF6D27"/>
<path d="M192.436 276.303C193.896 274.207 195.876 271.168 197.44 267.291C198.586 264.567 201.505 257.127 200.671 247.802C199.42 235.123 191.811 226.74 189.205 224.12C190.56 223.701 191.915 223.282 193.27 222.758C197.023 225.902 203.59 232.503 206.613 242.982C210.991 258.385 204.424 270.959 201.922 274.207C201.192 275.255 199.629 277.246 197.127 277.56C194.938 277.875 193.166 276.827 192.436 276.303Z" fill="#FFE227"/>
<path d="M150.74 243.82C151.053 244.658 153.451 250.736 158.141 253.67C160.539 255.137 163.457 255.975 163.457 255.975C164.395 256.185 165.334 256.394 166.376 256.604L167.835 256.813L168.565 256.918H168.982H169.295C173.151 256.813 177.112 255.661 180.135 253.355C183.262 251.155 185.451 247.383 186.806 243.191C186.806 244.239 186.911 245.392 186.702 246.544C186.494 247.592 186.389 248.85 185.972 249.898C185.243 252.098 183.992 254.194 182.22 255.87C180.552 257.547 178.467 258.909 176.174 259.747C173.985 260.586 171.692 261.005 169.19 261.109H168.982H168.669L168.252 261.005L167.418 260.9L165.646 260.69C165.021 260.586 164.5 260.376 163.978 260.271C163.145 260.062 162.623 259.852 162.311 259.747C158.558 258.595 156.682 257.966 155.952 257.547C154.389 256.499 153.763 255.137 152.825 253.355C150.949 249.898 150.636 246.335 150.74 243.82Z" fill="#FFC280"/>
<path d="M168.357 265.93C167.94 265.93 167.523 265.93 167.106 265.93C165.126 265.825 154.911 264.882 149.073 256.29C144.904 250.212 145.321 243.82 145.633 238.162C146.05 230.722 148.239 223.597 152.2 216.786C152.617 215.948 153.555 215.529 154.389 215.529L182.116 215.424C182.95 215.424 183.784 215.843 184.305 216.576C188.892 223.387 191.498 231.141 191.81 238.895C192.019 243.82 192.227 249.898 188.266 255.975C183.888 262.053 176.279 265.93 168.357 265.93ZM155.849 220.768C152.826 226.426 151.054 232.399 150.741 238.476C150.428 243.715 150.22 248.745 153.347 253.356C157.933 259.957 166.481 260.69 167.419 260.69C173.986 261.005 180.449 257.966 183.784 253.041C186.807 248.536 186.703 243.506 186.494 239.21C186.182 231.456 183.263 225.064 180.657 220.768H155.849Z" fill="black"/>
<path d="M191.498 283.009C189.205 283.009 187.329 282.275 186.182 281.856C182.013 280.18 179.198 277.351 177.218 274.836C169.296 276.617 161.895 275.465 158.038 274.626C156.579 277.56 153.869 281.542 148.969 282.695C145.947 283.428 142.715 282.799 139.484 281.018C128.539 274.941 126.767 257.127 128.226 246.649C129.998 233.97 136.982 224.959 142.403 219.615C142.924 219.091 143.758 218.776 144.487 218.776L193.27 217.519C194.104 217.519 194.834 217.833 195.459 218.357C200.254 222.863 208.593 232.503 210.052 246.859C210.052 247.068 211.824 265.091 200.567 278.398C199.837 279.237 197.544 281.961 193.791 282.904C193.062 282.904 192.228 283.009 191.498 283.009ZM178.573 268.025C179.615 268.025 180.657 268.549 181.283 269.597C182.534 271.797 184.827 274.626 188.475 275.988C189.83 276.512 191.081 276.931 192.436 276.617C194.208 276.198 195.355 274.731 195.876 274.102C205.257 262.995 203.902 247.382 203.902 247.278C202.651 235.751 196.397 227.788 192.124 223.597L145.947 224.854C141.36 229.569 135.836 237.218 134.376 247.487C132.813 258.28 135.419 271.692 142.403 275.465C143.132 275.884 145.217 277.036 147.406 276.512C151.263 275.569 153.035 270.121 153.035 269.911C153.243 269.073 153.869 268.444 154.598 268.025C155.328 267.606 156.266 267.606 156.996 267.815C157.1 267.815 167.211 271.273 177.426 268.234C178.052 268.025 178.364 268.025 178.573 268.025Z" fill="black"/>
<path d="M148.24 73.9654C143.341 72.8127 138.546 71.6601 133.23 68.4118C126.871 64.5348 123.744 60.1339 121.659 61.2865C119.679 62.2296 121.242 67.0496 118.845 68.307C117.073 69.2501 114.571 67.6783 113.008 66.8401C107.796 63.6966 106.232 59.0861 105.086 59.5052C103.731 60.0291 106.337 66.2114 103.418 69.1453C101.542 71.0314 98.4145 70.5075 98.206 70.5075C92.1603 69.4597 89.4501 60.1339 88.3035 60.553C87.1569 60.9722 92.3688 71.241 88.0951 76.8993C86.4273 79.0998 83.9256 79.8333 82.779 80.1476C77.5671 81.6146 74.1273 78.8902 65.9968 76.4802C64.4333 75.9563 52.2376 72.4984 50.674 75.0132C49.6316 76.6897 52.9672 79.7285 58.7002 87.6921C58.7002 87.6921 58.9087 87.9016 59.1172 88.216C59.1172 88.216 63.9121 94.7126 67.6646 101.209C71.9383 108.649 67.9773 125.624 68.29 140.817C68.3943 146.371 69.4366 163.241 79.3392 180.111C87.9908 194.886 99.8738 203.478 105.398 207.355C113.737 213.223 120.93 216.367 122.806 217.205C139.797 224.33 154.598 224.016 168.566 223.597C185.452 223.073 202.026 222.549 219.225 212.385C228.502 206.936 235.173 200.439 238.3 197.086C241.428 193.733 247.682 187.027 252.372 177.177C252.372 177.177 263.005 154.858 258.835 112.526C258.731 111.688 258.522 109.173 258.835 105.82C259.356 100.371 261.128 95.97 263.005 92.1978C269.363 79.5189 276.347 75.4323 274.992 73.0223C273.533 70.4027 263.63 72.6032 258.418 74.2797C253.311 75.9563 250.913 77.8424 246.535 77.2137C245.284 77.0041 241.115 76.4802 239.03 73.3367C235.695 68.4118 240.281 60.2387 239.134 59.8195C237.675 59.1908 233.401 70.5075 227.147 70.5075C226.834 70.5075 225.584 70.5075 224.437 69.774C220.372 67.364 221.518 60.2387 219.851 59.9243C218.183 59.61 216.932 66.6305 212.137 67.7831C211.616 67.8879 210.678 68.0975 209.635 67.7831C206.612 66.9449 206.404 62.9631 204.423 62.6487C202.547 62.3344 201.296 65.4779 198.69 67.9927C196.606 69.9836 194.521 70.8219 181.7 73.1271C172.11 74.8036 167.315 75.6419 164.396 75.6419C162.416 75.9563 156.162 75.9563 148.24 73.9654Z" fill="url(#paint4_linear)"/>
<path d="M53.3835 79.7284C56.3022 81.6145 70.2699 90.4163 81.6318 88.9493C83.508 88.7398 86.6351 88.3206 89.1368 85.8058C92.4724 82.5575 92.5766 77.947 92.4724 76.4801C91.5343 77.2136 90.7004 78.0518 89.7622 78.7853C89.7622 78.7853 76.3157 81.6145 75.586 80.9858C74.8563 80.3571 64.0157 76.5849 62.5564 76.2705C61.0971 75.9561 53.2793 75.7466 53.2793 75.7466V79.7284H53.3835Z" fill="#444406"/>
<path d="M272.386 76.8993C269.467 78.7854 255.499 87.4824 244.138 86.1202C242.261 85.9107 239.134 85.4915 236.632 82.9767C233.297 79.7284 233.193 75.1179 233.297 73.651C234.235 74.3845 235.069 75.2227 236.007 75.9562C236.007 75.9562 249.454 78.7854 250.183 78.1567C250.913 77.528 261.754 73.7558 263.213 73.4414C264.672 73.127 272.49 72.9175 272.49 72.9175V76.8993H272.386Z" fill="#444406"/>
<path d="M69.2266 150.562L81.9435 184.931L101.644 203.897C101.644 203.897 122.387 216.262 126.765 218.986C131.143 221.71 148.447 225.692 150.948 225.797C153.45 225.902 184.93 220.872 186.702 221.606C188.474 222.339 207.862 217.519 211.823 216.262C215.784 215.004 247.263 189.647 247.576 188.075C247.889 186.503 256.853 155.173 256.853 155.173L250.182 161.355C250.182 161.355 240.801 193.104 216.305 205.05C191.809 216.995 148.134 215.109 148.134 215.109C148.134 215.109 114.048 208.403 100.81 191.323C100.81 191.323 76.2104 172.043 71.1028 146.266L69.2266 150.562Z" fill="#FCBF44"/>
<path d="M158.037 228.102C146.884 228.102 134.584 226.95 120.721 221.187C117.281 219.72 110.401 216.471 102.583 210.918C97.2673 207.146 84.6547 198.239 75.3776 182.312C65.7878 165.861 64.0157 149.305 63.8073 140.922C63.703 135.264 64.12 129.501 64.5369 124.052C65.1624 115.669 65.7878 106.972 63.703 103.305C60.159 97.1226 55.4683 90.7308 55.4683 90.7308L55.0514 90.2069C53.4878 88.0064 52.1327 86.2251 50.8819 84.6534C47.1294 79.7285 44.6277 76.4802 46.8167 72.8128C48.4844 70.0884 52.0285 68.0975 66.8301 72.3937C69.4361 73.1271 71.5208 73.9654 73.3971 74.5941C77.4623 76.0611 79.1301 76.6898 81.3191 76.0611C82.153 75.8515 83.7165 75.3276 84.4462 74.2798C86.114 71.9745 84.9674 67.0497 84.2377 64.4301C83.6123 62.0201 82.6742 57.9335 86.4267 56.4665C90.075 54.9995 92.1597 58.5622 93.2021 60.4483C94.3487 62.3344 96.3292 65.7923 98.4139 66.2114C99.0394 66.3162 99.8733 66.2114 100.082 66.0018C100.499 65.4779 100.29 63.1727 100.186 62.3344C99.9775 60.3435 99.6648 56.6761 103.209 55.3139C106.544 54.0565 108.629 56.8857 109.776 58.3526C110.818 59.7148 112.277 61.6009 114.571 63.0679C114.779 63.1727 115.196 63.487 115.717 63.6966C115.926 61.8105 116.343 58.8765 119.157 57.4096C122.805 55.6282 125.932 58.1431 128.955 60.5531C130.623 61.9153 132.395 63.3822 134.793 64.7444C139.588 67.6784 143.757 68.6214 148.656 69.8788C155.432 71.5554 160.956 71.765 163.771 71.6602C166.272 71.6602 171.276 70.7171 180.344 69.1454C192.331 67.0497 193.999 66.3162 195.25 65.1636C195.98 64.4301 196.605 63.6966 197.231 62.8583C198.69 60.9722 200.983 58.0383 204.631 58.667C207.342 59.1909 208.697 61.3914 209.426 62.7535C209.635 63.1727 210.052 63.8014 210.26 64.0109C210.26 64.0109 210.469 63.9062 210.573 63.9062C211.719 63.5918 212.762 61.7057 213.596 60.3435C214.638 58.4574 216.41 55.4187 219.954 55.9426C223.498 56.5713 224.228 60.1339 224.541 62.2296C224.749 63.5918 225.166 65.7923 226 66.3162C226.104 66.421 226.313 66.421 226.625 66.5258C228.397 66.5258 231.316 62.2296 232.567 60.4483C234.339 57.8287 236.528 54.6852 240.176 56.1522C243.929 57.7239 242.886 61.9153 242.365 63.9062C241.844 66.0018 240.802 69.5645 241.948 71.241C242.365 71.9745 243.616 72.8128 246.535 73.2319C248.515 73.5463 249.662 73.0224 252.476 71.9745C253.623 71.5554 254.978 71.0315 256.541 70.5076C264.672 67.888 274.887 65.7923 278.014 71.1363C280.099 74.8037 277.597 77.9472 274.887 81.1955C272.49 84.1294 269.258 88.0065 266.131 94.1887C264.672 97.1226 262.9 101.209 262.379 106.239C262.066 109.068 262.379 111.268 262.379 112.107C266.652 155.173 256.02 178.121 255.499 179.064C250.496 189.647 243.616 196.877 240.697 200.02C236.528 204.421 229.752 210.813 220.684 216.052C202.547 226.74 185.035 227.264 168.044 227.788C165.021 227.998 161.582 228.102 158.037 228.102ZM56.7192 78.7855C56.9276 79.0998 57.1361 79.3094 57.3446 79.6237C58.4912 81.1955 59.9505 83.0816 61.6183 85.2821L62.0352 85.806C62.2437 86.1203 67.0386 92.6169 70.7912 99.2183C74.231 105.086 73.5013 114.202 72.6674 124.786C72.2505 130.13 71.8335 135.578 71.9378 140.818C72.1462 148.362 73.7098 163.346 82.3614 178.121C90.7004 192.476 102.271 200.649 107.17 204.107C114.362 209.241 120.616 212.175 123.744 213.433C140.213 220.348 154.91 219.929 167.836 219.51C184.514 218.986 200.149 218.462 216.514 208.927C224.749 204.107 230.899 198.344 234.652 194.362C237.362 191.533 243.512 184.932 247.994 175.501C248.098 175.291 258.105 153.496 254.04 113.155C253.935 112.002 253.623 109.278 254.04 105.61C254.665 99.1135 256.75 94.1887 258.626 90.5213C261.962 83.9199 265.506 79.4142 267.903 76.4802C265.402 76.7946 262.17 77.5281 259.043 78.5759C257.688 78.995 256.541 79.519 255.499 79.9381C252.476 81.1955 249.557 82.3481 245.388 81.7194C240.489 81.0907 237.049 79.2046 234.964 76.0611C234.235 74.9085 233.713 73.6511 233.401 72.3937C231.524 73.9654 229.231 75.0133 226.625 75.0133H226.521C224.749 75.0133 223.081 74.4893 221.622 73.6511C219.641 72.4984 218.391 70.7171 217.557 68.9358C216.306 70.298 214.534 71.5554 212.345 72.0793C211.615 72.2889 209.843 72.708 207.654 72.0793C205.361 71.4506 204.006 69.9836 203.068 68.7262C202.442 69.5645 201.713 70.4028 200.879 71.241C197.856 74.175 194.937 75.118 181.699 77.4233C171.588 79.2046 167.002 80.0429 163.771 80.0429C158.35 80.1477 152.304 79.4142 146.676 78.052C141.568 76.7946 136.356 75.5372 130.519 71.9745C127.705 70.298 125.516 68.5167 123.848 67.1545L123.744 67.0497C123.327 68.831 122.493 70.8219 120.304 71.9745C116.447 74.0702 112.382 71.5554 110.401 70.4028C109.567 69.8788 108.733 69.3549 108.004 68.7262C107.587 69.8788 106.961 71.1363 105.919 72.0793C102.688 75.3276 97.997 74.6989 97.0589 74.5941C95.7038 74.3846 94.4529 73.8606 93.4106 73.2319C93.0979 75.3276 92.4724 77.5281 91.0131 79.4142C88.5114 82.7673 84.9674 83.8151 83.5081 84.2342C78.6089 85.7012 74.7522 84.2342 70.3742 82.6625C68.6022 82.0338 66.7259 81.3003 64.3285 80.6716C61.5141 79.7285 58.8039 79.0998 56.7192 78.7855Z" fill="black"/>
<path d="M187.537 200.02C184.306 198.658 183.055 193.524 184.827 190.066C185.14 189.542 186.286 187.341 188.684 186.713C192.124 185.874 195.042 189.123 195.459 189.647C196.919 191.323 198.586 194.467 197.023 197.086C195.876 199.077 193.27 199.706 192.019 200.02C190.769 200.335 189.101 200.754 187.537 200.02Z" fill="#D30A05"/>
<path d="M187.537 200.02C184.306 198.658 183.055 193.524 184.827 190.066C185.14 189.542 186.286 187.341 188.684 186.713C192.124 185.874 195.042 189.123 195.459 189.647C196.919 191.323 198.586 194.467 197.023 197.086C195.876 199.077 193.27 199.706 192.019 200.02C190.769 200.335 189.101 200.754 187.537 200.02Z" stroke="black" stroke-width="3" stroke-miterlimit="10" stroke-linecap="round" stroke-linejoin="round"/>
<path d="M158.142 211.023C156.057 211.023 154.494 210.918 153.139 210.708C151.679 210.499 147.301 209.87 137.503 205.364C131.145 202.431 124.89 198.973 118.949 194.991C117.49 194.048 117.073 192.057 118.011 190.59C118.949 189.123 120.929 188.704 122.389 189.647C128.122 193.419 134.063 196.772 140.109 199.497C146.05 202.221 150.741 203.898 153.972 204.317C156.266 204.631 159.601 204.526 166.168 204.317C173.465 204.107 177.113 204.002 179.719 203.478C184.201 202.64 187.12 201.278 193.791 198.134C199.42 195.515 204.944 192.371 210.365 189.018C211.824 188.075 213.804 188.494 214.638 189.961C215.576 191.428 215.16 193.419 213.7 194.257C208.176 197.82 202.338 200.964 196.501 203.793C190.247 206.727 186.39 208.508 180.866 209.556C177.738 210.185 173.986 210.289 166.377 210.499C162.833 210.918 160.227 211.023 158.142 211.023Z" fill="#FF6D27"/>
<path d="M157.933 208.298C155.848 208.298 154.285 208.193 152.93 207.984C151.47 207.774 147.092 207.146 137.294 202.64C130.936 199.706 124.681 196.248 118.74 192.266C117.281 191.323 116.864 189.332 117.802 187.865C118.74 186.398 120.72 185.979 122.18 186.922C127.913 190.695 133.854 194.048 139.9 196.772C145.841 199.496 150.532 201.173 153.763 201.592C156.057 201.906 159.392 201.802 165.959 201.592C173.256 201.382 176.904 201.278 179.51 200.754C183.992 199.915 186.911 198.553 193.582 195.41C199.211 192.79 204.735 189.647 210.156 186.294C211.615 185.351 213.595 185.77 214.429 187.237C215.367 188.704 214.951 190.695 213.491 191.533C207.967 195.095 202.129 198.239 196.292 201.068C190.038 204.002 186.181 205.783 180.657 206.831C177.529 207.46 173.777 207.565 166.168 207.774C162.728 208.298 160.122 208.298 157.933 208.298Z" fill="black"/>
<path d="M116.864 180.53C144.209 180.53 166.377 158.247 166.377 130.758C166.377 103.27 144.209 80.9858 116.864 80.9858C89.5191 80.9858 67.3516 103.27 67.3516 130.758C67.3516 158.247 89.5191 180.53 116.864 180.53Z" fill="black"/>
<path d="M116.864 172.252C139.661 172.252 158.142 153.675 158.142 130.758C158.142 107.841 139.661 89.2637 116.864 89.2637C94.0666 89.2637 75.5859 107.841 75.5859 130.758C75.5859 153.675 94.0666 172.252 116.864 172.252Z" fill="white"/>
<path d="M214.118 179.797C241.578 179.797 263.839 157.42 263.839 129.815C263.839 102.211 241.578 79.8335 214.118 79.8335C186.657 79.8335 164.396 102.211 164.396 129.815C164.396 157.42 186.657 179.797 214.118 179.797Z" fill="black"/>
<path d="M214.118 171.31C236.915 171.31 255.395 152.732 255.395 129.815C255.395 106.898 236.915 88.3208 214.118 88.3208C191.321 88.3208 172.84 106.898 172.84 129.815C172.84 152.732 191.321 171.31 214.118 171.31Z" fill="white"/>
<path d="M170.343 87.2003C170.625 86.0185 168.675 84.5352 165.988 83.8871C163.301 83.2391 160.894 83.6717 160.612 84.8534C160.33 86.0352 162.28 87.5185 164.967 88.1666C167.654 88.8146 170.061 88.382 170.343 87.2003Z" fill="white"/>
<path d="M175.966 88.74C177.002 88.74 177.842 87.8956 177.842 86.8539C177.842 85.8122 177.002 84.9678 175.966 84.9678C174.93 84.9678 174.09 85.8122 174.09 86.8539C174.09 87.8956 174.93 88.74 175.966 88.74Z" fill="white"/>
<path d="M135.418 139.56C134.063 141.132 127.287 132.644 116.03 132.644C103.834 132.644 96.5374 142.389 95.0781 140.817C93.0976 138.827 101.228 118.708 115.404 118.708C129.059 118.708 137.294 137.464 135.418 139.56Z" fill="black"/>
<path d="M235.276 139.56C233.921 141.027 227.563 132.958 216.722 132.958C205.048 132.958 198.168 142.179 196.709 140.712C194.832 138.826 202.546 119.651 216.097 119.651C229.126 119.756 237.048 137.674 235.276 139.56Z" fill="black"/>
<path d="M52.5492 97.7511C49.1094 113.993 59.7416 126.252 60.8882 127.615C62.4517 137.045 64.1195 146.476 65.6831 155.906C70.5822 155.277 75.4813 154.649 80.4847 154.02C75.2729 128.872 70.061 103.724 64.8492 78.5757C62.4517 80.2522 54.9467 86.644 52.5492 97.7511Z" fill="white"/>
<path d="M65.6844 158.421C64.4336 158.421 63.287 157.478 63.0785 156.221L58.3879 128.663C55.4692 125.205 46.6091 113.05 49.9447 97.1229C52.2379 86.1206 59.2218 79.3097 63.1828 76.2709C63.9124 75.747 64.8505 75.5374 65.6844 75.8518C66.5183 76.1661 67.1438 76.8996 67.3522 77.7379L82.9878 153.182C83.092 153.916 82.9878 154.649 82.5708 155.278C82.1539 155.907 81.5285 156.221 80.7988 156.326L65.9972 158.212C65.8929 158.421 65.7887 158.421 65.6844 158.421ZM63.1828 83.3962C60.0556 86.5397 56.5116 91.4646 55.0523 98.2755C51.9252 113.05 61.6192 124.576 62.7658 125.834C63.0785 126.253 63.287 126.672 63.3912 127.091L67.7692 152.868L77.2547 151.611L63.1828 83.3962Z" fill="black"/>
<path d="M60.2637 156.011C69.0196 154.44 77.6712 152.973 86.4271 151.401C89.7627 167.747 92.9941 184.093 96.3297 200.544C95.3915 206.412 90.8051 210.918 85.0721 211.756C79.1306 212.595 73.2933 209.451 70.7916 204.002C67.2475 187.97 63.8077 171.939 60.2637 156.011Z" fill="#DD0A0A"/>
<path d="M83.0905 214.48C76.9406 214.48 71.1033 210.813 68.3931 205.05C68.2889 204.84 68.2889 204.735 68.1847 204.526L57.6567 156.535C57.5525 155.801 57.6567 155.068 58.0737 154.544C58.4906 153.915 59.1161 153.496 59.7415 153.391L85.9049 148.781C87.26 148.571 88.6151 149.41 88.9278 150.877L98.8303 200.02C98.9346 200.335 98.9346 200.649 98.8303 200.963C97.6837 207.984 92.2634 213.328 85.3838 214.376C84.6541 214.376 83.8202 214.48 83.0905 214.48ZM73.2923 203.059C75.377 207.355 80.0677 209.765 84.6541 209.136C89.1363 208.508 92.7846 205.05 93.7227 200.544L84.4456 154.439L63.3898 158.107L73.2923 203.059Z" fill="black"/>
<path d="M78.6094 155.383C80.5899 155.068 82.5704 154.754 84.4466 154.439C87.5737 169.843 90.5966 185.141 93.7237 200.544C93.6195 201.173 93.411 202.011 92.9941 202.85C92.3686 204.317 91.4305 205.364 90.8051 205.993C86.7399 189.123 82.6746 172.253 78.6094 155.383Z" fill="#A50400"/>
<path d="M66.205 157.583C65.2669 157.688 64.3288 157.897 63.3906 158.002C66.5177 173.405 69.7491 188.704 72.8762 204.107C74.127 205.155 75.3779 206.098 76.6287 207.146C73.2931 190.695 69.7491 174.139 66.205 157.583Z" fill="#FFF7D2"/>
<path d="M254.456 159.993L262.691 122.271C262.691 122.271 262.691 122.271 262.691 122.166L259.355 121.537C256.645 121.013 254.977 118.498 255.499 115.774L262.691 80.9858L291.252 86.9585L284.372 120.908C283.851 123.423 281.454 125.1 278.848 124.681L272.906 123.633C269.987 138.512 267.069 153.496 264.046 168.376C259.772 168.271 255.498 168.166 251.121 168.061C251.121 168.061 251.016 168.061 251.121 167.956L254.456 159.993Z" fill="white"/>
<path d="M271.759 82.8721C269.675 92.1978 267.694 101.628 265.609 110.954L271.759 82.8721Z" fill="white"/>
<path d="M281.349 86.3296C279.472 95.1314 277.7 104.038 275.824 112.84L281.349 86.3296Z" fill="white"/>
<path d="M264.046 171.1L251.121 170.786C250.287 170.786 249.453 170.262 248.932 169.633C248.41 168.9 248.41 167.957 248.723 167.119L251.955 159.155L259.564 124.262L258.834 124.157C256.854 123.843 255.186 122.69 254.039 121.014C252.893 119.337 252.476 117.346 252.893 115.355L260.085 80.5671C260.189 79.9384 260.606 79.3097 261.232 78.8905C261.857 78.4714 262.587 78.3666 263.316 78.4714L291.877 84.4441C292.503 84.5488 293.128 84.968 293.545 85.5967C293.962 86.2254 294.066 86.9589 293.962 87.5876L287.082 121.433C286.248 125.415 282.496 127.929 278.535 127.301L274.991 126.672L266.652 169.005C266.443 170.262 265.297 171.1 264.046 171.1ZM254.977 165.756L261.961 165.861L270.3 123.214C270.613 121.852 271.968 120.804 273.323 121.118L279.265 122.166C280.411 122.376 281.558 121.642 281.766 120.49L288.125 89.0546L264.567 84.1297L257.896 116.403C257.792 117.032 257.896 117.556 258.209 118.08C258.521 118.604 259.043 118.918 259.668 119.023L263.004 119.651C263.733 119.756 264.359 120.175 264.776 120.804C265.193 121.433 265.297 122.166 265.193 122.795L256.958 160.622V160.727C256.958 160.831 256.854 160.936 256.854 161.041L254.977 165.756Z" fill="black"/>
<path d="M265.609 112.631C265.505 112.631 265.4 112.631 265.296 112.631C264.462 112.421 263.941 111.583 264.149 110.745L270.299 82.6627C270.508 81.8244 271.342 81.3005 272.176 81.5101C273.01 81.7196 273.531 82.5579 273.322 83.3962L267.172 111.478C266.964 112.107 266.338 112.631 265.609 112.631Z" fill="black"/>
<path d="M275.825 114.412C275.721 114.412 275.616 114.412 275.512 114.412C274.678 114.203 274.157 113.364 274.261 112.526L279.786 86.0158C279.994 85.1775 280.828 84.6536 281.662 84.7584C282.496 84.968 283.017 85.8062 282.913 86.6445L277.388 113.155C277.18 113.888 276.554 114.412 275.825 114.412Z" fill="black"/>
<path d="M275.096 154.754C266.34 153.496 257.584 152.239 248.828 151.086C246.118 167.537 243.408 183.989 240.594 200.544C241.74 206.308 246.535 210.708 252.268 211.337C258.21 212.071 263.943 208.613 266.236 203.059C269.155 186.922 272.178 170.891 275.096 154.754Z" fill="#DD0A0A"/>
<path d="M256.854 154.754C254.874 154.544 252.893 154.23 250.913 154.021C248.307 169.529 245.805 184.932 243.199 200.44C243.303 201.068 243.616 201.907 244.033 202.745C244.763 204.212 245.701 205.155 246.326 205.784C249.87 188.809 253.31 171.729 256.854 154.754Z" fill="#A50400"/>
<path d="M269.258 156.64C270.196 156.745 271.134 156.85 272.072 157.059C269.466 172.567 266.756 187.97 264.15 203.479C262.899 204.526 261.649 205.574 260.502 206.622C263.316 189.857 266.235 173.196 269.258 156.64Z" fill="#FFF7D2"/>
<path d="M253.726 214.376C253.101 214.376 252.475 214.376 251.954 214.271C244.97 213.433 239.446 208.298 237.986 201.383C237.882 201.068 237.882 200.754 237.986 200.44L246.221 150.982C246.43 149.619 247.785 148.572 249.14 148.781L275.407 152.449C276.137 152.553 276.763 152.973 277.179 153.496C277.596 154.125 277.805 154.754 277.596 155.487L268.736 203.793C268.736 204.002 268.632 204.107 268.528 204.317C266.13 210.394 260.189 214.376 253.726 214.376ZM243.302 200.754C244.345 205.26 248.097 208.508 252.58 209.032C257.27 209.556 261.857 206.936 263.733 202.64L272.072 157.373L251.016 154.439L243.302 200.754Z" fill="black"/>
<path d="M90.4911 180.216C91.325 189.333 83.2987 198.868 73.7089 198.868C68.7056 198.868 65.0573 196.039 64.5361 195.62C60.0539 191.952 59.3242 186.608 58.9073 183.674C58.4903 180.636 57.8649 176.025 60.7835 171.624C60.992 171.31 64.3276 166.175 70.4776 165.128C78.6081 163.661 89.5529 169.738 90.4911 180.216Z" fill="url(#paint5_linear)"/>
<path d="M73.7088 203.164C67.2461 203.164 62.764 199.706 61.9301 198.973C56.0928 194.257 55.2589 187.551 54.8419 184.303C54.425 181.054 53.6953 175.187 57.3436 169.423C57.7606 168.69 62.0343 162.403 69.7478 161.041C75.2724 160.098 81.5266 161.669 86.53 165.442C91.2206 169.004 94.1393 174.139 94.7647 179.797C95.2859 185.455 93.2011 191.428 89.0317 196.039C84.9664 200.544 79.3376 203.164 73.7088 203.164ZM72.9792 169.109C72.3538 169.109 71.8326 169.109 71.2071 169.214C66.9334 169.947 64.3275 173.824 64.3275 173.929C62.347 177.073 62.764 180.426 63.0767 183.15C63.3894 185.77 63.9106 189.752 67.1419 192.371C67.1419 192.371 69.9563 194.676 73.7088 194.676C76.9402 194.676 80.2758 193.105 82.7774 190.38C85.2791 187.551 86.6342 183.884 86.3215 180.635C85.9046 176.339 83.4029 173.615 81.4224 172.148C78.9207 170.157 75.7936 169.109 72.9792 169.109Z" fill="black"/>
<path d="M244.764 178.33C242.262 189.437 253.415 199.287 262.067 199.392C262.588 199.392 267.383 199.392 270.927 196.039C273.741 193.419 274.263 189.961 275.305 183.045C276.035 178.33 276.347 176.025 275.513 173.72C273.324 167.852 266.549 165.861 266.236 165.756C258.21 163.556 246.848 168.69 244.764 178.33Z" fill="url(#paint6_linear)"/>
<path d="M262.065 203.164H261.961C255.915 203.059 249.244 199.496 244.866 193.943C240.801 188.808 239.342 182.836 240.592 176.968C241.739 171.624 245.179 167.013 250.287 163.975C255.603 160.831 261.857 159.783 267.173 161.25C268.111 161.46 276.346 163.975 279.264 171.729C280.515 175.082 279.994 178.12 279.264 183.15C278.118 190.485 277.492 194.886 273.636 198.553C269.362 202.954 263.525 203.164 262.065 203.164ZM248.827 178.854C247.785 183.255 250.078 187.027 251.433 188.808C254.248 192.371 258.625 194.781 262.065 194.886C262.17 194.886 265.714 194.886 268.007 192.685C269.675 191.114 270.092 188.704 271.134 182.102C271.759 177.806 271.968 176.13 271.551 174.872C270.092 170.995 265.088 169.528 265.088 169.528C261.961 168.69 258 169.423 254.664 171.414C251.537 173.091 249.453 175.815 248.827 178.854Z" fill="black"/>
<defs>
<linearGradient id="paint0_linear" x1="154.3" y1="240.682" x2="94.7955" y2="203.566" gradientUnits="userSpaceOnUse">
<stop stop-color="#897E16"/>
<stop offset="0.2727" stop-color="#FF8D27"/>
<stop offset="0.6809" stop-color="#FF9A2C"/>
<stop offset="0.7849" stop-color="#FFA02C"/>
<stop offset="0.9189" stop-color="#FFB02B"/>
<stop offset="1" stop-color="#FFBD2B"/>
</linearGradient>
<linearGradient id="paint1_linear" x1="252.205" y1="211.355" x2="182.277" y2="207.531" gradientUnits="userSpaceOnUse">
<stop stop-color="#897E16"/>
<stop offset="0.2727" stop-color="#FF8D27"/>
<stop offset="0.6809" stop-color="#FF9A2C"/>
<stop offset="0.7849" stop-color="#FFA02C"/>
<stop offset="0.9189" stop-color="#FFB02B"/>
<stop offset="1" stop-color="#FFBD2B"/>
</linearGradient>
<linearGradient id="paint2_linear" x1="238.068" y1="241.334" x2="206.33" y2="287.363" gradientUnits="userSpaceOnUse">
<stop stop-color="#897E16"/>
<stop offset="0.2727" stop-color="#FF8D27"/>
<stop offset="0.6809" stop-color="#FF9A2C"/>
<stop offset="0.7849" stop-color="#FFA02C"/>
<stop offset="0.9189" stop-color="#FFB02B"/>
<stop offset="1" stop-color="#FFBD2B"/>
</linearGradient>
<linearGradient id="paint3_linear" x1="131.144" y1="229.31" x2="188.574" y2="260.732" gradientUnits="userSpaceOnUse">
<stop stop-color="#897E16"/>
<stop offset="0.2727" stop-color="#FF8D27"/>
<stop offset="0.6809" stop-color="#FF9A2C"/>
<stop offset="0.7849" stop-color="#FFA02C"/>
<stop offset="0.9189" stop-color="#FFB02B"/>
<stop offset="1" stop-color="#FFBD2B"/>
</linearGradient>
<linearGradient id="paint4_linear" x1="162.877" y1="73.053" x2="164" y2="216.502" gradientUnits="userSpaceOnUse">
<stop stop-color="#897E16"/>
<stop offset="0.2727" stop-color="#FF8D27"/>
<stop offset="0.6809" stop-color="#FF9A2C"/>
<stop offset="0.7849" stop-color="#FFA02C"/>
<stop offset="0.9189" stop-color="#FFB02B"/>
<stop offset="1" stop-color="#FFBD2B"/>
</linearGradient>
<linearGradient id="paint5_linear" x1="54.1303" y1="183.786" x2="85.7853" y2="180.75" gradientUnits="userSpaceOnUse">
<stop offset="0.2727" stop-color="#FF8D27"/>
<stop offset="0.6809" stop-color="#FF9A2C"/>
<stop offset="0.7849" stop-color="#FFA02C"/>
<stop offset="0.9189" stop-color="#FFB02B"/>
<stop offset="1" stop-color="#FFBD2B"/>
</linearGradient>
<linearGradient id="paint6_linear" x1="281.32" y1="184.676" x2="250.53" y2="180.92" gradientUnits="userSpaceOnUse">
<stop offset="0.2727" stop-color="#FF8D27"/>
<stop offset="0.6809" stop-color="#FF9A2C"/>
<stop offset="0.7849" stop-color="#FFA02C"/>
<stop offset="0.9189" stop-color="#FFB02B"/>
<stop offset="1" stop-color="#FFBD2B"/>
</linearGradient>
</defs>
</svg>
