<svg width="458" height="458" viewBox="0 0 458 458" fill="none" xmlns="http://www.w3.org/2000/svg">
<path d="M188.556 254.466C185.505 263.505 182.731 273.796 180.65 285.339C179.679 291.04 178.986 296.603 178.431 301.748C177.46 302.443 172.606 305.92 166.919 304.529C166.503 304.39 162.897 303.417 160.539 300.357C153.188 290.762 165.116 270.459 167.196 266.843C170.941 260.446 175.241 255.44 178.847 251.963C182.176 252.798 185.366 253.632 188.556 254.466Z" fill="url(#paint0_linear)"/>
<path d="M325.034 323.72C324.895 323.581 324.617 323.581 324.479 323.442L325.034 323.72Z" fill="#A0663A"/>
<path d="M344.313 339.295C341.401 333.732 337.656 328.309 333.634 325.111L325.034 323.581C325.45 323.72 305.2 326.779 299.791 333.872C290.221 346.665 307.142 348.89 315.88 349.725C324.063 350.42 333.911 352.367 341.955 349.725C347.781 347.917 347.087 344.579 344.313 339.295Z" fill="#A0663A"/>
<path d="M269.278 310.231C264.701 302.999 261.234 299.523 252.634 299.245L243.341 302.582C243.619 302.304 244.59 302.304 243.896 302.026C237.377 304.668 229.333 303.139 224.062 308.84C219.485 313.846 216.85 327.058 221.982 332.342C226.559 337.07 239.042 334.428 244.867 334.011C255.27 333.176 267.336 333.872 277.045 330.117C278.155 323.72 272.468 315.376 269.278 310.231Z" fill="#A0663A"/>
<path d="M372.193 352.924C368.309 344.58 367.338 344.719 354.439 341.937C346.256 340.13 337.934 338.044 329.889 336.097C327.115 335.401 324.064 335.262 322.954 332.342C326.838 329.839 331.276 329.422 335.437 328.309C333.912 322.19 321.29 316.628 315.742 313.986C309.362 310.926 301.733 308.006 294.937 307.589C276.213 306.337 258.321 310.926 240.151 311.343C242.786 309.257 248.057 304.112 249.999 304.251L252.911 299.384C240.012 299.384 228.916 296.881 216.156 298.271C207.279 299.245 198.541 304.529 189.803 305.92C181.62 307.171 173.021 307.171 164.56 308.562C158.18 309.536 147.916 309.257 142.229 312.456C138.762 314.403 136.959 319.131 134.601 322.468C131.688 326.362 128.359 329.7 125.308 333.594C121.841 338.044 116.015 342.355 113.519 347.5C111.299 351.95 113.519 357.513 113.103 362.797C112.409 371.975 105.197 391.166 111.022 398.258C121.286 410.913 144.726 412.86 159.289 416.198C169.137 418.423 178.014 420.37 188.278 420.926C200.206 421.482 210.331 418.84 221.704 417.449C240.706 415.363 258.875 415.92 278.155 415.92C290.083 415.92 301.733 413.695 313.8 413.695C326.561 413.695 396.604 413.138 392.72 396.172C392.443 395.894 378.018 365.439 372.193 352.924Z" fill="#AF713E"/>
<path d="M399.516 391.305C398.684 388.385 395.91 385.882 393.968 383.379C391.055 379.485 388.559 375.035 386.34 370.724C381.901 361.963 375.66 345.831 364.009 344.858V344.997C367.754 349.864 360.126 352.367 356.797 354.036C353.607 355.705 350.555 357.374 347.365 358.903C344.036 360.433 343.62 360.85 342.095 364.049C338.35 372.393 329.889 373.644 324.064 379.763C319.209 384.769 315.326 390.471 312.274 396.868C309.5 402.709 302.288 409.662 297.988 414.529C299.653 414.39 310.887 415.363 314.077 415.642C322.954 416.337 332.108 416.476 340.985 416.476C350.417 416.476 359.848 415.642 369.28 415.642C373.995 415.642 378.573 415.503 382.872 413.695C391.61 410.079 402.706 402.152 399.516 391.305Z" fill="#A0663A"/>
<path d="M287.17 355.844C282.871 356.818 278.571 356.957 274.132 357.374C263.591 358.347 253.189 355.566 242.786 356.539C231.968 357.652 221.565 359.599 210.469 359.599C202.286 359.599 194.519 358.208 186.613 357.235C186.197 360.155 187.584 362.797 188.416 365.44C189.942 370.029 193.271 374.061 193.687 378.929C194.103 383.935 193.687 388.941 193.964 394.087C194.103 396.312 194.935 398.398 195.074 400.623C195.213 403.265 194.242 404.795 193.271 407.159C191.329 411.887 189.803 416.337 186.891 420.509V420.648C197.293 424.681 209.915 422.456 220.733 421.482C230.165 420.648 240.567 419.675 249.583 417.31C254.021 416.059 255.963 413.417 259.43 410.496C262.759 407.715 266.504 405.629 270.11 403.265C273.578 401.04 276.906 399.51 279.126 395.755C281.622 391.305 281.9 387.829 282.177 382.823C282.316 379.902 280.929 376.426 281.484 373.783C281.9 371.836 284.119 370.724 284.951 368.638C286.893 363.493 291.47 360.016 293.689 355.01C291.609 354.593 289.112 355.427 287.17 355.844Z" fill="#A0663A"/>
<path d="M167.472 395.616C167.194 388.941 167.194 381.71 166.362 375.035C165.669 370.028 161.785 366.135 160.121 361.267C158.04 355.149 155.544 354.592 149.441 355.288C142.783 355.983 135.987 357.93 129.33 358.069L128.497 359.181C128.081 360.294 126.278 361.824 125.862 363.353C125.307 365.161 125.585 367.108 125.03 368.777C123.782 372.81 122.672 376.008 124.198 380.319C125.723 384.491 127.943 388.385 129.468 392.557C131.133 397.285 132.936 404.099 136.542 407.715C139.316 410.496 142.645 412.86 146.39 413.416C151.105 414.112 155.682 414.946 160.398 416.198C171.217 419.118 167.749 402.013 167.472 395.616Z" fill="#A0663A"/>
<path d="M182.592 341.381C178.292 334.845 171.219 333.594 166.225 327.753C160.261 321.217 146.391 311.622 146.391 311.622C143.063 312.178 137.653 317.045 135.989 319.548C133.631 323.025 130.302 326.362 127.39 329.7C122.535 335.402 114.075 342.077 112.41 349.586C119.9 355.01 126.141 359.321 135.712 358.903C144.727 358.486 153.049 355.983 162.064 356.4C167.335 356.678 173.16 355.149 178.292 356.4C182.731 357.513 204.09 358.764 208.667 359.46C204.229 356.539 185.366 345.831 182.592 341.381Z" fill="#D8894E"/>
<path d="M293.967 354.174C294.106 354.174 294.106 354.035 294.245 354.035C294.245 353.757 294.383 353.619 294.383 353.341L293.967 354.174Z" fill="#D8894E"/>
<path d="M294.245 354.036C292.442 360.989 283.287 366.274 281.623 373.783C289.529 374.2 296.464 374.061 303.954 376.843C308.669 378.65 316.575 384.491 321.152 382.683C324.342 381.432 327.116 376.982 330.168 375.174C333.358 373.227 337.935 372.392 340.848 370.167C343.76 367.942 342.651 365.3 344.592 362.38C345.979 360.433 349.17 359.042 351.111 357.791C357.769 354.036 367.755 350.142 364.981 344.58C342.512 342.911 312.969 341.659 294.245 354.036Z" fill="#D8894E"/>
<path d="M192.855 312.317C196.739 319.687 199.097 326.641 207.28 329.978C216.296 333.594 225.45 333.316 234.465 335.819C242.232 338.044 251.109 351.394 259.154 349.725C261.234 349.308 273.162 331.786 281.346 328.309C289.668 324.694 300.763 326.362 309.64 325.945C307.005 317.045 294.522 315.655 286.616 315.655C276.63 315.655 266.921 316.211 257.073 315.237C248.474 314.403 241.262 315.933 233.217 312.456C226.282 309.536 221.15 307.867 213.522 308.284C206.864 308.562 200.623 310.648 194.242 312.039L192.855 312.317Z" fill="#D8894E"/>
<path d="M183.7 353.063C179.123 352.646 174.407 352.924 169.83 352.646C166.223 352.507 162.34 351.811 158.734 351.95C152.492 352.228 146.112 354.175 139.871 354.871C136.542 355.149 134.045 353.897 130.994 353.202C128.081 352.646 125.169 352.507 122.256 351.811C118.65 350.977 116.153 350.003 112.547 349.586L122.533 357.652C124.891 359.182 125.03 360.711 124.752 363.215C124.475 365.718 124.059 369.333 124.198 371.976C125.169 369.751 127.526 364.049 129.052 362.658C130.994 360.85 134.184 361.129 136.819 360.85C139.871 360.572 143.061 360.294 146.112 359.877C148.886 359.599 152.492 359.043 155.266 359.46C155.682 359.599 156.237 359.738 156.653 359.738C157.347 361.963 160.259 364.605 161.785 366.274C163.866 368.36 165.53 370.724 166.917 372.949C166.223 369.751 164.42 365.718 164.836 362.241C165.114 360.294 166.085 360.989 168.027 360.989C169.414 360.989 170.939 360.85 172.465 360.85C175.516 360.85 178.568 361.407 181.619 361.407C184.67 361.407 187.583 360.85 190.773 360.85C197.292 360.85 203.395 360.572 209.498 359.599C200.482 359.182 192.16 353.897 183.7 353.063Z" fill="#E89256"/>
<path d="M177.875 359.738C180.649 361.267 183.562 363.91 185.087 366.691C187.168 370.585 187.168 375.174 188.971 379.068C190.358 381.849 192.161 384.213 192.716 387.272C193.132 389.219 193.548 391.166 193.687 393.113C193.132 389.219 192.993 385.186 193.132 381.154C193.271 379.207 193.825 377.399 193.825 375.591C193.825 372.949 191.606 369.75 190.774 367.108C190.219 365.578 189.664 364.188 189.11 362.658C188.832 361.824 188.555 360.294 188.139 359.877L177.875 359.738Z" fill="#E89256"/>
<path d="M349.722 356.678C347.087 357.652 344.313 358.764 341.955 360.433C336.962 364.327 331.969 370.724 326.005 372.671C324.618 373.088 322.953 374.061 321.428 374.34C318.793 374.896 315.325 373.366 312.828 372.671C307.142 371.141 300.484 370.863 294.659 371.141C292.162 371.28 289.666 371.975 287.169 372.393C285.782 372.671 282.592 372.671 281.482 373.505V373.644C286.337 373.644 291.746 374.479 296.878 375.452C299.652 376.008 301.733 376.982 304.368 378.233C306.726 379.346 309.638 380.041 311.58 381.71C311.164 383.657 311.025 385.882 310.609 387.968C309.916 390.888 308.113 393.391 307.28 396.312C306.171 400.066 304.923 403.96 303.952 407.854C304.784 405.907 307.142 403.96 308.529 402.431C309.638 401.179 310.748 399.788 311.858 398.398C313.383 396.729 314.909 394.921 315.88 392.974C317.822 389.498 318.238 386.16 321.15 383.379C323.508 381.154 326.56 380.041 328.779 377.677C330.027 376.426 330.721 375.869 332.524 375.313C335.575 374.479 339.459 373.088 341.817 370.863C344.729 368.221 343.62 363.075 346.394 360.433C347.919 359.043 350.555 358.625 352.219 357.374C353.606 356.4 355.27 355.566 356.519 354.453C354.577 354.871 351.803 355.844 349.722 356.678Z" fill="#E89256"/>
<path d="M293.828 323.72C287.587 322.886 281.207 323.442 274.965 322.33C266.227 320.8 257.767 318.019 248.89 316.906C245.284 316.35 241.539 316.489 237.794 316.628C234.604 316.767 231.691 316.211 228.501 316.072C224.34 315.933 220.318 317.323 216.296 317.601C215.186 317.601 213.938 317.462 212.828 317.741L212.967 317.88C215.325 319.687 219.902 319.826 222.814 319.966C227.946 320.244 231.969 319.27 236.962 321.078C244.313 323.72 252.635 323.72 259.57 327.336C263.037 329.144 267.06 330.813 269.14 334.289C269.972 335.541 269.834 337.905 269.972 337.766C270.943 336.931 274.965 333.455 276.075 332.481C279.265 329.561 282.316 327.475 286.755 326.641C289.251 326.223 292.025 326.084 294.661 326.084C296.88 326.084 299.931 325.945 302.705 325.945C300.625 324.137 296.464 323.998 293.828 323.72Z" fill="#E89256"/>
<path d="M173.299 331.786C169.831 329.283 166.641 326.223 163.451 323.303C158.319 318.436 157.21 311.761 149.997 309.814C149.304 309.675 141.398 311.204 138.624 314.264C137.376 315.515 136.544 317.045 135.85 318.714C135.295 319.965 134.324 322.329 133.215 323.303L134.879 322.19C138.485 320.522 142.924 322.329 146.253 323.998C152.078 327.058 157.626 330.534 163.729 333.176C167.057 334.567 170.664 336.792 174.131 337.766C176.212 338.322 178.569 338.322 180.65 338.739C180.789 337.07 174.686 332.898 173.299 331.786Z" fill="#E89256"/>
<path d="M191.884 268.512C189.249 286.868 182.036 298.55 175.934 305.781C175.379 306.476 174.824 307.172 174.131 307.728C173.16 310.092 172.189 313.847 171.911 318.297C171.634 322.608 171.357 327.614 174.131 332.203C179.262 340.964 190.081 342.216 192.994 342.633C201.177 343.745 202.009 340.547 217.96 340.13C224.895 339.991 228.639 340.408 232.246 341.381C236.823 342.633 236.961 343.606 241.955 344.858C249.999 347.083 255.686 346.527 257.073 346.388C260.54 346.11 262.343 345.414 264.563 344.858C268.862 343.884 282.039 345.692 288.141 346.109C289.39 346.249 305.895 347.222 320.181 337.348C322.955 335.402 334.19 327.614 332.664 322.33C330.306 314.403 303.398 323.72 282.871 311.761C266.782 302.304 260.124 283.113 257.073 266.704C235.158 267.26 213.521 267.816 191.884 268.512Z" fill="#724628"/>
<path d="M316.853 302.582C311.305 308.423 304.093 309.675 300.07 310.37C296.88 310.926 282.178 313.429 270.943 303.695C267.199 300.357 264.979 296.742 263.87 294.378L260.68 331.091C267.06 333.455 280.098 337.348 295.909 334.567C302.428 333.455 328.504 328.726 336.271 307.867C340.432 296.742 338.49 282.557 330.584 272.962C329.058 271.154 323.233 264.201 313.385 262.532C311.444 262.115 300.625 260.307 294.522 266.843C293.829 267.677 290.223 271.432 291.194 276.021C292.164 280.471 297.296 283.809 301.18 283.253C305.618 282.696 306.034 277.551 311.028 276.716C315.466 276.021 319.072 279.22 319.349 279.498C323.094 282.974 322.817 288.259 322.678 290.345C322.262 296.603 318.379 300.914 316.853 302.582Z" fill="url(#paint1_linear)"/>
<path d="M284.813 340.269C276.214 340.269 267.337 338.739 259.015 335.54C256.935 334.845 255.686 332.759 255.825 330.534L259.015 293.821C259.154 291.596 260.818 289.927 262.899 289.51C264.979 289.093 267.198 290.206 268.169 292.152C269.695 295.212 271.637 297.854 274.133 299.94C280.236 305.364 288.974 307.31 299.238 305.503C303.121 304.807 308.808 303.834 313.385 299.106C314.495 297.993 317.685 294.656 317.962 289.788C318.101 288.12 318.378 284.782 316.159 282.835C316.159 282.835 314.079 280.888 311.998 281.305C311.166 281.444 310.889 281.862 309.64 283.113C308.253 284.782 306.034 287.285 302.012 287.841C295.354 288.676 288.142 283.67 286.616 276.855C285.645 272.266 287.171 267.538 291.193 263.366C298.128 255.996 308.669 256.552 314.356 257.665C321.984 259.055 329.058 263.366 334.467 269.763C343.205 280.332 345.841 296.324 340.986 309.396C336.964 320.104 326.145 334.011 296.88 339.156C292.858 339.851 288.835 340.269 284.813 340.269ZM265.811 327.614C275.52 330.673 285.507 331.369 295.077 329.7C319.765 325.389 328.642 314.403 331.832 306.059C335.438 296.185 333.497 283.809 326.978 276.021C323.094 271.293 317.962 268.233 312.692 267.26C309.64 266.704 302.15 265.869 298.267 270.041C296.603 271.849 295.909 273.518 296.186 274.769C296.603 276.855 299.377 278.385 300.763 278.246C301.041 278.246 301.318 277.968 302.428 276.716C303.954 275.048 306.311 272.405 310.472 271.71C316.991 270.598 321.984 274.908 322.817 275.743C328.226 280.888 327.81 288.12 327.532 290.484C327.116 296.046 324.758 301.192 320.32 305.781C313.663 312.873 305.341 314.264 300.902 314.959C287.864 317.184 276.075 314.403 267.892 307.171L267.753 307.032L265.811 327.614Z" fill="black"/>
<path d="M168.028 301.748C166.502 299.801 164.56 296.603 164.005 292.431C163.589 289.093 164.005 285.06 170.386 273.796C173.021 269.207 176.766 263.227 181.759 256.552C180.511 255.857 178.569 254.883 176.211 255.161C167.057 256.413 161.37 277.273 161.37 277.273L156.793 290.623C160.677 294.378 164.283 297.993 168.028 301.748Z" fill="#FF6D27"/>
<path d="M188.694 256.274C188.694 256.274 163.867 327.614 188.694 333.176C188.694 333.176 196.184 336.514 204.09 321.356C204.09 321.356 218.654 326.501 233.91 321.912C235.575 324.554 239.181 329.7 245.561 332.203C247.503 332.898 250.138 334.011 253.328 333.316C253.328 333.316 256.935 332.481 260.263 328.587C264.84 323.164 266.227 308.562 263.453 289.928C261.928 281.027 259.292 268.651 253.883 254.605C231.969 255.161 210.332 255.718 188.694 256.274Z" fill="url(#paint2_linear)"/>
<path d="M254.299 253.493C257.35 262.532 260.124 272.823 262.205 284.365C263.176 290.067 263.869 295.629 264.424 300.774C265.395 301.47 270.249 304.946 275.936 303.556C276.352 303.417 279.958 302.443 282.316 299.384C289.667 289.788 277.739 269.485 275.659 265.869C271.914 259.472 267.614 254.466 264.008 250.99C260.818 251.824 257.489 252.658 254.299 253.493Z" fill="url(#paint3_linear)"/>
<path d="M202.425 251.546C198.68 258.082 194.796 267.121 194.242 278.385C193.826 285.895 193.409 293.265 198.264 300.218C205.338 310.509 218.237 311.344 219.624 311.483C228.916 312.039 239.041 307.867 244.451 299.801C249.167 292.848 248.889 285.478 248.612 279.359C248.057 266.704 242.925 256.969 239.18 251.546C226.975 251.407 214.769 251.546 202.425 251.546Z" fill="#FCE9AE"/>
<path d="M277.74 301.053C277.74 301.053 287.587 292.987 260.818 256.969C260.818 256.969 267.337 254.466 268.031 255.301C268.724 256.135 281.762 277.412 281.762 277.412L286.062 290.762L277.74 301.053Z" fill="#FF6D27"/>
<path d="M193.41 330.952C193.41 330.952 175.657 323.998 195.213 258.082L189.804 256.274C189.804 256.274 171.496 317.741 178.292 324.555C185.088 331.369 193.41 330.952 193.41 330.952Z" fill="#FF6D27"/>
<path d="M252.774 328.726C253.745 326.78 254.993 323.72 255.964 320.104C258.045 312.456 258.184 305.503 257.074 296.464C255.41 282.001 251.665 269.068 248.336 259.473C250.139 258.916 251.942 258.36 253.745 257.665C253.745 257.665 271.915 319.131 265.257 325.945C264.148 327.058 262.345 329.978 258.877 330.395C256.103 330.812 253.745 329.422 252.774 328.726Z" fill="#FFBD2B"/>
<path d="M197.293 285.617C197.709 286.729 200.899 294.795 207.141 298.689C210.331 300.636 214.214 301.748 214.214 301.748C215.463 302.026 216.711 302.304 218.098 302.582L220.04 302.861L221.011 303H221.565H221.982C227.113 302.861 232.384 301.331 236.406 298.271C240.567 295.351 243.48 290.345 245.283 284.782C245.283 286.173 245.422 287.703 245.144 289.232C244.867 290.623 244.728 292.292 244.173 293.682C243.203 296.603 241.538 299.384 239.18 301.609C236.961 303.834 234.187 305.642 231.136 306.754C228.223 307.867 225.172 308.423 221.843 308.562H221.565H221.149L220.595 308.423L219.485 308.284L217.127 308.145C216.295 308.006 215.601 307.728 214.908 307.589C213.798 307.311 213.105 307.032 212.689 306.893C207.696 305.364 205.199 304.529 204.228 303.973C202.148 302.582 201.315 300.775 200.067 298.411C197.571 293.682 197.154 289.093 197.293 285.617Z" fill="#FFC280"/>
<path d="M202.009 251.685C198.264 258.221 194.38 267.26 193.826 278.524C193.41 286.034 192.993 293.404 197.848 300.357C204.922 310.648 217.821 311.482 219.208 311.622C228.5 312.178 238.625 308.006 244.035 299.94C248.751 292.987 248.473 285.617 248.196 279.498C247.641 266.843 242.509 257.108 238.764 251.685C226.559 251.546 214.353 251.546 202.009 251.685Z" stroke="black" stroke-width="5" stroke-miterlimit="10" stroke-linecap="round" stroke-linejoin="round"/>
<path d="M169.276 307.45C167.75 307.45 166.225 307.311 164.56 306.754C162.341 306.059 160.122 304.946 158.319 303.417C158.18 303.278 158.041 303.139 157.903 303C142.646 286.729 169.831 253.632 173.021 249.877C173.992 248.765 175.24 248.208 176.627 248.486L189.665 250.016C190.913 250.155 192.023 250.85 192.716 251.963C193.41 252.936 193.548 254.327 193.132 255.44C190.636 263.505 188.416 271.849 186.613 280.193C185.088 286.868 183.839 293.682 182.868 300.496C182.73 301.609 182.175 302.582 181.204 303.278C179.817 304.39 175.24 307.45 169.276 307.45ZM163.867 297.298C164.838 297.993 165.808 298.549 166.918 298.828C170.108 299.801 173.298 298.549 174.963 297.437C175.934 291.04 177.043 284.782 178.43 278.524C179.956 271.571 181.759 264.757 183.701 257.943L177.875 257.247C170.663 266.426 156.238 288.537 163.867 297.298Z" fill="black"/>
<path d="M251.525 337.627C248.473 337.627 245.977 336.653 244.451 336.097C238.903 333.872 235.158 330.117 232.523 326.78C221.982 329.144 212.134 327.614 207.002 326.501C205.061 330.395 201.454 335.819 194.797 337.209C194.242 337.348 188.694 338.461 183.562 335.541C171.495 328.587 173.437 305.364 175.656 292.013C178.846 273.379 184.949 255.718 185.088 255.022C185.643 253.354 187.168 252.241 188.971 252.241L253.883 250.572C255.686 250.572 257.211 251.546 257.905 253.215C262.482 265.035 265.811 277.134 267.753 289.371C270.804 309.118 269.14 324.694 263.592 331.369C259.569 336.097 254.992 337.348 254.437 337.348C253.467 337.627 252.496 337.627 251.525 337.627ZM234.326 317.74C235.713 317.74 237.1 318.436 237.932 319.826C239.597 322.747 242.648 326.501 247.503 328.309C249.306 329.005 250.97 329.561 252.773 329.144C252.773 329.144 255.131 328.448 257.35 325.806C260.402 322.19 262.482 309.536 259.569 290.484C257.766 279.776 254.992 269.068 251.247 258.777L192.3 260.307C190.497 265.869 186.336 279.498 184.117 293.265C181.066 311.343 182.591 325.111 188.001 328.17C190.22 329.422 193.132 328.865 193.271 328.865C198.542 327.753 200.761 320.244 200.761 320.104C201.038 318.992 201.87 318.158 202.841 317.601C203.812 317.045 205.061 317.045 206.17 317.323C206.309 317.323 219.763 321.912 233.355 317.879C233.633 317.74 234.049 317.74 234.326 317.74Z" fill="black"/>
<path d="M273.578 308.145C268.308 308.145 264.147 305.503 262.483 304.251C261.512 303.556 260.957 302.443 260.818 301.331C260.263 295.907 259.57 290.484 258.599 285.199C256.796 274.909 254.161 264.757 250.832 254.883C250.416 253.771 250.554 252.519 251.109 251.546C251.664 250.572 252.635 249.738 253.744 249.46L263.453 246.957C264.84 246.539 266.366 246.957 267.337 248.069C272.191 252.797 276.352 258.082 279.681 263.783C286.755 275.743 293.551 292.153 286.061 302.026C282.871 306.198 278.294 307.589 277.323 307.728C276.075 308.006 274.827 308.145 273.578 308.145ZM268.863 298.41C270.388 299.245 272.885 300.218 275.382 299.523C275.382 299.523 278.017 298.828 279.543 296.742C283.01 292.153 280.375 281.166 272.608 267.816C269.972 263.366 266.921 259.194 263.315 255.44L260.125 256.274C262.899 265.174 265.118 274.352 266.782 283.531C267.614 288.537 268.308 293.543 268.863 298.41Z" fill="black"/>
<path d="M193.965 60.3327C187.447 58.803 181.066 57.2733 173.993 52.9623C165.532 47.8169 161.371 41.9762 158.597 43.506C155.962 44.7575 158.042 51.1545 154.852 52.8233C152.494 54.0748 149.166 51.9889 147.085 50.8764C140.15 46.7044 138.07 40.5856 136.544 41.1419C134.741 41.8372 138.208 50.042 134.325 53.9358C131.828 56.4389 127.667 55.7436 127.39 55.7436C119.345 54.353 115.739 41.9762 114.213 42.5325C112.688 43.0888 119.623 56.717 113.936 64.2265C111.717 67.1469 108.388 68.1203 106.862 68.5375C99.9273 70.4844 95.3503 66.8687 84.5317 63.6703C82.4512 62.9749 66.2234 58.3858 64.1429 61.7234C62.7559 63.9484 67.1943 67.9812 74.8228 78.5501C74.8228 78.5501 75.1002 78.8283 75.3776 79.2454C75.3776 79.2454 81.7577 87.8674 86.7509 96.4894C92.4376 106.363 87.167 128.891 87.5831 149.056C87.7218 156.426 89.1088 178.815 102.285 201.205C113.797 220.813 129.609 232.216 136.96 237.361C148.056 245.149 157.626 249.321 160.123 250.433C182.731 259.89 202.426 259.473 221.012 258.916C243.481 258.221 265.534 257.526 288.42 244.036C300.764 236.805 309.641 228.183 313.802 223.733C317.963 219.283 326.284 210.383 332.526 197.311C332.526 197.311 346.673 167.69 341.125 111.508C340.987 110.396 340.709 107.058 341.125 102.608C341.819 95.3769 344.177 89.5362 346.673 84.5299C355.134 67.7031 364.427 62.2796 362.624 59.0811C360.682 55.6045 347.505 58.5249 340.571 60.7499C333.774 62.9749 330.584 65.4781 324.759 64.6437C323.094 64.3656 317.546 63.6703 314.772 59.4983C310.334 52.9623 316.437 42.1153 314.911 41.5591C312.969 40.7247 307.283 55.7436 298.961 55.7436C298.545 55.7436 296.88 55.7436 295.355 54.7701C289.945 51.5717 291.471 42.1153 289.252 41.6981C287.033 41.2809 285.368 50.5982 278.988 52.1279C278.295 52.267 277.046 52.5451 275.659 52.1279C271.637 51.0154 271.36 45.731 268.724 45.3138C266.228 44.8966 264.563 49.0685 261.096 52.4061C258.322 55.0483 255.548 56.1608 238.488 59.2202C225.728 61.4452 219.347 62.5577 215.464 62.5577C212.829 62.8359 204.507 62.8359 193.965 60.3327Z" fill="url(#paint4_linear)"/>
<path d="M68.3028 66.0343C72.1863 68.5375 90.772 80.0798 105.89 78.272C108.387 77.9938 112.548 77.4376 115.877 74.1C120.315 69.789 120.454 63.6702 120.315 61.7233C119.067 62.6968 117.957 63.8093 116.709 64.7827C116.709 64.7827 98.8166 68.5375 97.8457 67.7031C96.8748 66.8687 82.4501 61.8624 80.5083 61.4452C78.5665 61.028 68.1641 60.7499 68.1641 60.7499V66.0343H68.3028Z" fill="#444406"/>
<path d="M359.709 62.1405C355.826 64.6437 337.24 76.186 322.122 74.3782C319.625 74.1 315.464 73.5438 312.136 70.2062C307.697 65.8953 307.559 59.7764 307.697 57.8295C308.946 58.803 310.055 59.9155 311.303 60.8889C311.303 60.8889 329.196 64.6437 330.166 63.8093C331.137 62.9749 345.562 57.9686 347.504 57.5514C349.446 57.1342 359.848 56.8561 359.848 56.8561V62.1405H359.709Z" fill="#444406"/>
<path d="M88.8301 161.849L105.751 207.462L131.966 232.633C131.966 232.633 159.567 249.043 165.392 252.658C171.217 256.274 194.241 261.558 197.57 261.697C200.899 261.837 242.786 255.161 245.144 256.135C247.502 257.108 273.3 250.711 278.571 249.043C283.841 247.374 325.728 213.72 326.144 211.634C326.561 209.548 338.489 168.107 338.489 168.107C336.547 169.915 334.605 171.584 332.802 173.392C328.918 184.656 316.436 214.972 284.673 234.302C259.846 249.321 235.713 249.877 221.704 250.155C209.776 250.433 184.394 250.711 156.377 236.388C132.659 224.289 118.65 207.462 112.409 199.119C100.203 182.57 94.5167 166.578 91.7428 156.287L88.8301 161.849Z" fill="#FCBF44"/>
<path d="M207.003 264.757C192.162 264.757 175.795 263.227 157.348 255.579C152.771 253.632 143.617 249.321 133.215 241.95C126.141 236.944 109.358 225.124 97.0141 203.986C84.2537 182.153 81.8959 160.181 81.6185 149.056C81.4798 141.546 82.0346 133.898 82.5893 126.666C83.4215 115.541 84.2537 103.999 81.4798 99.1315C76.6253 90.7877 70.5225 82.4438 70.5225 82.4438L69.9677 81.7485C67.7485 78.8282 65.9454 76.4641 64.4198 74.3781C59.4266 67.8421 56.0978 63.5311 59.0105 58.6639C61.2297 55.0482 65.9454 52.406 85.6407 58.1076C89.1082 59.081 91.8822 60.1936 94.3788 61.0279C99.7881 62.9748 102.007 63.8092 104.92 62.9748C106.03 62.6967 108.11 62.0014 109.081 60.6108C111.3 57.5513 109.774 51.0153 108.804 47.5387C107.971 44.3402 106.723 38.9167 111.716 36.9699C116.571 35.162 119.345 39.7511 120.732 42.2543C122.257 44.7574 124.893 49.3466 127.667 49.9028C128.499 50.0419 129.608 49.9028 129.886 49.6247C130.441 48.9294 130.163 45.87 130.024 44.7574C129.747 42.1152 129.331 37.248 134.047 35.4401C138.485 33.7714 141.259 37.5261 142.785 39.473C144.172 41.2808 146.114 43.784 149.165 45.7309C149.442 45.87 149.997 46.2871 150.691 46.5653C150.968 44.0621 151.523 40.1683 155.268 38.2214C160.122 35.8573 164.283 39.1949 168.305 42.3934C170.525 44.2012 172.883 46.1481 176.073 47.9559C182.453 51.8497 188.001 53.1013 194.52 54.7701C203.535 56.9951 210.886 57.1342 214.631 57.1342C217.96 57.1342 224.617 55.8826 236.684 53.7966C252.496 51.0153 254.854 50.0419 256.518 48.5122C257.489 47.5387 258.321 46.5653 259.153 45.4528C261.095 42.9496 264.147 39.0558 269.001 39.8902C272.607 40.5855 274.41 43.5059 275.381 45.3137C275.659 45.87 276.213 46.7043 276.491 46.9825C276.491 46.9825 276.768 46.8434 276.907 46.8434C278.433 46.4262 279.82 43.9231 280.929 42.1152C282.316 39.6121 284.674 35.5792 289.39 36.2745C294.106 37.1089 295.077 41.8371 295.493 44.6184C295.77 46.4262 296.325 49.3466 297.434 50.0419C297.573 50.1809 297.851 50.1809 298.267 50.32C300.625 50.32 304.508 44.6184 306.173 42.2543C308.53 38.7777 311.443 34.6058 316.298 36.5527C321.291 38.6386 319.904 44.2012 319.21 46.8434C318.517 49.6247 317.13 54.3529 318.655 56.5779C319.21 57.5513 320.875 58.6639 324.758 59.2201C327.394 59.4982 328.919 58.942 332.664 57.5513C334.19 56.9951 335.993 56.2998 338.073 55.6044C349.169 52.1278 362.762 49.4856 366.923 56.4388C369.697 61.3061 366.368 65.478 362.762 69.789C359.572 73.6828 355.272 78.8282 351.111 87.0329C349.169 90.9267 346.811 96.3502 346.118 103.025C345.702 106.78 346.118 109.7 346.118 110.813C351.805 167.968 337.657 198.423 336.964 199.675C330.306 213.72 321.152 223.316 317.268 227.488C311.72 233.328 302.705 241.811 290.638 248.765C266.505 262.949 243.203 263.644 220.595 264.34C216.295 264.618 211.718 264.757 207.003 264.757ZM79.3993 75.9078C80.3702 77.0203 81.6185 78.8282 83.2828 81.4704C86.3342 85.9204 88.9695 89.9533 91.05 93.708C95.6271 101.496 94.6562 113.594 93.5466 127.64C92.9918 134.732 92.437 141.963 92.5757 148.916C92.8531 158.929 94.9336 178.815 106.446 198.423C117.542 217.475 132.937 228.322 139.456 232.911C149.026 239.725 157.348 243.619 161.509 245.288C183.424 254.466 202.98 253.91 220.179 253.354C242.371 252.658 263.176 251.963 284.952 239.308C295.909 232.911 304.092 225.263 309.085 219.978C312.553 216.224 320.875 207.463 326.839 194.947C326.977 194.669 340.293 165.743 334.883 112.204C334.745 110.674 334.328 107.058 334.883 102.191C335.715 93.569 338.489 87.0329 340.986 82.1657C345.424 73.4047 350.14 67.4249 353.33 63.5311C350.001 63.9483 345.702 64.9217 341.541 66.3124C339.738 66.8686 338.212 67.564 336.825 68.1202C332.803 69.789 328.919 71.3187 323.371 70.4843C316.852 69.6499 312.275 67.1468 309.501 62.9748C308.53 61.4451 307.837 59.7764 307.421 58.1076C304.786 60.1936 301.734 61.5842 298.267 61.5842C295.909 61.5842 293.69 60.8889 291.748 59.7764C289.113 58.2467 287.448 55.8826 286.339 53.5185C284.674 55.3263 282.316 56.9951 279.404 57.6904C278.433 57.9685 276.075 58.5248 273.162 57.6904C270.111 56.856 268.308 54.9091 267.059 53.2404C266.227 54.3529 265.256 55.4654 264.147 56.5779C260.124 60.4717 256.241 61.7233 238.626 64.7827C225.172 67.1468 219.069 68.2593 214.77 68.2593C207.557 68.3983 199.513 67.4249 192.023 65.6171C185.227 63.9483 178.292 62.2795 170.525 57.5513C166.78 55.3263 163.867 52.9622 161.648 51.1544L161.509 51.0153C160.954 53.3794 159.845 56.0216 156.932 57.5513C151.8 60.3326 146.391 56.9951 143.756 55.4654C142.646 54.7701 141.537 54.0747 140.566 53.2404C140.011 54.7701 139.179 56.4388 137.792 57.6904C133.492 62.0014 127.251 61.167 126.002 61.0279C124.199 60.7498 122.535 60.0545 121.148 59.2201C120.732 62.0014 119.899 64.9217 117.958 67.4249C114.629 71.875 109.913 73.2656 107.971 73.8218C101.452 75.7687 96.3206 73.8218 90.4952 71.7359C88.1373 70.9015 85.6407 69.9281 82.4507 69.0937C78.4284 67.8421 74.9609 67.1468 72.3256 66.7296C72.603 67.1468 72.8804 67.4249 73.1578 67.8421C74.6835 69.928 76.6253 72.4312 78.8445 75.3516L79.3993 75.9078Z" fill="black"/>
<path d="M207.142 242.09C204.368 242.09 202.287 241.951 200.484 241.672C198.543 241.394 192.717 240.56 179.679 234.58C171.219 230.686 162.897 226.097 154.991 220.813C153.049 219.561 152.494 216.919 153.743 214.972C154.991 213.025 157.626 212.469 159.568 213.721C167.197 218.727 175.102 223.177 183.147 226.793C191.053 230.408 197.294 232.633 201.594 233.19C204.645 233.607 209.084 233.468 217.822 233.19C227.531 232.911 232.385 232.772 235.853 232.077C241.817 230.965 245.7 229.157 254.577 224.985C262.067 221.508 269.418 217.336 276.63 212.886C278.572 211.635 281.207 212.191 282.317 214.138C283.565 216.085 283.01 218.727 281.069 219.839C273.718 224.568 265.95 228.74 258.183 232.494C249.861 236.388 244.729 238.752 237.378 240.143C233.217 240.977 228.224 241.116 218.099 241.394C213.383 242.09 209.916 242.09 207.142 242.09Z" fill="#FF6D27"/>
<path d="M206.865 238.474C204.091 238.474 202.01 238.335 200.207 238.057C198.265 237.778 192.44 236.944 179.402 230.964C170.941 227.07 162.62 222.481 154.714 217.197C152.772 215.945 152.217 213.303 153.465 211.356C154.714 209.409 157.349 208.853 159.291 210.105C166.919 215.111 174.825 219.561 182.87 223.177C190.775 226.792 197.017 229.017 201.317 229.574C204.368 229.991 208.806 229.852 217.544 229.574C227.253 229.295 232.108 229.156 235.575 228.461C241.539 227.349 245.423 225.541 254.3 221.369C261.789 217.892 269.141 213.72 276.353 209.27C278.295 208.019 280.93 208.575 282.04 210.522C283.288 212.469 282.733 215.111 280.791 216.223C273.44 220.952 265.673 225.124 257.906 228.878C249.584 232.772 244.452 235.136 237.101 236.527C232.94 237.361 227.947 237.5 217.822 237.778C213.245 238.474 209.777 238.474 206.865 238.474Z" fill="black"/>
<path d="M152.216 201.761C188.602 201.761 218.098 172.187 218.098 135.705C218.098 99.2238 188.602 69.6498 152.216 69.6498C115.83 69.6498 86.334 99.2238 86.334 135.705C86.334 172.187 115.83 201.761 152.216 201.761Z" fill="black"/>
<path d="M152.216 190.775C182.55 190.775 207.141 166.119 207.141 135.706C207.141 105.292 182.55 80.6361 152.216 80.6361C121.882 80.6361 97.291 105.292 97.291 135.706C97.291 166.119 121.882 190.775 152.216 190.775Z" fill="white"/>
<path d="M152.216 182.292C177.878 182.292 198.68 161.434 198.68 135.705C198.68 109.976 177.878 89.1189 152.216 89.1189C126.555 89.1189 105.752 109.976 105.752 135.705C105.752 161.434 126.555 182.292 152.216 182.292Z" fill="black"/>
<path d="M147.535 136.242C158.858 132.923 165.841 122.703 163.132 113.415C160.424 104.127 149.05 99.2877 137.728 102.607C126.405 105.925 119.422 116.145 122.13 125.434C124.839 134.722 136.213 139.561 147.535 136.242Z" fill="white"/>
<path d="M170.454 151.26C175.16 149.88 178.068 145.655 176.95 141.822C175.833 137.988 171.112 135.999 166.407 137.378C161.701 138.757 158.793 142.983 159.911 146.816C161.028 150.649 165.749 152.639 170.454 151.26Z" fill="white"/>
<path d="M281.622 200.648C318.161 200.648 347.782 170.95 347.782 134.315C347.782 97.6796 318.161 67.9811 281.622 67.9811C245.084 67.9811 215.463 97.6796 215.463 134.315C215.463 170.95 245.084 200.648 281.622 200.648Z" fill="black"/>
<path d="M281.622 189.384C311.956 189.384 336.547 164.729 336.547 134.315C336.547 103.901 311.956 79.2454 281.622 79.2454C251.288 79.2454 226.697 103.901 226.697 134.315C226.697 164.729 251.288 189.384 281.622 189.384Z" fill="white"/>
<path d="M281.622 180.901C307.284 180.901 328.087 160.044 328.087 134.315C328.087 108.586 307.284 87.7283 281.622 87.7283C255.961 87.7283 235.158 108.586 235.158 134.315C235.158 160.044 255.961 180.901 281.622 180.901Z" fill="black"/>
<path d="M276.941 134.969C288.264 131.65 295.247 121.43 292.539 112.142C289.83 102.854 278.456 98.0146 267.134 101.333C255.811 104.652 248.828 114.872 251.537 124.16C254.245 133.449 265.619 138.288 276.941 134.969Z" fill="white"/>
<path d="M299.86 149.987C304.566 148.607 307.474 144.382 306.357 140.549C305.239 136.715 300.518 134.726 295.813 136.105C291.107 137.485 288.199 141.71 289.317 145.543C290.434 149.377 295.155 151.366 299.86 149.987Z" fill="white"/>
<path d="M223.35 77.7808C223.725 76.2125 221.131 74.2439 217.556 73.3838C213.98 72.5237 210.777 73.0979 210.402 74.6662C210.027 76.2346 212.621 78.2032 216.196 79.0633C219.772 79.9233 222.975 79.3492 223.35 77.7808Z" fill="white"/>
<path d="M230.858 79.9408C232.237 79.9408 233.354 78.8201 233.354 77.4376C233.354 76.0551 232.237 74.9344 230.858 74.9344C229.479 74.9344 228.361 76.0551 228.361 77.4376C228.361 78.8201 229.479 79.9408 230.858 79.9408Z" fill="white"/>
<defs>
<linearGradient id="paint0_linear" x1="157.508" y1="262.471" x2="197.407" y2="297.519" gradientUnits="userSpaceOnUse">
<stop stop-color="#897E16"/>
<stop offset="0.2727" stop-color="#FF8D27"/>
<stop offset="0.6809" stop-color="#FF9A2C"/>
<stop offset="0.7849" stop-color="#FFA02C"/>
<stop offset="0.9189" stop-color="#FFB02B"/>
<stop offset="1" stop-color="#FFBD2B"/>
</linearGradient>
<linearGradient id="paint1_linear" x1="314.8" y1="280.127" x2="273.083" y2="341.568" gradientUnits="userSpaceOnUse">
<stop stop-color="#897E16"/>
<stop offset="0.2727" stop-color="#FF8D27"/>
<stop offset="0.6809" stop-color="#FF9A2C"/>
<stop offset="0.7849" stop-color="#FFA02C"/>
<stop offset="0.9189" stop-color="#FFB02B"/>
<stop offset="1" stop-color="#FFBD2B"/>
</linearGradient>
<linearGradient id="paint2_linear" x1="196.633" y1="256.05" x2="236.86" y2="323.76" gradientUnits="userSpaceOnUse">
<stop stop-color="#897E16"/>
<stop offset="0.2727" stop-color="#FF8D27"/>
<stop offset="0.6809" stop-color="#FF9A2C"/>
<stop offset="0.7849" stop-color="#FFA02C"/>
<stop offset="0.9189" stop-color="#FFB02B"/>
<stop offset="1" stop-color="#FFBD2B"/>
</linearGradient>
<linearGradient id="paint3_linear" x1="285.404" y1="261.453" x2="245.505" y2="296.501" gradientUnits="userSpaceOnUse">
<stop stop-color="#897E16"/>
<stop offset="0.2727" stop-color="#FF8D27"/>
<stop offset="0.6809" stop-color="#FF9A2C"/>
<stop offset="0.7849" stop-color="#FFA02C"/>
<stop offset="0.9189" stop-color="#FFB02B"/>
<stop offset="1" stop-color="#FFBD2B"/>
</linearGradient>
<linearGradient id="paint4_linear" x1="213.442" y1="59.0113" x2="214.929" y2="249.39" gradientUnits="userSpaceOnUse">
<stop stop-color="#897E16"/>
<stop offset="0.2727" stop-color="#FF8D27"/>
<stop offset="0.6809" stop-color="#FF9A2C"/>
<stop offset="0.7849" stop-color="#FFA02C"/>
<stop offset="0.9189" stop-color="#FFB02B"/>
<stop offset="1" stop-color="#FFBD2B"/>
</linearGradient>
</defs>
</svg>
