<svg width="340" height="340" viewBox="0 0 340 340" fill="none" xmlns="http://www.w3.org/2000/svg">
<path d="M205.052 241.608C216.824 250.519 227.15 253.317 234.688 253.938C249.97 255.389 267.008 249.69 268.867 254.146C269.796 256.425 267.008 258.394 268.454 261.502C270.106 265.129 274.753 264.3 279.812 269.584C280.845 270.724 281.878 271.864 282.704 273.626C284.769 278.185 283.323 284.091 281.155 288.132C279.296 291.551 277.85 291.448 276.302 295.074C274.546 299.115 275.269 301.706 274.753 303.26C272.481 310.41 240.987 314.036 215.481 303.882C179.753 289.686 165.916 252.591 162.096 241.193C176.552 241.504 190.802 241.504 205.052 241.608Z" fill="#FF1610"/>
<path d="M249.248 313C238.612 313 226.118 311.238 214.449 306.576C180.787 293.209 165.607 260.57 159.618 242.333L158.482 238.914L205.672 239.017L206.395 239.535C215.585 246.478 225.189 250.519 234.689 251.451C241.297 252.073 248.629 251.244 254.411 250.622C263.395 249.69 269.281 248.964 271.036 253.213C271.862 255.181 271.243 256.839 270.83 258.083C270.417 259.326 270.313 259.741 270.623 260.466C271.036 261.295 271.759 261.709 273.618 262.538C275.683 263.471 278.574 264.818 281.362 267.823C282.601 269.17 283.737 270.517 284.77 272.589C287.248 278.081 285.596 284.92 283.221 289.479C282.188 291.344 281.259 292.38 280.536 293.209C279.71 294.038 279.194 294.66 278.471 296.214C277.542 298.39 277.438 300.048 277.438 301.498C277.438 302.431 277.335 303.364 277.128 304.192C276.509 306.161 274.754 307.819 271.965 309.166C267.319 311.446 259.058 313 249.248 313ZM165.711 244.094C172.113 261.917 186.672 289.997 216.411 301.809C237.27 310.099 261.226 308.752 269.797 304.607C271.965 303.571 272.275 302.742 272.275 302.742C272.379 302.535 272.379 301.913 272.379 301.395C272.482 299.841 272.482 297.354 273.824 294.245C274.857 291.862 275.889 290.722 276.819 289.79C277.542 289.064 278.058 288.443 278.781 287.096C280.536 283.78 281.982 278.599 280.226 274.869C279.607 273.522 278.884 272.589 277.748 271.449C275.58 269.17 273.411 268.134 271.552 267.305C269.384 266.269 267.112 265.336 265.976 262.642C264.737 259.948 265.563 257.772 265.976 256.425C266.08 256.114 266.286 255.596 266.286 255.389C264.841 254.767 259.161 255.389 255.031 255.803C248.938 256.425 241.504 257.254 234.275 256.632C223.949 255.7 213.83 251.451 204.02 244.302L165.711 244.094Z" fill="black"/>
<path d="M203.4 252.488C206.292 258.083 216.101 275.594 237.993 285.541C254.411 293.002 269.487 292.587 276.405 291.862L276.922 292.277C276.922 292.277 273.308 297.354 273.721 303.674C273.617 303.778 273.308 304.089 273.101 304.296C270.829 306.265 268.248 306.99 265.46 307.508C260.194 308.544 257.199 308.648 257.199 308.648C247.596 308.959 241.297 309.166 233.449 306.99C227.873 305.436 221.161 303.571 215.792 298.286C205.259 287.925 207.428 272.071 207.944 269.274C207.324 267.823 206.498 266.165 205.569 264.611C203.4 260.673 200.922 257.565 198.65 255.078C199.373 254.767 200.096 254.353 200.922 253.938C201.748 253.42 202.574 253.006 203.4 252.488Z" fill="#9B0707"/>
<path d="M248.732 311.446C243.053 311.446 238.303 311.031 232.624 309.477C226.841 307.923 219.716 305.851 213.83 300.152C203.504 289.997 204.33 275.076 205.157 269.688C204.537 268.445 203.917 267.098 203.195 265.854C201.336 262.642 199.167 259.534 196.586 256.736L194.211 254.146L197.412 252.695C198.135 252.384 198.858 251.97 199.58 251.659C200.407 251.244 201.129 250.83 201.955 250.312L204.33 248.861L205.57 251.348C209.7 259.43 219.51 274.455 238.923 283.262C253.379 289.79 267.113 290.204 276.096 289.375L277.129 289.272L280.33 291.862L278.884 293.831C278.884 293.831 275.787 298.287 276.2 303.467L276.303 304.607L275.477 305.436C275.27 305.643 275.064 305.851 274.651 306.161C271.863 308.648 268.558 309.477 265.874 309.995C260.504 311.135 257.303 311.239 257.2 311.239C254.102 311.446 251.314 311.446 248.732 311.446ZM209.39 266.58C209.7 267.098 209.906 267.719 210.216 268.238L210.526 268.963L210.423 269.688C209.803 273.729 208.461 287.51 217.548 296.421C222.504 301.291 228.7 302.949 234.173 304.504C241.607 306.576 247.803 306.369 257.2 306.058C257.2 306.058 260.091 305.954 265.047 304.918C267.732 304.4 269.591 303.778 271.243 302.535C271.243 299.53 271.966 296.732 272.792 294.764C263.395 295.178 250.488 294.038 236.961 287.925C224.26 282.226 215.379 274.04 209.39 266.58Z" fill="black"/>
<path d="M247.183 286.06C243.466 290.619 238.096 291.655 235.205 292.173C234.585 292.277 221.987 294.453 212.591 285.749C209.803 283.158 208.254 280.568 207.324 278.806C206.602 287.614 205.776 296.525 205.053 305.332C209.286 307.094 223.536 312.482 239.025 306.576C243.259 305.021 253.379 301.188 258.748 290.619C262.672 282.847 264.634 269.999 257.302 261.709C252.552 256.321 245.944 255.285 244.188 255.078C241.917 254.767 234.482 253.627 230.145 258.29C229.629 258.912 226.944 261.709 227.667 265.129C228.39 268.445 232.21 270.931 235.101 270.517C238.406 270.102 238.716 266.269 242.433 265.647C244.808 265.232 247.286 266.476 248.629 267.719C252.862 271.553 251.623 280.671 247.183 286.06Z" fill="url(#paint0_linear)"/>
<path d="M224.156 312.896C215.482 312.896 208.151 310.513 203.711 308.648C202.265 308.026 201.336 306.576 201.542 305.021L203.814 278.495C203.917 276.838 205.156 275.594 206.705 275.283C208.254 274.973 209.906 275.698 210.629 277.148C211.765 279.428 213.314 281.397 215.173 283.158C223.33 290.722 234.586 288.754 234.689 288.754C237.27 288.236 241.607 287.407 244.499 283.884C247.906 279.739 248.836 272.797 246.357 270.413C245.634 269.688 244.292 269.066 243.259 269.274C242.64 269.377 242.33 269.688 241.504 270.621C240.471 271.864 238.819 273.729 235.825 274.144C230.868 274.765 225.499 271.035 224.363 265.958C223.64 262.538 224.776 259.015 227.77 255.907C231.488 251.969 237.27 250.519 244.912 251.555C251.107 252.488 256.477 255.285 260.194 259.43C268.352 268.548 266.906 282.951 262.156 292.38C256.167 304.193 244.808 308.441 240.471 310.099C234.689 312.067 229.113 312.896 224.156 312.896ZM208.874 302.949C215.482 305.332 226.325 307.508 237.787 303.156C241.711 301.706 250.901 298.183 255.547 288.961C259.265 281.604 260.504 270.724 254.618 264.093C252.037 261.191 248.216 259.223 243.776 258.601C241.814 258.29 235.928 257.461 232.933 260.673C231.694 262.02 231.178 263.264 231.385 264.196C231.694 265.751 233.76 266.89 234.792 266.787C234.999 266.787 235.205 266.579 236.031 265.647C237.167 264.404 238.923 262.435 242.02 261.917C245.841 261.295 249.352 263.16 251.314 265.025C257.2 270.621 255.341 281.811 250.075 288.339C245.531 293.934 239.026 295.178 235.928 295.8C235.308 295.903 221.059 298.494 210.113 288.443L208.874 302.949Z" fill="black"/>
<path d="M151.357 248.965C149.602 254.664 147.846 260.881 146.401 267.616C145.265 273.004 144.335 278.081 143.613 282.951C142.993 283.469 138.759 286.474 133.906 285.023C132.357 284.609 131.221 283.78 130.395 283.158C120.586 272.693 141.754 247.721 141.754 247.721C144.955 248.239 148.156 248.654 151.357 248.965Z" fill="url(#paint1_linear)"/>
<path d="M135.972 284.298C134.836 282.847 133.39 280.464 132.977 277.356C132.667 274.869 132.977 271.864 137.727 263.471C139.689 260.051 142.477 255.596 146.194 250.622C145.265 250.104 143.819 249.379 142.064 249.586C135.249 250.519 131.015 266.061 131.015 266.061L127.607 276.008C130.395 278.806 133.183 281.604 135.972 284.298Z" fill="#FF6D27"/>
<path d="M151.358 250.519C151.358 250.519 132.874 303.674 151.358 307.819C151.358 307.819 156.934 310.306 162.819 299.012C162.819 299.012 173.662 302.846 185.02 299.426C186.259 301.395 188.944 305.229 193.694 307.094C195.14 307.612 197.102 308.441 199.477 307.923C199.477 307.923 202.162 307.301 204.64 304.4C208.047 300.359 209.08 289.479 207.015 275.594C205.879 268.963 203.917 259.741 199.89 249.275C183.575 249.586 167.466 250.001 151.358 250.519Z" fill="url(#paint2_linear)"/>
<path d="M200.199 248.343C202.471 255.078 204.536 262.746 206.085 271.346C206.808 275.594 207.324 279.739 207.737 283.573C208.46 284.091 212.074 286.681 216.308 285.645C216.618 285.542 219.302 284.816 221.058 282.537C226.531 275.387 217.65 260.259 216.101 257.565C213.313 252.798 210.112 249.068 207.427 246.478C205.052 247.099 202.574 247.721 200.199 248.343Z" fill="url(#paint3_linear)"/>
<path d="M161.581 246.892C158.793 251.762 155.902 258.497 155.489 266.89C155.179 272.486 154.869 277.977 158.483 283.158C163.749 290.826 173.353 291.447 174.385 291.551C181.304 291.966 188.842 288.857 192.869 282.847C196.38 277.666 196.173 272.175 195.967 267.616C195.554 258.186 191.733 250.933 188.945 246.892C179.858 246.892 170.668 246.892 161.581 246.892Z" fill="#FCE9AE"/>
<path d="M217.547 283.883C217.547 283.883 224.878 277.874 204.949 251.037C204.949 251.037 209.802 249.172 210.319 249.793C210.835 250.415 220.542 266.269 220.542 266.269L223.743 276.216L217.547 283.883Z" fill="#FFE227"/>
<path d="M154.868 306.058C154.868 306.058 141.651 300.877 156.21 251.762L152.183 250.415C152.183 250.415 138.553 296.214 143.612 301.291C148.672 306.369 154.868 306.058 154.868 306.058Z" fill="#FF6D27"/>
<path d="M199.064 304.503C199.787 303.053 200.716 300.773 201.439 298.079C202.988 292.38 203.091 287.199 202.265 280.464C201.026 269.688 198.238 260.052 195.76 252.902C197.102 252.487 198.445 252.073 199.787 251.555C199.787 251.555 213.314 297.354 208.358 302.431C207.531 303.26 206.189 305.436 203.608 305.747C201.439 305.954 199.787 305.021 199.064 304.503Z" fill="#FFE227"/>
<path d="M157.76 272.382C158.07 273.211 160.445 279.221 165.091 282.122C167.466 283.573 170.358 284.402 170.358 284.402C171.287 284.609 172.216 284.816 173.249 285.023L174.694 285.23L175.417 285.334H175.83H176.14C179.961 285.231 183.885 284.091 186.879 281.811C189.977 279.635 192.145 275.905 193.488 271.76C193.488 272.796 193.591 273.936 193.385 275.076C193.178 276.112 193.075 277.356 192.662 278.392C191.939 280.568 190.7 282.64 188.944 284.298C187.292 285.956 185.227 287.303 182.955 288.132C180.787 288.961 178.515 289.375 176.037 289.479H175.83H175.521L175.107 289.375L174.281 289.272L172.526 289.064C171.906 288.961 171.39 288.754 170.874 288.65C170.048 288.443 169.531 288.235 169.222 288.132C165.504 286.992 163.646 286.37 162.923 285.956C161.374 284.92 160.754 283.573 159.825 281.811C157.966 278.288 157.657 274.869 157.76 272.382Z" fill="#FFC280"/>
<path d="M175.211 294.245C174.798 294.245 174.385 294.245 173.972 294.245C172.01 294.142 161.89 293.209 156.108 284.712C151.977 278.703 152.39 272.382 152.7 266.787C153.113 259.43 155.282 252.384 159.205 245.649C159.619 244.82 160.548 244.405 161.374 244.405L188.841 244.302C189.667 244.302 190.493 244.716 191.01 245.442C195.553 252.177 198.135 259.844 198.444 267.512C198.651 272.382 198.857 278.392 194.934 284.402C190.597 290.411 183.059 294.245 175.211 294.245ZM162.82 249.586C159.825 255.182 158.07 261.088 157.76 267.098C157.45 272.278 157.244 277.252 160.341 281.811C164.885 288.443 173.352 289.064 174.281 289.064C180.787 289.375 187.189 286.37 190.493 281.5C193.488 277.045 193.385 272.071 193.178 267.823C192.972 261.606 190.906 255.285 187.396 249.586H162.82Z" fill="black"/>
<path d="M136.902 288.65C135.766 288.65 134.63 288.546 133.494 288.132C131.842 287.614 130.19 286.785 128.848 285.645C128.744 285.541 128.641 285.438 128.538 285.334C117.179 273.211 137.418 248.55 139.793 245.752C140.516 244.923 141.445 244.509 142.478 244.716L152.184 245.856C153.114 245.96 153.94 246.478 154.456 247.307C154.972 248.032 155.076 249.068 154.766 249.897C152.907 255.907 151.255 262.124 149.913 268.341C148.777 273.315 147.847 278.392 147.125 283.469C147.021 284.298 146.608 285.023 145.885 285.541C144.75 286.37 141.239 288.65 136.902 288.65ZM132.875 280.982C133.598 281.5 134.32 281.915 135.146 282.122C137.521 282.847 139.896 281.915 141.136 281.086C141.858 276.319 142.684 271.657 143.717 266.994C144.853 261.813 146.195 256.736 147.641 251.658L143.304 251.14C137.934 258.083 127.195 274.454 132.875 280.982Z" fill="black"/>
<path d="M198.134 311.135C195.863 311.135 194.004 310.41 192.868 309.995C188.738 308.337 185.95 305.54 183.988 303.053C176.14 304.814 168.809 303.674 164.988 302.846C163.542 305.747 160.858 309.788 155.901 310.824C155.178 311.031 151.254 311.757 147.537 309.581C138.553 304.4 139.999 287.096 141.651 277.148C144.026 263.264 148.57 250.104 148.673 249.586C149.086 248.343 150.222 247.514 151.564 247.514L199.89 246.271C201.232 246.271 202.368 246.996 202.884 248.239C206.292 257.047 208.77 266.061 210.216 275.18C212.488 289.893 211.249 301.499 207.118 306.472C204.124 309.995 200.716 310.928 200.303 311.031C199.58 311.031 198.857 311.135 198.134 311.135ZM185.33 296.214C186.363 296.214 187.395 296.732 188.015 297.768C189.254 299.944 191.526 302.742 195.14 304.193C196.482 304.711 197.721 305.125 199.064 304.814C199.064 304.814 200.819 304.296 202.471 302.327C204.743 299.633 206.292 290.204 204.124 276.009C202.781 268.03 200.716 260.052 197.928 252.384L154.042 253.524C152.7 257.668 149.602 267.823 147.95 278.081C145.678 291.551 146.814 301.809 150.841 304.089C152.597 305.021 154.765 304.607 154.765 304.607C158.689 303.778 160.341 298.079 160.341 298.079C160.548 297.25 161.167 296.628 161.89 296.214C162.613 295.8 163.542 295.8 164.368 296.007C164.472 296.007 174.488 299.426 184.607 296.421C184.711 296.318 185.02 296.214 185.33 296.214Z" fill="black"/>
<path d="M214.552 289.065C210.628 289.065 207.634 287.096 206.291 286.163C205.569 285.645 205.156 284.816 205.052 283.987C204.639 279.946 204.123 275.905 203.4 271.968C202.058 264.3 200.096 256.736 197.618 249.379C197.308 248.55 197.411 247.618 197.824 246.892C198.237 246.167 198.96 245.545 199.786 245.338L207.014 243.473C208.047 243.162 209.183 243.473 209.906 244.302C213.52 247.825 216.617 251.762 219.096 256.011C224.362 264.922 229.422 277.149 223.846 284.505C221.471 287.614 218.063 288.65 217.34 288.754C216.411 288.961 215.482 289.065 214.552 289.065ZM211.041 281.811C212.177 282.433 214.036 283.158 215.895 282.64C215.895 282.64 217.857 282.122 218.992 280.568C221.574 277.149 219.612 268.963 213.829 259.016C211.868 255.7 209.596 252.591 206.911 249.794L204.536 250.415C206.601 257.047 208.253 263.886 209.493 270.724C210.112 274.455 210.628 278.185 211.041 281.811Z" fill="black"/>
<path d="M155.281 104.419C150.428 103.279 145.678 102.139 140.411 98.9269C134.113 95.093 131.015 90.7411 128.95 91.8809C126.988 92.8135 128.536 97.5799 126.161 98.8233C124.406 99.7558 121.928 98.2016 120.379 97.3726C115.216 94.2641 113.667 89.7049 112.531 90.1194C111.189 90.6375 113.77 96.7509 110.879 99.6522C109.02 101.517 105.922 100.999 105.716 100.999C99.7268 99.963 97.0421 90.7411 95.9062 91.1556C94.7703 91.57 99.9334 101.725 95.6997 107.32C94.0475 109.496 91.5693 110.221 90.4334 110.532C85.2704 111.983 81.8628 109.289 73.8085 106.905C72.2596 106.387 60.1782 102.968 58.6293 105.455C57.5966 107.113 60.901 110.118 66.5803 117.992C66.5803 117.992 66.7868 118.2 66.9933 118.511C66.9933 118.511 71.7433 124.935 75.4607 131.359C79.6943 138.716 75.7705 155.502 76.0802 170.526C76.1835 176.018 77.2161 192.7 87.0258 209.383C95.5964 223.993 107.368 232.49 112.841 236.323C121.102 242.126 128.227 245.234 130.085 246.063C146.917 253.109 161.58 252.798 175.417 252.384C192.145 251.866 208.563 251.348 225.601 241.297C234.791 235.909 241.4 229.485 244.498 226.169C247.596 222.853 253.791 216.222 258.438 206.482C258.438 206.482 268.97 184.411 264.84 142.55C264.737 141.721 264.53 139.234 264.84 135.918C265.356 130.53 267.112 126.178 268.97 122.448C275.269 109.91 282.188 105.869 280.845 103.486C279.4 100.896 269.59 103.072 264.427 104.729C259.367 106.387 256.992 108.252 252.655 107.631C251.416 107.423 247.286 106.905 245.221 103.797C241.916 98.9269 246.46 90.8447 245.324 90.4303C243.878 89.8086 239.645 100.999 233.449 100.999C233.139 100.999 231.9 100.999 230.764 100.274C226.737 97.8907 227.873 90.8447 226.221 90.5339C224.569 90.223 223.329 97.1654 218.579 98.3052C218.063 98.4088 217.134 98.616 216.101 98.3052C213.107 97.4762 212.9 93.5388 210.938 93.2279C209.079 92.9171 207.84 96.0256 205.259 98.5124C203.194 100.481 201.128 101.31 188.427 103.59C178.927 105.248 174.178 106.076 171.286 106.076C169.324 106.387 163.129 106.284 155.281 104.419Z" fill="url(#paint4_linear)"/>
<path d="M62.7595 109.496C65.6508 111.361 79.4877 119.961 90.743 118.614C92.6017 118.407 95.6995 117.992 98.1778 115.506C101.482 112.293 101.585 107.734 101.482 106.284C100.553 107.009 99.7267 107.838 98.7973 108.563C98.7973 108.563 85.4768 111.361 84.7539 110.739C84.0311 110.118 73.2921 106.387 71.8464 106.076C70.4008 105.766 62.6562 105.558 62.6562 105.558V109.496H62.7595Z" fill="#444406"/>
<path d="M279.605 106.594C276.714 108.46 262.877 117.06 251.622 115.713C249.763 115.506 246.665 115.091 244.187 112.604C240.883 109.392 240.779 104.833 240.883 103.382C241.812 104.108 242.638 104.937 243.567 105.662C243.567 105.662 256.888 108.46 257.611 107.838C258.334 107.216 269.073 103.486 270.518 103.175C271.964 102.864 279.708 102.657 279.708 102.657V106.594H279.605Z" fill="#444406"/>
<path d="M76.9062 180.059L89.504 214.045L109.02 232.8C109.02 232.8 129.569 245.027 133.906 247.721C138.243 250.415 155.384 254.353 157.862 254.456C160.341 254.56 191.525 249.586 193.281 250.311C195.036 251.037 214.242 246.27 218.166 245.027C222.09 243.784 253.275 218.708 253.585 217.154C253.894 215.6 262.775 184.722 262.775 184.722L256.166 190.835C256.166 190.835 246.873 222.231 222.606 234.044C195.449 247.307 168.911 245.96 155.074 243.991C150.118 243.266 142.89 242.126 134.009 238.706C110.982 229.795 98.0746 213.631 94.1507 208.347C85.1671 196.223 80.9334 184.1 78.9715 175.914L76.9062 180.059Z" fill="#FC9F42"/>
<path d="M164.988 256.84C153.939 256.84 141.754 255.7 128.021 250.001C124.613 248.55 117.798 245.338 110.053 239.846C105.2 236.427 92.2925 227.309 83.1023 211.559C73.6024 195.291 71.8469 178.919 71.6404 170.63C71.5372 165.035 71.9502 159.336 72.3632 153.948C72.9828 145.658 73.6024 137.058 71.5372 133.431C68.0263 127.318 63.3796 120.997 63.3796 120.997L62.9666 120.479C61.4177 118.303 60.0753 116.542 58.8362 114.988C55.1188 110.118 52.6405 106.905 54.809 103.279C56.4612 100.585 59.972 98.616 74.635 102.864C77.2165 103.59 79.2817 104.419 81.1404 105.04C85.1675 106.491 86.8197 107.113 88.9882 106.491C89.8142 106.284 91.3631 105.766 92.086 104.729C93.7381 102.45 92.6023 97.5798 91.8794 94.9894C91.2599 92.6062 90.3305 88.5651 94.0479 87.1145C97.662 85.7675 99.7272 89.1868 100.76 91.052C101.896 92.9171 103.858 96.3364 105.923 96.7509C106.542 96.8545 107.368 96.7509 107.575 96.5437C107.988 96.0256 107.782 93.746 107.678 92.9171C107.472 90.9483 107.162 87.3217 110.673 85.9747C113.977 84.7313 116.042 87.529 117.178 88.9796C118.211 90.3266 119.656 92.1917 121.928 93.6424C122.135 93.746 122.548 94.0569 123.064 94.2641C123.271 92.399 123.684 89.4977 126.472 88.0471C130.086 86.2856 133.184 88.7724 136.178 91.1556C137.83 92.5026 139.586 93.9532 141.961 95.3003C146.711 98.2015 150.841 99.1341 155.694 100.378L154.765 104.419L155.694 100.378C162.406 102.035 167.982 102.139 170.667 102.139C173.145 102.139 178.102 101.206 187.085 99.6522C198.857 97.5798 200.613 96.8545 201.852 95.7147C202.574 94.9894 203.194 94.2641 203.814 93.4351C205.259 91.57 207.531 88.6688 211.145 89.2905C213.83 89.8085 215.172 91.9845 215.895 93.3315C216.102 93.746 216.515 94.3677 216.721 94.5749C216.721 94.5749 216.928 94.4713 217.031 94.4713C218.167 94.1605 219.199 92.2954 220.025 90.9483C221.058 89.0832 222.813 86.0783 226.324 86.5964C229.835 87.2181 230.558 90.7411 230.868 92.8134C231.074 94.1605 231.487 96.3364 232.313 96.8545C232.417 96.9581 232.623 96.9581 232.933 97.0618C234.688 97.0618 237.58 92.8134 238.819 91.052C240.574 88.4615 242.743 85.353 246.357 86.8036C250.074 88.3579 249.042 92.5026 248.525 94.4713C248.009 96.5437 246.976 100.067 248.112 101.725C248.525 102.45 249.764 103.279 252.656 103.693C254.618 103.9 255.753 103.486 258.542 102.45C259.677 102.035 261.02 101.517 262.569 100.999C270.52 98.4088 280.742 96.3364 283.84 101.621C285.905 105.248 283.427 108.356 280.742 111.568C278.367 114.469 275.166 118.303 272.069 124.417C270.623 127.318 268.868 131.359 268.351 136.333C268.041 139.13 268.351 141.306 268.351 142.135C272.585 184.722 262.052 207.414 261.536 208.347C256.476 218.812 249.764 225.962 246.873 229.07C242.743 233.422 236.031 239.743 227.047 244.924C209.08 255.493 191.732 256.011 174.901 256.529C171.906 256.736 168.499 256.84 164.988 256.84ZM64.6187 109.081C64.8252 109.392 65.0318 109.599 65.2383 109.91C66.3742 111.465 67.8198 113.33 69.472 115.506L69.885 116.024C70.0915 116.335 74.8415 122.759 78.5589 129.287C81.9665 135.089 81.2436 144.104 80.4175 154.569C80.0045 159.854 79.5915 165.242 79.6947 170.423C79.9012 177.883 81.4502 192.701 90.0208 207.311C98.2816 221.506 109.743 229.588 114.597 233.008C121.722 237.981 127.917 240.986 131.015 242.23C147.33 249.068 161.89 248.654 174.694 248.239C191.216 247.721 206.705 247.203 222.917 237.774C231.074 233.008 237.167 227.309 240.884 223.371C243.569 220.574 249.661 214.046 254.101 204.72C254.205 204.513 264.118 182.96 260.09 143.068C259.987 141.928 259.677 139.234 259.987 135.607C260.607 129.183 262.672 124.313 264.531 120.686C267.835 114.159 271.346 109.703 273.721 106.802C271.243 107.113 268.041 107.838 264.944 108.874C263.601 109.289 262.465 109.807 261.433 110.221C258.438 111.465 255.547 112.604 251.417 111.983C246.563 111.361 243.156 109.496 241.091 106.387C240.368 105.248 239.851 104.004 239.542 102.761C237.58 104.315 235.308 105.351 232.726 105.351C230.971 105.351 229.319 104.833 227.873 104.004C225.911 102.864 224.672 101.103 223.846 99.3413C222.607 100.688 220.852 101.932 218.683 102.45C217.96 102.657 216.205 103.072 214.036 102.45C211.765 101.828 210.422 100.378 209.493 99.1341C208.873 99.963 208.15 100.792 207.324 101.621C204.33 104.522 201.335 105.455 188.325 107.734C178.308 109.496 173.765 110.325 170.564 110.325C165.194 110.325 159.205 109.703 153.629 108.356L154.558 104.315L153.629 108.356C148.569 107.113 143.406 105.869 137.624 102.346C134.836 100.688 132.667 98.9269 131.015 97.5798L130.912 97.4762C130.499 99.2377 129.673 101.206 127.504 102.346C123.684 104.419 119.656 101.932 117.694 100.792C116.868 100.274 116.042 99.7558 115.32 99.1341C114.906 100.274 114.287 101.517 113.254 102.45C110.053 105.662 105.407 105.04 104.477 104.937C103.135 104.729 101.896 104.211 100.863 103.59C100.553 105.662 99.9337 107.838 98.4881 109.703C96.0098 113.019 92.499 114.055 91.0534 114.469C86.2001 115.92 82.3795 114.469 78.0426 112.915C76.2871 112.293 74.4285 111.568 72.0535 110.946C69.1622 110.014 66.5807 109.392 64.6187 109.081Z" fill="black"/>
<path d="M165.091 239.95C163.026 239.95 161.477 239.846 160.135 239.639C158.689 239.432 154.352 238.81 144.646 234.355C138.347 231.453 132.151 228.034 126.265 224.097C124.82 223.164 124.407 221.195 125.336 219.745C126.265 218.294 128.227 217.879 129.673 218.812C135.352 222.542 141.238 225.858 147.227 228.552C153.113 231.246 157.76 232.904 160.961 233.318C163.233 233.629 166.537 233.526 173.042 233.318C180.271 233.111 183.885 233.008 186.466 232.489C190.906 231.661 193.798 230.314 200.406 227.205C205.982 224.615 211.455 221.506 216.825 218.19C218.27 217.258 220.232 217.672 221.058 219.123C221.988 220.574 221.575 222.542 220.129 223.371C214.656 226.894 208.874 230.003 203.091 232.8C196.895 235.702 193.075 237.463 187.602 238.499C184.504 239.121 180.787 239.225 173.249 239.432C169.738 239.846 167.156 239.95 165.091 239.95Z" fill="#FF6D27"/>
<path d="M164.884 237.256C162.819 237.256 161.27 237.152 159.928 236.945C158.482 236.738 154.145 236.116 144.439 231.661C138.14 228.759 131.944 225.34 126.058 221.402C124.613 220.47 124.2 218.501 125.129 217.05C126.058 215.6 128.02 215.185 129.466 216.118C135.145 219.848 141.031 223.164 147.02 225.858C152.906 228.552 157.553 230.21 160.754 230.624C163.026 230.935 166.33 230.832 172.835 230.624C180.064 230.417 183.678 230.314 186.259 229.795C190.699 228.966 193.797 227.619 200.199 224.511C205.775 221.921 211.248 218.812 216.618 215.496C218.063 214.564 220.025 214.978 220.851 216.429C221.677 217.879 221.368 219.848 219.922 220.677C214.449 224.2 208.667 227.309 202.884 230.106C196.688 233.008 192.868 234.769 187.395 235.805C184.297 236.427 180.58 236.531 173.042 236.738C169.634 237.152 166.949 237.256 164.884 237.256Z" fill="black"/>
<path d="M124.199 209.797C151.288 209.797 173.248 187.761 173.248 160.579C173.248 133.397 151.288 111.361 124.199 111.361C97.1102 111.361 75.1504 133.397 75.1504 160.579C75.1504 187.761 97.1102 209.797 124.199 209.797Z" fill="black"/>
<path d="M124.2 201.612C146.783 201.612 165.091 183.241 165.091 160.579C165.091 137.917 146.783 119.547 124.2 119.547C101.616 119.547 83.3086 137.917 83.3086 160.579C83.3086 183.241 101.616 201.612 124.2 201.612Z" fill="white"/>
<path d="M124.2 195.291C143.304 195.291 158.792 179.75 158.792 160.579C158.792 141.408 143.304 125.867 124.2 125.867C105.095 125.867 89.6074 141.408 89.6074 160.579C89.6074 179.75 105.095 195.291 124.2 195.291Z" fill="black"/>
<path d="M120.734 161.073C129.164 158.6 134.363 150.985 132.346 144.065C130.33 137.144 121.862 133.539 113.433 136.011C105.003 138.484 99.8045 146.099 101.821 153.02C103.837 159.941 112.305 163.546 120.734 161.073Z" fill="white"/>
<path d="M137.798 172.263C141.301 171.236 143.466 168.087 142.634 165.231C141.802 162.375 138.288 160.893 134.784 161.92C131.281 162.948 129.116 166.096 129.948 168.952C130.78 171.809 134.295 173.291 137.798 172.263Z" fill="white"/>
<path d="M220.439 209.072C247.642 209.072 269.694 186.943 269.694 159.646C269.694 132.349 247.642 110.221 220.439 110.221C193.236 110.221 171.184 132.349 171.184 159.646C171.184 186.943 193.236 209.072 220.439 209.072Z" fill="black"/>
<path d="M220.438 200.679C243.021 200.679 261.329 182.308 261.329 159.647C261.329 136.985 243.021 118.614 220.438 118.614C197.854 118.614 179.547 136.985 179.547 159.647C179.547 182.308 197.854 200.679 220.438 200.679Z" fill="white"/>
<path d="M220.438 194.358C239.543 194.358 255.03 178.817 255.03 159.646C255.03 140.476 239.543 124.935 220.438 124.935C201.333 124.935 185.846 140.476 185.846 159.646C185.846 178.817 201.333 194.358 220.438 194.358Z" fill="black"/>
<path d="M216.977 160.154C225.406 157.681 230.605 150.066 228.589 143.145C226.572 136.225 218.104 132.619 209.675 135.092C201.246 137.565 196.047 145.18 198.063 152.101C200.079 159.021 208.547 162.627 216.977 160.154Z" fill="white"/>
<path d="M234.138 171.315C237.641 170.287 239.806 167.139 238.974 164.283C238.142 161.427 234.627 159.944 231.124 160.972C227.621 162 225.456 165.148 226.288 168.004C227.12 170.86 230.634 172.343 234.138 171.315Z" fill="white"/>
<path d="M193.901 48.5686C192.043 46.1854 187.499 41.3154 187.499 41.3154C187.499 41.3154 182.956 46.2891 181.097 48.5686C179.239 50.9518 176.967 56.3399 176.967 56.858L181.097 65.7691C181.097 65.7691 182.13 56.7544 184.092 52.9206C186.054 49.0867 187.499 47.8433 187.499 47.8433C187.499 47.8433 188.945 49.0867 190.907 52.9206C192.869 56.7544 193.901 65.7691 193.901 65.7691L198.032 56.858C198.135 56.3399 195.76 50.8482 193.901 48.5686Z" fill="#FFBD2B"/>
<path d="M229.319 48.5686C227.461 46.1854 222.917 41.3154 222.917 41.3154C222.917 41.3154 218.374 46.2891 216.515 48.5686C214.656 50.9518 212.385 56.3399 212.385 56.858L216.515 65.7691C216.515 65.7691 217.548 56.7544 219.51 52.9206C221.472 49.0867 222.917 47.8433 222.917 47.8433C222.917 47.8433 224.363 49.0867 226.325 52.9206C228.287 56.7544 229.319 65.7691 229.319 65.7691L233.45 56.858C233.45 56.3399 231.178 50.8482 229.319 48.5686Z" fill="#FFBD2B"/>
<path d="M159.308 48.5686C157.449 46.1854 152.906 41.3154 152.906 41.3154C152.906 41.3154 148.362 46.2891 146.503 48.5686C144.645 50.9518 142.373 56.3399 142.373 56.858L146.503 65.7691C146.503 65.7691 147.536 56.7544 149.498 52.9206C151.46 49.0867 152.906 47.8433 152.906 47.8433C152.906 47.8433 154.351 49.0867 156.313 52.9206C158.275 56.7544 159.308 65.7691 159.308 65.7691L163.438 56.858C163.541 56.3399 161.166 50.8482 159.308 48.5686Z" fill="#FFBD2B"/>
<path d="M122.96 49.5013C121.101 47.1181 116.558 42.248 116.558 42.248C116.558 42.248 112.014 47.2217 110.156 49.5013C108.297 51.8845 106.025 57.2725 106.025 57.7906L110.156 66.7017C110.156 66.7017 111.188 57.687 113.15 53.8532C115.112 50.0193 116.558 48.7759 116.558 48.7759C116.558 48.7759 118.004 50.0193 119.966 53.8532C121.927 57.687 122.96 66.7017 122.96 66.7017L127.09 57.7906C127.09 57.2725 124.819 51.8845 122.96 49.5013Z" fill="#FFBD2B"/>
<path d="M122.96 49.5013C121.101 47.1181 116.558 42.248 116.558 42.248C116.558 42.248 112.014 47.2217 110.156 49.5013C108.297 51.8845 106.025 57.2725 106.025 57.7906L110.156 66.7017C110.156 66.7017 111.188 57.687 113.15 53.8532C115.112 50.0193 116.558 48.7759 116.558 48.7759C116.558 48.7759 118.004 50.0193 119.966 53.8532C121.927 57.687 122.96 66.7017 122.96 66.7017L127.09 57.7906C127.09 57.2725 124.819 51.8845 122.96 49.5013Z" stroke="black" stroke-width="2" stroke-miterlimit="10" stroke-linecap="round" stroke-linejoin="round"/>
<path d="M229.319 48.5686C227.461 46.1854 222.917 41.3154 222.917 41.3154C222.917 41.3154 218.374 46.2891 216.515 48.5686C214.656 50.9518 212.385 56.3399 212.385 56.858L216.515 65.7691C216.515 65.7691 217.548 56.7544 219.51 52.9206C221.472 49.0867 222.917 47.8433 222.917 47.8433C222.917 47.8433 224.363 49.0867 226.325 52.9206C228.287 56.7544 229.319 65.7691 229.319 65.7691L233.45 56.858C233.45 56.3399 231.178 50.8482 229.319 48.5686Z" stroke="black" stroke-width="2" stroke-miterlimit="10" stroke-linecap="round" stroke-linejoin="round"/>
<path d="M159.308 48.5686C157.449 46.1854 152.906 41.3154 152.906 41.3154C152.906 41.3154 148.362 46.2891 146.503 48.5686C144.645 50.9518 142.373 56.3399 142.373 56.858L146.503 65.7691C146.503 65.7691 147.536 56.7544 149.498 52.9206C151.46 49.0867 152.906 47.8433 152.906 47.8433C152.906 47.8433 154.351 49.0867 156.313 52.9206C158.275 56.7544 159.308 65.7691 159.308 65.7691L163.438 56.858C163.541 56.3399 161.166 50.8482 159.308 48.5686Z" stroke="black" stroke-width="2" stroke-miterlimit="10" stroke-linecap="round" stroke-linejoin="round"/>
<path d="M193.901 48.5686C192.043 46.1854 187.499 41.3154 187.499 41.3154C187.499 41.3154 182.956 46.2891 181.097 48.5686C179.239 50.9518 176.967 56.3399 176.967 56.858L181.097 65.7691C181.097 65.7691 182.13 56.7544 184.092 52.9206C186.054 49.0867 187.499 47.8433 187.499 47.8433C187.499 47.8433 188.945 49.0867 190.907 52.9206C192.869 56.7544 193.901 65.7691 193.901 65.7691L198.032 56.858C198.135 56.3399 195.76 50.8482 193.901 48.5686Z" stroke="black" stroke-width="2" stroke-miterlimit="10" stroke-linecap="round" stroke-linejoin="round"/>
<path d="M254.514 29.6068C247.182 37.2745 239.747 45.5638 232.313 54.3713C229.112 58.2051 225.911 62.039 222.916 65.8728C220.644 63.9041 217.443 60.692 214.449 56.2364C206.704 44.5277 204.639 29.5032 204.329 29.6068C204.019 29.5032 201.335 43.8023 194.21 56.2364C191.525 60.8992 188.84 64.3186 187.188 66.2873C185.432 64.3186 182.644 60.8992 179.856 56.2364C172.731 43.906 170.047 29.5032 169.737 29.6068C169.427 29.5032 166.02 43.3879 159.617 56.2364C157.139 61.3137 154.661 65.1475 153.112 67.5307C151.15 65.2511 148.156 61.4173 145.264 56.2364C138.346 43.8023 135.455 29.5032 135.145 29.6068C134.835 29.5032 131.221 43.3879 125.025 56.2364C122.444 61.6245 119.965 65.8728 118.004 68.7741C114.906 64.2149 111.395 59.3449 107.574 54.4749C100.14 45.0457 92.6015 36.7564 85.3733 29.7104C85.1668 29.1923 88.9874 47.8434 90.3298 59.3449C91.8787 71.6754 91.7754 79.3431 91.7754 79.3431H91.6722V103.175C91.6722 104.937 93.0146 106.387 94.6667 106.594C119.552 109.185 147.123 110.739 177.068 110.428C201.541 110.221 224.362 108.77 245.323 106.594C246.872 106.387 248.111 105.04 248.111 103.486V79.2394C248.318 72.9188 248.731 66.2873 249.557 59.2413C250.693 48.4651 252.448 38.5179 254.514 29.6068Z" fill="#F9E84A"/>
<path d="M191.113 41.3156C191.113 43.2843 189.461 44.9422 187.499 44.9422C185.537 44.9422 183.885 43.2843 183.885 41.3156C183.885 39.3468 185.537 37.689 187.499 37.689C189.564 37.689 191.113 39.2432 191.113 41.3156Z" fill="#DA0100"/>
<path d="M246.048 99.0305H92.5V101.725H246.048V99.0305Z" fill="#FFBD2B"/>
<path d="M246.048 81.7263H92.5V84.4204H246.048V81.7263Z" fill="#FFBD2B"/>
<path d="M92.6035 99.0303L102.103 84.5239L111.5 99.0303L107.68 99.134L102.103 89.6012L96.2176 99.0303H92.6035Z" fill="#FFBD2B"/>
<path d="M111.5 99.0304L121 84.4204L130.5 99.0304L126.576 99.1341L121 89.4977L115.114 99.0304H111.5Z" fill="#FFBD2B"/>
<path d="M130.5 99.0303L140 84.5239L149.397 99.0303L145.473 99.134L139.897 89.6012L134.011 99.0303H130.5Z" fill="#FFBD2B"/>
<path d="M149.396 99.0303L158.896 84.5239L168.293 99.0303L164.472 99.134L158.896 89.6012L153.011 99.0303H149.396Z" fill="#FFBD2B"/>
<path d="M168.293 99.0303L177.793 84.5239L187.293 99.0303L183.369 99.134L177.793 89.6012L171.907 99.0303H168.293Z" fill="#FFBD2B"/>
<path d="M187.293 99.0303L196.793 84.5239L206.19 99.0303L202.266 99.134L196.69 89.6012L190.804 99.0303H187.293Z" fill="#FFBD2B"/>
<path d="M206.189 99.0303L215.689 84.5239L225.086 99.0303L221.265 99.134L215.689 89.6012L209.7 99.0303H206.189Z" fill="#FFBD2B"/>
<path d="M224.879 99.0303L234.379 84.5239L243.776 99.0303L239.955 99.134L234.379 89.6012L228.493 99.0303H224.879Z" fill="#FFBD2B"/>
<path d="M113.462 88.3577C113.462 89.2902 112.636 90.1192 111.707 90.1192C110.777 90.1192 109.951 89.2902 109.951 88.3577C109.951 87.4251 110.777 86.5962 111.707 86.5962C112.636 86.5962 113.462 87.4251 113.462 88.3577Z" fill="#FF3A2F"/>
<path d="M104.169 96.3364C104.169 97.269 103.343 98.0979 102.414 98.0979C101.484 98.0979 100.658 97.269 100.658 96.3364C100.658 95.4039 101.484 94.575 102.414 94.575C103.343 94.575 104.169 95.3003 104.169 96.3364Z" fill="#892262"/>
<path d="M94.9301 89.9135C95.8992 89.8849 96.6617 89.0734 96.6333 88.101C96.6048 87.1285 95.7961 86.3633 94.827 86.3919C93.8579 86.4204 93.0953 87.2319 93.1238 88.2044C93.1523 89.1768 93.961 89.942 94.9301 89.9135Z" fill="white"/>
<path d="M123.066 96.44C123.066 97.3725 122.239 98.2015 121.31 98.2015C120.381 98.2015 119.555 97.3725 119.555 96.44C119.555 95.5074 120.381 94.6785 121.31 94.6785C122.239 94.6785 123.066 95.5074 123.066 96.44Z" fill="white"/>
<path d="M132.566 88.2542C132.566 89.1867 131.739 90.0157 130.81 90.0157C129.881 90.0157 129.055 89.1867 129.055 88.2542C129.055 87.3216 129.881 86.4927 130.81 86.4927C131.739 86.4927 132.566 87.3216 132.566 88.2542Z" fill="#892262"/>
<path d="M142.066 96.5437C142.066 97.4763 141.239 98.3052 140.31 98.3052C139.381 98.3052 138.555 97.4763 138.555 96.5437C138.555 95.6112 139.381 94.7822 140.31 94.7822C141.239 94.7822 142.066 95.6112 142.066 96.5437Z" fill="#FF3A2F"/>
<path d="M151.462 88.0469C151.462 88.9794 150.636 89.8084 149.707 89.8084C148.777 89.8084 147.951 89.0831 147.951 88.0469C147.951 87.1143 148.777 86.2854 149.707 86.2854C150.636 86.2854 151.462 87.1143 151.462 88.0469Z" fill="white"/>
<path d="M159.31 98.4085C160.28 98.4085 161.066 97.6198 161.066 96.647C161.066 95.6742 160.28 94.8855 159.31 94.8855C158.341 94.8855 157.555 95.6742 157.555 96.647C157.555 97.6198 158.341 98.4085 159.31 98.4085Z" fill="#892262"/>
<path d="M170.874 88.4614C170.874 89.394 170.048 90.2229 169.119 90.2229C168.189 90.2229 167.363 89.394 167.363 88.4614C167.363 87.5289 168.189 86.7 169.119 86.7C170.048 86.7 170.874 87.4253 170.874 88.4614Z" fill="#FF3A2F"/>
<path d="M179.444 96.44C179.444 97.3725 178.618 98.2015 177.689 98.2015C176.76 98.2015 175.934 97.3725 175.934 96.44C175.934 95.5074 176.76 94.6785 177.689 94.6785C178.618 94.6785 179.444 95.5074 179.444 96.44Z" fill="white"/>
<path d="M189.771 88.4614C189.771 89.394 188.945 90.2229 188.015 90.2229C187.086 90.2229 186.26 89.394 186.26 88.4614C186.26 87.5289 187.086 86.7 188.015 86.7C189.048 86.7 189.771 87.4253 189.771 88.4614Z" fill="#892262"/>
<path d="M198.755 96.647C198.755 97.5796 197.929 98.4085 197 98.4085C196.07 98.4085 195.244 97.5796 195.244 96.647C195.244 95.7144 196.07 94.8855 197 94.8855C198.032 94.8855 198.755 95.7144 198.755 96.647Z" fill="#FF3A2F"/>
<path d="M208.771 88.5652C208.771 89.4977 207.945 90.3267 207.015 90.3267C206.086 90.3267 205.26 89.4977 205.26 88.5652C205.26 87.6326 206.086 86.8037 207.015 86.8037C207.945 86.7001 208.771 87.529 208.771 88.5652Z" fill="white"/>
<path d="M215.793 98.4085C216.762 98.4085 217.548 97.6198 217.548 96.647C217.548 95.6742 216.762 94.8855 215.793 94.8855C214.823 94.8855 214.037 95.6742 214.037 96.647C214.037 97.6198 214.823 98.4085 215.793 98.4085Z" fill="#892262"/>
<path d="M227.437 88.4594C227.461 87.4869 226.694 86.6794 225.725 86.6558C224.756 86.6322 223.951 87.4015 223.927 88.374C223.904 89.3466 224.67 90.1541 225.64 90.1777C226.609 90.2013 227.414 89.432 227.437 88.4594Z" fill="#FF3A2F"/>
<path d="M236.444 96.751C236.444 97.6836 235.618 98.5125 234.689 98.5125C233.76 98.5125 232.934 97.6836 232.934 96.751C232.934 95.8184 233.76 94.9895 234.689 94.9895C235.618 94.9895 236.444 95.8184 236.444 96.751Z" fill="white"/>
<path d="M244.706 88.7722C244.706 89.7048 243.88 90.5337 242.951 90.5337C242.021 90.5337 241.195 89.7048 241.195 88.7722C241.195 87.8397 242.021 87.0107 242.951 87.0107C243.88 87.0107 244.706 87.7361 244.706 88.7722Z" fill="#892262"/>
<path d="M226.531 41.3156C226.531 43.2843 224.879 44.9422 222.917 44.9422C220.955 44.9422 219.303 43.2843 219.303 41.3156C219.303 39.3468 220.955 37.689 222.917 37.689C224.879 37.689 226.531 39.2432 226.531 41.3156Z" fill="#DA0100"/>
<path d="M156.521 41.5228C156.521 43.4916 154.869 45.1494 152.907 45.1494C150.945 45.1494 149.293 43.4916 149.293 41.5228C149.293 39.5541 150.945 37.8962 152.907 37.8962C154.972 37.8962 156.521 39.5541 156.521 41.5228Z" fill="#DA0100"/>
<path d="M121.206 42.3517C121.206 44.9422 119.14 47.0145 116.559 47.0145C113.977 47.0145 111.912 44.9422 111.912 42.3517C111.912 39.7613 113.977 37.689 116.559 37.689C119.14 37.689 121.206 39.7613 121.206 42.3517Z" stroke="black" stroke-width="3" stroke-miterlimit="10"/>
<path d="M157.553 41.5229C157.553 44.1133 155.488 46.1857 152.906 46.1857C150.325 46.1857 148.26 44.1133 148.26 41.5229C148.26 38.9325 150.325 36.8601 152.906 36.8601C155.488 36.8601 157.553 38.9325 157.553 41.5229Z" stroke="black" stroke-width="3" stroke-miterlimit="10"/>
<path d="M192.145 41.3155C192.145 43.9059 190.08 45.9783 187.498 45.9783C184.917 45.9783 182.852 43.9059 182.852 41.3155C182.852 38.7251 184.917 36.6527 187.498 36.6527C190.08 36.5491 192.145 38.7251 192.145 41.3155Z" stroke="black" stroke-width="3" stroke-miterlimit="10"/>
<path d="M227.563 41.3155C227.563 43.9059 225.498 45.9783 222.916 45.9783C220.335 45.9783 218.27 43.9059 218.27 41.3155C218.27 38.7251 220.335 36.6527 222.916 36.6527C225.498 36.5491 227.563 38.7251 227.563 41.3155Z" stroke="black" stroke-width="3" stroke-miterlimit="10"/>
<path d="M120.174 42.3517C120.174 44.3204 118.521 45.9783 116.559 45.9783C114.597 45.9783 112.945 44.3204 112.945 42.3517C112.945 40.383 114.597 38.7251 116.559 38.7251C118.521 38.7251 120.174 40.2794 120.174 42.3517Z" fill="#DA0100"/>
<path d="M134.733 77.6852C138.041 77.6852 140.722 74.2523 140.722 70.0175C140.722 65.7828 138.041 62.3499 134.733 62.3499C131.426 62.3499 128.744 65.7828 128.744 70.0175C128.744 74.2523 131.426 77.6852 134.733 77.6852Z" fill="#892262"/>
<path d="M98.0758 68.2561C98.5921 73.2297 96.9399 77.478 94.4617 77.7888C91.8802 78.0997 89.4019 74.2659 88.8856 69.2922C88.3693 64.3186 90.0215 60.0703 92.4997 59.7595C95.0812 59.5522 97.5595 63.2824 98.0758 68.2561Z" fill="#892262"/>
<path d="M241.916 68.4633C241.4 73.6442 243.052 78.0998 245.737 78.4106C248.422 78.7215 251.003 74.784 251.623 69.6031C252.139 64.4223 250.487 59.9667 247.802 59.6559C245.118 59.345 242.433 63.2825 241.916 68.4633Z" fill="#892262"/>
<path d="M175.211 69.8103C175.211 74.0586 172.526 77.4779 169.222 77.4779C165.917 77.4779 163.232 74.0586 163.232 69.8103C163.232 65.5619 165.917 62.1426 169.222 62.1426C172.526 62.1426 175.211 65.5619 175.211 69.8103Z" fill="#892262"/>
<path d="M205.155 77.6852C208.463 77.6852 211.144 74.2523 211.144 70.0175C211.144 65.7828 208.463 62.3499 205.155 62.3499C201.847 62.3499 199.166 65.7828 199.166 70.0175C199.166 74.2523 201.847 77.6852 205.155 77.6852Z" fill="#892262"/>
<path d="M170.047 112.915C143.819 112.915 117.488 111.464 91.4662 108.77C90.1238 108.667 89.1945 107.527 89.1945 106.18V80.3793C87.5423 78.6178 85.0641 75.0948 84.651 70.1212C84.238 64.7331 86.3032 60.7956 87.7488 58.6197L85.2706 43.4916C84.5478 39.6577 83.9282 36.1347 83.5152 33.7515C83.3086 32.6117 83.1021 31.6792 82.9989 31.0575C82.7923 30.0213 82.3793 27.8453 84.651 27.12C85.5804 26.8092 86.613 27.12 87.2325 27.8453C95.1836 35.7203 102.722 44.1133 109.537 52.8171C112.118 56.1329 114.7 59.5522 117.075 62.9716C119.243 60.4848 121.205 57.7907 122.857 54.9931C128.227 45.8747 131.015 34.9949 132.151 30.9539C132.77 28.6743 132.977 27.949 134.009 27.3273C134.422 27.12 134.732 27.0164 135.249 27.0164C135.662 27.0164 136.075 27.12 136.488 27.3273C137.624 27.8453 137.727 28.5707 138.346 30.8502C139.379 34.8913 142.167 45.7711 147.64 54.9931C149.189 57.6871 151.047 60.1739 153.009 62.5571C154.661 60.1739 156.107 57.6871 157.45 55.0967C162.303 45.7711 165.297 35.6166 166.64 31.2647C167.466 28.3634 167.672 27.8453 168.705 27.3273C169.015 27.12 169.428 27.0164 169.841 27.0164C170.254 27.0164 170.667 27.12 170.977 27.3273C172.112 27.8453 172.216 28.5707 172.835 30.8502C173.868 34.8913 176.759 45.6675 182.129 54.9931C183.574 57.5835 185.33 59.9667 187.085 62.2463C188.841 59.9667 190.493 57.4799 191.938 54.9931C197.308 45.6675 200.096 34.8913 201.232 30.8502C201.851 28.4671 202.058 27.8453 203.091 27.3273C203.504 27.12 203.917 27.0164 204.226 27.0164C204.639 27.0164 205.052 27.12 205.466 27.3273C206.601 27.949 206.705 28.6743 207.221 30.643C208.15 34.7877 210.629 45.8748 216.514 54.8895C218.27 57.4799 220.232 59.9667 222.503 62.1427C225.085 59.0341 227.667 55.9256 230.145 52.8171C231.797 50.7448 233.139 49.0869 234.378 47.5326C237.993 42.9735 240.264 40.1758 243.672 36.5492C252.552 27.0164 253.275 26.8092 254.721 27.12H254.824C257.302 27.5345 256.992 29.9177 256.579 31.99C256.373 33.2334 256.063 35.0986 255.65 37.5854C254.824 42.3518 253.585 49.5014 251.933 59.0341C253.069 61.6246 254.101 65.4584 253.688 70.1212C253.378 73.4369 252.346 76.7527 250.59 79.654L250.487 106.284C250.487 107.631 249.454 108.667 248.215 108.874C224.569 111.361 200.612 112.811 176.862 113.019C174.694 112.915 172.422 112.915 170.047 112.915ZM94.2542 103.797C121.721 106.594 149.498 107.941 177.069 107.631C199.889 107.423 222.917 106.076 245.634 103.797L245.737 78.7214C245.737 78.2033 245.84 77.7889 246.15 77.3744C247.183 75.7165 248.525 73.0225 248.835 69.4995C249.248 65.562 248.112 62.3499 247.183 60.3812C246.976 59.8631 246.873 59.345 246.976 58.8269C248.835 48.0507 250.074 41.1084 250.797 36.7564C249.867 37.689 248.835 38.8288 247.699 40.0722C244.395 43.5952 242.329 46.1856 238.612 50.8484C237.373 52.4026 236.031 54.0605 234.378 56.1329C231.281 59.8631 228.183 63.8005 224.878 67.6344C224.465 68.1525 223.743 68.4633 223.123 68.5669C222.4 68.5669 221.781 68.3597 221.264 67.9452C217.857 64.9403 214.862 61.521 212.384 57.7907C208.357 51.6773 205.879 44.8386 204.226 39.4505C202.574 44.6313 200.096 51.3665 196.482 57.6871C194.313 61.4173 191.938 64.9403 189.15 68.1525C188.634 68.6705 187.911 69.085 187.188 69.085C186.466 69.085 185.743 68.7742 185.227 68.2561C182.335 65.0439 179.857 61.521 177.689 57.7907C173.868 51.2628 171.286 44.1133 169.634 38.8288C167.982 44.0096 165.401 51.0556 161.89 57.6871C159.928 61.4173 157.656 65.0439 155.178 68.4633C154.765 69.085 154.042 69.4995 153.216 69.4995C152.39 69.6031 151.667 69.2923 151.151 68.6705C148.053 65.3548 145.265 61.6246 142.993 57.7907C139.276 51.4701 136.694 44.5277 135.042 39.2432C133.39 44.5277 130.912 51.4701 127.194 57.7907C124.819 61.8318 121.928 65.6656 118.624 69.085C118.107 69.6031 117.281 69.914 116.558 69.914C115.836 69.8103 115.113 69.3959 114.597 68.7742C111.602 64.5259 108.504 60.2775 105.303 56.2365C100.243 49.8122 94.8738 43.5952 89.1945 37.5854C89.5043 39.2432 89.814 41.0047 90.1238 42.7662L92.6021 58.9305C92.7053 59.6558 92.4988 60.3812 92.0858 61.0029C91.363 61.9354 88.988 65.1476 89.401 69.7067C89.7108 73.8514 92.189 76.5455 93.2216 77.478C93.7379 77.9961 94.0477 78.6178 94.0477 79.3431L94.2542 103.797Z" fill="black"/>
<defs>
<linearGradient id="paint0_linear" x1="244.706" y1="269.532" x2="211.791" y2="312.959" gradientUnits="userSpaceOnUse">
<stop stop-color="#897E16"/>
<stop offset="0.2727" stop-color="#FF8D27"/>
<stop offset="0.6809" stop-color="#FF9A2C"/>
<stop offset="0.7849" stop-color="#FFA02C"/>
<stop offset="0.9189" stop-color="#FFB02B"/>
<stop offset="1" stop-color="#FFBD2B"/>
</linearGradient>
<linearGradient id="paint1_linear" x1="128.769" y1="259.186" x2="161.185" y2="277.89" gradientUnits="userSpaceOnUse">
<stop stop-color="#897E16"/>
<stop offset="0.2727" stop-color="#FF8D27"/>
<stop offset="0.6809" stop-color="#FF9A2C"/>
<stop offset="0.7849" stop-color="#FFA02C"/>
<stop offset="0.9189" stop-color="#FFB02B"/>
<stop offset="1" stop-color="#FFBD2B"/>
</linearGradient>
<linearGradient id="paint2_linear" x1="135.67" y1="278.622" x2="136.186" y2="278.622" gradientUnits="userSpaceOnUse">
<stop stop-color="#897E16"/>
<stop offset="0.2727" stop-color="#FF8D27"/>
<stop offset="0.6809" stop-color="#FF9A2C"/>
<stop offset="0.7849" stop-color="#FFA02C"/>
<stop offset="0.9189" stop-color="#FFB02B"/>
<stop offset="1" stop-color="#FFBD2B"/>
</linearGradient>
<linearGradient id="paint3_linear" x1="223.34" y1="254.315" x2="193.615" y2="280.405" gradientUnits="userSpaceOnUse">
<stop stop-color="#897E16"/>
<stop offset="0.2727" stop-color="#FF8D27"/>
<stop offset="0.6809" stop-color="#FF9A2C"/>
<stop offset="0.7849" stop-color="#FFA02C"/>
<stop offset="0.9189" stop-color="#FFB02B"/>
<stop offset="1" stop-color="#FFBD2B"/>
</linearGradient>
<linearGradient id="paint4_linear" x1="169.765" y1="103.475" x2="170.873" y2="245.327" gradientUnits="userSpaceOnUse">
<stop stop-color="#897E16"/>
<stop offset="0.2727" stop-color="#FF8D27"/>
<stop offset="0.6809" stop-color="#FF9A2C"/>
<stop offset="0.7849" stop-color="#FFA02C"/>
<stop offset="0.9189" stop-color="#FFB02B"/>
<stop offset="1" stop-color="#FFBD2B"/>
</linearGradient>
</defs>
</svg>
