<svg width="340" height="340" viewBox="0 0 340 340" fill="none" xmlns="http://www.w3.org/2000/svg">
<path d="M253.21 204.299C253.21 204.299 257.21 206.499 254.11 208.299C251.01 210.099 244.21 214.899 243.51 222.799C242.81 230.699 244.81 234.599 238.81 240.599C238.81 240.599 238.31 251.299 226.41 256.999C226.41 256.999 218.81 274.699 197.51 267.799C197.51 267.799 170.31 268.999 177.71 247.899C178.01 246.999 194.01 235.399 194.01 235.399L200.01 232.899C200.01 232.899 203.41 229.199 208.01 228.799C208.01 228.799 206.11 222.799 214.01 220.599C214.01 220.599 214.41 212.599 225.81 209.499C225.81 209.499 232.21 202.199 239.31 204.099C239.41 204.099 246.81 198.199 253.21 204.299Z" fill="url(#paint0_linear)"/>
<path d="M220.855 260.887C221.325 260.073 221.24 259.146 220.666 258.814C220.092 258.483 219.246 258.873 218.777 259.686C218.307 260.5 218.392 261.427 218.966 261.759C219.54 262.09 220.386 261.7 220.855 260.887Z" fill="#9E4C0E"/>
<path d="M249.11 207.799C249.11 207.799 249.41 208.299 249.21 208.699C248.91 209.299 248.21 208.999 247.71 209.699C247.21 210.299 247.41 210.899 246.91 211.299C246.71 211.499 246.31 211.599 246.01 211.499C245.21 211.299 244.61 209.799 245.11 208.599C245.71 207.399 247.21 207.099 248.01 207.199C248.21 207.199 248.81 207.299 249.11 207.799Z" fill="#9E4C0E"/>
<path d="M232.41 249.099C233.073 249.099 233.61 248.561 233.61 247.899C233.61 247.236 233.073 246.699 232.41 246.699C231.747 246.699 231.21 247.236 231.21 247.899C231.21 248.561 231.747 249.099 232.41 249.099Z" fill="#9E4C0E"/>
<path d="M233.81 210.899C234.362 210.899 234.81 210.361 234.81 209.699C234.81 209.036 234.362 208.499 233.81 208.499C233.257 208.499 232.81 209.036 232.81 209.699C232.81 210.361 233.257 210.899 233.81 210.899Z" fill="#9E4C0E"/>
<path d="M219.109 219.099C219.109 218.999 218.609 218.299 218.909 217.599C219.309 216.699 220.409 217.099 221.309 216.099C222.109 215.199 221.609 214.199 222.609 213.599C223.009 213.299 223.609 213.099 224.109 213.299C225.409 213.599 226.509 216.099 225.609 217.999C224.709 219.899 222.409 220.199 221.109 220.099C220.509 219.999 219.609 219.899 219.109 219.099Z" fill="#9E4C0E"/>
<path d="M239.41 236.099C239.962 236.099 240.41 235.561 240.41 234.899C240.41 234.236 239.962 233.699 239.41 233.699C238.858 233.699 238.41 234.236 238.41 234.899C238.41 235.561 238.858 236.099 239.41 236.099Z" fill="#9E4C0E"/>
<path d="M218.81 224.798C219.362 224.798 219.81 224.261 219.81 223.598C219.81 222.936 219.362 222.398 218.81 222.398C218.257 222.398 217.81 222.936 217.81 223.598C217.81 224.261 218.257 224.798 218.81 224.798Z" fill="#9E4C0E"/>
<path d="M198.21 265.399C198.873 265.399 199.41 264.861 199.41 264.199C199.41 263.536 198.873 262.999 198.21 262.999C197.547 262.999 197.01 263.536 197.01 264.199C197.01 264.861 197.547 265.399 198.21 265.399Z" fill="#9E4C0E"/>
<path d="M241.91 226.799C241.91 226.899 242.21 227.599 241.91 228.099C241.51 228.799 240.61 228.299 239.71 228.999C238.91 229.699 239.21 230.499 238.31 230.999C237.91 231.199 237.41 231.299 237.01 231.099C235.91 230.699 235.31 228.399 236.31 226.899C237.31 225.399 239.31 225.399 240.31 225.699C240.81 225.899 241.61 226.099 241.91 226.799Z" fill="#9E4C0E"/>
<path d="M218.11 227.598C218.21 227.698 218.71 228.598 218.41 229.498C217.91 230.598 216.51 230.098 215.41 231.298C214.41 232.398 215.01 233.598 213.81 234.398C213.31 234.698 212.61 234.998 212.01 234.798C210.31 234.398 209.01 231.298 210.11 228.898C211.21 226.498 214.11 226.098 215.71 226.298C216.21 226.498 217.41 226.598 218.11 227.598Z" fill="#9E4C0E"/>
<path d="M235.11 242.599C233.81 242.599 232.81 241.599 232.81 240.299C232.81 238.999 233.81 237.999 235.11 237.999C236.41 237.999 237.41 238.999 237.41 240.299C237.41 241.599 236.41 242.599 235.11 242.599Z" fill="#9E4C0E"/>
<path d="M212.51 263.998C212.71 267.098 208.71 269.598 206.71 268.798C205.71 268.398 205.21 267.298 204.41 265.298C203.71 263.498 203.31 262.598 203.71 261.598C204.31 260.198 206.31 259.798 207.61 259.898C209.91 259.998 212.31 261.698 212.51 263.998Z" fill="#9E4C0E"/>
<path d="M220.71 247.099C220.61 246.999 220.11 246.099 220.41 245.199C220.91 244.099 222.31 244.599 223.41 243.399C224.51 242.199 223.81 240.999 225.01 240.199C225.51 239.899 226.21 239.599 226.81 239.799C228.51 240.199 229.81 243.399 228.71 245.799C227.61 248.199 224.61 248.599 223.01 248.399C222.51 248.199 221.31 248.099 220.71 247.099Z" fill="#9E4C0E"/>
<path d="M210.61 243.099C212.11 241.299 215.61 242.099 216.21 243.599C216.51 244.299 216.21 245.199 215.51 246.699C214.91 247.999 214.61 248.699 213.91 248.999C212.81 249.399 211.51 248.599 210.91 247.799C209.81 246.599 209.41 244.399 210.61 243.099Z" fill="#9E4C0E"/>
<path d="M205.609 249.999C205.609 250.099 206.209 250.899 205.809 251.699C205.409 252.699 204.109 252.299 203.109 253.299C202.209 254.299 202.709 255.399 201.709 256.199C201.309 256.499 200.609 256.699 200.109 256.599C198.609 256.199 197.409 253.399 198.409 251.299C199.409 249.099 202.009 248.799 203.509 248.999C204.009 248.899 205.009 249.099 205.609 249.999Z" fill="#9E4C0E"/>
<path d="M238.91 211.199C239.81 210.099 241.91 210.599 242.31 211.499C242.51 211.899 242.31 212.499 241.91 213.399C241.61 214.199 241.41 214.599 240.91 214.799C240.21 214.999 239.51 214.499 239.11 214.099C238.51 213.299 238.21 211.999 238.91 211.199Z" fill="#9E4C0E"/>
<path d="M223.31 224.999C224.81 223.199 228.31 223.999 228.91 225.499C229.21 226.199 228.91 227.099 228.21 228.599C227.61 229.899 227.31 230.599 226.61 230.899C225.51 231.299 224.21 230.499 223.61 229.699C222.51 228.499 222.11 226.299 223.31 224.999Z" fill="#9E4C0E"/>
<path d="M231.81 221.298C230.51 221.298 229.51 220.298 229.51 218.998V218.098C229.51 216.798 230.51 215.798 231.81 215.798C233.11 215.798 234.11 216.798 234.11 218.098V218.998C234.11 220.298 233.01 221.298 231.81 221.298Z" fill="#9E4C0E"/>
<path d="M216.11 255.598C215.01 255.098 214.51 253.698 215.01 252.598C215.51 251.498 216.91 250.998 218.01 251.498C219.11 251.998 219.61 253.398 219.11 254.498C218.61 255.598 217.31 256.098 216.11 255.598Z" fill="#9E4C0E"/>
<path d="M218.41 237.798C219.073 237.798 219.61 237.261 219.61 236.598C219.61 235.936 219.073 235.398 218.41 235.398C217.747 235.398 217.21 235.936 217.21 236.598C217.21 237.261 217.747 237.798 218.41 237.798Z" fill="#9E4C0E"/>
<path d="M229.21 237.399C229.762 237.399 230.21 236.861 230.21 236.199C230.21 235.536 229.762 234.999 229.21 234.999C228.658 234.999 228.21 235.536 228.21 236.199C228.21 236.861 228.658 237.399 229.21 237.399Z" fill="#9E4C0E"/>
<path d="M238.41 222.499C238.962 222.499 239.41 221.961 239.41 221.299C239.41 220.636 238.962 220.099 238.41 220.099C237.858 220.099 237.41 220.636 237.41 221.299C237.41 221.961 237.858 222.499 238.41 222.499Z" fill="#9E4C0E"/>
<path d="M245.91 215.398H245.81C245.31 215.298 244.91 214.798 244.91 214.298C245.01 213.498 245.11 211.298 243.81 209.198C242.41 206.998 240.21 206.198 239.41 205.998C238.91 205.898 238.51 205.298 238.71 204.798C238.81 204.298 239.41 203.898 239.91 204.098C241.01 204.398 243.71 205.298 245.51 208.098C247.21 210.798 247.11 213.498 246.91 214.598C246.81 215.098 246.31 215.398 245.91 215.398Z" fill="url(#paint1_linear)"/>
<path d="M243.41 224.999C243.01 224.999 242.61 224.799 242.51 224.399C242.41 224.199 235.91 209.499 226.01 210.499C225.41 210.599 225.01 210.199 224.91 209.599C224.81 209.099 225.21 208.599 225.81 208.499C237.21 207.299 244.11 222.899 244.41 223.499C244.61 223.999 244.41 224.599 243.91 224.799C243.61 224.899 243.51 224.999 243.41 224.999Z" fill="url(#paint2_linear)"/>
<path d="M236.91 241.299C236.41 241.299 235.91 240.899 235.91 240.399C235.31 231.099 230.21 223.499 223.31 221.399C220.51 220.599 217.51 220.599 214.31 221.599C213.81 221.799 213.21 221.499 213.11 220.899C212.91 220.399 213.21 219.799 213.81 219.699C217.31 218.599 220.71 218.499 223.91 219.499C231.61 221.799 237.31 230.099 237.91 240.299C238.01 240.799 237.51 241.199 236.91 241.299C237.01 241.299 236.91 241.299 236.91 241.299Z" fill="url(#paint3_linear)"/>
<path d="M224.709 256.599C224.609 256.599 224.509 256.599 224.409 256.499C223.909 256.299 223.609 255.699 223.809 255.199C226.609 247.399 225.009 239.199 219.709 234.299C215.709 230.599 210.709 229.899 208.109 229.799C207.509 229.799 207.109 229.299 207.109 228.799C207.109 228.299 207.609 227.799 208.109 227.799C211.009 227.899 216.509 228.599 221.009 232.799C226.909 238.299 228.709 247.299 225.609 255.899C225.509 256.299 225.109 256.599 224.709 256.599Z" fill="url(#paint4_linear)"/>
<path d="M202.01 268.799C201.91 268.799 201.81 268.699 201.81 268.599C201.51 268.199 201.51 267.499 201.91 266.999C207.81 259.399 210.41 249.799 208.61 242.699C207.21 237.299 203.71 234.899 201.71 233.899C201.31 233.699 201.21 233.099 201.41 232.499C201.71 231.899 202.21 231.599 202.61 231.799C204.81 232.799 208.71 235.499 210.31 241.599C212.31 249.599 209.41 260.099 203.01 268.499C202.81 268.699 202.31 268.899 202.01 268.799Z" fill="url(#paint5_linear)"/>
<path d="M206.81 272.399C203.91 272.399 200.61 271.899 197.01 270.799C194.21 270.799 181.61 270.599 176.11 262.999C173.01 258.799 172.61 253.399 174.91 246.899C175.31 245.899 175.51 245.099 192.31 232.999C192.51 232.899 192.71 232.699 192.91 232.699L198.31 230.399C199.31 229.399 201.71 227.399 204.91 226.399C205.01 225.399 205.31 224.199 205.91 222.999C207.01 220.899 208.91 219.299 211.51 218.299C212.41 215.199 215.21 209.599 224.31 206.799C226.21 204.899 232.01 199.899 238.81 200.899C242.51 198.599 249.31 196.599 255.11 201.899C256.21 202.599 258.31 204.199 258.41 206.699C258.41 207.699 258.11 209.599 255.71 210.899C253.21 212.299 247.21 216.399 246.71 222.999C246.61 224.799 246.61 226.399 246.51 227.899C246.51 232.699 246.51 236.899 241.81 241.999C241.31 245.199 239.01 253.999 228.71 259.299C226.71 262.599 220.11 272.399 206.81 272.399ZM197.51 264.799C197.81 264.799 198.11 264.799 198.41 264.899C216.81 270.899 223.31 256.399 223.61 255.799C223.91 255.099 224.41 254.599 225.11 254.299C235.21 249.499 235.81 240.799 235.81 240.499C235.81 239.799 236.11 239.099 236.71 238.599C240.31 234.899 240.41 232.599 240.41 227.999C240.41 226.399 240.41 224.699 240.61 222.699C241.31 214.399 247.51 209.099 251.31 206.699C251.31 206.699 251.31 206.699 251.21 206.699C246.91 202.599 241.91 206.299 241.31 206.699C240.61 207.299 239.61 207.499 238.71 207.199C233.51 205.799 228.21 211.599 228.21 211.699C227.81 212.099 227.31 212.399 226.81 212.599C217.91 215.099 217.31 220.799 217.21 220.999C217.11 222.299 216.31 223.299 215.01 223.699C213.71 224.099 212.01 224.799 211.31 226.099C210.81 227.099 211.01 228.199 211.01 228.199C211.31 229.099 211.11 229.999 210.61 230.799C210.11 231.599 209.31 232.099 208.31 232.099C205.01 232.399 202.31 235.199 202.21 235.299C201.91 235.599 201.51 235.899 201.11 235.999L195.41 238.299C189.01 242.999 182.01 248.199 180.31 249.699C178.91 253.899 179.11 257.299 180.91 259.699C184.51 264.499 194.01 265.199 197.31 264.999C197.41 264.799 197.41 264.799 197.51 264.799Z" fill="black"/>
<path d="M186.509 229.399C196.109 227.599 210.809 223.699 226.609 214.499C242.809 204.999 253.609 193.699 259.809 185.999L247.609 176.499C243.209 181.199 238.009 186.099 232.009 190.899C214.309 204.899 196.409 212.199 183.109 216.099C184.209 220.599 185.309 224.999 186.509 229.399Z" fill="url(#paint6_linear)"/>
<path d="M183.509 232.899L178.909 214.999L181.209 214.299C199.009 208.999 215.209 200.699 229.309 189.499C234.709 185.199 239.909 180.399 244.609 175.399L246.209 173.699L262.309 186.099L260.709 188.099C251.209 199.799 239.809 209.599 226.809 217.199C214.109 224.599 200.409 229.799 185.909 232.399L183.509 232.899ZM184.909 218.399L187.209 227.099C200.309 224.399 212.709 219.699 224.209 212.899C235.909 205.999 246.309 197.299 255.109 186.899L246.709 180.399C242.209 185.099 237.409 189.399 232.409 193.399C218.409 204.599 202.409 212.899 184.909 218.399Z" fill="black"/>
<path d="M144.61 228.299C134.91 226.899 120.11 223.599 103.91 214.999C87.3098 206.099 76.1098 195.299 69.5098 187.899L81.3098 177.999C85.9098 182.499 91.2098 187.199 97.5098 191.799C115.71 205.099 134.01 211.599 147.41 214.999C146.51 219.299 145.61 223.799 144.61 228.299Z" fill="url(#paint7_linear)"/>
<path d="M146.61 231.099L144.31 230.799C129.71 228.699 115.81 224.199 102.81 217.299C89.5098 210.199 77.7098 200.899 67.7098 189.599L66.0098 187.699L81.5098 174.599L83.1098 176.199C88.1098 181.099 93.4098 185.599 99.0098 189.699C113.51 200.299 130.11 207.899 148.11 212.499L150.41 213.099L146.61 231.099ZM73.1098 188.099C82.3098 198.099 93.1098 206.399 105.11 212.799C116.91 219.099 129.51 223.299 142.71 225.499L144.61 216.699C126.91 211.999 110.61 204.199 96.1098 193.699C90.9098 189.899 85.9098 185.799 81.3098 181.299L73.1098 188.099Z" fill="black"/>
<path d="M141.609 215.199C137.909 220.199 132.709 228.999 131.509 240.699C131.109 244.299 129.309 263.199 139.309 269.399C140.209 269.899 141.009 270.299 141.609 270.499C143.009 270.699 144.209 270.599 145.009 270.299C147.109 269.499 149.809 267.399 152.609 261.899C152.609 261.899 163.109 265.599 174.109 262.299C175.309 264.199 177.909 267.899 182.509 269.699C183.909 270.199 185.809 270.999 188.109 270.499C188.109 270.499 190.709 269.899 193.109 267.099C196.409 263.199 197.409 252.699 195.409 239.299C194.409 232.899 192.409 223.999 188.509 213.899C172.709 214.399 157.109 214.799 141.609 215.199Z" fill="url(#paint8_linear)"/>
<path d="M151.51 211.799C148.81 216.499 146.01 222.999 145.61 231.099C145.31 236.499 145.01 241.799 148.51 246.799C153.61 254.199 162.91 254.799 163.91 254.899C170.61 255.299 177.91 252.299 181.81 246.499C185.21 241.499 185.01 236.199 184.81 231.799C184.41 222.699 180.71 215.699 178.01 211.799C169.21 211.699 160.31 211.699 151.51 211.799Z" fill="#FFF7D2"/>
<path d="M145.01 268.799C143.61 266.899 141.81 264.099 140.41 260.399C136.51 250.599 137.71 241.899 138.41 237.199C139.81 227.699 143.61 220.599 146.41 216.399C145.11 215.999 143.81 215.599 142.51 215.099C136.51 224.199 133.91 232.499 132.61 237.799C130.51 246.699 128.01 257.799 134.11 264.199C137.41 267.699 142.01 268.599 145.01 268.799Z" fill="#FFFF86"/>
<path d="M187.409 267.599C188.109 266.099 189.009 263.899 189.809 261.299C190.309 259.599 192.609 251.899 191.909 241.699C191.109 230.299 186.909 221.699 184.109 216.899C185.409 216.499 186.809 215.999 188.109 215.599C191.909 221.499 194.309 226.799 195.709 230.699C201.409 246.299 200.709 260.299 196.709 265.499C196.009 266.399 194.409 268.499 191.909 268.799C189.809 269.099 188.109 268.099 187.409 267.599Z" fill="#FF7400"/>
<path d="M147.71 236.299C148.01 237.099 150.31 242.899 154.81 245.699C157.11 247.099 159.91 247.899 159.91 247.899C160.81 248.099 161.71 248.299 162.71 248.499L164.11 248.699L164.81 248.799H165.21H165.51C169.21 248.699 173.01 247.599 175.91 245.399C178.91 243.299 181.01 239.699 182.31 235.699C182.31 236.699 182.41 237.799 182.21 238.899C182.01 239.899 181.91 241.099 181.51 242.099C180.81 244.199 179.61 246.199 177.91 247.799C176.31 249.399 174.31 250.699 172.11 251.499C170.01 252.299 167.81 252.699 165.41 252.799H165.21H164.91L164.51 252.699L163.71 252.599L162.01 252.399C161.41 252.299 160.91 252.099 160.41 251.999C159.61 251.799 159.11 251.599 158.81 251.499C155.21 250.399 153.41 249.799 152.71 249.399C151.21 248.399 150.61 247.099 149.71 245.399C148.01 242.099 147.71 238.699 147.71 236.299Z" fill="#F2E2A0"/>
<path d="M135.073 220.494C135.841 220.408 136.43 220.027 136.387 219.643C136.344 219.259 135.686 219.017 134.918 219.103C134.149 219.189 133.561 219.57 133.604 219.954C133.647 220.338 134.305 220.58 135.073 220.494Z" fill="#9E4C0E"/>
<path d="M105.009 203.499C106.009 204.599 105.309 206.899 104.309 207.199C103.809 207.399 103.309 207.099 102.409 206.499C101.609 205.999 101.209 205.799 101.009 205.299C100.809 204.599 101.409 203.799 101.909 203.399C102.809 202.699 104.209 202.599 105.009 203.499Z" fill="#9E4C0E"/>
<path d="M123.91 211.799C124.91 212.899 124.21 215.199 123.21 215.499C122.71 215.699 122.21 215.399 121.31 214.799C120.51 214.299 120.11 214.099 119.91 213.599C119.71 212.899 120.31 212.099 120.81 211.699C121.81 211.099 123.21 210.999 123.91 211.799Z" fill="#9E4C0E"/>
<path d="M114.309 204.098C114.409 204.098 115.109 204.398 115.309 205.098C115.509 205.998 114.509 206.398 114.409 207.598C114.309 208.798 115.209 209.198 115.009 210.298C114.909 210.698 114.609 211.198 114.209 211.398C113.109 211.998 110.809 210.698 110.409 208.798C109.909 206.898 111.409 205.198 112.409 204.498C112.709 204.298 113.509 203.798 114.309 204.098Z" fill="#9E4C0E"/>
<path d="M129.009 211.899C129.109 211.899 129.909 212.099 130.209 212.699C130.609 213.499 129.609 214.099 129.809 215.299C129.909 216.499 130.909 216.799 130.809 217.799C130.809 218.199 130.509 218.799 130.109 218.999C129.009 219.699 126.609 218.799 125.809 216.999C125.009 215.199 126.209 213.299 127.109 212.599C127.509 212.299 128.209 211.699 129.009 211.899Z" fill="#9E4C0E"/>
<path d="M118.671 212.458C118.682 211.906 118.287 211.45 117.79 211.44C117.294 211.431 116.882 211.87 116.871 212.423C116.86 212.975 117.254 213.43 117.751 213.44C118.248 213.45 118.66 213.01 118.671 212.458Z" fill="#9E4C0E"/>
<path d="M108.495 208.877C108.829 208.18 108.818 207.479 108.469 207.312C108.121 207.145 107.567 207.575 107.232 208.272C106.898 208.969 106.91 209.67 107.258 209.837C107.607 210.004 108.16 209.574 108.495 208.877Z" fill="#9E4C0E"/>
<path d="M164.709 257.399C164.309 257.399 163.909 257.399 163.509 257.399C161.609 257.299 151.809 256.399 146.209 248.199C142.209 242.399 142.609 236.299 142.909 230.899C143.309 223.799 145.409 216.999 149.209 210.499C149.609 209.699 150.509 209.299 151.309 209.299L177.909 209.199C178.709 209.199 179.509 209.599 180.009 210.299C184.409 216.799 186.909 224.199 187.209 231.599C187.409 236.299 187.609 242.099 183.809 247.899C179.609 253.699 172.209 257.399 164.709 257.399ZM152.609 214.299C149.709 219.699 148.009 225.399 147.709 231.199C147.409 236.199 147.209 240.999 150.209 245.399C154.609 251.799 162.809 252.399 163.709 252.399C170.009 252.699 176.209 249.799 179.409 245.099C182.309 240.799 182.209 235.999 182.009 231.899C181.809 225.899 179.809 219.799 176.409 214.299H152.609Z" fill="black"/>
<path d="M186.91 273.699C184.71 273.699 182.91 272.999 181.81 272.599C177.81 270.999 175.11 268.299 173.21 265.899C165.61 267.599 158.51 266.499 154.81 265.699C153.41 268.499 150.81 272.399 146.01 273.399C143.41 273.999 140.51 273.499 137.91 272.199C126.71 266.399 128.01 245.399 128.41 241.199C129.31 231.399 133.11 221.899 139.51 213.499C140.11 212.799 140.91 212.299 141.81 212.299L188.61 211.099C189.71 211.099 190.61 211.599 191.21 212.399C196.91 220.899 200.41 230.099 201.61 239.699C201.71 240.499 203.81 258.299 195.81 268.999C194.91 270.199 192.51 273.399 188.81 273.599C188.11 273.599 187.51 273.699 186.91 273.699ZM174.51 259.399C175.51 259.399 176.51 259.899 177.11 260.899C178.31 262.999 180.51 265.699 184.01 267.099C185.31 267.599 186.51 267.999 187.81 267.699C188.01 267.699 188.21 267.599 188.51 267.599C189.11 267.599 190.01 266.899 191.11 265.399C197.71 256.599 195.81 240.499 195.81 240.399C194.81 232.199 191.91 224.399 187.31 216.999L143.71 218.099C139.91 223.399 135.51 231.399 134.61 241.599C133.91 248.799 134.41 263.399 140.91 266.699C142.31 267.399 143.71 267.699 144.91 267.399C148.61 266.599 150.21 261.299 150.31 261.099C150.51 260.299 151.11 259.699 151.81 259.299C152.51 258.899 153.41 258.899 154.11 259.099C154.21 259.099 163.91 262.399 173.71 259.499C173.91 259.399 174.21 259.399 174.51 259.399Z" fill="black"/>
<path d="M143.709 73.8989C134.009 72.1989 119.309 69.4989 104.409 73.4989C100.109 74.5989 91.3093 77.0989 83.2093 84.4989C75.6093 91.3989 72.5093 99.1989 70.5093 103.999C62.8093 123.599 66.6093 141.899 69.0093 152.299C71.2093 162.199 73.3093 171.499 80.3093 181.199C89.0093 193.199 99.6093 198.199 119.209 207.099C141.409 217.199 152.409 222.199 166.009 221.999C184.309 221.699 197.509 213.899 214.609 203.799C234.509 191.999 244.709 185.999 252.309 173.299C267.209 148.199 262.409 113.299 244.809 90.9989C240.009 84.8989 226.909 68.2989 209.609 67.9989C203.709 67.8989 194.909 69.7989 177.309 73.5989C172.809 74.4989 168.609 75.4989 162.509 75.6989C154.409 76.1989 149.209 74.8989 143.709 73.8989Z" fill="url(#paint9_linear)"/>
<path d="M69.0099 139.999C69.6099 139.899 70.1099 154.799 80.3099 170.499C81.2099 171.899 84.9099 177.499 91.3099 183.499C100.21 191.899 109.41 196.599 119.51 200.899C143.21 210.799 155.01 215.799 168.31 215.499C192.31 215.099 209.71 202.299 231.21 186.499C237.81 181.599 242.01 177.799 245.81 172.699C255.91 158.999 257.61 143.999 257.81 135.699C258.11 141.899 258.31 160.999 245.61 179.799C234.21 196.699 218.81 203.799 212.81 206.199C203.61 211.799 195.91 216.999 189.91 216.999C189.51 216.999 163.51 223.899 163.51 223.899L136.81 218.199L113.11 204.199C106.41 201.299 96.6099 195.899 87.7099 186.299C79.2099 177.199 75.2099 168.299 74.0099 165.499C68.3099 152.199 68.4099 140.099 69.0099 139.999Z" fill="#FFFF86"/>
<path d="M158.109 92.7986C158.309 95.8986 154.309 98.3986 152.309 97.5986C151.309 97.1986 150.809 96.0986 150.009 94.0986C149.309 92.2986 148.909 91.3986 149.309 90.3986C149.909 88.9986 151.909 88.5986 153.209 88.6986C155.509 88.7986 158.009 90.3986 158.109 92.7986Z" fill="#9E4C0E"/>
<path d="M170.109 81.6985C170.309 84.7985 166.309 87.2985 164.309 86.4985C163.309 86.0985 162.809 84.9985 162.009 82.9985C161.309 81.1985 160.909 80.2985 161.309 79.2985C161.909 77.8985 163.909 77.4985 165.209 77.5985C167.509 77.6985 169.909 79.3985 170.109 81.6985Z" fill="#9E4C0E"/>
<path d="M174.81 83.5988C176.31 81.7988 179.81 82.5988 180.41 84.0988C180.71 84.7988 180.41 85.6988 179.71 87.1988C179.11 88.4988 178.81 89.1988 178.11 89.4988C177.01 89.8988 175.71 89.0988 175.11 88.2988C174.11 87.0988 173.61 84.8988 174.81 83.5988Z" fill="#9E4C0E"/>
<path d="M196.91 216.799C198.61 216.599 200.11 218.599 199.81 219.599C199.61 220.099 199.01 220.399 197.91 220.899C197.01 221.299 196.41 221.599 195.91 221.399C195.11 221.099 194.81 220.099 194.81 219.399C194.81 218.299 195.61 216.999 196.91 216.799Z" fill="#9E4C0E"/>
<path d="M218.31 205.098C220.01 204.898 221.51 206.898 221.21 207.898C221.01 208.398 220.41 208.698 219.31 209.198C218.41 209.598 217.81 209.898 217.31 209.698C216.51 209.398 216.21 208.398 216.21 207.698C216.21 206.598 217.11 205.198 218.31 205.098Z" fill="#9E4C0E"/>
<path d="M203.11 212.298C203.11 212.198 203.51 211.398 204.31 211.198C205.31 210.898 205.61 212.098 207.01 212.198C208.31 212.298 208.81 211.298 209.91 211.598C210.41 211.698 210.81 212.098 211.01 212.498C211.51 213.798 210.01 216.198 207.91 216.698C205.81 217.198 204.11 215.498 203.51 214.398C203.21 213.998 202.71 213.198 203.11 212.298Z" fill="#9E4C0E"/>
<path d="M230.21 202.098C230.21 202.198 230.51 203.098 230.01 203.698C229.41 204.498 228.41 203.798 227.41 204.498C226.41 205.198 226.61 206.298 225.61 206.698C225.21 206.898 224.61 206.898 224.11 206.598C222.91 205.898 222.51 202.998 223.71 201.298C225.01 199.598 227.31 199.898 228.51 200.498C229.01 200.798 229.91 201.198 230.21 202.098Z" fill="#9E4C0E"/>
<path d="M232.894 199.404C233.343 198.708 233.405 197.949 233.033 197.71C232.662 197.471 231.997 197.842 231.549 198.539C231.101 199.236 231.039 199.994 231.41 200.233C231.782 200.472 232.446 200.101 232.894 199.404Z" fill="#9E4C0E"/>
<path d="M213.31 212.599C213.917 212.599 214.41 212.151 214.41 211.599C214.41 211.046 213.917 210.599 213.31 210.599C212.702 210.599 212.21 211.046 212.21 211.599C212.21 212.151 212.702 212.599 213.31 212.599Z" fill="#9E4C0E"/>
<path d="M202.566 219.202C202.948 218.979 202.919 218.219 202.501 217.503C202.084 216.788 201.436 216.389 201.054 216.611C200.673 216.834 200.702 217.595 201.119 218.31C201.537 219.025 202.185 219.425 202.566 219.202Z" fill="#9E4C0E"/>
<path d="M167.91 115.199C166.31 117.099 166.51 117.799 165.41 118.399C164.21 118.999 162.51 118.999 161.31 118.299C158.71 116.699 159.51 112.399 159.61 111.899C159.81 111.099 160.21 109.199 161.91 107.999C163.91 106.499 167.01 106.499 168.91 108.099C170.01 108.999 171.11 110.799 170.71 112.299C170.31 113.299 169.51 113.299 167.91 115.199Z" fill="#9E4C0E"/>
<path d="M147.709 83.5985C147.709 83.6985 147.309 85.0985 146.209 85.5985C144.709 86.1985 143.909 84.3985 141.709 84.4985C139.709 84.5985 139.109 86.2985 137.309 85.9985C136.509 85.8985 135.709 85.3985 135.209 84.6985C134.009 82.7985 135.709 78.5985 138.909 77.3985C142.109 76.1985 145.209 78.5985 146.509 80.1985C147.109 80.8985 148.009 82.0985 147.709 83.5985Z" fill="#9E4C0E"/>
<path d="M124.71 80.8988H123.81C122.51 80.8988 121.51 79.8988 121.51 78.5988C121.51 77.2988 122.51 76.2988 123.81 76.2988H124.71C126.01 76.2988 127.01 77.2988 127.01 78.5988C126.91 79.8988 125.91 80.8988 124.71 80.8988Z" fill="#9E4C0E"/>
<path d="M211.209 79.3988C209.909 79.3988 208.909 78.3988 208.909 77.0988C208.909 75.7988 209.909 74.7988 211.209 74.7988C212.509 74.7988 213.509 75.7988 213.509 77.0988C213.509 78.3988 212.409 79.3988 211.209 79.3988Z" fill="#9E4C0E"/>
<path d="M165.11 225.599C147.91 225.599 136.01 219.799 118.21 211.199C99.01 201.899 80.91 193.099 71.21 173.199C65.91 162.299 65.41 152.799 64.91 144.399C64.11 129.499 62.51 101.899 82.71 82.7987C99.51 66.8988 123.41 64.5988 134.51 66.7988L135.21 66.8987C136.51 67.1987 139.11 67.6987 142.81 68.3987C156.81 71.0987 161.71 71.3987 165.61 71.3987C172.01 71.4987 175.31 70.5987 179.41 69.3987C181.21 68.8987 183.31 68.2988 185.91 67.7988C186.41 67.6988 190.81 66.6988 196.91 66.1988C219.41 64.0988 236.41 79.2987 238.11 80.7987C253.81 93.3988 257.91 111.099 260.11 120.599C260.31 121.599 260.61 122.599 260.81 123.399C262.61 130.499 264.51 137.899 263.71 148.199C263.51 150.999 262.41 160.799 257.71 170.999C249.31 189.099 233.61 198.199 218.51 206.999L217.11 207.799C201.61 216.799 187.01 225.299 166.31 225.599C165.81 225.599 165.51 225.599 165.11 225.599ZM126.01 72.9987C115.21 72.9987 99.41 76.5988 87.61 87.7987C69.81 104.599 71.11 129.199 72.01 143.899C72.51 151.999 72.91 160.399 77.61 170.099C86.21 187.899 102.51 195.699 121.31 204.899C138.61 213.299 150.01 218.799 166.01 218.599C184.91 218.399 198.71 210.299 213.41 201.799L214.81 200.999C229.71 192.299 243.71 184.199 251.21 168.099C255.41 158.999 256.41 150.199 256.61 147.799C257.31 138.699 255.61 131.899 253.91 125.299C253.71 124.399 253.41 123.399 253.21 122.299C251.11 112.999 247.51 97.3988 233.61 86.2987C233.51 86.1987 233.51 86.1988 233.41 86.0988C233.21 85.9988 217.51 71.4988 197.51 73.2988C191.71 73.7988 187.51 74.7987 187.31 74.7987C185.01 75.2987 183.11 75.7987 181.21 76.2987C176.71 77.4987 172.81 78.5987 165.51 78.4987C161.31 78.4987 156.01 78.1987 141.51 75.3987C137.81 74.6987 135.11 74.0987 133.81 73.8987L133.21 73.7988C131.21 73.2988 128.81 72.9987 126.01 72.9987Z" fill="black"/>
<path d="M114.81 179.899C142.59 179.899 165.11 157.379 165.11 129.599C165.11 101.819 142.59 79.2988 114.81 79.2988C87.0298 79.2988 64.5098 101.819 64.5098 129.599C64.5098 157.379 87.0298 179.899 114.81 179.899Z" fill="black"/>
<path d="M114.809 171.499C137.95 171.499 156.709 152.739 156.709 129.599C156.709 106.458 137.95 87.6987 114.809 87.6987C91.6684 87.6987 72.9092 106.458 72.9092 129.599C72.9092 152.739 91.6684 171.499 114.809 171.499Z" fill="white"/>
<path d="M213.51 179.199C241.4 179.199 264.01 156.589 264.01 128.699C264.01 100.808 241.4 78.1987 213.51 78.1987C185.619 78.1987 163.01 100.808 163.01 128.699C163.01 156.589 185.619 179.199 213.51 179.199Z" fill="black"/>
<path d="M213.509 170.599C236.65 170.599 255.409 151.84 255.409 128.699C255.409 105.558 236.65 86.7988 213.509 86.7988C190.369 86.7988 171.609 105.558 171.609 128.699C171.609 151.84 190.369 170.599 213.509 170.599Z" fill="white"/>
<path d="M172.31 92.8989C172.41 92.9989 173.11 94.1989 172.61 95.3989C172.01 96.8989 170.11 96.1989 168.71 97.7989C167.31 99.2989 168.11 100.899 166.61 101.999C166.01 102.499 165.01 102.699 164.21 102.499C162.01 101.999 160.31 97.7989 161.71 94.6989C163.11 91.5989 167.01 90.9989 169.11 91.2989C169.91 91.3989 171.51 91.5989 172.31 92.8989Z" fill="#9E4C0E"/>
<path d="M197.709 79.1985C197.709 79.2985 197.609 80.3985 196.809 80.8985C195.809 81.4985 194.909 80.2985 193.309 80.6985C191.809 80.9985 191.609 82.3985 190.209 82.3985C189.609 82.3985 188.909 82.1985 188.509 81.6985C187.409 80.3985 188.109 77.0985 190.309 75.7985C192.509 74.4985 195.209 75.7985 196.409 76.8985C196.909 77.1985 197.809 77.9985 197.709 79.1985Z" fill="#9E4C0E"/>
<path d="M152.309 81.1985C153.109 80.1985 155.009 80.6984 155.409 81.4984C155.609 81.8984 155.409 82.3985 155.009 83.1985C154.709 83.8985 154.509 84.2984 154.109 84.4984C153.509 84.6984 152.809 84.2984 152.509 83.8984C151.909 83.0984 151.609 81.8985 152.309 81.1985Z" fill="#9E4C0E"/>
<path d="M132.009 75.9989C132.509 75.3989 133.709 75.6989 133.909 76.1989C134.009 76.3989 133.909 76.6989 133.709 77.1989C133.509 77.5989 133.409 77.8989 133.209 77.9989C132.809 78.0989 132.409 77.8989 132.209 77.5989C131.809 77.1989 131.709 76.3989 132.009 75.9989Z" fill="#9E4C0E"/>
<path d="M181.509 77.8988C182.009 77.2988 183.209 77.5988 183.409 78.0988C183.509 78.2988 183.409 78.5988 183.209 79.0988C183.009 79.4988 182.909 79.7988 182.709 79.8988C182.309 79.9988 181.909 79.7988 181.709 79.4988C181.309 78.9988 181.209 78.2988 181.509 77.8988Z" fill="#9E4C0E"/>
<path d="M160.31 87.7987C160.81 87.1987 162.01 87.4987 162.21 87.9987C162.31 88.1987 162.21 88.4987 162.01 88.9987C161.81 89.3987 161.71 89.6987 161.51 89.7987C161.11 89.8987 160.71 89.6987 160.51 89.3987C160.11 88.9987 159.91 88.1987 160.31 87.7987Z" fill="#9E4C0E"/>
<path d="M202.51 76.6986C203.01 76.0986 204.21 76.3986 204.41 76.8986C204.51 77.0986 204.41 77.3986 204.21 77.8986C204.01 78.2986 203.91 78.5986 203.71 78.6986C203.31 78.7986 202.91 78.5986 202.71 78.2986C202.21 77.8986 202.11 77.0986 202.51 76.6986Z" fill="#9E4C0E"/>
<path d="M115.509 74.7985C116.809 74.5985 118.009 76.2985 117.709 77.0985C117.609 77.4985 117.109 77.7985 116.309 78.1985C115.609 78.4985 115.209 78.6985 114.709 78.5985C114.109 78.3985 113.909 77.4984 113.909 76.9984C113.909 75.9984 114.509 74.8985 115.509 74.7985Z" fill="#9E4C0E"/>
<path d="M181.009 197.999C177.609 196.699 176.309 191.799 178.209 188.499C178.509 187.999 179.709 185.899 182.209 185.299C185.809 184.499 188.909 187.599 189.309 188.099C190.809 189.699 192.509 192.699 191.009 195.199C189.809 197.099 187.109 197.699 185.809 197.999C184.409 198.199 182.709 198.599 181.009 197.999Z" fill="#D30A05"/>
<path d="M183.01 199.799C182.21 199.799 181.41 199.699 180.51 199.399C178.61 198.699 177.11 197.099 176.41 194.999C175.51 192.599 175.71 189.899 176.91 187.699C178.41 184.999 180.51 184.099 181.91 183.799C186.21 182.899 189.71 186.299 190.41 186.999C192.71 189.299 194.11 192.999 192.21 195.899C190.61 198.399 187.51 198.999 186.01 199.399C185.21 199.599 184.11 199.799 183.01 199.799ZM183.41 186.699C183.11 186.699 182.81 186.699 182.61 186.799C181.31 187.099 180.31 187.899 179.61 189.299C178.81 190.699 178.71 192.499 179.31 194.099C179.81 195.399 180.61 196.299 181.71 196.699C182.91 197.199 184.31 196.799 185.61 196.599C186.81 196.299 189.01 195.799 189.91 194.399C191.01 192.599 189.41 190.199 188.41 189.199C188.01 188.799 185.91 186.699 183.41 186.699Z" fill="black"/>
<path d="M202.409 191.599C201.509 190.199 199.609 189.899 198.209 190.799C192.809 194.399 181.509 200.599 166.009 200.999C150.809 201.399 139.309 195.999 133.509 192.599C134.309 190.999 134.909 189.099 134.909 186.899C135.009 185.199 133.709 183.899 132.009 183.799C130.409 183.799 129.009 184.999 128.909 186.699C128.709 192.799 122.609 193.999 121.909 194.099C120.309 194.399 119.209 195.899 119.409 197.499C119.609 198.999 120.909 199.999 122.409 199.999C122.609 199.999 122.709 199.999 122.909 199.999C124.709 199.699 127.309 198.799 129.609 197.099C129.709 197.199 129.809 197.299 130.009 197.399C135.909 200.999 148.209 206.999 164.609 206.999C165.109 206.999 165.709 206.999 166.209 206.999C183.309 206.599 195.709 199.799 201.609 195.799C202.909 194.899 203.309 192.999 202.409 191.599Z" fill="#FF7400"/>
<path d="M202.71 189.399C201.81 187.999 199.91 187.699 198.51 188.599C193.11 192.199 181.81 198.399 166.31 198.799C151.01 199.199 139.61 193.799 133.81 190.399C134.61 188.799 135.21 186.899 135.21 184.699C135.31 182.999 134.01 181.699 132.31 181.599C130.71 181.599 129.31 182.799 129.21 184.499C129.01 190.599 122.91 191.799 122.21 191.899C120.61 192.199 119.51 193.699 119.71 195.299C119.91 196.799 121.21 197.799 122.71 197.799C122.91 197.799 123.01 197.799 123.21 197.799C125.01 197.499 127.61 196.599 129.91 194.899C130.01 194.999 130.11 195.099 130.31 195.199C136.31 198.799 148.51 204.799 164.91 204.799C165.41 204.799 166.01 204.799 166.51 204.799C183.61 204.399 196.01 197.599 201.91 193.599C203.31 192.599 203.61 190.699 202.71 189.399Z" fill="black"/>
<path d="M132.309 139.099C131.009 140.599 124.509 132.499 113.709 132.499C102.009 132.499 95.0091 141.799 93.6091 140.299C91.7091 138.399 99.5091 119.199 113.109 119.199C126.109 119.299 134.109 137.199 132.309 139.099Z" fill="black"/>
<path d="M232.409 137.699C231.109 139.099 225.009 131.399 214.609 131.399C203.409 131.399 196.809 140.199 195.409 138.799C193.609 136.999 201.009 118.699 214.009 118.699C226.609 118.799 234.109 135.899 232.409 137.699Z" fill="black"/>
<path d="M56.21 104.999C52.91 120.499 63.11 132.199 64.21 133.499C65.71 142.499 67.31 151.499 68.81 160.499C73.51 159.899 78.21 159.299 83.01 158.699C78.01 134.699 73.01 110.699 68.01 86.6987C65.71 88.2987 58.41 94.3987 56.21 104.999Z" fill="white"/>
<path d="M68.8095 162.899C67.6095 162.899 66.5095 161.999 66.3095 160.799L61.8095 134.599C59.0095 131.299 50.5095 119.699 53.7095 104.499C55.9095 93.9986 62.6095 87.4986 66.4095 84.5986C67.1095 84.0986 68.0095 83.8986 68.8095 84.1986C69.6095 84.4986 70.2095 85.1986 70.4095 85.9986L85.4095 157.999C85.5095 158.699 85.4095 159.399 85.0095 159.999C84.6095 160.599 84.0095 160.899 83.3095 160.999L69.1095 162.799C69.0095 162.899 68.9095 162.899 68.8095 162.899ZM66.4095 91.2986C63.4095 94.2986 60.0095 98.9986 58.6095 105.499C55.6095 119.699 64.9095 130.599 66.0095 131.799C66.3095 132.199 66.5095 132.599 66.6095 132.999L70.8095 157.599L79.9095 156.399L66.4095 91.2986Z" fill="black"/>
<path d="M63.6094 160.599C72.0094 159.099 80.3094 157.699 88.7094 156.199C91.9094 171.799 95.0094 187.399 98.2094 203.099C97.3094 208.699 92.9094 212.999 87.4094 213.799C81.7094 214.599 76.1094 211.599 73.7094 206.399C70.3094 191.099 66.9094 175.899 63.6094 160.599Z" fill="#3CBA3C"/>
<path d="M85.4097 216.499C79.5097 216.499 73.9097 212.999 71.3097 207.499C71.2097 207.299 71.2097 207.199 71.1097 206.999L61.0097 161.199C60.9097 160.499 61.0097 159.799 61.4097 159.299C61.8097 158.699 62.4097 158.299 63.0097 158.199L88.1097 153.799C89.4097 153.599 90.7097 154.399 91.0097 155.799L100.51 202.699C100.61 202.999 100.61 203.299 100.51 203.599C99.4097 210.299 94.2097 215.399 87.6097 216.399C86.9097 216.399 86.2097 216.499 85.4097 216.499ZM76.0097 205.599C78.0097 209.699 82.4097 212.099 86.9097 211.399C91.2097 210.799 94.7097 207.499 95.6097 203.199L86.7097 159.199L66.6097 162.699L76.0097 205.599Z" fill="black"/>
<path d="M81.1094 159.999C83.0094 159.699 84.9094 159.399 86.7094 159.099C89.7094 173.799 92.6094 188.399 95.6094 203.099C95.5094 203.699 95.3094 204.499 94.9094 205.299C94.3094 206.699 93.4094 207.699 92.8094 208.299C88.9094 192.199 85.0094 176.099 81.1094 159.999Z" fill="#248E1B"/>
<path d="M69.3094 162.199C68.4094 162.299 67.5094 162.499 66.6094 162.599C69.6094 177.299 72.7094 191.899 75.7094 206.599C76.9094 207.599 78.1094 208.499 79.3094 209.499C76.0094 193.699 72.6094 177.999 69.3094 162.199Z" fill="#FFF7D2"/>
<path d="M92.6096 183.799C93.4096 192.499 85.7096 201.599 76.5096 201.599C71.7096 201.599 68.2096 198.899 67.7096 198.499C63.4096 194.999 62.7096 189.899 62.3096 187.099C61.9096 184.199 61.3096 179.799 64.1096 175.599C64.3096 175.299 67.5096 170.399 73.4096 169.399C81.1096 167.999 91.6096 173.699 92.6096 183.799Z" fill="url(#paint10_linear)"/>
<path d="M76.5096 204.599C70.5096 204.599 66.3096 201.199 65.8096 200.899C60.6096 196.699 59.7096 190.499 59.4096 187.599C59.0096 184.499 58.3096 179.199 61.6096 174.099C62.0096 173.399 65.9096 167.799 72.9096 166.499C77.9096 165.599 83.7096 167.199 88.2096 170.499C92.5096 173.799 95.2096 178.399 95.7096 183.499C96.2096 188.699 94.3096 193.999 90.5096 198.199C86.7096 202.299 81.6096 204.599 76.5096 204.599ZM75.8096 172.199C75.2096 172.199 74.5096 172.299 73.9096 172.399C69.3096 173.199 66.6096 177.299 66.6096 177.299C64.5096 180.599 64.9096 184.199 65.3096 186.799C65.6096 189.299 66.2096 193.499 69.6096 196.299C69.6096 196.299 72.6096 198.699 76.5096 198.699C79.9096 198.699 83.4096 197.099 85.9096 194.199C88.5096 191.299 89.9096 187.499 89.6096 184.099C89.3096 180.699 87.4096 177.499 84.5096 175.299C81.9096 173.299 78.7096 172.199 75.8096 172.199Z" fill="black"/>
<path d="M249.209 157.199L257.109 121.199C257.109 121.199 257.109 121.199 257.109 121.099L253.909 120.499C251.309 119.999 249.709 117.599 250.209 114.999L257.109 81.7988L284.509 87.4988L277.909 119.899C277.409 122.299 275.109 123.899 272.609 123.499L266.909 122.499C264.109 136.699 261.309 150.999 258.409 165.199C254.309 165.099 250.209 164.999 246.009 164.899C246.009 164.899 245.909 164.899 246.009 164.799L249.209 157.199Z" fill="white"/>
<path d="M265.809 83.5986C263.809 92.4986 261.909 101.499 259.909 110.399L265.809 83.5986Z" fill="white"/>
<path d="M275.009 86.8989C273.209 95.2989 271.509 103.799 269.709 112.199L275.009 86.8989Z" fill="white"/>
<path d="M258.509 167.799L246.109 167.499C245.309 167.499 244.509 167.099 244.109 166.399C243.609 165.699 243.509 164.799 243.809 163.999L246.909 156.399L254.209 123.099L253.509 122.999C251.609 122.699 250.009 121.599 248.909 119.999C247.809 118.399 247.409 116.499 247.809 114.599L254.709 81.3989C254.809 80.6989 255.209 80.0989 255.809 79.7989C256.409 79.3989 257.109 79.2989 257.709 79.4989L285.109 85.1989C285.709 85.2989 286.309 85.6989 286.709 86.2989C287.109 86.8989 287.209 87.5989 287.109 88.1989L280.509 120.499C279.709 124.299 276.109 126.699 272.309 126.099L268.909 125.499L260.909 165.899C260.709 166.899 259.709 167.799 258.509 167.799ZM249.809 162.599L256.509 162.699L264.609 121.999C264.909 120.699 266.209 119.699 267.509 119.999L273.209 120.999C274.309 121.199 275.409 120.499 275.609 119.399L281.709 89.3989L259.109 84.6989L252.709 115.499C252.609 116.099 252.709 116.599 253.009 117.099C253.309 117.599 253.809 117.899 254.409 117.999L257.609 118.599C258.309 118.699 258.909 119.099 259.309 119.699C259.709 120.299 259.809 120.999 259.609 121.699L251.809 157.699C251.809 157.799 251.709 157.999 251.709 158.099L249.809 162.599Z" fill="black"/>
<path d="M259.909 111.899C259.809 111.899 259.709 111.899 259.609 111.899C258.809 111.699 258.309 110.899 258.509 110.099L264.409 83.2989C264.609 82.4989 265.409 81.9989 266.209 82.1989C267.009 82.3989 267.509 83.1989 267.309 83.9989L261.409 110.799C261.209 111.399 260.609 111.899 259.909 111.899Z" fill="black"/>
<path d="M269.709 113.599C269.609 113.599 269.509 113.599 269.409 113.599C268.609 113.399 268.109 112.599 268.209 111.799L273.509 86.4988C273.709 85.6988 274.509 85.1988 275.309 85.2988C276.109 85.4988 276.609 86.2988 276.509 87.0988L271.209 112.399C271.109 113.099 270.409 113.599 269.709 113.599Z" fill="black"/>
<path d="M269.009 152.199C260.609 150.999 252.209 149.799 243.809 148.699C241.209 164.399 238.609 180.099 235.909 195.899C237.009 201.399 241.609 205.599 247.109 206.199C252.809 206.899 258.309 203.599 260.509 198.299C263.409 182.899 266.209 167.499 269.009 152.199Z" fill="#3CBA3C"/>
<path d="M251.509 152.199C249.609 151.999 247.709 151.699 245.809 151.499C243.309 166.299 240.909 180.999 238.409 195.799C238.509 196.399 238.809 197.199 239.209 197.999C239.909 199.399 240.809 200.299 241.409 200.899C244.809 184.599 248.109 168.399 251.509 152.199Z" fill="#248E1B"/>
<path d="M263.41 153.899C264.31 153.999 265.21 154.099 266.11 154.299C263.61 169.099 261.01 183.799 258.51 198.599C257.31 199.599 256.11 200.599 255.01 201.599C257.71 185.699 260.61 169.799 263.41 153.899Z" fill="#FFF7D2"/>
<path d="M248.61 208.999C248.01 208.999 247.41 208.999 246.91 208.899C240.21 208.099 234.91 203.199 233.51 196.599C233.41 196.299 233.41 195.999 233.51 195.699L241.41 148.499C241.61 147.199 242.91 146.199 244.21 146.399L269.41 149.899C270.11 149.999 270.71 150.399 271.11 150.899C271.51 151.499 271.71 152.099 271.51 152.799L263.01 198.899C263.01 199.099 262.91 199.199 262.81 199.399C260.41 205.299 254.71 208.999 248.61 208.999ZM238.51 195.999C239.51 200.299 243.11 203.399 247.41 203.899C251.91 204.399 256.31 201.899 258.11 197.799L266.11 154.599L245.91 151.799L238.51 195.999Z" fill="black"/>
<path d="M239.909 174.699C237.509 185.299 248.209 194.699 256.509 194.799C257.009 194.799 261.609 194.799 265.009 191.599C267.709 189.099 268.209 185.799 269.209 179.199C269.909 174.699 270.209 172.499 269.409 170.299C267.309 164.699 260.809 162.799 260.509 162.699C252.809 160.499 241.909 165.499 239.909 174.699Z" fill="url(#paint11_linear)"/>
<path d="M256.61 197.799H256.51C251.01 197.699 244.91 194.399 240.91 189.399C237.21 184.699 235.81 179.299 237.01 174.099C238.11 169.299 241.21 165.099 245.81 162.299C250.61 159.399 256.41 158.399 261.31 159.799C262.11 159.999 269.61 162.299 272.21 169.199C273.31 172.099 272.91 174.799 272.21 179.599C271.11 186.599 270.51 190.499 267.11 193.699C263.11 197.599 257.81 197.799 256.61 197.799ZM242.81 175.399C241.81 179.999 244.11 183.899 245.51 185.699C248.41 189.299 252.81 191.799 256.51 191.799C256.61 191.799 260.41 191.799 262.91 189.399C264.71 187.699 265.21 185.299 266.21 178.699C266.91 174.299 267.11 172.699 266.51 171.299C264.91 167.099 259.71 165.599 259.61 165.599C256.41 164.699 252.21 165.399 248.81 167.499C245.71 169.299 243.51 172.199 242.81 175.399Z" fill="black"/>
<defs>
<linearGradient id="paint0_linear" x1="194.585" y1="262.36" x2="246.836" y2="203.382" gradientUnits="userSpaceOnUse">
<stop offset="0.0238095" stop-color="#FF7400"/>
<stop offset="0.3922" stop-color="#FFBD2B"/>
<stop offset="0.4754" stop-color="#FFC231"/>
<stop offset="0.5893" stop-color="#FFCE43"/>
<stop offset="0.721" stop-color="#FFE360"/>
<stop offset="0.8598" stop-color="#FFFF86"/>
<stop offset="1" stop-color="white"/>
</linearGradient>
<linearGradient id="paint1_linear" x1="238.53" y1="209.717" x2="246.93" y2="209.717" gradientUnits="userSpaceOnUse">
<stop/>
<stop offset="0.5212" stop-color="#FF8D27"/>
<stop offset="1"/>
</linearGradient>
<linearGradient id="paint2_linear" x1="224.831" y1="216.702" x2="244.385" y2="216.702" gradientUnits="userSpaceOnUse">
<stop/>
<stop offset="0.5212" stop-color="#FF8D27"/>
<stop offset="1"/>
</linearGradient>
<linearGradient id="paint3_linear" x1="213.065" y1="230.041" x2="237.937" y2="230.041" gradientUnits="userSpaceOnUse">
<stop/>
<stop offset="0.5212" stop-color="#FF8D27"/>
<stop offset="0.5574" stop-color="#F88926"/>
<stop offset="0.6112" stop-color="#E47E23"/>
<stop offset="0.676" stop-color="#C26C1E"/>
<stop offset="0.7494" stop-color="#945217"/>
<stop offset="0.8299" stop-color="#59310E"/>
<stop offset="0.9152" stop-color="#130A03"/>
<stop offset="0.9365"/>
</linearGradient>
<linearGradient id="paint4_linear" x1="207.059" y1="242.227" x2="227.144" y2="242.227" gradientUnits="userSpaceOnUse">
<stop/>
<stop offset="0.00924254" stop-color="#060301"/>
<stop offset="0.1569" stop-color="#5D330E"/>
<stop offset="0.2869" stop-color="#A25A19"/>
<stop offset="0.3946" stop-color="#D57621"/>
<stop offset="0.4758" stop-color="#F38725"/>
<stop offset="0.5212" stop-color="#FF8D27"/>
<stop offset="0.5763" stop-color="#FB8B26"/>
<stop offset="0.6323" stop-color="#EF8425"/>
<stop offset="0.6888" stop-color="#DA7921"/>
<stop offset="0.7455" stop-color="#BE691D"/>
<stop offset="0.8025" stop-color="#995517"/>
<stop offset="0.8597" stop-color="#6C3C10"/>
<stop offset="0.916" stop-color="#381F09"/>
<stop offset="0.9683"/>
</linearGradient>
<linearGradient id="paint5_linear" x1="195.123" y1="247.126" x2="210.675" y2="253.799" gradientUnits="userSpaceOnUse">
<stop/>
<stop offset="0.00924254" stop-color="#060301"/>
<stop offset="0.1569" stop-color="#5D330E"/>
<stop offset="0.2869" stop-color="#A25A19"/>
<stop offset="0.3946" stop-color="#D57621"/>
<stop offset="0.4758" stop-color="#F38725"/>
<stop offset="0.5212" stop-color="#FF8D27"/>
<stop offset="0.5763" stop-color="#FB8B26"/>
<stop offset="0.6323" stop-color="#EF8425"/>
<stop offset="0.6888" stop-color="#DA7921"/>
<stop offset="0.7455" stop-color="#BE691D"/>
<stop offset="0.8025" stop-color="#995517"/>
<stop offset="0.8597" stop-color="#6C3C10"/>
<stop offset="0.916" stop-color="#381F09"/>
<stop offset="0.9683"/>
</linearGradient>
<linearGradient id="paint6_linear" x1="208.767" y1="180" x2="239.746" y2="239.615" gradientUnits="userSpaceOnUse">
<stop stop-color="#FF9A2C"/>
<stop offset="0.498" stop-color="#FFBD2B"/>
<stop offset="0.6574" stop-color="#FFC32A"/>
<stop offset="0.8752" stop-color="#FFD528"/>
<stop offset="1" stop-color="#FFE227"/>
</linearGradient>
<linearGradient id="paint7_linear" x1="120.341" y1="179.804" x2="91.8232" y2="240.633" gradientUnits="userSpaceOnUse">
<stop stop-color="#FF9A2C"/>
<stop offset="0.498" stop-color="#FFBD2B"/>
<stop offset="0.6574" stop-color="#FFC32A"/>
<stop offset="0.8752" stop-color="#FFD528"/>
<stop offset="1" stop-color="#FFE227"/>
</linearGradient>
<linearGradient id="paint8_linear" x1="192.729" y1="242.726" x2="136.774" y2="241.842" gradientUnits="userSpaceOnUse">
<stop stop-color="#FF7400"/>
<stop offset="0.0137082" stop-color="#FF7E09"/>
<stop offset="0.0459612" stop-color="#FF8F19"/>
<stop offset="0.086126" stop-color="#FF9A24"/>
<stop offset="0.1425" stop-color="#FFA12A"/>
<stop offset="0.2989" stop-color="#FFA32C"/>
<stop offset="0.4785" stop-color="#FFAD2C"/>
<stop offset="0.6693" stop-color="#FFBD2B"/>
<stop offset="0.7445" stop-color="#FFC73D"/>
<stop offset="0.8951" stop-color="#FFE26C"/>
<stop offset="1" stop-color="#FFF791"/>
</linearGradient>
<linearGradient id="paint9_linear" x1="163.191" y1="81.7296" x2="164.231" y2="215.27" gradientUnits="userSpaceOnUse">
<stop stop-color="#FF7400"/>
<stop offset="0.3016" stop-color="#FF9A2C"/>
<stop offset="0.7857" stop-color="#FFBB2B"/>
<stop offset="0.8839" stop-color="#FFBC2D"/>
<stop offset="0.9193" stop-color="#FFC134"/>
<stop offset="0.9445" stop-color="#FFCA3F"/>
<stop offset="0.9649" stop-color="#FFD750"/>
<stop offset="0.9824" stop-color="#FFE766"/>
<stop offset="0.9976" stop-color="#FFFB81"/>
<stop offset="1" stop-color="#FFFF86"/>
</linearGradient>
<linearGradient id="paint10_linear" x1="62.2381" y1="186.729" x2="92.6035" y2="183.801" gradientUnits="userSpaceOnUse">
<stop stop-color="#FF9A2C"/>
<stop offset="0.498" stop-color="#FFBD2B"/>
<stop offset="0.6574" stop-color="#FFC32A"/>
<stop offset="0.8752" stop-color="#FFD528"/>
<stop offset="1" stop-color="#FFE227"/>
</linearGradient>
<linearGradient id="paint11_linear" x1="269.131" y1="180.003" x2="239.598" y2="176.382" gradientUnits="userSpaceOnUse">
<stop stop-color="#FF9A2C"/>
<stop offset="0.498" stop-color="#FFBD2B"/>
<stop offset="0.6574" stop-color="#FFC32A"/>
<stop offset="0.8752" stop-color="#FFD528"/>
<stop offset="1" stop-color="#FFE227"/>
</linearGradient>
</defs>
</svg>
