<svg width="458" height="458" viewBox="0 0 458 458" fill="none" xmlns="http://www.w3.org/2000/svg">
<path d="M310.362 313.326C310.227 313.191 309.958 313.191 309.823 313.056L310.362 313.326Z" fill="#A0663A"/>
<path d="M329.086 328.413C326.257 323.025 322.62 317.771 318.714 314.673L310.362 313.191C310.766 313.326 291.099 316.289 285.846 323.159C276.551 335.552 292.985 337.708 301.472 338.516C309.419 339.189 318.983 341.075 326.796 338.516C332.454 336.765 331.78 333.532 329.086 328.413Z" fill="#A0663A"/>
<path d="M256.211 300.259C251.765 293.255 248.398 289.887 240.046 289.618L231.021 292.85C231.29 292.581 232.233 292.581 231.559 292.312C225.228 294.871 217.415 293.389 212.296 298.912C207.851 303.762 205.292 316.559 210.276 321.678C214.721 326.258 226.845 323.698 232.502 323.294C242.605 322.486 254.325 323.159 263.754 319.522C264.832 313.326 259.309 305.243 256.211 300.259Z" fill="#A0663A"/>
<path d="M356.162 341.614C352.39 333.532 351.447 333.666 338.92 330.972C330.972 329.221 322.89 327.201 315.077 325.315C312.383 324.641 309.419 324.506 308.341 321.678C312.113 319.253 316.424 318.849 320.465 317.771C318.983 311.844 306.725 306.456 301.337 303.896C295.14 300.933 287.731 298.104 281.131 297.7C262.946 296.488 245.568 300.933 227.922 301.337C230.481 299.316 235.6 294.332 237.486 294.467L240.315 289.752C227.787 289.752 217.011 287.328 204.618 288.675C195.997 289.618 187.51 294.736 179.024 296.083C171.076 297.296 162.724 297.296 154.507 298.643C148.311 299.586 138.343 299.316 132.82 302.415C129.452 304.301 127.701 308.881 125.411 312.113C122.582 315.885 119.349 319.118 116.386 322.89C113.018 327.201 107.36 331.376 104.936 336.361C102.78 340.671 104.936 346.059 104.531 351.178C103.858 360.069 96.8532 378.658 102.511 385.528C112.479 397.786 135.244 399.672 149.388 402.905C158.953 405.061 167.574 406.946 177.542 407.485C189.127 408.024 198.96 405.465 210.006 404.118C228.461 402.097 246.107 402.636 264.831 402.636C276.416 402.636 287.731 400.481 299.451 400.481C311.844 400.481 379.87 399.942 376.099 383.508C375.829 383.238 361.82 353.738 356.162 341.614Z" fill="#AF713E"/>
<path d="M382.699 378.793C381.891 375.964 379.197 373.539 377.311 371.115C374.482 367.343 372.058 363.032 369.902 358.856C365.592 350.37 359.53 334.744 348.215 333.801V333.936C351.852 338.651 344.443 341.075 341.21 342.692C338.112 344.308 335.148 345.925 332.05 347.406C328.817 348.888 328.413 349.292 326.931 352.391C323.294 360.473 315.077 361.685 309.419 367.612C304.705 372.462 300.933 377.985 297.969 384.181C295.275 389.839 288.271 396.574 284.095 401.289C285.711 401.154 296.622 402.097 299.721 402.366C308.342 403.04 317.232 403.175 325.854 403.175C335.014 403.175 344.174 402.366 353.334 402.366C357.914 402.366 362.359 402.232 366.535 400.481C375.021 396.978 385.798 389.3 382.699 378.793Z" fill="#A0663A"/>
<path d="M273.587 344.443C269.411 345.386 265.236 345.521 260.925 345.925C250.687 346.868 240.584 344.173 230.481 345.116C219.974 346.194 209.871 348.08 199.095 348.08C191.147 348.08 183.604 346.733 175.925 345.79C175.521 348.619 176.868 351.178 177.677 353.738C179.158 358.183 182.391 362.089 182.796 366.804C183.2 371.653 182.795 376.503 183.065 381.487C183.2 383.642 184.008 385.663 184.143 387.818C184.277 390.378 183.334 391.859 182.391 394.149C180.505 398.729 179.024 403.04 176.195 407.081V407.216C186.298 411.122 198.556 408.967 209.063 408.024C218.223 407.216 228.326 406.273 237.082 403.983C241.393 402.771 243.278 400.211 246.646 397.382C249.879 394.688 253.516 392.668 257.018 390.378C260.386 388.222 263.619 386.741 265.774 383.103C268.199 378.793 268.468 375.425 268.738 370.576C268.873 367.747 267.525 364.379 268.064 361.82C268.468 359.934 270.624 358.856 271.432 356.836C273.318 351.852 277.763 348.484 279.918 343.635C277.898 343.231 275.473 344.039 273.587 344.443Z" fill="#A0663A"/>
<path d="M157.336 382.969C157.067 376.503 157.067 369.498 156.259 363.032C155.585 358.183 151.813 354.411 150.197 349.696C148.176 343.769 145.752 343.231 139.825 343.904C133.359 344.578 126.758 346.464 120.292 346.598L119.484 347.676C119.08 348.754 117.329 350.235 116.925 351.717C116.386 353.468 116.655 355.354 116.116 356.971C114.904 360.877 113.826 363.975 115.308 368.151C116.79 372.192 118.945 375.964 120.427 380.005C122.043 384.585 123.795 391.186 127.297 394.688C129.991 397.382 133.224 399.672 136.861 400.211C141.441 400.885 145.886 401.693 150.466 402.905C160.973 405.734 157.606 389.165 157.336 382.969Z" fill="#A0663A"/>
<path d="M172.019 330.434C167.843 324.102 160.973 322.89 156.123 317.232C150.331 310.901 136.86 301.606 136.86 301.606C133.627 302.145 128.374 306.86 126.757 309.285C124.467 312.652 121.234 315.885 118.406 319.118C113.691 324.641 105.474 331.107 103.857 338.381C111.132 343.635 117.193 347.811 126.488 347.406C135.244 347.002 143.326 344.578 152.082 344.982C157.201 345.251 162.859 343.769 167.843 344.982C172.153 346.059 192.898 347.272 197.343 347.945C193.033 345.116 174.713 334.744 172.019 330.434Z" fill="#D8894E"/>
<path d="M280.188 342.826C280.323 342.826 280.323 342.692 280.458 342.692C280.458 342.422 280.593 342.287 280.593 342.018L280.188 342.826Z" fill="#D8894E"/>
<path d="M280.457 342.692C278.706 349.427 269.816 354.546 268.199 361.82C275.877 362.224 282.613 362.089 289.887 364.783C294.467 366.535 302.145 372.192 306.59 370.441C309.689 369.229 312.383 364.918 315.346 363.167C318.445 361.281 322.89 360.473 325.719 358.318C328.547 356.162 327.47 353.603 329.356 350.774C330.703 348.888 333.801 347.541 335.687 346.329C342.153 342.692 351.852 338.92 349.157 333.532C327.335 331.915 298.643 330.703 280.457 342.692Z" fill="#D8894E"/>
<path d="M181.987 302.28C185.759 309.419 188.049 316.155 195.997 319.388C204.753 322.89 213.643 322.62 222.399 325.045C229.943 327.2 238.564 340.132 246.377 338.516C248.397 338.112 259.982 321.139 267.93 317.771C276.012 314.269 286.788 315.885 295.41 315.481C292.85 306.86 280.727 305.513 273.048 305.513C263.35 305.513 253.92 306.052 244.356 305.109C236.004 304.301 229 305.782 221.187 302.415C214.451 299.586 209.467 297.969 202.058 298.373C195.593 298.643 189.531 300.663 183.334 302.011L181.987 302.28Z" fill="#D8894E"/>
<path d="M173.096 341.749C168.651 341.345 164.071 341.614 159.626 341.345C156.123 341.21 152.352 340.536 148.849 340.671C142.787 340.941 136.591 342.826 130.529 343.5C127.296 343.769 124.872 342.557 121.908 341.883C119.079 341.345 116.25 341.21 113.422 340.536C109.919 339.728 107.495 338.785 103.992 338.381L113.691 346.194C115.981 347.676 116.116 349.158 115.846 351.582C115.577 354.007 115.173 357.509 115.307 360.069C116.25 357.913 118.54 352.391 120.022 351.043C121.908 349.292 125.006 349.562 127.566 349.292C130.529 349.023 133.627 348.753 136.591 348.349C139.285 348.08 142.787 347.541 145.482 347.945C145.886 348.08 146.425 348.215 146.829 348.215C147.502 350.37 150.331 352.929 151.813 354.546C153.833 356.566 155.45 358.856 156.797 361.012C156.123 357.913 154.372 354.007 154.776 350.639C155.046 348.753 155.989 349.427 157.875 349.427C159.222 349.427 160.703 349.292 162.185 349.292C165.149 349.292 168.112 349.831 171.076 349.831C174.039 349.831 176.868 349.292 179.966 349.292C186.297 349.292 192.225 349.023 198.152 348.08C189.396 347.676 181.313 342.557 173.096 341.749Z" fill="#E89256"/>
<path d="M167.439 348.215C170.134 349.696 172.962 352.256 174.444 354.95C176.465 358.722 176.465 363.167 178.216 366.939C179.563 369.633 181.314 371.923 181.853 374.886C182.257 376.772 182.661 378.658 182.796 380.544C182.257 376.772 182.122 372.866 182.257 368.959C182.392 367.073 182.931 365.322 182.931 363.571C182.931 361.012 180.775 357.913 179.967 355.354C179.428 353.872 178.889 352.525 178.351 351.043C178.081 350.235 177.812 348.753 177.408 348.349L167.439 348.215Z" fill="#E89256"/>
<path d="M334.34 345.251C331.78 346.194 329.086 347.272 326.796 348.888C321.947 352.66 317.097 358.856 311.305 360.742C309.958 361.146 308.341 362.089 306.86 362.359C304.3 362.898 300.933 361.416 298.508 360.742C292.985 359.261 286.519 358.991 280.862 359.261C278.437 359.395 276.012 360.069 273.587 360.473C272.24 360.742 269.142 360.742 268.064 361.551V361.685C272.779 361.685 278.033 362.493 283.017 363.436C285.711 363.975 287.732 364.918 290.291 366.131C292.581 367.208 295.41 367.882 297.296 369.498C296.892 371.384 296.757 373.539 296.353 375.56C295.679 378.389 293.928 380.813 293.12 383.642C292.042 387.279 290.83 391.051 289.887 394.823C290.695 392.937 292.985 391.051 294.332 389.569C295.41 388.357 296.487 387.01 297.565 385.663C299.047 384.046 300.529 382.295 301.472 380.409C303.357 377.042 303.762 373.809 306.59 371.115C308.88 368.959 311.844 367.882 313.999 365.592C315.211 364.379 315.885 363.841 317.636 363.302C320.6 362.493 324.371 361.146 326.661 358.991C329.49 356.432 328.413 351.448 331.107 348.888C332.589 347.541 335.148 347.137 336.764 345.925C338.111 344.982 339.728 344.173 340.94 343.096C339.054 343.5 336.36 344.443 334.34 345.251Z" fill="#E89256"/>
<path d="M280.053 313.326C273.991 312.518 267.795 313.056 261.733 311.979C253.247 310.497 245.029 307.803 236.408 306.725C232.906 306.186 229.269 306.321 225.632 306.456C222.534 306.591 219.705 306.052 216.607 305.917C212.565 305.782 208.659 307.129 204.752 307.399C203.675 307.399 202.462 307.264 201.385 307.533L201.519 307.668C203.809 309.419 208.255 309.554 211.084 309.689C216.068 309.958 219.974 309.015 224.824 310.766C231.963 313.326 240.045 313.326 246.781 316.828C250.148 318.579 254.055 320.196 256.075 323.564C256.884 324.776 256.749 327.066 256.884 326.931C257.827 326.123 261.733 322.755 262.811 321.812C265.909 318.984 268.872 316.963 273.183 316.155C275.608 315.751 278.302 315.616 280.861 315.616C283.017 315.616 285.98 315.481 288.674 315.481C286.654 313.73 282.612 313.595 280.053 313.326Z" fill="#E89256"/>
<path d="M162.993 321.139C159.626 318.714 156.528 315.751 153.429 312.922C148.445 308.207 147.368 301.741 140.363 299.855C139.689 299.721 132.011 301.202 129.317 304.166C128.105 305.378 127.296 306.86 126.623 308.476C126.084 309.689 125.141 311.979 124.063 312.922L125.68 311.844C129.182 310.228 133.493 311.979 136.726 313.595C142.383 316.559 147.772 319.926 153.699 322.486C156.932 323.833 160.434 325.988 163.802 326.931C165.822 327.47 168.112 327.47 170.133 327.874C170.268 326.258 164.341 322.216 162.993 321.139Z" fill="#E89256"/>
<path d="M181.044 261.195C178.485 278.976 171.48 290.291 165.553 297.296C165.014 297.969 164.476 298.643 163.802 299.182C162.859 301.472 161.916 305.109 161.647 309.419C161.377 313.595 161.108 318.445 163.802 322.89C168.786 331.376 179.293 332.589 182.122 332.993C190.07 334.07 190.878 330.972 206.369 330.568C213.104 330.433 216.742 330.837 220.244 331.78C224.689 332.993 224.824 333.936 229.673 335.148C237.486 337.303 243.009 336.765 244.356 336.63C247.724 336.36 249.475 335.687 251.63 335.148C255.806 334.205 268.603 335.956 274.53 336.36C289.887 337.438 301.876 330.299 305.647 327.874C307.533 326.662 318.714 319.387 317.232 313.999C316.693 312.248 315.077 311.17 311.979 309.15C310.901 308.476 307.264 306.186 302.819 304.839C292.446 301.876 276.82 304.705 269.412 303.088C261.194 301.337 251.496 291.907 244.356 259.443C223.073 259.982 202.059 260.521 181.044 261.195Z" fill="#724628"/>
<path d="M328.278 236.139C328.278 236.139 333.667 239.103 329.491 241.528C325.18 243.952 316.155 250.418 315.212 261.06C314.269 271.702 316.963 276.955 308.881 285.038C308.881 285.038 308.207 299.451 292.177 307.129C292.177 307.129 281.939 330.972 253.247 321.678C253.247 321.678 216.607 323.294 226.575 294.871C227.114 293.659 248.667 278.033 248.667 278.033L256.75 274.665C256.75 274.665 261.33 269.681 267.526 269.142C267.526 269.142 264.967 261.06 275.608 258.096C275.608 258.096 276.147 247.32 291.504 243.144C291.504 243.144 300.125 233.311 309.689 235.87C309.689 235.87 319.792 227.788 328.278 236.139Z" fill="url(#paint0_linear)"/>
<path d="M284.693 312.304C285.325 311.208 285.211 309.959 284.438 309.512C283.665 309.066 282.525 309.592 281.893 310.687C281.261 311.783 281.375 313.032 282.148 313.479C282.921 313.925 284.06 313.399 284.693 312.304Z" fill="#9E4C0E"/>
<path d="M325.988 238.294C325.988 238.294 326.392 238.968 326.123 239.507C325.719 240.315 324.776 239.911 324.102 240.854C323.429 241.662 323.698 242.47 323.025 243.009C322.755 243.279 322.216 243.413 321.812 243.279C320.735 243.009 319.926 240.989 320.6 239.372C321.408 237.756 323.429 237.352 324.506 237.486C324.776 237.486 325.584 237.621 325.988 238.294Z" fill="#9E4C0E"/>
<path d="M300.394 296.353C301.287 296.353 302.01 295.629 302.01 294.736C302.01 293.843 301.287 293.12 300.394 293.12C299.501 293.12 298.777 293.843 298.777 294.736C298.777 295.629 299.501 296.353 300.394 296.353Z" fill="#9E4C0E"/>
<path d="M302.28 244.895C303.024 244.895 303.627 244.171 303.627 243.279C303.627 242.386 303.024 241.662 302.28 241.662C301.536 241.662 300.933 242.386 300.933 243.279C300.933 244.171 301.536 244.895 302.28 244.895Z" fill="#9E4C0E"/>
<path d="M282.343 256.076C282.343 255.941 281.669 254.998 282.073 254.055C282.612 252.843 284.094 253.382 285.306 252.035C286.384 250.822 285.711 249.475 287.058 248.667C287.596 248.263 288.405 247.993 289.078 248.263C290.829 248.667 292.311 252.035 291.099 254.594C289.886 257.153 286.788 257.557 285.037 257.423C284.363 257.288 283.016 257.019 282.343 256.076Z" fill="#9E4C0E"/>
<path d="M309.824 278.841C310.568 278.841 311.171 278.117 311.171 277.225C311.171 276.332 310.568 275.608 309.824 275.608C309.08 275.608 308.477 276.332 308.477 277.225C308.477 278.117 309.08 278.841 309.824 278.841Z" fill="#9E4C0E"/>
<path d="M281.939 263.754C282.683 263.754 283.286 263.03 283.286 262.137C283.286 261.245 282.683 260.521 281.939 260.521C281.195 260.521 280.592 261.245 280.592 262.137C280.592 263.03 281.195 263.754 281.939 263.754Z" fill="#9E4C0E"/>
<path d="M254.324 318.31C255.217 318.31 255.941 317.586 255.941 316.693C255.941 315.801 255.217 315.077 254.324 315.077C253.432 315.077 252.708 315.801 252.708 316.693C252.708 317.586 253.432 318.31 254.324 318.31Z" fill="#9E4C0E"/>
<path d="M313.19 266.313C313.19 266.448 313.595 267.391 313.19 268.064C312.652 269.007 311.439 268.334 310.227 269.277C309.149 270.22 309.553 271.297 308.341 271.971C307.802 272.24 307.129 272.375 306.59 272.106C305.108 271.567 304.3 268.469 305.647 266.448C306.994 264.427 309.688 264.427 311.035 264.832C311.709 265.101 312.786 265.37 313.19 266.313Z" fill="#9E4C0E"/>
<path d="M280.996 267.391C281.131 267.526 281.804 268.738 281.4 269.95C280.727 271.432 278.841 270.759 277.359 272.375C276.012 273.857 276.82 275.473 275.204 276.551C274.53 276.955 273.587 277.359 272.779 277.09C270.489 276.551 268.738 272.375 270.219 269.142C271.701 265.909 275.608 265.37 277.763 265.64C278.571 265.909 280.188 266.044 280.996 267.391Z" fill="#9E4C0E"/>
<path d="M304.031 287.732C302.28 287.732 300.933 286.384 300.933 284.633C300.933 282.882 302.28 281.535 304.031 281.535C305.782 281.535 307.129 282.882 307.129 284.633C307.129 286.25 305.647 287.732 304.031 287.732Z" fill="#9E4C0E"/>
<path d="M273.588 316.424C273.857 320.6 268.469 323.967 265.775 322.89C264.428 322.351 263.754 320.869 262.677 318.175C261.734 315.75 261.195 314.538 261.734 313.191C262.542 311.305 265.236 310.766 266.987 310.901C269.951 311.036 273.318 313.326 273.588 316.424Z" fill="#9E4C0E"/>
<path d="M284.498 293.659C284.364 293.524 283.69 292.312 284.094 291.099C284.768 289.617 286.654 290.291 288.136 288.674C289.617 287.058 288.674 285.441 290.291 284.364C290.964 283.96 291.907 283.556 292.716 283.825C295.006 284.364 296.757 288.674 295.275 291.907C293.793 295.14 289.752 295.679 287.597 295.41C287.058 295.14 285.441 295.006 284.498 293.659Z" fill="#9E4C0E"/>
<path d="M270.893 288.27C272.914 285.846 277.629 286.923 278.437 288.944C278.841 289.887 278.437 291.099 277.494 293.12C276.686 294.871 276.282 295.814 275.339 296.218C273.857 296.757 272.106 295.679 271.298 294.602C269.95 292.985 269.412 290.022 270.893 288.27Z" fill="#9E4C0E"/>
<path d="M264.292 297.565C264.292 297.7 265.101 298.777 264.562 299.855C264.023 301.202 262.272 300.663 260.925 302.01C259.712 303.357 260.386 304.839 259.039 305.917C258.5 306.321 257.557 306.59 256.883 306.456C254.863 305.917 253.246 302.145 254.593 299.316C255.941 296.353 259.443 295.949 261.463 296.218C262.002 296.218 263.484 296.353 264.292 297.565Z" fill="#9E4C0E"/>
<path d="M309.015 245.299C310.228 243.817 313.057 244.491 313.595 245.703C313.865 246.242 313.595 247.05 313.057 248.263C312.652 249.34 312.383 249.879 311.709 250.149C310.767 250.418 309.824 249.744 309.285 249.206C308.477 248.263 308.207 246.377 309.015 245.299Z" fill="#9E4C0E"/>
<path d="M288.001 263.889C290.021 261.464 294.736 262.542 295.544 264.562C295.948 265.505 295.544 266.717 294.601 268.738C293.793 270.489 293.389 271.432 292.446 271.836C290.964 272.375 289.213 271.297 288.405 270.22C287.058 268.603 286.519 265.64 288.001 263.889Z" fill="#9E4C0E"/>
<path d="M299.451 258.904C297.7 258.904 296.353 257.557 296.353 255.806V254.594C296.353 252.843 297.7 251.496 299.451 251.496C301.202 251.496 302.549 252.843 302.549 254.594V255.806C302.549 257.557 301.202 258.904 299.451 258.904Z" fill="#9E4C0E"/>
<path d="M278.437 305.109C276.955 304.435 276.282 302.549 276.955 301.067C277.629 299.586 279.514 298.912 280.996 299.586C282.478 300.259 283.152 302.145 282.478 303.627C281.804 305.109 279.919 305.782 278.437 305.109Z" fill="#9E4C0E"/>
<path d="M281.535 281.131C282.428 281.131 283.152 280.407 283.152 279.514C283.152 278.622 282.428 277.898 281.535 277.898C280.643 277.898 279.919 278.622 279.919 279.514C279.919 280.407 280.643 281.131 281.535 281.131Z" fill="#9E4C0E"/>
<path d="M295.949 280.592C296.693 280.592 297.296 279.868 297.296 278.976C297.296 278.083 296.693 277.359 295.949 277.359C295.205 277.359 294.602 278.083 294.602 278.976C294.602 279.868 295.205 280.592 295.949 280.592Z" fill="#9E4C0E"/>
<path d="M308.476 260.521C309.22 260.521 309.823 259.797 309.823 258.905C309.823 258.012 309.22 257.288 308.476 257.288C307.732 257.288 307.129 258.012 307.129 258.905C307.129 259.797 307.732 260.521 308.476 260.521Z" fill="#9E4C0E"/>
<path d="M318.444 251.092H318.31C317.636 250.957 317.097 250.283 317.097 249.61C317.232 248.532 317.367 245.569 315.616 242.74C313.73 239.776 310.766 238.699 309.689 238.429C309.015 238.295 308.476 237.486 308.746 236.813C308.88 236.139 309.689 235.601 310.362 235.87C311.844 236.274 315.481 237.486 317.906 241.258C320.196 244.895 320.061 248.532 319.792 250.014C319.657 250.553 319.118 251.092 318.444 251.092Z" fill="url(#paint1_linear)"/>
<path d="M315.077 263.889C314.538 263.889 313.999 263.619 313.865 263.08C313.73 262.946 304.974 243.009 291.638 244.356C290.83 244.491 290.291 243.952 290.156 243.144C290.022 242.471 290.56 241.797 291.369 241.662C306.725 240.046 316.02 261.06 316.424 261.868C316.693 262.542 316.424 263.35 315.75 263.619C315.481 263.889 315.346 263.889 315.077 263.889Z" fill="url(#paint2_linear)"/>
<path d="M306.456 285.846C305.782 285.846 305.109 285.307 305.109 284.633C304.3 272.106 297.43 261.868 288.136 259.039C284.364 257.962 280.323 257.962 276.012 259.309C275.339 259.578 274.53 259.174 274.396 258.366C274.126 257.692 274.53 256.884 275.339 256.749C280.053 255.267 284.633 255.133 288.944 256.48C299.316 259.578 306.994 270.759 307.803 284.499C307.803 285.172 307.264 285.846 306.456 285.846Z" fill="url(#paint3_linear)"/>
<path d="M289.887 306.456C289.752 306.456 289.618 306.456 289.483 306.321C288.809 306.052 288.405 305.243 288.675 304.57C292.446 294.063 290.291 283.017 283.152 276.416C277.763 271.432 271.028 270.489 267.526 270.355C266.718 270.355 266.179 269.681 266.179 269.008C266.179 268.334 266.852 267.661 267.526 267.661C271.432 267.795 278.841 268.738 284.903 274.396C292.85 281.805 295.275 293.928 291.099 305.513C290.965 306.186 290.56 306.456 289.887 306.456Z" fill="url(#paint4_linear)"/>
<path d="M260.521 323.429C260.386 323.429 260.251 323.294 260.117 323.159C259.578 322.621 259.578 321.812 259.982 321.274C267.525 313.056 269.681 302.011 265.64 293.12C262.541 286.385 256.614 283.017 253.516 281.535C252.842 281.266 252.573 280.458 252.842 279.784C253.112 279.111 253.92 278.841 254.594 279.111C258.096 280.727 264.697 284.499 268.064 292.042C272.644 301.876 270.22 314.134 262.002 323.159C261.598 323.429 260.925 323.563 260.521 323.429Z" fill="url(#paint5_linear)"/>
<path d="M177.946 248.802C175.656 256.211 173.366 264.293 171.48 273.049C169.998 280.054 168.786 286.654 167.843 292.985C167.035 293.659 161.512 297.565 155.18 295.679C153.16 295.141 151.678 294.063 150.6 293.255C137.803 279.649 165.418 247.185 165.418 247.185C169.594 247.859 173.77 248.263 177.946 248.802Z" fill="url(#paint6_linear)"/>
<path d="M265.909 327.874C262.002 327.874 257.557 327.201 252.707 325.719C248.801 325.719 231.963 325.449 224.554 315.212C220.378 309.554 219.839 302.28 222.937 293.524C223.476 292.177 223.746 291.099 246.376 274.8C246.646 274.665 246.915 274.396 247.184 274.396L254.459 271.298C255.806 269.951 259.039 267.256 263.349 265.909C263.484 264.562 263.888 262.946 264.696 261.329C266.178 258.501 268.737 256.345 272.24 254.998C273.452 250.822 277.224 243.279 289.482 239.507C292.042 236.948 299.854 230.212 309.014 231.559C313.999 228.461 323.159 225.767 330.972 232.906C332.453 233.849 335.282 236.005 335.417 239.372C335.417 240.719 335.013 243.279 331.78 245.03C328.412 246.916 320.33 252.439 319.656 261.329C319.522 263.754 319.522 265.909 319.387 267.93C319.387 274.396 319.387 280.053 313.056 286.923C312.382 291.234 309.284 303.088 295.409 310.228C292.715 314.538 283.824 327.874 265.909 327.874ZM253.246 317.636C253.65 317.636 254.054 317.636 254.459 317.771C279.244 325.853 288 306.321 288.404 305.513C288.809 304.57 289.482 303.896 290.425 303.492C304.165 297.026 304.839 285.038 304.839 284.903C304.839 283.96 305.243 283.017 306.051 282.209C310.9 277.225 311.035 274.126 311.035 267.93C311.035 265.775 311.035 263.485 311.304 260.791C312.247 249.61 320.599 242.47 325.718 239.238C325.718 239.238 325.718 239.238 325.583 239.238C319.656 233.58 312.652 238.968 312.382 239.238C311.439 240.046 310.092 240.315 308.88 239.911C301.875 238.025 294.736 245.838 294.736 245.973C294.197 246.512 293.523 246.916 292.85 247.185C280.861 250.553 280.053 258.231 279.918 258.501C279.783 260.252 278.706 261.599 276.954 262.138C271.162 263.754 271.297 266.987 271.566 268.199C271.97 269.412 271.701 270.624 271.027 271.702C270.354 272.779 269.276 273.318 267.929 273.453C263.484 273.857 259.847 277.629 259.712 277.763C259.308 278.168 258.769 278.572 258.23 278.706L250.552 281.805C241.931 288.136 232.502 295.141 230.212 297.161C228.326 302.819 228.595 307.399 231.02 310.632C235.869 317.098 248.666 318.041 253.112 317.771C253.112 317.636 253.246 317.636 253.246 317.636Z" fill="black"/>
<path d="M177.946 250.688C172.423 264.966 169.998 277.225 168.92 285.846C166.9 300.663 165.149 316.155 173.366 322.486C173.904 322.89 177.946 325.853 182.526 325.045C187.24 324.237 191.147 319.792 192.763 313.73C192.763 313.73 206.907 318.714 221.725 314.269C223.342 316.828 226.844 321.812 233.04 324.237C234.926 324.91 237.486 325.988 240.584 325.315C240.584 325.315 244.086 324.506 247.319 320.735C251.764 315.481 253.112 301.337 250.417 283.286C248.936 274.665 246.376 262.676 241.123 249.071C219.974 249.61 198.96 250.149 177.946 250.688Z" fill="url(#paint7_linear)"/>
<path d="M241.662 247.993C244.626 256.749 247.32 266.718 249.34 277.898C250.283 283.421 250.957 288.809 251.496 293.793C252.439 294.467 257.153 297.835 262.676 296.488C263.08 296.353 266.583 295.41 268.873 292.446C276.012 283.152 264.427 263.485 262.407 259.982C258.77 253.786 254.594 248.936 251.092 245.569C247.993 246.377 244.76 247.185 241.662 247.993Z" fill="url(#paint8_linear)"/>
<path d="M191.282 246.108C187.645 252.439 183.873 261.195 183.335 272.106C182.93 279.38 182.526 286.519 187.241 293.255C194.111 303.223 206.639 304.031 207.986 304.166C217.011 304.705 226.845 300.663 232.098 292.851C236.678 286.115 236.409 278.976 236.139 273.049C235.6 260.791 230.616 251.361 226.979 246.108C215.125 245.973 203.271 246.108 191.282 246.108Z" fill="#FFF7D2"/>
<path d="M254.998 257.692C254.998 259.443 252.573 260.656 251.496 260.117C250.957 259.848 250.687 259.174 250.418 257.962C250.149 256.884 249.879 256.345 250.283 255.806C250.687 254.998 251.9 254.863 252.573 254.998C253.651 255.268 254.998 256.345 254.998 257.692Z" fill="#9E4C0E"/>
<path d="M266.044 276.551C266.044 278.302 263.619 279.515 262.541 278.976C262.003 278.706 261.733 278.033 261.464 276.82C261.194 275.743 260.925 275.204 261.329 274.665C261.733 273.857 262.946 273.722 263.619 273.857C264.697 274.126 266.044 275.204 266.044 276.551Z" fill="#9E4C0E"/>
<path d="M263.08 262.542C263.08 262.676 263.619 263.485 263.215 264.158C262.676 265.101 261.463 264.562 260.386 265.505C259.308 266.448 259.847 267.526 258.769 268.199C258.365 268.469 257.692 268.603 257.153 268.469C255.671 267.93 254.728 265.101 255.94 263.08C257.018 261.06 259.712 260.925 261.059 261.195C261.463 261.329 262.541 261.599 263.08 262.542Z" fill="#9E4C0E"/>
<path d="M270.49 283.421C270.49 283.556 270.49 284.499 269.816 284.903C268.873 285.442 268.065 284.499 266.718 284.768C265.371 285.172 265.236 286.25 264.024 286.385C263.485 286.385 262.811 286.25 262.542 285.846C261.464 284.768 262.003 281.805 264.024 280.592C265.91 279.38 268.334 280.458 269.412 281.4C269.681 281.805 270.49 282.478 270.49 283.421Z" fill="#9E4C0E"/>
<path d="M266.816 290.821C267.093 290.471 266.75 289.738 266.05 289.184C265.35 288.63 264.558 288.465 264.281 288.815C264.004 289.165 264.347 289.898 265.047 290.452C265.747 291.006 266.539 291.171 266.816 290.821Z" fill="#9E4C0E"/>
<path d="M259.308 273.318C259.903 273.318 260.386 272.836 260.386 272.24C260.386 271.645 259.903 271.163 259.308 271.163C258.713 271.163 258.23 271.645 258.23 272.24C258.23 272.836 258.713 273.318 259.308 273.318Z" fill="#9E4C0E"/>
<path d="M254.703 262.371C255.55 262.087 256.121 261.514 255.979 261.091C255.838 260.668 255.036 260.554 254.19 260.838C253.343 261.122 252.772 261.695 252.914 262.118C253.056 262.541 253.857 262.654 254.703 262.371Z" fill="#9E4C0E"/>
<path d="M152.352 287.328C153.699 286.115 156.259 286.923 156.663 288.136C156.932 288.675 156.528 289.348 155.989 290.426C155.451 291.369 155.181 291.908 154.642 292.042C153.834 292.312 152.891 291.503 152.487 290.965C151.544 290.022 151.409 288.27 152.352 287.328Z" fill="#9E4C0E"/>
<path d="M157.74 266.179C159.087 264.966 161.647 265.774 162.051 266.987C162.32 267.526 161.916 268.199 161.377 269.277C160.838 270.22 160.569 270.759 160.03 270.893C159.222 271.163 158.279 270.354 157.875 269.816C156.932 268.873 156.797 267.122 157.74 266.179Z" fill="#9E4C0E"/>
<path d="M150.062 278.302C150.062 278.167 150.466 277.359 151.14 277.09C152.217 276.82 152.621 278.033 154.103 278.033C155.45 278.033 155.989 276.955 157.201 277.359C157.74 277.494 158.279 277.898 158.549 278.302C159.222 279.649 157.875 282.343 155.585 283.017C153.295 283.69 151.409 281.805 150.601 280.727C150.197 280.188 149.658 279.245 150.062 278.302Z" fill="#9E4C0E"/>
<path d="M159.491 258.096C159.491 258.096 160.299 257.423 161.108 257.557C162.185 257.827 162.051 259.039 163.263 259.847C164.475 260.521 165.418 259.847 166.227 260.656C166.631 261.06 166.9 261.599 166.9 262.137C166.9 263.619 164.341 265.37 162.185 264.832C159.895 264.293 159.087 261.868 158.952 260.386C158.952 259.982 158.818 258.905 159.491 258.096Z" fill="#9E4C0E"/>
<path d="M167.772 258.901C168.215 258.849 168.491 258.089 168.387 257.202C168.284 256.315 167.841 255.638 167.398 255.69C166.954 255.741 166.678 256.502 166.782 257.389C166.885 258.276 167.328 258.953 167.772 258.901Z" fill="#9E4C0E"/>
<path d="M159.626 275.069C160.222 275.069 160.704 274.587 160.704 273.992C160.704 273.396 160.222 272.914 159.626 272.914C159.031 272.914 158.549 273.396 158.549 273.992C158.549 274.587 159.031 275.069 159.626 275.069Z" fill="#9E4C0E"/>
<path d="M156.864 285.635C157.063 285.235 156.577 284.589 155.778 284.191C154.979 283.793 154.17 283.794 153.971 284.193C153.772 284.593 154.258 285.24 155.057 285.637C155.856 286.035 156.665 286.034 156.864 285.635Z" fill="#9E4C0E"/>
<path d="M263.889 294.063C263.889 294.063 274.126 285.846 246.377 249.475C246.377 249.475 253.112 246.916 253.786 247.724C254.459 248.532 267.93 270.085 267.93 270.085L272.24 283.556L263.889 294.063Z" fill="#FF7400"/>
<path d="M157.875 294.736C156.393 292.85 154.507 289.752 153.969 285.711C153.564 282.478 153.969 278.572 160.165 267.661C162.724 263.215 166.362 257.423 171.211 250.957C169.999 250.283 168.113 249.341 165.823 249.61C156.932 250.822 151.409 271.028 151.409 271.028L146.964 283.96C150.736 287.597 154.238 291.099 157.875 294.736Z" fill="#FFFF86"/>
<path d="M182.526 323.025C182.526 323.025 165.284 316.289 184.277 252.439L179.024 250.688C179.024 250.688 161.243 310.228 167.843 316.828C174.444 323.429 182.526 323.025 182.526 323.025Z" fill="#FFFF86"/>
<path d="M239.642 320.869C240.585 318.849 241.932 316.02 242.875 312.383C245.03 304.839 245.03 297.969 244.087 289.079C242.47 274.8 238.699 262.138 235.331 252.573C237.082 252.035 238.968 251.361 240.719 250.822C240.719 250.822 259.039 311.44 252.304 318.04C251.226 319.118 249.34 322.082 245.838 322.486C243.009 322.89 240.719 321.543 239.642 320.869Z" fill="#FF7400"/>
<path d="M186.298 279.11C186.702 280.188 189.801 288.001 195.862 291.773C198.961 293.659 202.732 294.736 202.732 294.736C203.945 295.006 205.157 295.275 206.504 295.544L208.39 295.814L209.333 295.949H209.872H210.276C215.26 295.814 220.379 294.332 224.285 291.369C228.327 288.54 231.155 283.69 232.907 278.302C232.907 279.649 233.041 281.131 232.772 282.613C232.502 283.96 232.368 285.576 231.829 286.923C230.886 289.752 229.269 292.446 226.979 294.602C224.824 296.757 222.13 298.508 219.167 299.586C216.338 300.663 213.374 301.202 210.141 301.337H209.872H209.468L208.929 301.202L207.851 301.067L205.561 300.933C204.753 300.798 204.079 300.529 203.406 300.394C202.328 300.124 201.655 299.855 201.251 299.72C196.401 298.239 193.977 297.43 193.034 296.892C191.013 295.544 190.205 293.793 188.992 291.503C186.568 286.923 186.164 282.478 186.298 279.11Z" fill="#F2E2A0"/>
<path d="M209.063 307.533C208.524 307.533 207.985 307.533 207.446 307.533C204.887 307.399 191.686 306.186 184.142 295.14C178.754 287.327 179.293 279.11 179.697 271.836C180.236 262.272 183.065 253.112 188.184 244.356C188.722 243.279 189.935 242.74 191.012 242.74L226.844 242.605C227.922 242.605 228.999 243.144 229.673 244.087C235.6 252.843 238.968 262.811 239.372 272.779C239.641 279.11 239.911 286.923 234.792 294.736C229.134 302.684 219.301 307.533 209.063 307.533ZM192.898 249.61C188.992 256.884 186.702 264.562 186.298 272.375C185.894 279.11 185.624 285.576 189.665 291.503C195.592 299.99 206.638 300.933 207.851 300.933C216.337 301.337 224.689 297.43 228.999 291.099C232.906 285.307 232.771 278.841 232.502 273.318C232.098 263.35 228.326 255.133 224.958 249.61H192.898Z" fill="black"/>
<path d="M159.087 300.259C157.605 300.259 156.124 300.125 154.507 299.586C152.352 298.912 150.196 297.835 148.445 296.353C148.311 296.218 148.176 296.083 148.041 295.949C133.224 280.188 159.626 248.128 162.724 244.491C163.667 243.414 164.879 242.875 166.226 243.144L178.889 244.626C180.101 244.761 181.179 245.434 181.852 246.512C182.526 247.455 182.661 248.802 182.256 249.879C179.832 257.692 177.676 265.775 175.925 273.857C174.444 280.323 173.231 286.923 172.288 293.524C172.154 294.602 171.615 295.545 170.672 296.218C169.325 297.296 164.879 300.259 159.087 300.259ZM153.834 290.426C154.776 291.099 155.719 291.638 156.797 291.908C159.895 292.851 162.994 291.638 164.61 290.561C165.553 284.364 166.631 278.302 167.978 272.241C169.459 265.505 171.211 258.905 173.096 252.304L167.439 251.631C160.434 260.521 146.425 281.939 153.834 290.426Z" fill="black"/>
<path d="M238.968 329.49C236.004 329.49 233.579 328.547 232.098 328.009C226.709 325.853 223.072 322.216 220.513 318.983C210.275 321.273 200.711 319.792 195.727 318.714C193.841 322.486 190.339 327.739 183.873 329.086C183.334 329.221 177.946 330.299 173.096 327.604C161.377 320.869 163.263 298.239 165.418 285.442C168.516 267.391 174.444 250.283 174.578 249.61C175.117 247.993 176.599 246.916 178.35 246.916L241.392 245.299C243.144 245.299 244.625 246.242 245.299 247.859C249.744 259.309 252.977 271.028 254.863 282.882C257.826 302.01 256.21 317.097 250.822 323.563C246.915 328.143 242.47 329.356 241.931 329.356C240.854 329.49 239.911 329.49 238.968 329.49ZM222.264 310.227C223.611 310.227 224.958 310.901 225.766 312.248C227.383 315.077 230.346 318.714 235.061 320.465C236.812 321.139 238.429 321.677 240.18 321.273C240.18 321.273 242.47 320.6 244.625 318.04C247.589 314.538 249.609 302.28 246.781 283.825C245.029 273.453 242.335 263.08 238.698 253.112L181.448 254.594C179.697 259.982 175.656 273.183 173.501 286.519C170.537 303.762 172.154 317.367 177.272 320.33C179.428 321.543 182.256 321.004 182.256 321.004C187.375 319.926 189.531 312.517 189.531 312.517C189.8 311.44 190.608 310.632 191.551 310.093C192.494 309.554 193.706 309.554 194.784 309.823C194.919 309.823 207.985 314.269 221.186 310.362C221.591 310.227 221.995 310.227 222.264 310.227Z" fill="black"/>
<path d="M260.386 300.933C255.267 300.933 251.226 298.373 249.61 297.161C248.667 296.488 248.128 295.41 247.993 294.332C247.455 289.079 246.781 283.825 245.838 278.706C244.087 268.738 241.527 258.905 238.295 249.34C237.89 248.263 238.025 247.05 238.564 246.108C239.103 245.165 240.046 244.356 241.123 244.087L250.553 241.662C251.9 241.258 253.382 241.662 254.325 242.74C259.039 247.32 263.08 252.439 266.313 257.962C273.183 269.546 279.784 285.442 272.51 295.006C269.412 299.047 264.966 300.394 264.023 300.529C262.811 300.798 261.599 300.933 260.386 300.933ZM255.806 291.503C257.288 292.312 259.713 293.255 262.137 292.581C262.137 292.581 264.697 291.908 266.179 289.887C269.546 285.442 266.987 274.8 259.443 261.868C256.884 257.558 253.92 253.516 250.418 249.879L247.32 250.688C250.014 259.309 252.169 268.199 253.786 277.09C254.594 281.939 255.267 286.789 255.806 291.503Z" fill="black"/>
<path d="M180.91 60.4829C167.844 58.1929 148.042 54.5558 127.971 59.944C122.178 61.4258 110.324 64.7934 99.413 74.7617C89.1754 84.0564 84.8648 94.4287 82.3054 101.029C71.9331 127.432 77.0519 152.083 80.2848 166.092C83.2483 179.428 86.0772 191.956 95.5066 205.022C107.226 221.187 121.505 227.922 147.907 239.911C177.812 253.516 192.63 260.252 210.95 259.982C235.601 259.578 253.382 249.071 276.417 235.466C303.223 219.57 316.963 211.488 327.201 194.381C347.272 160.569 340.806 113.557 317.098 83.5176C310.632 75.3005 292.985 52.9393 269.681 52.5352C261.734 52.4005 249.88 54.9599 226.171 60.0787C220.11 61.2911 214.452 62.6381 206.235 62.9076C195.189 63.4464 188.184 61.6952 180.91 60.4829Z" fill="url(#paint9_linear)"/>
<path d="M80.1494 149.523C80.9576 149.389 81.6312 169.46 95.3712 190.609C96.5835 192.495 101.568 200.038 110.189 208.12C122.178 219.436 134.571 225.767 148.176 231.559C180.101 244.895 195.996 251.63 213.912 251.226C246.242 250.688 269.681 233.445 298.642 212.162C307.533 205.561 313.191 200.442 318.309 193.572C331.915 175.118 334.205 154.912 334.474 143.731C334.878 152.083 335.148 177.812 318.04 203.136C302.684 225.902 281.939 235.466 273.856 238.699C261.464 246.242 251.091 253.247 243.009 253.247C242.47 253.247 207.446 262.542 207.446 262.542L171.48 254.863L139.555 236.005C130.529 232.098 117.328 224.824 105.339 211.892C93.8894 199.634 88.5012 187.645 86.8847 183.873C79.2065 165.823 79.4759 149.658 80.1494 149.523Z" fill="#FFFF86"/>
<path d="M200.307 85.8077C200.577 89.9835 195.189 93.3512 192.494 92.2735C191.147 91.7347 190.474 90.2529 189.396 87.5588C188.453 85.1341 187.914 83.9218 188.453 82.5747C189.262 80.6888 191.956 80.15 193.707 80.2847C196.67 80.4194 200.038 82.7094 200.307 85.8077Z" fill="#9E4C0E"/>
<path d="M216.338 70.8551C216.607 75.031 211.219 78.3987 208.525 77.321C207.178 76.7822 206.504 75.3004 205.427 72.6063C204.484 70.1816 203.945 68.9693 204.484 67.6222C205.292 65.7363 207.986 65.1975 209.737 65.3322C212.835 65.4669 216.203 67.7569 216.338 70.8551Z" fill="#9E4C0E"/>
<path d="M222.669 73.4146C224.689 70.9899 229.404 72.0676 230.212 74.0881C230.616 75.0311 230.212 76.2434 229.269 78.264C228.461 80.0152 228.057 80.9581 227.114 81.3623C225.632 81.9011 223.881 80.8234 223.073 79.7458C221.726 78.1293 221.187 75.1658 222.669 73.4146Z" fill="#9E4C0E"/>
<path d="M213.509 115.982C211.353 118.541 211.623 119.484 210.141 120.292C208.525 121.1 206.235 121.1 204.618 120.158C201.116 118.002 202.193 112.21 202.328 111.536C202.598 110.459 203.136 107.899 205.426 106.283C208.121 104.262 212.296 104.262 214.856 106.418C216.338 107.63 217.819 110.055 217.281 112.075C216.742 113.422 215.664 113.422 213.509 115.982Z" fill="#9E4C0E"/>
<path d="M186.164 73.4146C186.164 73.5493 185.625 75.4352 184.143 76.1087C182.123 76.917 181.045 74.4923 178.081 74.627C175.387 74.7617 174.579 77.0517 172.154 76.6476C171.077 76.5129 169.999 75.8393 169.325 74.8964C167.709 72.337 169.999 66.6793 174.31 65.0629C178.62 63.4464 182.796 66.6793 184.547 68.8346C185.355 69.7776 186.703 71.394 186.164 73.4146Z" fill="#9E4C0E"/>
<path d="M155.181 69.7777H153.968C152.217 69.7777 150.87 68.4306 150.87 66.6794C150.87 64.9282 152.217 63.5812 153.968 63.5812H155.181C156.932 63.5812 158.279 64.9282 158.279 66.6794C158.279 68.4306 156.932 69.7777 155.181 69.7777Z" fill="#9E4C0E"/>
<path d="M271.702 67.757C269.951 67.757 268.604 66.41 268.604 64.6588C268.604 62.9076 269.951 61.5605 271.702 61.5605C273.453 61.5605 274.8 62.9076 274.8 64.6588C274.8 66.41 273.453 67.757 271.702 67.757Z" fill="#9E4C0E"/>
<path d="M209.736 264.832C186.567 264.832 170.537 257.019 146.559 245.434C120.696 232.906 96.3141 221.052 83.2476 194.246C76.1082 179.563 75.4347 166.766 74.7612 155.45C73.6835 135.379 71.5282 98.2005 98.7388 72.4717C121.369 51.0534 153.564 47.9552 168.516 50.9187L169.459 51.0534C171.211 51.4576 174.713 52.1311 179.697 53.074C198.556 56.7111 205.156 57.1152 210.41 57.1152C219.031 57.2499 223.476 56.0376 228.999 54.4211C231.424 53.7476 234.253 52.9393 237.755 52.2658C238.025 52.2658 244.086 50.9187 252.573 50.1105C282.882 47.2817 305.782 67.6223 308.072 69.7776C329.221 86.7505 334.744 110.593 337.707 123.39C337.976 124.738 338.381 126.085 338.65 127.162C341.075 136.726 343.634 146.695 342.556 160.569C342.287 164.341 340.805 177.542 334.474 191.282C323.159 215.664 302.01 227.922 281.669 239.776L279.784 240.854C258.904 252.978 239.237 264.428 211.353 264.832C210.545 264.832 210.141 264.832 209.736 264.832ZM157.066 59.2705C142.518 59.2705 121.235 64.1199 105.339 79.207C81.3617 101.838 83.1129 134.975 84.3253 154.777C84.9988 165.688 85.5376 177.003 91.8688 190.07C103.454 214.048 125.411 224.555 150.735 236.948C173.635 247.993 188.857 255.402 209.871 255.402C210.275 255.402 210.545 255.402 210.949 255.402C236.408 255.133 254.189 244.76 274.799 232.772L276.685 231.694C296.756 219.975 315.615 209.063 325.718 187.376C331.376 175.118 332.723 163.263 332.992 160.03C333.935 147.772 331.645 138.612 329.355 129.722C329.086 128.509 328.682 127.162 328.412 125.68C325.584 113.153 320.734 92.1387 302.01 77.1864C301.875 77.0517 301.875 77.0517 301.741 76.917C301.471 76.7823 280.322 57.2499 253.381 59.6746C245.568 60.3481 239.641 61.6952 239.641 61.6952C236.408 62.3687 233.849 63.0423 231.424 63.7158C225.362 65.3323 220.244 66.814 210.275 66.6793C204.618 66.6793 197.478 66.2752 177.946 62.5034C172.962 61.5605 169.325 60.7523 167.574 60.4828L166.765 60.3481C163.936 59.5399 160.704 59.2705 157.066 59.2705Z" fill="black"/>
<path d="M141.845 203.271C179.266 203.271 209.602 172.935 209.602 135.514C209.602 98.0928 179.266 67.757 141.845 67.757C104.424 67.757 74.0879 98.0928 74.0879 135.514C74.0879 172.935 104.424 203.271 141.845 203.271Z" fill="black"/>
<path d="M141.845 191.956C173.017 191.956 198.287 166.686 198.287 135.514C198.287 104.342 173.017 79.0723 141.845 79.0723C110.673 79.0723 85.4033 104.342 85.4033 135.514C85.4033 166.686 110.673 191.956 141.845 191.956Z" fill="white"/>
<path d="M141.845 183.335C168.256 183.335 189.666 161.925 189.666 135.514C189.666 109.103 168.256 87.6935 141.845 87.6935C115.434 87.6935 94.0244 109.103 94.0244 135.514C94.0244 161.925 115.434 183.335 141.845 183.335Z" fill="black"/>
<path d="M137.048 136.133C148.687 132.731 155.871 122.274 153.095 112.777C150.318 103.28 138.632 98.3395 126.993 101.742C115.354 105.145 108.17 115.602 110.946 125.099C113.723 134.596 125.409 139.536 137.048 136.133Z" fill="white"/>
<path d="M160.659 151.635C165.515 150.216 168.503 145.823 167.334 141.825C166.165 137.826 161.281 135.735 156.426 137.155C151.57 138.574 148.581 142.966 149.751 146.965C150.92 150.964 155.803 153.055 160.659 151.635Z" fill="white"/>
<path d="M274.8 202.194C312.37 202.194 342.826 171.737 342.826 134.167C342.826 96.5971 312.37 66.1406 274.8 66.1406C237.23 66.1406 206.773 96.5971 206.773 134.167C206.773 171.737 237.23 202.194 274.8 202.194Z" fill="black"/>
<path d="M274.799 190.609C305.971 190.609 331.241 165.339 331.241 134.167C331.241 102.995 305.971 77.7252 274.799 77.7252C243.627 77.7252 218.357 102.995 218.357 134.167C218.357 165.339 243.627 190.609 274.799 190.609Z" fill="white"/>
<path d="M274.8 181.988C301.211 181.988 322.621 160.578 322.621 134.167C322.621 107.756 301.211 86.3464 274.8 86.3464C248.389 86.3464 226.979 107.756 226.979 134.167C226.979 160.578 248.389 181.988 274.8 181.988Z" fill="black"/>
<path d="M269.984 134.777C281.623 131.374 288.808 120.917 286.031 111.42C283.255 101.923 271.569 96.9828 259.93 100.385C248.291 103.788 241.106 114.245 243.883 123.742C246.659 133.239 258.345 138.18 269.984 134.777Z" fill="white"/>
<path d="M293.634 150.408C298.489 148.988 301.478 144.596 300.309 140.597C299.14 136.599 294.256 134.508 289.4 135.927C284.545 137.347 281.556 141.739 282.725 145.738C283.894 149.737 288.778 151.827 293.634 150.408Z" fill="white"/>
<path d="M209.063 242.875C203.675 242.875 199.499 241.932 196.535 241.258H196.401C186.298 238.834 182.257 238.16 179.832 237.756C177.542 237.352 176.33 237.217 173.231 236.139C164.475 233.176 156.258 228.461 148.58 222.399C146.829 221.052 146.56 218.493 147.907 216.742C149.254 214.991 151.813 214.721 153.564 216.068C160.434 221.591 167.978 225.767 175.791 228.461C178.215 229.269 178.889 229.404 181.044 229.808C183.604 230.212 187.914 230.886 198.287 233.311H198.421C201.385 233.984 205.426 234.927 210.68 234.658C213.778 234.523 216.202 233.984 218.627 233.445C227.652 231.425 233.041 230.212 240.854 227.249C249.744 224.016 258.5 219.84 266.852 214.991C268.738 213.913 271.297 214.452 272.375 216.472C273.452 218.358 272.914 220.918 270.893 221.995C262.137 227.114 252.977 231.559 243.548 234.927C235.196 237.891 229.269 239.238 220.378 241.393C217.684 242.066 214.855 242.605 210.949 242.74C210.41 242.875 209.737 242.875 209.063 242.875Z" fill="#FF8D27"/>
<path d="M208.389 238.833C203.001 238.833 198.825 237.89 195.862 237.217H195.727C185.624 234.792 181.583 234.119 179.158 233.715C176.868 233.31 175.656 233.176 172.557 232.098C163.802 229.135 155.585 224.42 147.906 218.358C146.155 217.011 145.886 214.452 147.233 212.7C148.58 210.949 151.139 210.68 152.89 212.027C159.76 217.55 167.304 221.726 175.117 224.42C177.542 225.228 178.215 225.363 180.37 225.767C182.93 226.171 187.24 226.845 197.613 229.269H197.747C200.711 229.943 204.752 230.886 210.006 230.616C213.104 230.482 215.529 229.943 217.953 229.404C226.979 227.383 232.367 226.171 240.18 223.208C249.07 219.975 257.826 215.799 266.178 210.949C268.064 209.872 270.623 210.41 271.701 212.431C272.779 214.452 272.24 216.876 270.219 217.954C261.463 223.073 252.303 227.518 242.874 230.886C234.522 233.849 228.595 235.196 219.705 237.352C217.01 238.025 214.182 238.564 210.275 238.699C209.736 238.833 209.063 238.833 208.389 238.833Z" fill="black"/>
<path d="M219.301 85.9423C219.436 86.077 220.379 87.6935 219.705 89.3099C218.897 91.3305 216.337 90.3876 214.452 92.5429C212.566 94.5635 213.643 96.7188 211.623 98.2005C210.814 98.874 209.467 99.1435 208.39 98.874C205.426 98.2005 203.136 92.5429 205.022 88.367C206.908 84.1911 212.162 83.3829 214.99 83.787C216.068 83.9217 218.223 84.1911 219.301 85.9423Z" fill="#9E4C0E"/>
<path d="M253.65 67.4875C253.65 67.6222 253.516 69.1039 252.438 69.7775C251.091 70.5857 249.879 68.9692 247.723 69.5081C245.703 69.9122 245.433 71.7981 243.548 71.7981C242.739 71.7981 241.796 71.5286 241.258 70.8551C239.776 69.1039 240.719 64.6586 243.682 62.9075C246.646 61.1563 250.283 62.9075 251.899 64.3892C252.438 64.7934 253.65 65.871 253.65 67.4875Z" fill="#9E4C0E"/>
<path d="M192.36 70.1817C193.438 68.8347 195.997 69.5082 196.536 70.5859C196.805 71.1247 196.536 71.7982 195.997 72.8759C195.593 73.8188 195.324 74.3576 194.785 74.627C193.977 74.8965 193.034 74.3576 192.629 73.8188C191.821 72.7412 191.552 71.1247 192.36 70.1817Z" fill="#9E4C0E"/>
<path d="M165.149 63.1769C165.822 62.3687 167.439 62.7728 167.708 63.4463C167.843 63.7157 167.708 64.1199 167.439 64.7934C167.169 65.3322 167.035 65.7363 166.765 65.871C166.227 66.0057 165.688 65.7363 165.418 65.3322C164.745 64.7934 164.61 63.8504 165.149 63.1769Z" fill="#9E4C0E"/>
<path d="M231.829 65.7364C232.502 64.9281 234.119 65.3322 234.388 66.0058C234.523 66.2752 234.388 66.6793 234.119 67.3528C233.849 67.8917 233.714 68.2958 233.445 68.4305C232.906 68.5652 232.367 68.2958 232.098 67.8917C231.424 67.3528 231.29 66.2752 231.829 65.7364Z" fill="#9E4C0E"/>
<path d="M203.271 79.0723C203.944 78.2641 205.561 78.6682 205.83 79.3417C205.965 79.6111 205.83 80.0152 205.561 80.6888C205.292 81.2276 205.157 81.6317 204.887 81.7664C204.349 81.9011 203.81 81.6317 203.54 81.2276C202.867 80.6888 202.732 79.7458 203.271 79.0723Z" fill="#9E4C0E"/>
<path d="M259.982 64.1199C260.656 63.3117 262.272 63.7158 262.542 64.3893C262.676 64.6587 262.542 65.0629 262.272 65.7364C262.003 66.2752 261.868 66.6793 261.599 66.814C261.06 66.9487 260.521 66.6793 260.252 66.2752C259.713 65.7364 259.443 64.7934 259.982 64.1199Z" fill="#9E4C0E"/>
<path d="M142.788 61.5606C144.539 61.2911 146.156 63.5811 145.752 64.6588C145.617 65.1976 144.943 65.6017 143.866 66.1406C142.923 66.5447 142.384 66.8141 141.71 66.6794C140.902 66.41 140.633 65.1976 140.633 64.5241C140.633 63.177 141.576 61.6953 142.788 61.5606Z" fill="#9E4C0E"/>
<defs>
<linearGradient id="paint0_linear" x1="249.369" y1="314.255" x2="319.755" y2="234.808" gradientUnits="userSpaceOnUse">
<stop offset="0.0238095" stop-color="#FF7400"/>
<stop offset="0.3922" stop-color="#FFBD2B"/>
<stop offset="0.4754" stop-color="#FFC231"/>
<stop offset="0.5893" stop-color="#FFCE43"/>
<stop offset="0.721" stop-color="#FFE360"/>
<stop offset="0.8598" stop-color="#FFFF86"/>
<stop offset="1" stop-color="white"/>
</linearGradient>
<linearGradient id="paint1_linear" x1="308.565" y1="243.344" x2="319.88" y2="243.344" gradientUnits="userSpaceOnUse">
<stop/>
<stop offset="0.5212" stop-color="#FF8D27"/>
<stop offset="1"/>
</linearGradient>
<linearGradient id="paint2_linear" x1="290.112" y1="252.75" x2="316.452" y2="252.75" gradientUnits="userSpaceOnUse">
<stop/>
<stop offset="0.5212" stop-color="#FF8D27"/>
<stop offset="1"/>
</linearGradient>
<linearGradient id="paint3_linear" x1="274.263" y1="270.72" x2="307.767" y2="270.72" gradientUnits="userSpaceOnUse">
<stop/>
<stop offset="0.5212" stop-color="#FF8D27"/>
<stop offset="0.5574" stop-color="#F88926"/>
<stop offset="0.6112" stop-color="#E47E23"/>
<stop offset="0.676" stop-color="#C26C1E"/>
<stop offset="0.7494" stop-color="#945217"/>
<stop offset="0.8299" stop-color="#59310E"/>
<stop offset="0.9152" stop-color="#130A03"/>
<stop offset="0.9365"/>
</linearGradient>
<linearGradient id="paint4_linear" x1="266.173" y1="287.134" x2="293.227" y2="287.134" gradientUnits="userSpaceOnUse">
<stop/>
<stop offset="0.00924254" stop-color="#060301"/>
<stop offset="0.1569" stop-color="#5D330E"/>
<stop offset="0.2869" stop-color="#A25A19"/>
<stop offset="0.3946" stop-color="#D57621"/>
<stop offset="0.4758" stop-color="#F38725"/>
<stop offset="0.5212" stop-color="#FF8D27"/>
<stop offset="0.5763" stop-color="#FB8B26"/>
<stop offset="0.6323" stop-color="#EF8425"/>
<stop offset="0.6888" stop-color="#DA7921"/>
<stop offset="0.7455" stop-color="#BE691D"/>
<stop offset="0.8025" stop-color="#995517"/>
<stop offset="0.8597" stop-color="#6C3C10"/>
<stop offset="0.916" stop-color="#381F09"/>
<stop offset="0.9683"/>
</linearGradient>
<linearGradient id="paint5_linear" x1="245.907" y1="296.418" x2="270.908" y2="306.758" gradientUnits="userSpaceOnUse">
<stop/>
<stop offset="0.00924254" stop-color="#060301"/>
<stop offset="0.1569" stop-color="#5D330E"/>
<stop offset="0.2869" stop-color="#A25A19"/>
<stop offset="0.3946" stop-color="#D57621"/>
<stop offset="0.4758" stop-color="#F38725"/>
<stop offset="0.5212" stop-color="#FF8D27"/>
<stop offset="0.5763" stop-color="#FB8B26"/>
<stop offset="0.6323" stop-color="#EF8425"/>
<stop offset="0.6888" stop-color="#DA7921"/>
<stop offset="0.7455" stop-color="#BE691D"/>
<stop offset="0.8025" stop-color="#995517"/>
<stop offset="0.8597" stop-color="#6C3C10"/>
<stop offset="0.916" stop-color="#381F09"/>
<stop offset="0.9683"/>
</linearGradient>
<linearGradient id="paint6_linear" x1="142.404" y1="271.452" x2="173.213" y2="271.954" gradientUnits="userSpaceOnUse">
<stop stop-color="#FFBD2B"/>
<stop offset="0.1504" stop-color="#FFC131"/>
<stop offset="0.3565" stop-color="#FFCB43"/>
<stop offset="0.5947" stop-color="#FFDB60"/>
<stop offset="0.8552" stop-color="#FFF288"/>
<stop offset="0.9101" stop-color="#FFF791"/>
</linearGradient>
<linearGradient id="paint7_linear" x1="247.071" y1="287.699" x2="174.707" y2="286.556" gradientUnits="userSpaceOnUse">
<stop stop-color="#FF7400"/>
<stop offset="0.0137082" stop-color="#FF7E09"/>
<stop offset="0.0459612" stop-color="#FF8F19"/>
<stop offset="0.086126" stop-color="#FF9A24"/>
<stop offset="0.1425" stop-color="#FFA12A"/>
<stop offset="0.2989" stop-color="#FFA32C"/>
<stop offset="0.4785" stop-color="#FFAD2C"/>
<stop offset="0.6693" stop-color="#FFBD2B"/>
<stop offset="0.7445" stop-color="#FFC73D"/>
<stop offset="0.8951" stop-color="#FFE26C"/>
<stop offset="1" stop-color="#FFF791"/>
</linearGradient>
<linearGradient id="paint8_linear" x1="267.358" y1="271.052" x2="237.868" y2="271.382" gradientUnits="userSpaceOnUse">
<stop stop-color="#FFBD2B"/>
<stop offset="0.1741" stop-color="#FFB72B"/>
<stop offset="0.412" stop-color="#FFA52C"/>
<stop offset="0.5291" stop-color="#FF9A2C"/>
<stop offset="0.9974" stop-color="#FF7A07"/>
</linearGradient>
<linearGradient id="paint9_linear" x1="207.08" y1="70.9351" x2="208.481" y2="250.822" gradientUnits="userSpaceOnUse">
<stop stop-color="#FF7400"/>
<stop offset="0.3016" stop-color="#FF9A2C"/>
<stop offset="0.7857" stop-color="#FFBB2B"/>
<stop offset="0.8839" stop-color="#FFBC2D"/>
<stop offset="0.9193" stop-color="#FFC134"/>
<stop offset="0.9445" stop-color="#FFCA3F"/>
<stop offset="0.9649" stop-color="#FFD750"/>
<stop offset="0.9824" stop-color="#FFE766"/>
<stop offset="0.9976" stop-color="#FFFB81"/>
<stop offset="1" stop-color="#FFFF86"/>
</linearGradient>
</defs>
</svg>
