<svg width="340" height="340" viewBox="0 0 340 340" fill="none" xmlns="http://www.w3.org/2000/svg">
<path d="M188.4 241.773C201.5 247.473 211.8 247.773 219.1 246.773C233.9 244.673 248.6 235.573 251.4 239.373C252.8 241.273 250.6 243.773 252.7 246.373C255.1 249.473 259.3 247.573 265.2 251.473C266.5 252.273 267.7 253.173 268.9 254.673C271.9 258.473 271.8 264.373 270.7 268.673C269.7 272.273 268.4 272.573 267.7 276.273C267 280.473 268.2 282.773 268.1 284.373C267.6 291.573 238.7 301.973 212.4 298.173C175.6 292.873 154.3 261.073 148.2 251.173C161.5 248.073 175 244.873 188.4 241.773Z" fill="#FF3A2F"/>
<path d="M224.2 301.673C220.2 301.673 216.1 301.373 212 300.773C177.3 295.773 155.8 268.473 146 252.573L144.2 249.573L188.7 239.173L189.5 239.473C199.7 243.973 209.6 245.573 218.8 244.273C225.2 243.373 231.9 241.073 237.2 239.173C245.4 236.273 250.8 234.373 253.4 237.873C254.6 239.573 254.4 241.273 254.3 242.573C254.2 243.773 254.2 244.273 254.6 244.873C255.1 245.573 255.9 245.773 257.9 246.173C260.1 246.573 263 247.173 266.4 249.373C267.9 250.373 269.3 251.373 270.7 253.073C274.3 257.673 274.2 264.473 272.9 269.273C272.4 271.273 271.7 272.473 271.2 273.373C270.6 274.373 270.2 275.073 270 276.673C269.6 278.973 269.9 280.473 270.2 281.873C270.4 282.773 270.5 283.573 270.5 284.473C270.4 286.473 269.1 288.473 266.7 290.273C260.1 295.873 243 301.673 224.2 301.673ZM152.1 252.973C162.1 268.273 182 291.373 212.7 295.873C234.2 298.973 256.5 292.373 263.6 286.673C265.4 285.173 265.5 284.373 265.5 284.373C265.5 284.173 265.4 283.573 265.3 283.073C265 281.573 264.5 279.273 265.1 276.073C265.5 273.673 266.3 272.373 266.9 271.173C267.4 270.273 267.8 269.573 268.1 268.173C269 264.673 269.2 259.473 266.8 256.373C265.9 255.173 265 254.573 263.7 253.773C261.1 252.073 258.9 251.673 257 251.273C254.7 250.873 252.4 250.373 250.7 248.073C249 245.873 249.2 243.673 249.4 242.173C249.4 241.873 249.5 241.373 249.5 241.173C247.9 240.873 242.8 242.673 238.9 244.073C233.4 246.073 226.4 248.473 219.5 249.473C209.6 250.873 199.1 249.173 188.2 244.573L152.1 252.973Z" fill="black"/>
<path d="M189.2 252.373C193.1 257.073 206.3 271.273 229.1 275.773C246.2 279.173 260.3 275.373 266.7 273.173L267.3 273.473C267.3 273.473 265 279.073 266.9 284.873C266.8 285.073 266.6 285.273 266.4 285.573C264.7 287.973 262.4 289.173 259.9 290.373C255.2 292.573 252.4 293.273 252.4 293.273C243.4 295.673 237.5 297.273 229.6 296.973C224 296.773 217.3 296.473 211 292.773C198.7 285.373 197.4 270.073 197.2 267.273C196.3 265.973 195.2 264.673 193.9 263.373C191 260.173 187.9 257.773 185.3 255.973C185.9 255.473 186.6 254.973 187.2 254.373C187.9 253.673 188.6 252.973 189.2 252.373Z" fill="#B52825"/>
<path d="M231.5 299.273C230.9 299.273 230.2 299.273 229.5 299.273C223.7 299.073 216.5 298.772 209.7 294.673C197.7 287.472 195.2 273.273 194.7 267.973C193.9 266.873 193 265.873 192 264.873C189.6 262.273 186.8 259.873 183.8 257.773L181 255.873L183.7 253.773C184.3 253.273 184.9 252.773 185.5 252.273C186.2 251.673 186.8 251.073 187.4 250.473L189.3 248.573L191.1 250.673C196.8 257.373 209.4 269.273 229.6 273.273C244.7 276.273 257.7 273.573 266 270.773L267 270.473L270.6 272.173L269.7 274.373C269.7 274.373 267.8 279.173 269.3 283.973L269.7 285.072L269.1 286.072C269 286.272 268.8 286.573 268.5 286.973C266.4 289.873 263.5 291.372 261 292.572C256.2 294.772 253.2 295.573 253.1 295.673C244.6 297.772 238.8 299.273 231.5 299.273ZM198.1 264.073C198.5 264.573 198.9 264.973 199.2 265.473L199.6 266.073L199.7 266.773C200 270.673 201.7 283.973 212.3 290.273C218 293.773 224.2 293.972 229.7 294.173C237.2 294.472 243 292.872 251.7 290.572C251.7 290.572 254.4 289.773 258.9 287.773C261.3 286.673 262.9 285.672 264.2 284.072C263.5 281.172 263.6 278.473 264 276.373C255.2 278.873 242.8 280.673 228.7 277.873C215.5 275.473 205.4 269.773 198.1 264.073Z" fill="black"/>
<path d="M255.7 230.972C255.7 230.972 259.7 233.172 256.6 234.972C253.4 236.772 246.7 241.572 246 249.472C245.4 257.372 247.3 261.272 241.3 267.272C241.3 267.272 240.8 277.972 228.9 283.672C228.9 283.672 221.3 301.372 200 294.472C200 294.472 172.8 295.672 180.2 274.572C180.5 273.672 196.5 262.072 196.5 262.072L202.5 259.572C202.5 259.572 205.9 255.872 210.5 255.472C210.5 255.472 208.6 249.472 216.5 247.272C216.5 247.272 216.9 239.272 228.3 236.172C228.3 236.172 234.7 228.872 241.8 230.772C241.9 230.772 249.4 224.872 255.7 230.972Z" fill="url(#paint0_linear)"/>
<path d="M223.39 287.496C223.86 286.683 223.775 285.756 223.201 285.424C222.627 285.093 221.781 285.483 221.312 286.296C220.842 287.109 220.927 288.037 221.501 288.369C222.075 288.7 222.921 288.309 223.39 287.496Z" fill="#9E4C0E"/>
<path d="M253.999 232.572C253.999 232.572 254.299 233.072 254.099 233.472C253.799 234.072 253.099 233.772 252.599 234.472C252.099 235.072 252.299 235.672 251.799 236.072C251.599 236.272 251.199 236.372 250.899 236.272C250.099 236.072 249.499 234.572 249.999 233.372C250.599 232.172 252.099 231.872 252.899 231.972C253.199 232.072 253.699 232.172 253.999 232.572Z" fill="#9E4C0E"/>
<path d="M235 275.773C235.663 275.773 236.2 275.235 236.2 274.573C236.2 273.91 235.663 273.373 235 273.373C234.337 273.373 233.8 273.91 233.8 274.573C233.8 275.235 234.337 275.773 235 275.773Z" fill="#9E4C0E"/>
<path d="M236.399 237.572C236.952 237.572 237.399 237.035 237.399 236.372C237.399 235.71 236.952 235.172 236.399 235.172C235.847 235.172 235.399 235.71 235.399 236.372C235.399 237.035 235.847 237.572 236.399 237.572Z" fill="#9E4C0E"/>
<path d="M221.6 245.772C221.6 245.672 221.1 244.972 221.4 244.272C221.8 243.372 222.9 243.772 223.8 242.772C224.6 241.872 224.1 240.872 225.1 240.272C225.5 239.972 226.1 239.772 226.6 239.972C227.9 240.272 229 242.772 228.1 244.672C227.2 246.572 224.9 246.872 223.6 246.772C223.1 246.672 222.1 246.572 221.6 245.772Z" fill="#9E4C0E"/>
<path d="M242 262.773C242.552 262.773 243 262.235 243 261.573C243 260.91 242.552 260.373 242 260.373C241.448 260.373 241 260.91 241 261.573C241 262.235 241.448 262.773 242 262.773Z" fill="#9E4C0E"/>
<path d="M221.3 251.473C221.852 251.473 222.3 250.935 222.3 250.273C222.3 249.61 221.852 249.073 221.3 249.073C220.748 249.073 220.3 249.61 220.3 250.273C220.3 250.935 220.748 251.473 221.3 251.473Z" fill="#9E4C0E"/>
<path d="M200.8 292.072C201.462 292.072 202 291.535 202 290.872C202 290.21 201.462 289.672 200.8 289.672C200.137 289.672 199.6 290.21 199.6 290.872C199.6 291.535 200.137 292.072 200.8 292.072Z" fill="#9E4C0E"/>
<path d="M244.5 253.473C244.5 253.573 244.8 254.273 244.5 254.773C244.1 255.473 243.2 254.973 242.3 255.673C241.5 256.373 241.8 257.173 240.9 257.673C240.5 257.873 240 257.973 239.6 257.773C238.5 257.373 237.9 255.073 238.9 253.573C239.9 252.073 241.9 252.073 242.9 252.373C243.4 252.473 244.2 252.773 244.5 253.473Z" fill="#9E4C0E"/>
<path d="M220.6 254.272C220.7 254.372 221.2 255.272 220.9 256.172C220.4 257.272 219 256.772 217.9 257.972C216.9 259.072 217.5 260.272 216.3 261.072C215.8 261.372 215.1 261.672 214.5 261.472C212.8 261.072 211.5 257.972 212.6 255.572C213.7 253.172 216.6 252.772 218.2 252.972C218.8 253.072 220 253.272 220.6 254.272Z" fill="#9E4C0E"/>
<path d="M237.699 269.272C236.399 269.272 235.399 268.272 235.399 266.972C235.399 265.672 236.399 264.672 237.699 264.672C238.999 264.672 239.999 265.672 239.999 266.972C239.999 268.272 238.899 269.272 237.699 269.272Z" fill="#9E4C0E"/>
<path d="M215.1 290.672C215.3 293.772 211.3 296.272 209.3 295.472C208.3 295.072 207.8 293.972 207 291.972C206.3 290.172 205.9 289.272 206.3 288.272C206.9 286.872 208.9 286.472 210.2 286.572C212.4 286.672 214.9 288.272 215.1 290.672Z" fill="#9E4C0E"/>
<path d="M223.199 273.672C223.099 273.572 222.599 272.672 222.899 271.772C223.399 270.672 224.799 271.172 225.899 269.972C226.999 268.772 226.299 267.572 227.499 266.772C227.999 266.472 228.699 266.172 229.299 266.372C230.999 266.772 232.299 269.972 231.199 272.372C230.099 274.772 227.099 275.172 225.499 274.972C225.099 274.872 223.899 274.672 223.199 273.672Z" fill="#9E4C0E"/>
<path d="M213.099 269.673C214.599 267.873 218.099 268.673 218.699 270.173C218.999 270.873 218.699 271.773 217.999 273.273C217.399 274.573 217.099 275.273 216.399 275.573C215.299 275.973 213.999 275.173 213.399 274.373C212.399 273.273 211.999 271.073 213.099 269.673Z" fill="#9E4C0E"/>
<path d="M208.199 276.572C208.199 276.672 208.799 277.472 208.399 278.272C207.999 279.272 206.699 278.872 205.699 279.872C204.799 280.872 205.299 281.972 204.299 282.772C203.899 283.072 203.199 283.272 202.699 283.172C201.199 282.772 199.999 279.972 200.999 277.872C201.999 275.672 204.599 275.372 206.099 275.572C206.499 275.572 207.599 275.772 208.199 276.572Z" fill="#9E4C0E"/>
<path d="M241.5 237.873C242.4 236.773 244.5 237.273 244.9 238.173C245.1 238.573 244.9 239.173 244.5 240.073C244.2 240.873 244 241.273 243.5 241.473C242.8 241.673 242.1 241.173 241.7 240.773C241 239.973 240.8 238.673 241.5 237.873Z" fill="#9E4C0E"/>
<path d="M225.8 251.673C227.3 249.873 230.8 250.673 231.4 252.173C231.7 252.873 231.4 253.773 230.7 255.273C230.1 256.573 229.8 257.273 229.1 257.573C228 257.973 226.7 257.173 226.1 256.373C225.1 255.173 224.7 252.973 225.8 251.673Z" fill="#9E4C0E"/>
<path d="M234.3 247.972C233 247.972 232 246.972 232 245.672V244.772C232 243.472 233 242.472 234.3 242.472C235.6 242.472 236.6 243.472 236.6 244.772V245.672C236.6 246.972 235.6 247.972 234.3 247.972Z" fill="#9E4C0E"/>
<path d="M218.7 282.172C217.6 281.672 217.1 280.272 217.6 279.172C218.1 278.072 219.5 277.572 220.6 278.072C221.7 278.572 222.2 279.972 221.7 281.072C221.2 282.272 219.8 282.772 218.7 282.172Z" fill="#9E4C0E"/>
<path d="M221 264.473C221.663 264.473 222.2 263.935 222.2 263.273C222.2 262.61 221.663 262.073 221 262.073C220.337 262.073 219.8 262.61 219.8 263.273C219.8 263.935 220.337 264.473 221 264.473Z" fill="#9E4C0E"/>
<path d="M231.699 264.072C232.252 264.072 232.699 263.535 232.699 262.872C232.699 262.21 232.252 261.672 231.699 261.672C231.147 261.672 230.699 262.21 230.699 262.872C230.699 263.535 231.147 264.072 231.699 264.072Z" fill="#9E4C0E"/>
<path d="M241 249.172C241.552 249.172 242 248.635 242 247.972C242 247.31 241.552 246.772 241 246.772C240.448 246.772 240 247.31 240 247.972C240 248.635 240.448 249.172 241 249.172Z" fill="#9E4C0E"/>
<path d="M248.4 242.073H248.3C247.8 241.973 247.4 241.473 247.4 240.973C247.5 240.173 247.6 237.973 246.3 235.873C244.9 233.673 242.7 232.873 241.9 232.673C241.4 232.573 241 231.973 241.2 231.473C241.3 230.973 241.9 230.573 242.4 230.773C243.5 231.073 246.2 231.973 248 234.773C249.7 237.473 249.6 240.173 249.4 241.273C249.3 241.773 248.9 242.073 248.4 242.073Z" fill="url(#paint1_linear)"/>
<path d="M245.9 251.573C245.5 251.573 245.1 251.373 245 250.973C244.9 250.773 238.4 236.073 228.5 237.073C227.9 237.173 227.5 236.773 227.4 236.173C227.3 235.673 227.7 235.173 228.3 235.073C239.7 233.873 246.6 249.473 246.9 250.073C247.1 250.573 246.9 251.173 246.4 251.373C246.2 251.573 246.1 251.573 245.9 251.573Z" fill="url(#paint2_linear)"/>
<path d="M239.5 267.972C239 267.972 238.5 267.572 238.5 267.072C237.9 257.772 232.8 250.172 225.9 248.072C223.1 247.272 220.1 247.272 216.9 248.272C216.4 248.472 215.8 248.172 215.7 247.572C215.5 247.072 215.8 246.472 216.4 246.372C219.9 245.272 223.3 245.172 226.5 246.172C234.2 248.472 239.9 256.772 240.5 266.972C240.5 267.472 240.1 267.872 239.5 267.972Z" fill="url(#paint3_linear)"/>
<path d="M227.3 283.273C227.2 283.273 227.1 283.273 227 283.173C226.5 282.973 226.2 282.373 226.4 281.873C229.2 274.073 227.6 265.873 222.3 260.973C218.3 257.273 213.3 256.573 210.7 256.473C210.1 256.473 209.7 255.973 209.7 255.473C209.7 254.973 210.2 254.473 210.7 254.473C213.6 254.573 219.1 255.273 223.6 259.473C229.5 264.973 231.3 273.973 228.2 282.573C228.1 282.973 227.7 283.273 227.3 283.273Z" fill="url(#paint4_linear)"/>
<path d="M209.4 295.073C209.3 295.073 209.2 294.973 209.1 294.873C208.7 294.573 208.6 293.873 208.9 293.473C213.9 286.873 214.9 278.573 211.2 272.273C208.5 267.473 203.9 265.373 201.4 264.573C200.9 264.373 200.6 263.873 200.8 263.273C201 262.673 201.6 262.473 202.1 262.673C204.8 263.573 209.9 265.973 212.9 271.273C216.9 278.273 215.9 287.473 210.4 294.673C210.3 295.073 209.8 295.173 209.4 295.073Z" fill="url(#paint5_linear)"/>
<path d="M144.2 240.472C142.5 245.972 140.8 251.972 139.4 258.472C138.3 263.672 137.4 268.572 136.7 273.272C136.1 273.772 132 276.672 127.3 275.272C125.8 274.872 124.7 274.072 123.9 273.472C114.4 263.372 134.9 239.272 134.9 239.272C137.9 239.672 141 240.072 144.2 240.472Z" fill="url(#paint6_linear)"/>
<path d="M209.4 299.073C206.5 299.073 203.2 298.573 199.6 297.473C196.7 297.473 184.2 297.273 178.7 289.673C175.6 285.473 175.2 280.073 177.5 273.573C177.9 272.573 178.1 271.773 194.9 259.673C195.1 259.573 195.3 259.373 195.5 259.373L200.9 257.073C201.9 256.073 204.3 254.073 207.5 253.073C207.6 252.073 207.9 250.873 208.5 249.673C209.6 247.573 211.5 245.973 214.1 244.973C215 241.873 217.8 236.273 226.9 233.473C228.8 231.573 234.6 226.573 241.4 227.573C245.1 225.273 251.9 223.273 257.7 228.573C258.8 229.273 260.9 230.873 261 233.373C261 234.373 260.7 236.273 258.3 237.573C255.8 238.973 249.8 243.073 249.3 249.673C249.2 251.473 249.2 253.073 249.1 254.573C249.1 259.373 249.1 263.573 244.4 268.673C243.9 271.873 241.6 280.673 231.3 285.973C229.3 289.273 222.7 299.073 209.4 299.073ZM200 291.473C200.3 291.473 200.6 291.473 200.9 291.573C219.3 297.573 225.8 283.073 226.1 282.473C226.4 281.773 226.9 281.273 227.6 280.973C237.7 276.173 238.3 267.473 238.3 267.173C238.3 266.473 238.6 265.773 239.2 265.273C242.8 261.573 242.9 259.273 242.9 254.673C242.9 253.073 242.9 251.373 243.1 249.373C243.8 241.073 250 235.773 253.8 233.373C253.8 233.373 253.8 233.373 253.7 233.373C249.4 229.273 244.4 232.973 243.8 233.373C243.1 233.973 242.1 234.173 241.2 233.873C236 232.473 230.7 238.273 230.7 238.373C230.3 238.773 229.8 239.073 229.3 239.273C220.4 241.773 219.8 247.473 219.7 247.673C219.6 248.973 218.8 249.973 217.5 250.373C216.2 250.773 214.5 251.473 213.8 252.773C213.3 253.773 213.5 254.873 213.5 254.873C213.8 255.773 213.6 256.673 213.1 257.473C212.6 258.273 211.8 258.773 210.8 258.773C207.5 259.073 204.8 261.873 204.7 261.873C204.4 262.173 204 262.473 203.6 262.673L197.9 264.973C191.5 269.673 184.5 274.873 182.8 276.373C181.4 280.573 181.6 283.973 183.4 286.373C187 291.173 196.5 291.873 199.8 291.673C199.9 291.473 200 291.473 200 291.473Z" fill="black"/>
<path d="M144.1 241.873C140 252.473 138.2 261.573 137.4 267.973C135.9 278.973 134.6 290.473 140.7 295.173C141.1 295.473 144.1 297.673 147.5 297.073C151 296.473 153.9 293.173 155.1 288.673C155.1 288.673 165.6 292.373 176.6 289.073C177.8 290.973 180.4 294.673 185 296.473C186.4 296.973 188.3 297.773 190.6 297.273C190.6 297.273 193.2 296.673 195.6 293.873C198.9 289.973 199.9 279.473 197.9 266.073C196.8 259.673 194.9 250.773 191 240.673C175.3 241.073 159.7 241.473 144.1 241.873Z" fill="url(#paint7_linear)"/>
<path d="M191.4 239.873C193.6 246.373 195.6 253.773 197.1 262.073C197.8 266.173 198.3 270.173 198.7 273.873C199.4 274.373 202.9 276.873 207 275.873C207.3 275.773 209.9 275.073 211.6 272.873C216.9 265.973 208.3 251.373 206.8 248.773C204.1 244.173 201 240.573 198.4 238.073C196.1 238.573 193.8 239.273 191.4 239.873Z" fill="url(#paint8_linear)"/>
<path d="M154 238.472C151.3 243.172 148.5 249.672 148.1 257.772C147.8 263.172 147.5 268.472 151 273.472C156.1 280.872 165.4 281.472 166.4 281.572C173.1 281.972 180.4 278.972 184.3 273.172C187.7 268.172 187.5 262.872 187.3 258.472C186.9 249.372 183.2 242.372 180.5 238.472C171.7 238.372 162.9 238.372 154 238.472Z" fill="#FFF7D2"/>
<path d="M201.3 247.073C201.3 248.373 199.5 249.273 198.7 248.873C198.3 248.673 198.1 248.173 197.9 247.273C197.7 246.473 197.5 246.073 197.8 245.673C198.1 245.073 199 244.973 199.5 245.073C200.3 245.273 201.3 246.073 201.3 247.073Z" fill="#9E4C0E"/>
<path d="M209.501 260.973C209.501 262.273 207.701 263.173 206.901 262.773C206.501 262.573 206.301 262.073 206.101 261.173C205.901 260.373 205.701 259.973 206.001 259.573C206.301 258.973 207.201 258.873 207.701 258.973C208.501 259.173 209.501 259.973 209.501 260.973Z" fill="#9E4C0E"/>
<path d="M207.301 250.573C207.301 250.673 207.701 251.273 207.401 251.773C207.001 252.473 206.101 252.073 205.301 252.773C204.501 253.473 204.901 254.273 204.101 254.773C203.801 254.973 203.301 255.073 202.901 254.973C201.801 254.573 201.101 252.473 202.001 250.973C202.801 249.473 204.801 249.373 205.801 249.573C206.101 249.773 206.901 249.873 207.301 250.573Z" fill="#9E4C0E"/>
<path d="M212.801 266.173C212.801 266.273 212.801 266.973 212.301 267.273C211.601 267.673 211.001 266.973 210.001 267.173C209.001 267.473 208.901 268.273 208.001 268.373C207.601 268.373 207.101 268.273 206.901 267.973C206.101 267.173 206.501 264.973 208.001 264.073C209.401 263.173 211.201 263.973 212.001 264.673C212.201 264.873 212.801 265.373 212.801 266.173Z" fill="#9E4C0E"/>
<path d="M210.069 271.608C210.275 271.348 210.02 270.804 209.5 270.393C208.98 269.982 208.392 269.859 208.187 270.119C207.981 270.378 208.236 270.923 208.756 271.334C209.275 271.745 209.863 271.868 210.069 271.608Z" fill="#9E4C0E"/>
<path d="M204.5 258.673C204.942 258.673 205.3 258.314 205.3 257.873C205.3 257.431 204.942 257.073 204.5 257.073C204.058 257.073 203.7 257.431 203.7 257.873C203.7 258.314 204.058 258.673 204.5 258.673Z" fill="#9E4C0E"/>
<path d="M201.091 250.545C201.72 250.334 202.144 249.909 202.039 249.595C201.933 249.281 201.339 249.197 200.71 249.407C200.082 249.618 199.658 250.043 199.763 250.357C199.868 250.671 200.463 250.755 201.091 250.545Z" fill="#9E4C0E"/>
<path d="M125.1 269.073C126.1 268.173 128 268.773 128.3 269.673C128.5 270.073 128.2 270.573 127.8 271.373C127.4 272.073 127.2 272.473 126.8 272.573C126.2 272.773 125.5 272.173 125.2 271.773C124.5 270.973 124.4 269.773 125.1 269.073Z" fill="#9E4C0E"/>
<path d="M129.1 253.373C130.1 252.473 132 253.073 132.3 253.973C132.5 254.373 132.2 254.873 131.8 255.673C131.4 256.373 131.2 256.773 130.8 256.873C130.2 257.073 129.5 256.473 129.2 256.073C128.5 255.373 128.4 254.073 129.1 253.373Z" fill="#9E4C0E"/>
<path d="M123.4 262.273C123.4 262.173 123.7 261.573 124.2 261.373C125 261.173 125.3 262.073 126.4 262.073C127.4 262.073 127.8 261.273 128.7 261.573C129.1 261.673 129.5 261.973 129.7 262.273C130.2 263.273 129.2 265.273 127.5 265.773C125.8 266.273 124.4 264.873 123.8 264.073C123.6 263.673 123.1 263.073 123.4 262.273Z" fill="#9E4C0E"/>
<path d="M130.5 247.373C130.5 247.373 131.1 246.873 131.7 246.973C132.5 247.173 132.4 248.073 133.3 248.673C134.2 249.173 134.9 248.673 135.5 249.273C135.8 249.573 136 249.973 136 250.373C136 251.473 134.1 252.773 132.5 252.373C130.8 251.973 130.2 250.173 130.1 249.073C130 248.673 129.9 247.873 130.5 247.373Z" fill="#9E4C0E"/>
<path d="M136.541 247.868C136.87 247.83 137.074 247.265 136.998 246.607C136.921 245.949 136.592 245.446 136.263 245.485C135.934 245.523 135.729 246.088 135.806 246.746C135.883 247.404 136.212 247.907 136.541 247.868Z" fill="#9E4C0E"/>
<path d="M130.5 259.873C130.942 259.873 131.3 259.515 131.3 259.073C131.3 258.631 130.942 258.273 130.5 258.273C130.058 258.273 129.7 258.631 129.7 259.073C129.7 259.515 130.058 259.873 130.5 259.873Z" fill="#9E4C0E"/>
<path d="M128.48 267.826C128.628 267.53 128.267 267.05 127.674 266.754C127.08 266.459 126.48 266.46 126.332 266.756C126.184 267.053 126.545 267.533 127.139 267.828C127.732 268.124 128.332 268.123 128.48 267.826Z" fill="#9E4C0E"/>
<path d="M207.9 274.073C207.9 274.073 215.5 267.973 194.9 240.973C194.9 240.973 199.9 239.073 200.4 239.673C200.9 240.273 210.9 256.273 210.9 256.273L214.1 266.273L207.9 274.073Z" fill="#FF7400"/>
<path d="M129.2 274.473C128.1 273.073 126.7 270.773 126.3 267.773C126 265.373 126.3 262.473 130.9 254.373C132.8 251.073 135.5 246.773 139.1 241.973C138.2 241.473 136.8 240.773 135.1 240.973C128.5 241.873 124.4 256.873 124.4 256.873L121.1 266.473C123.9 269.173 126.5 271.873 129.2 274.473Z" fill="#FFFF86"/>
<path d="M147.5 295.472C147.5 295.472 134.7 290.472 148.8 243.072L144.9 241.772C144.9 241.772 131.7 285.972 136.6 290.872C141.5 295.772 147.5 295.472 147.5 295.472Z" fill="#FFFF86"/>
<path d="M189.9 293.973C190.6 292.473 191.6 290.373 192.3 287.673C193.9 282.073 193.9 276.973 193.2 270.373C192 259.773 189.2 250.373 186.7 243.273C188 242.873 189.4 242.373 190.7 241.973C190.7 241.973 204.3 286.973 199.3 291.873C198.5 292.673 197.1 294.873 194.5 295.173C192.4 295.473 190.7 294.473 189.9 293.973Z" fill="#FF7400"/>
<path d="M150.3 262.973C150.6 263.773 152.9 269.573 157.4 272.373C159.7 273.773 162.5 274.573 162.5 274.573C163.4 274.773 164.3 274.973 165.3 275.173L166.7 275.373L167.4 275.473H167.8H168.1C171.8 275.373 175.6 274.273 178.5 272.073C181.5 269.973 183.6 266.373 184.9 262.373C184.9 263.373 185 264.473 184.8 265.573C184.6 266.573 184.5 267.773 184.1 268.773C183.4 270.873 182.2 272.873 180.5 274.473C178.9 276.073 176.9 277.373 174.7 278.173C172.6 278.973 170.4 279.373 168 279.473H167.8H167.5L167.1 279.373L166.3 279.273L164.6 279.073C164 278.973 163.5 278.773 163 278.673C162.2 278.473 161.7 278.273 161.4 278.173C157.8 277.073 156 276.473 155.3 276.073C153.8 275.073 153.2 273.773 152.3 272.073C150.5 268.673 150.2 265.373 150.3 262.973Z" fill="#F2E2A0"/>
<path d="M167.2 284.073C166.8 284.073 166.4 284.073 166 284.073C164.1 283.973 154.3 283.073 148.7 274.873C144.7 269.073 145.1 262.973 145.4 257.573C145.8 250.473 147.9 243.673 151.7 237.173C152.1 236.373 153 235.973 153.8 235.973L180.4 235.873C181.2 235.873 182 236.273 182.5 236.973C186.9 243.473 189.4 250.873 189.7 258.273C189.9 262.973 190.1 268.773 186.3 274.573C182.1 280.373 174.8 284.073 167.2 284.073ZM155.2 240.973C152.3 246.373 150.6 252.073 150.3 257.873C150 262.873 149.8 267.673 152.8 272.073C157.2 278.373 165.4 279.073 166.3 279.073C172.6 279.373 178.8 276.473 182 271.773C184.9 267.473 184.8 262.673 184.6 258.573C184.4 252.573 182.4 246.473 179 240.973H155.2Z" fill="black"/>
<path d="M130.1 278.673C129 278.673 127.9 278.573 126.8 278.173C125.2 277.673 123.6 276.873 122.3 275.773C122.2 275.673 122.1 275.573 122 275.473C111 263.773 130.6 239.973 132.9 237.273C133.6 236.473 134.5 236.073 135.5 236.273L144.9 237.373C145.8 237.473 146.6 237.973 147.1 238.773C147.6 239.473 147.7 240.473 147.4 241.273C145.6 247.073 144 253.073 142.7 259.073C141.6 263.873 140.7 268.773 140 273.673C139.9 274.473 139.5 275.173 138.8 275.673C137.7 276.473 134.4 278.673 130.1 278.673ZM126.2 271.273C126.9 271.773 127.6 272.173 128.4 272.373C130.7 273.073 133 272.173 134.2 271.373C134.9 266.773 135.7 262.273 136.7 257.773C137.8 252.773 139.1 247.873 140.5 242.973L136.3 242.473C131.1 249.173 120.7 264.973 126.2 271.273Z" fill="black"/>
<path d="M189.4 300.373C187.2 300.373 185.4 299.673 184.3 299.273C180.3 297.673 177.6 294.973 175.7 292.573C168.1 294.273 161 293.173 157.3 292.373C155.9 295.173 153.3 299.073 148.5 300.073C148.1 300.173 144.1 300.973 140.5 298.973C131.8 293.973 133.2 277.173 134.8 267.673C137.1 254.273 141.5 241.573 141.6 241.073C142 239.873 143.1 239.073 144.4 239.073L191.2 237.873C192.5 237.873 193.6 238.573 194.1 239.773C197.4 248.273 199.8 256.973 201.2 265.773C203.4 279.973 202.2 291.173 198.2 295.973C195.3 299.373 192 300.273 191.6 300.273C190.9 300.273 190.1 300.373 189.4 300.373ZM177 286.073C178 286.073 179 286.573 179.6 287.573C180.8 289.673 183 292.373 186.5 293.773C187.8 294.273 189 294.673 190.3 294.373C190.3 294.373 192 293.873 193.6 291.973C195.8 289.373 197.3 280.273 195.2 266.573C193.9 258.873 191.9 251.173 189.2 243.773L146.7 244.873C145.4 248.873 142.4 258.673 140.8 268.573C138.6 281.373 139.8 291.473 143.6 293.673C145.2 294.573 147.3 294.173 147.3 294.173C151.1 293.373 152.7 287.873 152.7 287.873C152.9 287.073 153.5 286.473 154.2 286.073C154.9 285.673 155.8 285.673 156.6 285.873C156.7 285.873 166.4 289.173 176.2 286.273C176.5 286.073 176.8 286.073 177 286.073Z" fill="black"/>
<path d="M205.3 279.073C201.5 279.073 198.5 277.173 197.3 276.273C196.6 275.773 196.2 274.973 196.1 274.173C195.7 270.273 195.2 266.373 194.5 262.573C193.2 255.173 191.3 247.873 188.9 240.773C188.6 239.973 188.7 239.073 189.1 238.373C189.5 237.673 190.2 237.073 191 236.873L198 235.073C199 234.773 200.1 235.073 200.8 235.873C204.3 239.273 207.3 243.073 209.7 247.173C214.8 255.773 219.7 267.573 214.3 274.673C212 277.673 208.7 278.673 208 278.773C207.2 278.973 206.2 279.073 205.3 279.073ZM201.9 272.173C203 272.773 204.8 273.473 206.6 272.973C206.6 272.973 208.5 272.473 209.6 270.973C212.1 267.673 210.2 259.773 204.6 250.173C202.7 246.973 200.5 243.973 197.9 241.273L195.6 241.873C197.6 248.273 199.2 254.873 200.4 261.473C201.1 265.073 201.6 268.573 201.9 272.173Z" fill="black"/>
<path d="M146.3 100.573C136.6 98.8727 121.9 96.1727 107 100.173C102.7 101.273 93.9001 103.773 85.8001 111.173C78.2001 118.073 75.1001 125.873 73.1001 130.673C65.4001 150.273 69.2001 168.573 71.6001 178.973C73.8001 188.873 75.9001 198.173 82.9001 207.873C91.6001 219.873 102.2 224.873 121.8 233.773C144 243.873 155 248.873 168.6 248.673C186.9 248.373 200.1 240.573 217.2 230.473C237.1 218.673 247.3 212.673 254.9 199.973C269.8 174.873 265 139.973 247.4 117.673C242.6 111.573 229.5 94.9727 212.2 94.6727C206.3 94.5727 197.5 96.4727 179.9 100.273C175.4 101.173 171.2 102.173 165.1 102.373C157 102.873 151.7 101.573 146.3 100.573Z" fill="url(#paint9_linear)"/>
<path d="M71.6001 166.673C72.2001 166.573 72.7001 181.473 82.9001 197.173C83.8 198.573 87.5 204.173 93.9 210.173C102.8 218.573 112 223.273 122.1 227.573C145.8 237.473 157.6 242.473 170.9 242.173C194.9 241.773 212.3 228.973 233.8 213.173C240.4 208.273 244.6 204.473 248.4 199.373C258.5 185.673 260.2 170.673 260.4 162.373C260.7 168.573 260.9 187.673 248.2 206.473C236.8 223.373 221.4 230.473 215.4 232.873C206.2 238.473 198.5 243.673 192.5 243.673C192.1 243.673 166.1 250.573 166.1 250.573L139.4 244.873L115.7 230.873C109 227.973 99.2001 222.573 90.3001 212.973C81.8001 203.873 77.8001 194.973 76.6001 192.173C70.8001 178.873 71.0001 166.773 71.6001 166.673Z" fill="#FFFF86"/>
<path d="M160.7 119.472C160.9 122.572 156.9 125.072 154.9 124.272C153.9 123.872 153.4 122.772 152.6 120.772C151.9 118.972 151.5 118.072 151.9 117.072C152.5 115.672 154.5 115.272 155.8 115.372C158.1 115.372 160.5 117.072 160.7 119.472Z" fill="#9E4C0E"/>
<path d="M172.7 108.373C172.9 111.473 168.9 113.973 166.9 113.173C165.9 112.773 165.4 111.673 164.6 109.673C163.9 107.873 163.5 106.973 163.9 105.973C164.5 104.573 166.5 104.173 167.8 104.273C170 104.373 172.5 105.973 172.7 108.373Z" fill="#9E4C0E"/>
<path d="M177.4 110.273C178.9 108.473 182.4 109.273 183 110.773C183.3 111.473 183 112.373 182.3 113.873C181.7 115.173 181.4 115.873 180.7 116.173C179.6 116.573 178.3 115.773 177.7 114.973C176.6 113.773 176.2 111.573 177.4 110.273Z" fill="#9E4C0E"/>
<path d="M170.5 141.773C168.9 143.673 169.1 144.373 168 144.973C166.8 145.573 165.1 145.573 163.9 144.873C161.3 143.273 162.1 138.973 162.2 138.473C162.4 137.673 162.8 135.773 164.5 134.573C166.5 133.073 169.6 133.073 171.5 134.673C172.6 135.573 173.7 137.373 173.3 138.873C172.9 139.973 172.1 139.973 170.5 141.773Z" fill="#9E4C0E"/>
<path d="M150.2 110.273C150.2 110.373 149.8 111.773 148.7 112.273C147.2 112.873 146.4 111.073 144.2 111.173C142.2 111.273 141.6 112.973 139.8 112.673C139 112.573 138.2 112.073 137.7 111.373C136.5 109.473 138.2 105.273 141.4 104.073C144.6 102.873 147.7 105.273 149 106.873C149.6 107.473 150.6 108.773 150.2 110.273Z" fill="#9E4C0E"/>
<path d="M127.2 107.573H126.3C125 107.573 124 106.573 124 105.273C124 103.973 125 102.973 126.3 102.973H127.2C128.5 102.973 129.5 103.973 129.5 105.273C129.5 106.473 128.5 107.573 127.2 107.573Z" fill="#9E4C0E"/>
<path d="M213.7 106.073C212.4 106.073 211.4 105.073 211.4 103.773C211.4 102.473 212.4 101.473 213.7 101.473C215 101.473 216 102.473 216 103.773C216 104.973 215 106.073 213.7 106.073Z" fill="#9E4C0E"/>
<path d="M167.7 252.273C150.5 252.273 138.6 246.473 120.8 237.873C101.6 228.573 83.4998 219.773 73.7998 199.873C68.4998 188.973 67.9998 179.473 67.4998 171.073C66.6998 156.173 65.0998 128.573 85.2998 109.473L87.6998 111.973L85.2998 109.473C102.1 93.5725 126 91.2725 137.1 93.4725L137.8 93.5725C139.1 93.8725 141.7 94.3725 145.4 95.0725C159.4 97.7725 164.3 98.0725 168.2 98.0725C174.6 98.1725 177.9 97.2725 182 96.0725C183.8 95.5725 185.9 94.9725 188.5 94.4725C188.7 94.4725 193.2 93.4725 199.5 92.8725C222 90.7725 239 105.873 240.7 107.473C256.4 120.073 260.5 137.773 262.7 147.273C262.9 148.273 263.2 149.273 263.4 150.073C265.2 157.173 267.1 164.573 266.3 174.873C266.1 177.673 265 187.473 260.3 197.673C251.9 215.773 236.2 224.873 221.1 233.673L219.7 234.473C204.2 243.473 189.6 251.973 168.9 252.273C168.3 252.273 168 252.273 167.7 252.273ZM128.6 99.6725C117.8 99.6725 102 103.273 90.1998 114.473C72.3998 131.273 73.6998 155.873 74.5998 170.573C75.0998 178.673 75.4998 187.073 80.1998 196.773C88.7998 214.573 105.1 222.373 123.9 231.573C141.2 239.973 152.6 245.573 168.6 245.273C187.5 245.073 200.7 237.373 216 228.473L217.4 227.673C232.3 218.973 246.3 210.873 253.8 194.773C258 185.673 259 176.873 259.2 174.473C259.9 165.373 258.2 158.573 256.5 151.973C256.3 151.073 256 150.073 255.8 148.973C253.7 139.673 250.1 124.073 236.2 112.973C236.1 112.873 236.1 112.873 236 112.773C235.8 112.673 220.1 98.1725 200.1 99.9725C194.3 100.473 189.9 101.473 189.9 101.473C187.5 101.973 185.6 102.473 183.8 102.973C179.3 104.173 175.5 105.273 168.1 105.173C163.9 105.173 158.6 104.873 144.1 102.073C140.4 101.373 137.7 100.773 136.4 100.573L135.8 100.473C133.8 99.8725 131.3 99.6725 128.6 99.6725Z" fill="black"/>
<path d="M117.3 206.573C145.08 206.573 167.6 184.053 167.6 156.273C167.6 128.493 145.08 105.973 117.3 105.973C89.5201 105.973 67 128.493 67 156.273C67 184.053 89.5201 206.573 117.3 206.573Z" fill="black"/>
<path d="M117.3 198.173C140.441 198.173 159.2 179.413 159.2 156.273C159.2 133.132 140.441 114.373 117.3 114.373C94.1597 114.373 75.4004 133.132 75.4004 156.273C75.4004 179.413 94.1597 198.173 117.3 198.173Z" fill="white"/>
<path d="M117.3 191.772C136.906 191.772 152.8 175.879 152.8 156.272C152.8 136.666 136.906 120.772 117.3 120.772C97.6937 120.772 81.7998 136.666 81.7998 156.272C81.7998 175.879 97.6937 191.772 117.3 191.772Z" fill="black"/>
<path d="M113.729 156.734C122.369 154.208 127.703 146.445 125.642 139.395C123.58 132.345 114.905 128.677 106.265 131.203C97.6245 133.729 92.291 141.492 94.3521 148.542C96.4132 155.592 105.088 159.26 113.729 156.734Z" fill="white"/>
<path d="M131.27 168.348C134.875 167.294 137.093 164.033 136.225 161.065C135.357 158.096 131.732 156.544 128.127 157.598C124.523 158.652 122.304 161.912 123.172 164.881C124.04 167.849 127.665 169.401 131.27 168.348Z" fill="white"/>
<path d="M216 205.873C243.89 205.873 266.5 183.263 266.5 155.373C266.5 127.482 243.89 104.873 216 104.873C188.11 104.873 165.5 127.482 165.5 155.373C165.5 183.263 188.11 205.873 216 205.873Z" fill="black"/>
<path d="M216 197.273C239.14 197.273 257.9 178.513 257.9 155.373C257.9 132.232 239.14 113.473 216 113.473C192.859 113.473 174.1 132.232 174.1 155.373C174.1 178.513 192.859 197.273 216 197.273Z" fill="white"/>
<path d="M216 190.873C235.606 190.873 251.5 174.979 251.5 155.373C251.5 135.766 235.606 119.873 216 119.873C196.394 119.873 180.5 135.766 180.5 155.373C180.5 174.979 196.394 190.873 216 190.873Z" fill="black"/>
<path d="M212.43 155.838C221.07 153.312 226.404 145.549 224.343 138.499C222.282 131.449 213.606 127.781 204.966 130.307C196.326 132.833 190.992 140.596 193.053 147.646C195.114 154.697 203.79 158.364 212.43 155.838Z" fill="white"/>
<path d="M229.969 167.344C233.574 166.29 235.792 163.03 234.924 160.061C234.057 157.093 230.431 155.541 226.826 156.594C223.222 157.648 221.003 160.909 221.871 163.877C222.739 166.846 226.365 168.398 229.969 167.344Z" fill="white"/>
<path d="M167.2 235.972C163.2 235.972 160.1 235.272 157.9 234.772H157.8C150.3 232.972 147.3 232.472 145.5 232.172C143.8 231.872 142.9 231.772 140.6 230.972C134.1 228.772 128 225.272 122.3 220.772C121 219.772 120.8 217.872 121.8 216.572C122.8 215.272 124.7 215.072 126 216.072C131.1 220.172 136.7 223.272 142.5 225.272C144.3 225.872 144.8 225.972 146.4 226.272C148.3 226.572 151.5 227.072 159.2 228.872H159.3C161.5 229.372 164.5 230.072 168.4 229.872C170.7 229.772 172.5 229.372 174.3 228.972C181 227.472 185 226.572 190.8 224.372C197.4 221.972 203.9 218.872 210.1 215.272C211.5 214.472 213.4 214.872 214.2 216.372C215 217.772 214.6 219.672 213.1 220.472C206.6 224.272 199.8 227.572 192.8 230.072C186.6 232.272 182.2 233.272 175.6 234.872C173.6 235.372 171.5 235.772 168.6 235.872C168.2 235.972 167.7 235.972 167.2 235.972Z" fill="#FF8D27"/>
<path d="M166.7 232.972C162.7 232.972 159.6 232.272 157.4 231.772H157.3C149.8 229.972 146.8 229.472 145 229.172C143.3 228.872 142.4 228.772 140.1 227.972C133.6 225.772 127.5 222.272 121.8 217.772C120.5 216.772 120.3 214.872 121.3 213.572C122.3 212.272 124.2 212.072 125.5 213.072C130.6 217.172 136.2 220.272 142 222.272C143.8 222.872 144.3 222.972 145.9 223.272C147.8 223.572 151 224.072 158.7 225.872H158.8C161 226.372 164 227.072 167.9 226.872C170.2 226.772 172 226.372 173.8 225.972C180.5 224.472 184.5 223.572 190.3 221.372C196.9 218.972 203.4 215.872 209.6 212.272C211 211.472 212.9 211.872 213.7 213.372C214.5 214.772 214.1 216.672 212.6 217.472C206.1 221.272 199.3 224.572 192.3 227.072C186.1 229.272 181.7 230.272 175.1 231.872C173.1 232.372 171 232.772 168.1 232.872C167.7 232.972 167.2 232.972 166.7 232.972Z" fill="black"/>
<path d="M174.8 119.573C174.9 119.673 175.6 120.873 175.1 122.073C174.5 123.573 172.6 122.873 171.2 124.473C169.8 125.973 170.6 127.573 169.1 128.673C168.5 129.173 167.5 129.373 166.7 129.173C164.5 128.673 162.8 124.473 164.2 121.373C165.6 118.273 169.5 117.673 171.6 117.973C172.4 118.073 174 118.273 174.8 119.573Z" fill="#9E4C0E"/>
<path d="M200.3 105.773C200.3 105.873 200.2 106.973 199.4 107.473C198.4 108.073 197.5 106.873 195.9 107.273C194.4 107.573 194.2 108.973 192.8 108.973C192.2 108.973 191.5 108.773 191.1 108.273C190 106.973 190.7 103.673 192.9 102.373C195.1 101.073 197.8 102.373 199 103.473C199.5 103.873 200.4 104.673 200.3 105.773Z" fill="#9E4C0E"/>
<path d="M154.8 107.873C155.6 106.873 157.5 107.373 157.9 108.173C158.1 108.573 157.9 109.073 157.5 109.873C157.2 110.573 157 110.973 156.6 111.173C156 111.373 155.3 110.973 155 110.573C154.4 109.773 154.2 108.573 154.8 107.873Z" fill="#9E4C0E"/>
<path d="M134.6 102.673C135.1 102.073 136.3 102.373 136.5 102.873C136.6 103.073 136.5 103.373 136.3 103.873C136.1 104.273 136 104.573 135.8 104.673C135.4 104.773 135 104.573 134.8 104.273C134.4 103.873 134.2 103.073 134.6 102.673Z" fill="#9E4C0E"/>
<path d="M184.1 104.573C184.6 103.973 185.8 104.273 186 104.773C186.1 104.973 186 105.273 185.8 105.773C185.6 106.173 185.5 106.473 185.3 106.573C184.9 106.673 184.5 106.473 184.3 106.173C183.9 105.673 183.7 104.973 184.1 104.573Z" fill="#9E4C0E"/>
<path d="M162.9 114.473C163.4 113.873 164.6 114.173 164.8 114.673C164.9 114.873 164.8 115.173 164.6 115.673C164.4 116.073 164.3 116.373 164.1 116.473C163.7 116.573 163.3 116.373 163.1 116.073C162.6 115.573 162.5 114.873 162.9 114.473Z" fill="#9E4C0E"/>
<path d="M205 103.372C205.5 102.772 206.7 103.072 206.9 103.572C207 103.772 206.9 104.072 206.7 104.572C206.5 104.972 206.4 105.272 206.2 105.372C205.8 105.472 205.4 105.272 205.2 104.972C204.8 104.572 204.6 103.772 205 103.372Z" fill="#9E4C0E"/>
<path d="M118.1 101.373C119.4 101.173 120.6 102.873 120.3 103.673C120.2 104.073 119.7 104.373 118.9 104.773C118.2 105.073 117.8 105.273 117.3 105.173C116.7 104.973 116.5 104.073 116.5 103.573C116.4 102.673 117.1 101.573 118.1 101.373Z" fill="#9E4C0E"/>
<path d="M223.3 68.3727C211.3 71.7727 206.4 70.0727 204.2 67.5727C201.8 64.8727 202.9 61.3727 199.2 57.4727C197.2 55.2727 192.9 52.1727 190.1 53.4727C186 55.2727 188.9 64.7727 183.9 67.7727C181.6 69.0727 178.3 68.7727 176 67.2727C170.7 63.7727 174.8 55.4727 168.9 48.7727C168.7 48.5727 164 43.3727 159.4 44.3727C153.5 45.7727 151.1 56.8727 150.8 58.3727C149.6 64.0727 150.6 67.1727 148.7 68.2727C146.2 69.5727 141.8 65.8727 139.9 64.2727C133.5 58.9727 133 54.1727 130.4 54.1727C126.9 54.2727 126.9 63.0727 120.9 67.4727C115.4 71.6727 107.3 70.1727 101.5 68.3727C102.4 78.8727 103.2 89.4727 104.1 99.9727H220.5L223.3 68.3727Z" fill="#F5DE53"/>
<path d="M103.5 89.5728L104.4 99.9727C122 101.673 141.4 102.873 162.3 102.873C183.4 102.873 203 101.773 220.7 99.9727C221 96.4727 221.3 93.0728 221.6 89.5728C203.5 90.9728 184 91.8727 163.2 91.8727C142 91.8727 122 90.9728 103.5 89.5728Z" fill="#EBBE2F"/>
<path d="M222.2 82.0725L222.3 80.2725H102.7L102.8 82.0725H222.2Z" fill="#EBBE2F"/>
<path d="M171.1 63.5725C170.6 58.1725 162.5 51.2725 162.5 51.2725C162.5 51.2725 154.4 58.2725 153.9 63.5725C153.4 68.9725 162.5 77.0725 162.5 77.0725C162.5 77.0725 171.6 68.9725 171.1 63.5725Z" fill="#FF3A2F"/>
<path d="M103.1 86.8727L98.7002 41.4727C98.7002 41.4727 110.8 53.7727 111.6 63.1727C112.5 72.5727 103.1 86.8727 103.1 86.8727Z" fill="#F5DE53"/>
<path d="M99.7001 51.2725C99.7001 51.2725 106.8 58.8725 106.8 64.6725C106.8 70.4725 102.3 78.6725 102.3 78.6725C102.3 78.6725 91.5001 60.3725 99.7001 51.2725Z" fill="#FF3A2F"/>
<path d="M188 87.4726C188 92.2726 184.1 96.0726 179.4 96.0726C174.6 96.0726 170.8 92.1726 170.8 87.4726C170.8 82.6726 174.7 78.8726 179.4 78.8726C184.2 78.8726 188 82.6726 188 87.4726Z" fill="#F5DE53"/>
<path d="M186.1 87.4725C186.1 91.1725 183.1 94.1725 179.4 94.1725C175.7 94.1725 172.7 91.1725 172.7 87.4725C172.7 83.7725 175.7 80.7725 179.4 80.7725C183.1 80.7725 186.1 83.7725 186.1 87.4725Z" fill="#FF7400"/>
<path d="M217.6 87.8725C217.6 92.6725 213.7 96.4725 209 96.4725C204.2 96.4725 200.4 92.5725 200.4 87.8725C200.4 83.0725 204.3 79.2725 209 79.2725C213.7 79.2725 217.6 83.1725 217.6 87.8725Z" fill="#F5DE53"/>
<path d="M215.6 87.8726C215.6 91.5726 212.6 94.5726 208.9 94.5726C205.2 94.5726 202.2 91.5726 202.2 87.8726C202.2 84.1726 205.2 81.1726 208.9 81.1726C212.6 81.1726 215.6 84.1726 215.6 87.8726Z" fill="#FF7400"/>
<path d="M155.5 87.4726C155.5 92.2726 151.6 96.0726 146.9 96.0726C142.1 96.0726 138.3 92.1726 138.3 87.4726C138.3 82.6726 142.2 78.8726 146.9 78.8726C151.7 78.8726 155.5 82.6726 155.5 87.4726Z" fill="#F5DE53"/>
<path d="M153.6 87.4725C153.6 91.1725 150.6 94.1725 146.9 94.1725C143.2 94.1725 140.2 91.1725 140.2 87.4725C140.2 83.7725 143.2 80.7725 146.9 80.7725C150.6 80.7725 153.6 83.7725 153.6 87.4725Z" fill="#FF7400"/>
<path d="M126.1 87.4726C126.1 92.2726 122.2 96.0726 117.5 96.0726C112.7 96.0726 108.9 92.1726 108.9 87.4726C108.9 82.6726 112.8 78.8726 117.5 78.8726C122.3 78.8726 126.1 82.6726 126.1 87.4726Z" fill="#F5DE53"/>
<path d="M124.2 87.4725C124.2 91.1725 121.2 94.1725 117.5 94.1725C113.8 94.1725 110.8 91.1725 110.8 87.4725C110.8 83.7725 113.8 80.7725 117.5 80.7725C121.2 80.7725 124.2 83.7725 124.2 87.4725Z" fill="#FF7400"/>
<path d="M135.6 69.0725C135.6 71.3725 133.6 73.3725 131.3 73.3725C129 73.3725 127 71.3725 127 69.0725C127 66.7725 129 64.7725 131.3 64.7725C133.6 64.7725 135.6 66.7725 135.6 69.0725Z" fill="#FF3A2F"/>
<path d="M221.9 86.8727L226.3 41.4727C226.3 41.4727 214.2 53.7727 213.4 63.1727C212.5 72.5727 221.9 86.8727 221.9 86.8727Z" fill="#F5DE53"/>
<path d="M225.3 51.2725C225.3 51.2725 218.2 58.8725 218.2 64.6725C218.2 70.4725 222.7 78.6725 222.7 78.6725C222.7 78.6725 233.4 60.3725 225.3 51.2725Z" fill="#FF3A2F"/>
<path d="M189.4 69.0725C189.4 71.3725 191.3 73.3725 193.7 73.3725C196.1 73.3725 198 71.4725 198 69.0725C198 66.7725 196.1 64.7725 193.7 64.7725C191.2 64.7725 189.4 66.7725 189.4 69.0725Z" fill="#FF3A2F"/>
<path d="M162.5 105.973C143 105.973 123.4 104.773 104 102.473C102.9 102.373 102 101.473 101.9 100.273L100.8 87.7726C100.7 87.5726 100.7 87.3726 100.7 87.1726L99.8998 79.5726C99.7998 79.3726 99.6998 79.2726 99.5998 78.9726L99.1998 78.0726C99.0998 77.8726 98.9998 77.6726 98.8998 77.4726L97.9998 75.4726V75.3726L97.4998 74.2726C97.3998 73.9726 97.2998 73.6726 97.0998 73.3726L96.2998 71.0726C96.1998 70.8726 96.1998 70.6726 96.0998 70.4726L95.8998 70.1726C95.7998 69.8726 95.6998 69.6726 95.6998 69.3726L95.5998 69.0726C95.4998 68.6726 95.3998 68.3726 95.2998 67.9726L95.1998 67.6726C95.0998 67.3726 95.0998 67.1726 94.9998 66.8726L94.6998 65.2726C94.6998 65.0726 94.5998 64.7726 94.5998 64.5726L94.4998 64.2726C94.4998 63.9726 94.3998 63.6726 94.3998 63.4726V63.1726C94.3998 62.7726 94.2998 62.3726 94.2998 62.0726C94.2998 61.9726 94.2998 61.8726 94.2998 61.7726V61.6726C94.2998 61.4726 94.2998 61.1726 94.2998 60.8726C94.2998 60.6726 94.2998 60.5726 94.2998 60.3726C94.2998 60.1726 94.2998 59.8726 94.2998 59.6726C94.2998 59.4726 94.2998 59.3726 94.2998 59.1726C94.2998 58.9726 94.2998 58.6726 94.3998 58.4726C94.3998 58.2726 94.3998 58.1726 94.3998 57.9726C94.3998 57.6726 94.4998 57.4726 94.4998 57.1726C94.4998 56.9726 94.4998 56.8726 94.5998 56.8726C94.6998 56.4726 94.7998 56.0726 94.7998 55.7726C94.7998 55.6726 94.8998 55.5726 94.8998 55.4726V55.3726C94.9998 55.0726 94.9998 54.8726 95.0998 54.6726C95.0998 54.5726 95.1998 54.3726 95.1998 54.2726C95.2998 53.9726 95.3998 53.7726 95.4998 53.5726C95.5998 53.3726 95.5998 53.2726 95.6998 53.0726C95.7998 52.8726 95.8998 52.5726 96.0998 52.3726C96.1998 52.1726 96.2998 52.0726 96.2998 51.9726C96.2998 51.8726 96.3998 51.7726 96.7998 51.2726L96.8998 51.0726C96.8998 50.9726 96.9998 50.8726 97.0998 50.4726L96.2998 41.9726C96.1998 40.8726 96.7998 39.8726 97.6998 39.4726C98.6998 38.9726 99.7998 39.2726 100.5 39.9726C101 40.4726 113.2 52.9726 114.1 63.1726C114.2 64.0726 114.2 65.0726 114.1 66.1726H119.6C119.8 65.2726 120.1 64.2726 120.4 63.2726C120.4 63.2726 120.5 63.1726 120.5 63.0726C120.6 62.8726 120.7 62.6726 120.8 62.3726V62.2726C121.4 60.8726 122.2 59.3726 123.3 57.7726L123.4 57.6726C123.5 57.4726 123.7 57.1726 123.9 56.9726C126 53.8726 128.2 51.4726 129.1 50.4726C129.4 50.1726 129.6 49.9726 129.6 49.9726C130.1 49.4726 130.7 49.1726 131.4 49.2726C132.1 49.2726 132.7 49.5726 133.2 50.0726L133.3 50.1726C133.3 50.1726 133.3 50.1726 133.4 50.2726C133.5 50.3726 133.4 50.2726 133.4 50.2726L133.6 50.4726C134.7 51.6726 136.8 53.9726 138.8 56.8726C139 57.1726 139.2 57.3726 139.3 57.6726L139.4 57.7726C140.4 59.2726 141.2 60.7726 141.8 62.1726C141.8 62.1726 141.8 62.2726 141.9 62.2726V62.3726C142 62.5726 142.1 62.7726 142.2 63.0726C142.2 63.0726 142.2 63.1726 142.3 63.1726C142.7 64.1726 143 65.1726 143.1 66.0726H147.3C147.2 65.0726 147.1 64.0726 147.2 63.0726C148.1 52.8726 160.3 40.3726 160.8 39.8726C161.3 39.3726 161.9 39.1726 162.6 39.1726C163.3 39.1726 163.9 39.4726 164.4 39.8726C164.9 40.3726 177.1 52.8726 178 63.0726C178.1 63.9726 178 64.9726 177.9 66.0726H182.1C182.3 65.1726 182.6 64.1726 182.9 63.1726C182.9 63.0726 182.9 63.0726 183 63.0726C183.1 62.8726 183.2 62.6726 183.3 62.3726V62.2726V62.1726C183.9 60.7726 184.7 59.3726 185.7 57.7726C185.7 57.7726 185.7 57.6726 185.8 57.6726C186 57.3726 186.1 57.1726 186.3 56.9726C188.4 53.8726 190.6 51.4726 191.5 50.4726L191.9 49.9726C192.4 49.4726 193 49.2726 193.7 49.2726C194.4 49.2726 195 49.5726 195.5 49.9726C195.5 49.9726 195.7 50.1726 196 50.4726C197.1 51.6726 199.2 53.9726 201.2 56.8726L201.3 56.9726C201.4 57.1726 201.6 57.3726 201.8 57.6726L201.9 57.7726C202.9 59.2726 203.7 60.7726 204.3 62.0726V62.1726V62.2726C204.4 62.4726 204.5 62.7726 204.6 62.9726L204.7 63.0726C205.1 64.0726 205.4 65.0726 205.6 65.9726H211.1C211 64.9726 211 63.9726 211.1 62.9726C212 52.7726 224.2 40.2726 224.7 39.7726C225.4 38.9726 226.6 38.7726 227.5 39.2726C228.5 39.6726 229 40.7726 228.9 41.7726L228.1 50.5726L228.2 50.6726C228.3 50.7726 228.3 50.8726 228.4 50.9726C228.6 51.2726 228.8 51.4726 228.9 51.7726C229 51.8726 229 51.9726 229.1 52.1726C229.3 52.4726 229.4 52.6726 229.5 52.8726C229.6 52.9726 229.6 53.1726 229.7 53.3726C229.8 53.5726 229.9 53.7726 230 54.0726C230.1 54.2726 230.1 54.3726 230.2 54.5726C230.3 54.8726 230.4 55.0726 230.4 55.3726C230.5 55.5726 230.5 55.6726 230.5 55.7726C230.6 56.1726 230.7 56.5726 230.8 56.8726C230.8 56.9726 230.8 57.0726 230.8 57.1726C230.9 57.4726 230.9 57.7726 230.9 58.0726C230.9 58.1726 230.9 58.2726 230.9 58.4726C230.9 58.7726 230.9 59.0726 231 59.2726C231 59.4726 231 59.5726 231 59.7726C231 59.9726 231 60.2726 231 60.4726V60.9726C231 61.1726 231 61.4726 231 61.7726V62.1726C231 62.5726 230.9 62.9726 230.9 63.2726V63.5726C230.9 63.8726 230.8 64.0726 230.8 64.3726L230.7 64.7726C230.7 64.9726 230.6 65.2726 230.6 65.4726L230.5 65.9726C230.5 66.1726 230.4 66.4726 230.4 66.6726L230.3 67.0726C230.2 67.2726 230.2 67.5726 230.1 67.7726L230 68.1726C229.9 68.5726 229.8 68.8726 229.7 69.2726L229.6 69.5726C229.5 69.7726 229.4 70.0726 229.4 70.2726L228.2 73.5726C228.1 73.8726 228 74.1726 227.9 74.3726L226.6 77.2726C226.6 77.2726 226.6 77.3726 226.5 77.3726L225.8 78.7726C225.8 78.7726 225.8 78.7726 225.8 78.8726L225.7 78.9726C225.6 79.1726 225.5 79.2726 225.4 79.5726L224.7 87.1726C224.7 87.3726 224.6 87.5726 224.6 87.7726L223.2 100.273C223.1 101.473 222.2 102.373 221 102.573C202.2 104.773 183 105.973 164 106.073C163.5 105.973 163 105.973 162.5 105.973ZM106.7 97.7726C125.7 99.9726 144.9 101.073 164 100.973C182.1 100.873 200.4 99.8726 218.4 97.7726L219.3 86.5726C219.3 86.3726 219.4 86.0726 219.4 85.8726L220.1 78.4726C220.1 78.0726 220.2 77.7726 220.4 77.4726L220.5 77.2726C220.6 77.0726 220.8 76.7726 220.9 76.5726L221 76.4726C221 76.3726 221.1 76.3726 221.1 76.2726L222.9 72.3726C223 72.1726 223.1 71.8726 223.2 71.5726L224.3 68.5726C224.4 68.3726 224.4 68.1726 224.5 67.8726L224.6 67.5726C224.7 67.2726 224.8 66.9726 224.9 66.6726L225 66.3726C225.1 66.1726 225.1 65.9726 225.2 65.7726L225.3 65.3726C225.3 65.1726 225.4 64.9726 225.4 64.7726L225.5 64.3726C225.5 64.1726 225.6 63.9726 225.6 63.7726L225.7 63.3726C225.7 63.1726 225.8 62.8726 225.8 62.6726V62.3726C225.8 62.0726 225.9 61.7726 225.9 61.4726V61.1726C225.9 60.9726 225.9 60.7726 225.9 60.5726V60.2726C225.9 59.9726 225.9 59.7726 225.9 59.6726C225.9 59.5726 225.9 59.4726 225.9 59.2726C225.9 59.0726 225.9 58.8726 225.9 58.7726V58.4726C225.9 58.2726 225.8 58.0726 225.8 57.8726V57.6726C225.7 57.3726 225.7 57.0726 225.6 56.7726L225.5 56.4726C225.4 56.2726 225.4 56.0726 225.3 55.9726C225.3 55.8726 225.2 55.7726 225.2 55.6726C225.1 55.4726 225.1 55.3726 225 55.1726C225 55.0726 224.9 54.9726 224.9 54.8726C224.8 54.6726 224.7 54.5726 224.7 54.4726L224.6 54.3726L224.5 54.1726C224.4 53.9726 224.3 53.8726 224.2 53.6726L224.1 53.4726C224.1 53.4726 224.1 53.4726 224.1 53.3726C223.9 53.1726 223.8 52.9726 223.6 52.7726C223.1 52.2726 222.9 51.5726 223 50.8726L223.2 48.8726C219.9 53.1726 216.4 58.7726 216 63.1726C215.9 64.4726 216 65.9726 216.4 67.6726C216.5 68.3726 216.4 69.1726 215.9 69.7726C215.4 70.3726 214.7 70.6726 214 70.6726H203.3C202.6 70.6726 202 70.3726 201.5 69.8726C201 69.3726 200.8 68.6726 200.8 67.9726C200.8 67.8726 200.8 67.7726 200.8 67.6726C200.8 67.5726 200.8 67.4726 200.8 67.3726C200.7 66.5726 200.5 65.6726 200.1 64.5726V64.4726C200 64.2726 200 64.1726 199.9 63.9726C199.9 63.9726 199.9 63.9726 199.9 63.8726C199.4 62.6726 198.7 61.4726 197.8 60.0726L197.7 59.9726C197.6 59.7726 197.4 59.5726 197.3 59.3726C196.1 57.6726 194.9 56.1726 194 55.0726C193.1 56.1726 191.9 57.6726 190.7 59.3726C190.5 59.6726 190.4 59.8726 190.2 60.0726C189.3 61.4726 188.6 62.7726 188.1 63.8726V63.9726C188 64.1726 187.9 64.3726 187.9 64.4726V64.5726C187.5 65.5726 187.3 66.4726 187.2 67.2726C187.2 67.3726 187.2 67.4726 187.2 67.5726C187.2 67.6726 187.2 67.7726 187.2 67.8726C187.2 68.5726 187 69.2726 186.5 69.7726C186 70.2726 185.4 70.5726 184.7 70.5726H175C174.2 70.5726 173.5 70.1726 173 69.5726C172.5 68.9726 172.4 68.0726 172.6 67.3726C173.1 65.7726 173.3 64.2726 173.2 63.0726C172.7 57.1726 166.6 49.0726 162.8 44.8726C159 49.1726 152.9 57.1726 152.4 63.0726C152.3 64.2726 152.5 65.6726 153 67.3726C153.2 68.1726 153.1 68.9726 152.6 69.5726C152.1 70.1726 151.4 70.5726 150.6 70.5726H140.9C140.2 70.5726 139.5 70.2726 139.1 69.7726C138.7 69.2726 138.4 68.5726 138.4 67.8726C138.4 67.7726 138.4 67.6726 138.4 67.5726V67.4726C138.4 67.3726 138.4 67.2726 138.4 67.1726C138.3 66.3726 138.1 65.4726 137.7 64.3726V64.2726C137.6 64.0726 137.6 63.9726 137.5 63.7726C137.5 63.7726 137.5 63.7726 137.5 63.6726C137 62.4726 136.3 61.2726 135.4 59.8726C135.4 59.8726 135.4 59.7726 135.3 59.7726C135.2 59.5726 135 59.3726 134.9 59.1726C133.7 57.4726 132.5 55.9726 131.6 54.8726C130.7 55.9726 129.5 57.4726 128.3 59.1726C128.1 59.4726 128 59.6726 127.8 59.8726C127.8 59.8726 127.8 59.9726 127.7 59.9726C126.8 61.2726 126.1 62.5726 125.6 63.7726V63.8726C125.5 64.0726 125.5 64.2726 125.4 64.3726V64.4726C125 65.4726 124.8 66.4726 124.7 67.2726C124.7 67.3726 124.7 67.4726 124.7 67.5726C124.7 67.6726 124.7 67.7726 124.7 67.8726C124.7 68.5726 124.5 69.2726 124 69.7726C123.5 70.2726 122.9 70.5726 122.2 70.5726H111.3C110.5 70.5726 109.8 70.2726 109.4 69.6726C108.9 69.0726 108.7 68.3726 108.9 67.5726C109.2 65.8726 109.4 64.2726 109.3 63.0726C108.9 58.6726 105.5 53.0726 102.1 48.7726L102.2 49.8726C102.2 50.1726 102.2 50.3726 102.1 50.6726C101.8 51.8726 101.5 52.6726 101.1 53.2726L101 53.4726C100.8 53.8726 100.7 53.9726 100.7 53.9726L100.6 54.1726C100.6 54.1726 100.6 54.2726 100.5 54.2726C100.4 54.3726 100.3 54.5726 100.3 54.6726C100.3 54.7726 100.2 54.8726 100.2 54.9726C100.1 55.0726 100.1 55.2726 99.9998 55.3726L99.8998 55.6726C99.7998 55.8726 99.7998 55.9726 99.6998 56.1726L99.5998 56.4726C99.4998 56.7726 99.4998 56.9726 99.3998 57.2726V57.4726C99.3998 57.6726 99.2998 57.8726 99.2998 58.0726V58.4726C99.2998 58.6726 99.2998 58.8726 99.2998 58.9726V59.3726C99.2998 59.5726 99.2998 59.7726 99.2998 59.8726V60.2726C99.2998 60.4726 99.2998 60.6726 99.2998 60.8726V61.1726C99.2998 61.4726 99.2998 61.7726 99.3998 62.0726V62.3726C99.3998 62.5726 99.4998 62.8726 99.4998 63.0726L99.5998 63.4726C99.5998 63.6726 99.6998 63.8726 99.6998 64.0726L99.9998 65.4726C100.1 65.6726 100.1 65.8726 100.2 66.1726L100.3 66.4726C100.4 66.7726 100.5 67.0726 100.6 67.3726L100.7 67.5726C100.8 67.7726 100.8 68.0726 100.9 68.2726L102 71.2726C102.1 71.5726 102.2 71.7726 102.3 72.0726L102.4 72.2726L104.3 76.2726C104.6 76.7726 104.7 77.0726 104.8 77.1726C105 77.4726 105.1 77.8726 105.1 78.1726L105.8 85.5726C105.9 85.7726 105.9 85.9726 105.9 86.1726L106.7 97.7726ZM222.2 76.9726L223.3 77.4726L221.4 76.4726L222.2 76.9726ZM96.9998 50.7726C96.9998 50.7726 96.9998 50.8726 96.9998 50.7726V50.7726Z" fill="black"/>
<defs>
<linearGradient id="paint0_linear" x1="197.091" y1="288.979" x2="249.342" y2="230.001" gradientUnits="userSpaceOnUse">
<stop offset="0.0238095" stop-color="#FF7400"/>
<stop offset="0.3922" stop-color="#FFBD2B"/>
<stop offset="0.4754" stop-color="#FFC231"/>
<stop offset="0.5893" stop-color="#FFCE43"/>
<stop offset="0.721" stop-color="#FFE360"/>
<stop offset="0.8598" stop-color="#FFFF86"/>
<stop offset="1" stop-color="white"/>
</linearGradient>
<linearGradient id="paint1_linear" x1="241.083" y1="236.396" x2="249.482" y2="236.396" gradientUnits="userSpaceOnUse">
<stop/>
<stop offset="0.5212" stop-color="#FF8D27"/>
<stop offset="1"/>
</linearGradient>
<linearGradient id="paint2_linear" x1="227.385" y1="243.29" x2="246.938" y2="243.29" gradientUnits="userSpaceOnUse">
<stop/>
<stop offset="0.5212" stop-color="#FF8D27"/>
<stop offset="1"/>
</linearGradient>
<linearGradient id="paint3_linear" x1="215.639" y1="256.727" x2="240.5" y2="256.727" gradientUnits="userSpaceOnUse">
<stop/>
<stop offset="0.5212" stop-color="#FF8D27"/>
<stop offset="0.5574" stop-color="#F88926"/>
<stop offset="0.6112" stop-color="#E47E23"/>
<stop offset="0.676" stop-color="#C26C1E"/>
<stop offset="0.7494" stop-color="#945217"/>
<stop offset="0.8299" stop-color="#59310E"/>
<stop offset="0.9152" stop-color="#130A03"/>
<stop offset="0.9365"/>
</linearGradient>
<linearGradient id="paint4_linear" x1="209.612" y1="268.873" x2="229.696" y2="268.873" gradientUnits="userSpaceOnUse">
<stop/>
<stop offset="0.00924254" stop-color="#060301"/>
<stop offset="0.1569" stop-color="#5D330E"/>
<stop offset="0.2869" stop-color="#A25A19"/>
<stop offset="0.3946" stop-color="#D57621"/>
<stop offset="0.4758" stop-color="#F38725"/>
<stop offset="0.5212" stop-color="#FF8D27"/>
<stop offset="0.5763" stop-color="#FB8B26"/>
<stop offset="0.6323" stop-color="#EF8425"/>
<stop offset="0.6888" stop-color="#DA7921"/>
<stop offset="0.7455" stop-color="#BE691D"/>
<stop offset="0.8025" stop-color="#995517"/>
<stop offset="0.8597" stop-color="#6C3C10"/>
<stop offset="0.916" stop-color="#381F09"/>
<stop offset="0.9683"/>
</linearGradient>
<linearGradient id="paint5_linear" x1="196.874" y1="276.09" x2="216.036" y2="282.102" gradientUnits="userSpaceOnUse">
<stop/>
<stop offset="0.00924254" stop-color="#060301"/>
<stop offset="0.1569" stop-color="#5D330E"/>
<stop offset="0.2869" stop-color="#A25A19"/>
<stop offset="0.3946" stop-color="#D57621"/>
<stop offset="0.4758" stop-color="#F38725"/>
<stop offset="0.5212" stop-color="#FF8D27"/>
<stop offset="0.5763" stop-color="#FB8B26"/>
<stop offset="0.6323" stop-color="#EF8425"/>
<stop offset="0.6888" stop-color="#DA7921"/>
<stop offset="0.7455" stop-color="#BE691D"/>
<stop offset="0.8025" stop-color="#995517"/>
<stop offset="0.8597" stop-color="#6C3C10"/>
<stop offset="0.916" stop-color="#381F09"/>
<stop offset="0.9683"/>
</linearGradient>
<linearGradient id="paint6_linear" x1="117.732" y1="257.223" x2="140.604" y2="257.596" gradientUnits="userSpaceOnUse">
<stop stop-color="#FFBD2B"/>
<stop offset="0.1504" stop-color="#FFC131"/>
<stop offset="0.3565" stop-color="#FFCB43"/>
<stop offset="0.5947" stop-color="#FFDB60"/>
<stop offset="0.8552" stop-color="#FFF288"/>
<stop offset="0.9101" stop-color="#FFF791"/>
</linearGradient>
<linearGradient id="paint7_linear" x1="195.432" y1="269.348" x2="141.712" y2="268.499" gradientUnits="userSpaceOnUse">
<stop stop-color="#FF7400"/>
<stop offset="0.0137082" stop-color="#FF7E09"/>
<stop offset="0.0459612" stop-color="#FF8F19"/>
<stop offset="0.086126" stop-color="#FF9A24"/>
<stop offset="0.1425" stop-color="#FFA12A"/>
<stop offset="0.2989" stop-color="#FFA32C"/>
<stop offset="0.4785" stop-color="#FFAD2C"/>
<stop offset="0.6693" stop-color="#FFBD2B"/>
<stop offset="0.7445" stop-color="#FFC73D"/>
<stop offset="0.8951" stop-color="#FFE26C"/>
<stop offset="1" stop-color="#FFF791"/>
</linearGradient>
<linearGradient id="paint8_linear" x1="210.493" y1="256.992" x2="188.601" y2="257.237" gradientUnits="userSpaceOnUse">
<stop stop-color="#FFBD2B"/>
<stop offset="0.1741" stop-color="#FFB72B"/>
<stop offset="0.412" stop-color="#FFA52C"/>
<stop offset="0.5291" stop-color="#FF9A2C"/>
<stop offset="0.9974" stop-color="#FF7A07"/>
</linearGradient>
<linearGradient id="paint9_linear" x1="165.734" y1="108.39" x2="166.774" y2="241.93" gradientUnits="userSpaceOnUse">
<stop stop-color="#FF7400"/>
<stop offset="0.3016" stop-color="#FF9A2C"/>
<stop offset="0.7857" stop-color="#FFBB2B"/>
<stop offset="0.8839" stop-color="#FFBC2D"/>
<stop offset="0.9193" stop-color="#FFC134"/>
<stop offset="0.9445" stop-color="#FFCA3F"/>
<stop offset="0.9649" stop-color="#FFD750"/>
<stop offset="0.9824" stop-color="#FFE766"/>
<stop offset="0.9976" stop-color="#FFFB81"/>
<stop offset="1" stop-color="#FFFF86"/>
</linearGradient>
</defs>
</svg>
