<svg width="458" height="458" viewBox="0 0 458 458" fill="none" xmlns="http://www.w3.org/2000/svg">
<path d="M377.693 405.763C377.385 399.115 377.693 389.53 376.922 380.873V380.718C375.224 380.255 373.682 379.945 372.139 379.482C368.435 378.09 363.961 376.853 363.343 376.544C354.703 374.071 345.908 371.752 338.039 368.505C335.878 367.578 330.478 364.949 329.089 362.94C328.163 361.548 328.009 360.157 328.318 358.611C328.781 356.292 328.935 353.818 327.392 352.891C324.769 348.562 315.974 348.717 310.265 348.717C296.995 348.871 283.88 349.335 270.764 349.954C245.305 351.345 219.846 353.664 194.695 357.22C182.505 358.92 170.162 360.775 158.126 362.94C157.201 363.094 156.429 363.249 155.658 363.403C153.806 363.558 150.566 364.486 149.64 364.795C147.943 365.413 145.474 366.959 144.548 367.887C143.159 369.124 142.079 370.515 141.308 372.37C137.913 381.801 136.987 391.849 134.981 401.434C133.439 408.546 131.587 422.15 130.507 429.262C130.507 429.417 137.296 431.117 150.72 434.364C163.99 437.765 181.117 442.093 192.072 444.567C209.971 449.05 239.442 455.08 258.575 455.543C262.895 456.471 268.141 456.935 274.313 456.471C276.319 456.316 278.171 456.007 279.868 455.698C280.177 455.698 280.331 455.543 280.639 455.543C284.651 454.461 287.891 450.133 287.891 450.133C287.891 450.133 294.526 450.596 300.544 449.05C301.161 448.896 301.778 448.587 302.704 448.432C302.704 448.432 302.704 448.432 302.704 448.587C308.876 446.577 318.288 442.248 321.991 441.939C321.991 441.784 321.991 441.784 321.991 441.63H322.146C326.312 441.475 331.558 442.403 336.341 442.712C337.113 443.021 340.044 443.949 343.285 442.712C345.908 441.784 347.296 439.929 347.759 439.156C347.759 439.002 347.759 438.847 347.605 438.847C348.222 438.383 348.685 437.919 349.611 437.765C352.543 437.146 355.474 436.373 358.56 435.755C361.646 434.982 364.886 434.209 368.281 433.591C371.676 432.972 374.916 432.354 378.156 431.735C378.31 423.078 378.156 414.421 377.693 405.763Z" fill="#6D696D"/>
<path d="M194.541 285.796C191.918 294.299 189.295 303.575 187.135 313.623C185.438 321.662 184.049 329.238 182.969 336.504C182.043 337.277 175.717 341.76 168.465 339.596C166.15 338.977 164.453 337.741 163.219 336.813C148.56 321.199 180.192 283.941 180.192 283.941C184.821 284.714 189.758 285.332 194.541 285.796Z" fill="url(#paint0_linear)"/>
<path d="M322.454 431.89C321.991 423.697 318.134 400.971 316.591 393.705C314.585 393.859 312.888 394.323 310.573 395.56C306.87 397.57 304.093 399.734 300.235 400.662C302.396 409.628 301.933 419.059 302.241 428.18C302.55 434.673 302.704 441.166 303.013 447.659C309.185 445.649 318.597 441.321 322.3 441.011C322.454 437.765 322.609 434.673 322.454 431.89Z" fill="#878286"/>
<path d="M348.223 429.571C348.223 427.562 348.069 425.552 347.914 423.542C346.063 416.585 343.903 408.082 341.897 402.053C340.971 398.961 338.965 391.695 338.965 391.386C338.965 391.386 338.502 390.922 337.576 390.304C334.336 391.54 331.404 392.468 328.318 392.932C329.707 401.435 333.873 413.648 335.416 420.759C336.188 424.006 337.268 427.252 337.885 430.654C338.502 433.9 336.959 438.383 336.959 441.939C339.274 442.094 341.588 442.094 343.594 441.785C345.754 441.321 346.68 439.466 348.069 438.229C347.143 435.291 348.223 431.427 348.223 429.571Z" fill="#878286"/>
<path d="M341.742 402.053C343.902 408.546 346.371 418.286 348.222 425.552C349.302 421.842 350.228 415.039 349.457 408.701C348.377 400.043 346.371 390.613 344.21 385.202C340.662 385.666 337.884 385.975 336.187 385.975C336.187 388.139 335.415 389.376 337.73 390.149C337.576 390.149 337.576 390.304 337.421 390.304C338.193 390.922 338.81 391.386 338.81 391.386C338.81 391.695 340.816 399.116 341.742 402.053Z" fill="#5B575B"/>
<path d="M337.731 430.653C337.113 427.407 336.033 424.16 335.262 420.759C333.719 413.802 329.399 401.434 328.164 392.932C325.85 393.241 323.381 393.55 320.449 393.395C318.906 393.395 317.672 393.395 316.592 393.55C318.135 400.971 321.992 423.696 322.455 431.736C322.609 434.518 322.455 437.61 322.301 440.702H322.455C326.621 440.548 331.867 441.475 336.651 441.784C336.805 438.383 338.348 433.9 337.731 430.653Z" fill="#6D696D"/>
<path d="M300.236 400.661C298.693 400.971 296.841 401.28 294.681 401.125C289.898 400.816 279.405 399.425 279.405 399.579C280.177 401.898 279.714 403.753 276.782 404.372C275.856 404.526 274.468 404.681 273.233 404.681C277.245 415.348 279.097 426.479 279.714 437.455C279.868 441.011 280.023 444.567 280.177 448.123C280.177 450.132 279.56 452.606 280.177 454.77C280.485 454.77 280.64 454.616 280.948 454.616C284.96 453.534 288.2 449.205 288.2 449.205C288.2 449.205 294.835 449.669 300.853 448.123C301.47 447.968 302.242 447.659 303.167 447.504C302.859 441.011 302.704 434.518 302.396 428.025C301.933 419.058 302.396 409.473 300.236 400.661Z" fill="#6D696D"/>
<path d="M359.332 419.832C359.641 415.503 358.715 412.875 363.807 413.957C366.43 414.575 365.196 408.701 365.813 405.454C366.276 402.517 369.053 399.889 368.899 396.951C368.59 391.695 368.282 386.593 368.282 381.337C359.641 382.728 350.846 384.429 344.365 385.202C346.525 390.613 348.531 400.198 349.611 408.701C350.383 415.039 349.303 421.842 348.377 425.552C348.223 424.933 348.068 424.16 347.76 423.542C347.914 425.552 348.068 427.562 348.068 429.571C348.068 431.427 346.988 435.292 347.76 438.074C348.377 437.456 348.994 436.992 349.92 436.837C352.852 436.219 355.783 435.446 358.869 434.828C358.869 430.035 359.024 424.16 359.332 419.832Z" fill="#6D696D"/>
<path d="M378.002 404.836C377.694 398.188 378.002 388.603 377.231 379.946C374.299 380.409 371.367 380.873 368.281 381.337C368.281 386.593 368.59 391.695 368.899 396.951C369.053 399.889 366.275 402.671 365.813 405.454C365.195 408.701 366.43 414.421 363.807 413.957C358.715 412.875 359.641 415.503 359.332 419.832C359.023 424.16 358.869 430.035 359.023 434.828C365.35 433.282 371.83 431.89 378.465 430.808C378.619 422.151 378.465 413.493 378.002 404.836Z" fill="#5B575B"/>
<path d="M336.342 385.975C342.205 386.129 361.801 382.11 377.231 379.946V379.791C365.504 376.854 353.932 373.298 342.822 369.433C339.119 368.042 334.645 366.805 331.25 364.795C324.769 365.413 318.289 363.094 312.426 361.239C306.408 359.384 299.619 357.22 293.292 359.693C289.126 361.394 286.349 364.177 281.874 365.413C276.165 367.114 269.839 366.65 264.439 369.124C259.964 371.133 256.724 374.535 255.489 378.245C253.175 385.356 259.501 391.849 268.45 394.323C270.302 394.323 277.245 398.652 279.56 402.207C279.869 401.435 279.714 400.507 279.406 399.425C279.406 399.27 289.744 400.662 294.681 400.971C302.088 401.28 305.174 398.188 310.42 395.405C313.969 393.55 315.974 393.395 320.295 393.395C327.238 393.395 331.713 392.468 337.731 390.149C335.57 389.376 336.342 388.139 336.342 385.975Z" fill="#999698"/>
<path d="M268.604 394.478C259.655 392.004 253.175 385.511 255.643 378.4C256.878 374.689 260.118 371.288 264.593 369.278C269.993 366.805 276.319 367.269 282.028 365.568C286.503 364.177 289.281 361.549 293.447 359.848C299.773 357.22 306.562 359.384 312.58 361.394C318.443 363.249 324.923 365.568 331.404 364.95C330.478 364.331 329.552 363.713 328.781 363.095C324.923 359.539 329.861 355.828 327.701 352.118C325.078 347.635 316.283 347.789 310.574 347.789C297.304 347.944 284.189 348.408 271.073 349.026C245.614 350.418 220.155 352.736 195.004 356.292C182.814 357.993 170.471 359.848 158.435 362.012C153.035 362.94 148.406 364.331 145.32 366.959C143.16 372.834 161.676 377.936 167.23 379.946C176.18 383.038 185.592 385.82 195.004 388.294C212.44 392.932 245.305 400.971 263.05 404.836C267.524 404.372 273.696 405.145 277.091 404.372C278.634 404.063 279.56 403.29 279.868 402.362C277.245 398.806 270.456 394.323 268.604 394.478Z" fill="#A5A0A4"/>
<path d="M265.364 445.959C264.593 444.103 263.358 442.557 260.581 441.784C260.272 441.63 259.964 441.63 259.655 441.63C259.501 445.959 259.347 450.287 259.192 454.616C265.21 454.771 269.839 455.698 274.622 455.544C269.685 453.225 267.062 450.133 265.364 445.959Z" fill="#6D696D"/>
<path d="M258.884 454.616H259.038C259.193 450.287 259.347 445.959 259.501 441.63C257.032 441.166 254.101 441.784 251.941 442.557C250.552 443.021 249.626 443.794 248.546 444.567C245.923 446.577 244.226 446.886 240.368 446.577C227.561 445.649 214.909 444.103 202.411 441.63C196.239 440.393 190.221 439.156 184.358 437.61C178.34 436.064 172.168 434.364 169.391 430.035C168.774 429.262 168.465 425.397 167.076 428.644C164.762 434.055 160.287 434.209 155.041 433.591C153.344 433.436 151.647 433.282 149.949 433.127C163.373 436.528 181.118 441.011 192.381 443.64C210.28 448.123 239.751 454.152 258.884 454.616Z" fill="#6D696D"/>
<path d="M280.177 448.278C280.177 444.722 280.023 441.166 279.714 437.61C279.097 426.634 277.245 415.503 273.234 404.836C269.993 404.836 265.982 404.681 262.896 404.99C244.997 400.971 212.286 393.086 194.85 388.448C186.981 386.284 178.957 384.12 171.397 381.492C170.934 382.265 170.779 383.038 171.088 383.656C172.014 385.047 172.477 387.985 173.865 388.912C174.946 389.531 174.946 391.077 173.248 390.458C171.397 389.84 170.471 390.613 169.854 391.85C169.082 393.705 166.922 394.942 165.379 396.488C162.139 399.734 161.522 402.826 160.904 406.536C159.979 412.72 156.121 417.977 151.955 423.387C151.492 424.006 150.412 423.697 150.103 423.233C147.48 418.131 145.937 412.72 146.555 407.309C147.635 397.724 144.086 389.994 144.086 389.376C144.086 389.067 144.703 389.067 144.857 389.376C144.857 389.531 145.012 389.685 145.012 389.84C148.098 385.047 151.492 380.409 155.195 375.926C149.178 373.453 143.623 370.361 144.857 366.959C143.469 368.196 142.389 369.588 141.617 371.443C138.222 380.873 137.297 390.922 135.291 400.507C133.748 407.619 131.896 421.223 130.816 428.335C130.045 428.335 138.377 430.499 149.641 433.282C151.338 433.436 153.035 433.591 154.732 433.745C159.979 434.364 164.453 434.209 166.768 428.798C168.002 425.706 168.465 429.417 169.082 430.19C171.86 434.518 178.031 436.374 184.049 437.765C190.067 439.311 196.084 440.548 202.102 441.785C214.446 444.103 227.253 445.804 240.06 446.732C243.917 447.041 245.614 446.732 248.237 444.722C249.317 443.949 250.243 443.176 251.632 442.712C253.792 441.785 256.569 441.321 259.193 441.785C259.501 441.785 259.81 441.939 260.118 441.939C262.896 442.712 264.13 444.258 264.902 446.113C266.753 450.133 269.222 453.225 274.005 455.544C275.857 455.544 277.708 455.234 279.714 454.771C279.56 452.761 280.177 450.133 280.177 448.278Z" fill="#878286"/>
<path d="M144.395 389.376C144.395 389.994 147.943 397.724 146.863 407.309C146.246 412.565 147.789 418.131 150.412 423.233C150.721 423.696 151.801 424.006 152.264 423.387C156.43 417.976 160.287 412.72 161.213 406.536C161.522 404.063 161.985 401.898 163.219 399.734C163.682 398.806 164.453 397.57 165.688 396.487C169.391 393.395 173.094 395.096 175.1 392.313C176.026 390.922 175.871 389.376 175.871 388.757C175.871 387.057 175.1 385.82 174.328 384.583C173.866 383.656 172.94 382.419 171.551 381.337C170.162 380.873 168.774 380.409 167.231 379.945C164.916 379.172 160.133 377.781 155.658 375.926C151.801 380.409 144.395 389.067 144.395 389.376Z" fill="#6D696D"/>
<path d="M363.653 375.617C355.012 373.143 346.217 370.824 338.348 367.578C336.188 366.65 330.787 364.022 329.399 362.012C328.473 360.621 328.318 359.23 328.627 357.684C329.09 355.365 329.244 352.736 327.547 351.964C328.164 355.055 323.381 359.384 321.992 361.239C321.529 361.858 321.838 363.404 328.781 365.413C334.028 366.959 339.582 369.588 341.28 370.206C348.069 372.68 355.166 374.071 361.647 376.699C363.653 377.472 365.35 380.1 360.104 381.028C359.332 381.182 355.012 382.11 354.241 382.11C349.303 382.419 344.366 382.883 339.428 383.038C332.176 383.192 334.645 379.946 335.108 377.317C329.707 377.936 330.016 379.482 329.861 381.182C329.707 382.728 331.096 384.429 332.33 385.82C334.336 388.139 332.639 389.994 330.787 390.613C328.01 391.54 319.986 391.231 317.518 391.386C311.191 391.85 307.334 394.942 304.248 397.26C303.785 397.57 303.168 398.033 302.705 398.497C301.779 398.961 300.853 399.425 299.773 399.734C291.595 401.589 268.142 393.241 263.667 392.777C267.216 394.323 270.148 396.178 273.234 397.57C276.166 398.961 275.085 400.352 274.468 400.816C271.691 403.29 261.97 402.981 257.958 402.517C246.54 401.28 235.739 398.343 224.63 395.869C202.874 390.767 183.278 383.038 162.447 376.235C160.133 375.462 153.498 372.37 152.264 371.288C149.641 368.969 151.647 364.64 155.967 362.476C154.115 362.631 150.875 363.558 149.949 363.868C147.943 364.64 144.857 366.496 144.549 367.423C144.086 369.124 145.783 371.134 147.481 372.37C147.789 372.525 148.561 373.143 149.023 373.607C150.104 374.535 149.949 376.235 149.795 377.163C149.023 380.873 148.098 381.646 146.246 385.357C145.629 386.748 144.086 389.685 144.086 389.685C150.412 386.593 154.27 381.801 155.813 378.709C155.967 378.4 156.738 377.163 157.973 377.472C165.842 379.791 195.776 390.304 212.595 394.787C223.241 397.57 234.196 400.198 245.152 402.362C252.712 403.908 270.302 404.681 273.697 411.02C275.24 413.802 276.783 420.141 277.4 423.078C278.943 430.344 278.48 438.383 279.869 445.649C281.103 438.383 281.257 429.262 279.714 421.841C278.789 417.513 277.554 413.957 278.48 409.474C278.943 407.309 279.869 404.681 280.023 402.208C282.646 403.135 295.299 403.29 298.23 402.671C300.853 402.362 303.322 401.435 305.174 400.043C308.723 398.343 312.271 394.942 316.437 394.323C319.523 393.859 320.912 394.014 323.844 394.323C324.77 394.323 328.781 394.478 329.707 394.478C332.947 394.323 337.422 393.705 338.656 392.004C338.194 389.84 336.188 387.985 336.342 386.902C337.576 386.902 338.656 386.593 341.434 386.439C344.983 386.129 349.92 385.356 353.006 385.047C361.03 383.965 369.208 381.646 377.077 380.564C373.991 378.709 364.579 375.926 363.653 375.617Z" fill="#BCB7BB"/>
<path d="M272.617 429.571C272.462 426.634 272.925 420.605 268.914 419.523C265.056 418.44 266.753 415.349 262.742 412.875C259.964 411.174 256.261 413.03 255.49 412.102C253.484 409.628 251.015 407.773 248.855 408.082C247.775 414.266 248.546 418.131 253.175 423.542C253.947 424.47 257.033 425.707 257.804 426.48C258.884 427.716 257.187 430.344 260.581 431.581C264.747 432.973 266.599 433.282 266.753 436.374C266.908 440.084 267.833 445.186 273.234 445.186C274.16 445.186 271.382 441.63 272.308 437.92C273.388 434.209 272.771 433.591 272.617 429.571Z" fill="#6D696D"/>
<path d="M340.816 368.66C344.365 351.19 342.668 346.707 340.508 345.779C337.113 344.233 333.41 351.809 322.455 356.137C313.505 359.538 303.013 358.92 293.601 357.992C285.423 357.219 276.319 356.756 268.604 353.818C262.432 351.499 257.032 347.48 253.329 342.533C249.317 342.533 245.305 342.378 241.293 342.224C225.092 341.605 209.045 340.059 192.844 341.451C189.912 341.76 186.98 341.914 184.049 342.224C182.197 345.006 179.265 350.726 178.802 358.456C178.494 362.63 178.031 371.752 184.203 377.626C189.912 383.192 198.244 382.883 200.867 382.883C208.736 382.573 210.742 379.018 222.006 377.935C226.789 377.472 230.184 377.781 231.264 377.781C241.139 378.554 248.237 382.264 251.014 383.501C262.587 388.912 274.776 388.448 292.984 387.83C308.722 387.211 319.986 386.593 330.632 378.863C335.57 375.462 338.81 371.442 340.816 368.66Z" fill="#6D696D"/>
<path d="M321.375 319.189C319.677 317.643 319.677 314.706 320.603 312.85C322.609 308.985 329.552 307.749 334.181 310.531C337.884 312.696 338.965 316.715 339.273 317.797C341.125 324.445 337.73 331.711 333.564 335.731C325.232 344.079 311.808 342.069 306.562 341.142C306.562 341.142 301.316 340.369 279.868 330.938L276.319 371.752C282.337 374.225 297.304 379.636 315.511 375.617C320.449 374.535 345.754 368.969 355.629 346.398C357.018 343.151 365.35 323.208 354.086 307.285C352.851 305.584 344.365 293.99 329.861 293.526C318.289 293.217 305.019 300.019 301.47 312.077C299.31 318.88 299.773 329.238 306.87 335.422C312.58 340.523 319.986 340.214 321.683 340.059C323.38 339.905 330.324 339.441 335.261 333.721C339.427 328.774 341.742 320.426 338.193 315.169C335.879 311.923 330.941 309.295 328.009 310.995C326.621 311.768 326.003 313.469 325.695 314.86C326.929 317.025 326.466 319.189 325.232 320.116C323.998 320.735 322.3 320.116 321.375 319.189Z" fill="url(#paint1_linear)"/>
<path d="M194.079 287.342C190.376 294.453 184.05 308.676 183.741 327.692C183.432 347.171 189.45 362.012 192.999 369.278C194.542 369.742 197.319 370.36 200.405 369.587C207.812 367.887 210.897 360.466 211.206 359.539C211.206 359.539 227.407 365.259 244.38 360.157C246.232 363.094 250.244 368.814 257.341 371.597C259.502 372.37 262.433 373.607 265.982 372.834C265.982 372.834 269.994 371.906 273.697 367.578C278.789 361.548 280.332 345.316 277.246 324.6C275.549 314.705 272.617 300.946 266.599 285.332C242.066 285.95 217.995 286.569 194.079 287.342Z" fill="url(#paint2_linear)"/>
<path d="M324.77 313.933C328.164 313.16 331.713 314.242 333.565 316.561C335.416 318.88 335.416 321.972 335.416 322.59C335.416 323.672 335.262 324.754 334.799 325.682C334.49 326.61 334.027 327.383 333.41 328.465C332.639 329.701 331.096 331.557 328.781 333.566C329.861 332.484 331.404 330.629 332.33 327.846C332.793 326.3 334.49 321.199 331.559 317.488C329.398 314.551 325.85 314.087 324.77 313.933Z" fill="#3DA841"/>
<path d="M318.289 322.435C317.672 322.126 315.974 321.353 314.894 319.498C313.814 317.643 313.814 315.788 313.969 315.015C313.969 314.242 314.123 312.541 315.512 310.686C316.746 308.986 318.289 308.213 319.06 307.903C317.98 308.986 317.209 310.068 316.592 311.304C315.974 312.541 315.666 313.778 315.666 315.169C315.512 316.561 315.82 317.798 316.129 319.034C316.437 320.271 317.209 321.508 318.289 322.435Z" fill="#3DA841"/>
<path d="M301.161 380.873C290.052 380.873 280.485 378.09 273.851 375.308L271.228 374.225L275.394 325.218L280.331 327.382C290.669 331.866 297.15 334.339 301.007 335.731C294.99 328.619 294.527 318.261 296.841 310.686C301.161 296.308 316.746 289.042 329.09 289.352C344.519 289.815 353.777 301.255 356.246 304.811C368.127 321.662 360.721 341.915 358.252 347.789C351.309 363.558 336.187 374.689 315.357 379.327C310.419 380.564 305.636 380.873 301.161 380.873ZM279.405 369.278C287.737 372.37 299.927 374.998 313.814 371.906C332.021 367.887 345.445 358.302 351.309 344.852C352.852 341.451 359.949 323.363 350.074 309.449C348.685 307.439 341.125 297.7 328.935 297.236C319.369 296.927 307.488 302.338 304.247 313.005C302.396 318.88 303.013 327.537 308.568 332.33C312.888 336.194 318.443 336.194 320.603 336.04C326.466 335.576 329.707 333.103 331.404 331.093C333.873 327.692 335.724 323.054 334.49 318.725C334.336 318.261 334.181 317.797 334.027 317.488C334.027 317.488 334.027 317.488 334.027 317.334C332.484 315.169 329.552 313.932 328.935 314.242C328.935 314.242 328.781 314.396 328.781 314.551C329.861 317.952 328.935 321.508 326.312 323.208C323.38 325.063 319.986 323.981 317.98 322.126C314.74 319.189 314.74 314.242 316.283 311.15C317.517 308.676 319.986 306.821 323.072 305.893C327.084 304.657 331.713 305.275 335.261 307.13C337.113 308.212 339.428 310.222 341.125 313.778C345.137 320.735 342.359 330.165 337.576 335.885C336.959 336.813 336.187 337.586 335.416 338.359C325.695 347.944 310.728 345.779 305.173 344.852C304.71 344.697 299.773 343.924 282.491 336.504L279.405 369.278Z" fill="black"/>
<path d="M267.679 284.095C271.073 294.144 274.159 305.584 276.474 318.416C277.554 324.754 278.325 330.938 278.942 336.658C280.023 337.431 285.423 341.296 291.749 339.75C292.212 339.596 296.224 338.513 298.847 335.112C307.025 324.445 293.755 301.874 291.441 297.854C287.275 290.743 282.491 285.177 278.48 281.312C274.776 282.24 271.228 283.168 267.679 284.095Z" fill="url(#paint3_linear)"/>
<path d="M168.31 333.566C167.847 330.01 167.539 325.836 168.156 321.198C170.162 305.275 180.191 294.762 184.512 290.743C183.432 290.433 182.506 290.124 181.426 289.815C176.334 295.226 172.939 300.328 170.933 304.193C168.773 308.057 165.996 313.314 164.916 320.889C164.607 323.208 164.453 325.218 164.453 326.609C164.453 327.228 164.299 329.701 165.996 331.711C166.613 332.793 167.693 333.411 168.31 333.566Z" fill="#EDEA34"/>
<path d="M199.633 294.299C198.862 296.618 197.936 299.864 196.856 303.729C195.159 309.913 192.999 317.952 191.764 328.31C190.838 335.422 189.913 343.151 191.147 353.046C191.919 358.92 192.999 363.713 194.079 367.269C193.307 366.805 192.227 366.032 191.301 364.795C189.295 362.476 188.678 359.693 188.215 355.519C187.598 350.263 187.752 346.243 187.752 344.079C187.907 340.369 187.907 336.195 188.678 330.474C188.833 328.774 189.758 321.972 191.919 313.16C193.153 307.903 195.159 301.41 198.09 293.99C198.553 294.144 199.016 294.299 199.633 294.299Z" fill="#EDEA34"/>
<path d="M209.971 281.931C205.805 289.197 201.485 299.246 200.868 311.768C200.405 320.116 199.942 328.31 205.342 336.04C213.211 347.48 227.561 348.408 229.104 348.562C239.442 349.181 250.706 344.543 256.724 335.576C261.97 327.846 261.661 319.652 261.353 312.85C260.735 298.782 255.026 287.96 250.86 281.931C237.282 281.776 223.549 281.931 209.971 281.931Z" fill="#FFF7D2"/>
<path d="M204.107 319.807C204.57 321.044 208.119 330.011 215.063 334.339C218.612 336.504 222.932 337.74 222.932 337.74C224.321 338.05 225.709 338.359 227.252 338.668L229.412 338.977L230.492 339.132H231.11H231.573C237.282 338.977 243.145 337.277 247.62 333.876C252.249 330.629 255.489 325.064 257.495 318.88C257.495 320.426 257.649 322.126 257.34 323.827C257.032 325.373 256.878 327.228 256.26 328.774C255.18 332.02 253.329 335.112 250.706 337.586C248.237 340.059 245.151 342.069 241.756 343.306C238.516 344.543 235.121 345.161 231.418 345.316H231.11H230.647L230.03 345.161L228.795 345.007L226.172 344.697C225.246 344.543 224.475 344.234 223.703 344.079C222.469 343.77 221.697 343.461 221.235 343.306C215.68 341.605 212.902 340.678 211.822 340.059C209.508 338.513 208.582 336.504 207.193 333.876C204.57 328.774 204.107 323.672 204.107 319.807Z" fill="#F2E2A0"/>
<path d="M230.339 352.427C229.721 352.427 229.104 352.427 228.487 352.427C225.555 352.272 210.434 350.881 201.793 338.204C195.621 329.237 196.239 319.807 196.701 311.459C197.319 300.482 200.559 289.97 206.422 279.921C207.039 278.684 208.428 278.066 209.663 278.066L250.706 277.911C251.94 277.911 253.175 278.53 253.946 279.612C260.735 289.661 264.593 301.101 265.056 312.541C265.364 319.807 265.673 328.774 259.81 337.74C253.329 346.861 241.911 352.427 230.339 352.427ZM211.668 285.95C207.194 294.298 204.571 303.11 204.108 312.077C203.645 319.807 203.336 327.228 207.965 334.03C214.754 343.924 227.407 344.852 228.796 344.852C238.516 345.316 248.083 340.832 253.02 333.566C257.495 326.918 257.341 319.498 257.032 313.159C256.724 303.883 253.638 294.453 248.391 285.95H211.668Z" fill="black"/>
<path d="M291.132 336.194C292.212 334.648 293.601 332.329 294.372 329.237C295.298 325.218 295.144 320.734 291.286 312.541C288.663 306.975 284.343 298.936 276.628 290.279C277.862 289.506 279.097 288.733 280.177 287.96C284.806 294.144 288.046 299.709 290.361 303.883C292.058 306.975 295.761 313.932 297.304 322.899C297.767 325.527 298.075 328.464 296.532 331.247C294.989 334.03 292.521 335.576 291.132 336.194Z" fill="#3DA841"/>
<path d="M263.05 293.062C263.976 295.535 265.21 298.937 266.29 303.111C267.062 306.048 269.53 314.705 271.073 327.846C272.462 340.059 273.234 346.243 271.845 352.736C270.302 360.157 267.216 365.723 265.056 369.124C266.136 369.124 268.296 369.124 270.148 367.887C272.308 366.341 272.925 364.022 273.388 362.476C275.394 354.901 275.239 346.707 275.239 345.78C275.085 336.194 274.931 331.402 274.005 325.527C273.388 320.735 272.462 317.334 271.382 312.541C270.148 307.13 268.296 300.328 265.827 292.443C264.747 292.753 263.821 292.907 263.05 293.062Z" fill="#3DA841"/>
<path d="M197.319 377.626C195.776 377.626 194.696 377.317 193.924 377.162C188.986 375.926 184.975 372.834 182.352 368.041C178.957 361.857 177.877 352.891 178.34 343.306C175.254 344.079 171.705 344.388 167.848 343.306C165.379 342.533 162.91 341.296 160.904 339.595C160.75 339.441 160.596 339.286 160.441 339.132C143.468 321.044 173.711 284.249 177.26 280.075C178.34 278.839 179.729 278.22 181.272 278.529L195.776 280.23C197.164 280.385 198.399 281.158 199.016 282.24L264.901 280.539C265.519 280.075 266.136 279.612 266.907 279.457L277.708 276.674C279.251 276.21 280.948 276.674 282.029 277.911C287.429 283.167 292.058 289.042 295.761 295.38C303.63 308.676 311.191 326.918 302.859 337.895C299.31 342.533 294.218 344.079 293.138 344.233C289.898 345.161 286.658 344.852 284.034 344.079C284.034 356.292 281.874 365.568 277.863 370.515C273.388 375.771 268.296 377.162 267.679 377.317C262.741 378.399 258.575 376.853 256.415 375.926C250.243 373.452 246.077 369.278 243.145 365.568C231.11 368.35 219.846 366.495 214.291 365.104C208.12 375.771 201.485 377.626 197.319 377.626ZM197.01 368.505C197.782 368.66 202.41 368.66 208.12 357.529C209.2 355.519 211.514 354.437 213.829 355.21C213.983 355.21 228.95 360.311 244.071 355.828C246.077 355.21 248.237 356.137 249.317 357.838C251.169 361.084 254.563 365.258 259.964 367.268C261.97 368.041 263.821 368.66 265.827 368.196C265.827 368.196 268.45 367.423 270.919 364.485C273.696 361.239 275.702 351.654 274.777 336.967C274.159 331.092 273.388 325.063 272.462 319.188C270.456 309.294 267.833 299.555 264.284 289.97L198.553 291.67C196.701 297.236 194.541 304.811 192.535 313.159C192.535 313.314 192.381 313.623 192.381 313.778C190.684 321.198 189.295 328.773 188.215 336.349C188.215 336.349 188.215 336.349 188.215 336.503C186.981 347.634 187.135 357.683 190.375 363.558C191.764 366.031 193.615 367.577 196.084 368.196C196.701 368.35 196.701 368.196 197.01 368.505ZM283.88 334.03C285.577 334.957 288.355 335.885 291.132 335.267C291.132 335.267 294.064 334.494 295.761 332.175C299.619 327.073 296.687 314.86 288.046 300.018C285.115 295.071 281.72 290.433 277.708 286.259L274.159 287.187C277.245 297.081 279.714 307.284 281.566 317.488C282.029 319.498 282.337 321.662 282.646 323.672C283.263 327.382 283.572 330.783 283.88 334.03ZM167.076 332.793C168.156 333.566 169.236 334.184 170.471 334.494C174.02 335.576 177.414 334.184 179.42 333.102C180.5 324.29 182.506 315.478 184.358 307.748C185.746 301.41 187.444 295.226 189.295 289.042L182.815 288.269C174.637 298.472 158.435 323.053 167.076 332.793Z" fill="black"/>
<path d="M194.696 74.9251C178.648 93.786 156.738 82.0366 133.902 100.434C116.158 114.657 109.368 133.517 106.591 141.402C92.2412 182.679 110.603 219.473 116.003 229.059C130.507 255.185 151.183 268.017 159.053 272.655C188.986 290.588 217.686 290.588 230.956 290.279C246.694 289.97 277.4 289.506 306.253 267.708C313.968 261.833 334.336 244.827 344.365 214.836C355.475 181.597 352.852 135.218 321.838 104.453C300.853 83.7372 275.239 78.6354 263.513 77.0895C257.958 73.0699 251.169 67.0407 247.466 57.7648C239.288 37.358 252.558 17.5696 242.991 9.6851C238.053 5.66557 230.801 7.52074 230.338 7.67534C220.926 10.3035 218.149 21.5891 209.662 42.3051C201.639 61.7844 197.627 71.3694 194.696 74.9251Z" fill="url(#paint4_linear)"/>
<path d="M188.832 90.3849C190.684 90.0757 193.615 89.3027 196.547 87.6021C204.571 83.1188 207.965 75.0797 210.434 68.8959C217.223 50.9626 225.401 21.4345 230.493 18.6518C232.344 17.7242 233.733 18.188 233.733 18.188C235.276 18.6518 236.047 20.3523 236.356 20.9707C238.516 25.9178 235.276 36.7396 234.659 43.5419C234.196 49.7258 235.893 54.2091 239.442 62.8666C239.442 62.8666 247.62 82.5004 262.433 90.3849C271.382 95.0228 269.222 84.0464 269.222 84.0464L261.661 82.5004C261.661 82.5004 244.071 72.6062 240.059 52.0448C239.751 50.3442 239.288 47.716 239.133 44.4695C238.825 38.7494 239.596 33.8023 240.059 30.5557C240.522 26.8454 240.985 25.1448 240.985 21.5891C241.139 16.7966 240.522 14.9414 239.133 13.8592C238.053 12.9317 236.819 12.7771 235.893 12.6225C235.893 12.6225 232.807 12.1587 229.567 13.8592C224.012 16.642 219.846 29.0098 219.075 31.4833C219.075 31.4833 214.754 44.1603 203.028 71.524C202.565 72.4516 201.947 74.1522 200.713 76.0073C196.856 82.0366 191.455 85.5923 187.443 87.4475L188.832 90.3849Z" fill="#3DA841"/>
<path d="M115.695 214.063C116.312 213.753 118.318 217.773 122.175 223.338C126.033 229.213 129.736 233.851 132.513 237.098V237.252L135.136 240.035C136.062 240.963 136.988 241.89 137.914 242.818C139.765 244.673 141.771 246.528 143.777 248.229C147.789 251.63 151.955 254.722 156.43 257.659C160.904 260.442 165.533 263.07 170.316 265.234L173.865 266.935C175.1 267.553 176.334 268.017 177.568 268.481L181.272 270.027L184.975 271.418C194.85 274.974 205.188 277.602 215.68 278.839C218.303 279.148 220.926 279.612 223.549 279.612L227.561 279.766C228.95 279.921 230.184 279.921 231.573 279.921C234.196 279.921 236.819 279.921 239.442 279.766L247.311 279.148C254.718 278.684 265.673 277.293 278.017 272.191C282.8 270.181 293.447 265.234 306.408 253.949C331.25 231.996 339.582 207.724 340.971 208.343C342.514 209.115 337.267 240.808 312.425 262.761C292.058 280.694 267.679 283.786 247.774 286.259C234.505 287.96 213.52 290.588 189.912 282.549C175.871 277.757 174.02 273.737 151.801 263.07C149.332 261.833 143.777 259.205 138.377 253.639C137.296 252.403 136.679 251.784 132.205 245.6C122.33 231.996 120.941 229.677 119.244 225.967C116.312 220.401 114.923 214.372 115.695 214.063Z" fill="#EDEA34"/>
<path d="M191.147 269.254C189.913 269.254 188.524 269.1 187.29 268.945C175.872 267.244 165.688 259.051 157.047 244.364C155.813 242.2 156.43 239.262 158.59 238.025C160.75 236.634 163.682 237.407 164.916 239.571C172.168 251.785 180.038 258.432 188.524 259.669C195.313 260.597 200.096 257.659 206.268 253.794C213.057 249.62 220.618 244.828 232.345 244.673C232.499 244.673 232.653 244.673 232.808 244.673C243.454 244.673 250.861 248.693 257.187 252.094C263.513 255.495 267.988 257.969 274.468 256.577C281.566 255.031 288.201 249.156 293.756 239.262C294.99 237.098 297.922 236.325 300.082 237.562C302.242 238.798 303.014 241.736 301.779 243.9C294.836 256.113 286.349 263.379 276.474 265.544C266.599 267.863 259.501 263.998 252.712 260.133C247.003 257.041 240.986 253.64 232.345 253.794C223.241 253.949 217.378 257.505 211.052 261.524C205.343 265.389 199.325 269.254 191.147 269.254Z" fill="#3DA841"/>
<path d="M226.173 296.772C211.977 296.772 184.203 295.226 155.967 278.22C148.56 273.737 126.341 260.442 110.757 232.305C103.042 218.237 86.3781 181.133 100.882 139.547C103.505 131.817 110.757 111.41 130.199 95.7958C142.543 85.9016 154.424 83.8918 165.07 82.1912C175.254 80.4906 183.278 79.0993 190.067 71.2148C192.381 68.4321 197.01 57.3011 203.799 40.2954C205.034 37.0488 206.268 34.1115 207.348 31.3287C213.52 15.5598 217.686 5.04722 228.487 2.10987C229.567 1.80068 239.442 -0.672878 246.694 5.35641C254.101 11.5403 252.866 20.9707 251.786 30.2466C250.706 38.131 249.626 47.2523 253.175 55.9097C255.489 61.7844 259.81 67.0407 265.827 71.6786C282.8 74.1522 306.408 81.109 326.158 100.588C361.184 135.218 361.03 184.998 350.229 217.309C340.354 246.837 320.758 264.925 309.957 273.119C279.406 296.154 246.694 296.772 230.956 297.081C229.567 296.618 228.024 296.772 226.173 296.772ZM234.813 13.3955C233.579 13.3955 232.345 13.5501 231.882 13.7047C227.253 14.9414 224.321 21.7437 218.921 35.5029C217.841 38.2856 216.606 41.3776 215.372 44.6241C206.731 65.8039 203.182 74.616 199.479 78.7901C189.758 90.2303 178.186 92.0854 167.076 93.9406C157.201 95.6412 147.789 97.1871 137.914 105.072C121.25 118.522 114.923 136.609 112.609 143.257C99.8021 180.051 114.615 213.29 121.558 225.967C135.445 251.166 155.658 263.379 162.293 267.399C191.301 284.868 219.075 284.404 230.956 284.095C246.54 283.786 275.394 283.322 302.705 262.761C312.426 255.495 329.861 239.262 338.656 212.98C349.149 181.752 346.526 137.537 317.517 108.937C299.619 91.3125 277.863 85.2832 262.741 83.2734C261.816 83.1188 260.736 82.8096 259.964 82.1912C251.323 76.0073 245.151 68.5867 241.757 60.0838C237.128 48.3344 238.517 37.2034 239.597 28.2368C240.522 20.8161 240.985 16.1782 238.979 14.4776C237.745 13.7047 236.202 13.3955 234.813 13.3955Z" fill="black"/>
<path d="M191.147 265.853C189.913 265.853 188.524 265.698 187.29 265.543C175.872 263.843 165.688 255.649 157.047 240.962C155.813 238.798 156.43 235.861 158.59 234.624C160.75 233.233 163.682 234.006 164.916 236.17C172.168 248.383 180.038 255.031 188.524 256.268C195.313 257.195 200.096 254.258 206.268 250.393C213.057 246.219 220.618 241.426 232.345 241.272C232.499 241.272 232.653 241.272 232.808 241.272C243.454 241.272 250.861 245.291 257.187 248.692C263.513 252.093 267.988 254.567 274.468 253.176C281.566 251.63 288.201 245.755 293.756 235.861C294.99 233.696 297.922 232.923 300.082 234.16C302.242 235.397 303.014 238.334 301.779 240.499C294.836 252.712 286.349 259.978 276.474 262.142C266.599 264.307 259.501 260.596 252.712 256.731C247.003 253.639 240.986 250.238 232.345 250.393C223.241 250.548 217.378 254.103 211.052 258.123C205.343 262.142 199.325 265.853 191.147 265.853Z" fill="black"/>
<path d="M154.115 225.039C194.593 225.039 227.407 192.162 227.407 151.605C227.407 111.049 194.593 78.1716 154.115 78.1716C113.637 78.1716 80.8232 111.049 80.8232 151.605C80.8232 192.162 113.637 225.039 154.115 225.039Z" fill="black"/>
<path d="M154.115 212.826C187.861 212.826 215.217 185.416 215.217 151.605C215.217 117.794 187.861 90.3848 154.115 90.3848C120.369 90.3848 93.0127 117.794 93.0127 151.605C93.0127 185.416 120.369 212.826 154.115 212.826Z" fill="white"/>
<path d="M154.115 203.395C182.662 203.395 205.805 180.208 205.805 151.605C205.805 123.002 182.662 99.8152 154.115 99.8152C125.567 99.8152 102.425 123.002 102.425 151.605C102.425 180.208 125.567 203.395 154.115 203.395Z" fill="black"/>
<path d="M148.92 152.21C161.515 148.52 169.284 137.159 166.271 126.833C163.258 116.507 150.605 111.128 138.009 114.817C125.413 118.507 117.645 129.868 120.657 140.194C123.67 150.52 136.324 155.899 148.92 152.21Z" fill="white"/>
<path d="M174.415 168.902C179.649 167.368 182.885 162.671 181.641 158.409C180.398 154.148 175.146 151.936 169.912 153.47C164.677 155.003 161.442 159.701 162.685 163.962C163.928 168.223 169.18 170.435 174.415 168.902Z" fill="white"/>
<path d="M297.922 223.802C338.57 223.802 371.522 190.787 371.522 150.06C371.522 109.332 338.57 76.3167 297.922 76.3167C257.273 76.3167 224.321 109.332 224.321 150.06C224.321 190.787 257.273 223.802 297.922 223.802Z" fill="black"/>
<path d="M297.922 211.28C331.667 211.28 359.024 183.871 359.024 150.059C359.024 116.248 331.667 88.839 297.922 88.839C264.176 88.839 236.819 116.248 236.819 150.059C236.819 183.871 264.176 211.28 297.922 211.28Z" fill="white"/>
<path d="M297.921 201.849C326.469 201.849 349.611 178.662 349.611 150.059C349.611 121.456 326.469 98.2693 297.921 98.2693C269.374 98.2693 246.231 121.456 246.231 150.059C246.231 178.662 269.374 201.849 297.921 201.849Z" fill="black"/>
<path d="M292.723 150.818C305.319 147.128 313.088 135.767 310.075 125.441C307.062 115.115 294.408 109.736 281.813 113.425C269.217 117.115 261.448 128.477 264.461 138.802C267.474 149.128 280.127 154.507 292.723 150.818Z" fill="white"/>
<path d="M318.218 167.51C323.453 165.976 326.688 161.279 325.445 157.018C324.202 152.756 318.95 150.545 313.715 152.078C308.481 153.611 305.245 158.309 306.489 162.57C307.732 166.832 312.984 169.043 318.218 167.51Z" fill="white"/>
<path d="M235.893 60.7024C236.973 63.6397 238.208 63.7943 238.979 66.2679C239.596 68.4322 239.442 71.6788 238.362 72.1426C236.51 72.9156 231.573 67.5047 229.876 61.1662C228.178 55.2915 229.258 48.0254 231.573 47.407C232.653 47.0978 234.042 48.18 234.813 49.2622C235.893 50.8081 234.967 52.1995 235.122 55.9099C235.122 57.1466 235.276 58.8472 235.893 60.7024Z" fill="white"/>
<path d="M241.14 79.5631C242.674 79.5631 243.917 78.3172 243.917 76.7803C243.917 75.2434 242.674 73.9976 241.14 73.9976C239.606 73.9976 238.362 75.2434 238.362 76.7803C238.362 78.3172 239.606 79.5631 241.14 79.5631Z" fill="white"/>
<defs>
<linearGradient id="paint0_linear" x1="189.107" y1="315.52" x2="162.219" y2="305.663" gradientUnits="userSpaceOnUse">
<stop stop-color="#91C83F"/>
<stop offset="0.3476" stop-color="#A4CE38"/>
<stop offset="1" stop-color="#D0DD27"/>
</linearGradient>
<linearGradient id="paint1_linear" x1="293.024" y1="374.273" x2="341.646" y2="306.046" gradientUnits="userSpaceOnUse">
<stop stop-color="#91C83F"/>
<stop offset="1" stop-color="#D0DD27"/>
</linearGradient>
<linearGradient id="paint2_linear" x1="276.7" y1="344.565" x2="175.774" y2="307.567" gradientUnits="userSpaceOnUse">
<stop stop-color="#91C83F"/>
<stop offset="0.3476" stop-color="#A4CE38"/>
<stop offset="1" stop-color="#D0DD27"/>
</linearGradient>
<linearGradient id="paint3_linear" x1="302.781" y1="318.236" x2="256.759" y2="301.365" gradientUnits="userSpaceOnUse">
<stop stop-color="#91C83F"/>
<stop offset="0.3476" stop-color="#A4CE38"/>
<stop offset="1" stop-color="#D0DD27"/>
</linearGradient>
<linearGradient id="paint4_linear" x1="224.673" y1="31.5799" x2="226.595" y2="277.84" gradientUnits="userSpaceOnUse">
<stop stop-color="#4DB844"/>
<stop offset="0.0464532" stop-color="#59BB43"/>
<stop offset="0.1589" stop-color="#72C141"/>
<stop offset="0.2772" stop-color="#83C540"/>
<stop offset="0.4043" stop-color="#8EC73F"/>
<stop offset="0.5551" stop-color="#91C83F"/>
<stop offset="1" stop-color="#D0DD27"/>
</linearGradient>
</defs>
</svg>
