<svg width="340" height="340" viewBox="0 0 340 340" fill="none" xmlns="http://www.w3.org/2000/svg">
<path d="M207.773 246.873C220.493 257.417 231.824 261.124 240.265 262.283C257.379 264.716 276.573 259.27 278.539 264.368C279.464 266.917 276.342 269.003 277.73 272.594C279.349 276.765 284.668 276.07 289.987 282.211C291.143 283.485 292.184 284.875 292.993 286.961C295.074 292.175 293.224 298.663 290.565 303.065C288.368 306.773 286.749 306.657 284.783 310.596C282.586 314.999 283.28 317.896 282.702 319.749C279.811 327.628 244.428 330.061 216.33 317.316C177.131 299.59 163.603 257.417 159.902 244.44C175.975 245.251 191.932 246.062 207.773 246.873Z" fill="#FF3A2F"/>
<path d="M258.651 329.134C245.816 329.134 229.859 326.585 215.174 319.981C178.172 303.297 163.024 265.99 157.243 245.251L156.202 241.428L209.045 244.093L209.739 244.672C219.683 252.898 230.206 257.88 240.844 259.386C248.244 260.429 256.338 259.965 262.929 259.502C272.989 258.923 279.58 258.459 281.43 263.209C282.239 265.411 281.546 267.265 280.967 268.655C280.389 269.929 280.274 270.509 280.621 271.32C280.967 272.246 281.777 272.71 283.858 273.869C286.171 275.027 289.293 276.649 292.299 280.241C293.687 281.863 294.843 283.369 295.884 285.686C298.428 291.943 296.231 299.474 293.224 304.456C292.068 306.541 290.912 307.584 289.987 308.511C289.062 309.438 288.368 310.133 287.558 311.755C286.402 314.188 286.171 316.042 286.055 317.548C285.939 318.591 285.824 319.517 285.477 320.56C284.668 322.761 282.702 324.499 279.464 325.89C274.839 327.859 267.439 329.134 258.651 329.134ZM163.949 247.568C170.193 267.844 184.994 299.937 217.602 314.651C240.497 324.963 267.439 324.731 277.152 320.676C279.695 319.633 280.042 318.706 280.042 318.706C280.158 318.475 280.158 317.78 280.274 317.2C280.389 315.462 280.621 312.682 282.355 309.322C283.627 306.773 284.783 305.498 285.939 304.456C286.749 303.645 287.443 302.949 288.252 301.559C290.333 297.967 292.299 292.29 290.565 288.003C289.871 286.381 289.177 285.455 288.021 284.064C285.708 281.399 283.396 280.125 281.314 279.082C278.886 277.924 276.458 276.649 275.302 273.521C274.145 270.509 275.07 268.076 275.648 266.569C275.764 266.222 275.995 265.758 276.111 265.411C274.492 264.6 268.132 264.947 263.507 265.295C256.685 265.758 248.244 266.222 240.265 265.063C228.818 263.441 217.602 258.227 207.08 249.654L163.949 247.568Z" fill="black"/>
<path d="M205.346 258.923C208.236 265.411 218.296 285.455 242.232 297.736C260.154 306.889 277.036 307.236 284.899 306.889L285.477 307.352C285.477 307.352 281.084 312.798 281.315 319.865C281.199 319.981 280.852 320.213 280.505 320.56C277.846 322.646 274.955 323.341 271.833 323.804C265.936 324.731 262.467 324.615 262.467 324.615C251.713 324.384 244.66 324.268 235.988 321.487C229.859 319.517 222.459 317.084 216.677 310.828C205.461 298.663 208.699 281.168 209.393 278.04C208.699 276.302 208.005 274.564 206.964 272.71C204.652 268.191 202.108 264.6 199.68 261.703C200.489 261.356 201.414 261.008 202.339 260.545C203.495 259.965 204.421 259.386 205.346 258.923Z" fill="#B52825"/>
<path d="M262.698 327.512C262.582 327.512 262.582 327.512 262.466 327.512C251.481 327.28 244.197 327.164 235.177 324.268C228.818 322.182 220.955 319.633 214.595 312.798C203.495 300.864 205.345 284.296 206.501 278.271C205.923 276.765 205.229 275.375 204.535 273.984C202.685 270.277 200.373 266.685 197.598 263.441L195.054 260.429L198.754 258.923C199.563 258.575 200.373 258.227 201.182 257.88C202.107 257.416 203.032 256.953 203.957 256.49L206.732 254.983L208.004 257.88C212.167 267.149 222.342 284.412 243.618 295.303C259.46 303.413 274.723 304.572 284.783 304.108H285.939L289.408 307.236L287.674 309.322C287.674 309.322 283.974 314.072 284.205 319.981V321.371L283.28 322.298C283.048 322.53 282.702 322.762 282.355 323.109C279.001 325.658 275.417 326.469 272.295 326.933C266.86 327.396 263.507 327.512 262.698 327.512ZM211.358 275.027C211.589 275.722 211.936 276.302 212.167 276.997L212.514 277.808L212.283 278.619C211.358 283.022 209.045 298.431 218.874 308.858C224.193 314.535 231.015 316.737 237.028 318.706C245.237 321.371 252.175 321.487 262.698 321.719C262.698 321.719 265.935 321.719 271.485 320.908C274.492 320.444 276.573 319.865 278.539 318.475C278.655 315.115 279.695 312.102 280.736 309.785C270.213 309.785 255.875 307.816 241.075 300.285C227.199 293.217 217.717 283.601 211.358 275.027Z" fill="black"/>
<path d="M224.424 285.802C223.152 284.643 223.152 282.442 223.846 281.052C225.349 278.155 230.553 277.228 234.022 279.314C236.797 280.936 237.606 283.948 237.837 284.759C239.225 289.741 236.681 295.187 233.559 298.199C227.315 304.456 217.255 302.949 213.324 302.254C213.324 302.254 209.392 301.675 193.32 294.607L190.66 325.195C195.17 327.048 206.386 331.103 220.03 328.091C223.73 327.28 242.694 323.109 250.094 306.193C251.135 303.76 257.379 288.814 248.938 276.881C248.013 275.606 241.653 266.917 230.784 266.569C222.112 266.338 212.167 271.435 209.508 280.473C207.889 285.57 208.236 293.333 213.555 297.967C217.833 301.791 223.384 301.559 224.656 301.443C225.927 301.327 231.131 300.98 234.831 296.693C237.953 292.985 239.687 286.729 237.028 282.79C235.294 280.357 231.593 278.387 229.396 279.662C228.356 280.241 227.893 281.515 227.662 282.558C228.587 284.18 228.24 285.802 227.315 286.497C226.39 286.845 225.118 286.381 224.424 285.802Z" fill="url(#paint0_linear)"/>
<path d="M223.267 288.467C222.805 288.351 221.07 287.772 220.03 286.034C219.22 284.643 219.22 283.253 219.336 282.674C219.336 282.095 219.452 280.704 220.492 279.43C221.533 278.039 222.921 277.46 223.499 277.344C222.921 277.692 221.995 278.503 221.302 279.893C221.186 280.125 220.608 281.168 220.608 282.79C220.608 283.369 220.492 284.528 220.955 285.686C221.533 287.192 222.805 288.119 223.267 288.467Z" fill="#3DA841"/>
<path d="M230.09 282.211C230.437 281.979 231.131 281.747 231.94 281.863C233.328 281.979 234.137 283.138 234.715 283.833C236.103 285.686 236.103 287.772 236.103 288.351C236.103 289.162 235.987 289.973 235.64 290.668C235.524 290.9 235.293 291.711 234.599 292.754C233.212 294.724 231.362 295.882 230.437 296.577C231.477 295.65 234.484 292.754 234.715 288.583C234.715 287.54 234.831 285.918 233.79 284.412C232.518 282.906 230.668 282.442 230.09 282.211Z" fill="#3DA841"/>
<path d="M209.97 332.03C201.645 332.03 194.476 329.945 189.504 327.859L187.538 327.048L190.66 290.321L194.36 291.943C202.108 295.303 206.964 297.156 209.855 298.199C205.345 292.87 204.998 285.107 206.733 279.43C209.97 268.655 221.649 263.209 230.9 263.441C242.463 263.789 249.4 272.362 251.25 275.027C260.154 287.656 254.604 302.834 252.754 307.236C247.55 319.054 236.219 327.396 220.608 330.872C216.908 331.683 213.324 332.03 209.97 332.03ZM193.667 323.225C199.911 325.542 209.045 327.512 219.452 325.195C227.431 323.457 241.538 318.475 247.55 304.919C249.169 301.212 253.794 288.583 246.625 278.387C245.585 276.881 239.919 269.582 230.784 269.234C223.73 269.002 214.711 273.058 212.283 281.052C210.895 285.455 211.358 291.943 215.521 295.534C218.758 298.431 222.921 298.431 224.54 298.315C228.934 297.968 231.362 296.114 232.634 294.608C234.484 292.059 235.872 288.583 234.947 285.339C234.831 284.991 234.715 284.644 234.6 284.412C234.6 284.412 234.6 284.412 234.6 284.296C233.443 282.674 231.362 281.747 230.784 281.979C230.784 281.979 230.668 282.095 230.668 282.21C231.478 284.759 230.784 287.424 228.818 288.699C226.621 290.089 224.077 289.278 222.574 287.888C220.146 285.686 220.146 281.979 221.302 279.662C222.227 277.808 224.077 276.418 226.39 275.722C229.396 274.795 232.865 275.259 235.525 276.649C236.912 277.46 238.647 278.966 239.919 281.631C242.925 286.845 240.844 293.912 237.259 298.199C236.797 298.894 236.219 299.474 235.64 300.053C228.356 307.236 217.139 305.614 212.977 304.919C212.63 304.803 208.93 304.224 195.979 298.663L193.667 323.225Z" fill="black"/>
<path d="M128.335 260.081C126.37 266.454 124.404 273.405 122.785 280.936C121.513 286.961 120.472 292.638 119.663 298.083C118.969 298.663 114.228 302.023 108.794 300.401C107.059 299.937 105.787 299.01 104.862 298.315C93.8775 286.613 117.582 258.691 117.582 258.691C121.051 259.27 124.751 259.734 128.335 260.081Z" fill="url(#paint1_linear)"/>
<path d="M111.337 305.383C110.065 305.383 108.793 305.267 107.406 304.803C105.556 304.224 103.706 303.297 102.203 302.023C102.087 301.907 101.971 301.791 101.856 301.675C89.1363 288.12 111.8 260.545 114.459 257.417C115.269 256.49 116.309 256.026 117.466 256.258L128.335 257.532C129.376 257.648 130.301 258.228 130.879 259.155C131.457 259.966 131.573 261.124 131.226 262.051C129.144 268.771 127.294 275.723 125.791 282.674C124.519 288.235 123.479 293.913 122.669 299.59C122.554 300.517 122.091 301.328 121.282 301.907C120.125 302.95 116.309 305.383 111.337 305.383ZM106.828 296.925C107.637 297.504 108.447 297.968 109.372 298.199C112.031 299.01 114.691 297.968 116.078 297.041C116.888 291.711 117.813 286.498 118.969 281.284C120.241 275.491 121.744 269.814 123.363 264.137L118.506 263.557C112.494 271.204 100.468 289.626 106.828 296.925Z" fill="black"/>
<path d="M183.028 259.386C185.572 266.917 187.885 275.491 189.619 285.107C190.429 289.857 191.007 294.492 191.469 298.778C192.279 299.358 196.326 302.254 201.067 301.096C201.414 300.98 204.42 300.169 206.386 297.62C212.514 289.626 202.57 272.71 200.835 269.698C197.713 264.368 194.129 260.197 191.122 257.301C188.347 257.996 185.688 258.691 183.028 259.386Z" fill="url(#paint2_linear)"/>
<path d="M198.639 304.919C194.245 304.919 190.891 302.718 189.388 301.675C188.579 301.096 188.116 300.169 188.001 299.242C187.538 294.724 186.96 290.205 186.151 285.802C184.647 277.229 182.45 268.771 179.675 260.545C179.328 259.618 179.444 258.575 179.907 257.764C180.369 256.953 181.179 256.258 182.104 256.026L190.198 253.941C191.354 253.593 192.626 253.941 193.435 254.868C197.482 258.807 200.951 263.21 203.726 267.96C209.624 277.924 215.29 291.595 209.045 299.821C206.386 303.297 202.57 304.456 201.761 304.572C200.72 304.803 199.679 304.919 198.639 304.919ZM194.707 296.809C195.979 297.504 198.061 298.315 200.142 297.736C200.142 297.736 202.339 297.157 203.611 295.419C206.502 291.595 204.305 282.442 197.829 271.32C195.632 267.612 193.088 264.137 190.082 261.008L187.423 261.703C189.735 269.118 191.585 276.765 192.973 284.412C193.667 288.583 194.245 292.754 194.707 296.809Z" fill="black"/>
<path d="M200.72 297.62C201.53 296.693 202.455 295.187 203.033 293.217C203.958 289.857 203.38 286.382 200.72 280.704C198.755 276.533 195.517 270.509 189.735 264.021C190.429 263.789 191.123 263.557 191.817 263.325C195.748 267.496 198.292 271.436 200.026 274.332C200.373 274.796 203.727 280.704 205.23 288.583C205.692 290.784 205.924 292.87 204.652 294.839C203.495 296.577 201.761 297.272 200.72 297.62Z" fill="#3DA841"/>
<path d="M128.335 261.819C125.56 267.149 120.819 277.808 120.588 292.059C120.356 306.657 124.866 317.78 127.525 323.225C128.682 323.573 130.763 324.036 133.076 323.457C138.626 322.182 140.939 316.621 141.17 315.926C141.17 315.926 153.311 320.213 166.03 316.389C167.418 318.591 170.424 322.877 175.743 324.963C177.362 325.542 179.559 326.469 182.219 325.89C182.219 325.89 185.225 325.195 188 321.951C191.816 317.432 192.972 305.267 190.66 289.741C189.388 282.326 187.191 272.015 182.681 260.313C164.296 260.776 146.258 261.24 128.335 261.819Z" fill="url(#paint3_linear)"/>
<path d="M108.331 296.577C107.984 293.912 107.753 290.784 108.215 287.193C109.834 275.143 117.581 267.265 120.935 264.252C120.125 264.021 119.316 263.789 118.506 263.557C114.459 267.612 111.915 271.551 110.297 274.332C108.678 277.229 106.481 281.284 105.556 286.961C105.324 288.699 105.209 290.205 105.209 291.248C105.209 291.711 105.093 293.565 106.365 295.187C107.175 295.882 107.868 296.346 108.331 296.577Z" fill="#EDEA34"/>
<path d="M130.301 265.99C129.723 267.728 129.029 270.161 128.22 273.057C126.948 277.692 125.329 283.717 124.404 291.479C123.71 296.809 123.016 302.602 123.941 310.017C124.52 314.42 125.329 318.011 126.138 320.676C125.56 320.328 124.751 319.749 124.057 318.822C122.554 317.084 122.091 314.999 121.745 311.871C121.282 307.931 121.398 304.919 121.398 303.297C121.513 300.516 121.513 297.388 122.091 293.101C122.207 291.827 122.901 286.729 124.52 280.125C125.445 276.186 126.948 271.32 129.145 265.758C129.607 265.874 129.954 265.874 130.301 265.99Z" fill="#EDEA34"/>
<path d="M179.56 266.685C180.253 268.423 181.063 270.74 181.988 273.637C182.566 275.607 184.3 281.515 185.572 292.175C186.613 301.443 187.191 306.078 186.15 310.828C184.994 316.042 182.913 319.981 181.294 322.53C182.103 322.182 183.375 321.603 184.647 320.56C185.572 319.749 188.116 317.085 188.579 305.614C188.694 303.529 188.81 297.968 187.654 290.437C187.422 289.162 186.96 285.455 185.688 280.704C184.647 276.533 183.144 271.551 180.831 266.222C180.369 266.454 180.022 266.569 179.56 266.685Z" fill="#3DA841"/>
<path d="M129.723 329.829C128.682 329.829 127.526 329.713 126.369 329.366C112.956 324.963 115.269 293.101 115.384 291.827C116.194 280.936 119.547 270.277 125.213 260.081C125.791 259.039 126.948 258.343 128.104 258.343L182.219 256.953C183.722 256.953 184.994 257.764 185.572 259.154C189.388 269.003 192.163 279.082 193.782 289.278C196.326 305.73 194.938 318.707 190.313 324.268C186.96 328.207 183.144 329.25 182.681 329.366C178.981 330.177 175.859 329.018 174.24 328.323C169.615 326.469 166.493 323.341 164.296 320.56C155.508 322.53 147.298 321.255 143.02 320.329C141.401 323.804 138.164 328.439 132.613 329.713C132.151 329.597 131.11 329.829 129.723 329.829ZM130.416 265.179C125.791 273.985 123.016 283.138 122.322 292.29C121.166 306.773 124.172 321.255 128.566 322.762C129.376 322.993 130.416 322.993 131.226 322.762C135.504 321.719 137.585 315.578 137.817 314.883C138.048 313.956 138.742 313.261 139.551 312.798C140.361 312.334 141.401 312.334 142.211 312.566C142.326 312.566 153.543 316.389 164.874 313.029C166.377 312.566 167.996 313.261 168.806 314.536C170.193 316.969 172.737 320.097 176.784 321.603C178.287 322.182 179.675 322.646 181.178 322.298C181.178 322.298 183.144 321.719 184.994 319.518C187.538 316.505 189.272 305.962 186.844 290.089C185.341 281.168 183.028 272.247 179.906 263.673L130.416 265.179Z" fill="black"/>
<path d="M139.783 257.764C136.661 263.21 133.423 270.741 132.961 280.125C132.614 286.382 132.267 292.522 136.314 298.315C142.211 306.889 152.965 307.584 154.121 307.7C161.868 308.163 170.309 304.688 174.819 297.968C178.75 292.175 178.519 286.034 178.288 280.936C177.825 270.393 173.547 262.283 170.425 257.764C160.249 257.764 149.958 257.764 139.783 257.764Z" fill="#FFF7D2"/>
<path d="M135.736 286.266C137.239 290.9 140.014 294.724 143.599 297.157C145.449 298.315 147.414 299.126 149.496 299.705C150.536 299.937 151.577 300.169 152.733 300.401L154.352 300.632L155.162 300.748H155.624H155.971C160.249 300.632 164.643 299.358 167.997 296.809C171.466 294.376 173.894 290.205 175.397 285.571C175.397 286.729 175.513 288.004 175.281 289.278C175.05 290.437 174.934 291.827 174.472 292.986C173.663 295.419 172.275 297.736 170.309 299.59C168.459 301.443 166.147 302.95 163.603 303.876C161.174 304.803 158.631 305.267 155.855 305.383H155.624H155.277L154.815 305.267L153.89 305.151L151.924 304.919C151.23 304.803 150.652 304.572 150.074 304.456C149.496 304.224 148.802 304.224 148.224 303.876C145.796 302.95 143.367 301.675 141.402 299.937C137.47 296.461 135.273 291.248 135.736 286.266Z" fill="#F2E2A0"/>
<path d="M155.277 310.596C154.815 310.596 154.352 310.596 153.889 310.596C151.693 310.48 140.361 309.438 133.885 299.937C129.26 293.217 129.723 286.15 130.07 279.893C130.532 271.667 132.96 263.789 137.354 256.258C137.817 255.331 138.858 254.868 139.783 254.868L170.54 254.752C171.465 254.752 172.39 255.215 172.969 256.026C178.056 263.557 180.947 272.131 181.294 280.704C181.525 286.15 181.756 292.87 177.362 299.59C172.506 306.309 164.065 310.596 155.277 310.596ZM141.401 260.661C138.048 266.917 136.082 273.521 135.735 280.241C135.389 286.034 135.157 291.595 138.626 296.693C143.714 304.108 153.196 304.803 154.236 304.803C161.521 305.151 168.69 301.791 172.39 296.345C175.744 291.363 175.628 285.802 175.397 281.052C175.165 274.1 172.853 267.033 168.921 260.661H141.401Z" fill="black"/>
<path d="M128.335 102.627C116.31 116.762 99.89 107.957 82.7767 121.744C69.4792 132.403 64.3915 146.538 62.3101 152.447C51.5565 183.382 65.3165 210.957 69.3636 218.14C80.2328 237.72 95.7273 247.337 101.624 250.812C124.057 264.252 145.564 264.252 155.508 264.021C167.303 263.789 190.313 263.441 211.936 247.105C217.717 242.702 232.981 229.958 240.497 207.481C248.822 182.571 246.856 147.813 223.615 124.757C207.889 109.231 188.694 105.408 179.906 104.249C175.744 101.237 170.656 96.7185 167.881 89.7669C161.752 74.4734 171.696 59.6433 164.527 53.7344C160.827 50.7221 155.393 52.1124 155.046 52.2283C147.992 54.1979 145.911 62.6557 139.551 78.1809C133.538 92.7793 130.532 99.9626 128.335 102.627Z" fill="url(#paint4_linear)"/>
<path d="M151.924 268.887C141.286 268.887 120.472 267.728 99.312 254.983C93.7618 251.623 77.111 241.66 65.4323 220.573C59.6508 210.03 47.1627 182.223 58.0319 151.057C59.9977 145.264 65.4323 129.97 80.0017 118.269C89.2522 110.853 98.1557 109.347 106.134 108.073C113.766 106.798 119.779 105.756 124.866 99.8468C126.601 97.7613 130.07 89.4193 135.157 76.6747C136.082 74.2417 137.008 72.0403 137.817 69.9548C142.442 58.1371 145.564 50.2586 153.658 48.0573C154.468 47.8256 161.868 45.9718 167.303 50.4903C172.853 55.1248 171.928 62.1922 171.119 69.1438C170.309 75.0527 169.5 81.8884 172.159 88.3766C173.894 92.7793 177.131 96.7185 181.641 100.194C194.36 102.048 212.052 107.262 226.852 121.86C253.1 147.813 252.985 185.12 244.891 209.335C237.49 231.464 222.805 245.019 214.711 251.16C191.816 268.423 167.303 268.887 155.508 269.118C154.468 268.887 153.311 268.887 151.924 268.887ZM158.284 56.6309C157.358 56.6309 156.433 56.7468 156.087 56.8627C152.618 57.7895 150.421 62.8874 146.374 73.1989C145.564 75.2844 144.639 77.6016 143.598 80.0347C137.123 95.9075 134.464 102.512 131.689 105.64C124.404 114.213 115.732 115.604 107.406 116.994C100.006 118.269 92.9523 119.427 85.552 125.336C73.0639 135.416 68.3231 148.971 66.5886 153.953C56.9913 181.528 68.0918 206.438 73.2952 215.939C83.7019 234.824 98.8495 243.977 103.822 246.989C125.56 260.081 146.374 259.734 155.277 259.502C166.956 259.27 188.579 258.923 209.045 243.513C216.33 238.068 229.396 225.903 235.987 206.206C243.85 182.803 241.884 149.667 220.146 128.232C206.733 115.024 190.429 110.506 179.097 109C178.403 108.884 177.594 108.652 177.016 108.189C170.54 103.554 165.915 97.993 163.371 91.6207C159.902 82.8153 160.943 74.4734 161.752 67.7535C162.446 62.1922 162.793 58.7164 161.29 57.442C160.596 56.7468 159.44 56.6309 158.284 56.6309Z" fill="black"/>
<path d="M123.941 114.213C125.329 113.982 127.526 113.402 129.723 112.128C135.735 108.768 138.279 102.743 140.129 98.1087C145.217 84.6689 151.345 62.5397 155.161 60.4542C156.549 59.759 157.59 60.1066 157.59 60.1066C158.746 60.4542 159.324 61.7286 159.555 62.1921C161.174 65.8996 158.746 74.0098 158.283 79.1077C157.936 83.7421 159.208 87.102 161.868 93.5902C161.868 93.5902 167.996 108.304 179.097 114.213C185.803 117.689 184.185 109.463 184.185 109.463L178.519 108.304C178.519 108.304 165.337 100.889 162.33 85.48C162.099 84.2055 161.752 82.2359 161.637 79.8028C161.405 75.516 161.983 71.8085 162.33 69.3754C162.677 66.5948 163.024 65.3203 163.024 62.6555C163.14 59.0639 162.677 57.6735 161.637 56.8625C160.827 56.1674 159.902 56.0515 159.208 55.9356C159.208 55.9356 156.896 55.5881 154.467 56.8625C150.305 58.948 147.183 68.2168 146.605 70.0706C146.605 70.0706 143.367 79.5711 134.579 100.078C134.232 100.773 133.77 102.048 132.845 103.438C129.954 107.957 125.907 110.622 122.9 112.012L123.941 114.213Z" fill="#3DA841"/>
<path d="M162.212 100.541C164.368 99.9486 164.98 95.3166 163.579 90.1947C162.178 85.0728 159.295 81.4005 157.139 81.9924C154.984 82.5844 154.372 87.2163 155.773 92.3383C157.174 97.4602 160.057 101.132 162.212 100.541Z" fill="white"/>
<path d="M163.025 106.103C164.174 106.103 165.106 105.169 165.106 104.018C165.106 102.866 164.174 101.932 163.025 101.932C161.875 101.932 160.943 102.866 160.943 104.018C160.943 105.169 161.875 106.103 163.025 106.103Z" fill="white"/>
<path d="M200.835 58.137C200.835 47.8255 191.7 39.3677 180.253 39.3677H120.703C109.372 39.3677 100.121 47.7096 100.121 58.137C100.121 68.5644 109.256 76.9064 120.703 76.9064H180.253C191.585 76.9064 200.835 68.5644 200.835 58.137Z" fill="#FF3A2F"/>
<path d="M180.253 78.7602H120.703C108.1 78.7602 97.8086 69.2597 97.8086 57.6737C97.8086 46.0877 108.1 36.5872 120.703 36.5872H180.253C192.857 36.5872 203.148 46.0877 203.148 57.6737C203.148 69.2597 192.857 78.7602 180.253 78.7602ZM120.703 41.3374C110.644 41.3374 102.434 48.7525 102.434 57.7896C102.434 66.8266 110.644 74.2417 120.703 74.2417H180.253C190.313 74.2417 198.523 66.8266 198.523 57.7896C198.523 48.7525 190.313 41.3374 180.253 41.3374H120.703Z" fill="black"/>
<path d="M178.287 17.7019C165.452 17.7019 154.583 25.8121 150.536 37.2823C146.489 25.928 135.62 17.7019 122.785 17.7019C106.481 17.7019 93.2988 30.91 93.2988 47.2462C93.2988 58.7164 99.7741 68.6804 109.371 73.5465L121.166 69.839C109.487 69.0279 100.237 59.1798 100.237 47.2462C100.237 34.7333 110.297 24.6535 122.785 24.6535C135.273 24.6535 145.333 34.7333 145.333 47.2462H155.739C155.739 34.7333 165.799 24.6535 178.287 24.6535C190.775 24.6535 200.835 34.7333 200.835 47.2462C200.835 59.1798 191.585 68.9121 179.906 69.839L191.7 73.5465C201.182 68.6804 207.773 58.7164 207.773 47.2462C207.773 31.0258 194.591 17.7019 178.287 17.7019Z" fill="black"/>
<path d="M150.536 21.1777C146.721 21.1777 143.599 24.306 143.599 28.1293V70.1866H157.474V28.1293C157.359 24.306 154.352 21.1777 150.536 21.1777Z" fill="#FFF243"/>
<path d="M159.093 71.9246H141.748V28.1294C141.748 23.3792 145.679 19.4399 150.42 19.4399C155.161 19.4399 159.093 23.3792 159.093 28.1294V71.9246ZM145.333 68.4488H155.739V28.1294C155.739 25.2329 153.427 22.9157 150.536 22.9157C147.645 22.9157 145.333 25.2329 145.333 28.1294V68.4488Z" fill="black"/>
<path d="M150.536 29.8672C151.494 29.8672 152.271 29.0891 152.271 28.1293C152.271 27.1694 151.494 26.3914 150.536 26.3914C149.578 26.3914 148.802 27.1694 148.802 28.1293C148.802 29.0891 149.578 29.8672 150.536 29.8672Z" fill="#4DB844"/>
<path d="M150.536 44.3498C151.494 44.3498 152.271 43.5717 152.271 42.6119C152.271 41.6521 151.494 40.874 150.536 40.874C149.578 40.874 148.802 41.6521 148.802 42.6119C148.802 43.5717 149.578 44.3498 150.536 44.3498Z" fill="#4DB844"/>
<path d="M150.536 58.8322C151.494 58.8322 152.271 58.0542 152.271 57.0943C152.271 56.1345 151.494 55.3564 150.536 55.3564C149.578 55.3564 148.802 56.1345 148.802 57.0943C148.802 58.0542 149.578 58.8322 150.536 58.8322Z" fill="#4DB844"/>
<path d="M177.362 71.1133L150.42 70.0706L123.479 71.1133L110.065 77.0222L150.42 90.9254L190.775 77.0222L177.362 71.1133Z" fill="#FF3A2F"/>
<path d="M190.892 77.0222C185.92 77.0222 181.179 75.2843 177.479 72.272C173.663 75.2843 168.922 77.0222 164.065 77.0222C159.093 77.0222 154.352 75.2843 150.652 72.272C146.837 75.2843 142.096 77.0222 137.239 77.0222C132.383 77.0222 127.526 75.2843 123.826 72.272C120.01 75.2843 115.269 77.0222 110.413 77.0222C104.284 77.0222 98.3873 74.3574 94.3403 69.723C93.0683 68.3327 93.184 66.1314 94.6872 64.8569C96.0747 63.5824 98.2717 63.6983 99.5436 65.2045C102.319 68.3327 106.25 70.0706 110.413 70.0706C114.576 70.0706 118.507 68.3327 121.282 65.2045C121.976 64.5093 122.901 64.0459 123.826 64.0459C124.867 64.0459 125.792 64.5093 126.37 65.2045C129.145 68.3327 133.076 70.0706 137.239 70.0706C141.402 70.0706 145.333 68.3327 148.108 65.2045C148.802 64.5093 149.727 64.0459 150.652 64.0459C151.693 64.0459 152.618 64.5093 153.196 65.2045C155.971 68.3327 159.903 70.0706 164.065 70.0706C168.228 70.0706 172.16 68.3327 174.935 65.2045C175.628 64.5093 176.554 64.0459 177.479 64.0459C178.519 64.0459 179.444 64.5093 180.022 65.2045C182.798 68.3327 186.729 70.0706 190.892 70.0706C195.054 70.0706 198.986 68.3327 201.761 65.2045C203.033 63.8142 205.23 63.5824 206.617 64.8569C208.005 66.1314 208.236 68.3327 206.964 69.723C202.802 74.4733 197.02 77.0222 190.892 77.0222Z" fill="#FFF243"/>
<path d="M190.891 78.4126C186.034 78.4126 181.409 76.9064 177.478 74.1258C173.546 76.9064 168.806 78.4126 164.065 78.4126C159.324 78.4126 154.583 76.9064 150.652 74.1258C146.72 76.9064 141.979 78.4126 137.238 78.4126C132.498 78.4126 127.757 76.9064 123.825 74.1258C119.894 76.9064 115.153 78.4126 110.412 78.4126C103.821 78.4126 97.4615 75.5161 93.0676 70.5341C91.2175 68.3328 91.3331 65.0887 93.5301 63.2349C94.5708 62.3081 95.8427 61.8446 97.2303 61.9605C98.6178 62.0763 99.8898 62.6556 100.815 63.6984C103.243 66.479 106.712 67.9852 110.412 67.9852C114.112 67.9852 117.581 66.3632 120.009 63.6984C121.05 62.5398 122.438 61.9605 123.941 61.9605C125.444 61.9605 126.832 62.6556 127.872 63.6984C130.301 66.479 133.769 67.9852 137.47 67.9852C141.17 67.9852 144.639 66.3632 147.067 63.6984C148.108 62.5398 149.495 61.9605 150.998 61.9605C152.502 61.9605 153.889 62.6556 154.93 63.6984C157.358 66.479 160.827 67.9852 164.527 67.9852C168.227 67.9852 171.696 66.3632 174.125 63.6984C175.05 62.5398 176.553 61.9605 178.056 61.9605C179.559 61.9605 180.947 62.6556 181.987 63.6984C184.416 66.479 187.885 67.9852 191.585 67.9852C195.285 67.9852 198.754 66.3632 201.182 63.6984C203.032 61.497 206.385 61.3812 208.467 63.2349C210.664 65.0887 210.779 68.4486 208.929 70.5341C203.842 75.5161 197.482 78.4126 190.891 78.4126ZM177.362 69.6072L178.403 70.5341C181.872 73.3148 186.266 74.9368 190.775 74.9368C196.441 74.9368 201.76 72.5037 205.46 68.2169C206.039 67.5218 206.039 66.3632 205.345 65.7839C204.998 65.4363 204.535 65.3204 204.073 65.3204C203.61 65.3204 203.148 65.5521 202.916 65.8997C199.794 69.3755 195.401 71.461 190.775 71.461C186.15 71.461 181.756 69.4914 178.634 65.8997C177.94 65.2046 176.668 65.2046 176.09 65.8997C172.968 69.3755 168.574 71.461 163.949 71.461C159.324 71.461 154.93 69.4914 151.808 65.8997C151.114 65.2046 149.842 65.2046 149.264 65.8997C146.142 69.3755 141.748 71.461 137.123 71.461C132.498 71.461 127.988 69.4914 124.982 65.8997C124.288 65.2046 123.016 65.2046 122.438 65.8997C119.316 69.3755 114.922 71.461 110.297 71.461C105.671 71.461 101.277 69.4914 98.1553 65.8997C97.8084 65.5521 97.4615 65.3204 96.999 65.3204C96.5365 65.3204 96.074 65.4363 95.7271 65.7839C95.0333 66.3632 94.9177 67.5218 95.6114 68.2169C99.3116 72.5037 104.746 74.9368 110.297 74.9368C114.806 74.9368 119.2 73.4306 122.669 70.5341L123.71 69.6072L124.75 70.5341C128.219 73.3148 132.613 74.9368 137.123 74.9368C141.632 74.9368 146.026 73.4306 149.495 70.5341L150.536 69.6072L151.577 70.5341C155.045 73.3148 159.439 74.9368 163.949 74.9368C168.459 74.9368 172.853 73.4306 176.321 70.5341L177.362 69.6072Z" fill="black"/>
<path d="M184.763 80.498H199.795V108.189H184.763V80.498Z" fill="black"/>
<path d="M99.4277 80.0347H115.153V107.725H99.4277V80.0347Z" fill="black"/>
<path d="M105.903 80.498H192.742V108.189H105.903V80.498Z" fill="#FFF243"/>
<path d="M167.534 97.8771C169.45 97.8771 171.003 96.321 171.003 94.4013C171.003 92.4817 169.45 90.9255 167.534 90.9255C165.619 90.9255 164.065 92.4817 164.065 94.4013C164.065 96.321 165.619 97.8771 167.534 97.8771Z" fill="white"/>
<path d="M129.954 97.8771C131.87 97.8771 133.423 96.321 133.423 94.4013C133.423 92.4817 131.87 90.9255 129.954 90.9255C128.038 90.9255 126.485 92.4817 126.485 94.4013C126.485 96.321 128.038 97.8771 129.954 97.8771Z" fill="white"/>
<path d="M154.005 90.9255H147.068C145.102 90.9255 143.599 92.4317 143.599 94.4013C143.599 96.371 145.102 97.8771 147.068 97.8771H154.005C155.971 97.8771 157.474 96.371 157.474 94.4013C157.359 92.4317 155.855 90.9255 154.005 90.9255Z" fill="#FF3A2F"/>
<path d="M116.31 90.9255H109.372C107.407 90.9255 105.903 92.4317 105.903 94.4013C105.903 96.371 107.407 97.8771 109.372 97.8771H116.31C118.276 97.8771 119.779 96.371 119.779 94.4013C119.779 92.4317 118.276 90.9255 116.31 90.9255Z" fill="#0ABF52"/>
<path d="M189.273 91.2732H182.335C180.369 91.2732 178.866 92.7794 178.866 94.749C178.866 96.7186 180.369 98.2248 182.335 98.2248H189.273C191.239 98.2248 192.742 96.7186 192.742 94.749C192.742 92.7794 191.239 91.2732 189.273 91.2732Z" fill="#0ABF52"/>
<path d="M199.795 80.4983C199.795 78.5286 198.176 77.0225 196.094 77.0225H103.243C101.162 77.0225 99.543 78.5286 99.543 80.4983C99.543 82.4679 101.162 83.9741 103.243 83.9741H196.094C198.06 83.9741 199.795 82.4679 199.795 80.4983Z" fill="black"/>
<path d="M199.217 108.189C199.217 106.219 197.598 104.713 195.632 104.713H104.978C103.012 104.713 101.394 106.219 101.394 108.189C101.394 110.158 103.012 111.664 104.978 111.664H195.632C197.598 111.664 199.217 110.158 199.217 108.189Z" fill="black"/>
<path d="M97.9245 215.127C128.258 215.127 152.849 190.488 152.849 160.094C152.849 129.7 128.258 105.06 97.9245 105.06C67.5905 105.06 43 129.7 43 160.094C43 190.488 67.5905 215.127 97.9245 215.127Z" fill="black"/>
<path d="M97.9244 205.975C123.213 205.975 143.714 185.433 143.714 160.094C143.714 134.755 123.213 114.213 97.9244 114.213C72.6355 114.213 52.1348 134.755 52.1348 160.094C52.1348 185.433 72.6355 205.975 97.9244 205.975Z" fill="white"/>
<path d="M97.9247 198.907C119.318 198.907 136.661 181.53 136.661 160.094C136.661 138.658 119.318 121.281 97.9247 121.281C76.5313 121.281 59.1885 138.658 59.1885 160.094C59.1885 181.53 76.5313 198.907 97.9247 198.907Z" fill="black"/>
<path d="M93.9326 160.668C103.372 157.903 109.194 149.388 106.936 141.65C104.678 133.912 95.1955 129.88 85.7563 132.645C76.317 135.41 70.4954 143.925 72.7532 151.663C75.0111 159.401 84.4934 163.433 93.9326 160.668Z" fill="white"/>
<path d="M113.151 173.147C117.074 171.998 119.499 168.478 118.567 165.284C117.635 162.091 113.699 160.433 109.777 161.582C105.854 162.732 103.429 166.252 104.361 169.446C105.293 172.639 109.228 174.297 113.151 173.147Z" fill="white"/>
<path d="M205.692 214.316C236.154 214.316 260.848 189.573 260.848 159.051C260.848 128.529 236.154 103.786 205.692 103.786C175.23 103.786 150.536 128.529 150.536 159.051C150.536 189.573 175.23 214.316 205.692 214.316Z" fill="black"/>
<path d="M205.692 204.932C230.981 204.932 251.482 184.39 251.482 159.051C251.482 133.712 230.981 113.171 205.692 113.171C180.403 113.171 159.902 133.712 159.902 159.051C159.902 184.39 180.403 204.932 205.692 204.932Z" fill="white"/>
<path d="M205.692 197.865C227.086 197.865 244.428 180.487 244.428 159.051C244.428 137.616 227.086 120.238 205.692 120.238C184.299 120.238 166.956 137.616 166.956 159.051C166.956 180.487 184.299 197.865 205.692 197.865Z" fill="black"/>
<path d="M201.815 159.608C211.255 156.842 217.076 148.328 214.818 140.589C212.561 132.851 203.078 128.819 193.639 131.584C184.2 134.35 178.378 142.864 180.636 150.603C182.894 158.341 192.376 162.373 201.815 159.608Z" fill="white"/>
<path d="M220.923 172.12C224.845 170.971 227.27 167.45 226.338 164.256C225.406 161.063 221.471 159.405 217.548 160.555C213.625 161.704 211.201 165.224 212.132 168.418C213.064 171.611 217 173.269 220.923 172.12Z" fill="white"/>
<path d="M69.2484 207.018C69.364 206.902 70.9829 211.189 73.8736 216.171C76.6488 220.805 79.5395 224.165 81.6209 226.482V226.598L83.5866 228.683C84.2804 229.379 84.9741 230.074 85.6679 230.769C87.0555 232.159 88.5587 233.55 90.0619 234.824C93.0683 237.373 96.1903 239.69 99.5436 241.891C102.897 243.977 106.366 245.947 109.95 247.569L112.61 248.843C113.535 249.307 114.46 249.654 115.385 250.002L118.16 251.16L120.935 252.203C128.336 254.868 136.083 256.837 143.946 257.764C145.911 257.996 147.877 258.344 149.843 258.344L152.849 258.459C153.89 258.575 154.815 258.575 155.856 258.575C157.821 258.575 159.787 258.575 161.753 258.459L167.65 257.996C175.397 256.953 183.376 255.447 190.66 252.782C194.129 251.508 202.686 247.8 211.127 241.196C229.975 226.366 235.872 204.585 236.566 204.932C237.028 205.164 234.6 211.768 231.131 218.604C228.24 224.397 223.037 234.129 212.63 243.166C208.699 246.526 205.114 248.843 202.686 250.349C199.217 252.435 195.517 254.173 191.701 255.679C187.885 257.185 183.954 258.344 180.022 259.27C178.057 259.734 176.091 260.197 174.01 260.429L171.003 260.893C169.963 261.008 169.037 261.24 167.997 261.356C159.903 262.399 151.693 262.167 143.599 261.124C135.505 260.082 127.526 257.996 120.01 255.1C112.379 252.203 105.094 248.495 98.3873 243.977C95.034 241.776 91.7963 239.227 88.79 236.446C87.2868 235.056 85.8992 233.55 84.5116 232.043C83.8178 231.348 83.1241 230.537 82.4303 229.726L81.3896 228.568L80.3489 227.293V227.409C78.3832 224.976 75.6081 221.384 73.1798 216.518C70.636 211.652 69.1328 207.133 69.2484 207.018Z" fill="#EDEA34"/>
<path fill-rule="evenodd" clip-rule="evenodd" d="M96.9999 237.836C98.9657 237.489 101.047 239.342 101.51 242.123C101.972 244.788 100.7 247.337 98.7344 247.684C96.7687 248.032 94.6873 246.178 94.2248 243.397C93.7623 240.733 95.0342 238.184 96.9999 237.836ZM86.4776 244.788C87.6339 251.044 93.531 255.215 99.7751 254.172C106.019 253.014 110.182 247.105 109.141 240.733C108.794 238.995 108.216 237.489 107.175 236.098C104.632 232.507 100.238 230.537 95.728 231.348C91.2184 232.159 87.7495 235.519 86.5932 239.69C86.2463 241.312 86.2463 243.05 86.4776 244.788Z" fill="#FFA700"/>
<path fill-rule="evenodd" clip-rule="evenodd" d="M110.875 252.203L99.8902 254.172L88.9053 256.142C86.9396 256.489 85.5521 258.459 85.899 260.429C86.2458 262.398 88.2116 263.789 90.1773 263.441L97.462 262.167L104.747 260.892L112.031 259.618C113.997 259.27 115.385 257.301 115.038 255.331C114.807 253.245 112.841 251.855 110.875 252.203Z" fill="#FFA700"/>
<path d="M97.9242 256.026C91.5645 256.026 85.8986 251.508 84.8579 245.019C84.5111 243.05 84.6267 241.196 85.0892 239.226C86.4768 234.244 90.5238 230.421 95.6116 229.61C100.699 228.683 105.903 230.885 108.793 235.055C109.95 236.678 110.644 238.415 110.99 240.385C112.262 247.568 107.406 254.52 100.237 255.794C99.4274 256.026 98.618 256.026 97.9242 256.026ZM88.2112 244.44C89.1363 249.77 94.224 253.361 99.543 252.435C104.862 251.508 108.447 246.41 107.522 241.08C107.29 239.69 106.712 238.3 105.903 237.141C103.706 234.013 99.8899 232.391 96.1897 233.086C92.4896 233.781 89.3675 236.562 88.4425 240.269C87.98 241.66 87.98 243.05 88.2112 244.44ZM98.2711 249.422C96.9991 249.422 95.7272 248.959 94.6865 247.916C93.5302 246.873 92.8364 245.367 92.4896 243.629C92.1427 242.007 92.3739 240.269 93.0677 238.879C93.8771 237.373 95.1491 236.33 96.6523 236.098C98.1554 235.867 99.7743 236.33 100.931 237.489C102.087 238.531 102.781 240.037 103.128 241.775C103.821 245.483 101.971 248.843 98.9649 249.306C98.7336 249.422 98.5023 249.422 98.2711 249.422ZM97.4617 239.574C97.346 239.574 97.346 239.574 97.2304 239.574C96.6523 239.69 96.3054 240.269 96.1897 240.501C95.8428 241.196 95.7272 242.123 95.8428 243.05C95.9585 243.977 96.421 244.788 96.9991 245.367C97.2304 245.599 97.8086 245.946 98.3867 245.946C99.3118 245.83 100.121 244.324 99.7743 242.471C99.6586 241.544 99.1961 240.733 98.618 240.153C98.5023 239.922 98.0398 239.574 97.4617 239.574Z" fill="black"/>
<path d="M89.5993 265.179C88.443 265.179 87.4023 264.831 86.4773 264.136C85.321 263.325 84.5116 262.051 84.2803 260.66C84.049 259.27 84.3959 257.764 85.2053 256.605C86.0147 255.447 87.2867 254.636 88.6742 254.404L110.644 250.581C113.65 250.001 116.426 252.087 117.004 254.983C117.466 257.996 115.501 260.776 112.61 261.356L90.64 265.179C90.1774 265.179 89.8306 265.179 89.5993 265.179ZM111.107 253.941L89.1368 257.764C88.6742 257.88 88.2117 258.112 87.8648 258.575C87.5179 259.038 87.4023 259.502 87.5179 260.081C87.6336 260.545 87.8648 261.008 88.3274 261.356C88.7899 261.703 89.2524 261.819 89.8305 261.703L111.8 257.88C112.841 257.648 113.535 256.605 113.419 255.563C113.304 254.52 112.263 253.709 111.107 253.941Z" fill="black"/>
<path fill-rule="evenodd" clip-rule="evenodd" d="M107.869 325.079L97 262.862L105.557 261.356L116.426 323.573L107.869 325.079Z" fill="#EDEA34"/>
<path d="M107.868 326.817C107.521 326.817 107.175 326.701 106.828 326.469C106.481 326.237 106.25 325.774 106.134 325.31L95.2647 263.094C95.149 262.167 95.7272 261.24 96.6522 261.124L105.209 259.618C105.671 259.502 106.134 259.618 106.481 259.849C106.828 260.081 107.059 260.545 107.175 261.008L118.044 323.225C118.16 324.152 117.581 325.079 116.656 325.195L108.1 326.701C107.984 326.817 107.984 326.817 107.868 326.817ZM98.9648 264.252L109.256 322.993L114.344 322.066L104.053 263.325L98.9648 264.252Z" fill="black"/>
<path fill-rule="evenodd" clip-rule="evenodd" d="M118.622 324.963C118.044 321.603 114.806 319.286 111.453 319.865C108.1 320.445 105.787 323.689 106.481 327.049C107.059 330.408 110.297 332.726 113.65 332.146C117.003 331.567 119.2 328.323 118.622 324.963Z" fill="#FFA700"/>
<path d="M112.494 334C108.678 334 105.325 331.219 104.631 327.396C103.822 323.109 106.712 318.938 111.106 318.127C115.5 317.316 119.547 320.328 120.357 324.615C121.166 328.902 118.275 333.073 113.881 333.884C113.419 333.884 112.956 334 112.494 334ZM112.494 321.487C112.263 321.487 112.031 321.487 111.684 321.603C109.256 322.066 107.637 324.384 107.984 326.817C108.215 327.975 108.794 329.018 109.834 329.713C110.759 330.408 112.031 330.64 113.188 330.408C115.616 329.945 117.235 327.628 116.888 325.195C116.541 322.993 114.691 321.487 112.494 321.487Z" fill="black"/>
<path d="M118.854 290.089C119.432 296.23 114.113 302.486 107.638 302.486C104.285 302.486 101.856 300.632 101.509 300.401C98.503 297.968 98.0405 294.376 97.8092 292.406C97.5779 290.437 97.1154 287.308 99.0811 284.412C99.1968 284.18 101.509 280.82 105.556 280.009C110.875 279.082 118.16 283.022 118.854 290.089Z" fill="url(#paint5_linear)"/>
<path d="M107.753 304.803C107.637 304.803 107.637 304.803 107.753 304.803C103.59 304.803 100.468 302.37 100.121 302.138C96.421 299.126 95.8429 294.839 95.6116 292.754C95.2647 290.552 94.8022 286.845 97.2305 283.137C97.5774 282.674 100.237 278.619 105.209 277.808C108.794 277.229 112.841 278.271 115.963 280.704C118.969 283.022 120.935 286.266 121.282 289.973C121.628 293.681 120.241 297.388 117.581 300.401C114.922 303.065 111.337 304.803 107.753 304.803ZM107.175 282.211C106.712 282.211 106.365 282.211 105.903 282.326C102.781 282.906 101.046 285.57 101.046 285.686C99.6587 287.888 99.89 290.321 100.121 292.175C100.352 294.028 100.699 296.809 103.012 298.663C103.012 298.663 104.978 300.285 107.637 300.285C109.95 300.285 112.262 299.126 113.997 297.272C115.731 295.303 116.656 292.754 116.541 290.437C116.309 288.119 115.038 286.034 113.072 284.412C111.337 282.906 109.14 282.211 107.175 282.211Z" fill="black"/>
<path d="M137.47 248.727C136.892 248.727 136.198 248.727 135.505 248.611C129.607 247.684 124.404 243.166 120.01 234.94C119.085 233.202 119.779 231.116 121.398 230.189C123.132 229.262 125.213 229.958 126.138 231.58C129.492 237.72 133.076 241.196 136.545 241.775C139.089 242.123 140.708 240.964 143.83 238.763C146.952 236.446 150.883 233.549 156.896 233.318C162.446 233.202 166.378 235.519 169.5 237.373C172.506 239.226 174.241 240.153 176.553 239.458C179.56 238.647 182.335 235.635 184.763 230.537C185.572 228.799 187.654 228.104 189.388 228.915C191.123 229.726 191.817 231.811 191.007 233.549C187.654 240.501 183.376 244.788 178.403 246.178C173.084 247.684 169.269 245.367 165.915 243.281C163.256 241.659 160.596 240.037 157.012 240.153C153.196 240.269 150.536 242.123 147.877 244.208C145.102 246.41 141.864 248.727 137.47 248.727Z" fill="#3DA841"/>
<path d="M137.47 246.641C136.892 246.641 136.198 246.641 135.505 246.526C129.607 245.715 124.404 241.08 120.01 232.854C119.085 231.116 119.779 229.031 121.398 228.104C123.132 227.177 125.213 227.872 126.138 229.494C129.492 235.635 133.076 239.111 136.545 239.69C139.089 240.037 140.708 238.879 143.83 236.677C146.952 234.36 150.883 231.464 156.896 231.232C162.562 231.116 166.378 233.433 169.5 235.287C172.506 237.141 174.241 238.068 176.553 237.373C179.56 236.562 182.335 233.549 184.763 228.451C185.572 226.714 187.654 226.018 189.388 226.829C191.123 227.64 191.817 229.726 191.007 231.464C187.654 238.415 183.376 242.702 178.403 244.093C173.084 245.599 169.269 243.282 165.915 241.196C163.256 239.574 160.596 237.952 157.012 238.068C153.196 238.184 150.536 240.037 147.877 242.123C145.102 244.324 141.864 246.641 137.47 246.641Z" fill="black"/>
<path d="M150.537 21.1773C146.836 21.1773 143.83 18.165 143.83 14.4574C143.83 10.7499 146.836 7.73755 150.537 7.73755C154.237 7.73755 157.243 10.7499 157.243 14.4574C157.243 18.165 154.237 21.1773 150.537 21.1773Z" fill="#4DB844"/>
<path d="M150.537 22.9156C145.912 22.9156 142.096 19.0922 142.096 14.4578C142.096 9.82339 145.912 6 150.537 6C155.162 6 158.978 9.82339 158.978 14.4578C158.978 19.0922 155.162 22.9156 150.537 22.9156ZM150.537 9.47581C147.762 9.47581 145.565 11.6771 145.565 14.4578C145.565 17.2384 147.762 19.4398 150.537 19.4398C153.312 19.4398 155.509 17.2384 155.509 14.4578C155.509 11.6771 153.196 9.47581 150.537 9.47581Z" fill="black"/>
<path d="M98.0398 249.654C101.616 249.654 104.515 246.542 104.515 242.702C104.515 238.863 101.616 235.751 98.0398 235.751C94.4636 235.751 91.5645 238.863 91.5645 242.702C91.5645 246.542 94.4636 249.654 98.0398 249.654Z" fill="#FF3A2F"/>
<defs>
<linearGradient id="paint0_linear" x1="203.184" y1="327.007" x2="239.623" y2="275.877" gradientUnits="userSpaceOnUse">
<stop stop-color="#91C83F"/>
<stop offset="1" stop-color="#D0DD27"/>
</linearGradient>
<linearGradient id="paint1_linear" x1="124.221" y1="282.437" x2="104.071" y2="275.051" gradientUnits="userSpaceOnUse">
<stop stop-color="#91C83F"/>
<stop offset="0.3476" stop-color="#A4CE38"/>
<stop offset="1" stop-color="#D0DD27"/>
</linearGradient>
<linearGradient id="paint2_linear" x1="209.316" y1="285.037" x2="174.827" y2="272.395" gradientUnits="userSpaceOnUse">
<stop stop-color="#91C83F"/>
<stop offset="0.3476" stop-color="#A4CE38"/>
<stop offset="1" stop-color="#D0DD27"/>
</linearGradient>
<linearGradient id="paint3_linear" x1="190.228" y1="304.784" x2="114.594" y2="277.059" gradientUnits="userSpaceOnUse">
<stop stop-color="#91C83F"/>
<stop offset="0.3476" stop-color="#A4CE38"/>
<stop offset="1" stop-color="#D0DD27"/>
</linearGradient>
<linearGradient id="paint4_linear" x1="150.801" y1="70.1738" x2="152.241" y2="254.729" gradientUnits="userSpaceOnUse">
<stop stop-color="#4DB844"/>
<stop offset="0.0464532" stop-color="#59BB43"/>
<stop offset="0.1589" stop-color="#72C141"/>
<stop offset="0.2772" stop-color="#83C540"/>
<stop offset="0.4043" stop-color="#8EC73F"/>
<stop offset="0.5551" stop-color="#91C83F"/>
<stop offset="1" stop-color="#D0DD27"/>
</linearGradient>
<linearGradient id="paint5_linear" x1="97.8005" y1="292.1" x2="118.882" y2="290.072" gradientUnits="userSpaceOnUse">
<stop stop-color="#D0DD27"/>
<stop offset="1" stop-color="#91C83F"/>
</linearGradient>
</defs>
</svg>
