<svg width="340" height="340" viewBox="0 0 340 340" fill="none" xmlns="http://www.w3.org/2000/svg">
<path d="M233.312 265.298C232.044 264.152 232.044 261.976 232.736 260.602C234.234 257.738 239.42 256.822 242.877 258.883C245.643 260.487 246.45 263.465 246.681 264.267C248.064 269.192 245.528 274.576 242.417 277.554C236.193 283.739 226.167 282.25 222.248 281.563C222.248 281.563 218.33 280.99 202.311 274.003L199.66 304.242C204.155 306.074 215.334 310.083 228.933 307.105C232.621 306.304 251.521 302.18 258.897 285.457C259.934 283.052 266.157 268.276 257.744 256.478C256.822 255.218 250.484 246.627 239.651 246.284C231.007 246.055 221.096 251.095 218.445 260.029C216.832 265.069 217.178 272.743 222.479 277.325C226.743 281.104 232.275 280.875 233.543 280.761C234.81 280.646 239.996 280.303 243.684 276.065C246.796 272.399 248.525 266.214 245.874 262.32C244.145 259.914 240.457 257.967 238.268 259.227C237.23 259.8 236.769 261.06 236.539 262.091C237.461 263.694 237.115 265.298 236.193 265.985C235.271 266.443 234.004 265.985 233.312 265.298Z" fill="url(#paint0_linear)"/>
<path d="M237.922 261.289C238.268 261.289 241.725 260.945 243.454 263.121C244.606 264.611 244.606 266.558 244.491 268.505C244.376 269.879 244.145 270.91 244.03 271.254C243.915 271.598 243.454 272.743 242.762 273.659C241.149 275.836 238.729 276.523 237.807 276.752C238.613 276.408 240.457 275.377 241.84 273.087C242.071 272.628 243.108 270.91 243.108 268.39C243.108 267.13 243.223 265.412 242.071 263.809C240.688 261.976 238.613 261.518 237.922 261.289Z" fill="#3DA841"/>
<path d="M218.907 311C210.609 311 203.464 308.938 198.508 306.877L196.549 306.075L199.66 269.765L203.348 271.369C211.07 274.69 215.91 276.523 218.791 277.554C214.297 272.285 213.951 264.611 215.68 258.998C218.907 248.346 230.546 242.963 239.766 243.192C251.291 243.535 258.206 252.011 260.049 254.646C268.923 267.131 263.392 282.136 261.548 286.488C256.362 298.171 245.067 306.418 229.509 309.855C225.821 310.771 222.364 311 218.907 311ZM202.657 302.409C208.88 304.7 217.985 306.648 228.357 304.357C236.309 302.639 250.369 297.713 256.362 284.312C257.514 281.792 262.815 268.391 255.44 258.082C254.402 256.593 248.755 249.377 239.651 249.033C232.621 248.804 223.632 252.813 221.211 260.716C219.829 265.069 220.29 271.483 224.438 275.034C227.665 277.898 231.814 277.898 233.428 277.783C237.807 277.439 240.227 275.607 241.495 274.118C243.339 271.598 244.722 268.162 243.8 264.954C243.685 264.611 243.569 264.267 243.454 264.038C243.454 264.038 243.454 264.038 243.454 263.924C242.302 262.32 240.112 261.404 239.651 261.633C239.651 261.633 239.536 261.747 239.536 261.862C240.342 264.382 239.651 267.016 237.692 268.276C235.502 269.651 232.967 268.849 231.468 267.474C229.048 265.298 229.048 261.633 230.201 259.342C231.123 257.509 232.967 256.135 235.272 255.448C238.268 254.531 241.725 254.989 244.376 256.364C245.759 257.166 247.488 258.655 248.755 261.289C251.752 266.443 249.677 273.431 246.105 277.669C245.644 278.356 245.067 278.929 244.491 279.501C237.231 286.603 226.052 284.999 221.903 284.312C220.29 284.083 215.334 282.479 204.962 278.127L202.657 302.409Z" fill="black"/>
<path d="M137.197 259.342C126.248 256.822 109.538 251.553 91.7899 240.099C73.581 228.301 61.8259 214.785 55.1416 205.622L69.7779 195.428C74.6182 201.04 80.2653 206.996 86.9496 212.723C106.541 229.676 126.825 238.953 141.922 244.222C140.309 249.377 138.695 254.302 137.197 259.342Z" fill="url(#paint1_linear)"/>
<path d="M139.156 262.778L136.506 262.205C120.026 258.426 104.467 251.782 90.1769 242.504C75.6558 233.112 63.094 221.314 52.7219 207.34L50.9932 204.935L70.2393 191.648L71.968 193.595C77.154 199.666 82.8011 205.393 88.7939 210.662C104.467 224.178 122.561 234.601 142.844 241.588L145.495 242.504L139.156 262.778ZM59.1756 206.309C68.7411 218.68 80.2657 229.217 93.2885 237.694C106.196 246.055 120.256 252.126 135.123 255.906L138.235 246.055C118.412 238.839 100.434 228.416 84.9908 214.9C79.459 210.089 74.1576 204.82 69.2021 199.208L59.1756 206.309Z" fill="black"/>
<path d="M192.515 262.206C203.233 258.769 219.368 252.011 236.078 239.068C253.135 225.781 263.622 211.349 269.615 201.613L254.172 192.793C249.908 198.75 244.722 205.164 238.614 211.578C220.635 230.134 201.159 241.13 186.638 247.659C188.482 252.469 190.556 257.395 192.515 262.206Z" fill="url(#paint2_linear)"/>
<path d="M191.017 265.756L182.95 246.17L185.486 245.024C205.077 236.319 222.249 224.407 236.655 209.516C242.187 203.789 247.373 197.604 251.983 191.075L253.481 188.899L273.764 200.582L272.266 203.102C263.162 217.878 251.637 230.707 238.038 241.359C224.669 251.782 209.803 259.685 193.668 264.954L191.017 265.756ZM190.441 249.148L194.36 258.655C208.881 253.615 222.364 246.284 234.465 236.892C246.797 227.27 257.284 215.816 265.812 202.644L255.21 196.573C250.83 202.529 245.99 208.256 240.919 213.525C226.513 228.301 209.572 240.213 190.441 249.148Z" fill="black"/>
<path d="M133.97 240.213C129.591 246.628 124.289 256.822 123.483 269.88C122.791 282.594 126.249 300.462 136.045 305.158C137.082 305.617 139.617 306.876 142.498 306.075C148.491 304.471 150.22 295.88 150.335 295.193C150.335 295.193 162.436 299.431 175.113 295.651C176.496 297.828 179.492 302.066 184.794 304.127C186.407 304.7 188.597 305.616 191.247 305.044C194.013 305.044 196.088 302.295 197.01 301.149C207.612 287.061 205.538 269.078 205.538 269.078C203.809 254.187 195.512 244.222 191.708 240.213C172.232 240.213 153.101 240.213 133.97 240.213Z" fill="url(#paint3_linear)"/>
<path d="M189.634 245.024C191.478 247.429 193.668 250.866 195.627 255.218C198.854 262.663 199.315 268.849 199.43 270.338C199.891 278.241 198.047 284.197 197.701 285.457C195.166 293.475 190.556 298.744 187.79 301.493C188.712 302.18 190.21 302.982 191.939 302.753C193.898 302.524 195.512 300.92 198.277 295.766C201.504 289.581 203.118 286.488 203.809 283.052C204.616 278.585 204.04 274.461 202.772 266.214C202.081 261.403 201.62 258.998 200.698 256.364C198.508 250.522 195.051 246.399 192.515 243.993C191.363 244.451 190.556 244.68 189.634 245.024Z" fill="#3DA841"/>
<path d="M135.929 245.941C134.662 248.69 133.279 252.24 132.011 256.593C131.204 259.113 129.937 263.58 129.36 268.391C128.899 272.171 128.093 279.387 131.089 287.748C133.624 295.193 138.004 300.119 141.115 302.982C140.885 303.211 140.424 303.555 139.848 303.555C139.156 303.555 138.58 303.211 138.349 303.097C133.855 299.89 132.011 297.255 132.011 297.255C127.977 291.528 127.286 285.457 126.94 283.052C126.479 279.73 126.018 274.805 126.364 269.078C126.479 266.902 126.71 264.038 127.632 260.487C128.438 257.051 130.282 251.553 134.777 245.482C135.007 245.712 135.468 245.826 135.929 245.941Z" fill="#EDEA34"/>
<path d="M140.539 309.74C138.58 309.74 136.505 309.282 134.431 308.251C121.523 302.066 119.334 280.303 119.91 269.651C120.601 258.655 124.289 248.117 130.973 238.266C131.665 237.35 132.702 236.777 133.855 236.777H191.362C192.284 236.777 193.206 237.121 193.898 237.923C199.66 244.108 207.036 254.417 208.649 268.734C208.765 269.536 210.724 288.206 199.545 303.211C198.508 304.586 195.742 308.251 191.478 308.366C187.905 309.053 185.024 307.908 183.41 307.22C178.801 305.388 175.689 302.295 173.499 299.546C164.971 301.493 157.019 300.348 152.64 299.317C151.372 302.868 148.606 307.908 143.305 309.282C142.383 309.626 141.461 309.74 140.539 309.74ZM135.814 243.65C130.397 252.011 127.401 260.831 126.94 270.109C126.248 282.938 129.936 298.401 137.542 302.066C138.234 302.41 139.963 303.211 141.576 302.753C144.803 301.951 146.532 296.568 146.877 294.621C147.108 293.59 147.684 292.788 148.491 292.33C149.298 291.872 150.45 291.757 151.372 292.101C151.487 292.101 162.666 295.881 173.96 292.559C175.458 292.101 177.072 292.788 177.879 294.048C179.262 296.453 181.797 299.546 185.831 301.035C187.329 301.608 188.712 302.066 190.21 301.722C190.44 301.722 190.671 301.608 191.017 301.608C191.708 301.608 192.745 300.806 194.013 299.088C203.694 286.259 201.85 269.651 201.85 269.536C200.467 257.853 194.82 249.148 189.864 243.65H135.814Z" fill="black"/>
<path d="M148.952 237.694C146.878 239.412 137.889 247.659 137.312 260.716C137.197 263.924 136.736 273.545 143.881 280.761C151.142 288.092 160.938 287.748 164.165 287.634C167.046 287.519 177.764 287.175 184.563 278.699C189.404 272.514 189.519 265.642 189.519 262.091C189.519 249.491 182.258 240.557 179.608 237.579C169.351 237.579 159.094 237.694 148.952 237.694Z" fill="#FFF7D2"/>
<path d="M139.617 264.152C140.309 265.985 143.42 274.347 152.41 278.585C160.362 282.364 170.273 281.792 177.648 276.408C183.757 271.941 185.831 265.641 186.407 263.351C186.753 264.381 187.214 265.87 187.214 267.703C187.214 268.39 187.214 270.681 186.292 273.087C185.485 275.034 183.987 277.096 180.53 279.501C177.879 281.334 169.005 287.977 158.863 286.03C156.789 285.686 154.023 285.113 151.027 283.395C149.759 282.708 148.837 281.792 146.993 280.188C146.186 279.501 143.766 277.325 142.729 276.065C141.576 274.805 139.156 271.368 139.617 264.152Z" fill="#F2BDA0"/>
<path d="M162.09 290.268C157.365 290.268 148.606 289.466 141.692 282.479C133.624 274.347 134.201 263.809 134.316 260.258C134.892 246.971 143.305 238.266 146.878 235.173C147.454 234.715 148.03 234.486 148.722 234.486L179.377 234.372C180.184 234.372 180.99 234.715 181.567 235.288C185.6 239.755 192.285 249.033 192.169 261.632C192.169 265.412 192.169 273.087 186.638 280.074C183.18 284.426 176.496 289.695 164.049 290.153C163.704 290.268 163.012 290.268 162.09 290.268ZM149.989 240.328C146.647 243.42 140.539 250.407 140.078 260.602C139.963 263.465 139.502 272.17 145.84 278.47C152.179 284.884 161.053 284.541 163.934 284.541C172.117 284.197 178.225 281.563 182.143 276.637C186.407 271.254 186.407 265.069 186.407 261.747C186.407 251.896 181.567 244.337 178.109 240.213L149.989 240.328Z" fill="black"/>
<path d="M137.543 84.3226C125.557 98.2967 109.192 89.5915 92.1357 103.222C78.8824 113.76 73.8116 127.734 71.7372 133.575C61.0193 164.158 74.7336 191.419 78.7672 198.52C89.6003 217.878 105.043 227.385 110.921 230.821C133.279 244.108 154.714 244.108 164.626 243.879C176.381 243.65 199.315 243.306 220.866 227.156C226.628 222.803 241.841 210.204 249.332 187.983C257.629 163.356 255.67 128.994 232.506 106.2C216.832 90.8515 197.701 87.0716 188.943 85.9262C184.794 82.9481 179.723 78.481 176.957 71.6085C170.849 56.4891 180.76 41.8278 173.615 35.9862C169.927 33.0081 164.51 34.3826 164.165 34.4972C157.135 36.4444 155.06 44.8059 148.722 60.1544C142.729 74.5866 139.732 81.6882 137.543 84.3226Z" fill="url(#paint4_linear)"/>
<path d="M133.163 95.7765C134.546 95.5474 136.736 94.9747 138.926 93.7148C144.918 90.3931 147.454 84.4369 149.298 79.8553C154.368 66.5685 160.477 44.6911 164.28 42.6293C165.663 41.9421 166.7 42.2857 166.7 42.2857C167.852 42.6293 168.429 43.8893 168.659 44.3475C170.272 48.0128 167.852 56.0307 167.391 61.0705C167.046 65.6521 168.313 68.9738 170.964 75.3882C170.964 75.3882 177.072 89.9349 188.136 95.7765C189.173 96.3492 190.671 96.9219 192.054 96.3492C195.166 95.2038 195.511 89.4767 195.511 88.7895C193.437 88.1022 191.247 87.415 189.173 86.8423C185.485 85.6969 183.295 83.9788 182.028 82.7188C175.113 75.8463 174.882 62.1014 174.652 50.9909C174.652 50.7618 174.537 41.2548 170.849 38.964C169.696 38.2768 168.429 38.0477 168.429 38.0477C168.429 38.0477 166.239 37.7041 163.703 38.964C157.25 42.2857 153.792 51.3345 153.792 51.3345C150.45 60.1542 143.074 74.2427 132.126 93.7148L133.163 95.7765Z" fill="#3DA841"/>
<path d="M161.053 247.888C150.45 247.888 129.706 246.742 108.616 234.143C103.084 230.821 86.4884 220.97 74.8485 200.124C69.0862 189.701 56.6396 162.211 67.4727 131.399C69.4319 125.672 74.8485 110.553 89.3695 98.9839C98.5892 91.6533 107.463 90.1642 115.415 88.9043C123.021 87.6443 129.014 86.6134 134.085 80.7718C135.814 78.7101 139.271 70.4631 144.457 57.8636C145.379 55.4582 146.301 53.2819 147.108 51.2202C151.718 39.5369 154.829 31.7481 162.897 29.5718C164.28 29.2282 171.194 27.6246 176.496 31.9772C182.027 36.5589 181.105 43.5459 180.299 50.4184C179.492 56.26 178.685 63.0179 181.336 69.4322C183.065 73.7848 186.292 77.6792 190.786 81.1155C203.463 82.9481 221.096 88.1025 235.847 102.535C262.008 128.192 261.893 165.074 253.826 189.013C246.45 210.891 231.814 224.292 223.747 230.363C200.928 247.429 176.496 247.888 164.741 248.117C163.588 247.773 162.436 247.888 161.053 247.888ZM167.506 37.9334C166.584 37.9334 165.662 38.0479 165.317 38.1624C161.859 39.0788 159.67 44.1186 155.636 54.3128C154.829 56.3745 153.907 58.6653 152.87 61.0707C146.416 76.7629 143.766 83.2917 141 86.3844C133.739 94.8604 125.096 96.2349 116.798 97.6094C109.422 98.8694 102.392 100.015 95.0166 105.856C82.57 115.821 77.8449 129.223 76.1162 134.148C66.5508 161.409 77.6144 186.035 82.8005 195.428C93.1726 214.098 108.27 223.147 113.225 226.125C134.892 239.068 155.636 238.724 164.51 238.495C176.15 238.266 197.701 237.923 218.1 222.689C225.36 217.305 238.383 205.278 244.952 185.806C252.789 162.669 250.945 129.91 229.163 108.72C215.795 95.6622 199.545 91.1951 188.251 89.7061C187.559 89.5915 186.753 89.3624 186.176 88.9043C179.723 84.3226 175.113 78.8246 172.577 72.5249C169.12 63.8197 170.157 55.5727 170.964 48.9293C171.655 43.4314 172.001 39.9951 170.503 38.7352C169.696 38.1624 168.544 37.9334 167.506 37.9334Z" fill="black"/>
<path d="M107.233 195.542C137.466 195.542 161.975 171.183 161.975 141.135C161.975 111.087 137.466 86.728 107.233 86.728C77 86.728 52.4912 111.087 52.4912 141.135C52.4912 171.183 77 195.542 107.233 195.542Z" fill="black"/>
<path d="M107.233 186.494C132.438 186.494 152.871 166.186 152.871 141.135C152.871 116.084 132.438 95.7769 107.233 95.7769C82.0283 95.7769 61.5957 116.084 61.5957 141.135C61.5957 166.186 82.0283 186.494 107.233 186.494Z" fill="white"/>
<path d="M127.401 148.924C125.903 150.642 118.412 141.364 105.965 141.364C92.4813 141.364 84.4141 152.017 82.8006 150.299C80.611 148.122 89.6002 126.13 105.274 126.13C120.371 126.245 129.475 146.748 127.401 148.924Z" fill="black"/>
<path d="M216.486 194.626C246.847 194.626 271.459 170.164 271.459 139.99C271.459 109.815 246.847 85.3535 216.486 85.3535C186.126 85.3535 161.514 109.815 161.514 139.99C161.514 170.164 186.126 194.626 216.486 194.626Z" fill="black"/>
<path d="M214.642 185.348C239.847 185.348 260.28 165.04 260.28 139.99C260.28 114.939 239.847 94.6313 214.642 94.6313C189.437 94.6313 169.005 114.939 169.005 139.99C169.005 165.04 189.437 185.348 214.642 185.348Z" fill="white"/>
<path d="M77.1543 185.462C78.9982 189.357 80.9574 193.137 83.2623 196.687C85.5673 200.238 88.1027 203.674 90.9838 206.882V206.996L92.943 209.058C93.6345 209.745 94.326 210.432 95.0175 211.12C96.4004 212.494 97.8986 213.869 99.3968 215.129C102.393 217.649 105.505 219.939 108.847 222.116C112.189 224.177 115.647 226.125 119.219 227.728L121.87 228.988C122.792 229.446 123.714 229.79 124.636 230.134L127.402 231.279L130.168 232.31C137.543 234.944 145.265 236.891 153.102 237.808C155.061 238.037 157.02 238.381 158.979 238.381L161.975 238.495C163.013 238.61 163.935 238.61 164.972 238.61C166.931 238.61 168.89 238.61 170.849 238.495L176.727 238.037C184.449 237.006 192.4 235.517 199.661 232.883C203.695 231.393 211.877 227.843 220.06 221.428C238.614 206.882 243.916 186.722 244.722 187.181C245.414 187.524 241.611 199.895 232.852 211.463C232.276 212.151 227.896 218.107 221.673 223.376C219.944 224.865 216.602 227.499 211.762 230.477C208.304 232.539 204.617 234.257 200.813 235.746C197.01 237.235 193.092 238.381 189.174 239.297C187.214 239.755 185.255 240.213 183.181 240.442L180.184 240.9C179.147 241.015 178.225 241.244 177.188 241.359C169.121 242.389 160.938 242.16 152.871 241.129C144.804 240.099 136.852 238.037 129.361 235.173C121.755 232.31 114.494 228.644 107.81 224.177C104.468 222.001 101.241 219.481 98.2443 216.732C96.7461 215.358 95.3632 213.869 93.9802 212.38C93.2888 211.692 92.5973 210.891 91.9058 210.089L90.8686 208.943L89.8314 207.683V207.798C87.1807 204.362 84.7605 200.811 82.6861 197.031C80.4964 193.366 78.6525 189.471 77.1543 185.462Z" fill="#EDEA34"/>
<path d="M170.134 82.1504C172.282 81.5653 172.892 76.986 171.496 71.9224C170.099 66.8588 167.226 63.2283 165.078 63.8135C162.929 64.3987 162.319 68.9779 163.716 74.0415C165.112 79.1051 167.985 82.7356 170.134 82.1504Z" fill="white"/>
<path d="M172.232 87.7587C173.377 87.7587 174.306 86.8357 174.306 85.697C174.306 84.5583 173.377 83.6353 172.232 83.6353C171.086 83.6353 170.157 84.5583 170.157 85.697C170.157 86.8357 171.086 87.7587 172.232 87.7587Z" fill="white"/>
<path d="M231.469 267.703C230.431 267.36 229.509 266.558 228.933 265.527C228.357 264.496 228.126 263.351 228.242 262.205C228.357 261.06 228.703 259.915 229.394 258.998C230.086 258.082 231.008 257.28 232.045 256.937C231.238 257.738 230.662 258.54 230.201 259.456C229.74 260.373 229.509 261.289 229.509 262.32C229.394 263.351 229.625 264.267 229.855 265.183C230.201 266.1 230.777 267.016 231.469 267.703Z" fill="#3DA841"/>
<path d="M182.028 218.221C178.455 216.732 177.072 211.12 179.032 207.34C179.377 206.767 180.645 204.362 183.296 203.675C187.099 202.758 190.326 206.309 190.787 206.882C192.4 208.714 194.244 212.151 192.515 215.014C191.248 217.191 188.366 217.878 186.983 218.221C185.601 218.565 183.757 219.023 182.028 218.221Z" fill="#D30A05"/>
<path d="M205.078 210.318C203.925 208.829 201.735 208.486 200.237 209.631C194.59 213.754 182.72 220.741 166.47 221.2C150.451 221.658 138.465 215.473 132.473 211.578C133.395 209.745 133.971 207.569 134.086 205.049C134.201 203.102 132.703 201.613 130.744 201.499C128.9 201.499 127.286 202.873 127.171 204.82C126.941 211.807 120.717 213.182 119.911 213.296C118.067 213.64 116.799 215.358 117.145 217.305C117.491 219.023 118.873 220.169 120.602 220.169C120.833 220.169 120.948 220.169 121.178 220.169C123.022 219.825 125.788 218.909 128.093 217.076L128.208 217.191C134.547 221.429 147.57 228.301 164.972 228.301C165.548 228.301 166.124 228.301 166.701 228.301C184.91 227.843 198.163 220.054 204.386 215.358C205.884 213.984 206.23 211.807 205.078 210.318Z" fill="#3DA841"/>
<path d="M183.988 220.398C183.066 220.398 182.144 220.283 181.337 219.94C179.378 219.138 177.879 217.42 177.073 215.129C176.036 212.38 176.151 209.058 177.534 206.538C179.147 203.446 181.337 202.415 182.95 201.957C187.675 200.926 191.479 204.82 192.17 205.622C194.475 208.256 196.088 212.38 194.129 215.702C192.516 218.565 189.058 219.367 187.56 219.711C186.523 220.054 185.37 220.398 183.988 220.398ZM182.605 216.732C183.872 217.191 185.255 216.847 186.523 216.618C187.791 216.274 190.096 215.816 191.018 214.213C192.17 212.151 190.557 209.287 189.404 208.142C189.058 207.798 186.408 204.82 183.527 205.507C182.259 205.851 181.222 206.767 180.415 208.256C179.608 209.86 179.493 212.151 180.184 213.983C180.761 215.243 181.683 216.274 182.605 216.732Z" fill="black"/>
<path d="M205.078 208.257C203.925 206.767 201.735 206.424 200.237 207.569C194.59 211.693 182.72 218.68 166.47 219.138C150.451 219.596 138.465 213.411 132.473 209.516C133.395 207.684 133.971 205.508 134.086 202.988C134.201 201.04 132.703 199.551 130.744 199.437C128.9 199.322 127.286 200.811 127.171 202.759C126.941 209.746 120.717 211.12 119.911 211.235C118.067 211.578 116.799 213.296 117.145 215.244C117.491 216.962 118.873 218.107 120.602 218.107C120.833 218.107 120.948 218.107 121.178 218.107C123.022 217.763 125.788 216.847 128.093 215.014L128.208 215.129C134.547 219.367 147.57 226.24 164.972 226.24C165.548 226.24 166.124 226.24 166.701 226.24C184.91 225.781 198.163 217.993 204.386 213.296C205.884 211.922 206.23 209.746 205.078 208.257Z" fill="black"/>
<path d="M237.807 149.039C236.309 150.642 229.279 141.823 217.293 141.823C204.386 141.823 196.779 151.902 195.166 150.299C193.091 148.237 201.62 127.276 216.602 127.276C231.007 127.39 239.766 146.862 237.807 149.039Z" fill="black"/>
<path d="M39.5832 100.359C35.78 118.112 47.5352 131.514 48.8029 133.003C50.5316 143.312 52.3755 153.62 54.1042 163.929C59.5208 163.242 64.9373 162.554 70.4691 161.867C64.7068 134.377 58.9445 106.887 53.1822 79.3975C50.6468 81.2301 42.2338 88.1026 39.5832 100.359Z" fill="white"/>
<path d="M54.2199 166.678C52.8369 166.678 51.5692 165.647 51.3387 164.272L46.1526 134.148C42.9257 130.368 33.1298 117.081 36.8177 99.6711C39.3531 87.6443 47.0746 80.1991 51.454 76.8774C52.2607 76.3047 53.2979 76.0756 54.2199 76.4193C55.1418 76.7629 55.8333 77.5647 56.0638 78.481L73.3507 160.951C73.466 161.753 73.3507 162.554 72.8898 163.242C72.4288 163.929 71.7373 164.272 70.9306 164.387L54.5656 166.449C54.4504 166.678 54.3351 166.678 54.2199 166.678ZM51.454 84.6662C47.9966 88.1025 44.0782 93.4859 42.4648 100.931C39.0074 117.196 49.7253 129.681 50.993 131.055C51.3387 131.514 51.5692 131.972 51.6845 132.43L56.5248 160.607L67.0122 159.233L51.454 84.6662Z" fill="black"/>
<path d="M48.2266 164.043C57.9072 162.325 67.4727 160.722 77.1534 159.003C80.8412 176.872 84.4139 194.74 88.1017 212.723C87.0645 219.138 81.9937 224.063 75.6552 224.979C69.0861 225.896 62.6323 222.459 59.8664 216.503C55.9481 198.978 52.0297 181.454 48.2266 164.043Z" fill="#EDEA34"/>
<path d="M68.3955 163.356C70.5852 163.012 72.7749 162.669 74.8493 162.325C78.3067 179.163 81.6488 195.886 85.1062 212.723C84.991 213.411 84.7605 214.327 84.2995 215.243C83.608 216.847 82.5708 217.992 81.8793 218.68C77.3847 200.238 72.8901 181.797 68.3955 163.356Z" fill="#FFA700"/>
<path d="M54.7962 165.761C53.759 165.876 52.7218 166.105 51.6846 166.219C55.142 183.057 58.7146 199.78 62.172 216.618C63.5549 217.763 64.9379 218.794 66.3208 219.939C62.5177 201.956 58.5993 183.859 54.7962 165.761Z" fill="#FFF7D2"/>
<path d="M73.3511 227.957C66.5516 227.957 60.0978 223.948 57.1014 217.648C56.9861 217.419 56.9861 217.305 56.8709 217.076L45.231 164.616C45.1158 163.814 45.231 163.012 45.692 162.44C46.153 161.752 46.8445 161.294 47.5359 161.18L76.4627 156.14C77.9609 155.911 79.4591 156.827 79.8049 158.431L90.7533 212.151C90.8685 212.494 90.8685 212.838 90.7533 213.181C89.4856 220.856 83.4928 226.697 75.8865 227.843C75.0798 227.843 74.2731 227.957 73.3511 227.957ZM62.5179 215.472C64.8229 220.168 69.8937 222.917 75.0798 222.116C80.0354 221.428 84.069 217.648 85.1062 212.723L74.8493 162.325L51.6848 166.334L62.5179 215.472Z" fill="black"/>
<path d="M80.3806 195.427C81.3025 205.392 72.4286 215.816 61.8259 215.816C56.2941 215.816 52.2605 212.723 51.6843 212.265C46.7287 208.256 45.922 202.414 45.461 199.207C45 195.886 44.3085 190.846 47.5354 186.035C47.7659 185.691 51.4538 180.079 58.2533 178.933C67.1273 177.33 79.3433 183.973 80.3806 195.427Z" fill="url(#paint5_linear)"/>
<path d="M61.8263 219.367C54.9116 219.367 50.0712 215.473 49.495 215.129C43.5022 210.318 42.465 203.217 42.1192 199.895C41.6582 196.344 40.8515 190.274 44.6546 184.432C45.1156 183.745 49.495 177.216 57.6775 175.727C63.4398 174.696 70.1241 176.529 75.3101 180.308C80.2657 184.088 83.3774 189.357 83.9536 195.199C84.5298 201.155 82.3401 207.226 77.9608 212.036C73.5814 216.618 67.7039 219.367 61.8263 219.367ZM61.0196 182.141C60.3281 182.141 59.5214 182.256 58.8299 182.37C53.5286 183.287 50.417 187.983 50.417 187.983C47.9968 191.763 48.4578 195.886 48.9188 198.864C49.2645 201.728 49.956 206.538 53.8743 209.746C53.8743 209.746 57.3317 212.495 61.8263 212.495C65.7447 212.495 69.7783 210.662 72.6595 207.34C75.6559 204.018 77.2693 199.666 76.9236 195.772C76.5778 191.877 74.3882 188.212 71.046 185.692C68.0496 183.401 64.3617 182.141 61.0196 182.141Z" fill="black"/>
<path d="M260.28 169.77L269.385 128.536C269.385 128.536 269.385 128.536 269.385 128.421L265.697 127.734C262.7 127.161 260.856 124.412 261.433 121.434L269.385 83.4062L300.962 89.9351L293.356 127.046C292.78 129.795 290.129 131.628 287.248 131.17L280.679 130.025C277.452 146.289 274.225 162.669 270.883 178.934C266.158 178.819 261.433 178.705 256.592 178.59C256.592 178.59 256.477 178.59 256.592 178.476L260.28 169.77Z" fill="white"/>
<path d="M279.411 85.4683C277.106 95.6624 274.916 105.971 272.611 116.165L279.411 85.4683Z" fill="white"/>
<path d="M290.013 89.248C287.939 98.8695 285.98 108.606 283.905 118.227L290.013 89.248Z" fill="white"/>
<path d="M270.998 181.912C270.883 181.912 270.883 181.912 270.998 181.912L256.707 181.568C255.785 181.568 254.864 181.11 254.403 180.308C253.826 179.507 253.711 178.476 254.057 177.559L257.629 168.854L266.042 130.712L265.236 130.598C263.046 130.254 261.202 128.994 259.934 127.161C258.667 125.329 258.206 123.152 258.667 120.976L266.619 82.9483C266.734 82.1466 267.31 81.5739 267.886 81.1157C268.578 80.6575 269.385 80.543 270.076 80.6575L301.653 87.1864C302.46 87.3009 303.036 87.7591 303.497 88.4463C303.958 89.1336 304.074 89.9354 303.958 90.6226L296.352 127.734C295.43 132.087 291.281 134.836 286.902 134.148L282.984 133.461L273.764 179.736C273.533 180.996 272.381 181.912 270.998 181.912ZM260.856 176.07L268.578 176.185L277.913 129.567C278.258 128.078 279.757 127.047 281.255 127.276L287.939 128.421C289.207 128.65 290.475 127.849 290.705 126.589L297.735 92.2262L271.689 86.8428L264.314 122.121C264.198 122.809 264.314 123.381 264.659 123.954C265.005 124.527 265.581 124.87 266.273 124.985L269.961 125.672C270.767 125.787 271.459 126.245 271.92 126.932C272.381 127.619 272.496 128.421 272.266 129.223L263.276 170.458C263.276 170.572 263.161 170.802 263.161 170.916L260.856 176.07Z" fill="black"/>
<path d="M272.612 117.998C272.496 117.998 272.381 117.998 272.266 117.998C271.344 117.769 270.768 116.853 270.998 115.936L277.798 85.2392C278.028 84.3228 278.95 83.7501 279.872 83.9792C280.794 84.2083 281.37 85.1246 281.14 86.041L274.34 116.738C274.11 117.425 273.418 117.998 272.612 117.998Z" fill="black"/>
<path d="M283.905 119.945C283.79 119.945 283.675 119.945 283.56 119.945C282.638 119.716 282.061 118.8 282.177 117.884L288.285 88.9046C288.515 87.9883 289.437 87.4156 290.359 87.5301C291.281 87.7592 291.857 88.6756 291.742 89.5919L285.634 118.571C285.404 119.373 284.712 119.945 283.905 119.945Z" fill="black"/>
<path d="M283.099 164.043C273.418 162.669 263.737 161.294 254.057 160.034C251.06 178.017 248.064 196 244.952 214.098C246.22 220.397 251.521 225.208 257.86 225.895C264.429 226.697 270.767 222.917 273.303 216.847C276.645 199.207 279.872 181.682 283.099 164.043Z" fill="#EDEA34"/>
<path d="M262.931 164.043C260.742 163.814 258.552 163.471 256.362 163.242C253.481 180.194 250.715 197.031 247.834 213.984C247.949 214.671 248.295 215.587 248.756 216.503C249.563 218.107 250.6 219.138 251.291 219.825C255.21 201.269 259.013 182.599 262.931 164.043Z" fill="#FFA700"/>
<path d="M276.646 166.105C277.683 166.22 278.72 166.334 279.757 166.563C276.876 183.515 273.88 200.353 270.998 217.305C269.616 218.45 268.233 219.596 266.965 220.741C270.076 202.415 273.419 184.203 276.646 166.105Z" fill="#FFF7D2"/>
<path d="M259.588 229.217C258.897 229.217 258.205 229.217 257.629 229.103C249.908 228.187 243.799 222.574 242.186 215.014C242.071 214.671 242.071 214.327 242.186 213.983L251.29 159.92C251.521 158.431 253.019 157.286 254.517 157.515L283.559 161.524C284.366 161.638 285.058 162.096 285.519 162.669C285.98 163.356 286.21 164.043 285.98 164.845L276.184 217.649C276.184 217.878 276.068 217.992 275.953 218.222C273.187 224.865 266.618 229.217 259.588 229.217ZM247.948 214.327C249.101 219.252 253.25 222.803 258.205 223.376C263.391 223.949 268.462 221.085 270.537 216.389L279.756 166.907L256.477 163.7L247.948 214.327Z" fill="black"/>
<path d="M250.83 193.366C248.064 205.507 260.395 216.274 269.96 216.389C270.537 216.389 275.838 216.389 279.756 212.723C282.868 209.86 283.444 206.08 284.597 198.52C285.403 193.366 285.749 190.846 284.827 188.326C282.407 181.912 274.916 179.736 274.57 179.621C265.696 177.216 253.25 182.828 250.83 193.366Z" fill="url(#paint6_linear)"/>
<path d="M270.076 219.825H269.961C263.622 219.711 256.592 215.931 251.983 210.204C247.718 204.82 246.105 198.635 247.488 192.679C248.756 187.181 252.328 182.37 257.63 179.163C263.161 175.841 269.846 174.696 275.493 176.299C276.415 176.529 285.058 179.163 288.055 187.066C289.322 190.388 288.861 193.481 288.055 198.979C286.787 206.997 286.095 211.464 282.177 215.129C277.567 219.596 271.574 219.825 270.076 219.825ZM254.287 194.168C253.135 199.437 255.786 203.904 257.399 205.966C260.741 210.089 265.812 212.953 270.076 212.953C270.307 212.953 274.571 212.953 277.452 210.204C279.526 208.257 280.103 205.508 281.255 197.948C282.062 192.908 282.292 191.075 281.601 189.472C279.757 184.661 273.764 182.943 273.649 182.943C269.961 181.912 265.121 182.714 261.202 185.119C257.514 187.295 255.094 190.503 254.287 194.168Z" fill="black"/>
<defs>
<linearGradient id="paint0_linear" x1="212.148" y1="306.117" x2="248.076" y2="255.294" gradientUnits="userSpaceOnUse">
<stop stop-color="#91C83F"/>
<stop offset="1" stop-color="#D0DD27"/>
</linearGradient>
<linearGradient id="paint1_linear" x1="114.226" y1="201.582" x2="75.6535" y2="268.305" gradientUnits="userSpaceOnUse">
<stop stop-color="#91C83F"/>
<stop offset="0.3476" stop-color="#A4CE38"/>
<stop offset="1" stop-color="#D0DD27"/>
</linearGradient>
<linearGradient id="paint2_linear" x1="210.326" y1="202.693" x2="254.529" y2="265.875" gradientUnits="userSpaceOnUse">
<stop stop-color="#91C83F"/>
<stop offset="0.3476" stop-color="#A4CE38"/>
<stop offset="1" stop-color="#D0DD27"/>
</linearGradient>
<linearGradient id="paint3_linear" x1="199.406" y1="285.748" x2="118.094" y2="255.699" gradientUnits="userSpaceOnUse">
<stop stop-color="#91C83F"/>
<stop offset="0.3476" stop-color="#A4CE38"/>
<stop offset="1" stop-color="#D0DD27"/>
</linearGradient>
<linearGradient id="paint4_linear" x1="159.94" y1="52.208" x2="161.352" y2="234.663" gradientUnits="userSpaceOnUse">
<stop stop-color="#91C83F"/>
<stop offset="1" stop-color="#D0DD27"/>
</linearGradient>
<linearGradient id="paint5_linear" x1="45.4154" y1="198.824" x2="80.4064" y2="195.43" gradientUnits="userSpaceOnUse">
<stop stop-color="#D0DD27"/>
<stop offset="1" stop-color="#91C83F"/>
</linearGradient>
<linearGradient id="paint6_linear" x1="284.575" y1="199.473" x2="250.545" y2="195.275" gradientUnits="userSpaceOnUse">
<stop stop-color="#D0DD27"/>
<stop offset="1" stop-color="#91C83F"/>
</linearGradient>
</defs>
</svg>
