<svg width="127" height="37" viewBox="0 0 127 37" fill="none" xmlns="http://www.w3.org/2000/svg">
<path d="M21.4687 23.4034C18.0266 20.9066 13.9553 20.7575 12.1047 16.8819C11.9197 16.472 10.9944 14.4596 11.4385 12.0373C12.3268 7.30459 17.7305 5.2177 19.322 4.62145C23.1712 3.13082 26.7243 3.54074 28.6119 3.95066C28.6489 3.54074 27.0204 2.90722 27.0204 2.90722C28.0197 2.46003 30.9066 3.9134 30.9066 3.9134L30.2034 2.57183C31.3507 2.57183 31.3507 3.31714 33.3864 3.61527C35.422 3.9134 35.348 2.53456 35.348 2.53456C35.8291 2.60909 36.6434 2.86996 37.4577 3.50347C37.7537 3.72707 39.1232 4.84504 39.0491 6.18661C39.0121 7.04373 38.3459 7.60271 35.8662 9.39147C34.6818 10.2486 33.3494 11.1802 31.8689 12.1864C32.6832 11.8883 33.7935 11.4784 35.1629 10.9194C36.6434 10.3231 37.3836 9.98773 37.9758 9.61507C38.7531 9.13061 41.2328 7.52818 41.1588 5.62762C41.0848 4.21152 39.6783 3.27988 37.9018 2.12464C36.8655 1.45386 35.237 0.596741 33.0163 0.000488281C34.7558 2.23644 31.7949 1.78925 31.7949 1.78925C29.1301 0.224083 26.0581 0.298614 26.0581 0.298614C27.8717 0.78307 27.9827 1.75198 27.9827 1.75198C25.725 0.745805 23.0231 1.04393 23.0231 1.04393C24.9477 1.52839 24.6516 2.19917 24.6516 2.19917C22.9491 2.08737 16.8422 1.82651 12.0677 6.11208C10.7723 7.26732 7.29323 10.3976 7.62633 14.6087C7.88541 17.8881 10.3282 20.124 11.2535 20.9439C13.4371 22.919 14.3624 22.36 18.2857 24.5587C20.7654 25.9375 23.9114 27.7635 26.0211 31.2665C27.1314 33.0925 27.6126 34.8068 27.8346 35.9993C26.7243 28.6952 23.9484 25.1922 21.4687 23.4034ZM20.1733 18.7825C21.2466 19.9377 21.0245 21.242 22.1719 21.7637C23.5043 22.36 25.0588 21.242 25.2068 21.1302C26.6503 20.0868 26.7983 18.3725 26.8353 18.1117C26.4282 18.7452 25.9841 19.1178 25.688 19.3787C25.1328 19.7886 24.5776 20.2358 23.9484 20.0495C23.4303 19.9004 23.1712 19.416 23.1342 19.3414C22.8751 18.8197 23.0972 18.5216 22.9491 17.739C22.8381 17.2546 22.653 16.8446 22.505 16.621C21.7647 15.5403 20.0622 15.5403 19.6921 15.5403C17.5084 15.5031 16.065 17.1055 15.8429 17.3664C18.2487 17.3291 19.507 18.0744 20.1733 18.7825ZM26.0951 7.00646C26.0951 7.00646 22.0238 9.72686 23.6894 12.1119C25.3919 14.4969 31.4618 14.7577 31.4618 14.7577C31.4618 14.7577 23.4673 12.3727 26.0951 7.00646ZM4.55438 22.36C4.92449 21.9501 5.47966 21.0929 5.22058 20.3104C5.03552 19.6768 4.48035 19.565 4.29529 18.7825C4.18426 18.2607 4.29529 17.8508 4.36932 17.6272C4.77645 16.2111 6.29392 15.5776 6.553 15.5031C5.73875 15.4285 4.6284 15.4285 3.51805 15.9503C2.92587 16.2111 2.29667 16.5092 2.03759 17.2173C1.77851 17.8508 2.00058 18.4843 2.03759 18.5589C2.37069 19.4905 3.18495 19.4905 3.48104 20.3849C3.59207 20.7948 3.59208 21.2793 3.40702 21.6147C2.99989 22.4718 1.59345 22.8444 0.00195312 22.4345C1.7415 23.4034 3.62909 23.3289 4.55438 22.36ZM31.3878 6.55927C31.5728 6.7456 32.165 7.26732 33.0163 7.26732C33.6084 7.26732 34.4967 7.04373 34.6818 6.44747C34.6818 6.41021 34.7558 6.14935 34.6448 5.92575C34.3487 5.29223 33.0163 5.03137 32.091 5.40403C31.6098 5.59036 31.4618 5.88848 30.7956 6.03755C30.3514 6.14935 30.0183 6.14935 30.0183 6.18661C29.9443 6.26114 30.2034 6.33568 31.3878 6.55927Z" fill="white"/>
<path d="M31.2208 32.3982C31.0349 32.3982 30.8491 32.324 30.7376 32.2126C30.6261 32.1012 30.5518 31.9527 30.5518 31.7671V18.1433C30.5518 17.9577 30.6261 17.8092 30.7376 17.6978C30.8491 17.5865 30.9978 17.5122 31.1836 17.5122H34.9375C35.9039 17.5122 36.7587 17.6978 37.5392 18.069C38.3197 18.4403 38.9516 18.96 39.3976 19.6282C39.8436 20.2964 40.1038 21.1131 40.1038 22.0782C40.1038 23.4889 39.5834 24.6397 38.5799 25.4935C37.5764 26.3473 36.3499 26.7928 34.9375 26.7928H32.15C32.0385 26.7928 32.0013 26.7928 31.9641 26.8299C31.927 26.867 31.9269 26.9041 31.9269 27.0155V31.8042C31.9269 31.9899 31.8526 32.1383 31.7411 32.2497C31.6296 32.3611 31.4066 32.3982 31.2208 32.3982ZM34.9003 25.4192C35.9782 25.4192 36.8702 25.1223 37.6136 24.5283C38.3569 23.9343 38.7286 23.1177 38.7286 22.0411C38.7286 20.9646 38.3569 20.185 37.6136 19.6282C36.8702 19.0713 35.941 18.8115 34.9003 18.8115H32.1128C31.9641 18.8115 31.8526 18.8857 31.8526 18.9971C31.8526 23.229 31.8526 25.345 31.8898 25.3821C31.927 25.4192 31.9641 25.4192 32.0756 25.4192H34.9003Z" fill="white" stroke="white" stroke-width="0.5" stroke-miterlimit="10"/>
<path d="M46.6448 32.6578C45.2324 32.6578 44.0059 32.1381 43.0024 31.1358C41.9989 30.1335 41.4785 28.9085 41.4785 27.4979C41.4785 26.0872 41.9989 24.8622 43.0024 23.8599C44.0059 22.8576 45.2324 22.375 46.6448 22.375C48.0943 22.375 49.2837 22.8576 50.2872 23.8599C50.9934 24.5652 51.4394 25.4561 51.588 26.4584L51.6252 26.6069C51.6252 26.7183 51.588 26.8668 51.5137 27.0524C51.4394 27.2009 51.2535 27.3123 50.9934 27.3123H43.151C43.0024 27.3123 42.928 27.3494 42.8909 27.3865C42.8537 27.4236 42.8165 27.4979 42.8165 27.6092V27.7206C42.8909 28.76 43.2626 29.5767 43.9316 30.2449C44.7492 31.0616 45.6784 31.5071 46.6448 31.5071C47.1651 31.5071 47.6483 31.3957 48.1315 31.173C48.6147 30.9502 48.9863 30.6904 49.2093 30.3934C49.5438 29.9851 49.804 29.7623 50.027 29.7623C50.1385 29.7623 50.2872 29.7994 50.4359 29.8737C50.6217 30.0222 50.7332 30.1707 50.7332 30.3934C50.7332 30.579 50.6589 30.7275 50.5474 30.9131C49.4323 32.0639 48.1315 32.6578 46.6448 32.6578ZM49.804 25.9759C49.9898 25.9759 50.1013 25.9387 50.1013 25.8645C50.1013 25.7902 50.0642 25.716 49.9898 25.6046V25.5675C49.8412 25.3077 49.6553 25.0478 49.358 24.7879C48.6147 23.9713 47.7226 23.6 46.6448 23.6C45.5669 23.6 44.6749 24.0084 43.9316 24.7879C43.6342 25.122 43.3741 25.419 43.2254 25.6789C43.1882 25.7531 43.151 25.8274 43.151 25.8645C43.151 25.9016 43.151 25.9016 43.1882 25.9387C43.2254 25.9759 45.4183 25.9759 49.804 25.9759Z" fill="white" stroke="white" stroke-width="0.5" stroke-miterlimit="10"/>
<path d="M61.0657 32.3994C60.8799 32.3994 60.7312 32.3251 60.5825 32.2137C60.471 32.1024 60.3967 31.9539 60.3967 31.7683V24.1211C60.3967 24.084 60.3595 24.0098 60.3224 23.9726C60.2852 23.9355 60.248 23.8984 60.1737 23.8984H54.8959C54.8588 23.8984 54.7844 23.9355 54.7473 23.9726C54.7101 24.0098 54.7101 24.0469 54.7101 24.1211V31.7683C54.7101 31.9539 54.6358 32.1024 54.5243 32.2137C54.4128 32.3251 54.2269 32.3994 54.0411 32.3994C53.8552 32.3994 53.6694 32.3251 53.5579 32.2137C53.4464 32.1024 53.3721 31.9539 53.3721 31.7683V23.2673C53.3721 23.0817 53.4464 22.9332 53.5579 22.8218C53.6694 22.7105 53.8181 22.6362 54.0039 22.6362H61.0286C61.2144 22.6362 61.3631 22.7105 61.4746 22.8218C61.5861 22.9332 61.6604 23.0817 61.6604 23.2673V31.7683C61.6604 31.9539 61.5861 32.1024 61.4746 32.2137C61.3631 32.3251 61.2516 32.3994 61.0657 32.3994Z" fill="white" stroke="white" stroke-width="0.5" stroke-miterlimit="10"/>
<path d="M67.1977 32.3989C67.0119 32.3989 66.826 32.3247 66.7146 32.2133C66.6031 32.1019 66.5287 31.9534 66.5287 31.7678V24.1207C66.5287 24.0835 66.5287 24.0093 66.4916 23.9722C66.4544 23.935 66.4173 23.8979 66.3429 23.8979H64.1874C64.0016 23.8979 63.853 23.8237 63.7415 23.7123C63.63 23.6009 63.5557 23.4153 63.5557 23.2297C63.5557 23.0441 63.63 22.8956 63.7415 22.7471C63.853 22.5986 64.0016 22.5615 64.1874 22.5615H70.2451C70.4309 22.5615 70.5796 22.6358 70.691 22.7471C70.8025 22.8585 70.8769 23.0441 70.8769 23.2297C70.8769 23.4153 70.8025 23.5638 70.691 23.7123C70.5796 23.8237 70.4309 23.8979 70.2451 23.8979H68.0524C68.0153 23.8979 67.941 23.935 67.9038 23.9722C67.8666 24.0093 67.8666 24.0464 67.8666 24.1207V31.7678C67.8666 31.9534 67.7923 32.1019 67.6808 32.2133C67.5693 32.3247 67.3835 32.3989 67.1977 32.3989Z" fill="white" stroke="white" stroke-width="0.5" stroke-miterlimit="10"/>
<path d="M76.6019 32.6587C75.9701 32.6587 75.3382 32.5474 74.7435 32.2875C74.1489 32.0277 73.6285 31.6193 73.2197 31.0254C72.8108 30.4314 72.625 29.5776 72.625 28.5011V23.2668C72.625 23.0812 72.6993 22.9327 72.8108 22.7842C72.9223 22.6729 73.1082 22.5986 73.294 22.5986C73.4798 22.5986 73.6285 22.6729 73.7772 22.7842C73.8887 22.8956 73.963 23.0812 73.963 23.2668V28.4268C73.963 29.4662 74.2232 30.2087 74.7435 30.6913C75.2639 31.1739 75.8585 31.3966 76.6019 31.3966C78.4603 31.3966 79.3894 30.5428 79.3894 28.8723V23.2668C79.3894 23.0812 79.4638 22.9327 79.5753 22.7842C79.6868 22.6729 79.8726 22.5986 80.0585 22.5986C80.2815 22.5986 80.4301 22.6729 80.5416 22.7842C80.6531 22.8956 80.7275 23.0812 80.7275 23.2668L80.7646 31.7307C80.7646 31.9163 80.6903 32.0648 80.5788 32.1762C80.4673 32.2875 80.2815 32.3618 80.0956 32.3618C79.9098 32.3618 79.7611 32.3246 79.6124 32.2133C79.5009 32.1019 79.4266 31.9534 79.4266 31.7678V31.5822C79.4266 31.5451 79.3894 31.508 79.3523 31.508C79.3151 31.508 79.3151 31.508 79.2779 31.5451C78.9806 31.9534 78.5346 32.2504 78.0143 32.3989C77.4568 32.5845 77.0107 32.6587 76.6019 32.6587Z" fill="white" stroke="white" stroke-width="0.5" stroke-miterlimit="10"/>
<path d="M91.2449 32.398C90.9104 32.398 90.6874 32.3609 90.5387 32.2495C90.4272 32.1381 90.3157 32.0268 90.2414 31.804L87.491 25.3819C87.4538 25.3077 87.4167 25.2334 87.3795 25.1592C87.3423 25.0849 87.3423 25.0107 87.3052 24.9736C87.268 24.8251 87.1937 24.7137 87.1937 24.7137C87.1937 24.7137 87.1565 24.7879 87.1193 24.8993C87.1193 24.8993 87.0822 24.9364 87.0822 24.9736C87.0822 25.0107 87.045 25.0849 87.0078 25.1963C86.9706 25.3077 86.8963 25.419 86.8591 25.5675C86.822 25.6789 86.6361 26.0872 86.376 26.7183C86.0786 27.3494 85.7813 28.0547 85.4468 28.8343L84.1459 31.8412C84.0344 32.0639 83.9229 32.2124 83.8114 32.2866C83.6999 32.3609 83.5141 32.398 83.2539 32.398H83.1796C82.9937 32.398 82.8451 32.3237 82.7336 32.2124C82.6592 32.1381 82.6221 32.0639 82.6221 31.9525C82.6221 31.9154 82.6221 31.8412 82.6592 31.7669L86.8963 22.6349C87.0078 22.4864 87.0821 22.375 87.1565 22.375C87.268 22.375 87.3423 22.4492 87.4538 22.6349L88.0857 23.9713C88.4945 24.8622 88.9777 25.9016 89.498 27.0524C90.0184 28.2032 90.5016 29.2426 90.9476 30.1707C91.3564 31.0987 91.6166 31.5813 91.6537 31.6927C91.6909 31.804 91.7281 31.9154 91.7281 31.9896C91.7281 32.2495 91.5794 32.398 91.2449 32.398Z" fill="white" stroke="white" stroke-width="0.5" stroke-miterlimit="10"/>
<path d="M98.4563 32.6578C97.044 32.6578 95.8174 32.1381 94.8139 31.1358C93.8104 30.1335 93.29 28.9085 93.29 27.4979C93.29 26.0872 93.8104 24.8622 94.8139 23.8599C95.8174 22.8576 97.044 22.375 98.4563 22.375C99.9058 22.375 101.095 22.8576 102.099 23.8599C102.805 24.5652 103.251 25.4561 103.4 26.4584L103.437 26.6069C103.437 26.7183 103.4 26.8668 103.325 27.0524C103.251 27.2009 103.065 27.3123 102.805 27.3123H94.9626C94.8139 27.3123 94.7396 27.3494 94.7024 27.3865C94.6652 27.4236 94.6281 27.4979 94.6281 27.6092V27.7206C94.7024 28.76 95.0741 29.5767 95.7431 30.2449C96.5608 31.0616 97.49 31.5071 98.4563 31.5071C98.9767 31.5071 99.4598 31.3957 99.943 31.173C100.426 30.9502 100.798 30.6904 101.021 30.3934C101.355 29.9851 101.616 29.7623 101.839 29.7623C101.95 29.7623 102.099 29.7994 102.247 29.8737C102.433 30.0222 102.545 30.1707 102.545 30.3934C102.545 30.579 102.47 30.7275 102.359 30.9131C101.244 32.0639 99.943 32.6578 98.4563 32.6578ZM101.578 25.9759C101.764 25.9759 101.876 25.9387 101.876 25.8645C101.876 25.7902 101.839 25.716 101.764 25.6046V25.5675C101.616 25.3077 101.43 25.0478 101.132 24.7879C100.389 23.9713 99.497 23.6 98.4191 23.6C97.3413 23.6 96.4493 24.0084 95.7059 24.7879C95.4086 25.122 95.1484 25.419 94.9997 25.6789C94.9626 25.7531 94.9254 25.8274 94.9254 25.8645C94.9254 25.9016 94.9254 25.9016 94.9626 25.9387C95.0369 25.9759 97.2298 25.9759 101.578 25.9759Z" fill="white" stroke="white" stroke-width="0.5" stroke-miterlimit="10"/>
<path d="M113.063 32.3994C112.84 32.3994 112.691 32.3251 112.58 32.2137C112.468 32.1024 112.394 31.9539 112.394 31.7683V28.1674C112.394 28.1303 112.394 28.0561 112.357 28.0189C112.32 27.9818 112.283 27.9818 112.208 27.9818H106.745C106.707 27.9818 106.633 27.9818 106.596 28.0189C106.559 28.0561 106.559 28.0932 106.559 28.1674V31.7683C106.559 31.9539 106.484 32.1024 106.373 32.2137C106.261 32.3251 106.076 32.3994 105.89 32.3994C105.704 32.3994 105.518 32.3251 105.407 32.2137C105.295 32.1024 105.221 31.9539 105.221 31.7683V23.2673C105.221 23.0817 105.295 22.9332 105.407 22.8218C105.518 22.7105 105.704 22.6362 105.89 22.6362C106.076 22.6362 106.224 22.7105 106.373 22.8218C106.522 22.9332 106.559 23.0817 106.559 23.2673V26.4969C106.559 26.5341 106.559 26.6083 106.596 26.6454C106.633 26.6825 106.67 26.6825 106.745 26.6825H112.208C112.245 26.6825 112.32 26.6825 112.357 26.6454C112.394 26.6083 112.394 26.5712 112.394 26.4969V23.2673C112.394 23.0817 112.468 22.9332 112.58 22.8218C112.691 22.7105 112.877 22.6362 113.063 22.6362C113.249 22.6362 113.398 22.7105 113.546 22.8218C113.695 22.9332 113.732 23.0817 113.732 23.2673V31.7683C113.732 31.9539 113.658 32.1024 113.546 32.2137C113.435 32.3251 113.286 32.3994 113.063 32.3994Z" fill="white" stroke="white" stroke-width="0.5" stroke-miterlimit="10"/>
<path d="M121.648 35.9998H121.499C121.053 35.9998 120.793 35.8142 120.719 35.4059V35.3316C120.719 35.0346 120.793 34.849 120.979 34.7377C121.165 34.6263 121.314 34.5521 121.537 34.5521C122.317 34.5149 123.023 34.1808 123.618 33.5869C124.213 32.9929 124.584 32.4361 124.733 31.9906C124.77 31.8421 124.807 31.6565 124.807 31.4709C124.77 31.0997 124.733 30.9141 124.696 30.9141H124.659C124.176 31.508 123.581 31.9535 122.875 32.2134C122.168 32.5103 121.499 32.6588 120.793 32.6588C119.269 32.6588 118.006 32.2134 117.039 31.2853C116.073 30.3573 115.59 29.1322 115.59 27.536C115.59 26.014 116.11 24.7518 117.114 23.7866C118.117 22.8215 119.344 22.3389 120.756 22.3389C121.462 22.3389 122.131 22.4874 122.763 22.7472C123.395 23.0071 123.99 23.4154 124.51 23.9722L124.584 24.0094C124.584 24.0094 124.622 24.0094 124.659 24.0094C124.696 24.0094 124.696 23.9351 124.696 23.8238V23.3412C124.696 23.0813 124.77 22.8957 124.882 22.7843C124.993 22.673 125.179 22.5987 125.365 22.5987C125.551 22.5987 125.699 22.673 125.811 22.7843C125.922 22.8957 125.997 23.0442 125.997 23.2298V30.9512C125.997 32.3247 125.514 33.5126 124.51 34.5149C123.729 35.3687 122.763 35.8513 121.648 35.9998ZM120.793 31.4338C121.871 31.4338 122.8 31.0626 123.581 30.283C124.361 29.5034 124.733 28.6125 124.733 27.536C124.733 26.4594 124.361 25.5314 123.581 24.7518C122.8 23.9722 121.871 23.601 120.793 23.601C119.715 23.601 118.823 24.0094 118.08 24.7889C117.337 25.6056 116.965 26.4965 116.965 27.536C116.965 28.6868 117.337 29.6148 118.043 30.3573C118.712 31.0626 119.641 31.4338 120.793 31.4338Z" fill="white" stroke="white" stroke-width="0.5" stroke-miterlimit="10"/>
</svg>
