<svg width="218" height="98" viewBox="0 0 218 98" fill="none" xmlns="http://www.w3.org/2000/svg">
<path d="M40.3645 58.1203C34.6622 53.9061 27.9175 53.6545 24.8518 47.113C24.5452 46.4212 23.0123 43.0246 23.7481 38.9362C25.2197 30.9481 34.1717 27.4258 36.8082 26.4194C43.185 23.9035 49.0712 24.5954 52.1983 25.2872C52.2596 24.5954 49.5617 23.5261 49.5617 23.5261C51.2173 22.7713 55.9998 25.2243 55.9998 25.2243L54.8348 22.96C56.7356 22.96 56.7356 24.218 60.1079 24.7212C63.4803 25.2243 63.3576 22.8971 63.3576 22.8971C64.1547 23.0229 65.5037 23.4632 66.8526 24.5325C67.3431 24.9099 69.6118 26.7968 69.4891 29.0612C69.4278 30.5078 68.3241 31.4513 64.216 34.4704C62.254 35.9171 60.0466 37.4896 57.594 39.1878C58.9429 38.6846 60.7824 37.9928 63.0511 37.0493C65.5037 36.0429 66.7299 35.4768 67.711 34.8478C68.9986 34.0301 73.1067 31.3255 72.9841 28.1177C72.8615 25.7275 70.5315 24.1551 67.5884 22.2052C65.8715 21.073 63.1737 19.6264 59.4948 18.62C62.3766 22.3939 57.4714 21.6391 57.4714 21.6391C53.0567 18.9974 47.9675 19.1232 47.9675 19.1232C50.972 19.9409 51.1559 21.5762 51.1559 21.5762C47.4157 19.878 42.9397 20.3812 42.9397 20.3812C46.1281 21.1988 45.6376 22.331 45.6376 22.331C42.8171 22.1423 32.7001 21.702 24.7905 28.9354C22.6444 30.8852 16.8808 36.1687 17.4327 43.2762C17.8619 48.8113 21.9087 52.5852 23.4415 53.969C27.0591 57.3026 28.592 56.3591 35.0914 60.0701C39.1995 62.3974 44.4113 65.4794 47.9062 71.3919C49.7457 74.4739 50.5428 77.3672 50.9107 79.38C49.0712 67.0519 44.4726 61.1394 40.3645 58.1203ZM38.2185 50.3209C39.9966 52.2707 39.6287 54.4722 41.5295 55.3527C43.7368 56.3591 46.312 54.4722 46.5573 54.2835C48.9486 52.5223 49.1939 49.629 49.2552 49.1887C48.5807 50.258 47.8449 50.8869 47.3544 51.3272C46.4347 52.0191 45.5149 52.7739 44.4726 52.4594C43.6142 52.2078 43.185 51.3901 43.1237 51.2643C42.6945 50.3838 43.0623 49.8806 42.8171 48.5597C42.6331 47.742 42.3266 47.0501 42.0813 46.6727C40.855 44.8487 38.0345 44.8487 37.4214 44.8487C33.8038 44.7858 31.4125 47.4904 31.0446 47.9307C35.0301 47.8678 37.1148 49.1258 38.2185 50.3209ZM48.0289 30.4449C48.0289 30.4449 41.2842 35.0365 44.0434 39.062C46.8639 43.0875 56.9195 43.5278 56.9195 43.5278C56.9195 43.5278 43.6755 39.5023 48.0289 30.4449ZM12.3435 56.3591C12.9567 55.6672 13.8764 54.2206 13.4472 52.8997C13.1406 51.8304 12.2209 51.6417 11.9143 50.3209C11.7304 49.4403 11.9143 48.7484 12.0369 48.371C12.7114 45.9809 15.2253 44.9116 15.6545 44.7858C14.3056 44.66 12.4661 44.66 10.6267 45.5406C9.64565 45.9809 8.60329 46.484 8.17409 47.6791C7.74488 48.7484 8.11277 49.8177 8.17409 49.9435C8.72592 51.5159 10.0749 51.5159 10.5654 53.0255C10.7493 53.7174 10.7493 54.5351 10.4427 55.1012C9.76828 56.5478 7.4383 57.1768 4.80176 56.4849C7.68356 58.1203 10.8106 57.9945 12.3435 56.3591ZM56.7969 29.6901C57.1035 30.0046 58.0845 30.8852 59.4948 30.8852C60.4758 30.8852 61.9474 30.5078 62.254 29.5014C62.254 29.4385 62.3766 28.9983 62.1926 28.6209C61.7021 27.5516 59.4948 27.1113 57.9619 27.7403C57.1648 28.0548 56.9195 28.558 55.8159 28.8096C55.0801 28.9983 54.5283 28.9983 54.5283 29.0612C54.4056 29.1869 54.8348 29.3127 56.7969 29.6901Z" fill="url(#paint0_linear)"/>
<path d="M56.5206 73.3023C56.2127 73.3023 55.9048 73.177 55.7201 72.989C55.5354 72.801 55.4122 72.5504 55.4122 72.2371V49.2423C55.4122 48.9291 55.5354 48.6784 55.7201 48.4905C55.9048 48.3025 56.1511 48.1772 56.459 48.1772H62.6779C64.2788 48.1772 65.695 48.4905 66.988 49.117C68.281 49.7436 69.3278 50.6208 70.0667 51.7486C70.8055 52.8764 71.2365 54.2548 71.2365 55.8839C71.2365 58.2648 70.3745 60.2072 68.712 61.6483C67.0496 63.0893 65.0176 63.8412 62.6779 63.8412H58.0599C57.8752 63.8412 57.8136 63.8412 57.752 63.9039C57.6904 63.9665 57.6904 64.0292 57.6904 64.2172V72.2998C57.6904 72.6131 57.5673 72.8637 57.3826 73.0517C57.1979 73.2396 56.8284 73.3023 56.5206 73.3023ZM62.6163 61.5229C64.4019 61.5229 65.8797 61.0217 67.1111 60.0192C68.3426 59.0167 68.9583 57.6383 68.9583 55.8212C68.9583 54.0042 68.3426 52.6884 67.1111 51.7486C65.8797 50.8087 64.3403 50.3701 62.6163 50.3701H57.9983C57.752 50.3701 57.5673 50.4955 57.5673 50.6834C57.5673 57.8262 57.5673 61.3976 57.6289 61.4603C57.6904 61.5229 57.752 61.5229 57.9367 61.5229H62.6163Z" fill="#4A8B49" stroke="#4A8B49" stroke-miterlimit="10"/>
<path d="M82.0736 73.7409C79.7338 73.7409 77.7019 72.8637 76.0394 71.172C74.3769 69.4803 73.5149 67.4126 73.5149 65.0317C73.5149 62.6507 74.3769 60.5831 76.0394 58.8914C77.7019 57.1997 79.7338 56.3851 82.0736 56.3851C84.4749 56.3851 86.4453 57.1997 88.1077 58.8914C89.2776 60.0818 90.0165 61.5856 90.2628 63.2773L90.3244 63.5279C90.3244 63.7159 90.2628 63.9665 90.1396 64.2798C90.0165 64.5304 89.7086 64.7184 89.2776 64.7184H76.2857C76.0394 64.7184 75.9162 64.7811 75.8547 64.8437C75.7931 64.9064 75.7315 65.0317 75.7315 65.2197V65.4076C75.8547 67.162 76.4704 68.5404 77.5787 69.6682C78.9333 71.0467 80.4727 71.7985 82.0736 71.7985C82.9356 71.7985 83.736 71.6106 84.5365 71.2346C85.3369 70.8587 85.9527 70.4201 86.3221 69.9189C86.8763 69.2296 87.3073 68.8537 87.6767 68.8537C87.8614 68.8537 88.1077 68.9164 88.354 69.0417C88.6619 69.2923 88.8466 69.5429 88.8466 69.9189C88.8466 70.2321 88.7235 70.4828 88.5387 70.796C86.6916 72.7384 84.5365 73.7409 82.0736 73.7409ZM87.3073 62.4628C87.6151 62.4628 87.7999 62.4001 87.7999 62.2748C87.7999 62.1495 87.7383 62.0242 87.6151 61.8362V61.7736C87.3689 61.335 87.061 60.8964 86.5684 60.4578C85.3369 59.0793 83.8592 58.4528 82.0736 58.4528C80.2879 58.4528 78.8102 59.142 77.5787 60.4578C77.0861 61.0217 76.6551 61.5229 76.4088 61.9615C76.3473 62.0868 76.2857 62.2122 76.2857 62.2748C76.2857 62.3375 76.2857 62.3375 76.3473 62.4001C76.4088 62.4628 80.0417 62.4628 87.3073 62.4628Z" fill="#4A8B49" stroke="#4A8B49" stroke-miterlimit="10"/>
<path d="M105.964 73.3023C105.656 73.3023 105.41 73.177 105.163 72.989C104.979 72.8011 104.855 72.5504 104.855 72.2372V59.33C104.855 59.2673 104.794 59.142 104.732 59.0794C104.671 59.0167 104.609 58.9541 104.486 58.9541H95.7426C95.6811 58.9541 95.5579 59.0167 95.4964 59.0794C95.4348 59.142 95.4348 59.2047 95.4348 59.33V72.2372C95.4348 72.5504 95.3116 72.8011 95.1269 72.989C94.9422 73.177 94.6343 73.3023 94.3265 73.3023C94.0186 73.3023 93.7107 73.177 93.526 72.989C93.3413 72.8011 93.2181 72.5504 93.2181 72.2372V57.8889C93.2181 57.5756 93.3413 57.325 93.526 57.137C93.7107 56.9491 93.957 56.8238 94.2649 56.8238H105.902C106.21 56.8238 106.456 56.9491 106.641 57.137C106.826 57.325 106.949 57.5756 106.949 57.8889V72.2372C106.949 72.5504 106.826 72.8011 106.641 72.989C106.456 73.177 106.272 73.3023 105.964 73.3023Z" fill="#4A8B49" stroke="#4A8B49" stroke-miterlimit="10"/>
<path d="M116.123 73.3022C115.815 73.3022 115.507 73.1769 115.323 72.989C115.138 72.801 115.015 72.5504 115.015 72.2371V59.3299C115.015 59.2673 115.015 59.142 114.953 59.0793C114.892 59.0166 114.83 58.954 114.707 58.954H111.136C110.828 58.954 110.582 58.8287 110.397 58.6407C110.212 58.4527 110.089 58.1395 110.089 57.8262C110.089 57.5129 110.212 57.2623 110.397 57.0116C110.582 56.761 110.828 56.6984 111.136 56.6984H121.172C121.48 56.6984 121.726 56.8237 121.911 57.0116C122.096 57.1996 122.219 57.5129 122.219 57.8262C122.219 58.1395 122.096 58.3901 121.911 58.6407C121.726 58.8287 121.48 58.954 121.172 58.954H117.539C117.478 58.954 117.355 59.0166 117.293 59.0793C117.231 59.142 117.231 59.2046 117.231 59.3299V72.2371C117.231 72.5504 117.108 72.801 116.924 72.989C116.739 73.1769 116.431 73.3022 116.123 73.3022Z" fill="#4A8B49" stroke="#4A8B49" stroke-miterlimit="10"/>
<path d="M131.702 73.7409C130.655 73.7409 129.608 73.5529 128.623 73.1143C127.638 72.6757 126.776 71.9865 126.098 70.984C125.421 69.9815 125.113 68.5404 125.113 66.7234V57.8889C125.113 57.5756 125.236 57.325 125.421 57.0744C125.606 56.8864 125.914 56.7611 126.222 56.7611C126.529 56.7611 126.776 56.8864 127.022 57.0744C127.207 57.2623 127.33 57.5756 127.33 57.8889V66.5981C127.33 68.3525 127.761 69.6056 128.623 70.4201C129.485 71.2346 130.47 71.6106 131.702 71.6106C134.78 71.6106 136.32 70.1695 136.32 67.35V57.8889C136.32 57.5756 136.443 57.325 136.627 57.0744C136.812 56.8864 137.12 56.7611 137.428 56.7611C137.797 56.7611 138.044 56.8864 138.228 57.0744C138.413 57.2623 138.536 57.5756 138.536 57.8889L138.598 72.1745C138.598 72.4878 138.475 72.7384 138.29 72.9264C138.105 73.1143 137.797 73.2396 137.489 73.2396C137.182 73.2396 136.935 73.177 136.689 72.989C136.504 72.8011 136.381 72.5504 136.381 72.2372V71.9239C136.381 71.8612 136.32 71.7986 136.258 71.7986C136.196 71.7986 136.196 71.7986 136.135 71.8612C135.642 72.5504 134.903 73.0517 134.041 73.3023C133.118 73.6156 132.379 73.7409 131.702 73.7409Z" fill="#4A8B49" stroke="#4A8B49" stroke-miterlimit="10"/>
<path d="M155.961 73.3023C155.407 73.3023 155.038 73.2396 154.791 73.0517C154.607 72.8637 154.422 72.6757 154.299 72.2998L149.742 61.4603C149.681 61.335 149.619 61.2097 149.558 61.0843C149.496 60.959 149.496 60.8337 149.434 60.7711C149.373 60.5204 149.25 60.3325 149.25 60.3325C149.25 60.3325 149.188 60.4578 149.127 60.6458C149.127 60.6458 149.065 60.7084 149.065 60.7711C149.065 60.8337 149.003 60.959 148.942 61.147C148.88 61.335 148.757 61.5229 148.695 61.7736C148.634 61.9615 148.326 62.6507 147.895 63.7159C147.402 64.7811 146.91 65.9715 146.356 67.2873L144.201 72.3624C144.016 72.7384 143.831 72.989 143.646 73.1143C143.462 73.2396 143.154 73.3023 142.723 73.3023H142.6C142.292 73.3023 142.046 73.177 141.861 72.989C141.738 72.8637 141.676 72.7384 141.676 72.5504C141.676 72.4878 141.676 72.3624 141.738 72.2371L148.757 56.8237C148.942 56.5731 149.065 56.3851 149.188 56.3851C149.373 56.3851 149.496 56.5104 149.681 56.8237L150.727 59.0793C151.405 60.5831 152.205 62.3375 153.067 64.2798C153.929 66.2221 154.73 67.9765 155.469 69.5429C156.146 71.1093 156.577 71.9239 156.638 72.1118C156.7 72.2998 156.762 72.4878 156.762 72.6131C156.762 73.0517 156.515 73.3023 155.961 73.3023Z" fill="#4A8B49" stroke="#4A8B49" stroke-miterlimit="10"/>
<path d="M167.906 73.7409C165.567 73.7409 163.535 72.8637 161.872 71.172C160.21 69.4803 159.348 67.4126 159.348 65.0317C159.348 62.6507 160.21 60.5831 161.872 58.8914C163.535 57.1997 165.567 56.3851 167.906 56.3851C170.308 56.3851 172.278 57.1997 173.94 58.8914C175.11 60.0818 175.849 61.5856 176.096 63.2773L176.157 63.5279C176.157 63.7159 176.096 63.9665 175.972 64.2798C175.849 64.5304 175.541 64.7184 175.11 64.7184H162.118C161.872 64.7184 161.749 64.7811 161.687 64.8437C161.626 64.9064 161.564 65.0317 161.564 65.2197V65.4076C161.687 67.162 162.303 68.5404 163.411 69.6682C164.766 71.0467 166.305 71.7985 167.906 71.7985C168.768 71.7985 169.569 71.6106 170.369 71.2346C171.17 70.8587 171.785 70.4201 172.155 69.9189C172.709 69.2296 173.14 68.8537 173.509 68.8537C173.694 68.8537 173.94 68.9164 174.187 69.0417C174.495 69.2923 174.679 69.5429 174.679 69.9189C174.679 70.2321 174.556 70.4828 174.372 70.796C172.524 72.7384 170.369 73.7409 167.906 73.7409ZM173.078 62.4628C173.386 62.4628 173.571 62.4001 173.571 62.2748C173.571 62.1495 173.509 62.0242 173.386 61.8362V61.7736C173.14 61.335 172.832 60.8964 172.34 60.4578C171.108 59.0793 169.63 58.4528 167.845 58.4528C166.059 58.4528 164.581 59.142 163.35 60.4578C162.857 61.0217 162.426 61.5229 162.18 61.9615C162.118 62.0868 162.057 62.2122 162.057 62.2748C162.057 62.3375 162.057 62.3375 162.118 62.4001C162.242 62.4628 165.874 62.4628 173.078 62.4628Z" fill="#4A8B49" stroke="#4A8B49" stroke-miterlimit="10"/>
<path d="M192.105 73.3023C191.735 73.3023 191.489 73.177 191.304 72.989C191.12 72.8011 190.997 72.5504 190.997 72.2372V66.1595C190.997 66.0969 190.997 65.9716 190.935 65.9089C190.873 65.8462 190.812 65.8462 190.689 65.8462H181.637C181.576 65.8462 181.453 65.8462 181.391 65.9089C181.33 65.9716 181.33 66.0342 181.33 66.1595V72.2372C181.33 72.5504 181.206 72.8011 181.022 72.989C180.837 73.177 180.529 73.3023 180.221 73.3023C179.913 73.3023 179.606 73.177 179.421 72.989C179.236 72.8011 179.113 72.5504 179.113 72.2372V57.8889C179.113 57.5756 179.236 57.325 179.421 57.137C179.606 56.9491 179.913 56.8238 180.221 56.8238C180.529 56.8238 180.775 56.9491 181.022 57.137C181.268 57.325 181.33 57.5756 181.33 57.8889V63.34C181.33 63.4027 181.33 63.528 181.391 63.5906C181.453 63.6533 181.514 63.6533 181.637 63.6533H190.689C190.75 63.6533 190.873 63.6533 190.935 63.5906C190.997 63.528 190.997 63.4653 190.997 63.34V57.8889C190.997 57.5756 191.12 57.325 191.304 57.137C191.489 56.9491 191.797 56.8238 192.105 56.8238C192.413 56.8238 192.659 56.9491 192.905 57.137C193.152 57.325 193.213 57.5756 193.213 57.8889V72.2372C193.213 72.5504 193.09 72.8011 192.905 72.989C192.721 73.177 192.474 73.3023 192.105 73.3023Z" fill="#4A8B49" stroke="#4A8B49" stroke-miterlimit="10"/>
<path d="M206.328 79.3799H206.082C205.343 79.3799 204.912 79.0666 204.789 78.3774V78.252C204.789 77.7508 204.912 77.4375 205.22 77.2496C205.528 77.0616 205.774 76.9363 206.143 76.9363C207.436 76.8736 208.606 76.3097 209.591 75.3072C210.577 74.3047 211.192 73.3649 211.439 72.613C211.5 72.3624 211.562 72.0491 211.562 71.7358C211.5 71.1093 211.439 70.796 211.377 70.796H211.315C210.515 71.7985 209.53 72.5503 208.36 72.9889C207.19 73.4902 206.082 73.7408 204.912 73.7408C202.387 73.7408 200.294 72.9889 198.693 71.4225C197.092 69.8561 196.292 67.7885 196.292 65.0943C196.292 62.5254 197.154 60.3951 198.816 58.766C200.479 57.1369 202.511 56.3224 204.85 56.3224C206.02 56.3224 207.129 56.573 208.175 57.0116C209.222 57.4502 210.207 58.1394 211.069 59.0793L211.192 59.1419C211.192 59.1419 211.254 59.1419 211.315 59.1419C211.377 59.1419 211.377 59.0166 211.377 58.8287V58.0141C211.377 57.5755 211.5 57.2623 211.685 57.0743C211.87 56.8863 212.178 56.761 212.485 56.761C212.793 56.761 213.04 56.8863 213.224 57.0743C213.409 57.2623 213.532 57.5129 213.532 57.8262V70.8586C213.532 73.1769 212.732 75.1819 211.069 76.8736C209.776 78.3147 208.175 79.1292 206.328 79.3799ZM204.912 71.6732C206.697 71.6732 208.237 71.0466 209.53 69.7308C210.823 68.415 211.439 66.9113 211.439 65.0943C211.439 63.2772 210.823 61.7108 209.53 60.3951C208.237 59.0793 206.697 58.4527 204.912 58.4527C203.126 58.4527 201.648 59.1419 200.417 60.4577C199.186 61.8362 198.57 63.3399 198.57 65.0943C198.57 67.0366 199.186 68.603 200.355 69.8561C201.464 71.0466 203.003 71.6732 204.912 71.6732Z" fill="#4A8B49" stroke="#4A8B49" stroke-miterlimit="10"/>
<defs>
<linearGradient id="paint0_linear" x1="52.3425" y1="28.3115" x2="14.3016" y2="84.1608" gradientUnits="userSpaceOnUse">
<stop stop-color="#D3DD4E"/>
<stop offset="0.2773" stop-color="#98C35A"/>
<stop offset="0.5508" stop-color="#74B55F"/>
<stop offset="0.8659" stop-color="#4A8B49"/>
</linearGradient>
</defs>
</svg>
