<svg width="400" height="400" viewBox="0 0 400 400" fill="none" xmlns="http://www.w3.org/2000/svg">
<path d="M279.259 261.982C320.897 240.804 303.958 177.646 294.779 168.987C285.599 160.233 286.829 172.281 286.829 172.281C301.024 220.473 263.645 235.721 263.645 235.721C266.105 237.227 271.121 240.71 274.811 247.204C278.502 253.323 279.164 259.064 279.259 261.982ZM84.1277 297.467C67.6618 286.925 59.902 268.288 64.5389 252.099C68.892 236.851 84.317 224.144 96.3353 225.179C99.6474 225.462 100.783 226.591 111.382 229.227C118.29 230.921 123.968 231.956 127.848 232.615C123.779 233.745 102.676 239.957 90.8466 261.323C82.2351 276.948 83.4653 292.008 84.1277 297.467ZM177.908 235.345C183.775 231.015 195.226 221.414 202.702 205.037C212.354 183.765 209.326 164.375 207.906 157.41L166.268 171.34C164.849 194.212 157.184 207.39 151.033 214.92C132.106 238.169 106.65 233.839 91.8876 259.535C89.8057 263.206 82.9922 275.348 84.9794 290.502C87.5345 310.456 103.527 322.41 109.205 326.646C129.362 341.8 151.6 341.517 179.611 341.235C210.556 340.953 232.038 340.67 251.816 325.234C256.642 321.469 275 306.126 278.502 280.995C279.354 274.595 281.814 257.182 270.837 244.098C263.55 235.439 253.708 232.615 248.125 231.109C237.337 228.097 227.59 228.944 208.474 230.733C205.541 231.015 193.806 231.956 191.062 232.145C187.844 232.333 187.75 232.239 185.952 232.615C165.511 237.133 140.055 254.546 142.232 271.112C144.124 285.325 165.417 292.573 168.823 293.702C188.318 300.385 209.704 294.267 222.669 282.219C225.319 279.677 239.135 266.877 234.971 256.146C232.889 250.687 226.833 247.581 221.723 246.734C214.72 245.699 207.528 248.805 203.269 254.734" fill="url(#paint0_linear)"/>
<path opacity="0.2" d="M234.782 309.609C234.782 309.609 249.828 317.421 256.074 306.973C262.32 296.526 264.118 291.819 258.534 289.466C252.951 287.113 252.194 290.313 249.639 284.101C247.084 277.889 244.529 270.83 236.769 273.653C229.009 276.477 218.884 279.207 222.574 285.984C226.265 292.761 220.871 309.327 234.782 309.609Z" fill="white"/>
<path opacity="0.2" d="M168.255 329.376C168.255 329.376 183.302 337.188 189.547 326.74C195.793 316.292 197.591 311.586 192.008 309.233C186.425 306.88 185.668 310.08 183.112 303.868C180.557 297.656 178.002 290.596 170.243 293.42C162.577 296.338 152.357 298.973 156.048 305.75C159.738 312.527 154.344 328.999 168.255 329.376Z" fill="white"/>
<path opacity="0.2" d="M243.583 256.617C243.583 256.617 254.276 262.17 258.724 254.734C263.172 247.299 264.497 244.004 260.522 242.31C256.548 240.616 256.074 242.875 254.182 238.451C252.384 234.027 250.491 229.038 245.097 231.015C239.609 233.086 232.417 234.968 235.066 239.769C237.621 244.663 233.741 256.429 243.583 256.617Z" fill="white"/>
<path opacity="0.2" d="M286.546 242.687C286.546 242.687 297.239 248.24 301.687 240.804C306.134 233.368 307.459 230.074 303.485 228.38C299.51 226.686 299.037 228.945 297.144 224.521C295.346 220.097 293.454 215.108 288.06 217.085C282.666 219.061 275.379 221.038 278.029 225.838C280.584 230.639 276.704 242.404 286.546 242.687Z" fill="white"/>
<path opacity="0.2" d="M152.262 259.347C152.262 259.347 143.84 274.03 154.06 280.619C164.375 287.208 169.012 289.278 171.567 283.819C174.122 278.36 171 277.513 177.34 275.16C183.68 272.807 190.872 270.548 188.317 262.829C185.762 255.111 183.396 244.852 176.488 248.24C169.58 251.629 153.114 245.511 152.262 259.347Z" fill="white"/>
<path d="M150.275 321.657C151.222 320.716 154.439 322.787 157.941 324.575C157.941 324.575 168.35 329.752 186.425 331.635C201.282 333.141 213.206 328.34 223.804 324.199C236.769 319.022 252.289 312.621 262.698 296.338C265.632 291.726 274.716 277.607 271.499 259.629C269.796 250.311 265.442 243.534 262.509 239.675C265.159 240.993 271.404 244.758 275.568 252.288C278.88 258.217 279.448 263.771 279.543 266.689C276.893 277.231 274.243 287.867 271.499 298.409L246.138 326.458L210.272 338.035L162.199 341.424C155.764 333.141 148.572 323.257 150.275 321.657Z" fill="#9B5E43"/>
<path d="M289.669 167.764C291.845 171.529 304.81 194.589 295.631 220.944C290.521 235.627 280.773 244.663 275.853 248.617C278.124 252.476 280.395 256.241 282.666 260.1C282.666 260.1 303.012 233.463 303.39 232.427C303.769 231.392 305.472 191.107 305.283 190.071C305.094 188.942 297.145 171.905 297.145 171.905L289.669 167.764Z" fill="#9B5E43"/>
<path d="M106.555 320.716C112.612 328.904 119.141 332.952 123.021 334.928C130.213 338.599 137.121 339.164 150.843 340.294C157.183 340.858 169.486 341.894 169.959 339.729C170.337 338.223 164.565 336.999 158.414 332.293C151.506 327.022 148.477 320.621 144.408 312.056C138.919 300.667 137.5 291.255 137.121 288.902C137.027 288.337 135.891 279.96 136.554 273.371C138.73 252.569 161.158 238.263 165.606 235.533L175.731 231.015C175.731 231.015 199.768 213.037 203.459 188L167.404 185.176C167.404 185.176 162.104 219.343 134.661 232.427C105.514 246.263 97.7546 250.122 90.8464 264.053C85.4524 274.971 85.9256 286.643 85.9256 286.643C86.1148 291.066 86.8719 294.737 87.629 297.279C88.2914 298.879 89.3323 301.138 90.7518 303.679C94.6317 310.362 98.8902 314.598 100.215 315.821C101.824 317.045 103.906 318.833 106.555 320.716Z" fill="#FFFFC2"/>
<path d="M131.633 291.349C132.295 297.373 134.377 308.386 141.569 320.057C148.572 331.352 157.183 338.035 162.199 341.329L169.959 339.729L161.158 331.823L148.288 319.398C146.49 317.139 144.597 314.41 142.989 311.115C138.919 303.303 137.689 295.961 137.311 290.878C135.418 291.067 133.525 291.161 131.633 291.349Z" fill="#9B5E43"/>
<path d="M131.823 289.184C128.132 286.831 130.498 277.042 132.012 270.924C133.148 266.312 134.189 261.982 137.122 256.899C140.907 250.405 145.26 246.358 149.992 242.781C167.688 229.509 174.502 229.039 182.545 221.979C188.413 216.802 195.321 207.672 198.444 190.353C200.715 188.283 202.986 186.306 205.257 184.235C205.636 188 205.825 193.742 204.216 200.519C203.554 203.437 200.999 213.132 192.766 222.638C186.615 229.698 179.801 233.557 175.448 235.627C171.852 237.604 167.026 240.428 161.443 244.099C145.734 254.358 142.422 259.347 141.475 262.076C141.475 262.17 141.475 262.076 141.191 263.018C137.785 274.313 137.595 273.936 137.217 275.819C135.703 283.254 139.109 286.925 136.554 288.996C135.324 289.843 133.242 290.031 131.823 289.184Z" fill="#9B5E43"/>
<path d="M71.8253 266.406C67.7561 256.617 70.5951 244.569 79.0173 235.627C77.6924 236.569 65.1064 246.452 65.4849 263.394C65.8635 280.901 79.7744 290.408 81.0046 291.161C81.5724 289.655 82.1402 287.772 82.5187 285.608C82.9918 282.972 83.0865 280.713 83.0865 278.831C80.3421 277.325 74.7589 273.466 71.8253 266.406Z" fill="#9B5E43"/>
<path d="M150.181 258.688C149.708 262.641 149.803 267.912 152.452 272.618C160.78 287.396 187.75 286.549 204.216 280.995C207.907 279.772 224.94 273.936 225.792 263.77C225.981 260.947 224.94 257.747 222.764 255.77C218.789 252.099 211.313 252.099 204.311 256.523C204.784 255.77 209.515 249.087 217.843 248.805C223.899 248.522 228.158 251.723 229.293 252.664C230.713 253.793 232.322 255.488 233.173 257.935C237.148 269.23 219.641 283.725 218.127 284.949C203.459 296.808 181.031 300.761 162.862 292.761C159.834 291.443 141.38 283.443 142.043 271.395C142.516 265.182 147.437 260.759 150.181 258.688Z" fill="#9B5E43"/>
<path d="M163.713 345C144.219 345 124.82 342.647 107.123 329.469C102.392 325.893 89.6165 316.292 83.9385 300.761C83.3708 300.761 82.8976 300.573 82.4244 300.291C65.0122 289.184 56.4006 268.947 61.4161 251.252C66.1477 234.686 82.9922 220.756 96.7139 221.979C98.7011 222.167 100.121 222.638 102.203 223.297C104.284 223.956 107.029 224.803 112.234 226.121C117.249 227.344 122.264 228.38 127.375 229.227C134.756 225.462 142.043 220.85 148.478 213.037C157.089 202.495 161.915 188.471 163.051 171.34C163.146 170.022 163.997 168.893 165.322 168.422L206.96 154.492C207.906 154.209 208.853 154.304 209.704 154.774C210.556 155.245 211.124 155.998 211.313 156.939C213.3 166.634 215.288 185.929 205.919 206.543C201.566 216.049 195.983 223.485 190.494 229.133C192.955 229.039 197.781 228.756 208.38 227.721C213.774 227.25 218.221 226.78 221.912 226.403C234.877 225.085 239.23 224.615 246.327 226.027H246.422C250.585 226.874 257.399 228.191 264.023 232.05C270.269 228.944 295.82 213.32 283.991 173.223C283.896 173.034 283.896 172.846 283.896 172.658C283.707 170.87 283.423 165.034 287.397 163.057C291.561 161.081 295.914 165.222 297.334 166.634C304.336 173.317 312.285 200.236 308.784 223.768C306.04 242.216 297.05 256.052 282.666 264.053C283.139 269.136 282.95 275.065 281.814 281.748C279.543 295.867 272.445 308.762 260.806 320.057C237.337 342.835 206.771 343.87 179.801 344.718C174.312 344.812 169.013 345 163.713 345ZM93.9695 262.359C87.6292 273.842 87.2507 283.819 88.1024 290.219C90.4682 308.762 105.42 319.963 111.098 324.198C131.728 339.635 154.913 338.882 179.422 338.129C205.257 337.282 234.403 336.341 256.074 315.351C266.673 304.997 273.108 293.42 275.19 280.713C278.596 259.817 272.445 248.522 266.767 242.687C259.765 235.533 250.491 233.651 244.908 232.521H244.813C238.756 231.298 234.971 231.674 222.385 232.992C218.694 233.368 214.247 233.839 208.853 234.309C196.551 235.439 191.914 235.627 189.737 235.815C188.034 235.91 187.939 235.91 186.709 236.192C184.627 236.663 182.45 237.227 180.274 237.98C180.179 238.074 180.085 238.169 179.895 238.263C179.233 238.733 178.476 238.922 177.719 238.922C160.307 245.416 143.935 259.253 145.449 271.112C146.963 282.407 164.47 289.184 169.864 291.067C186.898 296.902 207.244 292.573 220.398 280.242C229.861 271.489 234.025 263.3 231.848 257.841C230.24 253.699 225.129 251.158 221.155 250.499C215.382 249.558 209.515 252.193 205.919 257.182C204.878 258.688 202.796 258.97 201.282 257.935C199.768 256.899 199.484 254.829 200.525 253.323C205.635 246.263 213.868 242.687 222.196 243.91C227.779 244.757 235.255 248.24 238.094 255.393C241.311 263.676 236.675 274.124 224.94 285.043C209.988 298.879 186.993 303.773 167.688 297.279C159.644 294.267 140.812 286.36 138.825 271.677C136.649 254.923 157.562 238.827 176.962 231.956C184.059 226.591 193.333 217.461 199.579 203.719C207.149 187.153 206.676 171.434 205.162 161.834L169.297 173.882C167.877 191.483 162.483 205.978 153.493 217.179C144.219 228.568 133.62 233.556 123.4 238.451C115.451 242.216 107.786 245.887 101.351 252.476C98.7011 255.205 96.1461 258.594 93.9695 262.359ZM94.9159 228.38C84.4117 228.38 71.5418 239.957 67.7565 252.946C64.0658 265.935 69.176 280.525 80.3425 290.408C80.2479 282.219 81.6674 271.018 87.9131 259.629C88.0077 259.441 88.1024 259.347 88.197 259.158C88.3862 258.782 88.6701 258.311 88.8594 257.935C91.2252 253.793 93.8749 250.405 96.7139 247.487C102.96 240.804 109.962 236.38 115.83 233.556C114.032 233.18 112.328 232.803 110.53 232.333C105.136 231.015 102.108 230.074 100.026 229.415C98.1333 228.85 97.2817 228.568 95.9568 228.38C95.6729 228.38 95.2944 228.38 94.9159 228.38ZM269.985 236.098C272.635 238.357 275.474 241.369 277.839 245.51C280.111 249.464 281.341 253.323 282.003 256.617C293.075 249.464 299.794 238.074 302.065 222.732C305.472 199.578 297.144 175.67 292.602 171.34C291.561 170.399 290.804 169.834 290.331 169.458C290.236 170.117 290.236 170.964 290.236 171.623C297.807 197.601 290.709 214.449 283.328 224.05C278.786 229.98 273.581 233.839 269.985 236.098Z" fill="black"/>
<path d="M186.709 190.447C186.709 190.447 210.178 200.707 208.38 221.132C208.38 221.132 213.679 218.685 211.881 209.743C211.881 209.743 215.666 214.073 224.183 211.437C224.183 211.437 216.897 212.002 208.001 200.425C199.106 188.941 187.845 188.188 187.845 188.188L186.709 190.447Z" fill="#BC2608"/>
<path d="M208.948 222.073C208.759 222.073 208.569 221.979 208.38 221.885C208.096 221.697 207.907 221.414 208.002 221.038C209.705 201.554 187.088 191.388 186.899 191.294C186.615 191.2 186.425 191.012 186.425 190.73C186.331 190.447 186.331 190.165 186.52 189.977L187.75 187.718C187.94 187.435 188.318 187.153 188.602 187.247C189.075 187.247 200.336 188.094 209.421 199.86C217.843 210.778 224.751 210.496 224.846 210.496C225.319 210.496 225.792 210.778 225.792 211.249C225.792 211.719 225.603 212.19 225.13 212.284C219.547 213.978 215.761 212.943 213.774 211.814C214.436 219.532 209.61 221.885 209.421 221.979C209.232 222.073 209.042 222.073 208.948 222.073ZM188.507 190.071C192.766 192.236 209.989 202.025 209.894 219.155C211.124 217.743 212.449 215.014 211.408 210.025C211.314 209.649 211.503 209.178 211.881 208.99C212.26 208.802 212.733 208.896 213.017 209.178C213.112 209.272 215.288 211.625 220.02 211.343C216.897 210.025 212.544 207.201 207.718 200.989C200.336 191.483 191.252 189.6 188.886 189.224L188.507 190.071Z" fill="black"/>
<path d="M128.037 100.37C153.02 63.5674 172.514 55.8492 186.33 56.6963C213.206 58.2964 243.582 93.6873 245.664 95.2874C245.286 99.8054 245.191 104.794 245.286 110.159C245.57 120.042 246.989 128.702 248.693 135.949C224.183 152.327 215.193 164.092 211.691 172.093C210.934 173.881 208.663 179.435 203.08 183.859C201.377 185.27 194.752 190.353 185.289 189.883C177.529 189.506 172.23 185.553 170.621 184.329C164.659 179.717 162.199 173.787 161.158 171.434C151.884 149.503 126.523 149.127 120.75 131.055C118.763 124.842 118.668 115.148 128.037 100.37Z" fill="url(#paint1_linear)"/>
<path d="M245.192 99.1467C245.286 96.5112 245.381 93.9698 245.57 91.5226C245.475 91.4285 245.381 91.3344 245.286 91.2402C245.192 93.7816 245.097 96.4171 245.192 99.1467Z" fill="#9B5E43"/>
<path d="M223.426 151.103C222.196 149.786 210.935 155.245 205.257 165.316C203.27 168.799 203.553 170.022 201.188 173.034C199.957 174.635 194.374 181.788 186.33 181.788C179.422 181.788 174.596 176.423 172.325 174.07C167.12 168.328 168.634 165.128 163.335 159.292C158.414 153.739 151.222 150.162 149.803 151.574C148.194 153.174 153.682 161.269 156.427 165.316C160.496 171.34 163.903 176.423 170.527 180.659C174.218 183.012 178.665 185.929 185.195 186.212C194.658 186.682 201.188 181.6 202.986 180.188C208.38 175.764 210.651 170.493 211.597 168.422C216.613 157.316 224.467 152.233 223.426 151.103Z" fill="#9B5E43"/>
<path d="M186.425 193.365C186.047 193.365 185.574 193.365 185.195 193.365C181.126 193.177 174.975 191.953 168.635 187.153C162.01 182.07 159.266 175.482 158.225 172.94C153.872 162.587 145.45 157.41 137.311 152.327C129.268 147.338 120.846 142.162 117.628 132.184C114.316 121.737 118.669 112.512 124.725 99.8055L125.104 99.0525C129.362 90.0165 141.948 68.0855 166.458 59.0496C169.297 58.0142 176.868 55.1904 187.183 55.0022C187.561 55.0022 197.214 54.8139 207.15 57.9201C229.956 64.8853 244.624 87.1928 248.599 93.7815L249.166 94.7228L249.072 95.7581C248.693 100.558 248.599 105.453 248.693 110.253C248.977 118.725 250.113 127.196 252.005 135.385L252.479 137.549L250.586 138.773C231.376 151.574 219.263 163.34 214.72 173.505L214.626 173.787C213.679 175.952 211.124 181.788 205.163 186.588C199.674 191.012 193.05 193.365 186.425 193.365ZM131.066 101.782L130.687 102.535C124.915 114.771 121.413 122.113 123.968 130.114C126.429 137.738 133.053 141.879 140.813 146.68C149.424 152.045 159.171 158.069 164.282 170.211C165.228 172.564 167.499 177.741 172.704 181.788C176.584 184.8 180.937 186.494 185.479 186.682C190.873 186.965 196.456 185.082 200.999 181.317C205.73 177.552 207.812 172.752 208.569 170.964L208.664 170.681C213.585 159.48 225.508 147.621 245.003 134.349C243.299 126.349 242.353 118.254 242.069 110.159C241.88 105.453 241.974 100.653 242.353 95.9464C238.757 90.1107 225.035 69.968 205.163 63.8499C196.267 61.1203 187.372 61.3085 187.277 61.3085C178.098 61.4968 171.284 64.0382 168.729 64.9794C145.923 73.6389 134.094 95.3816 131.066 101.782Z" fill="black"/>
<path d="M222.669 152.892C243.993 152.892 261.279 135.698 261.279 114.489C261.279 93.2795 243.993 76.0859 222.669 76.0859C201.346 76.0859 184.06 93.2795 184.06 114.489C184.06 135.698 201.346 152.892 222.669 152.892Z" fill="black"/>
<path d="M222.669 146.303C240.334 146.303 254.655 132.059 254.655 114.489C254.655 96.9185 240.334 82.6748 222.669 82.6748C205.004 82.6748 190.684 96.9185 190.684 114.489C190.684 132.059 205.004 146.303 222.669 146.303Z" fill="white"/>
<path d="M222.669 141.503C237.669 141.503 249.829 129.408 249.829 114.489C249.829 99.5696 237.669 87.4751 222.669 87.4751C207.669 87.4751 195.51 99.5696 195.51 114.489C195.51 129.408 207.669 141.503 222.669 141.503Z" fill="black"/>
<path d="M219.961 114.925C226.583 112.999 230.666 107.07 229.083 101.682C227.499 96.2931 220.847 93.4857 214.226 95.4112C207.604 97.3366 203.52 103.266 205.104 108.654C206.688 114.043 213.34 116.85 219.961 114.925Z" fill="white"/>
<path d="M233.337 123.634C236.095 122.832 237.797 120.361 237.137 118.116C236.477 115.871 233.706 114.701 230.947 115.503C228.188 116.306 226.486 118.776 227.146 121.021C227.806 123.267 230.578 124.436 233.337 123.634Z" fill="white"/>
<path d="M147.248 152.515C168.467 152.515 185.668 135.406 185.668 114.301C185.668 93.1952 168.467 76.0859 147.248 76.0859C126.029 76.0859 108.827 93.1952 108.827 114.301C108.827 135.406 126.029 152.515 147.248 152.515Z" fill="black"/>
<path d="M147.247 146.115C164.912 146.115 179.233 131.871 179.233 114.3C179.233 96.73 164.912 82.4863 147.247 82.4863C129.582 82.4863 115.262 96.73 115.262 114.3C115.262 131.871 129.582 146.115 147.247 146.115Z" fill="white"/>
<path d="M147.247 141.314C162.247 141.314 174.407 129.22 174.407 114.3C174.407 99.3811 162.247 87.2866 147.247 87.2866C132.248 87.2866 120.088 99.3811 120.088 114.3C120.088 129.22 132.248 141.314 147.247 141.314Z" fill="black"/>
<path d="M144.521 114.652C151.142 112.726 155.226 106.797 153.642 101.409C152.058 96.0202 145.407 93.2128 138.785 95.1382C132.164 97.0636 128.08 102.993 129.664 108.381C131.248 113.77 137.899 116.577 144.521 114.652Z" fill="white"/>
<path d="M157.896 123.361C160.655 122.558 162.357 120.088 161.697 117.843C161.037 115.597 158.265 114.428 155.506 115.23C152.747 116.032 151.046 118.503 151.706 120.748C152.366 122.993 155.137 124.163 157.896 123.361Z" fill="white"/>
<path d="M213.344 73.8047C214.233 72.2741 212.715 69.748 209.954 68.1625C207.193 66.577 204.235 66.5325 203.346 68.0631C202.458 69.5937 203.975 72.1198 206.736 73.7053C209.497 75.2908 212.456 75.3353 213.344 73.8047Z" fill="white"/>
<path d="M219.073 75.7098C220.119 75.7098 220.966 74.867 220.966 73.8273C220.966 72.7876 220.119 71.9448 219.073 71.9448C218.028 71.9448 217.181 72.7876 217.181 73.8273C217.181 74.867 218.028 75.7098 219.073 75.7098Z" fill="white"/>
<path d="M189.359 171.905C189.454 170.681 189.833 169.552 190.211 168.422C190.4 167.858 190.684 167.293 190.968 166.728C191.347 166.163 191.631 165.693 192.104 165.128C192.577 164.657 192.955 163.999 193.429 163.528C193.902 162.963 194.659 162.681 195.416 162.587C196.268 162.493 197.025 162.587 197.782 162.963C198.066 163.057 198.444 163.246 198.823 163.622C199.58 164.469 199.958 165.787 199.485 166.822C199.201 167.575 198.633 167.952 198.444 168.14C197.025 169.175 195.794 168.328 193.712 169.364C193.429 169.552 193.05 169.74 192.388 170.211C191.536 170.776 190.59 171.529 189.738 172.187L189.359 171.905Z" fill="black"/>
<path d="M183.776 171.905C183.681 170.681 183.303 169.552 182.924 168.422C182.735 167.858 182.451 167.293 182.167 166.728C181.788 166.163 181.505 165.693 181.031 165.128C180.558 164.657 180.18 163.999 179.707 163.528C179.233 162.963 178.476 162.681 177.719 162.587C176.868 162.493 176.111 162.587 175.353 162.963C175.07 163.057 174.691 163.246 174.313 163.622C173.555 164.469 173.177 165.787 173.65 166.822C173.934 167.575 174.502 167.952 174.691 168.14C176.111 169.175 177.341 168.328 179.423 169.364C179.707 169.552 180.085 169.74 180.748 170.211C181.599 170.776 182.546 171.529 183.397 172.187L183.776 171.905Z" fill="black"/>
<path d="M97.187 266.124C97.2817 263.865 98.3226 262.171 100.499 258.97C103.243 254.829 106.272 252.57 110.814 249.37C116.587 245.134 119.52 243.063 121.886 243.816C123.495 244.287 123.495 245.228 128.699 251.534C132.296 256.052 132.769 256.147 133.053 257.464C133.715 260.947 130.876 262.453 128.132 268.853C124.914 276.289 126.428 279.96 123.211 281.937C120.75 283.443 117.722 282.596 114.41 281.654C107.691 279.489 96.9978 273.748 97.187 266.124Z" fill="#D8A579"/>
<path d="M115.262 321.845C112.707 320.245 109.3 318.08 105.61 314.598C102.676 311.868 97.9444 307.444 95.3893 300.385C93.8752 296.149 91.888 288.243 94.5377 286.737C96.1464 285.796 98.3229 288.055 103.055 290.502C114.978 296.432 122.643 292.384 126.902 297.938C128.794 300.479 127.375 301.514 128.7 307.633C131.728 321.281 141.57 327.399 139.677 329.94C138.068 332.105 129.93 328.905 125.388 327.21C120.751 325.234 117.249 323.163 115.262 321.845Z" fill="#D8A579"/>
<path d="M163.24 209.931C163.145 208.613 164.281 206.731 166.457 202.966C169.769 196.942 171.378 195.718 173.082 195.248C173.933 195.059 174.596 195.06 175.921 195.154C178.949 195.342 180.368 196.283 182.829 197.13C187.655 198.636 189.074 197.036 190.305 198.448C193.238 201.648 186.519 211.814 185.762 213.037C183.018 217.085 180.463 220.944 176.488 221.132C173.555 221.32 171.284 219.532 168.823 217.649C166.647 215.955 163.429 213.508 163.24 209.931Z" fill="#D8A579"/>
<path d="M135.229 237.039C135.702 235.157 137.974 235.251 142.705 231.768C145.639 229.603 147.91 227.344 148.478 226.686C152.168 222.826 152.736 220.662 154.439 220.662C155.575 220.662 156.616 222.073 158.793 224.709C160.874 227.344 161.821 228.662 161.726 229.792C161.537 232.145 158.035 232.71 152.641 235.91C145.071 240.428 144.03 244.099 140.623 243.534C137.406 243.063 134.661 239.392 135.229 237.039Z" fill="#D8A579"/>
<path d="M183.775 232.521C183.68 232.521 183.68 232.521 183.775 232.521C163.051 231.768 152.83 212.472 152.452 211.625C151.979 210.684 152.357 209.555 153.303 209.084C154.25 208.613 155.385 208.99 155.858 209.931C155.953 210.119 165.511 228.097 183.87 228.756C184.911 228.756 185.762 229.697 185.668 230.733C185.573 231.674 184.721 232.521 183.775 232.521Z" fill="black"/>
<path d="M146.774 255.299C131.822 254.641 124.63 237.792 124.346 237.133C123.968 236.192 124.441 235.063 125.387 234.686C126.334 234.31 127.469 234.78 127.848 235.721C127.943 235.91 134.472 251.064 146.869 251.629C147.91 251.629 148.762 252.57 148.667 253.605C148.667 254.452 147.815 255.299 146.774 255.299Z" fill="black"/>
<path d="M125.86 292.29C122.359 292.29 118.479 291.914 114.315 290.784C98.5117 286.454 90.1841 274.5 87.3451 269.606C86.872 268.665 87.1559 267.535 88.0075 267.065C88.9539 266.594 90.0895 266.876 90.5626 267.723C93.2123 272.241 100.783 283.254 115.262 287.207C123.968 289.56 131.633 288.525 136.648 287.207C137.689 286.925 138.73 287.49 139.014 288.525C139.298 289.56 138.73 290.596 137.689 290.878C134.661 291.537 130.592 292.29 125.86 292.29Z" fill="black"/>
<path d="M185.857 341.611C185.763 341.611 185.668 341.611 185.668 341.611C178.381 340.764 159.928 336.999 146.869 320.528C126.902 295.302 138.541 264.335 139.109 263.112C139.488 262.17 140.623 261.7 141.57 262.076C142.516 262.453 142.989 263.582 142.611 264.524C142.137 265.747 131.16 294.737 149.803 318.269C162.01 333.611 179.233 337.188 186.047 337.941C187.088 338.035 187.845 338.976 187.75 340.011C187.655 340.858 186.804 341.611 185.857 341.611Z" fill="black"/>
<path d="M294.874 159.481L310.583 139.809L308.785 138.491C307.365 137.455 307.081 135.479 308.217 134.067L322.412 115.901L337.553 127.572L323.736 145.362C322.695 146.68 320.803 146.962 319.383 146.021L316.166 143.668C310.109 151.48 304.148 159.386 298.091 167.199C295.631 165.881 293.076 164.657 290.615 163.34L294.874 159.481Z" fill="white"/>
<path d="M327.144 119.572C323.264 124.466 319.384 129.267 315.409 134.161L327.144 119.572Z" fill="white"/>
<path d="M331.875 124.278C328.279 128.89 324.588 133.502 320.992 138.114L331.875 124.278Z" fill="white"/>
<path d="M298.091 169.552C297.712 169.552 297.334 169.458 297.05 169.27L289.574 165.41C288.912 165.034 288.439 164.375 288.344 163.622C288.249 162.869 288.533 162.022 289.196 161.551L293.265 157.88L307.27 140.279C306.135 139.432 305.472 138.114 305.283 136.702C305.094 135.196 305.472 133.785 306.419 132.561L320.613 114.395C321.371 113.36 322.885 113.171 323.926 113.924L339.067 125.596C340.108 126.349 340.297 127.855 339.54 128.89L325.724 146.68C323.926 149.033 320.519 149.503 318.153 147.715L316.828 146.68L300.173 168.422C299.51 169.175 298.753 169.552 298.091 169.552ZM294.684 162.775L297.429 164.187L314.273 142.256L314.368 142.162C315.125 141.22 316.544 141.032 317.585 141.691L320.897 144.044C321.276 144.327 321.749 144.232 321.938 143.856L334.335 127.949L322.885 119.101L310.109 135.479C309.92 135.667 309.92 135.949 309.92 136.044C309.92 136.138 310.015 136.42 310.204 136.608L312.002 137.926C312.57 138.303 312.854 138.867 312.948 139.526C313.043 140.185 312.854 140.844 312.475 141.315L296.861 160.892C296.766 160.987 296.672 161.081 296.577 161.175L294.684 162.775Z" fill="black"/>
<path d="M315.409 135.573C315.125 135.573 314.747 135.479 314.557 135.29C313.99 134.82 313.8 133.879 314.368 133.314L326.103 118.725C326.576 118.16 327.522 117.972 328.09 118.536C328.658 119.007 328.847 119.948 328.279 120.513L316.545 135.102C316.261 135.385 315.882 135.573 315.409 135.573Z" fill="black"/>
<path d="M320.992 139.526C320.708 139.526 320.424 139.432 320.14 139.244C319.478 138.773 319.383 137.832 319.856 137.267L330.739 123.431C331.212 122.772 332.158 122.678 332.726 123.149C333.389 123.619 333.483 124.56 333.01 125.125L322.127 138.962C321.749 139.338 321.37 139.526 320.992 139.526Z" fill="black"/>
<path d="M308.5 162.304C303.674 159.104 298.942 155.81 294.116 152.609C287.776 161.457 281.435 170.211 275.095 179.058C274.149 182.729 275.663 186.682 278.88 188.753C282.192 190.824 286.546 190.542 289.479 187.906C295.725 179.341 302.16 170.87 308.5 162.304Z" fill="#5B318C"/>
<path d="M297.712 157.033C296.576 156.374 295.535 155.621 294.4 154.962C288.438 163.245 282.476 171.528 276.514 179.717C276.42 180.094 276.325 180.658 276.325 181.317C276.325 182.353 276.609 183.2 276.798 183.765C283.896 174.823 290.804 165.975 297.712 157.033Z" fill="#452669"/>
<path d="M304.525 161.739C304.999 162.116 305.566 162.398 306.039 162.775C300.078 171.058 294.021 179.246 288.059 187.529C287.018 187.812 285.977 188.094 284.937 188.282C291.466 179.341 297.996 170.493 304.525 161.739Z" fill="#FFF7D2"/>
<path d="M283.517 192.424C281.436 192.424 279.354 191.86 277.461 190.636C273.392 188 271.499 183.106 272.729 178.4C272.824 178.117 272.919 177.835 273.108 177.647L292.129 151.198C292.886 150.162 294.306 149.88 295.346 150.633L309.731 160.328C310.298 160.704 310.582 161.269 310.771 161.928C310.866 162.587 310.677 163.246 310.298 163.716L291.183 189.224C291.088 189.318 290.993 189.506 290.804 189.601C288.817 191.483 286.167 192.424 283.517 192.424ZM277.272 180C276.704 182.635 277.84 185.271 280.111 186.683C282.477 188.189 285.505 188 287.681 186.212L305.094 162.869L294.684 155.81L277.272 180Z" fill="black"/>
<path d="M293.076 169.081C296.672 174.635 299.321 175.388 298.848 176.894C297.902 180 286.167 181.317 281.814 176.235C281.436 175.764 280.016 174.164 280.111 171.999C280.111 170.681 280.679 169.928 283.139 166.634C286.924 161.457 287.303 161.175 287.871 161.175C289.669 161.175 289.953 164.281 293.076 169.081Z" fill="#D8A579"/>
<path d="M293.076 169.081C296.672 174.635 299.321 175.388 298.848 176.894C297.902 180 286.167 181.317 281.814 176.235C281.436 175.764 280.016 174.164 280.111 171.999C280.111 170.681 280.679 169.928 283.139 166.634C286.924 161.457 287.303 161.175 287.871 161.175C289.669 161.175 289.953 164.281 293.076 169.081Z" stroke="black" stroke-width="4" stroke-miterlimit="10"/>
<defs>
<linearGradient id="paint0_linear" x1="96.508" y1="193.816" x2="313.865" y2="306.681" gradientUnits="userSpaceOnUse">
<stop offset="0.00793651" stop-color="#D8A579"/>
<stop offset="0.1772" stop-color="#C47B55"/>
<stop offset="0.3148" stop-color="#D8A579"/>
<stop offset="0.5159" stop-color="#C47B55"/>
<stop offset="0.6799" stop-color="#D8A579"/>
<stop offset="0.791" stop-color="#C47B55"/>
<stop offset="0.8388" stop-color="#C7805A"/>
<stop offset="0.8982" stop-color="#CE9067"/>
<stop offset="0.955" stop-color="#D8A579"/>
</linearGradient>
<linearGradient id="paint1_linear" x1="143.444" y1="90.7654" x2="247.513" y2="166.556" gradientUnits="userSpaceOnUse">
<stop offset="0.00793651" stop-color="#D8A579"/>
<stop offset="0.1772" stop-color="#C47B55"/>
<stop offset="0.3148" stop-color="#D8A579"/>
<stop offset="0.5159" stop-color="#C47B55"/>
<stop offset="0.6799" stop-color="#D8A579"/>
<stop offset="0.791" stop-color="#C47B55"/>
<stop offset="0.8388" stop-color="#C7805A"/>
<stop offset="0.8982" stop-color="#CE9067"/>
<stop offset="0.955" stop-color="#D8A579"/>
</linearGradient>
</defs>
</svg>
