<svg width="478" height="478" viewBox="0 0 478 478" fill="none" xmlns="http://www.w3.org/2000/svg">
<path d="M341.847 306.128C341.616 306.013 341.271 305.898 341.041 305.783L341.847 306.128Z" fill="#4C3F37"/>
<path d="M369.695 327.27C365.437 319.801 360.029 312.447 354.275 308.081L341.846 306.128C342.422 306.357 313.077 310.379 305.367 320.031C291.442 337.266 316.069 340.254 328.612 341.288C340.35 342.322 354.735 344.735 366.358 341.288C374.759 338.76 373.723 334.279 369.695 327.27Z" fill="#4C3F37"/>
<path d="M261.176 287.973C254.502 278.206 249.554 273.495 237.125 273.151L223.661 277.632C224.121 277.172 225.387 277.172 224.582 276.827C215.26 280.389 203.522 278.436 195.927 285.905C189.253 292.569 185.455 310.494 192.935 317.618C199.61 323.938 217.677 320.491 226.078 319.801C241.038 318.652 258.53 319.571 272.799 314.516C273.95 306.128 265.779 294.867 261.176 287.973Z" fill="#A0663A"/>
<path d="M410.202 345.54C404.679 334.394 403.298 334.509 384.54 330.717C372.572 328.304 360.719 325.431 348.981 322.789C344.953 321.869 340.58 321.64 338.854 317.733C344.378 314.401 350.822 313.826 356.921 312.218C354.735 303.945 336.322 296.361 328.497 292.914C319.291 288.777 308.128 284.871 298.347 284.181C271.303 282.573 245.296 288.662 219.058 289.237C222.856 286.364 230.566 279.355 233.213 279.7L237.355 273.036C218.713 273.036 202.717 269.703 184.074 271.542C171.301 272.806 158.527 280.045 145.869 281.883C133.9 283.607 121.472 283.607 109.389 285.445C100.183 286.824 85.2225 286.479 77.052 290.616C71.9886 293.259 69.4569 299.693 66.0045 304.174C61.8617 309.46 56.9134 314.056 52.5404 319.112C47.477 325.087 39.0763 330.947 35.5089 337.841C32.4018 343.931 35.5089 351.4 34.9335 358.409C33.8978 370.703 23.5408 396.671 31.9415 406.208C46.9016 423.214 80.7345 425.972 101.909 430.453C116.178 433.44 129.067 436.198 143.797 436.773C161.059 437.462 175.789 433.9 192.13 432.176C219.633 429.304 245.986 430.108 273.835 430.108C291.212 430.108 308.013 427.121 325.39 427.121C343.917 427.121 445.186 426.431 439.662 403.451C439.317 403.566 418.603 362.43 410.202 345.54Z" fill="#564840"/>
<path d="M449.674 397.246C448.408 393.224 444.495 389.892 441.734 386.56C437.476 381.274 433.793 375.299 430.571 369.439C424.127 357.604 415.036 335.888 398.234 334.509L398.119 334.739C403.643 341.288 392.48 344.62 387.762 346.918C383.159 349.102 378.671 351.514 374.068 353.468C369.235 355.536 368.544 355.996 366.473 360.477C361.064 371.852 348.751 373.346 340.235 381.619C333.215 388.398 327.576 396.097 323.203 404.6C319.176 412.528 308.704 421.835 302.604 428.385C304.906 428.155 321.247 429.419 325.85 429.764C338.624 430.798 351.858 430.798 364.747 430.913C378.441 430.913 392.02 429.764 405.714 429.764C412.504 429.764 419.178 429.534 425.508 427.236C438.281 422.525 454.392 411.954 449.674 397.246Z" fill="#4C3F37"/>
<path d="M286.954 349.561C280.625 350.94 274.526 351.17 268.082 351.744C252.776 353.123 237.816 349.216 222.741 350.595C206.975 351.974 192.015 354.732 176.019 354.732C164.166 354.732 153.004 352.778 141.496 351.399C140.921 355.306 142.877 358.868 144.143 362.43C146.444 368.75 151.278 374.035 151.738 380.585C152.313 387.364 151.738 394.143 152.083 400.923C152.313 404.025 153.464 406.668 153.694 409.77C153.924 413.447 152.428 415.515 151.047 418.618C148.171 425.052 146.099 431.027 141.841 436.658V436.772C156.916 442.288 175.099 439.185 190.864 437.922C204.559 436.772 219.519 435.509 232.638 432.291C239.082 430.683 241.959 427.006 246.907 422.984C251.741 419.192 257.149 416.435 262.443 413.217C267.391 410.23 272.339 408.162 275.447 403.106C279.129 397.131 279.474 392.42 279.935 385.641C280.165 381.734 278.093 377.138 278.899 373.576C279.474 370.933 282.812 369.439 283.962 366.682C286.839 359.672 293.399 355.076 296.621 348.297C293.514 347.837 289.831 348.872 286.954 349.561Z" fill="#4C3F37"/>
<path d="M113.761 403.106C113.416 394.029 113.301 384.377 112.035 375.414C111.115 368.635 105.361 363.349 103.059 356.8C100.067 348.527 96.4998 347.838 87.6388 348.642C78.0874 349.561 68.1907 352.319 58.6392 352.319L57.4884 353.812C56.798 355.306 54.3813 357.374 53.5758 359.328C52.6551 361.741 53.1155 364.269 52.3099 366.682C50.4687 372.197 48.8576 376.448 51.1591 382.194C53.4607 387.824 56.5678 392.994 58.7543 398.74C61.286 405.174 63.7026 414.252 69.1113 419.077C73.139 422.754 77.9723 426.087 83.2659 426.891C90.1705 427.925 96.73 428.959 103.52 430.683C119.17 434.704 114.107 411.609 113.761 403.106Z" fill="#4C3F37"/>
<path d="M135.627 330.028C129.527 321.295 119.286 319.571 111.805 311.643C103.405 302.681 83.3812 289.812 83.3812 289.812C78.4329 290.616 70.7227 297.165 68.191 300.498C64.7386 305.209 59.9054 309.69 55.7626 314.056C48.7428 321.64 36.5446 330.717 34.1279 340.829C44.9452 348.182 54.0364 354.042 67.7307 353.353C80.7344 352.778 92.7025 349.446 105.821 350.021C113.417 350.366 121.932 348.297 129.182 350.021C135.627 351.515 166.583 353.238 173.142 354.157C166.928 350.366 139.769 335.888 135.627 330.028Z" fill="#847166"/>
<path d="M296.851 347.263C296.966 347.148 297.081 347.148 297.196 347.033C297.311 346.689 297.311 346.459 297.426 346.114L296.851 347.263Z" fill="#847166"/>
<path d="M297.196 347.033C294.549 356.455 281.43 363.464 278.898 373.576C290.291 374.15 300.303 373.921 311.12 377.827C317.91 380.24 329.418 388.054 336.092 385.756C340.58 384.147 344.723 378.172 349.096 375.644C353.814 373.001 360.374 371.852 364.631 368.98C368.889 365.992 367.163 362.315 370.04 358.524C372.111 355.881 376.599 353.927 379.591 352.434C389.258 347.493 403.758 342.092 399.615 334.624C367.048 331.866 324.354 330.257 297.196 347.033Z" fill="#847166"/>
<path d="M150.587 290.731C156.111 300.612 159.563 310.149 171.416 314.516C184.42 319.342 197.654 318.882 210.658 322.444C221.935 325.431 234.709 343.356 246.332 341.173C249.324 340.599 266.7 317.044 278.438 312.218C290.406 307.392 306.517 309.575 319.406 309C315.493 296.936 297.426 295.212 286.149 295.212C271.649 295.212 257.609 295.901 243.34 294.637C230.911 293.488 220.554 295.557 208.816 290.846C198.804 286.939 191.324 284.641 180.277 285.1C170.61 285.56 161.634 288.318 152.313 290.156L150.587 290.731Z" fill="#D8894E"/>
<path d="M137.238 345.769C130.563 345.195 123.774 345.539 117.099 345.195C111.805 344.965 106.282 344.046 100.988 344.276C92.0121 344.62 82.6908 347.378 73.7147 348.182C68.7663 348.642 65.314 346.803 60.826 345.999C56.5681 345.195 52.3102 344.965 48.0523 344.046C42.8738 342.897 39.3064 341.748 34.1279 340.943L48.6277 351.744C52.0801 353.813 52.1951 355.766 51.7348 359.328C51.3896 362.775 50.8142 367.601 50.8142 371.048C52.3102 368.061 55.5324 360.477 57.7189 358.524C60.4807 355.996 65.0839 356.455 68.8814 356.111C73.3695 355.651 77.8575 355.306 82.3455 354.847C86.2582 354.502 91.6668 353.698 95.5795 354.387C96.2699 354.502 96.8453 354.617 97.6509 354.732C98.6866 357.719 102.829 361.396 105.131 363.579C108.123 366.452 110.54 369.439 112.496 372.542C111.46 368.175 108.929 362.66 109.504 358.179C109.849 355.651 111.345 356.57 114.107 356.455C116.063 356.34 118.25 356.225 120.436 356.225C124.924 356.225 129.297 357.03 133.67 356.915C138.043 356.915 142.416 356.225 146.904 356.225C156.341 356.225 165.086 355.996 174.063 354.502C161.519 353.927 149.551 346.918 137.238 345.769Z" fill="#998B81"/>
<path d="M128.837 354.617C132.98 356.685 137.123 360.247 139.309 364.039C142.301 369.21 142.301 375.529 144.948 380.7C146.904 384.492 149.551 387.709 150.472 391.845C151.047 394.373 151.737 397.131 151.852 399.774C151.047 394.603 150.817 388.973 151.047 383.687C151.162 381.045 152.083 378.747 152.083 376.104C152.083 372.427 148.976 368.175 147.71 364.728C147.019 362.66 146.099 360.707 145.293 358.638C144.948 357.604 144.488 355.421 143.912 354.962L128.837 354.617Z" fill="#E89256"/>
<path d="M377.635 350.48C373.723 351.744 369.695 353.238 366.473 355.651C359.223 360.822 352.088 369.439 343.342 372.082C341.271 372.771 338.854 373.921 336.783 374.265C332.985 375.07 327.922 373.001 324.354 372.082C316.069 370.014 306.632 369.669 298.002 370.129C294.319 370.359 290.752 371.278 287.184 371.852C285.113 372.197 280.51 372.312 279.014 373.346V373.576C286.033 373.576 293.859 374.725 301.339 375.989C305.482 376.793 308.474 378.057 312.156 379.781C315.608 381.389 319.751 382.194 322.743 384.492C322.053 387.134 321.938 390.122 321.247 392.994C320.212 397.016 317.68 400.348 316.414 404.255C314.688 409.426 313.077 414.481 311.696 419.767C312.847 417.124 316.414 414.596 318.37 412.413C319.981 410.69 321.592 408.851 323.204 407.013C325.275 404.715 327.577 402.416 329.073 399.774C331.834 395.063 332.41 390.696 336.783 386.905C340.235 383.917 344.608 382.423 347.715 379.206C349.556 377.482 350.477 376.793 353.009 376.104C357.382 374.955 363.136 373.001 366.473 370.014C370.616 366.337 369.005 359.443 373.032 355.881C375.219 354.042 379.016 353.353 381.548 351.859C383.619 350.595 385.921 349.446 387.762 347.838C384.655 348.182 380.512 349.561 377.635 350.48Z" fill="#998B81"/>
<path d="M296.621 306.013C287.53 304.979 278.323 305.668 269.232 304.174C256.574 302.106 244.26 298.429 231.602 296.821C226.308 296.131 220.9 296.246 215.606 296.476C211.003 296.706 206.63 296.016 202.142 295.786C196.043 295.557 190.404 297.51 184.42 297.74C182.694 297.855 180.968 297.51 179.356 297.97L179.587 298.199C183.039 300.612 189.598 300.727 193.856 300.957C201.221 301.302 207.205 300.038 214.225 302.451C224.812 306.128 236.895 305.898 246.907 310.954C251.971 313.481 257.84 315.665 260.832 320.261C261.982 321.984 261.867 325.087 261.982 324.972C263.363 323.938 269.232 319.227 270.843 317.848C275.446 313.826 279.934 311.069 286.264 310.034C289.946 309.345 293.974 309.23 297.656 309.23C300.994 309.23 305.367 309 309.279 309.115C306.402 306.587 300.533 306.472 296.621 306.013Z" fill="#E89256"/>
<path d="M122.163 317.043C117.1 313.596 112.496 309.575 107.893 305.668C100.413 299.233 98.9173 290.156 88.4452 287.513C87.5245 287.284 76.0168 289.352 71.874 293.603C70.1478 295.327 68.8819 297.395 67.7312 299.578C66.9256 301.302 65.4296 304.404 63.9336 305.668L66.3502 304.174C71.6438 301.876 77.9731 304.404 82.6913 306.702C91.207 310.724 99.2625 315.435 108.123 318.997C112.957 320.95 118.135 323.938 123.084 325.202C126.076 326.006 129.528 326.006 132.635 326.58C133.095 324.167 124.234 318.537 122.163 317.043Z" fill="#E89256"/>
<path d="M333.791 293.833C333.101 290.041 332.41 286.249 331.72 282.458C331.49 281.424 331.259 280.389 330.914 279.355C330.569 278.781 330.109 278.091 329.763 277.402C329.533 277.172 329.303 276.942 329.073 276.713C325.736 273.38 322.053 270.393 318.371 267.405C317.795 266.946 317.105 266.371 316.529 265.912C313.998 267.405 312.387 268.095 312.387 268.095C315.379 269.933 321.478 274.185 325.966 282.113C330.339 289.582 331.144 296.706 331.259 300.268C332.64 299.578 333.906 298.889 335.172 298.085C334.482 296.706 334.021 295.327 333.791 293.833Z" fill="#4C3F37"/>
<path d="M341.386 301.417C336.323 287.169 326.081 279.355 318.831 273.84C314.573 270.508 304.676 263.154 289.946 260.281C279.589 258.213 274.181 259.707 244.951 262.35C241.384 262.694 227.229 263.843 223.777 264.073C223.662 264.073 223.662 264.073 223.547 264.073C223.431 264.073 223.316 264.073 223.201 264.073C223.086 264.073 222.971 264.073 222.971 264.073C222.856 264.073 222.741 264.073 222.626 264.073C222.511 264.073 222.396 264.073 222.281 264.073C222.166 264.073 222.166 264.073 222.05 264.073C221.935 264.073 221.705 264.073 221.59 264.073C221.475 264.073 221.36 264.073 221.36 264.073C221.13 264.073 220.785 264.073 220.554 264.073H220.439C220.324 264.073 220.324 264.073 220.209 264.073H220.094H219.979H219.864H219.749H219.634H219.519H219.404H219.289H219.174H219.058H218.943H218.828H218.713C218.598 264.073 218.598 264.073 218.483 264.073H218.368C218.253 264.073 218.253 264.073 218.138 264.073H218.023C217.908 264.073 217.793 264.073 217.678 264.188C214.801 264.877 211.809 265.682 208.817 266.716C210.428 265.452 212.384 263.958 214.57 262.005C215.951 261.086 217.332 259.937 218.828 258.788C199.725 259.132 180.738 257.639 161.75 255.226C144.718 267.52 125.961 270.508 111.691 285.675C108.354 289.467 105.131 293.718 102.37 298.774C102.37 298.774 102.37 298.774 102.37 298.889C102.254 299.119 102.139 299.233 102.139 299.233C102.024 299.578 77.1675 292.224 69.4573 298.199C61.5169 304.404 65.5447 329.453 76.8223 334.968C81.0802 337.037 85.5682 336.002 91.0919 340.599C95.2347 344.046 96.8458 348.182 97.1911 348.987C99.2625 354.272 97.7664 357.834 97.8815 361.626C98.2268 373.231 113.417 381.849 120.322 385.87C131.369 392.19 141.266 394.029 151.738 395.752C181.543 400.693 196.503 403.106 208.932 403.221C232.407 403.336 268.312 403.565 302.03 381.504C313.192 374.15 336.553 358.983 342.767 331.981C343.688 327.615 346.335 315.32 341.386 301.417Z" fill="#4C3F37"/>
<path d="M336.092 286.939C386.727 261.086 366.128 183.986 354.965 173.415C343.803 162.729 345.298 177.436 345.298 177.436C362.56 236.267 317.104 254.881 317.104 254.881C320.096 256.719 326.196 260.971 330.684 268.899C335.172 276.368 335.977 283.377 336.092 286.939ZM98.8018 330.257C78.7783 317.388 69.3419 294.637 74.9807 274.874C80.2743 256.26 99.032 240.748 113.647 242.012C117.675 242.357 119.056 243.735 131.944 246.953C140.345 249.021 147.25 250.285 151.968 251.089C147.019 252.468 121.357 260.052 106.972 286.135C96.5003 305.209 97.9963 323.593 98.8018 330.257ZM212.844 254.536C219.979 249.251 233.903 237.531 242.994 217.537C254.732 191.569 251.05 167.899 249.324 159.396L198.689 176.402C196.963 204.324 187.642 220.41 180.162 229.602C157.146 257.983 126.19 252.698 108.238 284.066C105.706 288.548 97.4209 303.37 99.8375 321.869C102.945 346.229 122.393 360.822 129.297 365.992C153.809 384.492 180.852 384.147 214.915 383.802C252.546 383.458 278.668 383.113 302.72 364.269C308.589 359.673 330.914 340.943 335.172 310.264C336.207 302.451 339.199 281.194 325.85 265.222C316.989 254.651 305.021 251.204 298.232 249.366C285.113 245.689 273.26 246.723 250.014 248.906C246.447 249.251 232.177 250.4 228.84 250.63C224.927 250.859 224.812 250.744 222.626 251.204C197.769 256.719 166.813 277.976 169.46 298.199C171.761 315.55 197.654 324.397 201.796 325.776C225.503 333.934 251.51 326.466 267.276 311.758C270.498 308.656 287.299 293.029 282.236 279.93C279.704 273.265 272.339 269.474 266.125 268.44C257.609 267.176 248.863 270.967 243.685 278.206" fill="url(#paint0_linear)"/>
<path opacity="0.4" d="M287.529 358.064C296.735 355.076 302.834 350.595 306.287 347.608C309.394 344.965 318.83 336.807 316.644 331.406C315.378 328.074 309.854 326.466 309.279 326.236C305.826 325.202 303.87 326.006 301.568 324.397C299.727 323.018 299.037 321.065 298.461 319.686C294.434 308.426 292.477 302.795 289.6 300.612C284.422 296.591 276.481 299.348 275.906 299.578C267.851 302.566 264.283 311.528 264.743 317.848C264.859 319.342 265.089 320.146 265.664 321.984C270.612 339.909 269.116 343.241 272.684 348.412C274.525 351.17 278.438 355.421 287.529 358.064Z" fill="url(#paint1_radial)"/>
<path opacity="0.4" d="M199.495 370.129C199.495 370.129 217.793 379.666 225.388 366.912C231.026 357.489 233.673 351.859 231.947 348.412C231.026 346.689 229.876 347.263 228.38 345.539C223.892 340.139 229.185 331.291 225.963 329.223C224.467 328.304 223.431 330.257 219.634 330.142C214.801 329.913 213.65 326.58 208.241 325.891C205.364 325.431 205.479 326.351 201.912 326.351C193.741 326.236 190.404 321.41 187.297 322.789C185.456 323.593 184.535 326.121 184.42 334.739C184.075 351.17 183.845 362.66 191.67 367.831C193.281 368.635 195.698 369.899 199.495 370.129Z" fill="url(#paint2_radial)"/>
<path opacity="0.4" d="M282.811 278.551C282.811 278.551 295.815 285.33 301.224 276.253C306.632 267.176 308.244 263.154 303.41 261.086C298.577 259.017 298.002 261.775 295.7 256.375C293.399 250.974 291.212 244.884 284.653 247.297C277.978 249.825 269.232 252.123 272.454 257.983C275.561 263.843 270.843 278.206 282.811 278.551Z" fill="url(#paint3_radial)"/>
<path opacity="0.4" d="M344.263 262.12C344.263 262.12 357.266 268.899 362.675 259.822C368.084 250.744 369.695 246.723 364.861 244.655C360.028 242.586 359.453 245.344 357.151 239.944C354.965 234.543 352.663 228.453 346.104 230.866C339.429 233.394 330.683 235.692 333.906 241.552C337.013 247.412 332.179 261.775 344.263 262.12Z" fill="url(#paint4_radial)"/>
<path d="M179.241 359.788C180.392 358.639 184.305 361.166 188.563 363.35C188.563 363.35 201.221 369.669 223.201 371.967C241.268 373.806 255.768 367.946 268.657 362.89C284.422 356.57 303.295 348.757 315.954 328.879C319.521 323.248 330.569 306.013 326.656 284.066C324.585 272.691 319.291 264.418 315.724 259.707C318.946 261.316 326.541 265.912 331.604 275.104C335.632 282.343 336.323 289.122 336.438 292.684C333.215 305.553 329.993 318.537 326.656 331.406L295.815 365.648L252.201 379.781L193.741 383.917C185.916 373.806 177.17 361.856 179.241 359.788Z" fill="#9B5E43"/>
<path opacity="0.4" d="M180.162 283.722C180.162 283.722 169.92 301.647 182.348 309.69C194.892 317.733 200.53 320.261 203.637 313.597C205.594 309.46 204.903 307.507 205.824 306.013C206.86 304.289 208.241 304.519 210.657 303.14C215.49 300.268 217.447 295.097 218.022 293.144C219.403 288.433 217.217 286.364 216.181 279.815C214.11 266.946 220.094 260.052 216.641 257.179C214.225 255.111 209.737 257.179 203.292 259.592C199.265 261.201 188.562 265.222 182.923 276.138C181.312 279.126 180.507 281.768 180.162 283.722Z" fill="url(#paint5_radial)"/>
<path d="M348.751 171.921C351.397 176.517 367.163 204.668 356 236.841C349.786 254.766 337.933 265.797 331.949 270.623C334.711 275.334 337.473 279.93 340.235 284.641C340.235 284.641 364.976 252.123 365.437 250.859C365.897 249.595 367.969 200.417 367.738 199.153C367.508 197.774 357.842 176.977 357.842 176.977L348.751 171.921Z" fill="#9B5E43"/>
<path d="M126.075 358.638C133.44 368.635 141.381 373.576 146.099 375.989C154.845 380.47 163.246 381.16 179.932 382.538C187.642 383.228 202.602 384.492 203.178 381.849C203.638 380.01 196.618 378.517 189.138 372.772C180.737 366.337 177.055 358.524 172.107 348.067C165.432 334.164 163.706 322.674 163.246 319.801C163.13 319.112 161.749 308.885 162.555 300.842C165.202 275.449 192.475 257.983 197.884 254.651L210.197 249.136C210.197 249.136 239.427 227.189 243.915 196.625L200.07 193.178C200.07 193.178 193.626 234.888 160.253 250.859C124.81 267.75 115.373 272.461 106.972 289.467C100.413 302.796 100.988 317.044 100.988 317.044C101.219 322.444 102.139 326.925 103.06 330.028C103.865 331.981 105.131 334.739 106.857 337.841C111.576 345.999 116.754 351.17 118.365 352.664C120.321 354.157 122.853 356.34 126.075 358.638Z" fill="#FFFFC2"/>
<path d="M156.57 322.789C157.376 330.142 159.908 343.586 168.653 357.834C177.169 371.622 187.641 379.781 193.74 383.802L203.177 381.849L192.475 372.197L176.939 357.03C174.753 354.272 172.451 350.94 170.495 346.918C165.546 337.381 164.05 328.419 163.59 322.214C161.173 322.444 158.872 322.674 156.57 322.789Z" fill="#9B5E43"/>
<path d="M156.801 320.146C152.313 317.273 155.19 305.323 157.031 297.855C158.412 292.224 159.678 286.939 163.245 280.734C167.848 272.806 173.142 267.865 178.896 263.499C200.415 247.297 208.701 246.723 218.483 238.105C225.617 231.785 234.018 220.64 237.816 199.498C240.578 196.97 243.339 194.557 246.101 192.029C246.562 196.625 246.792 203.634 244.835 211.907C244.03 215.469 240.923 227.304 230.911 238.909C223.431 247.527 215.145 252.238 209.852 254.766C205.479 257.179 199.61 260.626 192.82 265.107C173.717 277.632 169.69 283.722 168.539 287.054C168.539 287.169 168.539 287.054 168.194 288.203C164.051 301.991 163.821 301.532 163.36 303.83C161.519 312.907 165.662 317.388 162.555 319.916C161.059 320.95 158.412 321.18 156.801 320.146Z" fill="#9B5E43"/>
<path d="M83.8415 292.454C78.8931 280.504 82.3455 265.797 92.5874 254.881C90.9763 256.03 75.671 268.095 76.1313 288.777C76.5916 310.149 93.508 321.755 95.004 322.674C95.6945 320.835 96.385 318.537 96.8453 315.894C97.4207 312.677 97.5357 309.92 97.5357 307.621C94.1985 305.668 87.4089 301.072 83.8415 292.454Z" fill="#9B5E43"/>
<path d="M179.126 282.917C178.55 287.743 178.666 294.178 181.888 299.923C192.015 317.963 224.812 316.929 244.835 310.149C249.323 308.656 270.037 301.532 271.073 289.122C271.303 285.675 270.037 281.768 267.391 279.355C262.557 274.874 253.466 274.874 244.95 280.275C245.526 279.355 251.28 271.197 261.406 270.853C268.771 270.508 273.95 274.415 275.331 275.564C277.057 276.942 279.013 279.011 280.049 281.998C284.882 295.786 263.593 313.482 261.752 314.975C243.915 329.453 216.641 334.279 194.546 324.512C190.864 322.904 168.424 313.137 169.229 298.429C169.805 290.846 175.789 285.445 179.126 282.917Z" fill="#9B5E43"/>
<path d="M195.467 388.858C171.646 388.858 147.94 385.985 126.305 369.784C120.551 365.418 105.016 353.813 97.9958 334.739C97.4204 334.624 96.7299 334.394 96.2696 334.049C74.8651 320.376 64.278 295.442 70.4922 273.495C76.3611 253.043 97.0751 235.807 113.992 237.301C116.523 237.531 118.134 238.105 120.781 238.909C123.313 239.714 126.65 240.748 132.979 242.357C138.963 243.85 145.063 245.114 151.162 246.148C160.023 241.552 168.769 236.037 176.479 226.615C186.836 213.861 192.705 196.855 194.086 175.943C194.201 174.104 195.467 172.495 197.193 171.921L247.827 154.915C249.093 154.456 250.474 154.685 251.625 155.26C252.775 155.949 253.581 156.984 253.811 158.362C256.228 170.197 258.644 193.982 247.137 219.261C242.073 230.292 235.629 239.139 229.184 245.919C232.522 245.689 238.391 245.344 249.553 244.31C256.113 243.735 261.521 243.161 266.009 242.701C281.89 241.093 287.184 240.518 295.814 242.242H295.93C300.993 243.276 309.279 244.884 317.334 249.595C325.274 245.459 355.08 226.615 341.04 178.585C340.925 178.356 340.925 178.011 340.925 177.781C340.695 175.598 340.35 168.014 345.528 165.486C350.937 162.844 356.461 168.129 358.302 169.968C366.933 178.126 376.599 211.333 372.456 240.173C369.119 262.694 358.187 279.7 340.81 289.582C341.27 295.786 341.04 302.91 339.774 310.954C337.012 328.304 328.382 344.161 313.997 358.064C285.227 385.985 247.942 387.249 215.145 388.398C208.47 388.628 202.026 388.858 195.467 388.858ZM111.23 287.858C103.635 301.761 103.174 313.711 104.21 321.41C107.087 343.816 125.154 357.375 131.944 362.545C156.916 381.274 184.879 380.355 214.57 379.436C245.871 378.402 281.2 377.253 307.437 351.744C320.326 339.22 328.036 325.087 330.568 309.805C334.596 284.526 327.346 270.853 320.441 263.843C312.04 255.226 300.878 252.928 294.203 251.664H294.088C286.723 250.17 282.12 250.63 266.93 252.238C262.442 252.698 257.033 253.272 250.474 253.847C235.514 255.226 229.875 255.455 227.113 255.685C225.042 255.8 224.927 255.8 223.546 256.145C221.014 256.719 218.482 257.409 215.95 258.213C215.835 258.328 215.72 258.328 215.605 258.443C214.685 259.132 213.764 259.362 212.728 259.362C191.899 267.291 172.106 283.837 173.947 297.97C175.673 311.413 196.848 319.686 203.292 321.869C223.776 328.879 248.287 323.593 264.168 308.885C275.446 298.314 280.509 288.548 277.977 282.113C276.136 277.287 270.152 274.3 265.434 273.495C258.644 272.461 251.74 275.449 247.367 281.424C245.871 283.492 242.994 283.951 240.922 282.458C238.851 280.964 238.391 278.091 239.887 276.023C246.216 267.176 256.458 262.694 266.815 264.303C273.72 265.337 283.156 269.818 286.493 278.666C290.521 289.007 284.767 301.991 270.382 315.435C252.085 332.441 223.891 338.53 200.185 330.487C187.987 326.351 167.042 316.699 164.741 299.119C161.979 278.321 187.641 258.558 211.347 250.055C219.863 243.506 231.141 232.475 238.621 215.814C247.597 196.051 247.252 177.321 245.525 165.601L202.947 179.964C201.105 201.336 194.661 219.146 183.614 232.705C172.221 246.723 159.332 252.928 146.789 258.788C137.122 263.384 127.801 267.75 119.976 275.908C116.869 279.126 113.876 283.147 111.23 287.858ZM111.92 246.493C99.3767 246.493 83.9563 260.396 79.4682 276.023C75.0953 291.305 80.8492 308.426 93.6228 320.376C93.6228 310.494 95.5791 297.28 102.944 283.837C103.059 283.722 103.174 283.492 103.174 283.377C103.404 282.802 103.75 282.343 104.095 281.768C106.627 277.402 109.388 273.61 112.265 270.393C119.745 261.89 128.146 256.26 135.511 252.468C133.9 252.123 132.289 251.779 130.793 251.319C124.233 249.71 120.436 248.446 118.019 247.757C115.718 247.068 114.682 246.723 113.186 246.608C112.841 246.608 112.38 246.493 111.92 246.493ZM325.735 255.455C328.842 258.213 332.064 261.775 334.826 266.486C337.473 271.082 338.969 275.449 339.774 279.355C352.663 270.623 360.488 257.064 363.25 238.909C367.393 210.758 357.381 181.918 351.857 176.632C351.052 175.943 350.476 175.368 349.901 175.023C349.901 175.483 349.901 176.057 349.901 176.632C359.107 208.575 350.361 229.258 341.385 240.978C336.092 247.872 330.223 252.583 325.735 255.455Z" fill="black"/>
<path d="M152.198 89.7652C182.578 44.8381 206.284 35.416 223.086 36.4501C255.768 38.4035 292.708 81.6071 295.239 83.5604C294.779 89.0758 294.664 95.1656 294.779 101.715C295.124 113.78 296.85 124.351 298.922 133.199C269.117 153.192 258.184 167.555 253.926 177.321C253.006 179.505 250.244 186.284 243.454 191.684C241.383 193.408 233.328 199.613 221.82 199.038C212.383 198.578 205.939 193.753 203.983 192.259C196.733 186.629 193.741 179.39 192.475 176.517C181.197 149.745 150.356 149.285 143.337 127.224C140.92 119.64 140.805 107.69 152.198 89.7652Z" fill="url(#paint6_linear)"/>
<path d="M294.665 88.1565C294.78 84.9392 294.895 81.8368 295.125 78.8494C295.01 78.7344 294.895 78.6195 294.78 78.5046C294.665 81.607 294.55 84.8243 294.665 88.1565Z" fill="#9B5E43"/>
<path d="M268.196 151.583C266.7 149.974 253.006 156.639 246.102 168.933C243.685 173.185 244.03 174.679 241.153 178.355C239.657 180.309 232.868 189.041 223.086 189.041C214.685 189.041 208.816 182.492 206.054 179.619C199.725 172.61 201.566 168.704 195.122 161.58C189.138 154.8 180.392 150.434 178.666 152.158C176.71 154.111 183.384 163.993 186.721 168.933C191.67 176.287 195.813 182.492 203.868 187.663C208.356 190.535 213.765 194.097 221.705 194.442C233.213 195.016 241.153 188.812 243.34 187.088C249.899 181.688 252.661 175.253 253.812 172.725C259.911 159.167 269.462 152.962 268.196 151.583Z" fill="#9B5E43"/>
<path d="M223.201 203.749C222.625 203.749 222.165 203.749 221.59 203.749C216.526 203.519 208.931 202.025 201.221 196.051C193.05 189.731 189.598 181.573 188.332 178.47C183.038 165.946 172.912 159.626 163.13 153.536C153.233 147.332 142.991 141.012 138.964 128.602C134.821 115.618 140.23 104.243 147.595 88.6161L148.055 87.6969C153.233 76.6662 168.654 49.664 198.689 38.5184C202.141 37.2544 211.348 33.8074 224.121 33.4626C224.582 33.4626 236.435 33.2328 248.633 37.0246C276.482 45.6424 294.549 72.9893 299.382 81.1474L300.073 82.4114L299.958 83.9051C299.497 89.7652 299.382 95.7401 299.612 101.6C299.958 111.827 301.339 122.168 303.64 132.164L304.331 135.267L301.684 136.99C278.323 152.617 263.823 166.75 258.299 179.16L258.184 179.39C257.034 182.147 253.811 189.271 246.561 195.246C239.542 200.762 231.371 203.749 223.201 203.749ZM156.34 91.7185L155.88 92.6377C148.86 107.46 144.718 116.308 147.71 125.96C150.587 135.037 158.642 140.093 167.963 145.838C178.435 152.387 190.403 159.741 196.733 174.908C197.884 177.666 200.53 183.986 206.86 188.812C211.578 192.374 216.641 194.442 222.05 194.672C228.494 195.016 235.054 192.718 240.577 188.352C246.216 183.871 248.633 178.126 249.553 175.942L249.669 175.598C255.653 161.924 270.152 147.332 293.743 131.245C291.672 121.593 290.521 111.712 290.176 101.945C289.946 96.1997 290.061 90.4546 290.521 84.8243C286.033 77.4705 269.577 53.3409 245.756 46.102C234.939 42.7698 224.351 42.9996 224.236 42.9996C213.074 43.2294 204.903 46.3318 201.911 47.4808C174.293 57.4774 160.138 83.7902 156.34 91.7185Z" fill="black"/>
<path d="M267.276 153.766C293.207 153.766 314.228 132.777 314.228 106.886C314.228 80.9944 293.207 60.0052 267.276 60.0052C241.345 60.0052 220.324 80.9944 220.324 106.886C220.324 132.777 241.345 153.766 267.276 153.766Z" fill="black"/>
<path d="M267.276 145.723C288.758 145.723 306.173 128.335 306.173 106.886C306.173 85.4365 288.758 68.0485 267.276 68.0485C245.794 68.0485 228.38 85.4365 228.38 106.886C228.38 128.335 245.794 145.723 267.276 145.723Z" fill="white"/>
<path d="M267.276 139.863C285.517 139.863 300.304 125.099 300.304 106.886C300.304 88.673 285.517 73.9086 267.276 73.9086C249.036 73.9086 234.249 88.673 234.249 106.886C234.249 125.099 249.036 139.863 267.276 139.863Z" fill="black"/>
<path d="M263.975 107.414C272.027 105.063 276.994 97.8252 275.068 91.2471C273.142 84.669 265.053 81.2419 257.001 83.5923C248.948 85.9428 243.982 93.1809 245.908 99.7589C247.834 106.337 255.923 109.764 263.975 107.414Z" fill="white"/>
<path d="M280.241 118.046C283.596 117.066 285.665 114.05 284.863 111.309C284.06 108.569 280.69 107.141 277.335 108.12C273.98 109.099 271.91 112.115 272.713 114.856C273.515 117.597 276.886 119.025 280.241 118.046Z" fill="white"/>
<path d="M175.559 153.307C201.362 153.307 222.28 132.42 222.28 106.656C222.28 80.8915 201.362 60.0052 175.559 60.0052C149.755 60.0052 128.837 80.8915 128.837 106.656C128.837 132.42 149.755 153.307 175.559 153.307Z" fill="black"/>
<path d="M175.558 145.493C197.04 145.493 214.455 128.105 214.455 106.656C214.455 85.2067 197.04 67.8187 175.558 67.8187C154.077 67.8187 136.662 85.2067 136.662 106.656C136.662 128.105 154.077 145.493 175.558 145.493Z" fill="white"/>
<path d="M175.559 139.633C193.799 139.633 208.586 124.869 208.586 106.656C208.586 88.4431 193.799 73.6787 175.559 73.6787C157.318 73.6787 142.531 88.4431 142.531 106.656C142.531 124.869 157.318 139.633 175.559 139.633Z" fill="black"/>
<path d="M172.267 107.191C180.319 104.84 185.286 97.6022 183.36 91.0241C181.434 84.446 173.345 81.0188 165.293 83.3693C157.24 85.7198 152.274 92.9578 154.2 99.5359C156.126 106.114 164.215 109.541 172.267 107.191Z" fill="white"/>
<path d="M188.533 117.822C191.888 116.843 193.957 113.827 193.155 111.086C192.352 108.345 188.982 106.917 185.627 107.897C182.272 108.876 180.202 111.892 181.005 114.633C181.807 117.374 185.178 118.802 188.533 117.822Z" fill="white"/>
<path d="M232.999 57.2869C234.08 55.4184 232.234 52.3346 228.877 50.3991C225.519 48.4636 221.922 48.4093 220.841 50.2778C219.761 52.1463 221.606 55.23 224.964 57.1656C228.321 59.1011 231.919 59.1554 232.999 57.2869Z" fill="white"/>
<path d="M239.887 59.5457C241.159 59.5457 242.189 58.5168 242.189 57.2476C242.189 55.9785 241.159 54.9496 239.887 54.9496C238.616 54.9496 237.586 55.9785 237.586 57.2476C237.586 58.5168 238.616 59.5457 239.887 59.5457Z" fill="white"/>
<path d="M226.768 177.092C226.883 175.598 227.343 174.219 227.803 172.84C228.033 172.151 228.379 171.461 228.724 170.772C229.184 170.082 229.529 169.508 230.105 168.819C230.68 168.244 231.141 167.44 231.716 166.865C232.291 166.176 233.212 165.831 234.133 165.716C235.168 165.601 236.089 165.716 237.009 166.176C237.355 166.291 237.815 166.52 238.275 166.98C239.196 168.014 239.656 169.623 239.081 170.887C238.736 171.806 238.045 172.266 237.815 172.495C236.089 173.759 234.593 172.725 232.061 173.989C231.716 174.219 231.256 174.449 230.45 175.023C229.414 175.713 228.264 176.632 227.228 177.436L226.768 177.092Z" fill="black"/>
<path d="M219.978 177.092C219.863 175.598 219.403 174.219 218.943 172.84C218.712 172.151 218.367 171.461 218.022 170.772C217.562 170.082 217.216 169.508 216.641 168.819C216.066 168.244 215.605 167.44 215.03 166.865C214.454 166.176 213.534 165.831 212.613 165.716C211.578 165.601 210.657 165.716 209.736 166.176C209.391 166.291 208.931 166.52 208.47 166.98C207.55 168.014 207.09 169.623 207.665 170.887C208.01 171.806 208.701 172.266 208.931 172.495C210.657 173.759 212.153 172.725 214.685 173.989C215.03 174.219 215.49 174.449 216.296 175.023C217.331 175.713 218.482 176.632 219.518 177.436L219.978 177.092Z" fill="black"/>
<path d="M114.683 291.995C114.798 289.237 116.064 287.169 118.71 283.262C122.048 278.206 125.73 275.449 131.254 271.542C138.274 266.371 141.841 263.843 144.718 264.763C146.674 265.337 146.674 266.486 153.004 274.185C157.377 279.7 157.952 279.815 158.297 281.424C159.103 285.675 155.65 287.513 152.313 295.327C148.401 304.404 150.242 308.885 146.329 311.298C143.337 313.137 139.655 312.103 135.627 310.954C127.456 308.311 114.453 301.302 114.683 291.995Z" fill="#D8A579"/>
<path d="M136.663 360.017C133.556 358.064 129.413 355.421 124.925 351.17C121.357 347.838 115.603 342.437 112.496 333.819C110.655 328.649 108.238 318.997 111.461 317.158C113.417 316.009 116.064 318.767 121.818 321.755C136.317 328.993 145.639 324.053 150.817 330.832C153.119 333.934 151.393 335.198 153.004 342.667C156.686 359.328 168.654 366.797 166.353 369.899C164.396 372.542 154.5 368.635 148.976 366.567C143.337 364.154 139.079 361.626 136.663 360.017Z" fill="#D8A579"/>
<path d="M195.007 223.512C194.892 221.904 196.273 219.606 198.919 215.01C202.947 207.656 204.903 206.162 206.975 205.587C208.01 205.358 208.816 205.358 210.427 205.473C214.11 205.702 215.836 206.851 218.828 207.886C224.697 209.724 226.423 207.771 227.919 209.494C231.486 213.401 223.316 225.81 222.395 227.304C219.058 232.245 215.951 236.956 211.118 237.186C207.55 237.416 204.788 235.232 201.796 232.934C199.034 230.751 195.237 227.764 195.007 223.512Z" fill="#D8A579"/>
<path d="M160.944 256.49C161.519 254.192 164.281 254.306 170.035 250.055C173.602 247.412 176.364 244.655 177.055 243.85C181.543 239.139 182.233 236.496 184.304 236.496C185.685 236.496 186.951 238.22 189.598 241.437C192.13 244.655 193.281 246.263 193.165 247.642C192.935 250.515 188.677 251.204 182.118 255.111C172.912 260.626 171.646 265.107 167.503 264.418C163.59 263.843 160.253 259.362 160.944 256.49Z" fill="#D8A579"/>
<path d="M219.979 250.974C219.864 250.974 219.864 250.974 219.979 250.974C194.777 250.055 182.349 226.5 181.888 225.466C181.313 224.317 181.773 222.938 182.924 222.363C184.075 221.789 185.456 222.248 186.031 223.397C186.146 223.627 197.769 245.574 220.094 246.378C221.36 246.378 222.396 247.527 222.281 248.791C222.166 250.055 221.13 250.974 219.979 250.974Z" fill="black"/>
<path d="M174.983 278.781C156.801 277.976 148.055 257.409 147.71 256.605C147.249 255.455 147.825 254.077 148.976 253.617C150.126 253.157 151.507 253.732 151.968 254.881C152.083 255.111 160.023 273.61 175.098 274.3C176.364 274.3 177.4 275.449 177.285 276.713C177.285 277.862 176.249 278.781 174.983 278.781Z" fill="black"/>
<path d="M149.551 323.938C145.293 323.938 140.575 323.478 135.512 322.099C116.294 316.814 106.167 302.221 102.715 296.246C102.139 295.097 102.485 293.718 103.52 293.144C104.671 292.569 106.052 292.914 106.627 293.948C109.85 299.463 119.056 312.792 136.663 317.733C147.25 320.606 156.571 319.342 162.67 317.733C163.936 317.388 165.202 318.078 165.547 319.342C165.892 320.606 165.202 321.87 163.936 322.214C160.254 323.019 155.305 323.938 149.551 323.938Z" fill="black"/>
<path d="M222.51 384.147C222.395 384.147 222.28 384.147 222.28 384.147C213.419 383.113 190.979 378.517 175.098 358.409C150.817 327.615 164.971 289.811 165.662 288.318C166.122 287.169 167.503 286.594 168.654 287.054C169.804 287.513 170.38 288.892 169.919 290.041C169.344 291.535 155.995 326.925 178.665 355.651C193.51 374.38 214.455 378.746 222.74 379.666C224.006 379.781 224.927 380.93 224.812 382.194C224.697 383.343 223.661 384.147 222.51 384.147Z" fill="black"/>
<path d="M258.069 445.735C261.752 445.735 261.752 439.99 258.069 439.99C254.387 439.99 254.387 445.735 258.069 445.735Z" fill="url(#paint7_radial)"/>
<defs>
<linearGradient id="paint0_linear" x1="113.853" y1="203.746" x2="378.604" y2="340.692" gradientUnits="userSpaceOnUse">
<stop offset="0.00793651" stop-color="#D8A579"/>
<stop offset="0.1772" stop-color="#C47B55"/>
<stop offset="0.3148" stop-color="#D8A579"/>
<stop offset="0.5159" stop-color="#C47B55"/>
<stop offset="0.6799" stop-color="#D8A579"/>
<stop offset="0.791" stop-color="#C47B55"/>
<stop offset="0.8388" stop-color="#C7805A"/>
<stop offset="0.8982" stop-color="#CE9067"/>
<stop offset="0.955" stop-color="#D8A579"/>
</linearGradient>
<radialGradient id="paint1_radial" cx="0" cy="0" r="1" gradientUnits="userSpaceOnUse" gradientTransform="translate(290.862 328.216) scale(28.0631 28.0205)">
<stop offset="0.3439" stop-color="#D8A579"/>
<stop offset="1" stop-color="white" stop-opacity="0.8"/>
</radialGradient>
<radialGradient id="paint2_radial" cx="0" cy="0" r="1" gradientUnits="userSpaceOnUse" gradientTransform="translate(208.501 347.976) scale(24.8399 24.8022)">
<stop offset="0.3439" stop-color="#D8A579"/>
<stop offset="1" stop-color="white" stop-opacity="0.8"/>
</radialGradient>
<radialGradient id="paint3_radial" cx="0" cy="0" r="1" gradientUnits="userSpaceOnUse" gradientTransform="translate(289.023 263.839) scale(17.2057 17.1796)">
<stop offset="0.3439" stop-color="#D8A579"/>
<stop offset="1" stop-color="white" stop-opacity="0.8"/>
</radialGradient>
<radialGradient id="paint4_radial" cx="0" cy="0" r="1" gradientUnits="userSpaceOnUse" gradientTransform="translate(350.399 247.405) scale(17.2057 17.1796)">
<stop offset="0.3439" stop-color="#D8A579"/>
<stop offset="1" stop-color="white" stop-opacity="0.8"/>
</radialGradient>
<radialGradient id="paint5_radial" cx="0" cy="0" r="1" gradientUnits="userSpaceOnUse" gradientTransform="translate(197.298 286.822) scale(26.3185 26.2786)">
<stop offset="0.3439" stop-color="#D8A579"/>
<stop offset="1" stop-color="white" stop-opacity="0.8"/>
</radialGradient>
<linearGradient id="paint6_linear" x1="170.93" y1="77.9473" x2="297.822" y2="170.003" gradientUnits="userSpaceOnUse">
<stop offset="0.00793651" stop-color="#D8A579"/>
<stop offset="0.1772" stop-color="#C47B55"/>
<stop offset="0.3148" stop-color="#D8A579"/>
<stop offset="0.5159" stop-color="#C47B55"/>
<stop offset="0.6799" stop-color="#D8A579"/>
<stop offset="0.791" stop-color="#C47B55"/>
<stop offset="0.8388" stop-color="#C7805A"/>
<stop offset="0.8982" stop-color="#CE9067"/>
<stop offset="0.955" stop-color="#D8A579"/>
</linearGradient>
<radialGradient id="paint7_radial" cx="0" cy="0" r="1" gradientUnits="userSpaceOnUse" gradientTransform="translate(258.04 442.886) scale(2.82838 2.8241)">
<stop offset="0.0291005" stop-color="#D8A579" stop-opacity="0.8"/>
<stop offset="0.5928" stop-color="#EED8C5" stop-opacity="0.9161"/>
<stop offset="1" stop-color="white"/>
</radialGradient>
</defs>
</svg>
