<svg width="400" height="400" viewBox="0 0 400 400" fill="none" xmlns="http://www.w3.org/2000/svg">
<path d="M191.877 217.375C196.776 227.87 207.44 246.261 228.094 256.082C242.6 263.015 256.625 262.919 273.341 262.919C308.405 262.822 330.596 253.675 334.919 261.667C337.898 267.059 328.963 273.318 332.71 281.887C334.727 286.606 339.627 290.264 347.504 298.642C348.177 299.316 349.714 301.049 351.155 303.648C351.539 304.323 351.827 304.997 352.211 305.863C355.382 313.759 352.5 323.773 348.465 330.609C345.102 336.29 342.605 336.097 339.627 342.164C338.762 343.897 338.186 345.437 337.801 346.882C336.553 351.503 336.457 355.451 336.36 356.125C335.4 363.251 274.302 380.679 226.557 357.377C158.254 324.158 151.817 224.981 151.337 215.449C164.69 216.027 178.332 216.701 191.877 217.375Z" fill="#5B318C"/>
<path d="M281.603 371.339C263.543 371.339 243.561 368.257 225.308 359.399C156.333 325.795 149.32 226.618 148.744 215.353L148.647 212.656L193.414 214.967L193.991 216.315C202.252 233.936 214.357 246.839 229.055 253.868C243.081 260.511 257.106 260.511 273.245 260.511C287.847 260.511 300.144 258.875 310.039 257.527C324.737 255.601 333.671 254.445 336.937 260.415C338.859 263.978 337.321 267.54 335.977 270.622C334.536 273.992 333.191 277.073 334.824 280.732C336.073 283.524 338.666 286.22 342.701 290.168C344.623 292.094 346.736 294.212 349.234 296.812C350.771 298.449 352.116 300.278 353.268 302.3C353.653 303.071 354.037 303.841 354.421 304.708C357.976 313.566 354.709 324.35 350.483 331.572C348.753 334.46 347.216 336.001 345.871 337.349C344.43 338.793 343.182 340.045 341.741 342.934C341.068 344.378 340.492 345.822 340.107 347.267C339.147 350.926 338.859 354.103 338.762 355.451C338.762 355.836 338.762 356.029 338.666 356.125C338.378 358.051 336.745 359.784 333.479 361.517C325.217 366.043 305.139 371.339 281.603 371.339ZM153.739 217.856C155.084 236.921 164.691 324.543 227.422 355.066C253.552 367.776 282.179 367.295 296.878 365.85C319.549 363.636 332.422 357.666 333.863 355.547C333.863 355.451 333.863 355.355 333.863 355.259C333.959 353.911 334.247 350.252 335.304 346.208C335.784 344.474 336.361 342.741 337.225 341.008C338.955 337.349 340.684 335.712 342.221 334.075C343.47 332.824 344.719 331.572 346.064 329.261C349.522 323.387 352.596 313.951 349.714 306.633C349.426 305.959 349.138 305.285 348.753 304.708C347.408 302.3 345.967 300.76 345.487 300.182C343.085 297.679 340.972 295.56 339.147 293.634C334.728 289.302 331.846 286.413 330.213 282.754C327.811 277.169 329.828 272.547 331.365 268.792C332.614 266 333.287 264.17 332.518 262.822C330.789 259.645 321.759 260.8 310.423 262.341C300.432 263.689 287.943 265.326 273.053 265.326C256.242 265.326 241.832 265.422 226.845 258.201C211.571 250.979 198.89 237.595 190.148 219.686L153.739 217.856Z" fill="black"/>
<path d="M182.462 245.202C193.51 262.245 222.137 301.145 274.494 322.425C301.104 333.209 325.313 336.001 342.412 336.386C341.356 338.023 339.915 340.527 338.762 343.8C336.745 349.867 337.801 352.755 336.264 356.029C334.919 358.918 331.365 362.191 321.662 363.732C310.711 367.006 301.488 368.161 294.86 368.45C282.659 369.124 271.996 367.584 264.791 366.621C263.638 366.428 260.852 366.139 258.451 365.658C258.451 365.658 238.661 362.095 219.832 348.904C203.308 337.349 181.117 305.093 174.393 258.778C176.986 254.157 179.772 249.631 182.462 245.202Z" fill="#452669"/>
<path d="M288.808 372.109C278.914 372.109 270.364 370.953 264.408 370.087L263.735 369.991C262.39 369.798 260.085 369.509 257.875 369.028C257.106 368.931 237.413 365.176 218.296 351.888C199.947 339.082 178.428 305.67 171.8 260.126C171.704 259.549 171.8 258.971 172.088 258.489L180.254 245.105C180.638 244.431 181.406 243.95 182.271 243.95C183.039 243.95 183.808 244.335 184.288 245.009C200.043 269.37 228.671 302.397 275.263 321.269C296.494 329.839 318.973 334.46 342.317 335.038C343.182 335.038 343.95 335.52 344.431 336.29C344.911 337.06 344.815 338.023 344.335 338.697C342.894 340.815 341.741 343.126 340.972 345.534C340.012 348.422 339.82 350.54 339.627 352.37C339.435 354.296 339.339 356.029 338.378 357.955C336.169 362.673 330.885 365.561 322.143 366.909C313.113 369.605 303.987 371.242 294.861 371.724C292.843 372.013 290.826 372.109 288.808 372.109ZM176.795 260.223C183.328 303.745 204.27 336.097 221.178 347.941C239.334 360.651 258.644 364.31 258.836 364.31C260.853 364.695 263.063 364.984 264.408 365.176L265.08 365.272C272.093 366.235 282.66 367.776 294.668 367.102C303.41 366.62 312.249 365.08 320.894 362.48C320.991 362.48 321.087 362.384 321.183 362.384C328.195 361.325 332.518 359.206 333.959 356.125C334.536 354.97 334.632 353.814 334.728 352.177C334.92 350.155 335.112 347.652 336.265 344.185C336.745 342.741 337.418 341.201 338.09 339.853C315.611 338.89 293.9 334.172 273.438 325.891C227.71 307.404 198.89 275.532 182.367 250.979L176.795 260.223Z" fill="black"/>
<path d="M267.193 296.908C309.462 275.244 292.267 210.635 282.948 201.776C273.63 192.821 274.879 205.146 274.879 205.146C289.289 254.446 251.342 270.044 251.342 270.044C253.84 271.585 258.932 275.147 262.678 281.791C266.425 288.05 267.097 294.02 267.193 296.908ZM69.1049 333.209C52.3894 322.425 44.5119 303.36 49.2192 286.798C53.6382 271.2 69.297 258.201 81.4974 259.26C84.8597 259.549 86.0125 260.704 96.772 263.4C103.785 265.133 109.549 266.193 113.487 266.867C109.357 268.022 87.9339 274.377 75.9256 296.234C67.0875 312.314 68.3364 327.624 69.1049 333.209ZM164.21 269.755C170.167 265.326 181.791 255.505 189.38 238.751C199.179 216.99 196.104 197.154 194.663 190.029L152.394 204.28C150.953 227.678 143.172 241.158 136.928 248.861C117.714 272.644 91.8726 268.215 76.8862 294.501C74.7728 298.256 67.856 310.678 69.8734 326.18C72.4672 346.593 88.7024 358.821 94.4664 363.154C114.928 378.657 137.504 378.368 165.94 378.079C197.353 377.79 219.16 377.501 239.238 361.71C244.137 357.858 262.774 342.164 266.329 316.455C267.193 309.907 269.691 292.094 258.547 278.71C251.15 269.852 241.159 266.963 235.492 265.422C224.54 262.341 214.645 263.208 195.24 265.037C192.262 265.326 180.35 266.289 177.564 266.481C174.297 266.674 174.201 266.578 172.376 266.963C151.626 271.585 125.784 289.398 127.993 306.345C129.915 320.884 151.53 328.298 154.988 329.454C174.778 336.29 196.489 330.031 209.65 317.707C212.34 315.107 226.365 302.012 222.138 291.035C220.025 285.45 213.877 282.273 208.689 281.406C201.58 280.347 194.279 283.524 189.956 289.591" fill="url(#paint0_linear)"/>
<path opacity="0.2" d="M220.601 350.541C220.601 350.541 235.875 358.532 242.215 347.845C248.556 337.157 250.381 332.342 244.713 329.935C239.045 327.528 238.277 330.802 235.683 324.447C233.089 318.092 230.495 310.87 222.618 313.759C214.837 316.744 204.461 319.44 208.208 326.372C212.051 333.209 206.479 350.155 220.601 350.541Z" fill="white"/>
<path opacity="0.2" d="M153.163 366.717C153.163 366.717 168.438 374.709 174.778 364.021C181.118 353.333 182.944 348.518 177.276 346.111C171.608 343.704 170.839 346.978 168.245 340.623C165.652 334.268 163.058 327.046 155.18 329.935C147.399 332.92 137.024 335.616 140.77 342.549C144.517 349.481 139.041 366.332 153.163 366.717Z" fill="white"/>
<path opacity="0.2" d="M228.574 296.427C228.574 296.427 239.43 302.108 243.945 294.501C248.46 286.894 249.805 283.524 245.77 281.791C241.735 280.058 241.255 282.369 239.334 277.843C237.508 273.318 235.587 268.215 230.111 270.237C224.54 272.355 217.238 274.281 219.928 279.191C222.522 284.198 218.583 296.234 228.574 296.427Z" fill="white"/>
<path opacity="0.2" d="M273.918 276.11C273.918 276.11 284.773 281.791 289.288 274.184C293.803 266.578 295.148 263.208 291.113 261.475C287.079 259.741 286.598 262.052 284.677 257.527C282.852 253.001 280.93 247.898 275.455 249.92C269.979 251.942 262.582 253.964 265.272 258.875C267.962 263.785 263.927 275.918 273.918 276.11Z" fill="white"/>
<path d="M136.255 358.051C137.215 357.088 140.482 359.206 144.036 361.036C144.036 361.036 154.603 366.332 172.952 368.257C188.034 369.798 200.139 364.887 210.898 360.651C224.059 355.355 239.814 348.807 250.381 332.15C253.359 327.431 262.582 312.988 259.316 294.597C257.586 285.065 253.167 278.132 250.189 274.184C252.879 275.532 259.22 279.384 263.446 287.087C266.809 293.153 267.385 298.834 267.481 301.819C264.791 312.603 262.101 323.484 259.316 334.268L233.57 362.962L197.161 374.805L148.359 378.271C141.827 369.798 134.526 359.688 136.255 358.051Z" fill="#9B5E43"/>
<path opacity="0.2" d="M136.927 294.309C136.927 294.309 128.377 309.329 138.752 316.07C149.224 322.81 153.931 324.928 156.525 319.343C159.118 313.759 155.948 312.892 162.385 310.485C168.821 308.174 176.122 305.767 173.528 297.871C170.934 289.976 168.533 279.48 161.52 282.947C154.507 286.413 137.792 280.154 136.927 294.309Z" fill="white"/>
<path d="M277.664 200.524C279.874 204.376 293.035 227.966 283.717 254.927C278.529 269.948 268.634 279.191 263.639 283.235C265.944 287.183 268.25 291.035 270.555 294.982C270.555 294.982 291.21 267.733 291.594 266.674C291.882 265.615 293.707 224.404 293.515 223.344C293.323 222.189 285.254 204.761 285.254 204.761L277.664 200.524Z" fill="#9B5E43"/>
<path d="M91.8721 357.088C98.0203 365.465 104.649 369.605 108.588 371.628C115.889 375.383 122.901 375.96 136.831 377.116C143.268 377.694 155.756 378.753 156.236 376.538C156.621 374.998 150.761 373.746 144.516 368.932C137.504 363.539 134.429 356.992 130.299 348.23C124.727 336.579 123.286 326.95 122.901 324.543C122.805 323.965 121.653 315.396 122.325 308.655C124.535 287.376 147.302 272.74 151.817 269.948L162.096 265.326C162.096 265.326 186.497 246.935 190.244 221.322L153.643 218.434C153.643 218.434 148.263 253.386 120.404 266.77C90.8154 280.925 82.9379 284.872 75.9251 299.123C70.4493 310.292 70.9296 322.232 70.9296 322.232C71.1218 326.757 71.8903 330.513 72.6588 333.112C73.3313 334.749 74.388 337.06 75.829 339.66C79.7677 346.496 84.0907 350.829 85.4356 352.081C86.9727 353.333 89.0862 355.162 91.8721 357.088Z" fill="#FFFFC2"/>
<path d="M117.233 327.046C117.906 333.209 120.019 344.474 127.32 356.414C134.429 367.969 143.171 374.805 148.263 378.175L156.14 376.538L147.206 368.45L134.141 355.74C132.316 353.429 130.394 350.637 128.761 347.267C124.63 339.275 123.382 331.764 122.997 326.565C121.172 326.661 119.251 326.854 117.233 327.046Z" fill="#9B5E43"/>
<path d="M117.521 324.832C113.775 322.425 116.177 312.411 117.714 306.152C118.866 301.434 119.923 297.005 122.901 291.805C126.744 285.161 131.163 281.021 135.966 277.362C153.931 263.785 160.847 263.304 169.013 256.082C174.969 250.786 181.982 241.447 185.152 223.73C187.458 221.611 189.763 219.589 192.069 217.471C192.453 221.322 192.645 227.196 191.012 234.129C190.34 237.114 187.746 247.031 179.388 256.756C173.144 263.978 166.227 267.926 161.808 270.044C158.157 272.066 153.258 274.955 147.59 278.71C131.547 289.205 128.185 294.309 127.224 297.005C127.224 297.101 127.224 297.005 126.936 297.967C123.478 309.522 123.285 309.137 122.901 311.063C121.364 318.669 124.823 322.425 122.229 324.543C120.98 325.506 118.866 325.698 117.521 324.832Z" fill="#9B5E43"/>
<path d="M56.6158 301.53C52.485 291.516 55.367 279.191 63.9168 270.044C62.5719 271.007 49.7951 281.117 50.1794 298.449C50.3715 316.455 64.5893 326.083 65.7421 326.854C66.3185 325.313 66.8949 323.387 67.2792 321.173C67.7595 318.477 67.8556 316.166 67.8556 314.24C65.2618 312.699 59.4978 308.752 56.6158 301.53Z" fill="#9B5E43"/>
<path d="M136.159 293.538C135.679 297.582 135.775 302.975 138.465 307.789C146.919 322.906 174.298 322.04 191.013 316.359C194.76 315.107 212.052 309.137 212.916 298.738C213.108 295.849 212.052 292.575 209.842 290.553C205.807 286.798 198.218 286.798 191.109 291.324C191.589 290.553 196.393 283.717 204.847 283.428C210.995 283.139 215.318 286.413 216.471 287.376C217.912 288.531 219.545 290.265 220.409 292.768C224.444 304.323 206.672 319.151 205.135 320.403C190.245 332.535 167.477 336.579 149.032 328.395C145.958 327.046 127.225 318.862 127.898 306.537C128.282 300.278 133.373 295.657 136.159 293.538Z" fill="#9B5E43"/>
<path d="M149.8 382.412C129.914 382.412 110.125 380.004 92.0644 366.428C87.2611 362.769 74.2922 353.044 68.4321 337.06C67.9518 336.964 67.3754 336.771 66.9911 336.482C49.1228 325.024 40.2847 304.13 45.4723 285.739C50.3717 268.6 67.6636 254.156 81.7853 255.408C83.8988 255.601 85.2437 256.082 87.4532 256.756C89.5667 257.43 92.3526 258.297 97.6362 259.645C102.632 260.897 107.723 261.956 112.815 262.822C120.212 258.971 127.513 254.349 133.949 246.453C142.595 235.766 147.495 221.515 148.647 203.991C148.743 202.45 149.8 201.102 151.241 200.621L193.51 186.37C194.567 185.985 195.72 186.177 196.681 186.659C197.641 187.237 198.314 188.103 198.506 189.259C200.523 199.176 202.541 219.108 192.934 240.291C188.707 249.535 183.327 256.949 177.948 262.63C180.734 262.437 185.633 262.148 194.951 261.282C200.427 260.8 204.942 260.319 208.689 259.934C221.946 258.586 226.365 258.104 233.666 259.549H233.762C237.989 260.415 244.906 261.763 251.63 265.711C258.259 262.245 283.14 246.453 271.42 206.205C271.324 206.013 271.324 205.724 271.324 205.531C271.132 203.702 270.844 197.347 275.167 195.228C279.682 193.014 284.293 197.443 285.83 198.984C293.035 205.82 301.104 233.647 297.646 257.815C294.86 276.688 285.734 290.938 271.228 299.219C271.612 304.419 271.42 310.388 270.363 317.129C268.058 331.668 260.853 344.956 248.844 356.607C224.828 380.005 193.702 381.064 166.324 382.027C160.656 382.219 155.276 382.412 149.8 382.412ZM79.4797 297.679C73.1394 309.329 72.7551 319.343 73.6197 325.795C76.0213 344.571 91.1037 355.933 96.7717 360.266C117.618 375.96 140.962 375.19 165.747 374.42C191.877 373.553 221.37 372.59 243.273 351.214C254.032 340.719 260.468 328.876 262.582 316.069C265.944 294.886 259.892 283.428 254.128 277.554C247.115 270.333 237.797 268.407 232.225 267.348H232.129C225.981 266.096 222.138 266.481 209.457 267.829C205.711 268.214 201.196 268.696 195.72 269.177C183.231 270.333 178.524 270.525 176.218 270.718C174.489 270.814 174.393 270.814 173.24 271.103C171.127 271.585 169.013 272.162 166.9 272.836C166.804 272.933 166.708 272.933 166.612 273.029C165.843 273.607 165.075 273.799 164.21 273.799C146.822 280.443 130.299 294.308 131.836 306.152C133.277 317.417 150.953 324.35 156.237 326.18C173.336 332.053 193.799 327.624 207.056 315.299C216.47 306.441 220.697 298.256 218.584 292.864C217.047 288.82 212.051 286.317 208.112 285.643C202.444 284.776 196.681 287.279 193.03 292.286C191.781 294.02 189.379 294.405 187.65 293.153C185.921 291.901 185.537 289.494 186.786 287.761C192.069 280.347 200.619 276.592 209.265 277.94C215.029 278.806 222.907 282.561 225.693 289.976C229.055 298.641 224.252 309.522 212.243 320.788C196.969 335.038 173.432 340.141 153.643 333.401C143.46 329.935 125.976 321.847 124.054 307.115C121.749 289.687 143.172 273.125 162.961 266C170.07 260.511 179.485 251.268 185.729 237.306C193.222 220.745 192.934 205.05 191.493 195.228L155.948 207.264C154.411 225.174 149.032 240.098 139.809 251.46C130.299 263.208 119.539 268.407 109.068 273.318C100.999 277.169 93.2172 280.924 86.6847 287.665C84.187 290.457 81.6893 293.827 79.4797 297.679ZM79.9601 263.111C69.4888 263.111 56.616 274.762 52.8694 287.857C49.2189 300.663 54.0222 315.01 64.6855 325.024C64.6855 316.743 66.3187 305.67 72.4669 294.405C72.563 294.212 72.659 294.116 72.7551 293.923C72.9472 293.538 73.2354 293.057 73.5236 292.672C75.6371 289.013 77.9427 285.931 80.3443 283.235C86.5886 276.11 93.6015 271.296 99.8458 268.214C98.5008 267.926 97.1559 267.637 95.9071 267.252C90.4313 265.904 87.2611 264.844 85.2437 264.267C83.3224 263.689 82.4578 263.4 81.2089 263.304C80.8247 263.111 80.3443 263.111 79.9601 263.111ZM258.547 270.525C261.141 272.836 263.831 275.821 266.136 279.769C268.058 283.139 269.499 286.798 270.267 290.553C281.027 283.235 287.559 271.873 289.865 256.66C293.323 233.069 284.965 208.901 280.354 204.472C279.682 203.894 279.201 203.413 278.721 203.124C278.721 203.605 278.721 203.991 278.721 204.376C286.406 231.144 279.105 248.476 271.612 258.297C267.193 264.267 262.198 268.214 258.547 270.525Z" fill="black"/>
<path d="M113.679 131.679C139.041 94.0302 158.83 86.1346 172.856 87.0012C200.139 88.638 230.976 124.842 233.09 126.479C232.705 131.101 232.609 136.204 232.705 141.693C232.993 151.803 234.434 160.661 236.164 168.075C211.282 184.829 202.156 196.865 198.602 205.05C197.833 206.879 195.528 212.56 189.86 217.086C188.131 218.53 181.406 223.73 171.799 223.248C163.922 222.863 158.542 218.819 156.909 217.567C150.857 212.849 148.359 206.783 147.302 204.376C137.888 181.941 112.142 181.556 106.282 163.068C104.265 156.713 104.169 146.796 113.679 131.679Z" fill="url(#paint1_linear)"/>
<path d="M232.61 130.331C232.706 127.635 232.802 125.035 232.995 122.531C232.899 122.435 232.802 122.339 232.706 122.242C232.514 124.938 232.514 127.538 232.61 130.331Z" fill="#9B5E43"/>
<path d="M210.514 183.481C209.265 182.133 197.833 187.718 192.069 198.021C190.052 201.583 190.34 202.835 187.939 205.916C186.69 207.553 181.022 214.871 172.856 214.871C165.843 214.871 160.944 209.383 158.638 206.976C153.355 201.102 154.892 197.828 149.512 191.858C144.517 186.177 137.216 182.519 135.775 183.963C134.142 185.6 139.713 193.88 142.499 198.021C146.63 204.183 150.089 209.383 156.813 213.716C160.56 216.123 165.075 219.108 171.703 219.397C181.31 219.878 187.939 214.679 189.764 213.234C195.24 208.709 197.545 203.317 198.506 201.198C203.597 189.933 211.571 184.637 210.514 183.481Z" fill="#9B5E43"/>
<path d="M172.952 227.292C172.472 227.292 172.087 227.292 171.607 227.292C167.38 227.1 161.04 225.848 154.603 220.841C147.783 215.545 144.901 208.709 143.844 206.109C139.425 195.614 130.971 190.414 122.805 185.215C114.544 180.015 105.994 174.719 102.632 164.32C99.1731 153.44 103.688 143.907 109.836 130.812L110.221 130.042C114.544 120.798 127.417 98.1706 152.49 88.8307C155.372 87.7715 163.153 84.8829 173.721 84.594C174.105 84.594 184 84.4015 194.183 87.579C217.431 94.8005 232.513 117.717 236.548 124.553L237.124 125.613L237.028 126.864C236.644 131.775 236.548 136.782 236.74 141.693C237.028 150.262 238.181 158.928 240.102 167.305L240.679 169.905L238.469 171.349C218.968 184.444 206.863 196.288 202.252 206.687L202.156 206.879C201.195 209.19 198.506 215.16 192.453 220.167C186.593 224.789 179.773 227.292 172.952 227.292ZM174.105 92.2971C173.913 92.2971 173.817 92.2971 173.817 92.2971C164.498 92.4896 157.677 95.0894 155.18 96.0523C132.22 104.622 120.308 126.768 117.234 133.316L116.849 134.086C110.989 146.507 107.531 153.921 110.029 161.913C112.43 169.52 119.155 173.756 126.936 178.571C135.678 184.059 145.669 190.222 150.953 202.932C151.913 205.243 154.123 210.538 159.407 214.582C163.345 217.567 167.572 219.301 172.087 219.493C177.467 219.782 182.943 217.856 187.554 214.197C192.261 210.442 194.279 205.628 195.047 203.798L195.143 203.509C200.139 192.051 212.243 179.823 231.937 166.342C230.207 158.254 229.247 149.973 228.959 141.789C228.766 136.975 228.863 132.16 229.247 127.442C225.5 121.28 211.763 101.059 191.877 94.9931C183.711 92.4896 175.834 92.2971 174.105 92.2971Z" fill="black"/>
<path d="M209.746 185.407C231.393 185.407 248.941 167.819 248.941 146.122C248.941 124.425 231.393 106.836 209.746 106.836C188.099 106.836 170.551 124.425 170.551 146.122C170.551 167.819 188.099 185.407 209.746 185.407Z" fill="black"/>
<path d="M209.746 178.667C227.679 178.667 242.216 164.096 242.216 146.122C242.216 128.148 227.679 113.577 209.746 113.577C191.813 113.577 177.275 128.148 177.275 146.122C177.275 164.096 191.813 178.667 209.746 178.667Z" fill="white"/>
<path d="M209.746 173.756C224.973 173.756 237.317 161.384 237.317 146.122C237.317 130.859 224.973 118.487 209.746 118.487C194.519 118.487 182.175 130.859 182.175 146.122C182.175 161.384 194.519 173.756 209.746 173.756Z" fill="black"/>
<path d="M206.987 146.468C213.709 144.499 217.854 138.433 216.246 132.921C214.639 127.409 207.886 124.537 201.164 126.506C194.442 128.476 190.297 134.541 191.904 140.054C193.512 145.566 200.265 148.438 206.987 146.468Z" fill="white"/>
<path d="M220.563 155.378C223.363 154.558 225.091 152.03 224.421 149.734C223.751 147.437 220.937 146.24 218.137 147.061C215.336 147.882 213.609 150.409 214.278 152.706C214.948 155.002 217.762 156.199 220.563 155.378Z" fill="white"/>
<path d="M133.181 184.926C154.721 184.926 172.184 167.423 172.184 145.833C172.184 124.243 154.721 106.74 133.181 106.74C111.64 106.74 94.1777 124.243 94.1777 145.833C94.1777 167.423 111.64 184.926 133.181 184.926Z" fill="black"/>
<path d="M133.18 178.378C151.113 178.378 165.651 163.807 165.651 145.833C165.651 127.859 151.113 113.288 133.18 113.288C115.247 113.288 100.71 127.859 100.71 145.833C100.71 163.807 115.247 178.378 133.18 178.378Z" fill="white"/>
<path d="M133.18 173.468C148.407 173.468 160.751 161.095 160.751 145.833C160.751 130.571 148.407 118.198 133.18 118.198C117.953 118.198 105.609 130.571 105.609 145.833C105.609 161.095 117.953 173.468 133.18 173.468Z" fill="black"/>
<path d="M130.422 146.278C137.144 144.308 141.29 138.243 139.682 132.73C138.074 127.218 131.322 124.346 124.6 126.316C117.878 128.285 113.732 134.351 115.34 139.863C116.948 145.375 123.7 148.247 130.422 146.278Z" fill="white"/>
<path d="M143.998 155.188C146.799 154.367 148.526 151.84 147.856 149.543C147.187 147.246 144.373 146.049 141.572 146.87C138.771 147.691 137.044 150.218 137.714 152.515C138.384 154.812 141.198 156.008 143.998 155.188Z" fill="white"/>
<path d="M175.834 204.857C175.93 203.605 176.314 202.45 176.699 201.295C176.891 200.717 177.179 200.139 177.467 199.561C177.851 198.984 178.14 198.502 178.62 197.925C179.1 197.443 179.484 196.769 179.965 196.288C180.445 195.71 181.214 195.421 181.982 195.325C182.847 195.228 183.615 195.325 184.384 195.71C184.672 195.806 185.056 195.999 185.441 196.384C186.209 197.251 186.593 198.599 186.113 199.658C185.825 200.428 185.248 200.813 185.056 201.006C183.615 202.065 182.366 201.198 180.253 202.257C179.965 202.45 179.581 202.643 178.908 203.124C178.044 203.702 177.083 204.472 176.218 205.146L175.834 204.857Z" fill="black"/>
<path d="M170.262 204.857C170.166 203.605 169.782 202.45 169.398 201.295C169.206 200.717 168.918 200.139 168.629 199.561C168.245 198.984 167.957 198.502 167.477 197.925C166.996 197.443 166.612 196.769 166.132 196.288C165.651 195.71 164.883 195.421 164.114 195.325C163.25 195.228 162.481 195.325 161.713 195.71C161.424 195.806 161.04 195.999 160.656 196.384C159.887 197.251 159.503 198.599 159.983 199.658C160.272 200.428 160.848 200.813 161.04 201.006C162.481 202.065 163.73 201.198 165.843 202.257C166.132 202.45 166.516 202.643 167.188 203.124C168.053 203.702 169.014 204.472 169.878 205.146L170.262 204.857Z" fill="black"/>
<path d="M82.3619 301.241C82.458 298.93 83.5147 297.197 85.7242 293.923C88.5101 289.687 91.5842 287.376 96.1954 284.102C102.055 279.769 105.034 277.651 107.435 278.421C109.068 278.903 109.068 279.865 114.352 286.317C118.002 290.938 118.483 291.035 118.771 292.383C119.443 295.945 116.561 297.486 113.776 304.034C110.509 311.64 112.046 315.396 108.78 317.418C106.282 318.958 103.208 318.092 99.8459 317.129C93.0252 314.914 82.1698 308.944 82.3619 301.241Z" fill="#D8A579"/>
<path d="M100.71 358.244C98.1163 356.607 94.6579 354.392 90.9113 350.83C87.9333 348.037 83.13 343.512 80.5362 336.29C78.9991 331.957 76.9817 323.869 79.6716 322.328C81.3047 321.365 83.5142 323.676 88.3175 326.18C100.422 332.246 108.203 328.106 112.526 333.787C114.448 336.386 113.007 337.446 114.351 343.704C117.426 357.666 127.416 363.925 125.495 366.524C123.862 368.739 115.6 365.465 110.989 363.732C106.186 361.71 102.727 359.495 100.71 358.244Z" fill="#D8A579"/>
<path d="M149.416 243.758C149.32 242.41 150.472 240.484 152.682 236.632C156.044 230.47 157.677 229.218 159.407 228.737C160.271 228.544 160.944 228.544 162.289 228.64C165.363 228.833 166.804 229.892 169.301 230.662C174.201 232.203 175.642 230.566 176.891 232.01C179.869 235.284 173.048 245.683 172.279 246.935C169.494 251.075 166.9 255.023 162.865 255.216C159.887 255.408 157.581 253.579 155.084 251.653C152.778 249.92 149.608 247.416 149.416 243.758Z" fill="#D8A579"/>
<path d="M120.885 271.488C121.365 269.563 123.67 269.659 128.474 266.096C131.452 263.882 133.757 261.571 134.334 260.897C138.08 256.949 138.657 254.734 140.386 254.734C141.539 254.734 142.595 256.179 144.805 258.875C146.918 261.571 147.879 262.919 147.783 264.074C147.591 266.481 144.036 267.059 138.561 270.333C130.875 274.955 129.819 278.71 126.36 278.132C123.19 277.555 120.308 273.896 120.885 271.488Z" fill="#D8A579"/>
<path d="M170.166 266.866C149.127 266.096 138.752 246.357 138.368 245.491C137.888 244.528 138.272 243.372 139.233 242.891C140.193 242.409 141.346 242.795 141.826 243.757C141.922 243.95 151.625 262.341 170.262 263.015C171.319 263.015 172.183 263.978 172.087 265.037C172.087 266 171.223 266.866 170.166 266.866Z" fill="black"/>
<path d="M132.7 290.168C132.7 290.168 132.604 290.168 132.7 290.168C117.522 289.494 110.221 272.259 109.932 271.585C109.548 270.622 110.029 269.466 110.989 269.081C111.95 268.696 113.103 269.177 113.487 270.14C113.583 270.333 120.212 285.835 132.796 286.413C133.853 286.413 134.718 287.376 134.621 288.435C134.621 289.302 133.757 290.168 132.7 290.168Z" fill="black"/>
<path d="M111.47 328.009C107.916 328.009 103.977 327.624 99.7499 326.469C83.7069 322.039 75.253 309.811 72.371 304.804C71.8907 303.841 72.1789 302.686 73.0435 302.204C74.0042 301.723 75.157 302.012 75.6373 302.878C78.3271 307.5 86.0124 318.766 100.711 322.81C109.549 325.217 117.33 324.158 122.422 322.81C123.478 322.521 124.535 323.098 124.823 324.158C125.111 325.217 124.535 326.276 123.478 326.565C120.308 327.239 116.177 328.009 111.47 328.009Z" fill="black"/>
<path d="M172.376 378.464C172.28 378.464 172.184 378.464 172.184 378.464C164.787 377.597 146.054 373.746 132.796 356.896C112.527 331.091 124.343 299.412 124.919 298.16C125.303 297.197 126.456 296.716 127.417 297.101C128.377 297.486 128.858 298.642 128.474 299.604C127.993 300.856 116.849 330.513 135.775 354.585C148.167 370.28 165.651 373.939 172.568 374.709C173.625 374.805 174.393 375.768 174.297 376.827C174.105 377.694 173.336 378.464 172.376 378.464Z" fill="black"/>
<path d="M140.194 65.818C140.194 54.3597 132.124 31.347 134.43 28.4583C136.735 25.5697 145.189 18.7333 174.874 22.1033C174.874 22.1033 209.65 18.2518 214.357 27.4954C217.047 32.695 206.864 47.427 211.187 71.4026C215.414 94.608 140.962 89.6973 140.194 65.818Z" fill="#452669"/>
<path d="M153.163 65.8179C153.163 54.3596 147.591 37.5093 149.032 34.6207C150.473 31.732 158.639 23.9327 174.682 22.1033C174.682 22.1033 195.72 24.4142 198.698 33.6578C200.331 38.8573 194.567 47.3307 197.257 71.4026C199.851 94.6079 153.643 89.6972 153.163 65.8179Z" fill="#5B318C"/>
<path d="M216.566 52.8191C216.278 53.3968 216.085 53.6857 215.989 53.782C216.181 53.5894 216.278 53.3968 216.47 53.2042C216.278 54.5523 216.085 55.9003 215.989 57.152C215.221 57.9223 214.548 58.8852 214.068 59.9444L215.221 63.1219C213.107 82.1868 213.203 94.4154 213.203 94.4154H136.447C136.447 94.4154 136.639 82.1868 134.525 62.9293L135.678 59.9444C135.198 58.9815 134.525 57.9223 133.853 57.2483C133.757 56.7669 133.661 56.0929 133.565 55.3226C133.276 53.1079 132.988 51.4711 132.892 50.6045C132.796 49.9305 132.7 49.1602 132.508 48.101V48.0047C132.7 47.0418 133.084 46.0789 133.853 45.0198C139.521 49.5453 138.848 53.5894 138.752 53.782C141.634 45.4049 151.241 53.3005 148.839 59.4629C147.014 64.2773 151.625 65.7216 151.625 65.7216C142.595 65.7216 145.957 57.0557 142.499 56.1891C140.481 55.7077 140.001 57.9223 140.097 60.2332C144.708 66.0105 151.145 71.5952 158.542 71.5952C173.72 71.5952 174.681 55.3226 174.681 55.3226C174.681 55.3226 175.642 71.5952 190.82 71.5952C198.217 71.5952 204.557 66.0105 209.265 60.1369C209.457 57.9223 208.88 55.7077 206.863 56.1891C203.501 57.0557 206.863 65.7216 197.737 65.7216C197.737 65.7216 202.348 64.2773 200.523 59.4629C198.121 53.3005 207.728 45.4049 210.61 53.782C210.61 53.5894 209.937 49.5453 215.509 45.0198C216.278 46.0789 216.662 47.1381 216.854 48.0047C216.854 48.101 216.854 48.1973 216.95 48.2936C216.95 49.9304 216.758 51.3748 216.566 52.8191Z" fill="#F5DE53"/>
<path d="M174.873 87.5787C178.481 87.5787 181.406 86.2423 181.406 84.5938C181.406 82.9453 178.481 81.6089 174.873 81.6089C171.266 81.6089 168.341 82.9453 168.341 84.5938C168.341 86.2423 171.266 87.5787 174.873 87.5787Z" fill="white"/>
<path d="M174.969 27.1102C178.577 27.1102 181.502 25.1703 181.502 22.7773C181.502 20.3843 178.577 18.4443 174.969 18.4443C171.361 18.4443 168.437 20.3843 168.437 22.7773C168.437 25.1703 171.361 27.1102 174.969 27.1102Z" fill="#1B63A5"/>
<path d="M174.97 28.5545C170.454 28.5545 166.996 26.051 166.996 22.7773C166.996 19.5035 170.454 17 174.97 17C179.485 17 182.943 19.5035 182.943 22.7773C182.943 26.051 179.485 28.5545 174.97 28.5545ZM174.97 19.8886C171.992 19.8886 169.878 21.4292 169.878 22.7773C169.878 24.1253 171.992 25.6659 174.97 25.6659C177.948 25.6659 180.061 24.1253 180.061 22.7773C180.061 21.4292 177.948 19.8886 174.97 19.8886Z" fill="black"/>
<path d="M151.53 87.5787C154.448 87.5787 156.813 86.2423 156.813 84.5938C156.813 82.9453 154.448 81.6089 151.53 81.6089C148.612 81.6089 146.246 82.9453 146.246 84.5938C146.246 86.2423 148.612 87.5787 151.53 87.5787Z" fill="#1B63A5"/>
<path d="M138.464 87.001C136.927 87.4825 135.294 86.8084 134.814 85.3641C134.333 83.9198 135.198 82.3792 136.831 81.8978C138.368 81.4163 140.001 82.0904 140.482 83.5347C140.866 84.979 140.001 86.5196 138.464 87.001Z" fill="white"/>
<path d="M198.217 87.5787C201.135 87.5787 203.501 86.2423 203.501 84.5938C203.501 82.9453 201.135 81.6089 198.217 81.6089C195.299 81.6089 192.934 82.9453 192.934 84.5938C192.934 86.2423 195.299 87.5787 198.217 87.5787Z" fill="#1B63A5"/>
<path d="M210.226 86.4236C211.379 87.579 213.204 87.6753 214.165 86.6161C215.221 85.557 215.125 83.8238 213.973 82.6683C212.82 81.5129 210.995 81.4166 210.034 82.4758C208.977 83.5349 209.073 85.3644 210.226 86.4236Z" fill="white"/>
<path d="M207.152 67.8399C206.96 69.4768 207.824 70.8248 209.169 70.8248C210.514 70.8248 211.763 69.4768 211.955 67.8399C212.147 66.203 211.282 64.855 209.938 64.855C208.689 64.855 207.44 66.203 207.152 67.8399Z" fill="#2ABA2A"/>
<path d="M142.211 67.8399C142.403 69.4768 141.538 70.8248 140.193 70.8248C138.848 70.8248 137.6 69.4768 137.408 67.8399C137.215 66.203 138.08 64.855 139.425 64.855C140.674 64.855 141.923 66.203 142.211 67.8399Z" fill="#2ABA2A"/>
<path d="M176.315 53.8782H173.337C172.76 53.8782 172.184 53.493 171.896 52.9153C170.551 50.0266 168.918 47.4269 166.996 45.116C166.132 44.0568 166.9 42.4199 168.245 42.4199H181.406C182.751 42.4199 183.52 44.0568 182.655 45.116C180.638 47.5232 179.101 50.0266 177.852 52.9153C177.564 53.493 176.987 53.8782 176.315 53.8782ZM159.983 50.7007V63.7958C159.983 65.2401 161.617 66.0104 162.673 65.0475C164.979 63.1218 167.573 61.5812 170.455 60.1369C171.031 59.848 171.415 59.2703 171.415 58.5962V55.6113C171.415 54.9373 171.031 54.3596 170.455 54.0707C167.669 52.819 165.075 51.2784 162.769 49.2563C161.617 48.5823 159.983 49.3526 159.983 50.7007ZM168.245 71.9802H181.694C183.039 71.9802 183.712 70.4396 182.943 69.4768C181.022 67.0696 179.293 64.3735 177.948 61.4849C177.66 60.9072 177.179 60.6183 176.507 60.6183H173.337C172.76 60.6183 172.184 61.0034 171.896 61.5812C170.647 64.4698 169.014 67.0696 166.996 69.4768C166.132 70.4396 166.9 71.9802 168.245 71.9802ZM189.572 63.7958V50.5081C189.572 49.1601 188.035 48.3898 186.978 49.2563C184.576 51.1821 181.983 52.819 179.101 54.2633C178.524 54.5522 178.236 55.1299 178.236 55.7076V58.7888C178.236 59.4628 178.62 60.0406 179.197 60.2331C181.983 61.4849 184.672 63.1218 187.074 65.1438C188.035 65.9141 189.572 65.1438 189.572 63.7958Z" fill="#F5DE53"/>
<path d="M174.873 63.6996C171.319 63.6996 168.341 60.811 168.341 57.1521C168.341 53.5894 171.223 50.6045 174.873 50.6045C178.428 50.6045 181.406 53.4931 181.406 57.1521C181.406 60.811 178.428 63.6996 174.873 63.6996Z" fill="#F5DE53"/>
<path d="M170.935 57.2483C170.935 55.0337 172.76 53.3005 174.873 53.3005C177.083 53.3005 178.812 55.13 178.812 57.2483C178.812 59.463 176.987 61.1961 174.873 61.1961C172.664 61.1961 170.935 59.3667 170.935 57.2483Z" fill="white"/>
<path d="M173.721 50.1229C172.856 48.486 171.992 46.9454 170.935 45.4048C170.551 44.8271 170.935 44.1531 171.607 44.1531H178.044C178.716 44.1531 179.101 44.8271 178.716 45.4048C177.66 46.8491 176.795 48.486 176.026 50.1229C175.93 50.4118 175.642 50.6044 175.258 50.6044H174.393C174.105 50.6044 173.817 50.4118 173.721 50.1229Z" fill="#1B63A5"/>
<path d="M167.765 56.1891C166.132 55.3226 164.595 54.456 163.154 53.4931C162.577 53.1079 161.809 53.4931 161.809 54.1671V60.5221C161.809 61.1961 162.577 61.5813 163.154 61.1961C164.595 60.2332 166.132 59.2703 167.765 58.5963C168.053 58.5 168.245 58.2112 168.245 57.826V56.9594C168.245 56.5743 168.053 56.2854 167.765 56.1891Z" fill="#1B63A5"/>
<path d="M173.816 64.2772C172.952 65.9141 172.087 67.4547 171.031 68.9953C170.646 69.5731 171.031 70.2471 171.703 70.2471H178.139C178.812 70.2471 179.196 69.4768 178.812 68.9953C177.755 67.551 176.891 65.9141 176.122 64.3735C176.026 64.0847 175.738 63.8921 175.354 63.8921H174.489C174.297 63.8921 174.009 63.9884 173.816 64.2772Z" fill="#1B63A5"/>
<path d="M181.982 55.9966C183.52 55.2263 185.057 54.2634 186.498 53.3005C187.074 52.9154 187.939 53.3005 187.939 54.0708V60.1369C187.939 60.9072 187.17 61.2924 186.498 60.9072C185.057 59.9444 183.616 59.0778 182.079 58.3075C181.79 58.1149 181.598 57.826 181.598 57.5372V56.7669C181.502 56.478 181.694 56.0929 181.982 55.9966Z" fill="#1B63A5"/>
<path d="M213.492 77.3724H136.639C136.062 77.3724 135.582 76.891 135.582 76.217C135.582 75.6392 136.062 75.0615 136.639 75.0615H213.492C214.068 75.0615 214.548 75.543 214.548 76.217C214.548 76.891 214.068 77.3724 213.492 77.3724Z" fill="#EBBE2F"/>
<path d="M215.318 91.2377L214.645 91.4303L213.973 91.7191L213.396 90.8525L212.724 91.2377L212.051 91.6228L211.379 91.334L210.802 91.4303L210.13 91.334L209.458 91.6228L208.881 91.5266H208.209L207.536 91.1414L206.864 90.9488L206.287 91.4303L205.615 91.0451L204.942 91.5266L204.27 91.2377L203.694 91.1414H203.021L202.349 90.8525L201.772 90.9488L201.1 91.2377L200.427 91.1414L199.755 91.7191L199.178 90.9488L198.506 91.2377L197.834 91.1414L197.161 90.9488L196.585 91.334L195.912 90.9488L195.24 91.7191L194.663 91.334L193.991 91.1414L193.318 91.4303L192.646 91.0451H192.07L191.397 91.334L190.725 91.1414L190.052 90.9488L189.476 91.0451L188.803 91.6228L188.131 91.1414L187.554 90.8525L186.882 91.1414L186.21 90.9488L185.537 91.6228L184.961 91.334L184.288 91.2377H183.616L183.039 91.0451L182.367 90.9488L181.694 91.334L181.022 91.7191H180.446L179.773 90.8525H179.101L178.428 91.2377L177.852 91.0451L177.179 91.1414L176.507 91.0451L175.93 91.334L175.258 90.9488L174.586 91.4303L173.913 91.6228L173.337 91.0451L172.664 90.8525L171.992 91.2377L171.319 91.0451L170.743 91.2377H170.07L169.398 91.0451H168.822L168.149 90.9488L167.477 91.1414L166.804 91.0451L166.228 90.8525L165.555 91.7191L164.883 91.334H164.21L163.634 91.1414L162.961 90.9488L162.289 90.8525L161.713 91.1414L161.04 91.0451H160.368L159.695 90.8525L159.119 91.1414L158.446 91.334L157.774 91.0451L157.101 90.8525L156.525 91.334H155.853L155.18 90.8525L154.508 90.9488L153.931 91.7191L153.259 91.2377L152.586 91.5266L152.01 90.9488L151.337 91.6228L150.665 91.4303L149.993 90.8525L149.416 91.6228L148.744 91.0451L148.071 90.8525L147.399 90.9488L146.822 91.1414L146.15 90.8525L145.477 91.6228L144.805 90.9488L144.229 91.2377H143.556L142.884 90.9488L142.211 91.2377L141.635 91.0451L140.962 91.6228L140.29 91.2377L139.617 91.0451L139.041 91.1414L138.369 91.334L137.696 90.8525L137.12 91.1414L136.447 90.9488L135.775 90.8525L135.102 90.9488L134.43 91.4303L133.853 91.6228H133.277L132.797 92.008L132.412 92.3931L131.932 92.7783L131.644 93.356L131.548 93.9337L131.644 94.5115L131.548 95.1855L131.356 95.8595L131.067 96.5335L131.548 97.2075L131.452 97.8815L131.356 98.5556L131.164 99.2296L130.779 99.9036L131.164 100.578L131.548 101.155L131.164 101.926L131.548 102.6L132.412 102.696L132.797 103.081L133.085 103.948L133.949 103.466L134.43 103.851L135.102 103.755L135.775 104.044L136.447 104.14L137.024 103.755H137.696H138.369L139.041 103.659L139.617 104.14L140.29 103.563L140.962 103.755L141.539 103.659L142.211 103.466L142.884 103.659L143.556 104.14L144.133 103.466L144.805 103.755L145.477 103.851L146.15 104.237L146.726 103.948L147.399 104.237L148.071 103.851L148.648 103.659L149.32 103.948L149.993 104.14L150.665 103.755H151.241H151.914L152.586 103.948L153.259 104.237L153.835 103.659L154.508 103.563L155.18 104.044L155.757 103.851L156.429 103.948L157.101 103.466L157.774 103.563L158.35 104.333L159.023 103.851L159.695 104.044L160.368 103.466L160.944 103.948L161.617 104.237L162.289 103.563L162.865 103.755L163.538 103.563L164.21 103.755L164.883 103.659L165.459 104.044L166.132 104.237L166.804 103.948L167.381 103.563L168.053 103.659H168.725L169.398 103.755L169.974 103.466L170.647 103.563L171.319 104.237L171.992 104.044L172.568 103.755L173.241 103.659L173.913 103.948L174.489 103.466L175.162 104.237L175.834 103.948L176.507 103.466L177.083 103.563L177.756 103.948L178.428 103.466H179.101L179.677 104.044L180.349 103.659L181.022 103.466L181.598 104.044L182.271 103.948L182.943 103.659L183.616 103.466L184.192 103.563L184.865 103.948L185.537 103.755L186.21 104.14L186.786 104.044L187.458 103.466L188.131 103.755L188.707 103.948L189.38 103.755L190.052 103.563L190.725 103.659L191.301 103.466L191.973 104.237H192.646L193.318 103.466L193.895 103.851L194.567 103.755L195.24 104.237L195.912 103.659L196.489 103.755L197.161 103.563L197.834 104.237H198.41L199.082 103.948L199.755 103.563H200.427H201.004L201.676 104.14L202.349 103.466L203.021 104.14L203.598 104.237L204.27 103.563L204.942 104.044L205.615 103.659L206.191 103.755H206.864L207.536 104.14L208.209 103.948L208.785 104.14L209.458 103.948L210.13 104.237L210.802 103.466L211.379 103.563L212.051 103.659L212.724 103.563L213.3 104.044L213.973 103.466L214.645 103.563L215.318 104.044L215.99 104.237L216.663 103.948L217.047 103.177L217.527 102.792L218.2 102.503L218.104 101.733L218.584 101.252L218.68 100.578L218.776 99.9036L218.104 99.2296L218.488 98.5556L218.776 97.8815L218.68 97.2075L218.2 96.5335L218.392 95.8595L218.104 95.1855L218.488 94.5115L218.776 93.8375L218.104 93.356L218.007 92.682L217.335 92.4894L217.239 91.6228H216.47L215.894 91.7191L215.318 91.2377Z" fill="white"/>
<path d="M158.35 106.259C157.87 106.259 157.39 106.066 157.102 105.777C156.813 105.873 156.525 105.873 156.237 105.873H156.045L155.853 105.97C155.372 106.162 154.892 106.066 154.412 105.873C153.835 106.259 153.163 106.355 152.49 106.066L151.626 105.777H151.145L150.953 105.873C150.473 106.162 149.993 106.162 149.512 106.066L148.84 105.873C148.744 105.873 148.744 105.873 148.648 105.777L148.359 105.97C147.879 106.259 147.303 106.259 146.822 106.162C146.342 106.355 145.766 106.259 145.285 105.97L144.901 105.777H144.805C144.133 106.259 143.268 106.259 142.499 105.777L142.211 105.585H142.115C142.019 105.585 142.019 105.585 141.923 105.681L141.347 105.777C141.155 105.777 141.058 105.777 140.866 105.777C140.194 106.259 139.233 106.259 138.561 105.777H138.465H137.696L137.6 105.873C137.216 106.162 136.735 106.259 136.255 106.162L135.583 106.066C135.391 106.066 135.294 105.97 135.102 105.97L134.91 105.873H134.814C134.526 105.873 134.238 105.873 134.046 105.777C133.565 105.97 132.989 105.97 132.509 105.777C131.932 105.585 131.548 105.103 131.356 104.622V104.525C130.779 104.429 130.299 104.044 130.011 103.563L129.627 102.889C129.338 102.407 129.338 101.829 129.531 101.252L129.242 100.867C128.858 100.289 128.858 99.5185 129.242 98.9408L129.531 98.4593L129.627 98.1705L129.723 97.689C129.338 97.1113 129.242 96.4373 129.531 95.8596L129.819 95.2818L130.011 94.6078V94.319C130.011 94.1264 130.011 93.9338 130.011 93.645L130.107 93.0672C130.107 92.8747 130.203 92.6821 130.299 92.4895L130.587 91.9118C130.683 91.6229 130.875 91.4303 131.068 91.2378L131.74 90.5637C131.836 90.4675 131.836 90.4675 131.932 90.4675L132.412 90.0823C132.797 89.7934 133.181 89.6972 133.565 89.6972H133.853L134.334 89.4083C134.622 89.2157 134.91 89.1194 135.198 89.0231L135.871 88.9269C136.063 88.9269 136.255 88.9269 136.447 88.9269L137.12 89.0231C137.216 89.0231 137.216 89.0231 137.312 89.0231C137.888 88.7343 138.561 88.8306 139.137 89.2157L139.714 89.1194C140.002 89.1194 140.29 89.1194 140.578 89.1194L141.155 89.312C141.539 89.1194 142.115 89.0231 142.596 89.1194C143.076 88.9269 143.652 88.9269 144.133 89.1194L144.325 89.2157H144.421C144.901 89.0231 145.381 88.9269 145.862 89.1194C146.342 88.9269 146.918 88.9269 147.399 89.1194C147.495 89.1194 147.495 89.1194 147.591 89.1194L148.263 89.0231C148.552 89.0231 148.84 89.0231 149.032 89.1194L149.512 89.2157C149.704 89.1194 149.993 89.0231 150.185 89.0231C150.665 88.9269 151.145 89.1194 151.434 89.312C152.01 89.0231 152.779 89.0231 153.355 89.4083C153.547 89.4083 153.643 89.4083 153.835 89.4083C154.027 89.2157 154.316 89.1194 154.604 89.1194L155.276 89.0231C155.661 88.9269 156.141 89.0231 156.525 89.2157C157.005 88.9269 157.486 88.9269 158.062 89.0231L158.735 89.2157C158.831 89.2157 158.927 89.312 158.927 89.312L159.215 89.1194C159.599 88.9269 160.176 88.8306 160.56 89.0231L160.944 89.1194H161.328C161.424 89.1194 161.521 89.1194 161.617 89.1194H161.713C162.097 88.9269 162.481 88.9269 162.865 88.9269L163.538 89.0231C163.634 89.0231 163.73 89.0231 163.826 89.1194L164.883 89.4083H165.267H165.363C165.844 88.9269 166.612 88.8306 167.285 89.0231L167.765 89.2157L168.053 89.1194C168.341 89.0231 168.629 89.0231 168.822 89.0231L169.398 89.1194H169.878C170.07 89.1194 170.263 89.1194 170.359 89.2157L170.839 89.312L171.127 89.2157C171.415 89.1194 171.8 89.1194 172.184 89.1194C172.664 88.8306 173.145 88.8306 173.625 88.9269L174.297 89.1194C174.393 89.1194 174.489 89.2157 174.682 89.2157C175.258 88.8306 175.93 88.8306 176.507 89.0231C176.795 88.9269 176.987 88.9269 177.275 89.0231L177.66 89.1194L178.044 89.0231C178.236 89.0231 178.428 89.0231 178.62 89.0231C178.909 88.8306 179.197 88.8306 179.485 88.8306H180.157C180.638 88.8306 181.118 89.0231 181.502 89.4083L181.791 89.2157C182.175 89.0231 182.559 88.9269 183.039 89.0231L183.712 89.1194C183.808 89.1194 183.904 89.1194 184 89.2157L184.288 89.312H184.673C184.769 89.312 184.865 89.312 184.961 89.312L185.441 89.4083C185.921 89.0231 186.498 88.9269 187.074 89.1194C187.554 88.9269 188.227 88.9269 188.707 89.1194L188.995 89.312C189.092 89.2157 189.284 89.2157 189.476 89.2157L190.052 89.1194C190.34 89.1194 190.629 89.1194 190.917 89.1194L191.589 89.312C191.781 89.2157 192.07 89.1194 192.358 89.1194H192.934C193.222 89.1194 193.511 89.2157 193.703 89.312C194.087 89.2157 194.375 89.2157 194.759 89.312L195.048 89.4083C195.528 89.0231 196.2 88.9269 196.777 89.1194C197.161 89.0231 197.545 89.0231 197.93 89.1194L198.506 89.312L198.698 89.2157C199.275 89.0231 199.851 89.0231 200.331 89.312C200.523 89.312 200.716 89.312 200.908 89.312H201.004L201.196 89.2157C201.292 89.1194 201.484 89.1194 201.676 89.1194L202.253 89.0231C202.637 88.9269 203.021 89.0231 203.309 89.1194L203.598 89.2157H203.886C203.982 89.2157 204.078 89.2157 204.174 89.2157L204.75 89.312H204.846C205.327 89.1194 205.807 89.0231 206.287 89.1194C206.672 88.9269 207.152 88.9269 207.536 89.0231L208.209 89.2157C208.401 89.2157 208.497 89.312 208.593 89.4083L208.785 89.5046H208.977C209.073 89.5046 209.169 89.5046 209.265 89.5046L209.458 89.4083C209.746 89.312 210.13 89.2157 210.514 89.312L210.899 89.4083H211.187C211.475 89.4083 211.763 89.4083 212.051 89.5046L212.628 89.2157C213.396 88.8306 214.261 88.9269 214.837 89.4083H214.933C215.51 89.2157 216.182 89.312 216.663 89.6972H217.431C218.296 89.6972 219.064 90.2749 219.256 91.0452C219.641 91.3341 219.929 91.7192 220.025 92.2006C220.793 92.6821 220.986 93.7412 220.697 94.5115L220.409 95.1856C220.505 95.4744 220.505 95.7633 220.505 96.0522C220.697 96.2447 220.793 96.5336 220.793 96.8224L220.889 97.4965C220.986 97.8816 220.889 98.1705 220.793 98.5556L220.697 98.8445C220.889 99.2296 220.986 99.7111 220.986 100.096L220.793 101.444C220.793 101.733 220.601 102.118 220.409 102.311C220.409 103.081 220.025 103.851 219.256 104.14L218.872 104.333L218.68 104.718C218.488 105.103 218.104 105.488 217.719 105.585L217.047 105.873C216.663 106.066 216.182 106.066 215.798 105.97L215.126 105.777C214.933 105.681 214.837 105.681 214.645 105.585C213.973 105.97 213.108 105.97 212.436 105.488C212.34 105.488 212.147 105.488 212.051 105.488H211.859C211.283 106.066 210.418 106.259 209.65 105.97C209.265 106.066 208.881 106.066 208.497 105.97H208.401C207.921 106.066 207.344 106.066 206.96 105.777L206.768 105.681H206.576C206.48 105.681 206.48 105.681 206.383 105.681H206.287C205.903 105.97 205.327 105.97 204.942 105.873C204.558 106.066 204.174 106.162 203.694 106.066L203.117 105.97C203.021 105.97 202.829 105.873 202.733 105.873C202.061 106.066 201.388 105.97 200.812 105.488L200.619 105.392L200.427 105.488C200.331 105.488 200.331 105.585 200.235 105.585L199.563 105.873C199.371 105.97 199.082 106.066 198.794 106.066H198.218C197.738 106.066 197.257 105.873 196.969 105.585C196.969 105.585 196.969 105.585 196.873 105.585C196.2 106.162 195.24 106.162 194.471 105.681H194.375C194.279 105.681 194.183 105.681 194.087 105.681C193.799 105.97 193.318 106.066 192.934 106.066H192.262C191.781 106.066 191.205 105.873 190.917 105.488C190.821 105.488 190.821 105.488 190.725 105.488H190.436L189.476 105.777C189.092 105.873 188.707 105.873 188.323 105.777L188.035 105.681C187.843 105.777 187.555 105.873 187.362 105.97L186.786 106.066C186.402 106.162 185.921 106.066 185.537 105.873C185.057 105.97 184.576 105.874 184.192 105.681L183.904 105.488H183.808L183.232 105.777C183.039 105.873 182.943 105.873 182.751 105.873L182.079 105.97C181.694 106.066 181.214 105.97 180.83 105.777C180.157 106.162 179.389 106.066 178.812 105.681C178.236 105.97 177.564 105.97 176.987 105.681C176.891 105.681 176.891 105.777 176.795 105.777L176.123 106.066C175.546 106.355 174.874 106.259 174.297 105.873C174.009 105.873 173.625 105.873 173.337 105.777H173.241L173.048 105.873C172.952 105.97 172.856 105.97 172.76 105.97L172.088 106.162C171.415 106.355 170.743 106.162 170.167 105.681C169.878 105.777 169.59 105.777 169.302 105.777L168.726 105.681H168.149C168.053 105.681 167.957 105.681 167.957 105.681C167.861 105.777 167.765 105.777 167.669 105.873L166.996 106.162C166.612 106.355 166.132 106.355 165.747 106.259L165.075 106.066C164.883 105.97 164.691 105.97 164.595 105.873C164.306 105.873 164.114 105.873 163.826 105.777H163.634H163.442C163.25 105.777 163.154 105.873 162.962 105.873C162.385 106.355 161.617 106.451 160.944 106.162L160.56 105.97C160.272 106.066 159.887 106.162 159.503 106.066C159.119 106.162 158.735 106.259 158.35 106.259ZM164.883 101.733C165.267 101.733 165.651 101.829 165.94 102.022L166.036 102.118L166.324 101.926C166.708 101.637 167.188 101.541 167.669 101.637L168.245 101.733H168.822C168.918 101.733 169.014 101.733 169.11 101.733H169.206C169.59 101.541 169.974 101.541 170.359 101.541L171.031 101.637C171.319 101.637 171.608 101.829 171.896 102.022C172.088 101.926 172.28 101.926 172.376 101.829L173.048 101.733C173.241 101.733 173.433 101.733 173.625 101.733C174.201 101.444 174.97 101.444 175.546 101.829C175.93 101.541 176.411 101.444 176.891 101.541L177.468 101.637C177.564 101.637 177.66 101.637 177.66 101.733C177.948 101.637 178.14 101.541 178.428 101.541H179.101C179.389 101.541 179.677 101.637 179.965 101.733L180.446 101.637C181.022 101.444 181.598 101.541 182.079 101.926C182.175 101.926 182.271 101.829 182.271 101.829L182.943 101.637C183.232 101.541 183.52 101.541 183.808 101.637L184.384 101.733C184.576 101.733 184.769 101.829 184.961 101.926C185.345 101.829 185.729 101.829 186.114 102.022C186.69 101.541 187.458 101.444 188.035 101.733L188.611 101.926L189.38 101.733C189.668 101.637 189.956 101.637 190.148 101.637H190.34L190.533 101.541C191.109 101.348 191.685 101.444 192.166 101.733C192.742 101.348 193.607 101.348 194.183 101.733C194.471 101.733 194.663 101.733 194.952 101.829C195.336 101.637 195.72 101.637 196.104 101.637H196.297L196.585 101.541C197.257 101.348 197.93 101.541 198.41 101.926L198.794 101.733C199.082 101.541 199.371 101.444 199.755 101.444H201.004C201.196 101.444 201.388 101.444 201.58 101.541C201.868 101.444 202.06 101.348 202.349 101.348C202.733 101.348 203.117 101.444 203.405 101.637C203.886 101.348 204.558 101.348 205.039 101.637C205.327 101.541 205.615 101.541 205.903 101.541L206.287 101.637H206.768C207.056 101.637 207.44 101.733 207.728 101.829C208.113 101.733 208.401 101.733 208.785 101.926H208.881C209.073 101.829 209.265 101.829 209.458 101.829C209.842 101.444 210.514 101.252 211.091 101.348L212.051 101.541L212.436 101.444C212.724 101.444 212.916 101.444 213.204 101.444C213.492 101.348 213.877 101.252 214.261 101.348L214.933 101.444C215.222 101.444 215.414 101.541 215.606 101.733C215.702 101.637 215.798 101.541 215.798 101.541L216.182 101.252C216.278 100.963 216.374 100.578 216.566 100.385C216.086 99.8074 215.99 98.8445 216.374 98.1705L216.663 97.689L216.566 97.5927C216.182 97.1113 216.086 96.5336 216.278 95.9559C216.086 95.3781 216.086 94.8004 216.374 94.319C216.374 94.319 216.374 94.2227 216.278 94.2227C216.086 94.1264 215.894 93.9338 215.702 93.7412C215.414 93.7412 215.126 93.6449 214.837 93.4524L214.645 93.5487C214.069 93.8375 213.396 93.7412 212.82 93.3561C212.34 93.645 211.667 93.6449 211.187 93.4524L210.995 93.3561C210.803 93.3561 210.61 93.3561 210.418 93.3561H210.322L210.13 93.4524C209.746 93.6449 209.458 93.645 209.073 93.5487L208.689 93.4524H208.209C207.921 93.4524 207.536 93.3561 207.248 93.1635L207.152 93.0672C206.672 93.2598 206.191 93.3561 205.711 93.1635C205.231 93.3561 204.654 93.3561 204.174 93.1635L203.501 92.9709H203.021C202.733 92.9709 202.541 92.8746 202.253 92.7784H202.157L201.868 92.8747C201.58 92.9709 201.292 93.0672 201.004 93.0672C200.62 93.4524 200.043 93.5487 199.563 93.5487C199.179 93.5487 198.794 93.3561 198.506 93.0672C198.41 93.0672 198.314 93.0672 198.218 93.0672L197.545 92.9709H197.449C197.161 93.1635 196.777 93.2598 196.393 93.1635C195.72 93.645 194.856 93.7412 194.183 93.2598L193.991 93.1635C193.415 93.3561 192.838 93.3561 192.358 93.0672L192.262 92.9709L192.166 93.0672C191.781 93.2598 191.301 93.2598 190.917 93.1635L190.244 92.9709L190.148 93.0672C189.476 93.645 188.515 93.645 187.747 93.1635L187.458 92.9709C187.266 93.0672 187.074 93.0672 186.882 93.0672C186.306 93.5487 185.441 93.7412 184.769 93.3561L184.48 93.1635H184.288H183.712C183.52 93.1635 183.328 93.1635 183.135 93.0672L182.847 92.9709L182.079 93.3561C181.791 93.5487 181.502 93.645 181.118 93.645H180.542C180.061 93.645 179.485 93.4524 179.197 93.0672C178.812 93.1635 178.332 93.2598 177.948 93.0672L177.756 92.9709H177.564C177.371 92.9709 177.179 92.9709 176.987 92.9709H176.891C176.411 93.1635 175.93 93.2598 175.45 93.0672C175.354 93.0672 175.258 93.1635 175.162 93.1635L174.489 93.3561C173.817 93.5487 173.145 93.3561 172.664 92.9709C172.28 93.0672 171.896 93.1635 171.511 92.9709H171.415C171.223 93.0672 171.031 93.0672 170.839 93.0672H170.167C169.974 93.0672 169.782 93.0672 169.686 92.9709L169.302 92.8747H169.014C168.918 92.8747 168.822 92.8747 168.726 92.8747H168.437L168.149 92.9709C167.861 93.0672 167.573 93.0672 167.381 93.0672H167.188C166.612 93.7412 165.555 93.9338 164.787 93.4524L164.595 93.3561H164.403C164.21 93.3561 164.018 93.3561 163.826 93.2598L162.865 92.9709C162.481 93.1635 162.097 93.1635 161.713 93.1635L161.136 93.0672H160.56C160.368 93.0672 160.272 93.0672 160.08 92.9709C159.983 92.9709 159.887 93.0672 159.887 93.0672L159.215 93.2598C158.831 93.3561 158.35 93.3561 157.966 93.1635L157.774 93.0672C157.486 93.2598 157.198 93.3561 156.813 93.3561H156.141C155.949 93.3561 155.661 93.3561 155.468 93.2598C154.892 93.8375 153.931 93.9338 153.259 93.5487C152.971 93.645 152.682 93.645 152.394 93.5487C152.01 93.7412 151.53 93.7412 151.145 93.645L150.665 93.5487C150.473 93.645 150.185 93.7412 149.993 93.7412C149.512 93.8375 148.936 93.645 148.552 93.2598L148.263 92.9709L147.879 93.0672C147.687 93.1635 147.399 93.1635 147.207 93.1635C146.918 93.4524 146.438 93.645 145.958 93.645C145.477 93.645 145.093 93.5487 144.709 93.2598H144.613H143.556C143.364 93.2598 143.076 93.2598 142.884 93.1635C142.596 93.2598 142.403 93.2598 142.115 93.2598C141.539 93.7412 140.674 93.7412 140.002 93.3561L139.521 93.0672L138.945 93.2598C138.465 93.3561 137.984 93.3561 137.504 93.0672C137.216 93.1635 136.928 93.0672 136.639 93.0672L135.871 92.8747L135.583 93.0672C135.391 93.1635 135.294 93.2598 135.102 93.3561L134.526 93.5487C134.334 93.645 134.238 93.645 134.046 93.645L133.853 93.8375C133.757 93.9338 133.757 93.9338 133.661 93.9338L133.565 94.0301V94.2227C133.565 94.4153 133.565 94.6078 133.565 94.8004L133.469 95.4744C133.469 95.5707 133.469 95.667 133.373 95.7633L133.181 96.341C133.373 96.7262 133.469 97.1113 133.373 97.4965L133.181 98.8445C133.181 98.9408 133.181 99.0371 133.085 99.1334L132.893 99.8074V99.9037L133.085 100.193C133.277 100.481 133.373 100.867 133.373 101.155C133.469 101.252 133.565 101.348 133.661 101.444L133.853 101.637C134.238 101.637 134.526 101.733 134.814 101.926C135.102 101.926 135.391 101.926 135.679 102.118L135.871 102.215C136.159 102.022 136.447 101.926 136.832 101.926H138.08L138.657 101.829C138.945 101.829 139.137 101.829 139.425 101.829C139.81 101.637 140.29 101.637 140.674 101.733L140.962 101.829L141.539 101.637C141.923 101.541 142.211 101.541 142.596 101.637L143.076 101.733C143.556 101.444 144.133 101.444 144.709 101.637L145.189 101.829L145.574 101.926C145.766 101.926 145.862 102.022 146.054 102.022C146.438 101.926 146.726 101.926 147.111 102.022C147.207 102.022 147.207 101.926 147.303 101.926L147.879 101.733C148.359 101.541 148.84 101.637 149.224 101.829L149.608 102.022C149.897 101.926 150.185 101.829 150.473 101.829H151.722C151.914 101.829 152.106 101.829 152.298 101.926L152.682 102.022C152.875 101.926 153.163 101.829 153.451 101.733L154.123 101.637C154.604 101.541 155.084 101.637 155.468 101.926C155.564 101.926 155.757 101.926 155.853 101.926H155.949C156.333 101.637 156.813 101.541 157.294 101.541L157.966 101.637C158.254 101.637 158.543 101.733 158.735 101.926C158.831 101.926 159.023 101.926 159.119 101.926C159.791 101.444 160.656 101.444 161.328 101.829C161.809 101.637 162.289 101.541 162.769 101.733H162.865C163.25 101.637 163.538 101.637 163.922 101.733L164.21 101.829H164.499C164.691 101.733 164.787 101.733 164.883 101.733Z" fill="black"/>
<path d="M158.35 105.777C157.965 105.777 157.581 105.585 157.293 105.296L157.197 105.199C156.909 105.392 156.621 105.488 156.236 105.392H155.852L155.468 105.488C155.083 105.585 154.603 105.585 154.219 105.296L154.123 105.392C153.739 105.777 153.066 105.873 152.49 105.681L151.913 105.392L151.529 105.296H151.145H150.857L150.472 105.488C150.184 105.585 149.896 105.681 149.608 105.585L148.935 105.488C148.839 105.488 148.743 105.392 148.647 105.392L148.455 105.296L147.975 105.585C147.59 105.777 147.206 105.777 146.822 105.681H146.726L146.63 105.777C146.245 105.97 145.669 105.97 145.285 105.681L144.804 105.392L144.42 105.296C143.94 105.777 143.171 105.777 142.691 105.392L142.115 105.103L141.154 105.296C140.962 105.296 140.866 105.296 140.674 105.296L140.577 105.392C140.097 105.873 139.233 105.97 138.752 105.488L138.56 105.392C138.464 105.392 138.368 105.392 138.272 105.392H137.695H137.407L137.023 105.585C136.735 105.681 136.543 105.777 136.254 105.777L135.582 105.681C135.39 105.681 135.294 105.585 135.198 105.585L134.91 105.488H134.621C134.429 105.488 134.141 105.488 133.949 105.392L133.853 105.488C133.469 105.681 132.988 105.777 132.604 105.585C132.22 105.392 131.835 105.103 131.739 104.718L131.643 104.333H131.451C130.971 104.237 130.587 104.044 130.394 103.659L130.01 103.081C129.722 102.696 129.722 102.118 129.914 101.637C129.914 101.637 129.914 101.541 129.818 101.541L129.53 100.866C129.338 100.481 129.338 99.9999 129.53 99.6148L129.818 99.1333L129.914 98.7482L130.01 98.1704V98.0741L129.914 97.9779C129.626 97.5927 129.53 97.015 129.722 96.5335L130.106 95.4744V95.1855L130.01 94.8004C130.01 94.6078 130.01 94.5115 130.01 94.3189L130.106 93.7412C130.106 93.6449 130.202 93.4523 130.202 93.356L130.491 92.7783C130.587 92.5857 130.779 92.3932 130.875 92.2969L131.259 92.008L132.124 91.2377C132.412 90.9489 132.796 90.8526 133.084 90.8526H133.469H133.565L133.949 90.5637C134.141 90.3711 134.429 90.2748 134.717 90.2748C134.717 89.986 134.717 89.6971 134.717 89.5045C133.084 88.9268 131.931 87.2899 131.931 85.3642C131.931 83.631 132.892 82.0904 134.333 81.4164C134.237 80.4535 134.237 79.3943 134.141 78.2389C133.949 77.8537 133.853 77.4686 133.853 77.0834C133.853 76.7946 133.853 76.5057 133.949 76.3131C133.661 72.269 133.276 68.225 132.796 64.0846C132.796 63.892 132.796 63.6031 132.892 63.4106L133.757 61.0034C133.372 60.2331 132.892 59.6554 132.508 59.1739C132.316 58.9813 132.124 58.6925 132.124 58.4036L130.875 49.2563C130.875 49.0637 130.875 48.8711 130.875 48.6786C131.163 47.4268 131.643 46.2714 132.412 45.1159C132.604 44.827 132.988 44.5382 133.372 44.5382C133.757 44.4419 134.141 44.6345 134.525 44.8271L134.621 44.9233C132.412 35.102 131.451 30.2876 132.988 28.3619C135.774 24.8955 143.94 19.3108 167.188 20.7551C168.341 18.5405 171.223 17.0962 174.681 17.0962C178.139 17.0962 181.021 18.6368 182.174 20.8514C193.99 20.0811 212.915 20.0811 215.413 27.7841C215.893 29.421 215.413 32.5985 213.684 41.5533C213.3 43.7679 212.819 45.9825 212.339 48.1971C212.819 47.4268 213.396 46.4639 214.164 45.1159C214.452 44.7308 214.837 44.4419 215.317 44.3456C215.797 44.3456 216.278 44.5382 216.566 44.9233C217.334 46.0788 217.911 47.2342 218.103 48.486C218.103 48.6786 218.199 48.7748 218.199 48.9674C218.199 49.0637 218.199 49.2563 218.199 49.3526L216.95 58.1147C216.95 58.4036 216.758 58.6925 216.566 58.9813C216.086 59.4628 215.605 60.1368 215.221 60.9071L216.182 63.5069C216.278 63.6994 216.278 63.9883 216.278 64.1809C215.893 68.0324 215.509 71.7876 215.221 75.5428C215.509 75.928 215.701 76.5057 215.701 76.9871C215.701 77.6612 215.413 78.2389 215.029 78.7203C214.933 79.5869 214.933 80.4535 214.837 81.3201C216.278 81.9941 217.142 83.5347 217.142 85.2679C217.142 87.1936 215.989 88.8305 214.452 89.4082C214.452 89.7934 214.452 90.2748 214.452 90.5637C214.933 90.3711 215.509 90.4674 215.893 90.8526L215.989 90.9489H216.854C217.623 90.9489 218.295 91.5266 218.391 92.2006C218.775 92.3932 219.064 92.7783 219.16 93.2598L219.352 93.356C219.928 93.7412 220.216 94.5115 219.928 95.1855L219.64 95.8595C219.64 95.8595 219.64 95.9558 219.544 95.9558C219.736 96.2447 219.736 96.6298 219.64 97.015L219.736 97.1113C219.832 97.3038 219.928 97.4964 219.928 97.689L220.024 98.363C220.024 98.6519 220.024 98.8445 219.928 99.1333L219.736 99.711C220.024 99.9999 220.12 100.481 220.024 100.866L219.832 102.118C219.832 102.407 219.64 102.696 219.448 102.985V103.081C219.544 103.755 219.16 104.429 218.487 104.622L218.007 104.814L217.815 105.296C217.623 105.681 217.334 105.97 217.046 106.066L216.566 105.585C216.278 105.681 215.989 105.681 215.701 105.681L215.029 105.488C214.837 105.488 214.645 105.392 214.548 105.296L214.356 105.199C213.876 105.681 213.107 105.681 212.531 105.296L212.339 105.199H212.243C212.147 105.199 211.955 105.199 211.859 105.199L211.282 105.103L211.186 105.199C210.802 105.777 210.033 105.97 209.361 105.585L209.169 105.488H209.073C208.881 105.585 208.592 105.585 208.4 105.488L208.112 105.392L207.824 105.488C207.44 105.585 207.055 105.585 206.767 105.392L206.479 105.199H206.191C206.095 105.199 205.902 105.199 205.806 105.199H205.71L205.518 105.296C205.134 105.488 204.75 105.585 204.365 105.392C204.077 105.681 203.597 105.777 203.213 105.681L202.54 105.585C202.444 105.585 202.348 105.488 202.252 105.488C201.772 105.777 201.195 105.681 200.715 105.296L200.331 105.007H200.139H199.946L198.986 105.585C198.698 105.777 198.409 105.777 198.121 105.777L197.449 105.681C197.16 105.681 196.872 105.488 196.584 105.296C196.392 105.296 196.296 105.296 196.104 105.296L195.912 105.392C195.431 105.873 194.663 105.873 194.086 105.488L193.894 105.296H193.798C193.606 105.296 193.51 105.296 193.318 105.296C193.03 105.585 192.645 105.681 192.261 105.681H191.589C191.204 105.681 190.82 105.488 190.532 105.199C190.34 105.199 190.244 105.199 190.052 105.199L189.763 105.103L188.803 105.392C188.515 105.488 188.226 105.488 187.938 105.392L187.266 105.199C187.074 105.392 186.689 105.488 186.401 105.488H185.729C185.44 105.488 185.248 105.488 185.056 105.392L184.864 105.296H184.672C184.384 105.392 184.095 105.296 183.807 105.199L183.231 104.911L183.039 105.007L182.462 105.296C182.366 105.296 182.27 105.392 182.174 105.392L181.502 105.488C181.021 105.585 180.541 105.488 180.253 105.103L180.061 105.199C179.484 105.585 178.812 105.585 178.331 105.103L178.235 105.007L178.139 105.103C177.755 105.392 177.179 105.392 176.698 105.199L176.41 105.007L176.314 105.103C176.218 105.199 176.218 105.199 176.122 105.199L175.449 105.488C174.873 105.777 174.297 105.681 173.816 105.296C173.528 105.392 173.144 105.296 172.856 105.199L172.568 105.103L172.183 105.296C172.087 105.296 171.991 105.392 171.895 105.392L171.223 105.585C170.742 105.681 170.262 105.585 169.878 105.199L169.686 105.007H169.589C169.301 105.103 169.013 105.199 168.629 105.103L168.245 105.007H167.86C167.668 105.007 167.572 105.007 167.38 105.007L167.284 105.103C167.188 105.199 167.092 105.199 167.092 105.199L166.419 105.488C166.131 105.585 165.747 105.681 165.363 105.488L164.69 105.296C164.594 105.296 164.498 105.199 164.402 105.199L164.21 105.103H164.018C163.825 105.103 163.633 105.103 163.537 105.103L163.249 105.007L162.961 105.103C162.769 105.199 162.481 105.199 162.288 105.199C161.904 105.585 161.232 105.681 160.751 105.488L160.079 105.199C159.695 105.392 159.31 105.488 158.926 105.392C158.926 105.681 158.638 105.777 158.35 105.777ZM164.882 102.215C165.17 102.215 165.363 102.311 165.555 102.407L166.035 102.696L166.611 102.311C166.9 102.118 167.38 102.022 167.764 102.118L168.148 102.215H168.533C168.725 102.215 168.821 102.215 169.013 102.215H169.205L169.397 102.118C169.686 102.022 169.974 101.926 170.262 102.022L170.934 102.118C171.223 102.215 171.415 102.311 171.703 102.503L171.991 102.407C172.087 102.311 172.279 102.311 172.471 102.311L173.144 102.215C173.336 102.215 173.624 102.215 173.816 102.311C174.393 101.926 175.161 101.926 175.642 102.407L175.738 102.311C176.026 102.118 176.506 102.022 176.89 102.022L177.563 102.118C177.659 102.118 177.755 102.118 177.851 102.215C178.139 102.022 178.428 102.022 178.716 102.022H179.388C179.676 102.022 179.869 102.118 180.061 102.215C180.157 102.215 180.157 102.118 180.253 102.118L180.925 101.926C181.406 101.829 181.886 101.926 182.27 102.311L182.366 102.407L182.654 102.311C182.751 102.311 182.751 102.215 182.847 102.215L183.519 102.022C183.711 101.926 183.999 101.926 184.192 102.022L184.864 102.118C184.96 102.118 185.056 102.215 185.152 102.215L185.344 102.311H185.536C185.825 102.215 186.113 102.311 186.401 102.407L186.593 102.503L186.785 102.311C187.17 101.926 187.842 101.829 188.322 102.118L188.995 102.407L189.859 102.118C190.148 102.022 190.34 102.022 190.628 102.022L190.82 102.118L191.108 102.022C191.589 101.829 192.165 101.926 192.549 102.311C193.03 101.829 193.798 101.829 194.278 102.215L194.471 102.407H194.567C194.855 102.407 195.047 102.407 195.239 102.503C195.527 102.311 195.816 102.311 196.104 102.311H196.392L196.68 102.215C197.257 102.022 197.833 102.118 198.217 102.503L198.409 102.696L199.082 102.311C199.274 102.215 199.562 102.118 199.754 102.118H200.427C200.523 102.118 200.619 102.118 200.619 102.118L201.291 102.215C201.387 102.215 201.483 102.215 201.579 102.311C202.156 101.926 202.828 102.022 203.309 102.503C203.789 102.118 204.461 102.022 204.942 102.407C205.23 102.311 205.518 102.311 205.806 102.311L206.287 102.407H206.767C207.055 102.407 207.247 102.503 207.44 102.6L207.632 102.696H207.728C207.92 102.6 208.208 102.6 208.496 102.696L208.784 102.792L209.073 102.696C209.265 102.696 209.457 102.6 209.553 102.696C209.937 102.215 210.514 102.022 210.994 102.215L211.57 102.311H211.955L212.435 102.215C212.723 102.215 212.915 102.215 213.204 102.311C213.492 102.118 213.972 102.022 214.356 102.118L215.029 102.311C215.221 102.311 215.413 102.407 215.509 102.503L215.701 102.696C215.797 102.503 215.893 102.311 216.086 102.215L216.566 101.829L216.662 101.733C216.662 101.444 216.854 101.059 217.046 100.866L217.238 100.674V100.481L217.046 100.289C216.662 99.8073 216.566 99.2296 216.854 98.6519L217.238 97.7853L216.95 97.4001C216.758 97.015 216.662 96.6298 216.758 96.1484V96.0521L216.662 95.8595C216.47 95.4744 216.47 94.9929 216.758 94.6078L216.854 94.4152C216.758 94.2226 216.662 94.0301 216.566 93.8375C216.278 93.7412 216.086 93.4523 215.893 93.1635H215.797C215.413 93.1635 215.125 93.0672 214.837 92.8746L214.26 93.0672C213.684 93.2598 213.107 93.0672 212.723 92.5857L212.243 92.008C211.859 91.7192 211.666 91.334 211.666 90.8526C211.666 89.8897 211.763 88.7342 211.763 87.4825C211.763 86.7122 212.531 86.0382 213.3 86.1345C213.876 86.1345 214.452 85.4605 214.452 84.5939C214.452 83.8236 213.972 83.1496 213.3 83.0533C212.531 82.957 211.955 82.283 212.051 81.5127C212.147 80.1646 212.243 78.7203 212.339 77.1797C212.339 76.7946 212.531 76.5057 212.819 76.2168C212.627 75.928 212.435 75.5428 212.531 75.254C212.819 71.4025 213.204 67.4547 213.684 63.5069L212.627 60.6182C212.531 60.2331 212.531 59.8479 212.723 59.4628C213.107 58.6925 213.78 57.537 214.548 56.5741L215.701 48.486C215.701 48.486 215.701 48.486 215.701 48.3897C215.701 48.2934 215.701 48.1971 215.605 48.1008C213.204 51.9523 212.051 52.9152 210.61 52.3375C209.073 51.7598 209.361 49.7377 209.457 48.7748C209.457 48.6786 209.457 48.6786 209.457 48.5823C210.033 45.7899 210.61 42.9013 211.186 40.109C212.339 34.0428 213.3 28.747 213.011 27.7841C211.666 23.5475 199.274 21.6217 181.598 22.8735C180.829 22.9697 180.253 22.392 180.061 21.718C179.869 20.4663 177.851 19.0219 174.969 19.0219C172.183 19.0219 170.166 20.37 169.878 21.6217C169.686 22.2957 169.109 22.7772 168.341 22.7772C144.708 21.044 137.503 26.725 135.486 29.1322C134.813 30.4802 136.639 38.3758 137.888 44.153C138.176 45.5973 138.56 47.0417 138.848 48.5823C139.04 49.2563 138.656 49.9303 137.984 50.2192C137.311 50.508 136.543 50.2192 136.254 49.6414C135.774 48.7748 135.102 48.0045 134.237 47.138C134.141 47.4268 134.045 47.7157 133.949 48.0045L135.102 56.4779C135.87 57.4407 136.447 58.4036 136.831 59.1739C137.023 59.5591 137.023 59.9442 136.927 60.3294L135.87 63.0254C136.351 67.1658 136.735 71.3062 137.023 75.3503C137.023 75.5428 137.023 75.8317 136.927 76.0243C137.023 76.2168 137.119 76.4094 137.119 76.6983C137.215 78.3352 137.311 79.9721 137.407 81.4164C137.407 82.1867 136.831 82.8607 136.062 82.957C135.39 83.0533 134.91 83.631 134.91 84.4976C134.91 85.3642 135.486 86.0382 136.158 86.0382C136.927 86.0382 137.599 86.6159 137.599 87.3862C137.599 88.7342 137.695 89.8897 137.695 90.8526C137.695 91.334 137.503 91.7192 137.119 92.008C136.735 92.2969 136.351 92.3932 135.87 92.2969H135.486H135.39L135.102 92.5857C134.91 92.682 134.813 92.7783 134.621 92.8746L134.045 93.0672C133.949 93.0672 133.757 93.1635 133.661 93.1635H133.565L133.18 93.5486L133.084 93.6449L132.892 93.8375V94.0301L132.988 94.4152C132.988 94.5115 132.988 94.6078 132.988 94.8004V95.4744C132.988 95.5707 132.988 95.7632 132.892 95.8595L132.7 96.4373C132.988 96.8224 133.084 97.2076 132.988 97.689L132.892 98.2667L132.796 98.8445C132.796 98.9407 132.796 98.9407 132.796 99.037L132.604 99.711C132.604 99.8073 132.508 99.9036 132.508 99.9999L132.796 100.385C132.988 100.674 133.084 101.059 133.084 101.444C133.276 101.541 133.469 101.637 133.565 101.829L133.853 102.215C134.141 102.215 134.429 102.215 134.717 102.407L134.91 102.503H135.102C135.294 102.503 135.582 102.503 135.774 102.6L136.254 102.792L136.543 102.696C136.735 102.6 136.927 102.6 137.119 102.503H137.792H137.888H138.368L138.848 102.407C139.136 102.407 139.329 102.407 139.617 102.503C140.001 102.311 140.385 102.215 140.77 102.311L141.058 102.407L142.018 102.215C142.211 102.215 142.499 102.215 142.691 102.215L143.363 102.407H143.459C143.844 102.118 144.324 102.118 144.708 102.215L145.285 102.407L145.861 102.503C145.957 102.503 146.149 102.6 146.245 102.696C146.534 102.6 146.918 102.503 147.302 102.696H147.398C147.494 102.6 147.59 102.6 147.686 102.6L148.359 102.407C148.647 102.311 149.031 102.311 149.319 102.503L149.896 102.696L150.088 102.6C150.28 102.503 150.472 102.503 150.664 102.503H151.337H151.433H152.105C152.201 102.503 152.298 102.503 152.394 102.6L152.97 102.792C153.162 102.6 153.45 102.503 153.739 102.407L154.411 102.311C154.699 102.311 155.083 102.407 155.372 102.503L155.468 102.6C155.66 102.503 155.852 102.503 156.044 102.503H156.14L156.332 102.407C156.621 102.118 157.101 102.022 157.485 102.118L158.158 102.215C158.35 102.215 158.638 102.407 158.734 102.503C158.926 102.407 159.214 102.407 159.503 102.503C159.983 102.118 160.751 102.022 161.232 102.407L161.424 102.6C161.808 102.311 162.288 102.215 162.769 102.311L162.961 102.407L163.153 102.311C163.441 102.215 163.633 102.215 163.922 102.311L164.306 102.407L164.69 102.311C164.69 102.215 164.786 102.215 164.882 102.215Z" fill="black"/>
<defs>
<linearGradient id="paint0_linear" x1="81.6776" y1="227.176" x2="303.046" y2="341.244" gradientUnits="userSpaceOnUse">
<stop offset="0.00793651" stop-color="#D8A579"/>
<stop offset="0.1772" stop-color="#C47B55"/>
<stop offset="0.3148" stop-color="#D8A579"/>
<stop offset="0.5159" stop-color="#C47B55"/>
<stop offset="0.6799" stop-color="#D8A579"/>
<stop offset="0.791" stop-color="#C47B55"/>
<stop offset="0.8388" stop-color="#C7805A"/>
<stop offset="0.8982" stop-color="#CE9067"/>
<stop offset="0.955" stop-color="#D8A579"/>
</linearGradient>
<linearGradient id="paint1_linear" x1="129.32" y1="121.785" x2="235.527" y2="198.54" gradientUnits="userSpaceOnUse">
<stop offset="0.00793651" stop-color="#D8A579"/>
<stop offset="0.1772" stop-color="#C47B55"/>
<stop offset="0.3148" stop-color="#D8A579"/>
<stop offset="0.5159" stop-color="#C47B55"/>
<stop offset="0.6799" stop-color="#D8A579"/>
<stop offset="0.791" stop-color="#C47B55"/>
<stop offset="0.8388" stop-color="#C7805A"/>
<stop offset="0.8982" stop-color="#CE9067"/>
<stop offset="0.955" stop-color="#D8A579"/>
</linearGradient>
</defs>
</svg>
