<svg width="400" height="400" viewBox="0 0 400 400" fill="none" xmlns="http://www.w3.org/2000/svg">
<path d="M191.932 215.6C197.032 226.5 208.132 245.6 229.632 255.8C244.732 263 259.332 262.9 276.732 262.9C313.232 262.8 336.332 253.3 340.832 261.6C343.932 267.2 334.632 273.7 338.532 282.6C340.632 287.5 345.732 291.3 353.932 300C354.632 300.7 356.232 302.5 357.732 305.2C358.132 305.9 358.432 306.6 358.832 307.5C362.132 315.7 359.132 326.1 354.932 333.2C351.432 339.1 348.832 338.9 345.732 345.2C344.832 347 344.232 348.6 343.832 350.1C342.532 354.9 342.432 359 342.332 359.7C341.332 367.1 277.732 385.2 228.032 361C156.932 326.5 150.232 223.5 149.732 213.6C163.632 214.2 177.832 214.9 191.932 215.6Z" fill="#FF3A2F"/>
<path d="M285.333 375.7C266.533 375.7 245.733 372.5 226.733 363.3C154.933 328.4 147.633 225.4 147.033 213.8L146.933 211L193.533 213.4L194.133 214.8C202.733 233.1 215.333 246.5 230.633 253.8C245.233 260.7 259.833 260.7 276.633 260.7C291.833 260.7 304.633 259 314.933 257.6C330.233 255.6 339.533 254.4 342.933 260.6C344.933 264.3 343.333 268 341.933 271.2C340.433 274.7 339.033 277.9 340.733 281.7C342.033 284.6 344.733 287.4 348.933 291.5C350.933 293.5 353.133 295.7 355.733 298.4C357.333 300.1 358.733 302 359.933 304.1C360.333 304.9 360.733 305.7 361.133 306.6C364.833 315.8 361.433 327 357.033 334.5C355.233 337.5 353.633 339.1 352.233 340.5C350.733 342 349.433 343.3 347.933 346.3C347.233 347.8 346.633 349.3 346.233 350.8C345.233 354.6 344.933 357.9 344.833 359.3C344.833 359.7 344.833 359.9 344.733 360C344.433 362 342.733 363.8 339.333 365.6C330.733 370.2 309.833 375.7 285.333 375.7ZM152.233 216.2C153.633 236 163.633 327 228.933 358.7C256.133 371.9 285.933 371.4 301.233 369.9C324.833 367.6 338.233 361.4 339.733 359.2C339.733 359.1 339.733 359 339.733 358.9C339.833 357.5 340.133 353.7 341.233 349.5C341.733 347.7 342.333 345.9 343.233 344.1C345.033 340.3 346.833 338.6 348.433 336.9C349.733 335.6 351.033 334.3 352.433 331.9C356.033 325.8 359.233 316 356.233 308.4C355.933 307.7 355.633 307 355.233 306.4C354.333 304.7 353.133 303.1 351.833 301.7C349.333 299.1 347.133 296.9 345.233 294.9C340.633 290.4 337.633 287.4 335.933 283.6C333.433 277.8 335.533 273 337.133 269.1C338.433 266.2 339.133 264.3 338.333 262.9C336.533 259.6 327.133 260.8 315.333 262.4C304.933 263.8 291.933 265.5 276.433 265.5C259.033 265.5 243.933 265.6 228.333 258.1C212.433 250.6 199.233 236.7 190.133 218.1L152.233 216.2Z" fill="black"/>
<path d="M182.132 244.5C193.632 262.2 223.432 302.6 277.932 324.7C305.632 335.9 330.832 338.8 348.632 339.2C347.532 340.9 346.032 343.5 344.832 346.9C342.732 353.2 343.832 356.2 342.232 359.6C340.832 362.6 337.132 366 327.032 367.6C315.632 371 306.032 372.2 299.132 372.5C286.432 373.2 275.332 371.6 267.832 370.6C266.632 370.4 263.732 370.1 261.232 369.6C261.232 369.6 240.632 365.9 221.032 352.2C203.832 340.2 180.732 306.7 173.732 258.6C176.432 253.8 179.332 249.1 182.132 244.5Z" fill="#B52825"/>
<path d="M293.033 375.1C282.733 375.1 273.833 373.9 267.633 373L266.933 372.9C265.533 372.7 263.033 372.4 260.833 371.9C260.033 371.8 239.533 367.9 219.633 354.1C200.533 340.8 178.133 306.1 171.233 258.8C171.133 258.2 171.233 257.6 171.533 257.1L180.033 243.2C180.433 242.5 181.233 242 182.133 242C182.933 242 183.833 242.4 184.233 243.1C200.633 268.4 230.433 302.7 278.933 322.3C301.033 331.2 324.433 336 348.733 336.6C349.633 336.6 350.433 337.1 350.933 337.9C351.433 338.7 351.333 339.7 350.833 340.4C349.333 342.6 348.133 345 347.333 347.5C346.333 350.5 346.133 352.7 345.933 354.6C345.733 356.6 345.633 358.4 344.633 360.4C342.333 365.3 336.833 368.3 327.733 369.7C318.333 372.5 308.833 374.2 299.333 374.7C297.233 375.1 295.133 375.1 293.033 375.1ZM176.433 259C183.233 304.2 205.033 337.8 222.633 350.1C241.533 363.3 261.633 367.1 261.833 367.1C263.933 367.5 266.233 367.8 267.633 368L268.333 368.1C275.633 369.1 286.633 370.7 299.133 370C308.233 369.5 317.433 367.9 326.433 365.2C326.533 365.2 326.633 365.1 326.733 365.1C334.033 364 338.533 361.8 340.033 358.6C340.633 357.4 340.733 356.2 340.833 354.5C341.033 352.4 341.233 349.8 342.433 346.2C342.933 344.7 343.633 343.1 344.333 341.7C320.933 340.7 298.333 335.8 277.033 327.2C229.433 308 199.433 274.9 182.233 249.4L176.433 259Z" fill="black"/>
<path d="M270.333 298.2C314.333 275.7 296.433 208.6 286.733 199.4C277.033 190.1 278.333 202.9 278.333 202.9C293.333 254.1 253.833 270.3 253.833 270.3C256.433 271.9 261.733 275.6 265.633 282.5C269.533 289 270.232 295.2 270.333 298.2ZM64.1325 335.9C46.7325 324.7 38.5325 304.9 43.4325 287.7C48.0325 271.5 64.3325 258 77.0325 259.1C80.5325 259.4 81.7325 260.6 92.9325 263.4C100.233 265.2 106.233 266.3 110.333 267C106.033 268.2 83.7325 274.8 71.2325 297.5C62.0325 314.2 63.3325 330.1 64.1325 335.9ZM163.133 270C169.333 265.4 181.433 255.2 189.333 237.8C199.533 215.2 196.333 194.6 194.833 187.2L150.833 202C149.333 226.3 141.233 240.3 134.733 248.3C114.733 273 87.8325 268.4 72.2325 295.7C70.0325 299.6 62.8325 312.5 64.9325 328.6C67.6325 349.8 84.5325 362.5 90.5325 367C111.833 383.1 135.333 382.8 164.933 382.5C197.633 382.2 220.333 381.9 241.233 365.5C246.333 361.5 265.733 345.2 269.433 318.5C270.333 311.7 272.933 293.2 261.333 279.3C253.633 270.1 243.232 267.1 237.333 265.5C225.933 262.3 215.633 263.2 195.433 265.1C192.333 265.4 179.932 266.4 177.033 266.6C173.633 266.8 173.533 266.7 171.633 267.1C150.033 271.9 123.133 290.4 125.433 308C127.433 323.1 149.933 330.8 153.533 332C174.133 339.1 196.733 332.6 210.433 319.8C213.233 317.1 227.833 303.5 223.433 292.1C221.233 286.3 214.833 283 209.433 282.1C202.033 281 194.433 284.3 189.933 290.6" fill="url(#paint0_linear)"/>
<path opacity="0.2" d="M221.833 353.9C221.833 353.9 237.733 362.2 244.333 351.1C250.933 340 252.833 335 246.933 332.5C241.033 330 240.233 333.4 237.533 326.8C234.833 320.2 232.133 312.7 223.933 315.7C215.833 318.8 205.033 321.6 208.933 328.8C212.933 335.9 207.133 353.5 221.833 353.9Z" fill="white"/>
<path opacity="0.2" d="M151.633 370.7C151.633 370.7 167.532 379 174.132 367.9C180.732 356.8 182.633 351.8 176.733 349.3C170.833 346.8 170.032 350.2 167.332 343.6C164.632 337 161.933 329.5 153.733 332.5C145.633 335.6 134.832 338.4 138.732 345.6C142.633 352.8 136.933 370.3 151.633 370.7Z" fill="white"/>
<path opacity="0.2" d="M230.133 297.7C230.133 297.7 241.433 303.6 246.133 295.7C250.833 287.8 252.233 284.3 248.033 282.5C243.833 280.7 243.333 283.1 241.333 278.4C239.433 273.7 237.433 268.4 231.733 270.5C225.933 272.7 218.333 274.7 221.133 279.8C223.833 285 219.733 297.5 230.133 297.7Z" fill="white"/>
<path opacity="0.2" d="M277.332 276.6C277.332 276.6 288.632 282.5 293.332 274.6C298.032 266.7 299.432 263.2 295.232 261.4C291.032 259.6 290.532 262 288.532 257.3C286.632 252.6 284.632 247.3 278.932 249.4C273.232 251.5 265.532 253.6 268.332 258.7C271.132 263.8 266.932 276.4 277.332 276.6Z" fill="white"/>
<path d="M134.033 361.7C135.033 360.7 138.433 362.9 142.133 364.8C142.133 364.8 153.133 370.3 172.233 372.3C187.933 373.9 200.533 368.8 211.733 364.4C225.433 358.9 241.833 352.1 252.833 334.8C255.933 329.9 265.533 314.9 262.133 295.8C260.333 285.9 255.733 278.7 252.633 274.6C255.433 276 262.033 280 266.433 288C269.933 294.3 270.533 300.2 270.633 303.3C267.833 314.5 265.033 325.8 262.133 337L235.333 366.8L197.433 379.1L146.633 382.7C139.833 373.9 132.233 363.4 134.033 361.7Z" fill="#EDB61B"/>
<path opacity="0.2" d="M134.733 295.5C134.733 295.5 125.833 311.1 136.633 318.1C147.533 325.1 152.433 327.3 155.133 321.5C157.833 315.7 154.533 314.8 161.233 312.3C167.933 309.9 175.533 307.4 172.833 299.2C170.133 291 167.633 280.1 160.333 283.7C153.033 287.3 135.633 280.8 134.733 295.5Z" fill="white"/>
<path d="M281.233 198.1C283.533 202.1 297.233 226.6 287.533 254.6C282.133 270.2 271.833 279.8 266.633 284C269.033 288.1 271.433 292.1 273.833 296.2C273.833 296.2 295.333 267.9 295.733 266.8C296.033 265.7 297.933 222.9 297.733 221.8C297.533 220.6 289.133 202.5 289.133 202.5L281.233 198.1Z" fill="#EDB61B"/>
<path d="M87.8326 360.7C94.2326 369.4 101.133 373.7 105.233 375.8C112.833 379.7 120.133 380.3 134.633 381.5C141.333 382.1 154.333 383.2 154.833 380.9C155.233 379.3 149.133 378 142.633 373C135.333 367.4 132.133 360.6 127.833 351.5C122.033 339.4 120.533 329.4 120.133 326.9C120.033 326.3 118.833 317.4 119.533 310.4C121.833 288.3 145.533 273.1 150.233 270.2L160.933 265.4C160.933 265.4 186.333 246.3 190.233 219.7L152.133 216.7C152.133 216.7 146.533 253 117.533 266.9C86.7326 281.6 78.5326 285.7 71.2326 300.5C65.5326 312.1 66.0326 324.5 66.0326 324.5C66.2326 329.2 67.0326 333.1 67.8326 335.8C68.5326 337.5 69.6326 339.9 71.1326 342.6C75.2326 349.7 79.7326 354.2 81.1326 355.5C82.7326 356.8 84.9326 358.7 87.8326 360.7Z" fill="#FFFFC2"/>
<path d="M114.232 329.5C114.932 335.9 117.132 347.6 124.732 360C132.132 372 141.232 379.1 146.532 382.6L154.732 380.9L145.432 372.5L131.832 359.3C129.932 356.9 127.932 354 126.232 350.5C121.932 342.2 120.632 334.4 120.232 329C118.332 329.1 116.332 329.3 114.232 329.5Z" fill="#EDB61B"/>
<path d="M114.533 327.2C110.633 324.7 113.133 314.3 114.733 307.8C115.933 302.9 117.033 298.3 120.133 292.9C124.133 286 128.733 281.7 133.733 277.9C152.433 263.8 159.633 263.3 168.133 255.8C174.333 250.3 181.633 240.6 184.933 222.2C187.333 220 189.733 217.9 192.133 215.7C192.533 219.7 192.733 225.8 191.033 233C190.333 236.1 187.633 246.4 178.933 256.5C172.433 264 165.233 268.1 160.633 270.3C156.833 272.4 151.733 275.4 145.833 279.3C129.133 290.2 125.633 295.5 124.633 298.3C124.633 298.4 124.633 298.3 124.333 299.3C120.733 311.3 120.533 310.9 120.133 312.9C118.533 320.8 122.133 324.7 119.433 326.9C118.133 327.9 115.933 328.1 114.533 327.2Z" fill="#EDB61B"/>
<path d="M51.1327 303C46.8327 292.6 49.8327 279.8 58.7327 270.3C57.3327 271.3 44.0327 281.8 44.4327 299.8C44.6327 318.5 59.4327 328.5 60.6327 329.3C61.2327 327.7 61.8327 325.7 62.2327 323.4C62.7327 320.6 62.8327 318.2 62.8327 316.2C60.1327 314.6 54.1327 310.5 51.1327 303Z" fill="#EDB61B"/>
<path d="M133.933 294.7C133.433 298.9 133.533 304.5 136.333 309.5C145.133 325.2 173.633 324.3 191.033 318.4C194.933 317.1 212.933 310.9 213.833 300.1C214.033 297.1 212.933 293.7 210.633 291.6C206.433 287.7 198.533 287.7 191.133 292.4C191.633 291.6 196.633 284.5 205.433 284.2C211.833 283.9 216.333 287.3 217.533 288.3C219.033 289.5 220.733 291.3 221.633 293.9C225.833 305.9 207.333 321.3 205.733 322.6C190.233 335.2 166.533 339.4 147.333 330.9C144.133 329.5 124.633 321 125.333 308.2C125.733 301.7 131.033 296.9 133.933 294.7Z" fill="#EDB61B"/>
<path d="M148.133 387C127.433 387 106.833 384.5 88.0326 370.4C83.0326 366.6 69.5326 356.5 63.4326 339.9C62.9326 339.8 62.3326 339.6 61.9326 339.3C43.3326 327.4 34.1326 305.7 39.5326 286.6C44.6326 268.8 62.6326 253.8 77.3326 255.1C79.5326 255.3 80.9326 255.8 83.2326 256.5C85.4326 257.2 88.3326 258.1 93.8326 259.5C99.0326 260.8 104.333 261.9 109.633 262.8C117.333 258.8 124.933 254 131.633 245.8C140.633 234.7 145.733 219.9 146.933 201.7C147.033 200.1 148.133 198.7 149.633 198.2L193.633 183.4C194.733 183 195.933 183.2 196.933 183.7C197.933 184.3 198.633 185.2 198.833 186.4C200.933 196.7 203.033 217.4 193.033 239.4C188.633 249 183.033 256.7 177.433 262.6C180.333 262.4 185.433 262.1 195.133 261.2C200.833 260.7 205.533 260.2 209.433 259.8C223.233 258.4 227.833 257.9 235.433 259.4H235.533C239.933 260.3 247.133 261.7 254.133 265.8C261.033 262.2 286.933 245.8 274.733 204C274.633 203.8 274.633 203.5 274.633 203.3C274.433 201.4 274.133 194.8 278.633 192.6C283.333 190.3 288.133 194.9 289.733 196.5C297.233 203.6 305.633 232.5 302.033 257.6C299.133 277.2 289.633 292 274.533 300.6C274.933 306 274.733 312.2 273.633 319.2C271.233 334.3 263.733 348.1 251.233 360.2C226.233 384.5 193.833 385.6 165.333 386.6C159.433 386.8 153.833 387 148.133 387ZM74.9326 299C68.3326 311.1 67.9326 321.5 68.8326 328.2C71.3326 347.7 87.0326 359.5 92.9326 364C114.633 380.3 138.933 379.5 164.733 378.7C191.933 377.8 222.633 376.8 245.433 354.6C256.633 343.7 263.333 331.4 265.533 318.1C269.033 296.1 262.733 284.2 256.733 278.1C249.433 270.6 239.733 268.6 233.933 267.5H233.833C227.433 266.2 223.433 266.6 210.233 268C206.333 268.4 201.633 268.9 195.933 269.4C182.933 270.6 178.033 270.8 175.633 271C173.833 271.1 173.733 271.1 172.533 271.4C170.333 271.9 168.133 272.5 165.933 273.2C165.833 273.3 165.733 273.3 165.633 273.4C164.833 274 164.033 274.2 163.133 274.2C145.033 281.1 127.833 295.5 129.433 307.8C130.933 319.5 149.333 326.7 154.833 328.6C172.633 334.7 193.933 330.1 207.733 317.3C217.533 308.1 221.933 299.6 219.733 294C218.133 289.8 212.933 287.2 208.833 286.5C202.933 285.6 196.933 288.2 193.133 293.4C191.833 295.2 189.333 295.6 187.533 294.3C185.733 293 185.333 290.5 186.633 288.7C192.133 281 201.033 277.1 210.033 278.5C216.033 279.4 224.233 283.3 227.133 291C230.633 300 225.633 311.3 213.133 323C197.233 337.8 172.733 343.1 152.133 336.1C141.533 332.5 123.333 324.1 121.333 308.8C118.933 290.7 141.233 273.5 161.833 266.1C169.233 260.4 179.033 250.8 185.533 236.3C193.333 219.1 193.033 202.8 191.533 192.6L154.533 205.1C152.933 223.7 147.333 239.2 137.733 251C127.833 263.2 116.633 268.6 105.733 273.7C97.3326 277.7 89.2326 281.6 82.4326 288.6C79.8326 291.5 77.2326 295 74.9326 299ZM75.4326 263.1C64.5326 263.1 51.1326 275.2 47.2326 288.8C43.4326 302.1 48.4326 317 59.5326 327.4C59.5326 318.8 61.2326 307.3 67.6326 295.6C67.7326 295.4 67.8326 295.3 67.9326 295.1C68.1326 294.7 68.4326 294.2 68.7326 293.8C70.9326 290 73.3326 286.8 75.8326 284C82.3326 276.6 89.6326 271.6 96.1326 268.4C94.7326 268.1 93.3326 267.8 92.0326 267.4C86.3326 266 83.0326 264.9 80.9326 264.3C78.9326 263.7 78.0326 263.4 76.7326 263.3C76.3326 263.1 75.8326 263.1 75.4326 263.1ZM261.333 270.8C264.033 273.2 266.833 276.3 269.233 280.4C271.233 283.9 272.733 287.7 273.533 291.6C284.733 284 291.533 272.2 293.933 256.4C297.533 231.9 288.833 206.8 284.033 202.2C283.333 201.6 282.833 201.1 282.333 200.8C282.333 201.3 282.333 201.7 282.333 202.1C290.333 229.9 282.733 247.9 274.933 258.1C270.333 264.3 265.133 268.4 261.333 270.8Z" fill="black"/>
<path d="M110.533 126.6C136.933 87.5001 157.533 79.3001 172.133 80.2001C200.533 81.9001 232.633 119.5 234.833 121.2C234.433 126 234.333 131.3 234.433 137C234.733 147.5 236.233 156.7 238.033 164.4C212.133 181.8 202.633 194.3 198.933 202.8C198.133 204.7 195.733 210.6 189.833 215.3C188.033 216.8 181.033 222.2 171.033 221.7C162.833 221.3 157.233 217.1 155.533 215.8C149.233 210.9 146.633 204.6 145.533 202.1C135.733 178.8 108.933 178.4 102.833 159.2C100.733 152.6 100.633 142.3 110.533 126.6Z" fill="url(#paint1_linear)"/>
<path d="M234.333 125.2C234.433 122.4 234.533 119.7 234.733 117.1C234.633 117 234.533 116.9 234.433 116.8C234.233 119.6 234.233 122.3 234.333 125.2Z" fill="#EDB61B"/>
<path d="M211.333 180.4C210.033 179 198.133 184.8 192.133 195.5C190.033 199.2 190.333 200.5 187.833 203.7C186.533 205.4 180.633 213 172.133 213C164.833 213 159.733 207.3 157.333 204.8C151.833 198.7 153.433 195.3 147.833 189.1C142.633 183.2 135.033 179.4 133.533 180.9C131.833 182.6 137.633 191.2 140.533 195.5C144.833 201.9 148.433 207.3 155.433 211.8C159.333 214.3 164.033 217.4 170.933 217.7C180.933 218.2 187.833 212.8 189.733 211.3C195.433 206.6 197.833 201 198.833 198.8C204.133 187.1 212.433 181.6 211.333 180.4Z" fill="#EDB61B"/>
<path d="M172.232 225.9C171.732 225.9 171.332 225.9 170.832 225.9C166.432 225.7 159.832 224.4 153.132 219.2C146.032 213.7 143.032 206.6 141.932 203.9C137.332 193 128.532 187.6 120.032 182.2C111.432 176.8 102.532 171.3 99.0322 160.5C95.4322 149.2 100.132 139.3 106.532 125.7L106.932 124.9C111.432 115.3 124.832 91.8001 150.932 82.1001C153.932 81.0001 162.032 78.0001 173.032 77.7001C173.432 77.7001 183.732 77.5001 194.332 80.8001C218.532 88.3001 234.232 112.1 238.432 119.2L239.032 120.3L238.932 121.6C238.532 126.7 238.432 131.9 238.632 137C238.932 145.9 240.132 154.9 242.132 163.6L242.732 166.3L240.432 167.8C220.132 181.4 207.532 193.7 202.732 204.5L202.632 204.7C201.632 207.1 198.832 213.3 192.532 218.5C186.432 223.3 179.332 225.9 172.232 225.9ZM173.432 85.7001C173.232 85.7001 173.132 85.7001 173.132 85.7001C163.432 85.9001 156.332 88.6001 153.732 89.6001C129.832 98.5001 117.432 121.5 114.232 128.3L113.832 129.1C107.732 142 104.132 149.7 106.732 158C109.232 165.9 116.232 170.3 124.332 175.3C133.432 181 143.832 187.4 149.332 200.6C150.332 203 152.632 208.5 158.132 212.7C162.232 215.8 166.632 217.6 171.332 217.8C176.932 218.1 182.632 216.1 187.432 212.3C192.332 208.4 194.432 203.4 195.232 201.5L195.332 201.2C200.532 189.3 213.132 176.6 233.632 162.6C231.832 154.2 230.832 145.6 230.532 137.1C230.332 132.1 230.432 127.1 230.832 122.2C226.932 115.8 212.632 94.8001 191.932 88.5001C183.432 85.9001 175.232 85.7001 173.432 85.7001Z" fill="black"/>
<path d="M210.532 182.4C233.066 182.4 251.332 164.133 251.332 141.6C251.332 119.067 233.066 100.8 210.532 100.8C187.999 100.8 169.732 119.067 169.732 141.6C169.732 164.133 187.999 182.4 210.532 182.4Z" fill="black"/>
<path d="M210.532 175.4C229.2 175.4 244.332 160.267 244.332 141.6C244.332 122.933 229.2 107.8 210.532 107.8C191.865 107.8 176.732 122.933 176.732 141.6C176.732 160.267 191.865 175.4 210.532 175.4Z" fill="white"/>
<path d="M210.532 170.3C226.383 170.3 239.232 157.451 239.232 141.6C239.232 125.75 226.383 112.9 210.532 112.9C194.681 112.9 181.832 125.75 181.832 141.6C181.832 157.451 194.681 170.3 210.532 170.3Z" fill="black"/>
<path d="M207.661 141.96C214.658 139.914 218.974 133.615 217.3 127.89C215.626 122.165 208.597 119.183 201.6 121.228C194.603 123.274 190.287 129.573 191.961 135.298C193.635 141.023 200.664 144.005 207.661 141.96Z" fill="white"/>
<path d="M221.793 151.213C224.708 150.361 226.506 147.736 225.809 145.351C225.111 142.966 222.183 141.723 219.267 142.575C216.352 143.427 214.554 146.052 215.251 148.438C215.948 150.823 218.877 152.066 221.793 151.213Z" fill="white"/>
<path d="M130.832 181.9C153.255 181.9 171.432 163.723 171.432 141.3C171.432 118.877 153.255 100.7 130.832 100.7C108.41 100.7 90.2324 118.877 90.2324 141.3C90.2324 163.723 108.41 181.9 130.832 181.9Z" fill="black"/>
<path d="M130.832 175.1C149.499 175.1 164.632 159.967 164.632 141.3C164.632 122.633 149.499 107.5 130.832 107.5C112.165 107.5 97.0322 122.633 97.0322 141.3C97.0322 159.967 112.165 175.1 130.832 175.1Z" fill="white"/>
<path d="M130.833 170C146.683 170 159.533 157.151 159.533 141.3C159.533 125.45 146.683 112.6 130.833 112.6C114.982 112.6 102.133 125.45 102.133 141.3C102.133 157.151 114.982 170 130.833 170Z" fill="black"/>
<path d="M127.962 141.762C134.959 139.717 139.274 133.417 137.601 127.692C135.927 121.967 128.898 118.985 121.901 121.03C114.904 123.076 110.588 129.375 112.262 135.1C113.936 140.825 120.965 143.808 127.962 141.762Z" fill="white"/>
<path d="M142.093 151.016C145.009 150.163 146.807 147.539 146.11 145.153C145.412 142.768 142.483 141.525 139.568 142.377C136.653 143.23 134.854 145.854 135.552 148.24C136.249 150.625 139.178 151.868 142.093 151.016Z" fill="white"/>
<path d="M180.709 98.317C181.647 96.6908 180.043 94.007 177.126 92.3226C174.208 90.6381 171.082 90.5908 170.143 92.217C169.204 93.8431 170.808 96.5269 173.726 98.2114C176.643 99.8958 179.77 99.9431 180.709 98.317Z" fill="white"/>
<path d="M186.732 100.3C187.837 100.3 188.732 99.4046 188.732 98.3C188.732 97.1955 187.837 96.3 186.732 96.3C185.628 96.3 184.732 97.1955 184.732 98.3C184.732 99.4046 185.628 100.3 186.732 100.3Z" fill="white"/>
<path d="M175.232 202.6C175.332 201.3 175.732 200.1 176.132 198.9C176.332 198.3 176.632 197.7 176.932 197.1C177.332 196.5 177.632 196 178.132 195.4C178.632 194.9 179.032 194.2 179.532 193.7C180.032 193.1 180.832 192.8 181.632 192.7C182.532 192.6 183.332 192.7 184.132 193.1C184.432 193.2 184.832 193.4 185.232 193.8C186.032 194.7 186.432 196.1 185.932 197.2C185.632 198 185.032 198.4 184.832 198.6C183.332 199.7 182.032 198.8 179.832 199.9C179.532 200.1 179.132 200.3 178.432 200.8C177.532 201.4 176.532 202.2 175.632 202.9L175.232 202.6Z" fill="black"/>
<path d="M169.432 202.6C169.332 201.3 168.932 200.1 168.532 198.9C168.332 198.3 168.032 197.7 167.732 197.1C167.332 196.5 167.032 196 166.532 195.4C166.032 194.9 165.632 194.2 165.132 193.7C164.632 193.1 163.832 192.8 163.032 192.7C162.132 192.6 161.332 192.7 160.532 193.1C160.232 193.2 159.832 193.4 159.432 193.8C158.632 194.7 158.232 196.1 158.732 197.2C159.032 198 159.632 198.4 159.832 198.6C161.332 199.7 162.632 198.8 164.832 199.9C165.132 200.1 165.532 200.3 166.232 200.8C167.132 201.4 168.132 202.2 169.032 202.9L169.432 202.6Z" fill="black"/>
<path d="M77.9323 302.7C78.0323 300.3 79.1323 298.5 81.4323 295.1C84.3323 290.7 87.5323 288.3 92.3323 284.9C98.4323 280.4 101.532 278.2 104.032 279C105.732 279.5 105.732 280.5 111.232 287.2C115.032 292 115.532 292.1 115.832 293.5C116.532 297.2 113.532 298.8 110.632 305.6C107.232 313.5 108.832 317.4 105.432 319.5C102.832 321.1 99.6323 320.2 96.1323 319.2C89.0323 316.9 77.7323 310.7 77.9323 302.7Z" fill="#EDB61B"/>
<path d="M97.0327 361.9C94.3327 360.2 90.7327 357.9 86.8327 354.2C83.7327 351.3 78.7327 346.6 76.0327 339.1C74.4327 334.6 72.3327 326.2 75.1327 324.6C76.8327 323.6 79.1327 326 84.1327 328.6C96.7327 334.9 104.833 330.6 109.333 336.5C111.333 339.2 109.833 340.3 111.233 346.8C114.433 361.3 124.833 367.8 122.833 370.5C121.133 372.8 112.533 369.4 107.733 367.6C102.733 365.5 99.1327 363.2 97.0327 361.9Z" fill="#EDB61B"/>
<path d="M147.732 243C147.632 241.6 148.832 239.6 151.132 235.6C154.632 229.2 156.332 227.9 158.132 227.4C159.032 227.2 159.732 227.2 161.132 227.3C164.332 227.5 165.832 228.6 168.432 229.4C173.532 231 175.032 229.3 176.332 230.8C179.432 234.2 172.332 245 171.532 246.3C168.632 250.6 165.932 254.7 161.732 254.9C158.632 255.1 156.232 253.2 153.632 251.2C151.232 249.4 147.932 246.8 147.732 243Z" fill="#EDB61B"/>
<path d="M118.032 271.8C118.532 269.8 120.932 269.9 125.932 266.2C129.032 263.9 131.432 261.5 132.032 260.8C135.932 256.7 136.532 254.4 138.332 254.4C139.532 254.4 140.632 255.9 142.932 258.7C145.132 261.5 146.132 262.9 146.032 264.1C145.832 266.6 142.132 267.2 136.432 270.6C128.432 275.4 127.332 279.3 123.732 278.7C120.432 278.1 117.432 274.3 118.032 271.8Z" fill="#EDB61B"/>
<path d="M169.333 267C147.433 266.2 136.633 245.7 136.233 244.8C135.733 243.8 136.133 242.6 137.133 242.1C138.133 241.6 139.333 242 139.833 243C139.933 243.2 150.033 262.3 169.433 263C170.533 263 171.433 264 171.333 265.1C171.333 266.1 170.433 267 169.333 267Z" fill="black"/>
<path d="M130.332 291.2C130.332 291.2 130.232 291.2 130.332 291.2C114.532 290.5 106.932 272.6 106.632 271.9C106.232 270.9 106.732 269.7 107.732 269.3C108.732 268.9 109.932 269.4 110.332 270.4C110.432 270.6 117.332 286.7 130.432 287.3C131.532 287.3 132.432 288.3 132.332 289.4C132.332 290.3 131.432 291.2 130.332 291.2Z" fill="black"/>
<path d="M108.233 330.5C104.533 330.5 100.433 330.1 96.0329 328.9C79.3329 324.3 70.5329 311.6 67.5329 306.4C67.0329 305.4 67.3329 304.2 68.2329 303.7C69.2329 303.2 70.4329 303.5 70.9329 304.4C73.7329 309.2 81.7329 320.9 97.0329 325.1C106.233 327.6 114.333 326.5 119.633 325.1C120.733 324.8 121.833 325.4 122.133 326.5C122.433 327.6 121.833 328.7 120.733 329C117.433 329.7 113.133 330.5 108.233 330.5Z" fill="black"/>
<path d="M171.633 382.9C171.533 382.9 171.433 382.9 171.433 382.9C163.733 382 144.233 378 130.433 360.5C109.333 333.7 121.633 300.8 122.233 299.5C122.633 298.5 123.833 298 124.833 298.4C125.833 298.8 126.333 300 125.933 301C125.433 302.3 113.833 333.1 133.533 358.1C146.433 374.4 164.633 378.2 171.833 379C172.933 379.1 173.733 380.1 173.633 381.2C173.433 382.1 172.633 382.9 171.633 382.9Z" fill="black"/>
<path d="M226.333 49.4C223.933 42.7 212.233 31.6001 199.333 32.8001C188.033 33.8001 177.133 33.7 174.633 33.7C174.633 33.7 174.533 33.7 174.333 33.7C174.133 33.7 174.033 33.7 174.033 33.7C171.433 33.7 160.633 33.8001 149.333 32.8001C136.433 31.7001 124.733 42.7 122.333 49.4C119.933 56.1 131.533 77.5 131.533 77.5H171.633H177.033H217.133C217.033 77.5 228.633 56.1 226.333 49.4Z" fill="#FF3A2F"/>
<path d="M217.633 79H130.233L129.833 78.2C128.633 76 118.033 56.1 120.533 48.9C122.933 42.1 134.833 30 149.033 31.3C158.733 32.2 168.033 32.2 172.233 32.2V32.1H173.933H175.633V32.2C179.733 32.2 189.033 32.2 198.833 31.3C213.133 30.1 225.033 42.1 227.333 48.9C229.833 56 219.233 75.9 218.033 78.2L217.633 79ZM132.033 76H215.833C220.133 67.8 226.033 54.2 224.533 49.9C222.433 44 211.633 33.2 199.033 34.3C187.833 35.3 177.133 35.2 174.133 35.2H173.833H173.633C170.633 35.2 159.933 35.3 148.733 34.3C136.233 33.2 125.333 44 123.233 49.9C121.833 54.2 127.633 67.8 132.033 76Z" fill="black"/>
<path d="M126.532 77.5001C126.532 77.5001 117.532 57.4001 114.732 48.7001C111.932 40.0001 113.332 30.1001 125.032 26.7001C136.832 23.3001 166.132 33.6001 166.132 33.6001L163.932 36.4001C161.532 36.0001 157.832 35.4001 153.232 34.4001C140.632 31.5001 136.632 29.0001 129.832 30.3001C127.632 30.7001 122.632 31.7001 120.132 35.8001C118.432 38.5001 118.232 42.2001 119.532 46.9001C122.332 56.7001 134.932 77.5001 134.532 77.5001C134.132 77.5001 126.532 77.5001 126.532 77.5001Z" fill="black"/>
<path d="M220.133 77.6001C220.133 77.6001 228.733 57.4001 231.433 48.6001C234.033 39.8001 232.533 30.0001 220.733 26.8001C208.933 23.6001 179.833 34.5001 179.833 34.5001C180.533 35.8001 181.333 37.1001 182.033 38.3001C183.933 37.8001 186.833 37.1001 190.233 35.8001C193.433 34.6001 193.433 34.4001 196.233 33.3001C206.233 29.5001 212.933 30.0001 214.333 30.1001C215.033 30.2001 215.533 30.2001 216.033 30.3001C225.033 31.8001 229.233 36.8001 226.633 46.7001C224.033 56.5001 211.933 77.4001 212.233 77.6001C212.633 77.8001 216.733 77.7001 220.133 77.6001Z" fill="black"/>
<path d="M220.233 98.3C206.733 99.9 191.633 100.9 175.233 101C157.433 101.1 141.133 100 126.633 98.3C126.633 91.4 126.633 84.4 126.633 77.5H220.233V98.3Z" fill="#E5E5E5"/>
<path d="M176.732 91.1001C176.732 93.0001 175.132 94.6001 173.232 94.6001C171.332 94.6001 169.732 93.0001 169.732 91.1001C169.732 89.2001 171.332 87.6001 173.232 87.6001C175.232 87.6001 176.732 89.2001 176.732 91.1001Z" fill="#0ABF52"/>
<path d="M151.133 89.8999C151.133 91.7999 149.533 93.3999 147.633 93.3999C145.733 93.3999 144.133 91.7999 144.133 89.8999C144.133 87.9999 145.733 86.3999 147.633 86.3999C149.633 86.3999 151.133 87.9999 151.133 89.8999Z" fill="#0ABF52"/>
<path d="M137.433 82.4001C137.433 83.1001 136.833 83.7001 136.133 83.7001C135.433 83.7001 134.833 83.1001 134.833 82.4001C134.833 81.7001 135.433 81.1001 136.133 81.1001C136.933 81.1001 137.433 81.7001 137.433 82.4001Z" fill="white"/>
<path d="M160.632 82.4001C160.632 83.1001 160.032 83.7001 159.332 83.7001C158.632 83.7001 158.032 83.1001 158.032 82.4001C158.032 81.7001 158.632 81.1001 159.332 81.1001C160.032 81.1001 160.632 81.7001 160.632 82.4001Z" fill="white"/>
<path d="M187.733 82.4001C187.733 83.1001 187.133 83.7001 186.433 83.7001C185.733 83.7001 185.133 83.1001 185.133 82.4001C185.133 81.7001 185.733 81.1001 186.433 81.1001C187.133 81.1001 187.733 81.7001 187.733 82.4001Z" fill="white"/>
<path d="M211.832 82.1999C211.832 82.8999 211.232 83.4999 210.532 83.4999C209.832 83.4999 209.232 82.8999 209.232 82.1999C209.232 81.4999 209.832 80.8999 210.532 80.8999C211.232 80.8999 211.832 81.4999 211.832 82.1999Z" fill="white"/>
<path d="M129.933 88.8C129.933 90.7 128.833 92.3 127.533 92.3C126.233 92.3 125.133 90.7 125.133 88.8C125.133 86.9 126.233 85.3 127.533 85.3C128.833 85.3 129.933 86.9 129.933 88.8Z" fill="#0ABF52"/>
<path d="M217.732 89C217.732 90.9 218.832 92.5 220.132 92.5C221.432 92.5 222.532 90.9 222.532 89C222.532 87.1 221.432 85.5 220.132 85.5C218.832 85.5 217.732 87.1 217.732 89Z" fill="#0ABF52"/>
<path d="M199.176 93.3978C201.109 93.3724 202.655 91.785 202.629 89.8522C202.604 87.9193 201.016 86.3731 199.084 86.3985C197.151 86.424 195.605 88.0114 195.63 89.9442C195.655 91.877 197.243 93.4233 199.176 93.3978Z" fill="#0ABF52"/>
<path d="M163.232 90.5999H163.432L159.532 86.8999L155.732 90.6999L159.532 94.4999L159.632 94.3999L163.332 90.6999L163.432 90.5999H163.232Z" fill="#F48E08"/>
<path d="M190.333 90.8001H190.433L186.633 87.1001L182.833 90.9001L186.633 94.7001V94.6001L190.433 90.9001V90.8001H190.333Z" fill="#F48E08"/>
<path d="M210.733 85.8999L206.933 89.6999L210.733 93.4999H210.833L214.533 89.6999H214.633L210.733 85.8999Z" fill="#F48E08"/>
<path d="M136.832 85.8L133.032 89.6001L136.832 93.4L136.932 93.3L140.632 89.6001L140.732 89.5L136.832 85.8Z" fill="#F48E08"/>
<path d="M183.332 28.6C179.232 26.3 173.432 26 173.432 26C173.432 26 167.732 26.3 163.532 28.6C159.432 30.9 156.532 34.3 156.532 34.3C156.532 34.3 161.932 37.7 164.932 46.9C167.232 53.8 166.432 77.4 166.432 77.4H173.432H180.432C180.432 77.4 179.632 53.8 181.932 46.9C184.932 37.7 190.332 34.3 190.332 34.3C190.332 34.3 187.432 30.9 183.332 28.6Z" fill="#E5E5E5"/>
<path d="M178.333 21.5H169.433V29.6H178.333V21.5Z" fill="#E5E5E5"/>
<path d="M172.933 24.1C177.351 24.1 180.933 21.951 180.933 19.3C180.933 16.649 177.351 14.5 172.933 14.5C168.514 14.5 164.933 16.649 164.933 19.3C164.933 21.951 168.514 24.1 172.933 24.1Z" fill="#0ABF52"/>
<path d="M172.933 25.6C167.633 25.6 163.433 22.9 163.433 19.3C163.433 15.7 167.633 13 172.933 13C178.233 13 182.433 15.7 182.433 19.3C182.433 22.9 178.233 25.6 172.933 25.6ZM172.933 16.1C169.233 16.1 166.433 17.8 166.433 19.4C166.433 21 169.233 22.7 172.933 22.7C176.633 22.7 179.433 21 179.433 19.4C179.433 17.8 176.633 16.1 172.933 16.1Z" fill="black"/>
<path d="M172.333 103.8C167.333 103.8 162.433 103.7 157.633 103.4C147.233 102.8 136.633 101.6 126.333 99.8001C125.633 99.7001 125.133 99.1001 125.133 98.3001V92.7001C124.233 91.8001 123.633 90.3001 123.633 88.8001C123.633 87.2001 124.233 85.8001 125.133 84.9001V77.5001C125.133 76.7001 125.833 76.0001 126.633 76.0001H165.033C165.133 70.8001 165.433 53.1001 163.633 47.4001C160.833 38.9001 155.833 35.6001 155.833 35.6001C155.433 35.4001 155.233 35.0001 155.133 34.6001C155.033 34.2001 155.133 33.7001 155.433 33.4001C157.533 30.9001 160.033 28.8001 162.833 27.3001C164.133 26.6001 165.433 26.1001 166.733 25.7001V23.3001C166.733 22.8001 166.933 22.3001 167.433 22.1001C167.833 21.8001 168.333 21.8001 168.833 21.9001C169.633 22.2001 170.433 22.4001 171.233 22.5001C173.133 22.8001 175.133 22.5001 177.033 21.8001C177.533 21.6001 178.033 21.7001 178.433 22.0001C178.833 22.3001 179.033 22.8001 179.033 23.3001L178.933 25.6001C180.633 26.0001 182.333 26.6001 183.933 27.4001C186.833 28.9001 189.333 30.9001 191.433 33.5001C191.733 33.8001 191.833 34.3001 191.733 34.7001C191.633 35.1001 191.433 35.5001 191.033 35.7001C191.033 35.7001 186.033 39.0001 183.233 47.5001C181.433 53.1001 181.633 70.9001 181.833 76.1001H220.233C221.033 76.1001 221.733 76.8001 221.733 77.6001V84.5001C223.133 85.2001 224.133 87.0001 224.133 89.1001C224.133 91.2001 223.133 93.0001 221.733 93.7001V98.3001C221.733 99.0001 221.233 99.7001 220.433 99.8001C214.733 100.8 208.833 101.6 202.933 102.2C192.833 103.2 182.433 103.8 172.333 103.8ZM128.133 97.0001C137.933 98.7001 147.933 99.8001 157.833 100.4C172.133 101.2 187.633 100.8 202.733 99.2001C208.133 98.6001 213.433 97.9001 218.733 97.0001V92.5001C218.733 91.7001 219.433 91.0001 220.233 91.0001C220.533 91.0001 221.133 90.2001 221.133 89.0001C221.133 87.8001 220.533 87.0001 220.233 87.0001C219.433 87.0001 218.733 86.3001 218.733 85.5001V78.9001H180.433C179.633 78.9001 178.933 78.3001 178.933 77.5001C178.933 76.5001 178.133 53.6001 180.433 46.5001C182.633 39.6001 186.233 35.8001 188.133 34.1001C186.533 32.4001 184.733 31.0001 182.633 30.0001C180.933 29.1001 179.133 28.5001 177.233 28.2001C176.533 28.1001 175.933 27.4001 176.033 26.7001V25.3001C174.333 25.7001 172.533 25.8001 170.733 25.5001C170.433 25.5001 170.133 25.4001 169.733 25.3001V26.8001C169.733 27.5001 169.233 28.1001 168.633 28.3001C167.133 28.7001 165.633 29.3001 164.233 30.0001C162.233 31.1001 160.333 32.5001 158.733 34.2001C160.633 35.9001 164.133 39.7001 166.433 46.6001C168.733 53.7001 168.033 76.7001 167.933 77.6001C167.933 78.4001 167.233 79.0001 166.433 79.0001H128.033V85.6001C128.033 86.1001 127.733 86.6001 127.333 86.9001C126.933 87.1001 126.533 87.9001 126.533 88.8001C126.533 89.7001 126.933 90.5001 127.333 90.7001C127.833 91.0001 128.033 91.5001 128.033 92.0001V97.0001H128.133Z" fill="black"/>
<path d="M176.133 34.7001C176.133 36.6001 174.633 38.1001 172.733 38.1001C170.833 38.1001 169.333 36.6001 169.333 34.7001C169.333 32.8001 170.833 31.3001 172.733 31.3001C174.633 31.2001 176.133 32.8001 176.133 34.7001Z" fill="white"/>
<path d="M175.832 43.4001C175.832 44.9001 174.632 46.2001 173.032 46.2001C171.532 46.2001 170.232 45.0001 170.232 43.4001C170.232 41.9001 171.432 40.6001 173.032 40.6001C174.532 40.6001 175.832 41.8001 175.832 43.4001Z" fill="white"/>
<path d="M175.133 51.4C175.133 52.6 174.233 53.5 173.033 53.5C171.833 53.5 170.933 52.6 170.933 51.4C170.933 50.2 171.833 49.3 173.033 49.3C174.233 49.3 175.133 50.3 175.133 51.4Z" fill="white"/>
<path d="M174.633 58.9999C174.633 59.8999 173.933 60.5999 173.033 60.5999C172.133 60.5999 171.433 59.8999 171.433 58.9999C171.433 58.0999 172.133 57.3999 173.033 57.3999C173.933 57.3999 174.633 58.0999 174.633 58.9999Z" fill="white"/>
<defs>
<linearGradient id="paint0_linear" x1="77.2201" y1="225.779" x2="307.43" y2="344.677" gradientUnits="userSpaceOnUse">
<stop stop-color="#FFF359"/>
<stop offset="0.1903" stop-color="#F0C145"/>
<stop offset="0.2793" stop-color="#F1C446"/>
<stop offset="0.351" stop-color="#F4CE4A"/>
<stop offset="0.4165" stop-color="#F9DF51"/>
<stop offset="0.4311" stop-color="#FAE453"/>
<stop offset="0.5025" stop-color="#F7DA4F"/>
<stop offset="0.6161" stop-color="#F0C245"/>
<stop offset="0.6705" stop-color="#F2C747"/>
<stop offset="0.738" stop-color="#F6D74D"/>
<stop offset="0.7972" stop-color="#FCEA55"/>
<stop offset="1" stop-color="#F2C948"/>
</linearGradient>
<linearGradient id="paint1_linear" x1="126.814" y1="116.324" x2="237.196" y2="196.281" gradientUnits="userSpaceOnUse">
<stop stop-color="#FFF359"/>
<stop offset="0.1903" stop-color="#F0C145"/>
<stop offset="0.2793" stop-color="#F1C446"/>
<stop offset="0.351" stop-color="#F4CE4A"/>
<stop offset="0.4165" stop-color="#F9DF51"/>
<stop offset="0.4311" stop-color="#FAE453"/>
<stop offset="0.5025" stop-color="#F7DA4F"/>
<stop offset="0.6161" stop-color="#F0C245"/>
<stop offset="0.6705" stop-color="#F2C747"/>
<stop offset="0.738" stop-color="#F6D74D"/>
<stop offset="0.7972" stop-color="#FCEA55"/>
<stop offset="1" stop-color="#F2C948"/>
</linearGradient>
</defs>
</svg>
