<svg width="478" height="478" viewBox="0 0 478 478" fill="none" xmlns="http://www.w3.org/2000/svg">
<path d="M338.643 306.766C338.418 306.653 338.081 306.541 337.856 306.429L338.643 306.766Z" fill="#A0663A"/>
<path d="M365.781 327.403C361.631 320.113 356.36 312.935 350.753 308.674L338.642 306.767C339.202 306.991 310.606 310.917 303.092 320.337C289.523 337.16 313.521 340.076 325.745 341.085C337.184 342.094 351.202 344.449 362.528 341.085C370.715 338.618 369.706 334.244 365.781 327.403Z" fill="#A0663A"/>
<path d="M260.029 289.046C253.525 279.514 248.703 274.915 236.591 274.579L223.47 278.953C223.919 278.504 225.152 278.504 224.367 278.168C215.284 281.644 203.845 279.738 196.444 287.028C189.939 293.532 186.238 311.028 193.528 317.981C200.032 324.149 217.639 320.785 225.825 320.112C240.404 318.99 257.45 319.888 271.356 314.953C272.477 306.766 264.515 295.775 260.029 289.046Z" fill="#A0663A"/>
<path d="M405.255 345.233C399.873 334.354 398.527 334.466 380.247 330.765C368.584 328.41 357.034 325.606 345.595 323.027C341.67 322.13 337.408 321.905 335.726 318.092C341.109 314.84 347.389 314.279 353.333 312.709C351.202 304.634 333.259 297.232 325.633 293.868C316.662 289.83 305.784 286.017 296.252 285.344C269.898 283.774 244.553 289.718 218.984 290.279C222.685 287.475 230.199 280.634 232.778 280.97L236.815 274.466C218.648 274.466 203.06 271.213 184.893 273.008C172.445 274.241 159.997 281.307 147.661 283.101C135.998 284.784 123.887 284.784 112.111 286.578C103.14 287.924 88.5612 287.587 80.599 291.625C75.6647 294.204 73.1975 300.485 69.8332 304.858C65.796 310.017 60.9738 314.503 56.7124 319.438C51.778 325.27 43.5915 330.989 40.1151 337.718C37.0872 343.662 40.1151 350.952 39.5544 357.793C38.5451 369.793 28.4521 395.139 36.6386 404.448C51.2173 421.046 84.1876 423.738 104.822 428.111C118.728 431.027 131.288 433.719 145.642 434.28C162.464 434.953 176.818 431.476 192.743 429.794C219.545 426.99 245.226 427.775 272.365 427.775C289.299 427.775 305.672 424.859 322.605 424.859C340.661 424.859 439.347 424.186 433.964 401.756C433.628 401.868 413.442 361.719 405.255 345.233Z" fill="#AF713E"/>
<path d="M443.721 395.7C442.488 391.775 438.675 388.522 435.983 385.27C431.834 380.111 428.245 374.279 425.105 368.56C418.825 357.008 409.966 335.812 393.593 334.466L393.481 334.69C398.864 341.083 387.986 344.335 383.388 346.578C378.902 348.709 374.528 351.064 370.043 352.971C365.333 354.99 364.66 355.438 362.641 359.812C357.37 370.915 345.371 372.373 337.072 380.448C330.232 387.065 324.737 394.579 320.475 402.878C316.55 410.616 306.345 419.7 300.401 426.093C302.644 425.869 318.569 427.102 323.054 427.439C335.502 428.448 348.399 428.448 360.959 428.56C374.304 428.56 387.537 427.439 400.882 427.439C407.499 427.439 414.003 427.214 420.171 424.971C432.619 420.373 448.319 410.055 443.721 395.7Z" fill="#A0663A"/>
<path d="M285.149 349.158C278.982 350.504 273.038 350.728 266.758 351.289C251.843 352.635 237.264 348.821 222.573 350.167C207.209 351.513 192.631 354.205 177.043 354.205C165.492 354.205 154.614 352.298 143.4 350.952C142.839 354.765 144.745 358.242 145.979 361.719C148.222 367.887 152.932 373.046 153.38 379.438C153.941 386.055 153.38 392.672 153.717 399.289C153.941 402.317 155.063 404.896 155.287 407.925C155.511 411.513 154.053 413.532 152.708 416.56C149.904 422.84 147.885 428.672 143.736 434.168V434.28C158.427 439.663 176.146 436.635 191.509 435.401C204.854 434.28 219.433 433.046 232.218 429.906C238.498 428.336 241.301 424.747 246.123 420.822C250.833 417.121 256.104 414.429 261.263 411.289C266.085 408.373 270.907 406.354 273.935 401.42C277.524 395.588 277.86 390.99 278.309 384.373C278.533 380.56 276.514 376.074 277.299 372.597C277.86 370.018 281.112 368.56 282.234 365.868C285.037 359.027 291.429 354.541 294.57 347.924C291.542 347.476 287.953 348.485 285.149 349.158Z" fill="#A0663A"/>
<path d="M116.373 401.42C116.036 392.56 115.924 383.139 114.691 374.392C113.793 367.775 108.186 362.616 105.943 356.223C103.028 348.148 99.5512 347.476 90.9161 348.261C81.6081 349.158 71.9638 351.849 62.6558 351.849L61.5344 353.307C60.8615 354.765 58.5065 356.784 57.7215 358.691C56.8244 361.046 57.2729 363.513 56.4879 365.868C54.6936 371.251 53.1236 375.401 55.3665 381.008C57.6094 386.504 60.6372 391.551 62.768 397.158C65.2351 403.438 67.5902 412.298 72.8609 417.009C76.786 420.597 81.496 423.85 86.6546 424.635C93.3832 425.644 99.7754 426.654 106.392 428.336C121.643 432.261 116.709 409.719 116.373 401.42Z" fill="#A0663A"/>
<path d="M137.68 330.092C131.737 321.569 121.756 319.887 114.467 312.148C106.28 303.401 86.7671 290.84 86.7671 290.84C81.9449 291.625 74.4313 298.017 71.9641 301.27C68.5998 305.868 63.8897 310.242 59.8526 314.503C53.0118 321.905 41.1246 330.765 38.7695 340.634C49.3111 347.812 58.1704 353.532 71.5155 352.859C84.1878 352.298 95.8507 349.046 108.635 349.606C116.037 349.943 124.335 347.924 131.4 349.606C137.68 351.064 167.847 352.747 174.239 353.644C168.184 349.943 141.718 335.812 137.68 330.092Z" fill="#D8894E"/>
<path d="M294.793 346.915C294.905 346.803 295.018 346.803 295.13 346.691C295.243 346.354 295.243 346.13 295.355 345.793L294.793 346.915Z" fill="#D8894E"/>
<path d="M295.13 346.691C292.55 355.887 279.766 362.728 277.299 372.597C288.401 373.158 298.158 372.934 308.699 376.747C315.316 379.102 326.53 386.728 333.034 384.485C337.408 382.915 341.445 377.083 345.707 374.616C350.304 372.037 356.697 370.915 360.846 368.111C364.995 365.195 363.313 361.607 366.117 357.906C368.135 355.326 372.509 353.42 375.425 351.962C384.845 347.139 398.975 341.868 394.938 334.578C363.201 331.887 321.596 330.317 295.13 346.691Z" fill="#D8894E"/>
<path d="M152.259 291.737C157.642 301.382 161.006 310.69 172.557 314.952C185.229 319.662 198.126 319.214 210.798 322.69C221.788 325.606 234.236 343.102 245.562 340.971C248.478 340.41 265.412 317.419 276.851 312.709C288.514 307.999 304.214 310.13 316.774 309.569C312.961 297.793 295.354 296.111 284.364 296.111C270.234 296.111 256.553 296.784 242.647 295.55C230.535 294.429 220.442 296.447 209.004 291.849C199.247 288.036 191.958 285.793 181.192 286.242C171.772 286.69 163.025 289.382 153.941 291.176L152.259 291.737Z" fill="#D8894E"/>
<path d="M139.25 345.457C132.746 344.896 126.13 345.233 119.625 344.896C114.467 344.672 109.084 343.775 103.925 343.999C95.1779 344.335 86.0942 347.027 77.347 347.812C72.5248 348.261 69.1605 346.466 64.7869 345.681C60.6376 344.896 56.4883 344.672 52.3389 343.775C47.2925 342.653 43.816 341.532 38.7695 340.747L52.8997 351.289C56.264 353.307 56.3761 355.214 55.9275 358.691C55.5911 362.055 55.0304 366.765 55.0304 370.13C56.4883 367.214 59.6283 359.812 61.759 357.906C64.4505 355.438 68.9362 355.887 72.637 355.55C77.0106 355.102 81.3842 354.765 85.7578 354.317C89.5707 353.98 94.8414 353.195 98.6543 353.868C99.3272 353.98 99.8879 354.092 100.673 354.205C101.682 357.121 105.719 360.709 107.962 362.84C110.878 365.644 113.233 368.56 115.139 371.588C114.13 367.326 111.663 361.943 112.224 357.569C112.56 355.102 114.018 355.999 116.709 355.887C118.616 355.775 120.747 355.663 122.877 355.663C127.251 355.663 131.512 356.448 135.774 356.335C140.035 356.335 144.297 355.663 148.67 355.663C157.866 355.663 166.389 355.438 175.136 353.98C162.913 353.42 151.25 346.578 139.25 345.457Z" fill="#E89256"/>
<path d="M131.063 354.092C135.101 356.111 139.138 359.588 141.269 363.289C144.184 368.335 144.184 374.504 146.764 379.55C148.67 383.251 151.249 386.392 152.147 390.429C152.707 392.896 153.38 395.588 153.492 398.167C152.707 393.121 152.483 387.625 152.707 382.466C152.819 379.887 153.717 377.644 153.717 375.064C153.717 371.476 150.689 367.326 149.455 363.962C148.782 361.943 147.885 360.036 147.1 358.018C146.764 357.008 146.315 354.877 145.754 354.429L131.063 354.092Z" fill="#E89256"/>
<path d="M373.518 350.055C369.706 351.289 365.781 352.747 362.64 355.102C355.575 360.149 348.622 368.56 340.1 371.139C338.081 371.812 335.726 372.934 333.707 373.27C330.007 374.055 325.072 372.036 321.596 371.139C313.521 369.121 304.326 368.784 295.915 369.233C292.326 369.457 288.85 370.354 285.373 370.915C283.355 371.251 278.869 371.364 277.411 372.373V372.597C284.252 372.597 291.878 373.719 299.167 374.952C303.204 375.737 306.12 376.971 309.709 378.653C313.073 380.223 317.11 381.008 320.026 383.251C319.353 385.831 319.241 388.747 318.568 391.551C317.559 395.476 315.091 398.728 313.858 402.541C312.176 407.588 310.606 412.523 309.26 417.682C310.381 415.102 313.858 412.635 315.764 410.504C317.334 408.822 318.904 407.027 320.474 405.233C322.493 402.99 324.736 400.747 326.194 398.167C328.885 393.569 329.446 389.308 333.707 385.607C337.072 382.691 341.333 381.233 344.361 378.093C346.155 376.41 347.052 375.737 349.52 375.065C353.781 373.943 359.388 372.036 362.64 369.121C366.678 365.532 365.108 358.803 369.033 355.326C371.163 353.532 374.864 352.859 377.331 351.401C379.35 350.167 381.593 349.046 383.387 347.476C380.359 347.812 376.322 349.158 373.518 350.055Z" fill="#E89256"/>
<path d="M294.569 306.653C285.71 305.644 276.739 306.316 267.879 304.858C255.543 302.84 243.544 299.251 231.208 297.681C226.05 297.008 220.779 297.12 215.62 297.344C211.134 297.569 206.873 296.896 202.499 296.672C196.556 296.447 191.061 298.354 185.229 298.578C183.547 298.69 181.865 298.354 180.295 298.802L180.519 299.027C183.884 301.382 190.276 301.494 194.425 301.718C201.602 302.055 207.434 300.821 214.274 303.176C224.592 306.765 236.367 306.541 246.123 311.475C251.058 313.943 256.777 316.073 259.693 320.56C260.814 322.242 260.702 325.27 260.814 325.158C262.16 324.148 267.879 319.55 269.449 318.204C273.935 314.279 278.309 311.587 284.477 310.578C288.065 309.905 291.99 309.793 295.579 309.793C298.831 309.793 303.092 309.569 306.905 309.681C304.102 307.214 298.382 307.101 294.569 306.653Z" fill="#E89256"/>
<path d="M124.559 317.419C119.625 314.055 115.139 310.129 110.653 306.316C103.364 300.036 101.906 291.176 91.7011 288.597C90.8039 288.372 79.5896 290.391 75.5524 294.541C73.8702 296.223 72.6366 298.242 71.5152 300.372C70.7302 302.055 69.2723 305.083 67.8145 306.316L70.1695 304.858C75.3281 302.615 81.496 305.083 86.0939 307.326C94.3925 311.251 102.243 315.849 110.878 319.326C115.588 321.232 120.634 324.148 125.456 325.382C128.372 326.167 131.736 326.167 134.764 326.728C135.213 324.373 126.578 318.877 124.559 317.419Z" fill="#E89256"/>
<path d="M330.791 294.765C330.119 291.064 329.446 287.363 328.773 283.662C328.549 282.653 328.324 281.643 327.988 280.634C327.651 280.073 327.203 279.4 326.866 278.727C326.642 278.503 326.418 278.279 326.193 278.055C322.941 274.802 319.353 271.886 315.764 268.97C315.203 268.522 314.53 267.961 313.97 267.512C311.503 268.97 309.933 269.643 309.933 269.643C312.848 271.438 318.792 275.587 323.166 283.326C327.427 290.615 328.212 297.569 328.324 301.045C329.67 300.372 330.904 299.7 332.137 298.915C331.464 297.569 331.016 296.223 330.791 294.765Z" fill="#A0663A"/>
<path d="M338.193 302.167C333.259 288.26 323.278 280.634 316.213 275.251C312.064 271.998 302.419 264.821 288.065 262.017C277.972 259.998 272.701 261.456 244.217 264.036C240.74 264.372 226.947 265.494 223.582 265.718C223.47 265.718 223.47 265.718 223.358 265.718C223.246 265.718 223.134 265.718 223.022 265.718C222.909 265.718 222.797 265.718 222.797 265.718C222.685 265.718 222.573 265.718 222.461 265.718C222.349 265.718 222.237 265.718 222.124 265.718C222.012 265.718 222.012 265.718 221.9 265.718C221.788 265.718 221.564 265.718 221.452 265.718C221.339 265.718 221.227 265.718 221.227 265.718C221.003 265.718 220.667 265.718 220.442 265.718H220.33C220.218 265.718 220.218 265.718 220.106 265.718H219.994H219.882H219.769H219.657H219.545H219.433H219.321H219.209H219.097H218.984H218.872H218.76H218.648C218.536 265.718 218.536 265.718 218.424 265.718H218.312C218.199 265.718 218.199 265.718 218.087 265.718H217.975C217.863 265.718 217.751 265.718 217.639 265.83C214.835 266.503 211.919 267.288 209.004 268.297C210.574 267.064 212.48 265.606 214.611 263.699C215.956 262.802 217.302 261.681 218.76 260.559C200.144 260.896 181.64 259.438 163.137 257.082C146.539 269.082 128.26 271.998 114.354 286.802C111.102 290.503 107.962 294.653 105.271 299.587C105.271 299.587 105.271 299.587 105.271 299.699C105.158 299.924 105.046 300.036 105.046 300.036C104.934 300.372 80.711 293.195 73.1974 299.027C65.4595 305.083 69.3845 329.531 80.3746 334.915C84.5239 336.933 88.8975 335.924 94.2804 340.41C98.3176 343.775 99.8876 347.812 100.224 348.597C102.243 353.756 100.785 357.233 100.897 360.933C101.233 372.261 116.036 380.672 122.765 384.597C133.531 390.765 143.175 392.56 153.38 394.242C182.425 399.065 197.004 401.42 209.116 401.532C231.993 401.644 266.982 401.868 299.84 380.335C310.718 373.158 333.483 358.354 339.539 331.999C340.436 327.737 343.015 315.737 338.193 302.167Z" fill="#A0663A"/>
<path d="M333.035 288.036C382.378 262.802 362.304 187.549 351.426 177.232C340.548 166.802 342.006 181.157 342.006 181.157C358.828 238.578 314.531 256.746 314.531 256.746C317.447 258.541 323.39 262.69 327.764 270.428C332.137 277.718 332.922 284.559 333.035 288.036ZM101.794 330.317C82.281 317.756 73.0852 295.55 78.5802 276.26C83.7388 258.092 102.018 242.952 116.261 244.185C120.186 244.522 121.531 245.868 134.091 249.008C142.278 251.026 149.007 252.26 153.604 253.045C148.782 254.391 123.774 261.793 109.756 287.251C99.5511 305.868 101.009 323.812 101.794 330.317ZM212.929 256.41C219.881 251.251 233.451 239.811 242.31 220.297C253.749 194.951 250.16 171.848 248.478 163.549L199.135 180.148C197.453 207.4 188.369 223.101 181.08 232.073C158.651 259.774 128.484 254.615 110.99 285.232C108.523 289.606 100.448 304.073 102.803 322.13C105.831 345.905 124.783 360.149 131.512 365.195C155.399 383.251 181.753 382.915 214.947 382.579C251.618 382.242 277.075 381.906 300.513 363.513C306.232 359.027 327.988 340.747 332.137 310.802C333.147 303.176 336.062 282.428 323.054 266.84C314.419 256.522 302.756 253.157 296.139 251.363C283.355 247.774 271.804 248.783 249.151 250.914C245.675 251.251 231.769 252.372 228.517 252.597C224.704 252.821 224.591 252.709 222.461 253.157C198.238 258.54 168.071 279.288 170.65 299.027C172.893 315.961 198.126 324.597 202.163 325.943C225.264 333.905 250.609 326.616 265.973 312.26C269.113 309.232 285.486 293.98 280.551 281.195C278.084 274.69 270.907 270.989 264.851 269.98C256.552 268.746 248.03 272.447 242.983 279.513" fill="url(#paint0_linear)"/>
<path opacity="0.2" d="M278.757 350.391C278.757 350.391 296.588 359.7 303.989 347.251C311.391 334.803 313.521 329.195 306.905 326.391C300.289 323.588 299.391 327.401 296.363 319.999C293.336 312.597 290.308 304.186 281.112 307.55C272.028 311.027 259.917 314.167 264.29 322.242C268.776 330.317 262.272 350.055 278.757 350.391Z" fill="white"/>
<path opacity="0.2" d="M199.92 369.233C199.92 369.233 217.751 378.541 225.152 366.093C232.554 353.644 234.685 348.036 228.068 345.233C221.452 342.429 220.554 346.242 217.527 338.84C214.499 331.438 211.471 323.027 202.275 326.391C193.191 329.868 181.08 333.008 185.453 341.083C189.939 349.046 183.435 368.896 199.92 369.233Z" fill="white"/>
<path opacity="0.2" d="M288.065 287.475C288.065 287.475 300.737 294.092 306.008 285.232C311.279 276.372 312.849 272.447 308.139 270.428C303.429 268.41 302.868 271.101 300.625 265.83C298.382 260.559 296.251 254.615 289.859 256.97C283.355 259.438 274.832 261.681 277.972 267.4C280.888 273.12 276.29 287.139 288.065 287.475Z" fill="white"/>
<path opacity="0.2" d="M340.997 263.811C340.997 263.811 353.669 270.428 358.94 261.568C364.21 252.709 365.78 248.783 361.07 246.765C356.36 244.746 355.8 247.438 353.557 242.167C351.426 236.895 349.183 230.951 342.791 233.307C336.286 235.774 327.764 238.017 330.904 243.737C333.931 249.456 329.221 263.475 340.997 263.811Z" fill="white"/>
<path d="M180.183 359.139C181.304 358.018 185.117 360.485 189.266 362.616C189.266 362.616 201.602 368.784 223.022 371.027C240.628 372.821 254.758 367.102 267.318 362.167C282.682 355.999 301.074 348.373 313.41 328.971C316.886 323.475 327.652 306.653 323.839 285.232C321.82 274.129 316.662 266.054 313.185 261.456C316.325 263.026 323.727 267.512 328.661 276.484C332.586 283.55 333.259 290.167 333.371 293.643C330.231 306.204 327.091 318.877 323.839 331.438L293.784 364.859L251.282 378.653L194.313 382.691C186.687 372.821 178.164 361.158 180.183 359.139Z" fill="#EDB61B"/>
<path opacity="0.2" d="M181.08 284.896C181.08 284.896 171.099 302.391 183.211 310.242C195.434 318.092 200.929 320.559 203.957 314.055C206.985 307.55 203.284 306.541 210.798 303.737C218.312 300.933 226.835 298.241 223.807 289.045C220.779 279.849 217.975 267.625 209.789 271.662C201.602 275.699 182.089 268.41 181.08 284.896Z" fill="white"/>
<path d="M345.371 175.774C347.95 180.26 363.314 207.736 352.436 239.139C346.38 256.634 334.83 267.4 328.998 272.111C331.689 276.709 334.381 281.195 337.072 285.793C337.072 285.793 361.183 254.055 361.632 252.821C362.08 251.587 364.099 203.587 363.875 202.353C363.65 201.007 354.23 180.708 354.23 180.708L345.371 175.774Z" fill="#EDB61B"/>
<path d="M128.372 358.018C135.549 367.775 143.287 372.597 147.885 374.952C156.408 379.326 164.594 379.999 180.855 381.345C188.369 382.018 202.948 383.251 203.508 380.672C203.957 378.878 197.116 377.42 189.827 371.812C181.64 365.532 178.052 357.905 173.229 347.7C166.725 334.13 165.043 322.915 164.594 320.111C164.482 319.438 163.137 309.457 163.922 301.606C166.501 276.821 193.079 259.774 198.35 256.522L210.349 251.139C210.349 251.139 238.834 229.718 243.207 199.886L200.48 196.521C200.48 196.521 194.2 237.232 161.679 252.821C127.138 269.307 117.943 273.905 109.756 290.503C103.364 303.513 103.925 317.419 103.925 317.419C104.149 322.69 105.046 327.064 105.943 330.092C106.728 331.999 107.962 334.69 109.644 337.718C114.242 345.681 119.288 350.728 120.858 352.186C122.765 353.644 125.232 355.775 128.372 358.018Z" fill="#FFFFC2"/>
<path d="M158.091 323.027C158.876 330.204 161.343 343.326 169.866 357.233C178.165 370.691 188.37 378.653 194.313 382.579L203.509 380.672L193.08 371.251L177.94 356.448C175.81 353.756 173.567 350.504 171.66 346.578C166.838 337.27 165.38 328.522 164.932 322.466C162.577 322.69 160.334 322.915 158.091 323.027Z" fill="#EDB61B"/>
<path d="M158.314 320.447C153.941 317.643 156.744 305.98 158.538 298.69C159.884 293.195 161.118 288.036 164.594 281.98C169.08 274.241 174.239 269.419 179.846 265.157C200.817 249.344 208.891 248.783 218.423 240.372C225.376 234.204 233.563 223.325 237.263 202.69C239.955 200.222 242.646 197.867 245.338 195.4C245.786 199.886 246.011 206.727 244.104 214.802C243.319 218.278 240.291 229.83 230.535 241.157C223.245 249.568 215.171 254.166 210.013 256.634C205.751 258.989 200.032 262.353 193.415 266.727C174.799 278.952 170.874 284.896 169.753 288.148C169.753 288.26 169.753 288.148 169.416 289.269C165.379 302.727 165.155 302.279 164.706 304.522C162.912 313.382 166.949 317.756 163.921 320.223C162.464 321.232 159.884 321.457 158.314 320.447Z" fill="#EDB61B"/>
<path d="M87.2159 293.419C82.3937 281.756 85.7581 267.4 95.7389 256.746C94.1688 257.868 79.2537 269.643 79.7023 289.83C80.1509 310.69 96.636 322.017 98.0939 322.915C98.7668 321.12 99.4396 318.877 99.8882 316.298C100.449 313.158 100.561 310.466 100.561 308.223C97.3089 306.316 90.6924 301.83 87.2159 293.419Z" fill="#EDB61B"/>
<path d="M180.07 284.111C179.51 288.821 179.622 295.101 182.762 300.709C192.63 318.316 224.591 317.307 244.104 310.69C248.478 309.232 268.664 302.279 269.673 290.167C269.897 286.802 268.664 282.989 266.085 280.634C261.375 276.26 252.515 276.26 244.217 281.531C244.777 280.634 250.384 272.671 260.253 272.335C267.43 271.998 272.477 275.812 273.823 276.933C275.505 278.279 277.411 280.298 278.42 283.213C283.13 296.672 262.384 313.943 260.59 315.401C243.207 329.531 216.629 334.242 195.098 324.709C191.509 323.139 169.641 313.606 170.426 299.251C170.987 291.849 176.818 286.578 180.07 284.111Z" fill="#EDB61B"/>
<path d="M195.995 387.513C172.781 387.513 149.68 384.709 128.597 368.896C122.99 364.635 107.85 353.307 101.009 334.69C100.449 334.578 99.7758 334.354 99.3272 334.018C78.4684 320.672 68.1512 296.335 74.207 274.914C79.9263 254.952 100.112 238.129 116.597 239.587C119.065 239.811 120.635 240.372 123.214 241.157C125.681 241.942 128.933 242.952 135.101 244.522C140.933 245.98 146.876 247.213 152.82 248.223C161.455 243.737 169.978 238.353 177.491 229.157C187.584 216.708 193.304 200.11 194.649 179.699C194.762 177.904 195.995 176.334 197.677 175.774L247.021 159.175C248.254 158.727 249.6 158.951 250.721 159.512C251.843 160.185 252.628 161.194 252.852 162.54C255.207 174.091 257.562 197.306 246.348 221.98C241.413 232.746 235.133 241.381 228.853 247.998C232.105 247.774 237.825 247.438 248.703 246.428C255.095 245.867 260.366 245.307 264.739 244.858C280.215 243.288 285.374 242.727 293.785 244.41H293.897C298.831 245.419 306.905 246.989 314.755 251.587C322.493 247.55 351.539 229.157 337.857 182.278C337.745 182.054 337.745 181.718 337.745 181.493C337.521 179.362 337.184 171.961 342.231 169.493C347.501 166.914 352.884 172.073 354.679 173.867C363.089 181.83 372.51 214.241 368.472 242.391C365.22 264.372 354.567 280.97 337.633 290.615C338.081 296.671 337.857 303.625 336.624 311.475C333.932 328.41 325.521 343.887 311.503 357.457C283.467 384.709 247.133 385.943 215.172 387.065C208.667 387.289 202.387 387.513 195.995 387.513ZM113.906 288.933C106.504 302.503 106.056 314.167 107.065 321.681C109.869 343.55 127.475 356.784 134.092 361.831C158.427 380.111 185.678 379.214 214.611 378.317C245.114 377.307 279.542 376.186 305.111 351.289C317.671 339.064 325.185 325.27 327.652 310.354C331.577 285.681 324.512 272.335 317.783 265.494C309.597 257.082 298.719 254.84 292.215 253.606H292.102C284.925 252.148 280.439 252.597 265.636 254.167C261.263 254.615 255.992 255.176 249.6 255.737C235.021 257.082 229.526 257.307 226.835 257.531C224.816 257.643 224.704 257.643 223.358 257.98C220.891 258.54 218.424 259.213 215.957 259.998C215.845 260.111 215.732 260.111 215.62 260.223C214.723 260.896 213.826 261.12 212.817 261.12C192.519 268.858 173.23 285.008 175.024 298.802C176.706 311.924 197.341 319.999 203.621 322.13C223.583 328.971 247.469 323.812 262.945 309.457C273.935 299.139 278.869 289.606 276.402 283.326C274.608 278.615 268.777 275.699 264.179 274.914C257.562 273.905 250.833 276.821 246.572 282.653C245.114 284.671 242.311 285.12 240.292 283.662C238.273 282.204 237.825 279.4 239.283 277.382C245.451 268.746 255.431 264.372 265.524 265.942C272.253 266.952 281.449 271.326 284.701 279.961C288.626 290.055 283.019 302.728 269.001 315.849C251.17 332.447 223.695 338.391 200.593 330.541C188.706 326.503 168.296 317.083 166.053 299.924C163.361 279.625 188.369 260.335 211.471 252.036C219.77 245.643 230.76 234.877 238.049 218.615C246.796 199.325 246.46 181.045 244.778 169.605L203.285 183.624C201.49 204.484 195.21 221.867 184.444 235.101C173.342 248.783 160.782 254.84 148.558 260.559C139.138 265.045 130.055 269.307 122.429 277.27C119.401 280.41 116.485 284.335 113.906 288.933ZM114.579 248.559C102.355 248.559 87.3278 262.129 82.9542 277.382C78.6927 292.298 84.2999 309.008 96.7479 320.672C96.7479 311.027 98.6543 298.129 105.832 285.008C105.944 284.896 106.056 284.671 106.056 284.559C106.28 283.999 106.617 283.55 106.953 282.989C109.42 278.727 112.112 275.027 114.915 271.886C122.205 263.587 130.391 258.092 137.568 254.391C135.998 254.054 134.428 253.718 132.97 253.269C126.578 251.699 122.877 250.466 120.522 249.793C118.279 249.12 117.27 248.783 115.812 248.671C115.476 248.671 115.027 248.559 114.579 248.559ZM322.942 257.307C325.97 259.998 329.11 263.475 331.801 268.073C334.381 272.559 335.839 276.821 336.624 280.634C349.184 272.111 356.809 258.877 359.501 241.157C363.538 213.68 353.782 185.531 348.399 180.372C347.614 179.699 347.053 179.138 346.492 178.802C346.492 179.25 346.492 179.811 346.492 180.372C355.464 211.55 346.941 231.737 338.194 243.176C333.035 249.905 327.316 254.503 322.942 257.307Z" fill="black"/>
<path d="M153.829 95.5863C183.435 51.7356 206.537 42.5392 222.91 43.5486C254.758 45.4551 290.757 87.6236 293.224 89.5302C292.775 94.9134 292.663 100.857 292.775 107.25C293.112 119.026 294.794 129.343 296.812 137.979C267.767 157.493 257.113 171.512 252.964 181.045C252.067 183.176 249.375 189.792 242.759 195.063C240.74 196.746 232.89 202.802 221.676 202.241C212.48 201.792 206.2 197.082 204.294 195.624C197.229 190.129 194.313 183.063 193.079 180.26C182.089 154.129 152.035 153.68 145.194 132.147C142.839 124.745 142.727 113.082 153.829 95.5863Z" fill="url(#paint1_linear)"/>
<path d="M292.663 94.0161C292.775 90.8759 292.888 87.8478 293.112 84.9319C293 84.8198 292.888 84.7076 292.775 84.5955C292.663 87.6235 292.55 90.7637 292.663 94.0161Z" fill="#EDB61B"/>
<path d="M266.87 155.923C265.412 154.353 252.067 160.858 245.338 172.858C242.983 177.007 243.319 178.465 240.516 182.054C239.058 183.961 232.442 192.484 222.909 192.484C214.723 192.484 209.003 186.091 206.312 183.288C200.144 176.447 201.938 172.633 195.658 165.68C189.827 159.063 181.304 154.802 179.622 156.484C177.715 158.39 184.22 168.035 187.472 172.858C192.294 180.035 196.331 186.091 204.181 191.138C208.555 193.942 213.826 197.419 221.564 197.755C232.778 198.316 240.516 192.26 242.647 190.577C249.039 185.306 251.73 179.026 252.852 176.559C258.795 163.325 268.103 157.269 266.87 155.923Z" fill="#EDB61B"/>
<path d="M223.021 206.839C222.46 206.839 222.012 206.839 221.451 206.839C216.517 206.615 209.115 205.157 201.602 199.325C193.64 193.157 190.275 185.194 189.042 182.166C183.883 169.942 174.014 163.773 164.482 157.83C154.838 151.773 144.857 145.605 140.932 133.493C136.895 120.82 142.166 109.717 149.343 94.4647L149.791 93.5675C154.838 82.8011 169.865 56.4458 199.135 45.5672C202.499 44.3336 211.47 40.9691 223.918 40.6326C224.367 40.6326 235.918 40.4083 247.805 44.1093C274.944 52.5205 292.55 79.2123 297.26 87.1749L297.933 88.4086L297.821 89.8666C297.373 95.5862 297.26 101.418 297.485 107.138C297.821 117.119 299.167 127.213 301.41 136.97L302.083 139.998L299.503 141.68C276.738 156.932 262.608 170.727 257.225 182.839L257.113 183.063C255.992 185.755 252.851 192.708 245.786 198.54C238.946 203.923 230.983 206.839 223.021 206.839ZM157.866 97.4928L157.417 98.39C150.576 112.857 146.539 121.493 149.455 130.914C152.258 139.773 160.109 144.708 169.192 150.315C179.397 156.708 191.06 163.886 197.228 178.689C198.35 181.381 200.929 187.549 207.097 192.26C211.695 195.736 216.629 197.755 221.9 197.979C228.18 198.316 234.572 196.073 239.955 191.811C245.45 187.437 247.805 181.83 248.702 179.699L248.814 179.362C254.646 166.017 268.776 151.773 291.765 136.072C289.747 126.652 288.625 117.007 288.289 107.474C288.065 101.867 288.177 96.2591 288.625 90.7637C284.252 83.5861 268.215 60.0346 245.001 52.9691C234.46 49.7168 224.143 49.9411 224.031 49.9411C213.153 50.1654 205.19 53.1934 202.275 54.3149C175.36 64.072 161.566 89.7544 157.866 97.4928Z" fill="black"/>
<path d="M265.972 158.054C291.242 158.054 311.727 137.568 311.727 112.297C311.727 87.0255 291.242 66.5393 265.972 66.5393C240.703 66.5393 220.218 87.0255 220.218 112.297C220.218 137.568 240.703 158.054 265.972 158.054Z" fill="black"/>
<path d="M265.973 150.203C286.907 150.203 303.878 133.232 303.878 112.297C303.878 91.3613 286.907 74.3899 265.973 74.3899C245.039 74.3899 228.068 91.3613 228.068 112.297C228.068 133.232 245.039 150.203 265.973 150.203Z" fill="white"/>
<path d="M265.972 144.484C283.748 144.484 298.158 130.073 298.158 112.297C298.158 94.5202 283.748 80.1095 265.972 80.1095C248.197 80.1095 233.787 94.5202 233.787 112.297C233.787 130.073 248.197 144.484 265.972 144.484Z" fill="black"/>
<path d="M262.756 112.812C270.603 110.518 275.442 103.453 273.565 97.0327C271.688 90.6123 263.806 87.2672 255.959 89.5614C248.112 91.8555 243.273 98.9202 245.149 105.341C247.026 111.761 254.909 115.106 262.756 112.812Z" fill="white"/>
<path d="M278.607 123.189C281.876 122.233 283.893 119.29 283.11 116.614C282.328 113.939 279.044 112.545 275.774 113.501C272.505 114.457 270.488 117.401 271.271 120.076C272.053 122.751 275.337 124.145 278.607 123.189Z" fill="white"/>
<path d="M176.594 157.605C201.74 157.605 222.124 137.219 222.124 112.072C222.124 86.9251 201.74 66.5393 176.594 66.5393C151.448 66.5393 131.063 86.9251 131.063 112.072C131.063 137.219 151.448 157.605 176.594 157.605Z" fill="black"/>
<path d="M176.594 149.979C197.528 149.979 214.499 133.008 214.499 112.072C214.499 91.137 197.528 74.1655 176.594 74.1655C155.66 74.1655 138.689 91.137 138.689 112.072C138.689 133.008 155.66 149.979 176.594 149.979Z" fill="white"/>
<path d="M176.593 144.259C194.369 144.259 208.779 129.849 208.779 112.072C208.779 94.2959 194.369 79.8853 176.593 79.8853C158.818 79.8853 144.408 94.2959 144.408 112.072C144.408 129.849 158.818 144.259 176.593 144.259Z" fill="black"/>
<path d="M173.387 112.594C181.234 110.3 186.073 103.235 184.196 96.815C182.319 90.3945 174.437 87.0494 166.59 89.3436C158.743 91.6378 153.903 98.7024 155.78 105.123C157.657 111.543 165.54 114.888 173.387 112.594Z" fill="white"/>
<path d="M189.237 122.971C192.507 122.015 194.523 119.072 193.741 116.396C192.959 113.721 189.675 112.327 186.405 113.283C183.136 114.239 181.119 117.183 181.901 119.858C182.683 122.533 185.968 123.927 189.237 122.971Z" fill="white"/>
<path d="M232.57 63.8861C233.623 62.0623 231.824 59.0525 228.552 57.1633C225.281 55.2742 221.775 55.2212 220.722 57.0449C219.669 58.8686 221.468 61.8785 224.74 63.7676C228.011 65.6568 231.517 65.7098 232.57 63.8861Z" fill="white"/>
<path d="M239.283 66.0906C240.522 66.0906 241.526 65.0864 241.526 63.8476C241.526 62.6088 240.522 61.6046 239.283 61.6046C238.044 61.6046 237.04 62.6088 237.04 63.8476C237.04 65.0864 238.044 66.0906 239.283 66.0906Z" fill="white"/>
<path d="M226.498 180.82C226.61 179.362 227.059 178.017 227.507 176.671C227.732 175.998 228.068 175.325 228.404 174.652C228.853 173.979 229.189 173.419 229.75 172.746C230.311 172.185 230.76 171.4 231.32 170.839C231.881 170.166 232.778 169.83 233.675 169.718C234.685 169.605 235.582 169.718 236.479 170.166C236.815 170.278 237.264 170.503 237.712 170.951C238.61 171.961 239.058 173.531 238.497 174.764C238.161 175.662 237.488 176.11 237.264 176.334C235.582 177.568 234.124 176.559 231.657 177.792C231.32 178.017 230.872 178.241 230.087 178.802C229.077 179.475 227.956 180.372 226.947 181.157L226.498 180.82Z" fill="black"/>
<path d="M219.881 180.82C219.769 179.362 219.321 178.017 218.872 176.671C218.648 175.998 218.311 175.325 217.975 174.652C217.526 173.979 217.19 173.418 216.629 172.746C216.069 172.185 215.62 171.4 215.059 170.839C214.499 170.166 213.601 169.83 212.704 169.717C211.695 169.605 210.798 169.717 209.901 170.166C209.564 170.278 209.116 170.503 208.667 170.951C207.77 171.96 207.321 173.531 207.882 174.764C208.219 175.661 208.891 176.11 209.116 176.334C210.798 177.568 212.256 176.559 214.723 177.792C215.059 178.017 215.508 178.241 216.293 178.802C217.302 179.475 218.424 180.372 219.433 181.157L219.881 180.82Z" fill="black"/>
<path d="M117.271 292.971C117.383 290.279 118.616 288.26 121.196 284.447C124.448 279.513 128.036 276.821 133.419 273.008C140.26 267.961 143.736 265.494 146.54 266.391C148.446 266.952 148.446 268.073 154.614 275.587C158.876 280.971 159.437 281.083 159.773 282.653C160.558 286.802 157.194 288.597 153.942 296.223C150.129 305.083 151.923 309.457 148.11 311.812C145.194 313.606 141.606 312.597 137.681 311.475C129.718 308.896 117.046 302.055 117.271 292.971Z" fill="#EDB61B"/>
<path d="M138.69 359.363C135.662 357.457 131.625 354.877 127.251 350.728C123.775 347.476 118.167 342.204 115.14 333.793C113.345 328.746 110.99 319.326 114.13 317.531C116.037 316.41 118.616 319.102 124.223 322.017C138.353 329.083 147.437 324.26 152.483 330.877C154.726 333.905 153.044 335.139 154.614 342.429C158.203 358.691 169.866 365.98 167.623 369.008C165.716 371.588 156.072 367.775 150.689 365.756C145.194 363.401 141.045 360.934 138.69 359.363Z" fill="#EDB61B"/>
<path d="M195.547 226.129C195.434 224.559 196.78 222.316 199.359 217.83C203.284 210.652 205.191 209.194 207.209 208.634C208.219 208.409 209.004 208.409 210.574 208.521C214.162 208.746 215.845 209.867 218.76 210.877C224.48 212.671 226.162 210.764 227.62 212.447C231.096 216.26 223.134 228.372 222.237 229.83C218.985 234.652 215.957 239.251 211.247 239.475C207.77 239.699 205.079 237.568 202.163 235.325C199.472 233.194 195.771 230.279 195.547 226.129Z" fill="#EDB61B"/>
<path d="M162.351 258.316C162.912 256.073 165.604 256.185 171.211 252.036C174.687 249.456 177.379 246.765 178.052 245.98C182.425 241.381 183.098 238.802 185.117 238.802C186.462 238.802 187.696 240.484 190.275 243.624C192.742 246.765 193.864 248.335 193.752 249.681C193.527 252.484 189.378 253.157 182.986 256.97C174.014 262.354 172.781 266.727 168.744 266.054C164.931 265.494 161.679 261.12 162.351 258.316Z" fill="#EDB61B"/>
<path d="M219.881 252.933C219.769 252.933 219.769 252.933 219.881 252.933C195.322 252.036 183.21 229.045 182.762 228.036C182.201 226.914 182.65 225.568 183.771 225.008C184.893 224.447 186.238 224.895 186.799 226.017C186.911 226.241 198.238 247.662 219.994 248.447C221.227 248.447 222.237 249.568 222.124 250.802C222.012 252.036 221.003 252.933 219.881 252.933Z" fill="black"/>
<path d="M176.034 280.073C158.315 279.288 149.792 259.213 149.456 258.428C149.007 257.307 149.568 255.961 150.689 255.512C151.811 255.064 153.156 255.624 153.605 256.746C153.717 256.97 161.455 275.026 176.146 275.699C177.379 275.699 178.389 276.821 178.277 278.054C178.277 279.176 177.267 280.073 176.034 280.073Z" fill="black"/>
<path d="M151.25 324.148C147.1 324.148 142.502 323.7 137.568 322.354C118.84 317.195 108.971 302.952 105.607 297.12C105.046 295.998 105.383 294.653 106.392 294.092C107.513 293.531 108.859 293.868 109.42 294.877C112.56 300.26 121.531 313.27 138.689 318.092C149.007 320.896 158.09 319.662 164.034 318.092C165.268 317.756 166.501 318.429 166.838 319.662C167.174 320.896 166.501 322.129 165.268 322.466C161.679 323.251 156.857 324.148 151.25 324.148Z" fill="black"/>
<path d="M222.348 382.915C222.236 382.915 222.124 382.915 222.124 382.915C213.489 381.906 191.621 377.42 176.145 357.793C152.483 327.737 166.276 290.84 166.949 289.382C167.398 288.26 168.744 287.699 169.865 288.148C170.986 288.597 171.547 289.942 171.099 291.064C170.538 292.522 157.529 327.064 179.622 355.102C194.088 373.382 214.498 377.644 222.573 378.541C223.806 378.653 224.703 379.775 224.591 381.008C224.479 382.13 223.47 382.915 222.348 382.915Z" fill="black"/>
<defs>
<linearGradient id="paint0_linear" x1="116.462" y1="206.837" x2="374.634" y2="340.169" gradientUnits="userSpaceOnUse">
<stop stop-color="#FFF359"/>
<stop offset="0.1903" stop-color="#F0C145"/>
<stop offset="0.2793" stop-color="#F1C446"/>
<stop offset="0.351" stop-color="#F4CE4A"/>
<stop offset="0.4165" stop-color="#F9DF51"/>
<stop offset="0.4311" stop-color="#FAE453"/>
<stop offset="0.5025" stop-color="#F7DA4F"/>
<stop offset="0.6161" stop-color="#F0C245"/>
<stop offset="0.6705" stop-color="#F2C747"/>
<stop offset="0.738" stop-color="#F6D74D"/>
<stop offset="0.7972" stop-color="#FCEA55"/>
<stop offset="1" stop-color="#F2C948"/>
</linearGradient>
<linearGradient id="paint1_linear" x1="172.084" y1="84.0515" x2="295.875" y2="173.716" gradientUnits="userSpaceOnUse">
<stop stop-color="#FFF359"/>
<stop offset="0.1903" stop-color="#F0C145"/>
<stop offset="0.2793" stop-color="#F1C446"/>
<stop offset="0.351" stop-color="#F4CE4A"/>
<stop offset="0.4165" stop-color="#F9DF51"/>
<stop offset="0.4311" stop-color="#FAE453"/>
<stop offset="0.5025" stop-color="#F7DA4F"/>
<stop offset="0.6161" stop-color="#F0C245"/>
<stop offset="0.6705" stop-color="#F2C747"/>
<stop offset="0.738" stop-color="#F6D74D"/>
<stop offset="0.7972" stop-color="#FCEA55"/>
<stop offset="1" stop-color="#F2C948"/>
</linearGradient>
</defs>
</svg>
