<svg width="400" height="400" viewBox="0 0 400 400" fill="none" xmlns="http://www.w3.org/2000/svg">
<path d="M278.767 261.982C320.121 240.804 303.298 177.646 294.181 168.987C285.064 160.233 286.286 172.281 286.286 172.281C300.384 220.473 263.259 235.721 263.259 235.721C265.702 237.227 270.684 240.71 274.349 247.205C278.015 253.323 278.673 259.064 278.767 261.982ZM84.9639 297.467C68.61 286.925 60.903 268.288 65.5084 252.099C69.8319 236.851 85.1519 224.144 97.0883 225.179C100.378 225.462 101.506 226.591 112.032 229.227C118.893 230.921 124.533 231.956 128.386 232.615C124.345 233.745 103.385 239.957 91.637 261.323C83.0841 276.948 84.306 292.008 84.9639 297.467ZM178.106 235.345C183.933 231.015 195.306 221.414 202.731 205.037C212.317 183.765 209.31 164.375 207.9 157.41L166.545 171.34C165.135 194.212 157.522 207.39 151.413 214.92C132.616 238.169 107.333 233.839 92.6709 259.535C90.6032 263.206 83.836 275.348 85.8098 290.502C88.3475 310.456 104.231 322.41 109.871 326.646C129.89 341.8 151.977 341.517 179.798 341.235C210.532 340.953 231.867 340.67 251.51 325.234C256.304 321.469 274.537 306.126 278.015 280.995C278.861 274.595 281.304 257.182 270.402 244.098C263.165 235.439 253.39 232.615 247.845 231.109C237.13 228.097 227.449 228.944 208.464 230.733C205.55 231.015 193.896 231.956 191.17 232.145C187.975 232.333 187.881 232.239 186.095 232.615C165.793 237.133 140.511 254.546 142.672 271.112C144.552 285.325 165.699 292.573 169.083 293.702C188.444 300.385 209.686 294.267 222.562 282.219C225.194 279.677 238.916 266.877 234.78 256.146C232.713 250.687 226.697 247.581 221.622 246.734C214.667 245.699 207.524 248.805 203.295 254.734" fill="url(#paint0_linear)"/>
<path opacity="0.2" d="M234.592 309.609C234.592 309.609 249.536 317.421 255.739 306.973C261.942 296.526 263.728 291.819 258.183 289.466C252.638 287.113 251.886 290.313 249.348 284.101C246.81 277.889 244.273 270.83 236.566 273.653C228.859 276.477 218.802 279.207 222.467 285.984C226.133 292.761 220.776 309.327 234.592 309.609Z" fill="white"/>
<path opacity="0.2" d="M168.518 329.375C168.518 329.375 183.462 337.187 189.666 326.74C195.869 316.292 197.655 311.586 192.109 309.232C186.564 306.879 185.812 310.08 183.275 303.867C180.737 297.655 178.199 290.596 170.492 293.42C162.879 296.337 152.728 298.973 156.394 305.75C160.06 312.527 154.702 328.999 168.518 329.375Z" fill="white"/>
<path opacity="0.2" d="M243.333 256.617C243.333 256.617 253.953 262.171 258.371 254.735C262.788 247.299 264.104 244.005 260.157 242.31C256.209 240.616 255.739 242.875 253.859 238.451C252.074 234.027 250.194 229.039 244.837 231.015C239.385 233.086 232.242 234.969 234.874 239.769C237.412 244.664 233.558 256.429 243.333 256.617Z" fill="white"/>
<path opacity="0.2" d="M286.003 242.687C286.003 242.687 296.624 248.24 301.041 240.804C305.459 233.368 306.775 230.074 302.827 228.38C298.88 226.686 298.41 228.945 296.53 224.521C294.744 220.097 292.864 215.108 287.507 217.085C282.15 219.061 274.913 221.038 277.544 225.838C280.082 230.639 276.229 242.404 286.003 242.687Z" fill="white"/>
<path opacity="0.2" d="M152.635 259.346C152.635 259.346 144.27 274.03 154.42 280.619C164.665 287.207 169.271 289.278 171.808 283.819C174.346 278.36 171.244 277.512 177.541 275.159C183.839 272.806 190.982 270.547 188.444 262.829C185.906 255.111 183.557 244.851 176.696 248.24C169.834 251.628 153.481 245.51 152.635 259.346Z" fill="white"/>
<path d="M150.661 321.657C151.601 320.716 154.797 322.787 158.274 324.575C158.274 324.575 168.613 329.752 186.565 331.635C201.321 333.141 213.163 328.34 223.69 324.199C236.566 319.022 251.98 312.621 262.319 296.338C265.232 291.726 274.255 277.607 271.06 259.629C269.368 250.311 265.044 243.534 262.131 239.675C264.762 240.993 270.966 244.758 275.101 252.288C278.391 258.217 278.955 263.771 279.049 266.689C276.417 277.231 273.785 287.867 271.06 298.409L245.871 326.458L210.25 338.035L162.504 341.423C156.113 333.141 148.97 323.257 150.661 321.657Z" fill="#EDB61B"/>
<path d="M289.105 167.764C291.267 171.529 304.143 194.589 295.026 220.944C289.951 235.627 280.27 244.663 275.383 248.617C277.639 252.476 279.894 256.241 282.15 260.1C282.15 260.1 302.357 233.463 302.733 232.427C303.109 231.392 304.801 191.107 304.613 190.071C304.425 188.942 296.53 171.905 296.53 171.905L289.105 167.764Z" fill="#EDB61B"/>
<path d="M107.239 320.716C113.254 328.905 119.739 332.952 123.593 334.929C130.736 338.6 137.597 339.165 151.225 340.294C157.523 340.859 169.741 341.894 170.211 339.729C170.587 338.223 164.854 337 158.744 332.293C151.883 327.022 148.876 320.622 144.834 312.057C139.383 300.668 137.973 291.255 137.597 288.902C137.503 288.337 136.375 279.96 137.033 273.371C139.195 252.57 161.47 238.263 165.887 235.533L175.944 231.015C175.944 231.015 199.817 213.038 203.483 188L167.673 185.177C167.673 185.177 162.41 219.344 135.153 232.427C106.205 246.264 98.4982 250.123 91.6371 264.053C86.2798 274.972 86.7497 286.643 86.7497 286.643C86.9377 291.067 87.6896 294.738 88.4415 297.279C89.0994 298.879 90.1333 301.138 91.5431 303.68C95.3966 310.362 99.6261 314.598 100.942 315.822C102.54 317.045 104.607 318.834 107.239 320.716Z" fill="#FFFFC2"/>
<path d="M132.146 291.349C132.803 297.373 134.871 308.386 142.014 320.057C148.969 331.352 157.522 338.035 162.504 341.329L170.211 339.729L161.47 331.823L148.687 319.398C146.902 317.139 145.022 314.41 143.424 311.115C139.383 303.303 138.161 295.961 137.785 290.878C135.905 291.067 134.025 291.161 132.146 291.349Z" fill="#EDB61B"/>
<path d="M132.334 289.184C128.668 286.831 131.018 277.042 132.522 270.924C133.65 266.312 134.683 261.982 137.597 256.9C141.357 250.405 145.68 246.358 150.379 242.781C167.955 229.509 174.722 229.039 182.711 221.979C188.538 216.802 195.4 207.672 198.501 190.353C200.757 188.283 203.013 186.306 205.268 184.235C205.644 188 205.832 193.742 204.234 200.519C203.577 203.437 201.039 213.132 192.862 222.638C186.753 229.698 179.986 233.557 175.662 235.627C172.091 237.604 167.297 240.428 161.752 244.099C146.15 254.358 142.86 259.347 141.921 262.076C141.921 262.17 141.921 262.076 141.639 263.018C138.255 274.313 138.067 273.936 137.691 275.819C136.187 283.254 139.571 286.925 137.033 288.996C135.811 289.843 133.744 290.031 132.334 289.184Z" fill="#EDB61B"/>
<path d="M72.7449 266.406C68.7035 256.617 71.5231 244.569 79.888 235.627C78.5722 236.569 66.0718 246.452 66.4478 263.394C66.8237 280.901 80.6399 290.408 81.8618 291.161C82.4257 289.655 82.9896 287.772 83.3656 285.608C83.8355 282.972 83.9295 280.713 83.9295 278.831C81.2038 277.325 75.6586 273.466 72.7449 266.406Z" fill="#EDB61B"/>
<path d="M150.567 258.688C150.097 262.641 150.191 267.912 152.823 272.618C161.094 287.396 187.88 286.549 204.234 280.995C207.9 279.772 224.817 273.936 225.663 263.77C225.851 260.947 224.817 257.747 222.656 255.77C218.708 252.099 211.283 252.099 204.328 256.523C204.798 255.77 209.497 249.087 217.768 248.805C223.784 248.522 228.013 251.723 229.141 252.664C230.551 253.793 232.148 255.488 232.994 257.935C236.942 269.23 219.554 283.725 218.05 284.949C203.482 296.808 181.207 300.761 163.161 292.761C160.154 291.443 141.826 283.443 142.484 271.395C142.954 265.182 147.841 260.759 150.567 258.688Z" fill="#EDB61B"/>
<path d="M164.007 345C144.646 345 125.378 342.647 107.803 329.469C103.103 325.893 90.4149 316.292 84.7756 300.761C84.2117 300.761 83.7417 300.573 83.2718 300.291C65.978 289.184 57.4251 268.947 62.4065 251.252C67.1059 234.686 83.8357 220.756 97.4639 221.979C99.4377 222.167 100.848 222.638 102.915 223.297C104.983 223.956 107.709 224.803 112.878 226.121C117.859 227.344 122.841 228.38 127.916 229.227C135.247 225.462 142.484 220.85 148.875 213.037C157.428 202.495 162.222 188.471 163.349 171.34C163.443 170.022 164.289 168.893 165.605 168.422L206.96 154.492C207.9 154.209 208.839 154.304 209.685 154.774C210.531 155.245 211.095 155.998 211.283 156.939C213.257 166.634 215.231 185.929 205.926 206.543C201.602 216.049 196.057 223.485 190.606 229.133C193.05 229.039 197.843 228.756 208.37 227.721C213.727 227.25 218.144 226.78 221.81 226.403C234.686 225.085 239.01 224.615 246.059 226.027H246.153C250.288 226.874 257.055 228.191 263.634 232.05C269.838 228.944 295.214 213.32 283.466 173.223C283.372 173.034 283.372 172.846 283.372 172.658C283.184 170.87 282.902 165.034 286.849 163.057C290.985 161.081 295.308 165.222 296.718 166.634C303.673 173.317 311.568 200.236 308.091 223.768C305.365 242.216 296.436 256.052 282.15 264.053C282.62 269.136 282.432 275.065 281.304 281.748C279.048 295.867 271.999 308.762 260.439 320.057C237.13 342.835 206.772 343.87 179.985 344.718C174.534 344.812 169.271 345 164.007 345ZM94.7383 262.359C88.4411 273.842 88.0652 283.819 88.9111 290.219C91.2607 308.762 106.111 319.963 111.75 324.198C132.239 339.635 155.266 338.882 179.609 338.129C205.268 337.282 234.216 336.341 255.739 315.351C266.266 304.997 272.657 293.42 274.725 280.713C278.108 259.817 271.999 248.522 266.36 242.687C259.405 235.533 250.194 233.651 244.649 232.521H244.555C238.54 231.298 234.78 231.674 222.28 232.992C218.614 233.368 214.197 233.839 208.839 234.309C196.621 235.439 192.016 235.627 189.854 235.815C188.162 235.91 188.068 235.91 186.846 236.192C184.779 236.663 182.617 237.227 180.455 237.98C180.361 238.074 180.267 238.169 180.079 238.263C179.421 238.733 178.669 238.922 177.917 238.922C160.624 245.416 144.364 259.253 145.868 271.112C147.371 282.407 164.759 289.184 170.117 291.067C187.034 296.902 207.242 292.573 220.306 280.242C229.705 271.489 233.84 263.3 231.678 257.841C230.081 253.699 225.005 251.158 221.058 250.499C215.325 249.558 209.497 252.193 205.926 257.182C204.892 258.688 202.824 258.97 201.32 257.935C199.817 256.899 199.535 254.829 200.569 253.323C205.644 246.263 213.821 242.687 222.092 243.91C227.637 244.757 235.062 248.24 237.882 255.393C241.077 263.676 236.472 274.124 224.817 285.043C209.967 298.879 187.128 303.773 167.955 297.279C159.966 294.267 141.262 286.36 139.289 271.677C137.127 254.923 157.898 238.827 177.166 231.956C184.215 226.591 193.425 217.461 199.629 203.719C207.148 187.153 206.678 171.434 205.174 161.834L169.553 173.882C168.143 191.483 162.785 205.978 153.857 217.179C144.646 228.568 134.119 233.556 123.968 238.451C116.074 242.216 108.461 245.887 102.069 252.476C99.4377 255.205 96.9 258.594 94.7383 262.359ZM95.6782 228.38C85.2455 228.38 72.4632 239.957 68.7037 252.946C65.0382 265.935 70.1135 280.525 81.2041 290.408C81.1101 282.219 82.5199 271.018 88.7231 259.629C88.8171 259.441 88.9111 259.347 89.005 259.158C89.193 258.782 89.475 258.311 89.663 257.935C92.0127 253.793 94.6443 250.405 97.4639 247.487C103.667 240.804 110.622 236.38 116.449 233.556C114.664 233.18 112.972 232.803 111.186 232.333C105.829 231.015 102.821 230.074 100.754 229.415C98.8738 228.85 98.0279 228.568 96.712 228.38C96.4301 228.38 96.0541 228.38 95.6782 228.38ZM269.556 236.098C272.187 238.357 275.007 241.369 277.357 245.51C279.612 249.464 280.834 253.323 281.492 256.617C292.489 249.464 299.162 238.074 301.417 222.732C304.801 199.578 296.53 175.67 292.019 171.34C290.985 170.399 290.233 169.834 289.763 169.458C289.669 170.117 289.669 170.964 289.669 171.623C297.188 197.601 290.139 214.449 282.808 224.05C278.296 229.98 273.127 233.839 269.556 236.098Z" fill="black"/>
<path d="M186.847 190.447C186.847 190.447 210.156 200.707 208.37 221.132C208.37 221.132 213.633 218.685 211.847 209.743C211.847 209.743 215.607 214.073 224.066 211.437C224.066 211.437 216.829 212.002 207.994 200.425C199.159 188.941 187.975 188.188 187.975 188.188L186.847 190.447Z" fill="#C20422"/>
<path d="M208.934 222.074C208.746 222.074 208.558 221.979 208.37 221.885C208.088 221.697 207.9 221.415 207.994 221.038C209.686 201.554 187.223 191.389 187.035 191.295C186.753 191.201 186.565 191.012 186.565 190.73C186.471 190.448 186.471 190.165 186.659 189.977L187.88 187.718C188.068 187.436 188.444 187.153 188.726 187.247C189.196 187.247 200.381 188.095 209.404 199.86C217.769 210.779 224.63 210.496 224.724 210.496C225.194 210.496 225.664 210.779 225.664 211.249C225.664 211.72 225.476 212.19 225.006 212.285C219.46 213.979 215.701 212.943 213.727 211.814C214.385 219.532 209.592 221.885 209.404 221.979C209.216 222.074 209.028 222.074 208.934 222.074ZM188.632 190.071C192.862 192.236 209.968 202.025 209.874 219.156C211.095 217.744 212.411 215.014 211.377 210.026C211.283 209.649 211.471 209.178 211.847 208.99C212.223 208.802 212.693 208.896 212.975 209.178C213.069 209.273 215.231 211.626 219.93 211.343C216.829 210.026 212.505 207.202 207.712 200.99C200.381 191.483 191.358 189.601 189.008 189.224L188.632 190.071Z" fill="black"/>
<path d="M128.574 100.37C153.386 63.5674 172.748 55.8492 186.47 56.6963C213.163 58.2964 243.333 93.6873 245.4 95.2874C245.024 99.8054 244.931 104.794 245.025 110.159C245.306 120.042 246.716 128.702 248.408 135.949C224.065 152.327 215.136 164.092 211.659 172.093C210.907 173.881 208.651 179.435 203.106 183.859C201.414 185.27 194.835 190.353 185.436 189.883C177.729 189.506 172.466 185.553 170.868 184.329C164.947 179.717 162.503 173.787 161.469 171.434C152.259 149.503 127.07 149.127 121.337 131.055C119.363 124.842 119.269 115.148 128.574 100.37Z" fill="url(#paint1_linear)"/>
<path d="M244.93 99.1467C245.024 96.5112 245.118 93.9698 245.306 91.5226C245.212 91.4285 245.118 91.3344 245.024 91.2402C244.93 93.7816 244.837 96.4171 244.93 99.1467Z" fill="#EDB61B"/>
<path d="M223.314 151.103C222.092 149.786 210.907 155.245 205.268 165.316C203.294 168.799 203.576 170.022 201.227 173.034C200.005 174.635 194.459 181.788 186.47 181.788C179.609 181.788 174.816 176.423 172.56 174.07C167.391 168.328 168.895 165.128 163.631 159.292C158.744 153.739 151.601 150.162 150.191 151.574C148.593 153.174 154.045 161.269 156.77 165.316C160.812 171.34 164.195 176.423 170.775 180.659C174.44 183.012 178.857 185.929 185.343 186.212C194.741 186.682 201.227 181.6 203.012 180.188C208.37 175.764 210.625 170.493 211.565 168.422C216.547 157.316 224.348 152.233 223.314 151.103Z" fill="#EDB61B"/>
<path d="M186.565 193.365C186.189 193.365 185.719 193.365 185.343 193.365C181.301 193.177 175.192 191.953 168.895 187.153C162.316 182.07 159.59 175.482 158.556 172.94C154.233 162.587 145.868 157.41 137.785 152.327C129.796 147.338 121.431 142.162 118.235 132.184C114.946 121.737 119.269 112.512 125.285 99.8055L125.661 99.0525C129.89 90.0165 142.39 68.0855 166.733 59.0496C169.553 58.0142 177.072 55.1904 187.316 55.0022C187.692 55.0022 197.279 54.8139 207.148 57.9201C229.799 64.8853 244.367 87.1928 248.315 93.7815L248.878 94.7228L248.785 95.7581C248.409 100.558 248.315 105.453 248.409 110.253C248.691 118.725 249.818 127.196 251.698 135.385L252.168 137.549L250.288 138.773C231.209 151.574 219.178 163.34 214.667 173.505L214.573 173.787C213.633 175.952 211.095 181.788 205.174 186.588C199.723 191.012 193.144 193.365 186.565 193.365ZM131.582 101.782L131.206 102.535C125.473 114.771 121.995 122.113 124.533 130.114C126.976 137.738 133.555 141.879 141.262 146.68C149.815 152.045 159.496 158.069 164.571 170.211C165.511 172.564 167.767 177.741 172.936 181.788C176.79 184.8 181.113 186.494 185.625 186.682C190.982 186.965 196.527 185.082 201.039 181.317C205.738 177.552 207.806 172.752 208.558 170.964L208.652 170.681C213.539 159.48 225.382 147.621 244.743 134.349C243.051 126.349 242.111 118.254 241.829 110.159C241.641 105.453 241.735 100.653 242.111 95.9464C238.54 90.1107 224.912 69.968 205.174 63.8499C196.339 61.1203 187.504 61.3085 187.41 61.3085C178.294 61.4968 171.527 64.0382 168.989 64.9794C146.338 73.6389 134.589 95.3816 131.582 101.782Z" fill="black"/>
<path d="M222.562 152.892C243.74 152.892 260.909 135.698 260.909 114.489C260.909 93.2795 243.74 76.0859 222.562 76.0859C201.383 76.0859 184.215 93.2795 184.215 114.489C184.215 135.698 201.383 152.892 222.562 152.892Z" fill="black"/>
<path d="M222.562 146.303C240.107 146.303 254.33 132.059 254.33 114.489C254.33 96.9185 240.107 82.6748 222.562 82.6748C205.017 82.6748 190.794 96.9185 190.794 114.489C190.794 132.059 205.017 146.303 222.562 146.303Z" fill="white"/>
<path d="M222.561 141.503C237.459 141.503 249.536 129.408 249.536 114.489C249.536 99.5696 237.459 87.4751 222.561 87.4751C207.664 87.4751 195.587 99.5696 195.587 114.489C195.587 129.408 207.664 141.503 222.561 141.503Z" fill="black"/>
<path d="M219.872 114.925C226.448 112.999 230.504 107.07 228.931 101.682C227.358 96.2931 220.752 93.4857 214.175 95.4112C207.599 97.3366 203.543 103.266 205.116 108.654C206.689 114.043 213.295 116.85 219.872 114.925Z" fill="white"/>
<path d="M233.156 123.634C235.897 122.832 237.587 120.361 236.931 118.116C236.276 115.871 233.523 114.701 230.783 115.503C228.043 116.306 226.353 118.776 227.008 121.021C227.664 123.267 230.416 124.436 233.156 123.634Z" fill="white"/>
<path d="M147.653 152.515C168.728 152.515 185.812 135.406 185.812 114.301C185.812 93.1952 168.728 76.0859 147.653 76.0859C126.579 76.0859 109.494 93.1952 109.494 114.301C109.494 135.406 126.579 152.515 147.653 152.515Z" fill="black"/>
<path d="M147.654 146.115C165.199 146.115 179.421 131.871 179.421 114.3C179.421 96.73 165.199 82.4863 147.654 82.4863C130.109 82.4863 115.886 96.73 115.886 114.3C115.886 131.871 130.109 146.115 147.654 146.115Z" fill="white"/>
<path d="M147.653 141.314C162.551 141.314 174.628 129.22 174.628 114.3C174.628 99.3811 162.551 87.2866 147.653 87.2866C132.756 87.2866 120.679 99.3811 120.679 114.3C120.679 129.22 132.756 141.314 147.653 141.314Z" fill="black"/>
<path d="M144.945 114.652C151.521 112.726 155.577 106.797 154.004 101.409C152.431 96.0202 145.825 93.2128 139.248 95.1382C132.672 97.0636 128.616 102.993 130.189 108.381C131.762 113.77 138.369 116.577 144.945 114.652Z" fill="white"/>
<path d="M158.23 123.361C160.97 122.558 162.66 120.088 162.004 117.843C161.349 115.597 158.596 114.428 155.856 115.23C153.116 116.032 151.426 118.503 152.081 120.748C152.737 122.993 155.489 124.163 158.23 123.361Z" fill="white"/>
<path d="M213.3 73.8052C214.183 72.2746 212.675 69.7485 209.933 68.163C207.191 66.5775 204.253 66.533 203.37 68.0636C202.488 69.5942 203.995 72.1203 206.737 73.7058C209.48 75.2913 212.418 75.3358 213.3 73.8052Z" fill="white"/>
<path d="M218.99 75.7093C220.028 75.7093 220.87 74.8665 220.87 73.8268C220.87 72.7872 220.028 71.9443 218.99 71.9443C217.952 71.9443 217.11 72.7872 217.11 73.8268C217.11 74.8665 217.952 75.7093 218.99 75.7093Z" fill="white"/>
<path d="M189.479 171.905C189.573 170.681 189.948 169.552 190.324 168.422C190.512 167.858 190.794 167.293 191.076 166.728C191.452 166.163 191.734 165.693 192.204 165.128C192.674 164.657 193.05 163.999 193.52 163.528C193.99 162.963 194.742 162.681 195.494 162.587C196.34 162.493 197.092 162.587 197.843 162.963C198.125 163.057 198.501 163.246 198.877 163.622C199.629 164.469 200.005 165.787 199.535 166.822C199.253 167.575 198.689 167.952 198.501 168.14C197.092 169.175 195.87 168.328 193.802 169.364C193.52 169.552 193.144 169.74 192.486 170.211C191.64 170.776 190.7 171.529 189.854 172.187L189.479 171.905Z" fill="black"/>
<path d="M183.933 171.905C183.839 170.681 183.463 169.552 183.087 168.422C182.899 167.858 182.617 167.293 182.335 166.728C181.959 166.163 181.677 165.693 181.207 165.128C180.737 164.657 180.361 163.999 179.891 163.528C179.421 162.963 178.67 162.681 177.918 162.587C177.072 162.493 176.32 162.587 175.568 162.963C175.286 163.057 174.91 163.246 174.534 163.622C173.782 164.469 173.406 165.787 173.876 166.822C174.158 167.575 174.722 167.952 174.91 168.14C176.32 169.175 177.542 168.328 179.609 169.364C179.891 169.552 180.267 169.74 180.925 170.211C181.771 170.776 182.711 171.529 183.557 172.187L183.933 171.905Z" fill="black"/>
<path d="M97.9341 266.124C98.0281 263.865 99.062 262.171 101.224 258.97C103.949 254.829 106.957 252.57 111.468 249.37C117.202 245.134 120.115 243.063 122.465 243.816C124.063 244.287 124.063 245.228 129.232 251.534C132.804 256.052 133.274 256.147 133.555 257.464C134.213 260.947 131.394 262.453 128.668 268.853C125.473 276.289 126.976 279.96 123.781 281.937C121.337 283.443 118.329 282.596 115.04 281.654C108.367 279.489 97.7461 273.748 97.9341 266.124Z" fill="#EDB61B"/>
<path d="M115.886 321.845C113.348 320.245 109.964 318.08 106.299 314.598C103.385 311.868 98.6858 307.444 96.1482 300.385C94.6444 296.149 92.6706 288.243 95.3023 286.737C96.9001 285.796 99.0618 288.055 103.761 290.502C115.604 296.432 123.217 292.384 127.446 297.938C129.326 300.479 127.916 301.514 129.232 307.633C132.239 321.281 142.014 327.399 140.134 329.94C138.537 332.105 130.454 328.905 125.942 327.21C121.337 325.234 117.859 323.163 115.886 321.845Z" fill="#EDB61B"/>
<path d="M163.538 209.931C163.444 208.613 164.572 206.731 166.733 202.966C170.023 196.942 171.621 195.718 173.312 195.248C174.158 195.059 174.816 195.06 176.132 195.154C179.14 195.342 180.549 196.283 182.993 197.13C187.787 198.636 189.196 197.036 190.418 198.448C193.332 201.648 186.659 211.814 185.907 213.037C183.181 217.085 180.643 220.944 176.696 221.132C173.782 221.32 171.527 219.532 169.083 217.649C166.921 215.955 163.726 213.508 163.538 209.931Z" fill="#EDB61B"/>
<path d="M135.717 237.039C136.187 235.157 138.443 235.251 143.142 231.768C146.056 229.603 148.311 227.344 148.875 226.686C152.541 222.826 153.105 220.662 154.796 220.662C155.924 220.662 156.958 222.073 159.12 224.709C161.188 227.344 162.128 228.662 162.034 229.792C161.846 232.145 158.368 232.71 153.011 235.91C145.492 240.428 144.458 244.099 141.074 243.534C137.879 243.063 135.153 239.392 135.717 237.039Z" fill="#EDB61B"/>
<path d="M183.932 232.521C183.838 232.521 183.838 232.521 183.932 232.521C163.349 231.768 153.198 212.472 152.822 211.625C152.352 210.684 152.728 209.555 153.668 209.084C154.608 208.613 155.736 208.99 156.206 209.931C156.3 210.119 165.793 228.097 184.026 228.756C185.06 228.756 185.906 229.697 185.812 230.733C185.718 231.674 184.872 232.521 183.932 232.521Z" fill="black"/>
<path d="M147.183 255.299C132.333 254.641 125.19 237.792 124.908 237.133C124.532 236.192 125.002 235.063 125.942 234.686C126.882 234.31 128.01 234.78 128.386 235.721C128.48 235.91 134.965 251.064 147.277 251.629C148.311 251.629 149.157 252.57 149.063 253.605C149.063 254.452 148.217 255.299 147.183 255.299Z" fill="black"/>
<path d="M126.412 292.29C122.934 292.29 119.081 291.914 114.946 290.784C99.2496 286.455 90.9786 274.501 88.159 269.606C87.6891 268.665 87.971 267.536 88.8169 267.065C89.7568 266.594 90.8846 266.877 91.3546 267.724C93.9862 272.242 101.505 283.255 115.885 287.208C124.532 289.561 132.145 288.525 137.127 287.208C138.161 286.925 139.194 287.49 139.476 288.525C139.758 289.561 139.194 290.596 138.161 290.879C135.153 291.537 131.111 292.29 126.412 292.29Z" fill="black"/>
<path d="M186 341.612C185.906 341.612 185.812 341.612 185.812 341.612C178.575 340.764 160.247 336.999 147.277 320.528C127.446 295.302 139.006 264.335 139.57 263.112C139.946 262.17 141.074 261.7 142.014 262.076C142.954 262.453 143.424 263.582 143.048 264.524C142.578 265.747 131.675 294.737 150.191 318.269C162.315 333.611 179.421 337.188 186.188 337.941C187.222 338.035 187.974 338.976 187.88 340.011C187.786 340.859 186.94 341.612 186 341.612Z" fill="black"/>
<path d="M294.274 159.481L309.876 139.809L308.091 138.491C306.681 137.455 306.399 135.479 307.527 134.067L321.625 115.901L336.663 127.572L322.941 145.362C321.907 146.68 320.027 146.962 318.617 146.021L315.422 143.668C309.406 151.48 303.485 159.386 297.47 167.199C295.026 165.881 292.489 164.657 290.045 163.34L294.274 159.481Z" fill="white"/>
<path d="M326.324 119.572C322.471 124.466 318.617 129.267 314.67 134.161L326.324 119.572Z" fill="white"/>
<path d="M331.023 124.278C327.452 128.89 323.786 133.502 320.215 138.114L331.023 124.278Z" fill="white"/>
<path d="M338.073 125.69L323.034 114.019C322.001 113.266 320.497 113.454 319.745 114.489L305.647 132.655C304.707 133.879 304.331 135.291 304.519 136.797C304.707 138.209 305.459 139.432 306.493 140.373L292.582 157.975L288.541 161.646C287.977 162.116 287.601 162.963 287.695 163.716C287.789 164.469 288.259 165.222 288.917 165.505L296.342 169.364C296.718 169.552 297.094 169.646 297.376 169.646C298.128 169.646 298.786 169.364 299.256 168.705L315.797 146.962L317.113 147.998C319.557 149.786 322.847 149.315 324.632 146.962L338.542 128.984C339.294 127.949 339.106 126.443 338.073 125.69ZM321.061 143.95C320.779 144.327 320.309 144.327 320.027 144.138L316.737 141.785C315.703 141.126 314.388 141.315 313.542 142.256L313.448 142.35L296.718 164.281L293.992 162.869L295.778 161.269C295.872 161.175 295.966 161.081 296.06 160.987L311.568 141.409C311.944 140.938 312.132 140.279 312.038 139.62C311.944 138.962 311.568 138.397 311.098 138.02L309.312 136.703C309.124 136.514 309.03 136.326 309.03 136.138C309.03 136.044 309.03 135.761 309.218 135.573L321.907 119.195L323.692 120.607L313.542 133.408C313.072 133.973 313.166 134.914 313.73 135.385C314.012 135.573 314.294 135.667 314.576 135.667C314.952 135.667 315.421 135.479 315.703 135.102L325.854 122.302L328.862 124.655L318.993 137.361C318.523 138.02 318.617 138.867 319.275 139.338C319.557 139.526 319.839 139.62 320.121 139.62C320.497 139.62 320.967 139.432 321.249 139.056L331.117 126.349L333.279 128.043L321.061 143.95Z" fill="black"/>
<path d="M307.809 162.304C303.016 159.104 298.316 155.81 293.523 152.609C287.226 161.457 280.928 170.211 274.631 179.058C273.691 182.729 275.195 186.682 278.391 188.753C281.68 190.824 286.004 190.542 288.917 187.906C295.121 179.341 301.512 170.87 307.809 162.304Z" fill="#EDEA34"/>
<path d="M297.094 157.033C295.966 156.374 294.932 155.621 293.804 154.962C287.883 163.245 281.962 171.528 276.041 179.717C275.947 180.094 275.853 180.658 275.853 181.317C275.853 182.353 276.135 183.2 276.322 183.765C283.372 174.823 290.233 165.975 297.094 157.033Z" fill="#FFA700"/>
<path d="M303.861 161.739C304.331 162.116 304.895 162.398 305.365 162.775C299.443 171.058 293.428 179.246 287.507 187.529C286.473 187.812 285.439 188.094 284.405 188.282C290.89 179.341 297.376 170.493 303.861 161.739Z" fill="#FFF7D2"/>
<path d="M282.996 192.424C280.928 192.424 278.861 191.86 276.981 190.636C272.94 188 271.06 183.106 272.282 178.4C272.376 178.117 272.47 177.835 272.658 177.647L291.549 151.198C292.301 150.162 293.711 149.88 294.745 150.633L309.031 160.328C309.595 160.704 309.877 161.269 310.065 161.928C310.159 162.587 309.971 163.246 309.595 163.716L290.609 189.224C290.515 189.318 290.421 189.506 290.233 189.601C288.26 191.483 285.628 192.424 282.996 192.424ZM276.793 180C276.229 182.635 277.357 185.271 279.613 186.683C281.962 188.189 284.97 188 287.132 186.212L304.425 162.869L294.087 155.81L276.793 180Z" fill="black"/>
<path d="M292.488 169.081C296.06 174.635 298.691 175.388 298.221 176.894C297.282 180 285.627 181.317 281.304 176.235C280.928 175.764 279.518 174.164 279.612 171.999C279.612 170.681 280.176 169.928 282.62 166.634C286.379 161.457 286.755 161.175 287.319 161.175C289.105 161.175 289.387 164.281 292.488 169.081Z" fill="#EDB61B"/>
<path d="M290.609 181.6C286.661 181.6 282.338 180.47 279.894 177.458C278.014 175.293 277.732 173.223 277.732 171.905C277.826 170.023 278.578 168.893 281.116 165.41C285.251 159.857 285.721 159.104 287.413 159.198C289.575 159.292 290.421 161.175 291.455 163.34C292.019 164.657 292.77 166.163 293.992 168.046C295.59 170.587 297.094 172.093 298.034 173.129C299.256 174.446 300.477 175.576 299.914 177.458C299.35 179.247 297.376 180.564 294.368 181.129C293.334 181.412 292.019 181.6 290.609 181.6ZM287.413 163.434C286.661 164.375 285.251 166.258 284.218 167.669C281.868 170.87 281.586 171.34 281.586 171.999C281.586 172.94 281.962 173.976 282.808 175.011C284.875 177.364 289.011 177.929 292.019 177.741C294.368 177.552 295.778 176.894 296.248 176.517C296.06 176.329 295.778 175.952 295.496 175.764C294.368 174.635 292.77 173.035 290.891 170.117C289.575 168.046 288.729 166.258 288.071 165.034C287.883 164.469 287.601 163.904 287.413 163.434Z" fill="black"/>
<defs>
<linearGradient id="paint0_linear" x1="97.2598" y1="193.816" x2="313.761" y2="305.471" gradientUnits="userSpaceOnUse">
<stop stop-color="#FFF359"/>
<stop offset="0.1903" stop-color="#F0C145"/>
<stop offset="0.2793" stop-color="#F1C446"/>
<stop offset="0.351" stop-color="#F4CE4A"/>
<stop offset="0.4165" stop-color="#F9DF51"/>
<stop offset="0.4311" stop-color="#FAE453"/>
<stop offset="0.5025" stop-color="#F7DA4F"/>
<stop offset="0.6161" stop-color="#F0C245"/>
<stop offset="0.6705" stop-color="#F2C747"/>
<stop offset="0.738" stop-color="#F6D74D"/>
<stop offset="0.7972" stop-color="#FCEA55"/>
<stop offset="1" stop-color="#F2C948"/>
</linearGradient>
<linearGradient id="paint1_linear" x1="143.876" y1="90.7654" x2="247.725" y2="165.881" gradientUnits="userSpaceOnUse">
<stop stop-color="#FFF359"/>
<stop offset="0.1903" stop-color="#F0C145"/>
<stop offset="0.2793" stop-color="#F1C446"/>
<stop offset="0.351" stop-color="#F4CE4A"/>
<stop offset="0.4165" stop-color="#F9DF51"/>
<stop offset="0.4311" stop-color="#FAE453"/>
<stop offset="0.5025" stop-color="#F7DA4F"/>
<stop offset="0.6161" stop-color="#F0C245"/>
<stop offset="0.6705" stop-color="#F2C747"/>
<stop offset="0.738" stop-color="#F6D74D"/>
<stop offset="0.7972" stop-color="#FCEA55"/>
<stop offset="1" stop-color="#F2C948"/>
</linearGradient>
</defs>
</svg>
