<svg width="340" height="340" viewBox="0 0 340 340" fill="none" xmlns="http://www.w3.org/2000/svg">
<path d="M146.706 240.581C137.036 239.492 122.183 236.623 105.834 228.61C88.9876 220.3 77.6234 209.913 70.8447 202.691L82.3086 192.501C86.9938 196.854 92.4766 201.306 98.8565 205.659C117.398 218.223 135.74 224.257 149.298 227.225C148.4 231.677 147.603 236.129 146.706 240.581Z" fill="url(#paint0_linear)"/>
<path d="M149.596 244.34L146.407 243.944C131.753 242.263 117.597 238.107 104.339 231.578C90.7818 224.851 78.7198 215.947 68.3525 204.966L65.8604 202.394L82.4082 187.752L84.701 189.929C89.6853 194.579 95.168 198.931 100.75 202.79C115.404 212.782 131.952 219.806 149.896 223.763L153.185 224.455L149.596 244.34ZM75.8289 202.889C85 212.089 95.6664 219.707 107.33 225.445C118.893 231.182 131.155 234.942 143.815 236.722L145.111 229.797C127.566 225.543 111.317 218.421 96.763 208.528C91.679 205.065 86.7944 201.306 82.2088 197.151L75.8289 202.889Z" fill="black"/>
<path d="M187.876 242.757C197.446 240.977 212.1 237.118 227.85 227.918C243.999 218.421 254.666 207.242 260.946 199.624L248.784 190.325C244.398 194.974 239.314 199.822 233.233 204.571C215.688 218.421 197.745 225.642 184.487 229.6C185.583 233.953 186.68 238.404 187.876 242.757Z" fill="url(#paint1_linear)"/>
<path d="M185.982 246.319L180.798 226.829L183.988 225.84C201.633 220.597 217.582 212.386 231.538 201.405C236.921 197.151 242.005 192.501 246.691 187.456L248.884 185.18L266.428 198.635L264.136 201.405C254.566 213.078 243.202 222.872 230.143 230.49C217.383 237.91 203.626 243.054 189.072 245.725L185.982 246.319ZM189.272 231.479L191.066 238.305C203.626 235.634 215.589 230.984 226.654 224.455C237.918 217.827 247.987 209.517 256.46 199.723L249.582 194.48C245.295 198.931 240.71 202.987 235.825 206.846C222.168 217.728 206.517 226.038 189.272 231.479Z" fill="black"/>
<path d="M198.343 246.22C195.452 243.45 192.462 241.867 190.468 240.977L181.297 265.511C185.085 268.578 193.558 274.415 205.122 274.613C213.994 274.711 223.364 271.447 223.364 268.578C223.364 265.511 212.897 266.698 206.218 258.289C202.829 254.035 203.028 250.672 198.343 246.22Z" fill="url(#paint2_linear)"/>
<path d="M205.52 277.58C205.321 277.58 205.122 277.58 205.022 277.58C193.658 277.382 184.885 272.238 179.403 267.885L177.708 266.5L188.773 237.019L191.664 238.305C194.954 239.789 197.944 241.669 200.436 244.043C203.626 247.011 204.823 249.682 206.019 252.056C206.717 253.54 207.414 254.925 208.611 256.409C212 260.663 216.585 262.048 219.975 263.136C222.965 264.027 226.355 265.115 226.355 268.578C226.355 269.468 226.056 270.853 224.66 272.238C221.47 275.305 213.096 277.58 205.52 277.58ZM184.786 264.521C189.571 267.984 196.549 271.545 205.022 271.644C210.903 271.743 216.087 270.259 218.779 268.973C218.579 268.874 218.28 268.874 218.081 268.775C214.193 267.588 208.312 265.709 203.826 260.07C202.231 258.091 201.334 256.211 200.536 254.628C199.539 252.452 198.642 250.671 196.25 248.396C194.954 247.209 193.658 246.121 192.063 245.23L184.786 264.521Z" fill="black"/>
<path d="M204.025 231.38C207.115 238.998 206.418 246.418 206.119 248.297C205.72 251.265 204.225 260.762 196.349 268.677C185.384 279.658 170.531 278.965 167.44 278.767C154.382 278.075 137.933 270.853 132.451 256.113C129.261 247.605 130.955 239.987 131.653 236.92C134.444 225.049 143.915 211.891 159.167 208.132C179.203 203.086 198.144 216.739 204.025 231.38Z" fill="url(#paint3_radial)"/>
<path d="M169.833 281.043C169.035 281.043 168.138 281.043 167.34 280.944C152.886 280.251 135.64 272.337 129.759 256.409C126.17 246.912 128.264 238.305 128.862 235.535C131.553 223.961 141.023 208.923 158.568 204.472C180.001 199.129 200.237 213.276 206.816 229.501C210.006 237.316 209.508 244.934 209.109 247.902C208.511 252.749 206.318 262.147 198.542 270.062C191.365 277.185 181.296 281.043 169.833 281.043ZM167.64 209.319C165.147 209.319 162.556 209.616 160.063 210.209C145.111 213.969 137.036 226.929 134.743 236.821C134.145 239.493 132.45 246.418 135.441 254.233C140.425 267.588 155.677 274.316 167.739 274.909C178.406 275.404 187.876 272.139 194.355 265.709C200.935 259.081 202.729 251.166 203.227 247.011C203.526 244.538 203.925 238.108 201.333 231.578C196.449 219.806 182.592 209.319 167.64 209.319Z" fill="black"/>
<path d="M144.213 262.741C142.519 264.917 140.625 267.489 138.83 270.457C136.737 273.92 135.142 277.184 133.946 280.053C135.541 280.449 142.519 281.735 149.397 277.58C153.883 274.81 156.076 271.051 156.973 269.27C156.973 269.27 167.44 272.93 178.406 269.666C179.602 272.04 182.194 276.294 187.278 279.262C192.461 282.329 199.539 283.615 200.636 281.636C201.333 280.449 199.34 278.668 197.246 274.414C195.153 270.061 194.455 266.005 194.256 263.235C177.509 263.037 160.861 262.939 144.213 262.741Z" fill="url(#paint4_linear)"/>
<path d="M189.67 264.917C189.67 264.917 192.661 274.711 199.938 279.856C199.938 279.856 201.633 276.789 201.732 276.591C201.832 276.393 198.742 266.204 198.343 265.313C197.845 264.423 196.349 261.257 195.751 261.158C195.153 261.059 189.67 264.917 189.67 264.917Z" fill="#827B3C"/>
<path d="M146.806 265.709C146.806 265.709 143.815 275.503 136.538 280.647C136.538 280.647 134.843 277.58 134.744 277.382C134.644 277.184 137.734 266.995 138.133 266.104C138.631 265.214 140.127 262.048 140.725 261.949C141.423 262.048 146.806 265.709 146.806 265.709Z" fill="#BFD94C"/>
<path d="M139.428 285C137.534 285 135.74 284.703 134.344 284.307C131.553 283.417 130.457 281.933 130.058 280.746C128.862 277.778 130.955 275.503 132.749 273.524C134.245 271.842 136.238 269.666 137.634 266.5C139.329 262.642 139.827 258.289 139.229 253.441C139.129 252.65 139.329 251.76 139.927 251.166C140.525 250.572 141.223 250.177 142.12 250.078L195.352 247.604C196.249 247.604 197.146 247.901 197.745 248.594C198.343 249.286 198.642 250.177 198.442 251.067C197.446 256.31 197.745 261.158 199.14 265.61C200.137 268.676 201.533 271.051 202.729 273.029C204.324 275.799 206.019 278.569 204.324 281.438C201.533 286.286 192.162 285.198 186.779 282.329C181.695 279.658 179.103 275.206 177.807 272.04C170.431 273.524 163.752 272.535 160.063 271.644C158.767 274.81 156.275 278.866 151.789 281.636C147.702 284.011 143.216 285 139.428 285ZM136.139 278.569C138.232 279.262 143.815 279.361 148.3 276.591C152.487 274.019 154.282 269.666 154.979 267.291C155.179 266.5 155.777 265.808 156.475 265.511C157.172 265.115 158.07 265.115 158.867 265.313C158.967 265.313 168.736 268.578 178.705 265.709C179.502 265.511 180.3 265.61 180.997 266.005C181.695 266.401 182.194 267.094 182.393 267.885C182.792 269.468 184.486 274.612 189.371 277.184C193.259 279.262 197.545 279.163 198.741 278.569C198.542 277.976 197.844 276.888 197.346 276.096C196.15 274.019 194.455 271.249 193.259 267.489C191.863 263.136 191.365 258.586 191.863 253.738L145.41 255.915C145.609 260.663 144.811 265.016 143.117 268.973C141.322 273.029 138.93 275.7 137.235 277.58C136.837 277.778 136.438 278.273 136.139 278.569Z" fill="black"/>
<path d="M148.002 220.498C143.914 225.84 139.827 233.359 139.329 242.658C138.93 248.891 138.631 255.024 144.014 260.861C151.889 269.468 165.945 270.358 167.54 270.457C169.434 270.556 188.873 271.348 194.555 260.96C195.751 258.784 196.449 256.014 196.748 254.629C196.947 253.837 198.343 248.297 197.645 241.966C196.648 231.182 190.368 223.169 188.275 220.696C174.817 220.696 161.359 220.597 148.002 220.498Z" fill="#F3DF6F"/>
<path d="M150.394 265.412C163.154 270.062 177.21 266.203 185.085 256.212C191.564 247.901 192.86 236.525 188.574 226.533C189.87 228.017 191.564 230.292 193.06 233.359C196.947 241.372 197.944 252.353 194.056 259.377C188.075 269.666 169.035 274.513 150.394 265.412Z" fill="#F3D041"/>
<path d="M145.709 257.498C147.204 258.883 148.7 260.07 150.295 261.257C154.98 264.62 160.562 267.391 166.344 268.479C172.524 269.567 178.207 268.578 183.49 266.104C185.284 265.214 186.979 264.225 188.674 263.137C187.178 264.423 185.484 265.511 183.789 266.5C178.306 269.468 172.425 270.556 166.145 269.468C160.163 268.38 154.78 265.511 149.995 261.653C148.401 260.268 147.005 258.981 145.709 257.498Z" fill="#D1A015"/>
<path d="M144.413 249.287C150.295 253.738 159.167 257.893 168.936 259.081C178.904 260.169 186.181 257.597 194.356 252.947C186.979 258.289 177.808 261.455 168.836 260.268C159.565 259.279 149.896 254.53 144.413 249.287Z" fill="#D1A015"/>
<path d="M146.706 241.57C152.487 243.647 158.668 245.23 163.852 246.121C165.746 246.417 167.739 246.714 169.633 246.912C180.499 248 186.48 246.615 192.96 244.736C186.68 247.901 179.801 249.583 169.534 248.594C167.54 248.396 165.546 248.099 163.552 247.703C156.874 246.22 150.593 243.746 146.706 241.57Z" fill="#D1A015"/>
<path d="M151.092 235.239C155.578 233.359 162.954 231.776 171.428 231.875C178.306 231.974 185.184 233.26 191.564 236.03C184.885 234.051 178.505 232.963 171.428 232.963C164.051 232.765 156.475 233.854 151.092 235.239Z" fill="#D1A015"/>
<path d="M166.743 237.217C167.042 237.712 166.344 238.899 165.447 239.393C164.25 239.987 162.655 239.492 162.456 238.899C162.356 238.305 163.453 237.514 164.35 237.217C165.148 236.821 166.443 236.623 166.743 237.217Z" fill="#F2F7E3"/>
<path d="M183.49 240.877C183.191 241.768 181.596 242.163 180.399 241.867C180.2 241.768 178.904 241.471 178.505 240.284C178.107 239.097 178.705 237.712 179.602 237.415C181.197 236.821 183.888 239.492 183.49 240.877Z" fill="#F2F7E3"/>
<path d="M150.693 245.132C150.992 245.626 151.79 247.407 151.192 248.001C150.494 248.594 148.201 247.902 147.204 246.22C146.407 244.736 146.805 242.56 147.703 242.263C148.7 241.966 150.095 243.846 150.693 245.132Z" fill="#F2F7E3"/>
<path d="M172.126 245.23C172.624 245.626 172.525 247.011 171.727 247.308C171.229 247.506 170.531 247.308 170.232 246.912C169.933 246.319 170.531 245.428 171.229 245.23C171.428 245.132 171.827 244.934 172.126 245.23Z" fill="#F2F7E3"/>
<path d="M188.275 251.661C188.574 251.957 188.275 252.947 187.577 253.046C187.178 253.145 186.68 252.947 186.58 252.551C186.48 252.155 186.779 251.858 186.879 251.76C187.378 251.562 188.075 251.463 188.275 251.661Z" fill="#F2F7E3"/>
<path d="M172.823 260.861C173.222 261.356 172.624 262.939 171.527 263.433C170.032 264.027 168.138 262.246 168.337 261.653C168.337 261.455 168.636 261.455 170.431 261.059C172.424 260.762 172.723 260.663 172.823 260.861Z" fill="#F2F7E3"/>
<path d="M184.188 263.829C184.287 264.225 184.088 264.72 183.789 264.917C183.291 265.214 182.692 265.016 182.493 264.621C182.194 264.126 182.792 263.137 183.39 263.137C183.689 263.137 183.988 263.433 184.188 263.829Z" fill="#F2F7E3"/>
<path d="M168.836 272.831C168.138 272.831 167.44 272.831 166.842 272.733C164.25 272.634 150.793 271.446 143.117 262.543C137.534 256.112 137.933 249.484 138.332 243.054C138.83 234.941 141.721 227.126 147.005 219.706C147.304 219.311 147.702 219.113 148.201 219.113L187.178 219.311C187.577 219.311 188.075 219.509 188.275 219.805C194.654 227.324 198.243 235.733 198.841 244.241C199.14 249.583 199.539 256.211 194.256 262.543C188.873 268.973 179.103 272.831 168.836 272.831ZM148.899 222.18C144.213 228.907 141.622 236.03 141.223 243.252C140.824 249.385 140.525 255.123 145.31 260.663C152.388 268.874 165.446 269.765 166.942 269.864C177.01 270.358 186.779 266.797 191.863 260.762C196.449 255.321 196.05 249.583 195.751 244.538C195.253 236.92 192.063 229.303 186.38 222.377L148.899 222.18Z" fill="black"/>
<path d="M75.7292 186.763C97.1617 224.356 148.5 224.257 167.54 224.257C181.496 224.257 244.497 224.159 263.139 182.41C280.683 143.333 244.796 99.8043 241.307 95.5503C234.828 87.8338 213.794 65.3769 178.505 60.2325C171.727 59.2432 131.753 54.0989 100.352 81.7002C72.2402 106.433 56.1908 152.633 75.7292 186.763Z" fill="url(#paint5_linear)"/>
<path d="M68.552 153.226C70.5457 152.633 73.5363 170.638 86.1964 186.367C113.112 219.806 164.151 218.816 170.132 218.618C180.1 218.322 227.053 216.838 251.974 180.63C261.544 166.681 264.634 152.435 265.631 143.432C266.528 153.127 266.728 171.231 256.46 188.148C234.828 223.862 184.885 224.851 166.244 225.148C129.859 225.84 106.632 212.188 101.548 209.121C86.8942 200.119 80.4146 190.918 78.2215 187.555C68.0536 171.924 66.5583 153.919 68.552 153.226Z" fill="#C2D35E"/>
<path d="M151.491 102.475C141.821 84.8659 123.878 76.4569 109.722 80.7109C100.053 83.5798 94.5699 91.692 92.5762 95.1546C92.7755 98.5182 93.8721 100.892 95.0683 102.673C102.246 112.962 124.974 112.665 151.491 102.475Z" fill="#D30A05"/>
<path d="M219.078 81.2055C221.669 82.5906 227.152 87.3392 230.94 90.6038C233.931 93.176 236.323 95.4514 237.918 96.8364C237.918 96.8364 237.42 98.4193 236.921 100.2C236.124 102.574 235.426 104.355 235.426 104.355C234.13 107.719 180.599 115.534 177.509 103.959C175.017 94.4621 206.816 74.4783 219.078 81.2055Z" fill="#D30A05"/>
<path d="M118.395 183.202C144.546 183.202 165.746 162.163 165.746 136.21C165.746 110.258 144.546 89.2188 118.395 89.2188C92.2436 89.2188 71.0439 110.258 71.0439 136.21C71.0439 162.163 92.2436 183.202 118.395 183.202Z" fill="black"/>
<path d="M118.395 175.386C140.197 175.386 157.871 157.847 157.871 136.21C157.871 114.574 140.197 97.0342 118.395 97.0342C96.5933 97.0342 78.9194 114.574 78.9194 136.21C78.9194 157.847 96.5933 175.386 118.395 175.386Z" fill="white"/>
<path d="M211.302 182.509C237.563 182.509 258.852 161.382 258.852 135.32C258.852 109.258 237.563 88.1304 211.302 88.1304C185.041 88.1304 163.752 109.258 163.752 135.32C163.752 161.382 185.041 182.509 211.302 182.509Z" fill="black"/>
<path d="M211.302 174.496C233.104 174.496 250.778 156.956 250.778 135.32C250.778 113.683 233.104 96.1436 211.302 96.1436C189.5 96.1436 171.827 113.683 171.827 135.32C171.827 156.956 189.5 174.496 211.302 174.496Z" fill="white"/>
<path d="M166.543 230.787C119.89 230.787 77.2244 204.471 67.6546 180.234C61.3744 164.207 63.2684 153.523 63.3681 153.127C64.365 148.477 65.2621 145.608 67.1562 139.871C67.9536 137.595 68.8508 134.825 69.9474 131.363C72.7386 122.756 74.2339 116.523 75.2307 112.764C75.5298 111.478 75.8288 110.39 76.0282 109.697C81.9097 89.1198 115.903 58.4517 157.87 55.2859C189.869 52.8127 214.592 66.8607 229.644 79.029C246.89 92.978 257.157 108.807 258.752 115.039L258.852 115.534C259.251 117.414 260.646 123.25 263.836 130.67C264.833 133.143 265.431 134.034 265.83 134.825C266.329 135.716 266.827 136.606 267.624 138.584C267.724 138.881 270.017 144.718 270.814 151.149C270.914 151.643 272.409 163.416 267.824 176.672C261.544 194.875 222.168 229.402 169.334 230.589C168.337 230.787 167.44 230.787 166.543 230.787ZM83.704 111.874C83.5046 112.566 83.3053 113.456 83.0062 114.644C82.0094 118.502 80.4144 124.833 77.6232 133.737C76.5266 137.298 75.5298 140.068 74.832 142.344C72.9379 147.983 72.1405 150.555 71.2433 154.71C71.2433 154.71 69.748 163.713 75.131 177.365C82.7072 196.656 120.987 222.872 166.543 222.872C167.44 222.872 168.337 222.872 169.135 222.872C220.971 221.685 255.762 187.258 260.248 174.298C264.235 162.822 262.939 152.435 262.939 152.336C262.142 146.796 260.148 141.651 260.148 141.552C259.55 140.068 259.251 139.475 258.852 138.683C258.354 137.694 257.656 136.606 256.46 133.737C253.07 125.724 251.575 119.392 251.077 117.315L250.977 116.919C248.883 108.411 213.894 58.9463 158.468 63.1013C117.597 66.366 88.0902 96.5395 83.704 111.874Z" fill="black"/>
<path d="M183.546 78.9701C185.005 76.4624 182.554 72.3477 178.073 69.7798C173.591 67.2118 168.775 67.163 167.316 69.6708C165.857 72.1785 168.307 76.2932 172.789 78.8611C177.271 81.4291 182.087 81.4779 183.546 78.9701Z" fill="white"/>
<path d="M192.96 81.9969C194.667 81.9969 196.05 80.6238 196.05 78.9301C196.05 77.2363 194.667 75.8633 192.96 75.8633C191.253 75.8633 189.87 77.2363 189.87 78.9301C189.87 80.6238 191.253 81.9969 192.96 81.9969Z" fill="white"/>
<path d="M136.338 144.421C135.043 145.905 128.563 137.892 117.797 137.892C106.134 137.892 99.1556 147.092 97.76 145.608C95.866 143.729 103.642 124.734 117.199 124.734C130.258 124.833 138.133 142.542 136.338 144.421Z" fill="black"/>
<path d="M231.738 144.52C230.442 145.905 224.361 138.288 213.994 138.288C202.829 138.288 196.25 146.993 194.854 145.608C193.06 143.828 200.437 125.724 213.396 125.724C225.956 125.823 233.433 142.641 231.738 144.52Z" fill="black"/>
<path d="M201.334 194.875C200.337 193.589 198.443 193.292 197.147 194.282C190.867 198.931 173.422 202.691 167.939 204.273C161.758 206.054 152.089 205.56 137.136 194.578C137.435 193.589 137.734 192.105 137.634 190.225C137.634 188.84 137.535 187.357 136.937 187.159C136.139 186.862 133.946 188.346 133.846 190.028C133.647 196.062 128.264 197.249 127.566 197.348C125.971 197.645 124.875 199.129 125.174 200.811C125.473 202.295 126.669 203.284 128.164 203.284C128.364 203.284 128.463 203.284 128.663 203.284C130.258 202.987 132.65 202.196 134.644 200.613L134.744 200.712C140.226 204.372 151.491 210.308 166.543 210.308C167.042 210.308 167.54 210.308 168.039 210.308C183.789 209.912 195.253 203.185 200.636 199.129C202.032 198.041 202.331 196.161 201.334 194.875Z" fill="#827B3C"/>
<path d="M181.297 201.503C178.206 200.217 177.01 195.37 178.705 192.105C179.004 191.61 180.101 189.533 182.393 188.939C185.683 188.148 188.474 191.215 188.873 191.709C190.268 193.292 191.863 196.26 190.368 198.733C189.272 200.613 186.779 201.207 185.583 201.503C184.387 201.701 182.792 202.097 181.297 201.503Z" fill="#D30A05"/>
<path d="M183.091 203.284C182.294 203.284 181.496 203.185 180.798 202.888C179.104 202.196 177.808 200.712 177.11 198.733C176.213 196.359 176.313 193.49 177.509 191.314C178.904 188.643 180.798 187.752 182.194 187.356C186.281 186.466 189.571 189.83 190.169 190.522C192.163 192.798 193.558 196.359 191.863 199.228C190.468 201.701 187.577 202.394 186.181 202.69C185.185 202.987 184.188 203.284 183.091 203.284ZM183.49 190.225C183.291 190.225 182.991 190.225 182.792 190.324C181.696 190.621 180.798 191.413 180.101 192.699C179.403 194.084 179.303 196.062 179.901 197.645C180.3 198.832 181.097 199.723 181.995 200.019C183.091 200.415 184.287 200.118 185.384 199.92C186.48 199.624 188.474 199.228 189.272 197.843C190.269 196.062 188.873 193.589 187.876 192.6C187.577 192.303 185.683 190.225 183.49 190.225Z" fill="black"/>
<path d="M201.234 192.798C200.237 191.512 198.343 191.215 197.047 192.204C192.163 195.766 181.895 201.8 167.839 202.196C154.083 202.592 143.616 197.25 138.432 193.886C139.229 192.303 139.728 190.423 139.828 188.247C139.927 186.565 138.631 185.279 136.937 185.18C135.342 185.081 133.946 186.367 133.846 188.049C133.647 194.084 128.264 195.271 127.566 195.37C125.971 195.667 124.875 197.151 125.174 198.832C125.473 200.316 126.669 201.306 128.164 201.306C128.364 201.306 128.463 201.306 128.663 201.306C130.258 201.009 132.65 200.217 134.644 198.635L134.744 198.733C140.226 202.394 151.491 208.33 166.543 208.33C167.042 208.33 167.54 208.33 168.039 208.33C183.789 207.934 195.253 201.207 200.636 197.151C201.932 195.963 202.231 194.183 201.234 192.798Z" fill="black"/>
<path d="M58.2841 109.499C54.9945 124.833 65.1624 136.408 66.259 137.694C67.7543 146.598 69.3492 155.501 70.8445 164.405C75.5297 163.811 80.215 163.218 84.9999 162.624C80.0156 138.881 75.0313 115.138 70.047 91.395C67.8539 92.9779 60.5769 99.0126 58.2841 109.499Z" fill="white"/>
<path d="M70.9444 166.779C69.7482 166.779 68.6517 165.889 68.4523 164.702L63.9664 138.683C61.1752 135.419 52.7019 123.943 55.8919 108.906C58.085 98.5181 64.7639 92.0877 68.552 89.2188C69.2498 88.7241 70.1469 88.5263 70.9444 88.823C71.7419 89.1198 72.34 89.8123 72.5394 90.6038L87.4923 161.833C87.592 162.525 87.4923 163.218 87.0935 163.812C86.6948 164.405 86.0967 164.702 85.3989 164.801L71.2435 166.779C71.1438 166.779 71.0441 166.779 70.9444 166.779ZM68.552 95.946C65.5614 98.9138 62.1721 103.564 60.7765 109.994C57.7859 123.943 67.0567 134.825 68.1532 136.012C68.4523 136.408 68.6517 136.804 68.7513 137.2L72.9381 161.536L82.0096 160.349L68.552 95.946Z" fill="black"/>
<path d="M65.7607 164.504C74.1344 163.02 82.4083 161.635 90.7819 160.151C93.9718 175.584 97.0621 191.017 100.252 206.549C99.3549 212.089 94.9687 216.343 89.486 217.134C83.8039 217.926 78.2215 214.958 75.829 209.813C72.4397 194.677 69.0504 179.64 65.7607 164.504Z" fill="#EDEA34"/>
<path d="M87.492 219.806C81.6106 219.806 76.0282 216.343 73.4363 210.902C73.3366 210.704 73.3366 210.605 73.237 210.407L63.2684 164.999C63.1687 164.306 63.2684 163.614 63.6671 163.119C64.0659 162.526 64.664 162.13 65.2621 162.031L90.2832 157.678C91.5792 157.48 92.8751 158.272 93.1741 159.657L102.644 206.054C102.744 206.351 102.744 206.648 102.644 206.945C101.548 213.573 96.3641 218.619 89.7848 219.608C88.9873 219.707 88.2895 219.806 87.492 219.806ZM78.1216 209.022C80.1153 213.078 84.5015 215.354 88.9873 214.76C93.2738 214.167 96.7628 210.902 97.66 206.648L88.788 163.119L68.7511 166.582L78.1216 209.022Z" fill="black"/>
<path d="M83.2061 163.91C85.1001 163.614 86.9941 163.317 88.7885 163.02C91.779 177.563 94.6699 192.006 97.6605 206.549C97.5608 207.143 97.3614 207.934 96.9627 208.725C96.3646 210.11 95.4674 211.1 94.8693 211.693C90.9815 195.766 87.0938 179.838 83.2061 163.91Z" fill="#FFA700"/>
<path d="M71.443 166.087C70.5458 166.186 69.6486 166.384 68.7515 166.483C71.742 181.025 74.8323 195.469 77.8229 210.012C79.0191 211.001 80.2153 211.891 81.4116 212.88C78.1219 197.25 74.7326 181.619 71.443 166.087Z" fill="#FFF7D2"/>
<path d="M251.475 168.362L259.351 132.748C259.351 132.748 259.351 132.748 259.351 132.649L256.161 132.055C253.569 131.561 251.974 129.186 252.472 126.614L259.351 93.7695L286.665 99.4085L280.085 131.462C279.587 133.836 277.294 135.419 274.802 135.023L269.12 134.034C266.329 148.082 263.537 162.229 260.647 176.277C256.559 176.178 252.472 176.079 248.286 175.98C248.286 175.98 248.186 175.98 248.286 175.881L251.475 168.362Z" fill="white"/>
<path d="M267.923 95.5503C265.93 104.355 264.036 113.259 262.042 122.063L267.923 95.5503Z" fill="white"/>
<path d="M277.095 98.7163C275.301 107.026 273.606 115.435 271.812 123.745L277.095 98.7163Z" fill="white"/>
<path d="M260.646 178.849L248.285 178.552C247.488 178.552 246.69 178.057 246.192 177.464C245.694 176.771 245.694 175.881 245.993 175.089L249.083 167.571L256.36 134.627L255.662 134.528C253.768 134.231 252.173 133.143 251.077 131.56C249.98 129.978 249.581 128.098 249.98 126.218L256.858 93.3736C256.958 92.7801 257.357 92.1865 257.855 91.7908C258.453 91.3951 259.151 91.2961 259.749 91.3951L287.163 97.034C288.459 97.3308 289.356 98.6169 289.157 99.903L282.577 131.956C281.78 135.715 278.191 138.09 274.403 137.496L271.014 136.903L263.039 176.87C262.84 177.958 261.843 178.849 260.646 178.849ZM251.874 173.704L258.553 173.803L266.528 133.539C266.528 133.44 266.528 133.44 266.528 133.341C266.827 132.055 268.123 131.264 269.419 131.56L275.101 132.55C276.197 132.748 277.294 132.055 277.493 130.967L283.574 101.288L261.045 96.6383L254.665 127.109C254.566 127.702 254.665 128.197 254.964 128.691C255.263 129.186 255.762 129.483 256.36 129.582L259.55 130.175C260.248 130.274 260.846 130.67 261.245 131.264C261.643 131.857 261.743 132.55 261.643 133.143L253.768 168.857C253.768 168.956 253.768 168.956 253.768 169.055C253.768 169.154 253.668 169.252 253.668 169.252L251.874 173.704Z" fill="black"/>
<path d="M262.042 123.547C261.942 123.547 261.843 123.547 261.743 123.547C260.946 123.349 260.447 122.558 260.647 121.767L266.528 95.2534C266.727 94.462 267.525 93.9674 268.322 94.1652C269.12 94.3631 269.618 95.1545 269.419 95.9459L263.537 122.459C263.338 123.152 262.74 123.547 262.042 123.547Z" fill="black"/>
<path d="M271.811 125.229C271.711 125.229 271.612 125.229 271.512 125.229C270.715 125.031 270.216 124.24 270.316 123.448L275.599 98.4189C275.799 97.6275 276.596 97.1329 277.394 97.2318C278.191 97.4296 278.689 98.2211 278.59 99.0125L273.306 124.042C273.107 124.833 272.509 125.229 271.811 125.229Z" fill="black"/>
<path d="M271.114 163.416C262.74 162.229 254.366 161.041 245.993 159.953C243.401 175.485 240.809 191.017 238.118 206.648C239.214 212.089 243.8 216.244 249.283 216.838C254.965 217.53 260.447 214.265 262.64 209.022C265.531 193.787 268.322 178.552 271.114 163.416Z" fill="#EDEA34"/>
<path d="M253.669 163.416C251.775 163.218 249.881 162.921 247.987 162.723C245.494 177.365 243.102 191.907 240.61 206.549C240.71 207.142 241.009 207.934 241.407 208.725C242.105 210.11 243.002 211.001 243.6 211.594C246.99 195.469 250.379 179.442 253.669 163.416Z" fill="#FFA700"/>
<path d="M265.531 165.098C266.428 165.197 267.326 165.296 268.223 165.493C265.731 180.135 263.139 194.678 260.647 209.319C259.45 210.308 258.254 211.298 257.158 212.287C259.949 196.557 262.74 180.827 265.531 165.098Z" fill="#FFF7D2"/>
<path d="M250.778 219.608C250.18 219.608 249.581 219.608 249.083 219.509C242.404 218.718 237.121 213.87 235.725 207.341C235.625 207.044 235.625 206.747 235.725 206.45L243.6 159.756C243.8 158.47 245.096 157.48 246.392 157.678L271.512 161.141C272.21 161.24 272.808 161.635 273.207 162.13C273.606 162.724 273.805 163.317 273.606 164.01L265.132 209.616C265.132 209.814 265.033 209.913 264.933 210.111C262.541 215.948 256.859 219.608 250.778 219.608ZM240.709 206.747C241.706 211.001 245.295 214.068 249.581 214.562C254.067 215.057 258.454 212.584 260.248 208.528L268.223 165.79L248.086 163.02L240.709 206.747Z" fill="black"/>
<path d="M91.679 185.873C93.3736 192.105 82.4082 198.931 81.9098 199.228C78.9192 201.009 73.9349 204.076 69.8478 201.998C65.8603 200.119 65.0629 194.776 64.4647 190.72C63.9663 187.06 63.2685 182.41 66.2591 179.343C68.6516 176.771 72.2402 176.672 73.7355 176.573C77.0252 176.376 79.4176 177.563 82.4082 178.948C87.7912 181.619 90.8815 183.004 91.679 185.873Z" fill="url(#paint6_linear)"/>
<path d="M72.8385 205.955C71.3432 205.955 69.848 205.658 68.3527 204.966C62.7703 202.295 61.7734 195.568 61.0756 191.017C60.4775 187.06 59.5803 181.025 63.7671 176.771C67.1564 173.21 71.8417 173.012 73.5363 172.913C77.7231 172.715 80.8134 174.199 83.9037 175.584C89.9845 178.453 93.9719 180.333 95.1682 184.784C97.4609 193.193 86.0968 200.613 83.804 201.998C81.2121 203.482 77.125 205.955 72.8385 205.955ZM74.2341 179.838C74.1344 179.838 73.9351 179.838 73.8354 179.838C72.7388 179.937 70.2467 180.036 68.7514 181.52C66.9571 183.399 67.4555 186.961 67.9539 190.028C68.4524 193.391 69.0505 197.546 71.3432 198.733C73.8354 199.921 77.7231 197.546 80.1156 196.062C83.9037 193.787 88.9876 189.038 88.2898 186.565C87.8911 185.279 84.9005 183.795 80.8134 181.817C78.1219 180.629 76.4272 179.838 74.2341 179.838Z" fill="black"/>
<path d="M245.195 186.664C243.501 192.897 254.466 199.723 254.965 200.02C257.955 201.8 262.939 204.867 267.027 202.79C271.014 200.91 271.811 195.568 272.41 191.512C272.908 187.851 273.606 183.202 270.615 180.135C268.223 177.563 264.634 177.464 263.139 177.365C259.849 177.167 257.457 178.354 254.466 179.739C249.083 182.311 245.993 183.795 245.195 186.664Z" fill="url(#paint7_linear)"/>
<path d="M264.036 206.747C259.65 206.747 255.662 204.274 253.17 202.79C250.877 201.405 239.613 194.084 241.806 185.576C243.002 181.124 246.99 179.244 252.971 176.375C255.961 174.99 259.052 173.507 263.338 173.704C265.133 173.803 269.718 174.001 273.107 177.563C277.294 181.915 276.397 187.851 275.799 191.808C275.101 196.26 274.204 202.987 268.522 205.757C267.027 206.45 265.531 206.747 264.036 206.747ZM248.585 187.357C247.887 189.83 253.071 194.578 256.759 196.854C259.151 198.239 263.039 200.712 265.531 199.525C267.824 198.437 268.422 194.183 268.921 190.819C269.419 187.752 269.917 184.191 268.123 182.311C266.628 180.827 264.136 180.629 263.039 180.629C260.746 180.53 258.952 181.322 256.061 182.707C251.874 184.587 248.884 186.071 248.585 187.357Z" fill="black"/>
<defs>
<linearGradient id="paint0_linear" x1="121.199" y1="193.279" x2="94.8232" y2="254.369" gradientUnits="userSpaceOnUse">
<stop stop-color="#B5D94C"/>
<stop offset="0.3327" stop-color="#B3D04B"/>
<stop offset="0.8849" stop-color="#ADB649"/>
<stop offset="1" stop-color="#ACB049"/>
</linearGradient>
<linearGradient id="paint1_linear" x1="209.956" y1="193.821" x2="240.613" y2="252.914" gradientUnits="userSpaceOnUse">
<stop stop-color="#B5D94C"/>
<stop offset="0.3327" stop-color="#B3D04B"/>
<stop offset="0.8849" stop-color="#ADB649"/>
<stop offset="1" stop-color="#ACB049"/>
</linearGradient>
<linearGradient id="paint2_linear" x1="181.233" y1="257.802" x2="223.295" y2="257.802" gradientUnits="userSpaceOnUse">
<stop stop-color="#BFD94C"/>
<stop offset="0.2013" stop-color="#BDD44C"/>
<stop offset="0.4526" stop-color="#B7C44B"/>
<stop offset="0.7292" stop-color="#ADAB4A"/>
<stop offset="1" stop-color="#A08B49"/>
</linearGradient>
<radialGradient id="paint3_radial" cx="0" cy="0" r="1" gradientUnits="userSpaceOnUse" gradientTransform="translate(168.511 242.919) scale(37.0048 36.724)">
<stop stop-color="#732E12"/>
<stop offset="0.4009" stop-color="#702E13"/>
<stop offset="0.6396" stop-color="#682F16"/>
<stop offset="0.8352" stop-color="#5A311B"/>
<stop offset="1" stop-color="#473421"/>
</radialGradient>
<linearGradient id="paint4_linear" x1="166.582" y1="262.519" x2="167.542" y2="284.437" gradientUnits="userSpaceOnUse">
<stop stop-color="#BFD94C"/>
<stop offset="0.2414" stop-color="#BAD04C"/>
<stop offset="0.6416" stop-color="#AEB64A"/>
<stop offset="1" stop-color="#A09A49"/>
</linearGradient>
<linearGradient id="paint5_linear" x1="169.906" y1="51.675" x2="165.472" y2="250.89" gradientUnits="userSpaceOnUse">
<stop stop-color="#B5D94C"/>
<stop offset="0.3327" stop-color="#B3D04B"/>
<stop offset="0.8849" stop-color="#ADB649"/>
<stop offset="1" stop-color="#ACB049"/>
</linearGradient>
<linearGradient id="paint6_linear" x1="64.3522" y1="190.501" x2="91.9198" y2="187.823" gradientUnits="userSpaceOnUse">
<stop stop-color="#B5D94C"/>
<stop offset="0.3327" stop-color="#B3D04B"/>
<stop offset="0.8849" stop-color="#ADB649"/>
<stop offset="1" stop-color="#ACB049"/>
</linearGradient>
<linearGradient id="paint7_linear" x1="272.478" y1="191.242" x2="244.911" y2="188.564" gradientUnits="userSpaceOnUse">
<stop stop-color="#B5D94C"/>
<stop offset="0.3327" stop-color="#B3D04B"/>
<stop offset="0.8849" stop-color="#ADB649"/>
<stop offset="1" stop-color="#ACB049"/>
</linearGradient>
</defs>
</svg>
