<svg width="340" height="340" viewBox="0 0 340 340" fill="none" xmlns="http://www.w3.org/2000/svg">
<path d="M140 234.4C128.7 243.2 118.8 246 111.5 246.8C96.7 248.4 80.2 243.2 78.4 247.5C77.5 249.7 80.2 251.5 78.9 254.6C77.4 258.1 72.8 257.4 68.1 262.6C67.1 263.7 66.1 264.8 65.3 266.6C63.3 271 64.8 276.7 67 280.6C68.8 283.9 70.2 283.8 71.8 287.3C73.5 291.2 72.9 293.7 73.4 295.2C75.6 302 106.2 305.1 130.8 295C165.2 280.8 178.1 244.9 181.6 233.8C167.6 233.9 153.8 234.2 140 234.4Z" fill="#FF6D2F"/>
<path d="M96.5998 303.9C87.6998 303.9 80.1998 302.6 75.8998 300.6C73.1998 299.3 71.4998 297.7 70.7998 295.8C70.4998 295 70.4998 294.1 70.3998 293.2C70.2998 291.8 70.1998 290.2 69.2998 288.1C68.5998 286.6 68.0998 286 67.2998 285.2C66.4998 284.4 65.5998 283.4 64.5998 281.6C62.1998 277.2 60.4998 270.7 62.7998 265.4C63.6998 263.4 64.7998 262.1 65.9998 260.8C68.6998 257.8 71.4998 256.5 73.4998 255.6C75.3998 254.7 76.0998 254.3 76.3998 253.5C76.6998 252.8 76.5998 252.3 76.1998 251.2C75.7998 250 75.1998 248.4 75.8998 246.5C77.5998 242.4 83.2998 243 91.9998 243.8C97.5998 244.3 104.6 245 111.1 244.3C120.4 243.3 129.5 239.3 138.4 232.5L139.1 232L184.8 231.2L183.8 234.5C178.2 252.2 164 283.9 131.6 297.3C119.8 302.1 107.2 303.9 96.5998 303.9ZM80.6998 248.5C80.6998 248.8 80.8998 249.2 80.9998 249.5C81.4998 250.9 82.2998 252.9 81.0998 255.5C79.9998 258.1 77.7998 259.1 75.6998 260.1C73.8998 260.9 71.8998 261.9 69.7998 264.2C68.7998 265.3 68.0998 266.1 67.4998 267.5C65.8998 271.1 67.2998 276.1 69.0998 279.3C69.7998 280.5 70.3998 281.2 70.9998 281.9C71.8998 282.9 72.8998 283.9 73.8998 286.2C75.1998 289.2 75.3998 291.5 75.3998 293.1C75.3998 293.6 75.4998 294.2 75.4998 294.4C75.4998 294.4 75.7998 295.2 77.8998 296.2C86.1998 300 109.4 301 129.6 292.7C158.2 280.9 171.9 253.6 177.9 236.3L140.8 236.9C131.4 244 121.6 248.2 111.7 249.3C104.8 250.1 97.4998 249.4 91.5998 248.8C87.5998 248.4 82.0998 247.9 80.6998 248.5Z" fill="black"/>
<path d="M141.8 244.9C139.1 250.4 129.9 267.4 108.8 277.3C92.9997 284.7 78.3997 284.5 71.6997 284L71.1997 284.4C71.1997 284.4 74.7997 289.2 74.3997 295.3C74.4997 295.4 74.7997 295.6 74.9997 295.9C77.1997 297.8 79.6997 298.4 82.3997 298.9C87.8997 299.9 90.3997 299.9 90.3997 299.9C104.3 300.1 112.7 298.6 112.7 298.6C126 296.3 132.7 295.2 138.5 291C146.3 285.5 155.5 274 153.3 260.9C152.2 254.3 148.6 249.6 146.3 247.2C145.6 246.9 144.8 246.5 144.1 246.2C143.4 245.8 142.5 245.3 141.8 244.9Z" fill="#B74B0E"/>
<path d="M93 302.4C92.2 302.4 91.4 302.4 90.6 302.4C90.3 302.4 87.7 302.4 82.1 301.4C79.4 300.9 76.3 300.2 73.5 297.8C73.2 297.5 72.9 297.3 72.7 297.1L71.9 296.3L72 295.2C72.3 290.2 69.3 286 69.3 285.9L68 284L71.1 281.4L72.1 281.5C80.8 282.2 94.1 281.6 108 275.1C126.7 266.3 136 251.7 139.8 243.8L141 241.4L143.3 242.8C144.1 243.3 144.8 243.7 145.6 244.1C146.3 244.4 147 244.8 147.7 245.1L148.2 245.3L148.6 245.7C152.7 250.1 155.3 255.3 156.2 260.7C158.5 274.7 149.1 287 140.3 293.2C134 297.7 127.1 298.8 113.4 301.2C113.1 301.2 105.6 302.4 93 302.4ZM90.7 297.4C104.2 297.6 112.5 296.2 112.6 296.2C125.6 294 132.1 292.8 137.4 289.1C143.5 284.8 153.3 274.1 151.2 261.5C150.5 257.2 148.4 253.1 145.2 249.4C144.6 249.1 143.9 248.8 143.3 248.5C143.2 248.5 143.1 248.4 143 248.4C138.2 257.2 128.3 271 110 279.6C97 285.7 84.6 287 75.4 286.7C76.2 288.7 77 291.3 77 294.2C78.6 295.4 80.5 296 83 296.5C88.2 297.4 90.6 297.4 90.7 297.4Z" fill="black"/>
<path d="M136.182 87.1876L129.252 94.1172L136.182 101.047L143.111 94.1172L136.182 87.1876Z" fill="#6DBB2C"/>
<path d="M135.806 88.7188L130.432 94.0928L135.806 99.4667L141.18 94.0928L135.806 88.7188Z" fill="#87E937"/>
<path d="M131.6 93.5999C131.9 93.1999 132.2 92.7999 132.6 92.4999C132.9 92.0999 133.3 91.7999 133.6 91.3999C133.9 90.9999 134.3 90.6999 134.6 90.2999C134.9 89.8999 135.3 89.5999 135.7 89.2999L135.9 89.0999L136 89.2999C136.4 89.6999 136.8 90.1999 137.2 90.5999C137.6 90.9999 138 91.4999 138.4 91.9999C137.9 91.5999 137.5 91.1999 137 90.7999C136.6 90.3999 136.1 89.9999 135.7 89.5999H136C135.7 89.9999 135.3 90.2999 135 90.6999C134.6 90.9999 134.3 91.3999 133.9 91.6999C133.5 91.9999 133.2 92.3999 132.8 92.6999C132.4 92.9999 132 93.2999 131.6 93.5999Z" fill="#D0FFB2"/>
<path d="M145 241.7C142.5 245.3 139.1 251 137.2 258.6C136 263.3 135.7 267.6 135.7 270.9C135.4 271.2 129.1 275.8 122.3 273.1C121.6 272.8 116.2 270.6 115.9 266.8C115.5 262.1 123.7 260.2 130.1 251.5C133.5 246.9 135 242.3 135.9 238.9C138.9 239.9 142 240.8 145 241.7Z" fill="url(#paint0_linear)"/>
<path d="M124.5 276C125 275.6 122.5 273.7 122.3 270.7C122 266.1 127.2 263.4 131.4 258.4C134 255.2 137 250.2 138.1 242.2C137.5 242.3 137 242.5 136.6 242.7C132.8 244.5 132.1 249.6 131.9 250.5C127.1 255.3 122.4 260.1 117.6 264.9C117.4 266 117.4 267.7 118 269.6C119.4 274 123.9 276.5 124.5 276Z" fill="#C2D35E"/>
<path d="M126.3 277C124.5 277 114.8 276.7 113 270.8C111.8 266.9 114.7 264.2 118.4 260.6C121.1 258 124.6 254.7 127.8 249.8C130.2 246.2 132.2 242.2 133.6 238C134.1 236.5 135.8 235.6 137.3 236.1L146.4 238.8C147.7 239.2 148.6 240.5 148.5 241.8C148.2 247.7 147.1 253.6 145.2 259.2C143.9 263.3 142.1 267.3 140 271.1C139.8 271.4 139.6 271.7 139.4 271.9C137.3 273.7 132.9 276.9 126.6 276.9C126.4 277 126.3 277 126.3 277ZM118.7 269.2C119.2 270 122.6 271.1 126.3 271C130.4 271 133.4 268.9 134.8 267.8C136.6 264.5 138.1 261 139.3 257.5C140.7 253.1 141.7 248.6 142.1 244L138.1 242.8C136.6 246.5 134.8 250 132.6 253.3C129 258.7 125.2 262.4 122.4 265.1C120.9 266.6 119 268.4 118.7 269.2Z" fill="black"/>
<path d="M214.6 239.4C215.4 242.8 217 247.5 220.4 252C226.8 260.7 235 262.5 234.6 267.3C234.3 271.1 228.9 273.3 228.2 273.6C221.4 276.4 215.2 271.7 214.8 271.4C214.8 268.1 214.5 263.8 213.3 259.1C211.4 251.4 208 245.7 205.5 242.2C208.5 241.2 211.6 240.3 214.6 239.4Z" fill="url(#paint1_linear)"/>
<path d="M226 276.3C225.5 275.9 228 274 228.2 271C228.5 266.4 223.3 263.7 219.1 258.7C216.5 255.5 213.5 250.5 212.4 242.5C213 242.6 213.5 242.8 213.9 243C217.7 244.8 218.4 249.9 218.6 250.8C223.4 255.6 228.1 260.4 232.9 265.2C233.1 266.3 233.1 268 232.5 269.9C231.1 274.3 226.6 276.9 226 276.3Z" fill="#827B3C"/>
<path d="M224.2 277.4C224.1 277.4 224.1 277.4 224 277.4C217.7 277.3 213.3 274.2 211.2 272.4C210.9 272.2 210.7 271.9 210.6 271.6C208.5 267.8 206.7 263.8 205.4 259.7C203.6 254.1 202.5 248.2 202.1 242.3C202 240.9 202.9 239.7 204.2 239.3L213.3 236.6C214.8 236.1 216.5 237 217 238.5C218.4 242.7 220.4 246.7 222.8 250.3C226 255.1 229.4 258.4 232.2 261.1C235.8 264.6 238.7 267.4 237.6 271.3C235.8 277.1 226 277.4 224.2 277.4ZM215.6 268.2C217 269.3 220 271.4 224.1 271.4C227.8 271.5 231.3 270.3 231.7 269.6C231.4 268.8 229.5 267 228 265.5C225.2 262.8 221.4 259.1 217.8 253.7C215.6 250.4 213.8 246.9 212.3 243.2L208.3 244.4C208.7 249 209.7 253.5 211.1 257.9C212.3 261.4 213.8 264.9 215.6 268.2Z" fill="black"/>
<path d="M204.7 265.5C201.8 262.7 198.8 261.1 196.8 260.2L187.6 285C191.4 288.1 199.9 294 211.5 294.2C220.4 294.3 229.8 291 229.8 288.1C229.8 285 219.3 286.2 212.6 277.7C209.3 273.4 209.5 270.1 204.7 265.5Z" fill="url(#paint2_linear)"/>
<path d="M212 297.2C211.8 297.2 211.6 297.2 211.5 297.2C200.1 297 191.3 291.8 185.8 287.4L184 286L195.1 256.2L198 257.5C201.3 259 204.3 260.9 206.8 263.3C210 266.3 211.2 269 212.4 271.4C213.1 272.9 213.8 274.3 215 275.8C218.4 280.1 223 281.5 226.4 282.6C229.4 283.5 232.8 284.6 232.8 288.1C232.8 289 232.5 290.4 231.1 291.8C227.9 294.9 219.6 297.2 212 297.2ZM191.2 284C196 287.5 203 291.1 211.5 291.2C217.3 291.3 222.6 289.8 225.3 288.5C225.1 288.4 224.8 288.4 224.6 288.3C220.7 287.1 214.8 285.2 210.3 279.5C208.7 277.5 207.8 275.6 207 273.9C206 271.7 205.1 269.9 202.7 267.6C201.4 266.4 200.1 265.3 198.5 264.4L191.2 284Z" fill="black"/>
<path d="M210.4 250.5C213.5 258.2 212.8 265.7 212.5 267.6C212.1 270.6 210.6 280.2 202.7 288.2C191.7 299.3 176.8 298.6 173.7 298.4C160.6 297.7 144.1 290.4 138.6 275.5C135.4 266.9 137.1 259.2 137.8 256.1C140.6 244.1 150.1 230.8 165.4 227C185.6 222 204.5 235.8 210.4 250.5Z" fill="url(#paint3_radial)"/>
<path d="M176.2 300.7C175.4 300.7 174.5 300.7 173.7 300.6C159.2 299.9 141.9 291.9 136 275.8C132.4 266.2 134.5 257.5 135.1 254.7C137.8 243 147.3 227.8 164.9 223.3C186.4 217.9 206.7 232.2 213.3 248.6C216.5 256.5 216 264.2 215.6 267.2C215 272.1 212.8 281.6 205 289.6C197.7 296.8 187.6 300.7 176.2 300.7ZM174 228.2C171.5 228.2 168.9 228.5 166.4 229.1C151.4 232.9 143.3 246 141 256C140.4 258.7 138.7 265.7 141.7 273.6C146.7 287.1 162 293.9 174.1 294.5C184.8 295 194.3 291.7 200.8 285.2C207.4 278.5 209.2 270.5 209.7 266.3C210 263.8 210.4 257.3 207.8 250.7C202.8 238.8 189 228.2 174 228.2Z" fill="black"/>
<path d="M150.4 282.2C148.7 284.4 146.8 287 145 290C142.9 293.5 141.3 296.8 140.1 299.7C141.7 300.1 148.7 301.4 155.6 297.2C160.1 294.4 162.3 290.6 163.2 288.8C163.2 288.8 173.7 292.5 184.7 289.2C185.9 291.6 188.5 295.9 193.6 298.9C198.8 302 205.9 303.3 207 301.3C207.7 300.1 205.7 298.3 203.6 294C201.5 289.6 200.8 285.5 200.6 282.7C183.9 282.6 167.2 282.4 150.4 282.2Z" fill="url(#paint4_linear)"/>
<path d="M196.1 284.4C196.1 284.4 199.1 294.3 206.4 299.5C206.4 299.5 208.1 296.4 208.2 296.2C208.3 296 205.2 285.7 204.8 284.8C204.4 283.9 202.8 280.7 202.2 280.6C201.6 280.5 196.1 284.4 196.1 284.4Z" fill="#827B3C"/>
<path d="M153.1 285.3C153.1 285.3 150.1 295.2 142.8 300.4C142.8 300.4 141.1 297.3 141 297.1C140.9 296.9 144 286.6 144.4 285.7C144.8 284.8 146.4 281.6 147 281.5C147.7 281.5 153.1 285.3 153.1 285.3Z" fill="#BFD94C"/>
<path d="M145.7 304.7C143.8 304.7 142 304.4 140.6 304C137.8 303.1 136.7 301.6 136.3 300.4C135.1 297.4 137.2 295.1 139 293.1C140.5 291.4 142.5 289.2 143.9 286C145.6 282.1 146.1 277.7 145.5 272.8C145.4 272 145.6 271.1 146.2 270.5C146.7 269.9 147.5 269.5 148.4 269.4L201.8 266.9C202.7 266.9 203.6 267.2 204.2 267.9C204.8 268.6 205.1 269.5 204.9 270.4C203.9 275.7 204.2 280.6 205.6 285.1C206.6 288.2 208 290.6 209.2 292.6C210.8 295.4 212.5 298.2 210.8 301.1C208 306 198.6 304.9 193.2 302C188.1 299.3 185.5 294.8 184.2 291.6C176.8 293.1 170.1 292.1 166.4 291.2C165.1 294.4 162.6 298.5 158.1 301.3C154 303.7 149.5 304.7 145.7 304.7ZM142.4 298.3C144.5 299 150.1 299.1 154.6 296.3C158.8 293.7 160.6 289.3 161.3 286.9C161.5 286.1 162.1 285.4 162.8 285.1C163.5 284.8 164.4 284.7 165.2 284.9C165.3 284.9 175.1 288.2 185.1 285.3C185.9 285.1 186.7 285.2 187.4 285.6C188.1 286 188.6 286.7 188.8 287.5C189.2 289.1 190.9 294.3 195.8 296.9C199.7 299 204 298.9 205.2 298.3C205 297.7 204.3 296.6 203.8 295.8C202.6 293.7 200.9 290.9 199.7 287.1C198.3 282.7 197.8 278.1 198.3 273.2L151.7 275.4C151.9 280.2 151.1 284.6 149.4 288.6C147.6 292.7 145.2 295.4 143.5 297.3C143.1 297.5 142.7 297.9 142.4 298.3Z" fill="black"/>
<path d="M154.2 239.6C150.1 245 146 252.6 145.5 262C145.1 268.3 144.8 274.5 150.2 280.4C158.1 289.1 172.2 290 173.8 290.1C175.7 290.2 195.2 291 200.9 280.5C202.1 278.3 202.8 275.5 203.1 274.1C203.3 273.3 204.7 267.7 204 261.3C203 250.4 196.7 242.3 194.6 239.8C181.2 239.8 167.7 239.7 154.2 239.6Z" fill="#F3DF6F"/>
<path d="M156.8 285C169.5 289.6 183.6 285.7 191.4 275.7C197.9 267.3 199.2 255.8 194.9 245.7C196.2 247.2 197.9 249.5 199.4 252.6C203.3 260.8 204.5 272.5 200 279.9C193.7 290.2 174.7 294.6 156.8 285Z" fill="#F3D041"/>
<path d="M151.9 276.9C153.4 278.3 154.9 279.5 156.5 280.7C161.2 284.1 166.8 286.9 172.6 288C178.8 289.1 184.5 288.1 189.8 285.6C191.6 284.7 193.3 283.7 195 282.6C193.5 283.9 191.8 285 190.1 286C184.6 289 178.7 290.1 172.4 289C166.4 287.9 161 285 156.2 281.1C154.7 279.8 153.2 278.4 151.9 276.9Z" fill="#D1A015"/>
<path d="M150.7 268.7C156.6 273.2 165.5 277.4 175.3 278.6C185.3 279.7 192.6 277.1 200.8 272.4C193.4 277.8 184.2 281 175.2 279.8C165.8 278.8 156.2 273.9 150.7 268.7Z" fill="#D1A015"/>
<path d="M153 260.8C158.8 262.9 165 264.5 170.2 265.4C172.1 265.7 174.1 266 176 266.2C186.9 267.3 192.9 265.9 199.4 264C193.1 267.2 186.2 268.9 175.9 267.9C173.9 267.7 171.9 267.4 169.9 267C163.2 265.6 156.8 263 153 260.8Z" fill="#D1A015"/>
<path d="M157.4 254.5C161.9 252.6 169.3 251 177.8 251.1C184.7 251.2 191.6 252.5 198 255.3C191.3 253.3 184.9 252.2 177.8 252.2C170.3 251.9 162.7 253 157.4 254.5Z" fill="#D1A015"/>
<path d="M173.1 256.4C173.4 256.9 172.7 258.1 171.8 258.6C170.6 259.2 169 258.7 168.8 258.1C168.7 257.5 169.8 256.7 170.7 256.4C171.4 256.1 172.8 255.9 173.1 256.4Z" fill="#F2F7E3"/>
<path d="M189.8 260.1C189.5 261 187.9 261.4 186.7 261.1C186.5 261 185.2 260.7 184.8 259.5C184.4 258.3 185 256.9 185.9 256.6C187.6 256 190.3 258.8 189.8 260.1Z" fill="#F2F7E3"/>
<path d="M157 264.5C157.3 265 158.1 266.8 157.5 267.4C156.8 268 154.5 267.3 153.5 265.6C152.7 264.1 153.1 261.9 154 261.6C155 261.2 156.4 263.2 157 264.5Z" fill="#F2F7E3"/>
<path d="M178.5 264.5C179 264.9 178.9 266.3 178.1 266.6C177.6 266.8 176.9 266.6 176.6 266.2C176.3 265.6 176.9 264.7 177.6 264.5C177.7 264.4 178.2 264.3 178.5 264.5Z" fill="#F2F7E3"/>
<path d="M194.7 271.1C195 271.4 194.7 272.4 194 272.5C193.6 272.6 193.1 272.4 193 272C192.9 271.6 193.2 271.3 193.3 271.2C193.7 270.9 194.5 270.8 194.7 271.1Z" fill="#F2F7E3"/>
<path d="M179.2 280.3C179.6 280.8 179 282.4 177.9 282.9C176.4 283.5 174.5 281.7 174.7 281.1C174.7 280.9 175 280.9 176.8 280.5C178.8 280.2 179.1 280.1 179.2 280.3Z" fill="#F2F7E3"/>
<path d="M190.5 283.3C190.6 283.7 190.4 284.2 190.1 284.4C189.6 284.7 189 284.5 188.8 284.1C188.5 283.6 189.1 282.6 189.7 282.6C190.1 282.7 190.4 283 190.5 283.3Z" fill="#F2F7E3"/>
<path d="M175.2 292.5C174.5 292.5 173.8 292.5 173.2 292.4C170.6 292.3 157.1 291.1 149.4 282.1C143.8 275.6 144.2 268.6 144.6 262.4C145.1 254.2 148 246.3 153.3 238.8C153.6 238.4 154 238.2 154.5 238.2L193.6 238.4C194 238.4 194.5 238.6 194.7 238.9C201.1 246.5 204.7 255 205.3 263.6C205.6 269 206 275.7 200.7 282.1C195.3 288.5 185.4 292.5 175.2 292.5ZM155.2 241.2C150.5 248 147.9 255.2 147.5 262.5C147.1 268.7 146.8 274.5 151.6 280.1C158.7 288.4 171.8 289.3 173.3 289.4C183.4 289.9 193.2 286.3 198.3 280.2C202.9 274.7 202.5 268.9 202.2 263.8C201.7 256.1 198.5 248.4 192.8 241.4L155.2 241.2Z" fill="black"/>
<path d="M81.7998 205.4C102 241 149.4 242.5 173.9 243.3C186.6 243.7 224.3 244.4 253.7 219.5C259.7 214.4 265.5 209.6 269.8 201C284.7 171.5 264.7 133.2 247.9 113.2C241.4 105.4 220.3 82.6999 184.9 77.4999C178.1 76.4999 138 71.2999 106.5 99.1999C78.2998 124.2 62.1998 170.9 81.7998 205.4Z" fill="url(#paint5_linear)"/>
<path d="M74.4998 171.6C76.4998 171 79.4998 189.2 92.1998 205.1C119.2 238.9 170.4 237.9 176.4 237.7C186.4 237.4 233.5 235.9 258.5 199.3C268.1 185.2 271.2 170.8 272.2 161.7C273.1 171.5 273.3 189.8 263 206.9C241.3 243 191.2 244 172.5 244.3C136 245 112.7 231.2 107.6 228.1C92.8998 219 86.3998 209.7 84.1998 206.3C74.0998 190.4 72.5998 172.2 74.4998 171.6Z" fill="#C2D35E"/>
<path d="M169.3 231.2C163.4 231.2 155.1 230.5 145.8 227.1C139.3 224.7 133.1 221.3 127.6 217C126.3 216 126.1 214.1 127.1 212.8C128.1 211.5 130 211.3 131.3 212.3C136.4 216.2 141.9 219.3 147.9 221.5C159.9 225.9 170.1 225.3 175 225C186.6 224.3 195.1 221.1 199.7 219.3C205.1 217.2 210.4 214.6 215.4 211.6C216.8 210.7 218.7 211.2 219.5 212.6C220.3 214 219.9 215.9 218.5 216.7C213.2 219.9 207.6 222.7 201.8 224.9C196.9 226.8 187.8 230.2 175.3 231C173.8 231 171.7 231.2 169.3 231.2Z" fill="#827B3C"/>
<path d="M156.9 118.7C147.2 100.9 129.2 92.3999 115 96.6999C105.3 99.5999 99.7998 107.8 97.7998 111.3C97.9998 114.7 99.0998 117.1 100.3 118.9C107.5 129.4 130.3 129.1 156.9 118.7Z" fill="#D30A05"/>
<path d="M229.7 97.2999C232.3 98.6999 237.8 103.5 241.6 106.8C244.6 109.4 247 111.7 248.6 113.1C248.6 113.1 248.1 114.7 247.6 116.5C246.8 118.9 246.1 120.7 246.1 120.7C244.8 124.1 191.1 132 188 120.3C185.5 110.7 217.5 90.3999 229.7 97.2999Z" fill="#D30A05"/>
<path d="M168.9 228.2C163 228.2 154.7 227.5 145.4 224.1C138.9 221.7 132.7 218.3 127.2 214C125.9 213 125.7 211.1 126.7 209.8C127.7 208.5 129.6 208.3 130.9 209.3C136 213.2 141.5 216.3 147.5 218.5C159.5 222.9 169.7 222.3 174.6 222C186.2 221.3 194.7 218.1 199.3 216.3C204.7 214.2 210 211.6 215 208.6C216.4 207.7 218.3 208.2 219.1 209.6C220 211 219.5 212.9 218.1 213.7C212.8 216.9 207.2 219.7 201.4 221.9C196.5 223.8 187.4 227.2 174.9 228C173.4 228 171.4 228.2 168.9 228.2Z" fill="black"/>
<path d="M124.5 201.8C150.734 201.8 172 180.534 172 154.3C172 128.067 150.734 106.8 124.5 106.8C98.2665 106.8 77 128.067 77 154.3C77 180.534 98.2665 201.8 124.5 201.8Z" fill="black"/>
<path d="M163.966 157.565C165.77 135.769 149.563 116.638 127.767 114.834C105.971 113.03 86.8396 129.237 85.0358 151.033C83.2319 172.829 99.4388 191.961 121.235 193.765C143.031 195.568 162.163 179.362 163.966 157.565Z" fill="white"/>
<path d="M124.5 187.8C143.002 187.8 158 172.802 158 154.3C158 135.799 143.002 120.8 124.5 120.8C105.998 120.8 91 135.799 91 154.3C91 172.802 105.998 187.8 124.5 187.8Z" fill="black"/>
<path d="M121.132 154.793C129.296 152.406 134.33 145.057 132.378 138.378C130.425 131.699 122.224 128.219 114.061 130.606C105.898 132.992 100.863 140.341 102.816 147.02C104.768 153.7 112.969 157.179 121.132 154.793Z" fill="white"/>
<path d="M137.655 165.59C141.048 164.598 143.145 161.56 142.339 158.803C141.533 156.047 138.129 154.616 134.737 155.608C131.344 156.6 129.248 159.639 130.053 162.395C130.859 165.151 134.263 166.582 137.655 165.59Z" fill="white"/>
<path d="M217.8 202.1C244.144 202.1 265.5 180.744 265.5 154.4C265.5 128.056 244.144 106.7 217.8 106.7C191.456 106.7 170.1 128.056 170.1 154.4C170.1 180.744 191.456 202.1 217.8 202.1Z" fill="black"/>
<path d="M217.8 194C239.67 194 257.4 176.271 257.4 154.4C257.4 132.53 239.67 114.8 217.8 114.8C195.929 114.8 178.2 132.53 178.2 154.4C178.2 176.271 195.929 194 217.8 194Z" fill="white"/>
<path d="M217.8 186.9C236.301 186.9 251.3 171.901 251.3 153.4C251.3 134.898 236.301 119.9 217.8 119.9C199.298 119.9 184.3 134.898 184.3 153.4C184.3 171.901 199.298 186.9 217.8 186.9Z" fill="black"/>
<path d="M214.435 154.893C222.598 152.506 227.633 145.157 225.68 138.478C223.727 131.799 215.527 128.319 207.363 130.706C199.2 133.092 194.165 140.441 196.118 147.12C198.071 153.799 206.271 157.279 214.435 154.893Z" fill="white"/>
<path d="M230.957 165.69C234.35 164.698 236.447 161.66 235.641 158.903C234.835 156.147 231.432 154.716 228.039 155.708C224.647 156.7 222.55 159.738 223.356 162.495C224.161 165.251 227.565 166.682 230.957 165.69Z" fill="white"/>
<path d="M172.8 249.9C126 249.9 83.1998 223.3 73.5998 198.8C67.2998 182.7 69.1998 171.8 69.2998 171.4C70.2998 166.7 71.1998 163.8 73.0998 158C73.8998 155.7 74.7998 152.9 75.8998 149.4C78.6998 140.7 80.1998 134.4 81.1998 130.6C81.4998 129.3 81.7998 128.2 81.9998 127.5C87.8998 106.7 122 75.7 164.1 72.5C196.2 70 221 84.2 236.1 96.5C253.4 110.6 263.7 126.6 265.3 132.9L265.4 133.4C265.8 135.3 267.2 141.2 270.4 148.7C271.4 151.2 272 152.1 272.4 152.9C272.9 153.8 273.4 154.7 274.2 156.7C274.3 156.9 276.6 162.9 277.4 169.4C277.5 169.9 279 181.8 274.4 195.2C268.1 213.6 228.6 248.5 175.6 249.7C174.7 249.9 173.8 249.9 172.8 249.9ZM89.7998 129.7C89.5998 130.4 89.3998 131.3 89.0998 132.5C88.0998 136.4 86.4998 142.8 83.6998 151.8C82.5998 155.4 81.5998 158.2 80.8998 160.5C78.9998 166.2 78.1998 168.8 77.2998 173C77.2998 173 75.7998 182.1 81.1998 195.9C88.7998 215.4 127.2 241.9 172.9 241.9C173.8 241.9 174.7 241.9 175.5 241.9C227.5 240.7 262.4 205.9 266.9 192.8C270.9 181.1 269.6 170.7 269.6 170.6C268.8 165.1 266.8 159.8 266.8 159.7C266.2 158.2 265.9 157.6 265.5 156.8C265 155.8 264.3 154.7 263.1 151.8C259.7 143.7 258.2 137.3 257.7 135.2L257.6 134.8C255.5 126.2 220.4 76.2 164.8 80.4C123.8 83.7 94.1998 114.2 89.7998 129.7Z" fill="black"/>
<path d="M199.3 99.5C201.012 99.5 202.4 98.1121 202.4 96.4C202.4 94.688 201.012 93.3 199.3 93.3C197.588 93.3 196.2 94.688 196.2 96.4C196.2 98.1121 197.588 99.5 199.3 99.5Z" fill="white"/>
<path d="M189.547 90.6355C190.927 88.2441 188.635 84.3356 184.426 81.9055C180.217 79.4755 175.686 79.4441 174.305 81.8355C172.924 84.2269 175.217 88.1355 179.426 90.5655C183.635 92.9956 188.166 93.0269 189.547 90.6355Z" fill="white"/>
<path d="M246 32.0999L242.9 96.3999C242.8 99.3999 240.3 101.7 237.4 101.7C217.9 104.5 195.3 106.4 170.1 106.4C145.9 106.3 124.1 104.4 105.2 101.7C104.8 101.7 102.9 101.7 101.4 100.2C100.4 99.2999 99.7996 97.8999 99.6996 96.4999L96.5996 32.1999C96.5996 32.1999 101.3 45.8999 108 56.7999C112.4 64.0999 117.7 70.0999 123 69.8999C130.2 69.6999 136.6 57.9999 140.9 47.6999C144.3 39.4999 146.4 32.0999 146.4 32.0999C146.4 32.0999 158.3 69.8999 171.3 69.8999C184.4 69.8999 196.2 32.0999 196.2 32.0999C196.2 32.0999 198.3 39.3999 201.7 47.6999C206 57.9999 212.5 69.6999 219.6 69.8999C225.1 69.9999 229.4 63.9999 234.6 56.7999C241.4 47.0999 244.5 37.8999 246 32.0999Z" fill="#FFF243"/>
<path d="M150.1 30.2C150.1 32.2 148.4 33.9 146.4 33.9C146.2 33.9 146.1 33.9 145.9 33.9C144.1 33.7 142.6 32.1 142.6 30.2C142.6 28.3 144 26.7 145.9 26.5C146 26.5 146.2 26.5 146.4 26.5C148.4 26.5 150.1 28.2 150.1 30.2Z" fill="#4DB844"/>
<path d="M149.2 30.2C149.2 32.1 147.8 33.7 145.9 33.9C144.1 33.7 142.6 32.1 142.6 30.2C142.6 28.3 144 26.7 145.9 26.5C147.7 26.8 149.2 28.3 149.2 30.2Z" fill="#4DB844"/>
<path d="M199.9 30.2C199.9 32.2 198.2 33.9 196.2 33.9C196 33.9 195.9 33.9 195.7 33.9C193.9 33.7 192.4 32.1 192.4 30.2C192.4 28.3 193.8 26.7 195.7 26.5C195.8 26.5 196 26.5 196.2 26.5C198.2 26.5 199.9 28.2 199.9 30.2Z" fill="#4DB844"/>
<path d="M199 30.2C199 32.1 197.6 33.7 195.7 33.9C193.9 33.7 192.4 32.1 192.4 30.2C192.4 28.3 193.8 26.7 195.7 26.5C197.6 26.8 199 28.3 199 30.2Z" fill="#4DB844"/>
<path d="M248.5 30.4C248.3 32.4 247.2 34 245.9 33.9C245.8 33.9 245.7 33.9 245.6 33.8C244.5 33.5 243.8 31.9 243.9 30C244.1 28.1 245.1 26.6 246.2 26.5C246.3 26.5 246.4 26.5 246.5 26.5C247.8 26.6 248.7 28.4 248.5 30.4Z" fill="#4DB844"/>
<path d="M248 30.4001C247.8 32.3001 246.8 33.8001 245.7 33.9001C244.6 33.6001 243.9 32.0001 244 30.1001C244.2 28.2001 245.2 26.7001 246.3 26.6001C247.4 26.9001 248.1 28.5001 248 30.4001Z" fill="#4DB844"/>
<path d="M98.7001 29.9998C98.9001 31.9998 98.1001 33.7998 96.9001 33.8998C96.8001 33.8998 96.7001 33.8998 96.6001 33.8998C95.5001 33.7998 94.4001 32.3998 94.2001 30.4998C94.0001 28.5998 94.7001 26.9998 95.8001 26.5998C95.9001 26.5998 96.0001 26.5998 96.1001 26.4998C97.3001 26.3998 98.5001 27.8998 98.7001 29.9998Z" fill="#4DB844"/>
<path d="M98.2001 29.9999C98.4001 31.8999 97.7001 33.4999 96.6001 33.8999C95.5001 33.7999 94.4001 32.3999 94.2001 30.4999C94.0001 28.5999 94.7001 26.9999 95.8001 26.5999C96.9001 26.6999 98.0001 28.0999 98.2001 29.9999Z" fill="#4DB844"/>
<path d="M153.4 73.4C153.4 78.8 150.2 83.0999 146.3 83.0999C142.4 83.0999 139.2 78.7 139.2 73.4C139.2 68.1 142.4 63.7 146.3 63.7C150.3 63.7 153.4 68.1 153.4 73.4Z" fill="#FF3A2F"/>
<path d="M203.3 73.4C203.3 78.8 200.1 83.0999 196.2 83.0999C192.3 83.0999 189.1 78.7 189.1 73.4C189.1 68.1 192.3 63.7 196.2 63.7C200.1 63.7 203.3 68.1 203.3 73.4Z" fill="#FF3A2F"/>
<path d="M246.751 75.8733C246.964 71.4604 245.705 67.8139 243.94 67.7288C242.175 67.6436 240.571 71.152 240.359 75.565C240.146 79.978 241.404 83.6244 243.169 83.7096C244.934 83.7947 246.538 80.2863 246.751 75.8733Z" fill="#FF3A2F"/>
<path d="M246.8 75.9C246.6 80.3 245 83.8 243.3 83.7C243.3 83.7 245.3 82.2 245.6 75.8C245.9 69.1 244.1 67.7 244.1 67.7C245.7 67.8 247 71.5 246.8 75.9Z" fill="#B60100"/>
<path d="M102.9 75.3998C103.3 79.7998 102.2 83.4998 100.4 83.5998C98.6996 83.6998 96.8996 80.2998 96.5996 75.8998C96.1996 71.4998 97.2996 67.7998 99.0996 67.6998C100.8 67.5998 102.5 71.0998 102.9 75.3998Z" fill="#FF3A2F"/>
<path d="M178.3 87.5999C175.9 87.5999 174 85.6999 174 83.2999C174 81.2999 175.6 79.6999 177.6 79.6999C179.3 79.6999 180.6 80.9999 180.6 82.6999C180.6 83.0999 180.3 83.3999 179.9 83.3999C179.5 83.3999 179.2 83.0999 179.2 82.6999C179.2 81.7999 178.5 81.0999 177.6 81.0999C176.4 81.0999 175.5 82.0999 175.5 83.1999C175.5 84.7999 176.8 85.9999 178.3 85.9999C180.4 85.9999 182 84.2999 182 82.2999C182 79.5999 179.8 77.3999 177.1 77.3999C174.8 77.3999 173.1 78.7999 172 81.6999C170.9 84.4999 169.3 87.3999 165.3 87.3999C161.8 87.3999 159 84.5999 159 81.0999C159 78.1999 161.3 75.8999 164.2 75.8999C166.6 75.8999 168.5 77.7999 168.5 80.1999C168.5 82.1999 166.9 83.7999 164.9 83.7999C163.2 83.7999 161.9 82.4999 161.9 80.7999C161.9 80.3999 162.2 80.0999 162.6 80.0999C163 80.0999 163.3 80.3999 163.3 80.7999C163.3 81.6999 164 82.3999 164.9 82.3999C166.1 82.3999 167 81.3999 167 80.2999C167 78.6999 165.7 77.4999 164.2 77.4999C162.1 77.4999 160.5 79.1999 160.5 81.1999C160.5 83.8999 162.7 86.0999 165.4 86.0999C168.3 86.0999 169.7 84.1999 170.8 81.2999C172.1 77.7999 174.3 76.0999 177.3 76.0999C180.8 76.0999 183.6 78.8999 183.6 82.3999C183.5 85.1999 181.2 87.5999 178.3 87.5999Z" fill="white"/>
<path d="M128.2 87.5999C125.8 87.5999 123.9 85.6999 123.9 83.2999C123.9 81.2999 125.5 79.6999 127.5 79.6999C129.2 79.6999 130.5 80.9999 130.5 82.6999C130.5 83.0999 130.2 83.3999 129.8 83.3999C129.4 83.3999 129.1 83.0999 129.1 82.6999C129.1 81.7999 128.4 81.0999 127.5 81.0999C126.3 81.0999 125.4 82.0999 125.4 83.1999C125.4 84.7999 126.7 85.9999 128.2 85.9999C130.3 85.9999 131.9 84.2999 131.9 82.2999C131.9 79.5999 129.7 77.3999 127 77.3999C124.7 77.3999 123 78.7999 121.9 81.6999C120.8 84.4999 119.2 87.3999 115.2 87.3999C111.7 87.3999 108.9 84.5999 108.9 81.0999C108.9 78.1999 111.2 75.8999 114.1 75.8999C116.5 75.8999 118.4 77.7999 118.4 80.1999C118.4 82.1999 116.8 83.7999 114.8 83.7999C113.1 83.7999 111.8 82.4999 111.8 80.7999C111.8 80.3999 112.1 80.0999 112.5 80.0999C112.9 80.0999 113.2 80.3999 113.2 80.7999C113.2 81.6999 113.9 82.3999 114.8 82.3999C116 82.3999 116.9 81.3999 116.9 80.2999C116.9 78.6999 115.6 77.4999 114.1 77.4999C112 77.4999 110.4 79.1999 110.4 81.1999C110.4 83.8999 112.6 86.0999 115.3 86.0999C118.2 86.0999 119.6 84.1999 120.7 81.2999C122 77.7999 124.2 76.0999 127.2 76.0999C130.7 76.0999 133.5 78.8999 133.5 82.3999C133.4 85.1999 131 87.5999 128.2 87.5999Z" fill="white"/>
<path d="M215.9 86.1C216.8 86.1 217.6 85.9 218.3 85.6C218 86.2 217.7 86.8 217.4 87.4C217 87.5 216.5 87.5 216 87.5C212.5 87.5 209.7 84.7 209.7 81.2C209.7 78.3 212 76 214.9 76C217.3 76 219.2 77.9 219.2 80.3C219.2 82.3 217.6 83.9 215.6 83.9C213.9 83.9 212.6 82.5 212.6 80.9C212.6 80.5 212.9 80.2 213.3 80.2C213.7 80.2 214 80.5 214 80.9C214 81.8 214.7 82.5 215.6 82.5C216.8 82.5 217.7 81.5 217.7 80.4C217.7 78.8 216.4 77.6 214.9 77.6C212.8 77.6 211.2 79.3 211.2 81.3C211.1 83.9 213.2 86.1 215.9 86.1Z" fill="white"/>
<path d="M234.1 82.4C234.1 85.3 231.8 87.6 228.9 87.6C226.5 87.6 224.6 85.7 224.6 83.3C224.6 81.3 226.2 79.7 228.2 79.7C229.9 79.7 231.2 81.1 231.2 82.7C231.2 83.1 230.9 83.4 230.5 83.4C230.1 83.4 229.8 83.1 229.8 82.7C229.8 81.8 229.1 81.1 228.2 81.1C227 81.1 226.1 82.1 226.1 83.2C226.1 84.8 227.4 86 228.9 86C231 86 232.6 84.3 232.6 82.3C232.6 79.6 230.4 77.4 227.7 77.4C225.3 77.4 223.7 78.8 222.6 81.7C221.7 84.2 220.3 86.7 217.3 87.3C217.6 86.7 217.9 86.1 218.2 85.5C219.6 84.7 220.5 83.2 221.2 81.2C222.5 77.7 224.7 76 227.7 76C231.3 76.1 234.1 78.9 234.1 82.4Z" fill="white"/>
<path d="M242.6 91.8C220.8 93.1 197.8 93.9 173.7 94C147 94.1 121.5 93.3 97.5996 91.8C97.7996 92.8 97.9996 93.8 98.1996 94.8C121.9 96.2 147.1 97 173.5 97C197.5 96.9 220.4 96.1 242.1 94.8C242.2 93.8 242.4 92.8 242.6 91.8Z" fill="white"/>
<path d="M235.5 87.6L231.4 91.7C230.6 92.5 230.6 93.8 231.4 94.6L235.5 98.7C236.3 99.5 237.6 99.5 238.4 98.7L242.5 94.6C243.3 93.8 243.3 92.5 242.5 91.7L238.4 87.6C237.6 86.8 236.3 86.8 235.5 87.6Z" fill="#4DB844"/>
<path d="M104.1 87.6L99.9999 91.7C99.1999 92.5 99.1999 93.8 99.9999 94.5L104.1 98.6C104.9 99.4 106.2 99.4 106.9 98.6L111 94.5C111.8 93.7 111.8 92.4 111 91.7L106.9 87.6C106.2 86.8 104.9 86.8 104.1 87.6Z" fill="#4DB844"/>
<path d="M171.1 108.3C149 108.3 126.7 106.8 104.8 103.9C104.5 103.9 104.3 103.9 104 103.8H103.8C103.5 103.8 103.3 103.7 103 103.6H102.9C99.6996 102.7 97.4996 99.9999 97.2996 96.6999L96.6996 83.8999C95.4996 82.1999 94.5996 79.4999 94.2996 76.3999C93.9996 73.4999 94.3996 69.7999 95.8996 67.6999L94.2996 35.4999C92.9996 34.5999 92.0996 32.9999 91.8996 30.9999C91.5996 28.0999 92.7996 25.5999 94.8996 24.9999C95.0996 24.8999 95.2996 24.8999 95.5996 24.8999C96.8996 24.7999 98.1996 25.3999 99.0996 26.5999C99.7996 27.4999 100.3 28.7999 100.5 30.0999C100.7 31.9999 100.2 33.6999 99.2996 34.8999C101.1 39.4999 104.8 48.4999 109.4 55.9999C114.3 64.0999 118.9 68.2999 122.7 68.1999C127.5 68.0999 133.2 60.5999 138.8 47.1999C140.7 42.5999 142.2 38.1999 143.1 35.3999C141.5 34.3999 140.5 32.5999 140.5 30.5999C140.5 27.6999 142.7 25.2999 145.5 24.8999C145.7 24.8999 146 24.8999 146.2 24.8999C149.3 24.8999 151.9 27.4999 151.9 30.5999C151.9 32.5999 150.8 34.3999 149.2 35.3999C154.7 50.8999 163.4 68.1999 171 68.1999C178.6 68.1999 187.3 50.8999 192.8 35.2999C191.2 34.2999 190.2 32.4999 190.2 30.5999C190.2 27.6999 192.4 25.2999 195.2 24.8999C195.4 24.8999 195.7 24.8999 195.9 24.8999C199 24.8999 201.6 27.4999 201.6 30.5999C201.6 32.5999 200.5 34.4999 198.8 35.4999C199.7 38.3999 201.2 42.6999 203.1 47.2999C208.7 60.6999 214.4 68.1999 219.2 68.2999C220.3 68.2999 221.5 67.8999 222.8 67.1999L223.1 66.9999C223.3 66.8999 223.6 66.6999 223.8 66.4999L224 66.2999C224.2 66.1999 224.4 65.9999 224.5 65.8999L224.8 65.6999C225 65.4999 225.2 65.2999 225.4 65.1999L225.5 65.0999C225.8 64.7999 226.1 64.4999 226.3 64.2999L226.5 63.9999C226.7 63.7999 226.9 63.5999 227.1 63.3999L227.3 63.1999C227.6 62.8999 227.8 62.5999 228.1 62.2999L228.2 62.1999C228.4 61.8999 228.7 61.5999 228.9 61.2999L229.1 60.9999C229.3 60.6999 229.6 60.3999 229.8 60.0999L229.9 59.9999C230.2 59.5999 230.4 59.1999 230.7 58.8999L230.8 58.6999C231 58.3999 231.3 57.9999 231.5 57.5999L231.6 57.4999C231.9 57.0999 232.1 56.6999 232.4 56.2999C234.1 53.4999 235.8 50.2999 237.5 46.6999C238.4 44.7999 239.3 42.6999 240.2 40.5999C241.2 38.2999 242 36.2999 242.5 34.7999C241.7 33.6999 241.3 32.0999 241.5 30.3999C241.8 27.4999 243.4 25.2999 245.6 25.0999C245.8 25.0999 246 25.0999 246.3 25.0999C248.7 25.2999 250.3 27.8999 250.1 31.1999C250 32.4999 249.5 33.7999 248.8 34.7999C248.4 35.3999 247.9 35.7999 247.4 36.0999L245.9 67.3999C247.8 69.1999 248.5 72.9999 248.4 76.5999C248.2 80.1999 247.1 83.9999 245.1 85.5999L244.5 97.1999C244.4 98.2999 244.2 99.2999 243.7 100.2C243.6 100.4 243.6 100.5 243.5 100.6C242.3 102.6 240.3 103.9 238 104.3C237.7 104.3 237.4 104.4 237.1 104.4C216.3 107.2 195.2 108.7 174.3 108.8C173.3 108.3 172.2 108.3 171.1 108.3ZM98.7996 44.0999L99.9996 69.1999L99.2996 69.7999C98.7996 70.1999 98.0996 72.4999 98.3996 75.9999C98.5996 78.8999 99.4996 80.9999 100.2 81.7999L100.7 82.2999L101.4 96.4999C101.5 97.9999 102.5 99.2999 104 99.6999C104.2 99.6999 104.3 99.7999 104.4 99.7999C104.6 99.7999 104.8 99.7999 104.9 99.7999H105.2C128.1 102.9 151.4 104.3 174.4 104.2C195.2 104.1 216.2 102.6 236.9 99.7999H237.2C237.4 99.7999 237.5 99.7999 237.7 99.7999C238.8 99.5999 239.8 98.9999 240.3 98.0999L240.4 97.9999C240.7 97.4999 240.8 96.9999 240.8 96.4999L241.5 82.1999L243 81.9999C243.5 81.5999 244.5 79.4999 244.7 76.0999C244.9 72.6999 244.1 70.4999 243.6 69.9999L242.1 69.5999L243.3 44.1999C242.7 45.4999 242.1 46.8999 241.5 48.0999C239.7 51.7999 237.9 55.0999 236.2 57.9999C235.9 58.3999 235.7 58.8999 235.4 59.2999L235.3 59.4999C235 59.8999 234.8 60.2999 234.5 60.6999L234.4 60.8999C234.1 61.2999 233.8 61.6999 233.5 62.0999L233.4 62.2999C233.2 62.5999 232.9 62.9999 232.7 63.2999L232.5 63.5999C232.2 63.8999 232 64.2999 231.7 64.5999L231.6 64.6999C231.3 64.9999 231 65.3999 230.7 65.6999L230.5 65.9999C230.3 66.1999 230.1 66.4999 229.8 66.6999L229.5 66.9999C229.2 67.2999 228.9 67.5999 228.6 67.8999L228.5 67.9999C228.2 68.2999 228 68.4999 227.7 68.6999L227.4 68.9999C227.2 69.1999 227 69.3999 226.7 69.4999L226.4 69.6999C226.1 69.8999 225.8 70.0999 225.5 70.2999L225.1 70.4999C223.1 71.6999 221.2 72.1999 219.3 72.1999C212.6 71.9999 206 64.0999 199.6 48.7999C198.1 45.0999 196.8 41.5999 195.9 38.7999C191.3 51.1999 182 72.1999 171.1 72.1999C160.2 72.1999 150.8 51.1999 146.3 38.7999C145.4 41.5999 144.1 45.0999 142.6 48.7999C136 63.9999 129.4 71.8999 122.7 72.0999C117.3 72.1999 111.8 67.5999 105.9 57.9999C103.2 53.3999 100.7 48.3999 98.7996 44.0999ZM146.1 28.6999C146 28.6999 146 28.6999 145.9 28.6999C145 28.7999 144.4 29.4999 144.4 30.3999C144.4 31.1999 145 31.8999 145.8 32.0999H146H146.3C147.1 31.9999 147.8 31.2999 147.8 30.3999C147.8 29.4999 147.1 28.6999 146.1 28.6999ZM196 28.6999C195.9 28.6999 195.9 28.6999 195.8 28.6999C194.9 28.7999 194.3 29.4999 194.3 30.3999C194.3 31.1999 194.9 31.8999 195.7 32.0999H196H196.3C197.1 31.9999 197.8 31.2999 197.8 30.3999C197.7 29.4999 196.9 28.6999 196 28.6999ZM246.2 29.0999C246 29.3999 245.9 29.7999 245.8 30.4999C245.7 31.0999 245.8 31.5999 246 31.8999C246.2 31.5999 246.3 31.1999 246.4 30.4999C246.4 29.8999 246.3 29.3999 246.2 29.0999ZM96.0996 29.0999C95.9996 29.3999 95.8996 29.8999 95.9996 30.4999C96.0996 31.0999 96.2996 31.5999 96.3996 31.7999C96.4996 31.4999 96.5996 30.9999 96.4996 30.3999C96.3996 29.7999 96.2996 29.3999 96.0996 29.0999Z" fill="black"/>
<path d="M187.6 89.6L183.5 93.7C182.7 94.5 182.7 95.8 183.5 96.6L187.6 100.7C188.4 101.5 189.7 101.5 190.5 100.7L194.6 96.6C195.4 95.8 195.4 94.5 194.6 93.7L190.5 89.6C189.7 88.8 188.4 88.8 187.6 89.6Z" fill="#4DB844"/>
<path d="M201.6 89.6L197.5 93.7C196.7 94.5 196.7 95.8 197.5 96.6L201.6 100.7C202.4 101.5 203.7 101.5 204.5 100.7L208.6 96.6C209.4 95.8 209.4 94.5 208.6 93.7L204.5 89.6C203.7 88.8 202.4 88.8 201.6 89.6Z" fill="#4DB844"/>
<path d="M151 89.6L147 93.6C146.2 94.4 146.2 95.7 147 96.5L151 100.5C151.8 101.3 153.1 101.3 153.9 100.5L157.9 96.5C158.7 95.7 158.7 94.4 157.9 93.6L153.9 89.6C153.1 88.8 151.8 88.8 151 89.6Z" fill="#4DB844"/>
<path d="M137.3 89.6L133.2 93.7C132.4 94.5 132.4 95.7 133.2 96.5L137.3 100.6C138.1 101.4 139.3 101.4 140.1 100.6L144.2 96.5C145 95.7 145 94.5 144.2 93.7L140.1 89.6C139.4 88.8 138.1 88.8 137.3 89.6Z" fill="#4DB844"/>
<defs>
<linearGradient id="paint0_linear" x1="143.304" y1="245.283" x2="121.084" y2="273.76" gradientUnits="userSpaceOnUse">
<stop stop-color="#BFD94C"/>
<stop offset="0.2414" stop-color="#BAD04C"/>
<stop offset="0.6416" stop-color="#AEB64A"/>
<stop offset="1" stop-color="#A09A49"/>
</linearGradient>
<linearGradient id="paint1_linear" x1="207.088" y1="245.644" x2="229.308" y2="274.121" gradientUnits="userSpaceOnUse">
<stop stop-color="#BFD94C"/>
<stop offset="0.2414" stop-color="#BAD04C"/>
<stop offset="0.6416" stop-color="#AEB64A"/>
<stop offset="1" stop-color="#A09A49"/>
</linearGradient>
<linearGradient id="paint2_linear" x1="187.6" y1="277.201" x2="229.8" y2="277.201" gradientUnits="userSpaceOnUse">
<stop stop-color="#BFD94C"/>
<stop offset="0.2013" stop-color="#BDD44C"/>
<stop offset="0.4526" stop-color="#B7C44B"/>
<stop offset="0.7292" stop-color="#ADAB4A"/>
<stop offset="1" stop-color="#A08B49"/>
</linearGradient>
<radialGradient id="paint3_radial" cx="0" cy="0" r="1" gradientUnits="userSpaceOnUse" gradientTransform="translate(174.845 262.22) scale(37.1114)">
<stop stop-color="#732E12"/>
<stop offset="0.4009" stop-color="#702E13"/>
<stop offset="0.6396" stop-color="#682F16"/>
<stop offset="0.8352" stop-color="#5A311B"/>
<stop offset="1" stop-color="#473421"/>
</radialGradient>
<linearGradient id="paint4_linear" x1="172.817" y1="282.014" x2="173.795" y2="304.169" gradientUnits="userSpaceOnUse">
<stop stop-color="#BFD94C"/>
<stop offset="0.2414" stop-color="#BAD04C"/>
<stop offset="0.6416" stop-color="#AEB64A"/>
<stop offset="1" stop-color="#A09A49"/>
</linearGradient>
<linearGradient id="paint5_linear" x1="176.463" y1="68.894" x2="171.95" y2="270.124" gradientUnits="userSpaceOnUse">
<stop stop-color="#B5D94C"/>
<stop offset="0.3327" stop-color="#B3D04B"/>
<stop offset="0.8849" stop-color="#ADB649"/>
<stop offset="1" stop-color="#ACB049"/>
</linearGradient>
</defs>
</svg>
