<svg width="458" height="458" viewBox="0 0 458 458" fill="none" xmlns="http://www.w3.org/2000/svg">
<path d="M128.958 327.994C129.092 327.994 129.227 327.859 129.362 327.859C132.19 326.647 134.885 325.569 137.175 324.222L128.958 327.994Z" fill="#AF713E"/>
<path d="M373.314 369.618C369.946 358.842 364.423 343.889 358.631 333.786C352.973 323.953 342.87 322.202 329.13 320.585C305.287 317.756 282.792 323.818 260.7 315.466C235.24 305.768 204.393 309.944 177.721 315.601C168.292 317.622 159.536 319.777 150.106 321.663C142.024 323.279 136.636 325.704 129.496 327.994C122.087 330.958 113.736 333.921 110.368 338.905C106.057 345.506 104.845 353.588 100.13 360.458C95.8198 366.655 82.888 373.929 79.1163 381.338C76.961 385.514 78.1733 389.824 84.3698 393.326C99.5916 401.948 123.839 413.128 141.081 419.864C150.376 423.501 156.168 422.558 166.54 422.019C200.082 420.268 234.836 421.48 268.243 418.921C281.445 417.843 296.532 415.822 307.443 410.973C319.701 405.585 323.877 406.124 343.274 404.911C346.912 404.642 354.725 404.507 358.092 404.372C360.247 404.238 373.179 401.005 376.412 397.098C381.396 390.902 375.2 375.411 373.314 369.618Z" fill="#AF713E"/>
<path d="M370.62 358.842C369.273 353.184 360.517 313.85 341.927 322.741L350.414 325.704C348.124 330.688 349.067 334.325 342.331 338.232C336.808 341.465 324.416 343.216 320.509 346.988C315.256 351.837 322.934 364.634 325.493 369.483C330.343 378.643 344.217 383.628 348.932 392.788C350.414 395.616 349.74 400.735 352.569 403.025C356.341 405.989 363.615 403.295 368.464 401.948C391.23 395.751 373.448 370.561 370.62 358.842Z" fill="#A0663A"/>
<path d="M311.215 392.653C306.635 383.762 307.847 376.084 307.174 366.655C306.769 360.189 306.231 347.526 294.242 350.086L284.408 349.682C274.036 350.221 286.429 363.287 286.968 367.598C287.776 373.929 286.564 379.991 284.139 385.648C281.579 391.575 280.906 398.715 276.73 404.238C272.824 409.356 268.109 413.936 264.741 419.19C276.73 419.998 291.413 417.573 301.112 412.859C304.345 411.377 314.178 408.952 315.795 406.662C318.354 403.429 312.831 395.751 311.215 392.653Z" fill="#A0663A"/>
<path d="M253.156 311.56C245.478 309.135 215.708 305.498 209.108 310.617C222.848 311.829 227.293 326.512 222.848 331.227C219.615 334.729 214.226 338.097 211.936 341.869C209.512 345.775 209.916 348.469 204.528 351.568C196.984 355.878 184.187 357.091 178.395 362.883C172.333 369.079 174.219 377.835 170.312 384.705C166.675 391.306 162.365 397.637 156.707 403.564C153.474 406.932 137.444 415.553 139.869 418.786C139.869 418.786 139.33 420.133 149.972 422.154C162.23 424.444 175.027 421.615 187.824 421.615C198.87 421.48 208.434 419.325 209.646 411.377C210.859 403.429 209.916 394.808 209.512 386.726C209.108 379.317 205.74 370.696 214.092 365.173C224.329 358.438 230.93 353.858 239.551 345.775C247.229 338.771 255.716 331.227 264.202 324.626C274.036 317.083 262.316 314.389 253.156 311.56Z" fill="#A0663A"/>
<path d="M111.446 334.999C108.482 344.563 124.781 345.641 134.884 348.604C145.796 351.837 156.572 355.474 166.944 359.515C170.043 360.728 174.623 363.152 177.721 363.018C181.358 362.748 187.016 359.785 190.383 358.572C201.698 354.8 207.356 353.453 209.916 344.698C211.397 339.579 211.936 338.636 217.998 335.403C223.386 332.574 226.08 329.476 228.236 325.165C231.873 317.756 233.22 307.653 218.671 308.596C206.009 309.405 192.943 313.446 180.684 315.736C166.944 318.43 152.531 318.565 138.791 321.932C128.957 324.222 112.523 328.668 109.694 336.481C109.829 337.558 109.829 334.999 109.694 335.538L111.446 334.999Z" fill="#D8894E"/>
<path d="M298.283 349.951C289.796 347.526 280.771 346.853 272.015 344.698C266.762 343.35 255.312 335.403 250.597 336.346C247.364 337.019 243.458 342.138 240.898 343.755C234.298 347.931 226.754 351.433 220.558 355.878C215.439 359.65 207.895 363.287 208.299 378.913C208.703 378.509 210.993 372.582 210.993 372.582C238.069 358.572 275.518 365.577 298.283 349.951Z" fill="#D8894E"/>
<path d="M346.373 320.989C332.902 319.238 318.758 318.565 305.153 317.218C294.107 316.14 272.958 316.948 267.031 317.352L262.047 326.512C272.823 330.823 285.62 330.419 296.397 334.46C303.402 337.154 313.37 347.392 321.452 347.392C324.55 347.392 332.902 343.485 336.135 342.542C340.984 341.061 344.756 339.444 347.989 336.211C353.243 331.092 357.957 322.606 346.373 320.989Z" fill="#D8894E"/>
<path d="M108.617 362.479C109.425 359.919 114.544 356.417 116.16 353.588C118.316 349.816 120.067 346.988 125.051 344.294C130.17 341.599 133.537 341.599 128.284 337.828C125.186 335.538 112.793 332.574 112.793 332.574C102.959 336.211 103.633 350.221 101.477 356.417C99.1873 362.614 91.5091 368.002 86.2555 373.121C84.7738 374.602 78.1732 379.856 78.9814 381.607C79.9243 383.762 90.162 383.762 93.6643 384.975C105.384 389.016 116.699 401.274 130.843 401.139C126.802 394.135 119.124 388.881 115.487 381.607C113.331 376.892 107.135 367.194 108.617 362.479Z" fill="#D8894E"/>
<path d="M204.528 339.175C202.238 342.138 203.854 345.506 199.948 348.2C197.388 349.951 192 351.029 188.498 351.433C178.934 352.376 168.965 352.241 159.401 352.51L129.227 347.392C136.636 350.22 147.951 353.319 155.764 355.878C164.924 358.842 170.312 358.707 167.888 366.25C166.002 372.178 167.888 378.105 165.867 383.897C163.712 389.959 162.634 395.212 158.728 401.005C166.271 394.539 168.561 387.669 171.929 380.125C174.488 374.468 174.892 368.675 177.452 363.422C186.881 363.826 205.74 357.225 208.299 351.163C210.32 346.045 210.589 343.216 215.035 338.905C218.941 335.133 223.521 332.709 226.619 327.725C220.827 329.476 207.491 335.403 204.528 339.175Z" fill="#E89256"/>
<path d="M226.215 310.752C225.407 305.094 200.351 310.886 195.637 311.56C181.493 313.581 167.079 315.197 153.204 318.026C119.124 325.165 113.331 330.958 109.56 334.191C121.818 332.978 148.624 323.279 161.287 325.165C168.157 326.108 168.83 327.321 175.565 324.761C181.223 322.606 186.611 320.855 192.808 319.373C198.465 318.295 226.754 314.658 226.215 310.752Z" fill="#E89256"/>
<path d="M222.982 368.136C231.199 367.732 253.425 362.075 264.202 361.536C269.186 361.266 268.513 363.961 270.937 366.655C272.554 368.406 276.595 370.022 277.538 371.908C280.636 377.296 277.807 383.493 276.325 388.881C274.574 394.808 284.947 386.726 270.937 410.973C281.444 403.16 291.008 386.052 290.2 374.198C289.931 370.157 291.143 364.903 289.796 361.132C288.449 357.36 285.89 358.707 289.527 355.474C291.278 353.992 297.07 351.568 298.417 350.086C286.159 353.184 281.04 351.702 276.864 351.837C268.513 352.106 268.513 353.992 262.047 356.821C252.348 361.132 248.576 362.075 222.982 368.136Z" fill="#E89256"/>
<path d="M341.658 335.538C336.809 336.615 324.954 340.656 319.836 339.983C312.562 339.04 305.153 332.439 297.744 331.766C284.947 330.553 285.89 331.227 279.559 330.823L307.712 341.734C314.986 346.718 318.623 355.07 321.856 361.94C319.162 345.775 353.377 344.832 353.647 327.994C348.259 329.61 347.45 334.191 341.658 335.538Z" fill="#E89256"/>
<path d="M121.818 388.073C118.854 383.089 117.777 377.296 114.005 372.582C112.523 370.696 110.368 369.483 109.29 367.328C107.943 364.903 111.446 361.266 111.446 358.707C109.425 361.805 104.576 364.23 103.902 365.577C102.824 367.598 102.286 369.618 100.939 371.639C97.3015 377.027 100.534 382.011 103.902 387.265C105.519 389.689 106.461 392.922 109.694 394.539C112.389 395.886 114.14 400.735 122.761 401.678C126.129 402.082 130.17 403.429 133.941 405.315C129.766 399.792 125.186 393.865 121.818 388.073Z" fill="#E89256"/>
<path d="M184.995 283.945C185.938 298.898 182.166 308.192 178.26 313.85C173.41 320.989 167.214 324.626 166.136 333.248C165.867 335.134 165.328 341.33 169.1 346.584C175.027 354.801 186.477 355.339 189.575 355.609C198.196 356.282 199.004 353.049 215.977 351.837C223.251 351.298 227.293 351.568 231.199 352.376C236.048 353.319 236.318 354.262 241.706 355.339C250.327 357.091 256.389 356.282 257.736 356.013C258.814 355.878 259.622 355.744 260.43 355.474C262.99 354.935 265.549 353.992 265.549 353.992C273.093 351.433 277.673 352.511 280.906 348.604C281.714 347.526 281.444 347.392 282.387 346.045C287.506 338.366 299.091 342.138 304.075 335.538C306.365 332.574 307.038 327.725 305.287 324.896C301.92 319.373 291.413 322.741 283.196 320.989C273.901 318.969 262.855 309.674 253.56 278.692C230.795 280.578 207.895 282.329 184.995 283.945Z" fill="#A0663A"/>
<path d="M186.881 263.2C183.513 268.05 178.933 275.728 176.374 285.966C174.757 292.297 174.353 298.089 174.353 302.535C173.949 302.939 165.463 309.135 156.303 305.498C155.36 305.094 148.086 302.13 147.682 297.012C147.143 290.68 158.189 288.121 166.81 276.402C171.39 270.205 173.41 264.009 174.623 259.429C178.664 260.776 182.84 261.988 186.881 263.2Z" fill="url(#paint0_linear)"/>
<path d="M159.266 309.27C159.94 308.731 156.572 306.172 156.303 302.131C155.899 295.934 162.903 292.297 168.561 285.562C172.063 281.251 176.105 274.516 177.586 263.739C176.778 263.874 176.105 264.143 175.566 264.413C170.447 266.838 169.504 273.708 169.235 274.92C162.769 281.386 156.438 287.852 149.972 294.318C149.702 295.799 149.702 298.089 150.511 300.649C152.396 306.711 158.458 310.078 159.266 309.27Z" fill="#C2D35E"/>
<path d="M161.691 310.752C159.266 310.752 146.2 310.348 143.775 302.4C142.158 297.146 146.065 293.509 151.049 288.66C154.686 285.158 159.401 280.712 163.711 274.112C166.944 269.262 169.638 263.874 171.524 258.216C172.198 256.196 174.488 254.984 176.508 255.657L188.767 259.294C190.518 259.833 191.73 261.584 191.596 263.335C191.191 271.283 189.71 279.231 187.15 286.774C185.264 292.297 182.974 297.685 180.146 302.804C179.876 303.208 179.607 303.612 179.337 303.882C176.508 306.306 170.581 310.617 162.095 310.617C161.826 310.752 161.691 310.752 161.691 310.752ZM151.453 300.245C152.127 301.322 156.707 302.804 161.826 302.669C167.214 302.669 171.12 300.11 173.276 298.359C175.7 293.913 177.721 289.199 179.337 284.484C181.223 278.557 182.57 272.495 183.109 266.299L177.721 264.682C175.7 269.666 173.276 274.381 170.312 278.826C165.463 286.101 160.344 291.085 156.572 294.722C154.417 296.608 151.857 299.167 151.453 300.245Z" fill="black"/>
<path d="M280.636 260.102C281.714 264.682 283.869 271.013 288.449 277.075C297.07 288.795 308.116 291.219 307.577 297.685C307.173 302.804 299.899 305.768 298.956 306.172C289.796 309.943 281.444 303.612 280.906 303.208C280.906 298.763 280.501 292.971 278.885 286.639C276.326 276.267 271.746 268.589 268.378 263.874C272.419 262.527 276.595 261.315 280.636 260.102Z" fill="url(#paint1_linear)"/>
<path d="M295.993 309.809C295.319 309.27 298.687 306.71 298.956 302.669C299.361 296.473 292.356 292.836 286.698 286.1C283.196 281.79 279.155 275.055 277.673 264.278C278.481 264.413 279.155 264.682 279.693 264.952C284.812 267.376 285.755 274.246 286.025 275.459C292.491 281.925 298.822 288.39 305.288 294.856C305.557 296.338 305.557 298.628 304.749 301.187C302.863 307.115 296.801 310.617 295.993 309.809Z" fill="#827B3C"/>
<path d="M293.568 311.291C293.433 311.291 293.433 311.291 293.298 311.291C284.812 311.156 278.885 306.98 276.056 304.555C275.652 304.286 275.383 303.882 275.248 303.478C272.419 298.359 269.994 292.971 268.243 287.448C265.818 279.904 264.337 271.956 263.798 264.009C263.663 262.123 264.875 260.506 266.627 259.968L278.885 256.331C280.905 255.657 283.195 256.869 283.869 258.89C285.755 264.548 288.449 269.936 291.682 274.785C295.992 281.251 300.572 285.696 304.344 289.333C309.194 294.048 313.1 297.82 311.618 303.073C309.194 310.886 295.993 311.291 293.568 311.291ZM281.983 298.898C283.869 300.379 287.91 303.208 293.433 303.208C298.417 303.343 303.132 301.726 303.671 300.783C303.267 299.706 300.707 297.281 298.687 295.261C294.915 291.623 289.796 286.639 284.947 279.365C281.983 274.92 279.558 270.205 277.538 265.221L272.15 266.838C272.688 273.034 274.035 279.096 275.921 285.023C277.538 289.738 279.558 294.452 281.983 298.898Z" fill="black"/>
<path d="M267.3 295.261C263.394 291.489 259.353 289.333 256.659 288.121L244.266 321.528C249.384 325.704 260.834 333.652 276.46 333.921C288.449 334.056 301.111 329.61 301.111 325.704C301.111 321.528 286.967 323.145 277.942 311.695C273.497 305.902 273.766 301.457 267.3 295.261Z" fill="url(#paint2_linear)"/>
<path d="M276.999 337.962C276.73 337.962 276.46 337.962 276.325 337.962C260.969 337.693 249.115 330.688 241.706 324.761L239.416 322.875L254.368 282.733L258.275 284.484C262.72 286.505 266.761 289.064 270.129 292.297C274.44 296.338 276.056 299.975 277.672 303.208C278.615 305.229 279.558 307.115 281.175 309.135C285.755 314.928 291.951 316.813 296.531 318.295C300.573 319.508 305.152 320.989 305.152 325.704C305.152 326.916 304.748 328.802 302.862 330.688C298.552 334.864 287.371 337.962 276.999 337.962ZM249.115 320.181C255.581 324.896 265.01 329.745 276.46 329.88C284.408 330.015 291.412 327.994 295.05 326.243C294.78 326.108 294.376 326.108 294.107 325.973C288.853 324.357 280.905 321.798 274.844 314.119C272.688 311.425 271.476 308.866 270.398 306.711C269.051 303.747 267.839 301.322 264.606 298.224C262.855 296.608 261.104 295.126 258.948 293.914L249.115 320.181Z" fill="black"/>
<path d="M274.979 275.055C279.155 285.427 278.212 295.53 277.808 298.089C277.269 302.131 275.248 315.062 264.606 325.839C249.789 340.791 229.718 339.848 225.542 339.579C207.895 338.636 185.669 328.802 178.26 308.731C173.949 297.146 176.239 286.774 177.182 282.598C180.954 266.433 193.751 248.518 214.361 243.399C241.572 236.663 267.031 255.253 274.979 275.055Z" fill="url(#paint3_radial)"/>
<path d="M228.909 342.677C227.831 342.677 226.619 342.677 225.541 342.542C206.009 341.599 182.705 330.823 174.757 309.135C169.908 296.204 172.737 284.484 173.545 280.712C177.182 264.952 189.979 244.476 213.687 238.415C242.649 231.141 269.994 250.404 278.885 272.495C283.196 283.137 282.522 293.509 281.983 297.551C281.175 304.151 278.211 316.948 267.704 327.725C257.871 337.424 244.266 342.677 228.909 342.677ZM225.946 245.015C222.578 245.015 219.076 245.419 215.708 246.228C195.502 251.346 184.591 268.993 181.493 282.464C180.684 286.101 178.394 295.53 182.436 306.172C189.171 324.357 209.781 333.517 226.08 334.325C240.494 334.999 253.291 330.554 262.047 321.798C270.937 312.772 273.362 301.996 274.036 296.473C274.44 293.105 274.979 284.349 271.476 275.459C264.741 259.294 246.151 245.015 225.946 245.015Z" fill="black"/>
<path d="M194.155 317.756C191.865 320.72 189.306 324.222 186.881 328.264C184.052 332.978 181.897 337.424 180.28 341.33C182.436 341.869 191.865 343.62 201.16 337.962C207.221 334.191 210.185 329.072 211.397 326.647C211.397 326.647 225.541 331.631 240.359 327.186C241.976 330.419 245.478 336.211 252.348 340.252C259.353 344.428 268.917 346.179 270.399 343.485C271.341 341.869 268.647 339.444 265.818 333.652C262.99 327.725 262.047 322.202 261.777 318.43C239.281 318.161 216.786 318.026 194.155 317.756Z" fill="url(#paint4_linear)"/>
<path d="M255.716 320.72C255.716 320.72 259.757 334.056 269.591 341.06C269.591 341.06 271.881 336.885 272.015 336.615C272.15 336.346 267.974 322.471 267.435 321.259C266.896 320.046 264.741 315.736 263.933 315.601C263.125 315.466 255.716 320.72 255.716 320.72Z" fill="#827B3C"/>
<path d="M197.792 321.932C197.792 321.932 193.751 335.268 183.918 342.273C183.918 342.273 181.628 338.097 181.493 337.827C181.358 337.558 185.534 323.683 186.073 322.471C186.612 321.259 188.767 316.948 189.575 316.813C190.518 316.813 197.792 321.932 197.792 321.932Z" fill="#BFD94C"/>
<path d="M187.824 348.065C185.264 348.065 182.84 347.661 180.954 347.122C177.182 345.91 175.7 343.889 175.162 342.273C173.545 338.232 176.374 335.133 178.799 332.439C180.819 330.149 183.513 327.186 185.399 322.875C187.689 317.622 188.363 311.695 187.554 305.094C187.42 304.016 187.689 302.804 188.497 301.996C189.306 301.188 190.249 300.649 191.461 300.514L263.394 297.146C264.606 297.146 265.819 297.55 266.627 298.493C267.435 299.436 267.839 300.649 267.57 301.861C266.223 309 266.627 315.601 268.513 321.663C269.86 325.839 271.746 329.072 273.362 331.766C275.517 335.538 277.807 339.309 275.517 343.216C271.746 349.816 259.083 348.335 251.809 344.428C244.939 340.791 241.437 334.729 239.686 330.419C229.717 332.439 220.692 331.092 215.708 329.88C213.957 334.19 210.589 339.713 204.527 343.485C199.004 346.718 192.943 348.065 187.824 348.065ZM183.379 339.444C186.207 340.387 193.751 340.522 199.813 336.75C205.605 333.113 207.895 327.32 208.838 324.088C209.107 323.01 209.916 322.067 210.859 321.663C211.801 321.124 213.014 321.124 214.091 321.393C214.226 321.393 227.427 325.839 240.898 321.932C241.976 321.663 243.053 321.798 243.996 322.336C244.939 322.875 245.613 323.818 245.882 324.896C246.421 327.051 248.711 334.056 255.311 337.558C260.565 340.387 266.357 340.252 267.974 339.444C267.704 338.636 266.761 337.154 266.088 336.076C264.471 333.248 262.181 329.476 260.565 324.357C258.679 318.43 258.006 312.233 258.679 305.633L195.906 308.596C196.176 315.062 195.098 320.989 192.808 326.378C190.383 331.9 187.15 335.538 184.86 338.097C184.322 338.366 183.783 338.905 183.379 339.444Z" fill="black"/>
<path d="M199.274 260.372C193.751 267.646 188.228 277.884 187.554 290.546C187.016 299.032 186.612 307.384 193.886 315.332C204.527 327.051 223.521 328.264 225.676 328.398C228.236 328.533 254.503 329.611 262.181 315.467C263.798 312.503 264.741 308.731 265.145 306.845C265.414 305.768 267.3 298.224 266.357 289.603C265.01 274.92 256.524 264.009 253.695 260.641C235.644 260.641 217.459 260.507 199.274 260.372Z" fill="#F3DF6F"/>
<path d="M202.776 321.394C219.884 327.59 238.878 322.336 249.385 308.866C258.14 297.551 259.892 282.059 254.099 268.454C255.85 270.475 258.14 273.573 260.161 277.749C265.415 288.795 267.031 304.555 260.969 314.524C252.483 328.533 226.889 334.325 202.776 321.394Z" fill="#F3D041"/>
<path d="M196.176 310.617C198.196 312.503 200.217 314.119 202.372 315.736C208.703 320.316 216.247 324.088 224.06 325.569C232.412 327.051 240.09 325.704 247.229 322.336C249.654 321.124 251.944 319.777 254.234 318.295C252.213 320.046 249.923 321.528 247.633 322.875C240.225 326.916 232.277 328.398 223.79 326.916C215.708 325.435 208.434 321.528 201.968 316.275C199.948 314.523 197.927 312.638 196.176 310.617Z" fill="#D1A015"/>
<path d="M194.559 299.437C202.507 305.498 214.496 311.156 227.697 312.772C241.167 314.254 251.001 310.752 262.047 304.421C252.078 311.695 239.686 316.005 227.562 314.389C214.9 313.177 201.968 306.576 194.559 299.437Z" fill="#D1A015"/>
<path d="M197.657 288.929C205.47 291.758 213.822 293.913 220.827 295.126C223.386 295.53 226.08 295.934 228.64 296.203C243.323 297.685 251.405 295.799 260.161 293.24C251.674 297.551 242.38 299.841 228.505 298.493C225.811 298.224 223.117 297.82 220.423 297.281C211.397 295.395 202.776 291.893 197.657 288.929Z" fill="#D1A015"/>
<path d="M203.584 280.308C209.646 277.749 219.614 275.593 231.064 275.728C240.359 275.863 249.654 277.614 258.275 281.386C249.25 278.692 240.629 277.21 231.064 277.21C220.962 276.941 210.724 278.422 203.584 280.308Z" fill="#D1A015"/>
<path d="M224.734 283.002C225.138 283.676 224.195 285.292 222.982 285.966C221.366 286.774 219.211 286.101 218.941 285.292C218.806 284.484 220.288 283.407 221.501 283.002C222.444 282.598 224.329 282.194 224.734 283.002Z" fill="#F2F7E3"/>
<path d="M247.229 287.986C246.825 289.199 244.67 289.738 243.053 289.333C242.784 289.199 241.033 288.795 240.494 287.178C239.955 285.562 240.763 283.676 241.976 283.272C244.266 282.463 247.903 286.1 247.229 287.986Z" fill="#F2F7E3"/>
<path d="M203.046 293.779C203.45 294.452 204.528 296.877 203.719 297.685C202.776 298.493 199.678 297.55 198.331 295.26C197.253 293.24 197.792 290.276 199.005 289.872C200.352 289.468 202.238 292.162 203.046 293.779Z" fill="#F2F7E3"/>
<path d="M232.007 293.914C232.681 294.452 232.546 296.338 231.469 296.742C230.795 297.012 229.852 296.742 229.448 296.204C229.044 295.395 229.852 294.183 230.795 293.914C230.93 293.779 231.603 293.644 232.007 293.914Z" fill="#F2F7E3"/>
<path d="M253.83 302.804C254.234 303.208 253.83 304.555 252.887 304.69C252.348 304.825 251.675 304.555 251.54 304.016C251.405 303.478 251.809 303.073 251.944 302.939C252.483 302.535 253.56 302.4 253.83 302.804Z" fill="#F2F7E3"/>
<path d="M232.951 315.197C233.489 315.871 232.681 318.026 231.199 318.699C229.179 319.508 226.619 317.083 226.889 316.275C226.889 316.005 227.293 316.005 229.718 315.466C232.412 315.062 232.816 314.928 232.951 315.197Z" fill="#F2F7E3"/>
<path d="M248.172 319.238C248.307 319.777 248.037 320.451 247.633 320.72C246.96 321.124 246.151 320.855 245.882 320.316C245.478 319.642 246.286 318.295 247.094 318.295C247.633 318.43 248.037 318.699 248.172 319.238Z" fill="#F2F7E3"/>
<path d="M227.562 331.631C226.619 331.631 225.676 331.631 224.868 331.496C221.366 331.362 203.18 329.745 192.808 317.622C185.265 308.866 185.803 299.436 186.342 291.085C187.016 280.039 190.922 269.397 198.062 259.294C198.466 258.755 199.005 258.486 199.678 258.486L252.348 258.755C252.887 258.755 253.56 259.025 253.83 259.429C262.451 269.666 267.3 281.116 268.109 292.701C268.513 299.975 269.052 309.001 261.912 317.622C254.638 326.243 241.302 331.631 227.562 331.631ZM200.621 262.527C194.29 271.687 190.788 281.386 190.249 291.219C189.71 299.571 189.306 307.384 195.772 314.928C205.336 326.108 222.982 327.321 225.003 327.455C238.608 328.129 251.809 323.279 258.679 315.062C264.876 307.653 264.337 299.841 263.933 292.971C263.259 282.598 258.949 272.226 251.27 262.796L200.621 262.527Z" fill="black"/>
<path d="M101.747 214.302C129.496 263.201 194.829 264.548 225.811 265.356C240.225 265.625 292.086 266.164 333.576 232.083C342.332 224.944 349.471 219.017 354.994 208.51C375.335 169.849 348.663 117.853 325.493 90.2382C316.737 79.7311 288.315 49.1529 240.629 42.1482C231.469 40.8011 177.452 33.7964 135.019 71.3793C97.0321 104.921 75.3445 167.829 101.747 214.302Z" fill="url(#paint5_linear)"/>
<path d="M91.9132 168.772C94.6073 167.963 98.6485 192.48 115.756 213.898C152.127 259.429 221.096 258.082 229.179 257.812C242.649 257.408 306.096 255.388 339.772 206.085C352.704 187.092 356.88 167.694 358.227 155.436C359.439 168.637 359.708 193.288 345.834 216.323C316.603 264.952 249.115 266.299 223.925 266.703C174.757 267.646 143.371 249.056 136.501 244.88C116.699 232.622 107.943 220.095 104.98 215.515C91.3744 194.096 89.3538 169.58 91.9132 168.772Z" fill="#C2D35E"/>
<path d="M219.614 248.922C211.667 248.922 200.486 247.979 187.958 243.399C179.203 240.166 170.851 235.586 163.442 229.793C161.691 228.446 161.421 225.887 162.768 224.136C164.115 222.385 166.675 222.115 168.426 223.462C175.296 228.716 182.705 232.892 190.787 235.855C206.952 241.782 220.692 240.974 227.293 240.57C242.918 239.627 254.368 235.316 260.565 232.892C267.839 230.063 274.978 226.56 281.714 222.519C283.6 221.307 286.159 221.98 287.237 223.866C288.314 225.752 287.775 228.312 285.89 229.389C278.75 233.7 271.207 237.472 263.394 240.435C256.793 242.995 244.535 247.575 227.697 248.652C225.676 248.787 222.847 248.922 219.614 248.922Z" fill="#827B3C"/>
<path d="M219.076 244.88C211.128 244.88 199.947 243.938 187.42 239.358C178.664 236.125 170.312 231.545 162.903 225.752C161.152 224.405 160.883 221.846 162.23 220.095C163.577 218.343 166.136 218.074 167.887 219.421C174.757 224.675 182.166 228.85 190.249 231.814C206.413 237.741 220.153 236.933 226.754 236.529C242.38 235.586 253.83 231.275 260.026 228.85C267.3 226.022 274.44 222.519 281.175 218.478C283.061 217.266 285.62 217.939 286.698 219.825C287.91 221.711 287.237 224.27 285.351 225.348C278.212 229.659 270.668 233.43 262.855 236.394C256.255 238.953 243.996 243.533 227.158 244.611C225.137 244.746 222.443 244.88 219.076 244.88Z" fill="black"/>
<path d="M206.009 101.823C192.269 77.8452 167.079 66.3952 147.008 72.1875C133.268 76.094 125.59 87.1399 122.761 91.8546C123.165 96.4346 124.512 99.6675 126.263 102.092C136.366 116.102 168.426 115.832 206.009 101.823Z" fill="#D30A05"/>
<path d="M159.266 209.453C194.604 209.453 223.251 180.806 223.251 145.468C223.251 110.129 194.604 81.4823 159.266 81.4823C123.928 81.4823 95.2808 110.129 95.2808 145.468C95.2808 180.806 123.928 209.453 159.266 209.453Z" fill="black"/>
<path d="M159.266 198.811C188.727 198.811 212.61 174.928 212.61 145.468C212.61 116.007 188.727 92.1241 159.266 92.1241C129.806 92.1241 105.923 116.007 105.923 145.468C105.923 174.928 129.806 198.811 159.266 198.811Z" fill="white"/>
<path d="M159.266 190.594C184.189 190.594 204.393 170.39 204.393 145.468C204.393 120.545 184.189 100.341 159.266 100.341C134.343 100.341 114.14 120.545 114.14 145.468C114.14 170.39 134.343 190.594 159.266 190.594Z" fill="black"/>
<path d="M154.745 146.131C165.741 142.917 172.523 133.017 169.893 124.02C167.262 115.023 156.216 110.335 145.219 113.55C134.223 116.765 127.441 126.665 130.071 135.662C132.702 144.659 143.748 149.346 154.745 146.131Z" fill="white"/>
<path d="M177.004 160.678C181.574 159.342 184.399 155.249 183.313 151.536C182.228 147.823 177.643 145.896 173.073 147.232C168.503 148.568 165.678 152.661 166.764 156.374C167.849 160.087 172.434 162.014 177.004 160.678Z" fill="white"/>
<path d="M300.842 72.7263C301.65 73.2651 306.769 77.441 316.737 85.6581C321.048 89.2951 324.685 92.2586 326.975 94.1445C326.975 94.1445 326.301 96.2998 325.493 98.7245C324.416 101.957 323.338 104.382 323.338 104.382C321.317 108.962 242.784 119.604 238.338 103.843C234.701 90.6422 284.408 63.0275 300.842 72.7263Z" fill="#D30A05"/>
<path d="M284.947 209.857C320.434 209.857 349.202 181.089 349.202 145.602C349.202 110.115 320.434 81.3477 284.947 81.3477C249.46 81.3477 220.692 110.115 220.692 145.602C220.692 181.089 249.46 209.857 284.947 209.857Z" fill="black"/>
<path d="M284.947 198.946C314.408 198.946 338.291 175.063 338.291 145.602C338.291 116.142 314.408 92.2588 284.947 92.2588C255.486 92.2588 231.604 116.142 231.604 145.602C231.604 175.063 255.486 198.946 284.947 198.946Z" fill="white"/>
<path d="M284.947 190.729C309.869 190.729 330.073 170.525 330.073 145.602C330.073 120.68 309.869 100.476 284.947 100.476C260.024 100.476 239.82 120.68 239.82 145.602C239.82 170.525 260.024 190.729 284.947 190.729Z" fill="black"/>
<path d="M280.424 146.245C291.421 143.03 298.203 133.131 295.572 124.133C292.942 115.136 281.895 110.449 270.899 113.664C259.903 116.879 253.121 126.778 255.751 135.775C258.381 144.772 269.428 149.46 280.424 146.245Z" fill="white"/>
<path d="M302.683 160.792C307.253 159.456 310.078 155.363 308.992 151.65C307.907 147.937 303.322 146.01 298.752 147.346C294.182 148.682 291.358 152.775 292.443 156.488C293.529 160.201 298.113 162.128 302.683 160.792Z" fill="white"/>
<path d="M224.329 274.246C161.287 274.246 103.633 238.415 90.7008 205.412C82.2143 183.589 84.7737 169.041 84.9084 168.502C86.2555 162.171 87.4678 158.265 90.0273 150.452C91.1049 147.353 92.3173 143.582 93.799 138.867C97.5708 127.148 99.5914 118.661 100.938 113.677C101.343 111.926 101.747 110.444 102.016 109.501C109.964 81.4823 155.898 39.7235 212.61 35.4129C255.85 32.0452 289.257 51.1735 309.598 67.7423C332.902 86.7358 346.777 108.289 348.932 116.775L349.067 117.449C349.605 120.008 351.491 127.956 355.802 138.059C357.149 141.426 357.957 142.639 358.496 143.716C359.17 144.929 359.843 146.141 360.921 148.835C361.19 149.643 364.154 157.456 365.231 165.943C365.366 166.616 367.387 182.646 361.19 200.697C352.704 225.483 299.495 272.495 228.101 274.112C226.888 274.246 225.676 274.246 224.329 274.246ZM222.443 45.7852C219.48 45.7852 216.516 45.9199 213.418 46.1894C158.188 50.3652 118.315 91.5852 112.388 112.465C112.119 113.408 111.85 114.62 111.445 116.236C110.098 121.49 107.943 130.111 104.171 142.1C102.69 146.949 101.343 150.721 100.4 153.819C97.8402 161.498 96.7626 165 95.5502 170.658C95.5502 170.658 93.5296 182.916 100.804 201.505C111.041 227.773 162.768 263.47 224.329 263.47C225.541 263.47 226.754 263.47 227.831 263.47C297.878 261.853 344.891 214.976 350.953 197.329C356.341 181.569 354.59 167.559 354.59 167.425C353.647 160.016 350.953 153.146 350.818 152.742C350.01 150.721 349.605 149.913 349.067 148.835C348.393 147.488 347.45 146.006 345.834 142.1C341.254 131.189 339.233 122.568 338.56 119.739L338.425 119.2C335.731 108.289 292.221 45.7852 222.443 45.7852Z" fill="black"/>
<path d="M247.391 67.5106C249.363 64.096 246.051 58.4933 239.995 54.9967C233.939 51.5001 227.431 51.4337 225.46 54.8483C223.488 58.2629 226.8 63.8656 232.856 67.3622C238.912 70.8588 245.42 70.9253 247.391 67.5106Z" fill="white"/>
<path d="M260.026 71.6488C262.333 71.6488 264.202 69.7792 264.202 67.4729C264.202 65.1666 262.333 63.297 260.026 63.297C257.72 63.297 255.851 65.1666 255.851 67.4729C255.851 69.7792 257.72 71.6488 260.026 71.6488Z" fill="white"/>
<defs>
<linearGradient id="paint0_linear" x1="184.651" y1="268.059" x2="154.719" y2="306.418" gradientUnits="userSpaceOnUse">
<stop stop-color="#BFD94C"/>
<stop offset="0.2414" stop-color="#BAD04C"/>
<stop offset="0.6416" stop-color="#AEB64A"/>
<stop offset="1" stop-color="#A09A49"/>
</linearGradient>
<linearGradient id="paint1_linear" x1="270.612" y1="268.571" x2="300.544" y2="306.93" gradientUnits="userSpaceOnUse">
<stop stop-color="#BFD94C"/>
<stop offset="0.2414" stop-color="#BAD04C"/>
<stop offset="0.6416" stop-color="#AEB64A"/>
<stop offset="1" stop-color="#A09A49"/>
</linearGradient>
<linearGradient id="paint2_linear" x1="244.275" y1="311.065" x2="301.114" y2="311.065" gradientUnits="userSpaceOnUse">
<stop stop-color="#BFD94C"/>
<stop offset="0.2013" stop-color="#BDD44C"/>
<stop offset="0.4526" stop-color="#B7C44B"/>
<stop offset="0.7292" stop-color="#ADAB4A"/>
<stop offset="1" stop-color="#A08B49"/>
</linearGradient>
<radialGradient id="paint3_radial" cx="0" cy="0" r="1" gradientUnits="userSpaceOnUse" gradientTransform="translate(227.084 290.799) scale(50.0047)">
<stop stop-color="#732E12"/>
<stop offset="0.4009" stop-color="#702E13"/>
<stop offset="0.6396" stop-color="#682F16"/>
<stop offset="0.8352" stop-color="#5A311B"/>
<stop offset="1" stop-color="#473421"/>
</radialGradient>
<linearGradient id="paint4_linear" x1="224.478" y1="317.489" x2="225.795" y2="347.332" gradientUnits="userSpaceOnUse">
<stop stop-color="#BFD94C"/>
<stop offset="0.2414" stop-color="#BAD04C"/>
<stop offset="0.6416" stop-color="#AEB64A"/>
<stop offset="1" stop-color="#A09A49"/>
</linearGradient>
<linearGradient id="paint5_linear" x1="229.349" y1="30.4114" x2="223.27" y2="301.46" gradientUnits="userSpaceOnUse">
<stop stop-color="#B5D94C"/>
<stop offset="0.3327" stop-color="#B3D04B"/>
<stop offset="0.8849" stop-color="#ADB649"/>
<stop offset="1" stop-color="#ACB049"/>
</linearGradient>
</defs>
</svg>
